<svg width="702" height="421" viewBox="0 0 702 421" fill="none" xmlns="http://www.w3.org/2000/svg">
<path d="M116.48 418.789C116.48 418.789 14.1647 398.498 8.95144 326.841C2.94764 244.352 85.5199 243.449 72.8519 183.659C55.1707 100.217 89.7426 50.5064 167.192 53.9268C232.513 56.8255 287.608 108.09 322.55 64.0173C360.314 16.4736 430.758 -18.6525 500.523 10.7964C570.287 40.2454 560.01 135.925 608.261 156.236C656.511 176.547 708.754 230.199 700.319 304.384C692.444 374.044 628.414 420.234 569.086 419.531C540.008 419.19 427.156 419.923 325.742 419.531C220.225 419.18 116.48 418.789 116.48 418.789Z" fill="#DEE3FF"/>
<path d="M631.765 134.039C631.765 134.039 608.14 96.4751 638.189 75.2711C668.238 54.067 701.229 93.9275 693.074 122.895C684.918 151.863 641.491 150.228 631.765 134.039Z" fill="#DEE3FF"/>
<path d="M27.5934 168.793C27.5934 168.793 11.5832 156.757 23.1305 140.779C34.6778 124.8 62.4154 132.965 57.9826 152.223C55.9613 161.01 44.6442 180.258 27.5934 168.793Z" fill="#DEE3FF"/>
<path d="M524.657 326.27C524.366 326.763 523.935 327.158 523.42 327.407C522.905 327.655 522.328 327.746 521.762 327.667C521.196 327.588 520.665 327.343 520.237 326.963C519.809 326.583 519.503 326.085 519.357 325.531C519.21 324.977 519.23 324.392 519.414 323.849C519.598 323.307 519.938 322.831 520.391 322.481C520.844 322.132 521.39 321.924 521.96 321.884C522.531 321.844 523.1 321.974 523.597 322.258C523.932 322.449 524.225 322.705 524.461 323.011C524.696 323.317 524.868 323.667 524.967 324.041C525.065 324.414 525.089 324.804 525.036 325.186C524.983 325.569 524.854 325.937 524.657 326.27Z" stroke="#7189FF" stroke-miterlimit="10"/>
<path d="M519.473 318.817C519.473 319.073 519.397 319.323 519.255 319.536C519.113 319.748 518.912 319.914 518.676 320.012C518.441 320.11 518.181 320.135 517.931 320.086C517.681 320.036 517.451 319.912 517.27 319.732C517.09 319.551 516.967 319.32 516.917 319.069C516.868 318.818 516.893 318.558 516.991 318.322C517.088 318.086 517.254 317.884 517.466 317.741C517.678 317.599 517.927 317.523 518.183 317.523C518.525 317.523 518.853 317.66 519.095 317.902C519.337 318.145 519.473 318.474 519.473 318.817Z" stroke="#7189FF" stroke-miterlimit="10"/>
<path d="M608.701 416.291C601.697 411.276 601.057 379.761 629.585 373.372C644.154 370.112 641.822 362.8 644.764 353.401C647.706 344.003 651.398 343.301 659.774 342.027C668.149 340.753 661.845 329.349 671.781 322.759C681.718 316.169 694.966 315.647 699.919 330.071C704.112 342.288 692.234 347.664 689.813 353.341C687.391 359.018 694.436 366.692 685.81 375.257C677.185 383.823 668.029 377.374 667.919 386.441C667.809 395.509 663.786 412.029 655.061 415.429C644.254 419.642 614.195 420.183 608.701 416.291Z" stroke="#7189FF" stroke-miterlimit="10"/>
<path d="M618.387 419.882C622.239 415.278 626.232 410.794 630.094 406.201C639.694 394.793 649.06 383.181 658.192 371.365C664.823 362.813 671.334 354.16 677.725 345.407C678.305 344.625 676.994 343.872 676.434 344.655C665.7 359.366 654.6 373.813 643.133 387.996C635.995 396.829 628.733 405.559 621.349 414.185C620.018 415.729 618.637 417.254 617.346 418.819C616.736 419.551 617.787 420.624 618.407 419.882H618.387Z" fill="#7189FF"/>
<path d="M628.093 373.743C627.443 368.457 626.612 363.281 626.092 358.477C624.161 338.918 651.108 347.664 661.764 322.558C672.421 297.452 646.255 288.345 658.582 277.843C670.91 267.341 674.362 231.252 656.291 225.044C632.876 217.019 611.833 231.714 608.971 251.122C606.76 266.068 616.766 276.509 590.739 287.472C564.713 298.435 568.726 312.046 574.079 338.075C579.432 364.104 561.831 354.565 548.162 376.541C537.426 393.934 552.605 411.688 559.44 418.318L612.123 419.22" stroke="#7189FF" stroke-miterlimit="10"/>
<path d="M570.128 418.318C572.263 413.363 574.407 408.411 576.562 403.463C581.865 391.279 587.185 379.099 592.522 366.922C599.326 351.409 606.171 335.905 613.055 320.412C619.726 305.44 626.467 290.492 633.278 275.566C638.081 265.135 642.854 254.653 648.117 244.472C648.518 243.69 648.928 242.908 649.338 242.135C649.748 241.363 648.508 240.521 648.047 241.373C643.044 250.792 638.591 260.541 634.108 270.23C627.394 284.754 620.83 299.318 614.306 313.962C607.341 329.576 600.424 345.214 593.553 360.874C587.929 373.666 582.329 386.475 576.752 399.3C574.14 405.318 571.389 411.246 568.937 417.305C568.937 417.385 568.867 417.475 568.827 417.555C568.447 418.438 569.738 419.2 570.128 418.318Z" fill="#7189FF"/>
<path d="M618.127 308.365L649.047 306.65L653.45 306.399C654.45 306.349 654.45 304.845 653.45 304.895L622.53 306.61L618.127 306.861C617.127 306.911 617.127 308.415 618.127 308.365Z" fill="#7189FF"/>
<path d="M582.455 388.999L606.891 386.251L610.313 385.86C611.264 385.76 611.314 384.245 610.313 384.355L585.887 387.084L582.465 387.465C581.465 387.575 581.465 389.08 582.465 388.969L582.455 388.999Z" fill="#7189FF"/>
<path d="M579.162 300.462L586.167 316.26L597.304 341.336L599.896 347.143C600.286 348.026 601.577 347.264 601.186 346.391L594.182 330.583L583.035 305.508L580.453 299.69C580.063 298.807 578.772 299.57 579.162 300.452V300.462Z" fill="#7189FF"/>
<path d="M630.113 246.82C628.392 249.358 625.38 250.321 623.399 248.967C621.418 247.613 621.208 244.463 622.939 241.945C624.67 239.428 627.672 238.435 629.653 239.789C631.634 241.143 631.845 244.273 630.113 246.82Z" stroke="#7189FF" stroke-miterlimit="10"/>
<path d="M631.387 260.571C631.387 261.053 631.244 261.525 630.977 261.925C630.71 262.326 630.33 262.639 629.885 262.823C629.441 263.008 628.952 263.056 628.481 262.962C628.009 262.868 627.576 262.636 627.236 262.295C626.896 261.954 626.664 261.52 626.57 261.047C626.476 260.574 626.525 260.084 626.709 259.639C626.893 259.193 627.204 258.813 627.604 258.545C628.004 258.277 628.474 258.134 628.955 258.134C629.275 258.133 629.591 258.195 629.887 258.317C630.183 258.439 630.451 258.618 630.677 258.845C630.903 259.072 631.082 259.341 631.204 259.637C631.326 259.933 631.388 260.251 631.387 260.571Z" stroke="#7189FF" stroke-miterlimit="10"/>
<path d="M648.997 323.351C648.999 324.288 648.723 325.204 648.206 325.984C647.688 326.764 646.951 327.372 646.088 327.732C645.225 328.092 644.275 328.187 643.358 328.006C642.442 327.824 641.599 327.374 640.938 326.712C640.276 326.051 639.825 325.207 639.642 324.288C639.459 323.37 639.552 322.417 639.909 321.552C640.267 320.686 640.872 319.946 641.649 319.425C642.426 318.905 643.339 318.627 644.274 318.627C645.525 318.627 646.724 319.124 647.61 320.01C648.495 320.896 648.994 322.097 648.997 323.351Z" stroke="#7189FF" stroke-miterlimit="10"/>
<path d="M56.4316 418.257C50.828 419.732 25.462 423.955 25.8722 403.703C26.0824 393.362 23.0704 393.733 17.0266 389.661C10.9828 385.589 11.0929 383.071 11.6532 377.254C12.2136 371.436 6.42991 374.244 2.64752 366.651C-1.93539 357.554 3.58811 350.763 12.4937 349.129C21.3994 347.494 21.1492 357.153 24.6915 359.991C28.2337 362.83 33.1268 356.691 39.9311 365.067C44.3739 370.533 37.4796 383.001 44.0137 381.837" stroke="#7189FF" stroke-miterlimit="10"/>
<path d="M44.7339 400.244C36.0618 388.448 26.8926 377.02 17.2265 365.96C16.5961 365.228 15.5354 366.291 16.1658 367.023C25.6919 377.983 34.781 389.307 43.4331 400.996C44.0035 401.768 45.3043 400.996 44.7339 400.244Z" fill="#7189FF"/>
<path d="M29.9755 365.408L28.9748 379.872L28.8447 381.878L29.5952 381.126L16.3568 382.229C15.4062 382.309 15.3562 383.814 16.3568 383.734L29.5952 382.63C29.7927 382.625 29.9806 382.544 30.1203 382.404C30.2599 382.264 30.3406 382.076 30.3457 381.878L31.3463 367.424L31.4864 365.418C31.5465 364.415 30.0455 364.465 29.9855 365.418L29.9755 365.408Z" fill="#7189FF"/>
<path d="M16.826 298.506C5.81908 289.479 3.12737 261.574 18.8773 253.099C38.3697 242.627 58.7626 258.836 61.3342 275.506C63.3355 288.365 54.3298 297.342 77.6846 306.771C101.039 316.199 97.4271 327.905 92.634 350.282C87.841 372.66 103.641 364.465 115.869 383.382C125.585 398.358 111.936 413.624 105.862 419.321L58.1222 419.07C56.5717 418.158 55.0932 417.129 53.6994 415.991C38.2796 403.353 44.4035 383.392 46.0045 367.845C47.7356 351.025 23.6103 358.547 13.9842 336.962C4.35815 315.377 27.8931 307.533 16.826 298.506Z" stroke="#7189FF" stroke-miterlimit="10"/>
<path d="M97.4473 418.589C95.5261 414.336 93.6015 410.08 91.6736 405.82C86.924 395.335 82.1543 384.86 77.3646 374.395C71.2607 361.022 65.1201 347.695 58.9429 334.415C52.9791 321.562 46.9486 308.74 40.8514 295.948C36.5287 286.921 32.226 277.894 27.503 269.087C27.1328 268.415 26.7725 267.733 26.3923 267.081C25.922 266.239 24.6312 267.001 25.1015 267.843C29.6043 275.928 33.5868 284.333 37.6094 292.668C43.6132 305.153 49.5303 317.687 55.3606 330.272C61.6179 343.693 67.8219 357.137 73.9724 370.604C79.0089 381.597 84.0121 392.594 88.9819 403.594L93.805 414.166C94.5454 415.811 95.1758 417.586 96.0564 419.181C96.0939 419.252 96.1273 419.326 96.1565 419.401C96.5567 420.284 97.8475 419.522 97.4473 418.639V418.589Z" fill="#7189FF"/>
<path d="M53.119 323.351L25.4015 321.886L21.479 321.676C20.4784 321.676 20.4784 323.13 21.479 323.18L49.2366 324.655L53.119 324.896C54.1197 324.946 54.1197 323.441 53.119 323.391V323.351Z" fill="#7189FF"/>
<path d="M85.1389 392.7L53.8791 389.32L49.5063 388.849C48.5057 388.738 48.5057 390.243 49.5063 390.353L80.7761 393.723L85.1389 394.205C86.1395 394.305 86.0895 392.801 85.1389 392.7Z" fill="#7189FF"/>
<path d="M86.8914 317.252L80.5874 330.843L70.5811 352.398L68.2596 357.413C67.8594 358.286 69.1502 359.048 69.5604 358.175L75.8644 344.584L85.8708 323.019L88.1922 318.004C88.6025 317.131 87.3017 316.369 86.9014 317.252H86.8914Z" fill="#7189FF"/>
<path d="M42.4027 271.825C43.9537 274.012 46.6554 274.834 48.4065 273.681C50.1577 272.527 50.4078 269.799 48.8168 267.612C47.2258 265.426 44.5741 264.603 42.813 265.757C41.0519 266.91 40.8618 269.639 42.4027 271.825Z" stroke="#7189FF" stroke-miterlimit="10"/>
<path d="M41.2714 283.651C41.2534 284.087 41.3659 284.519 41.5944 284.89C41.823 285.261 42.157 285.555 42.5537 285.735C42.9504 285.914 43.3915 285.971 43.8204 285.897C44.2493 285.823 44.6464 285.622 44.9605 285.32C45.2747 285.018 45.4916 284.629 45.5833 284.203C45.675 283.776 45.6374 283.332 45.4753 282.927C45.3132 282.522 45.0339 282.175 44.6735 281.931C44.3131 281.686 43.888 281.555 43.4528 281.555C42.8865 281.544 42.3391 281.759 41.9302 282.152C41.5214 282.545 41.2845 283.084 41.2714 283.651Z" stroke="#7189FF" stroke-miterlimit="10"/>
<path d="M25.4819 337.645C25.448 338.49 25.6671 339.327 26.1111 340.046C26.5551 340.766 27.2037 341.336 27.9735 341.684C28.7433 342.031 29.5992 342.14 30.4311 341.996C31.2631 341.852 32.0331 341.462 32.6422 340.876C33.2512 340.29 33.6716 339.535 33.8492 338.708C34.0268 337.88 33.9535 337.019 33.6387 336.233C33.324 335.448 32.7821 334.775 32.0829 334.301C31.3836 333.827 30.5589 333.573 29.7146 333.572C29.1697 333.56 28.6279 333.656 28.12 333.855C27.6122 334.053 27.1484 334.35 26.7552 334.728C26.362 335.106 26.0471 335.559 25.8286 336.059C25.6102 336.56 25.4923 337.098 25.4819 337.645Z" stroke="#7189FF" stroke-miterlimit="10"/>
<g clip-path="url(#clip0_1516_130957)">
<path d="M157.493 100.579C159.724 98.6046 161.492 96.162 162.671 93.4256C163.304 92.1468 163.575 90.7196 163.456 89.2979C163.386 88.592 163.108 87.9228 162.657 87.3751C162.206 86.8274 161.603 86.4258 160.924 86.2212C160.265 86.139 159.597 86.2105 158.971 86.4302C158.345 86.6499 157.778 87.0117 157.315 87.4874C155.771 88.8982 154.73 90.775 154.351 92.832C153.971 94.8891 154.274 97.0137 155.214 98.8827" fill="#7189FF"/>
<path d="M157.214 100.934C156.672 102.577 155.775 104.081 154.587 105.339C153.399 106.598 151.948 107.579 150.339 108.214C148.693 108.835 146.426 108.873 145.603 107.315C145.407 106.811 145.327 106.268 145.371 105.729C145.415 105.189 145.581 104.667 145.857 104.2C146.599 102.699 147.734 101.427 149.14 100.518C150.546 99.6083 152.172 99.0959 153.846 99.0346" fill="#7189FF"/>
<path d="M172.762 112.557C174.562 111.998 176.166 110.942 177.392 109.51C178.617 108.079 179.413 106.33 179.688 104.466C179.891 103.242 179.705 101.984 179.156 100.871C178.871 100.324 178.437 99.8691 177.903 99.5597C177.37 99.2504 176.759 99.099 176.143 99.1232C175.076 99.3206 174.122 99.9129 173.471 100.782C172.307 102.164 171.49 103.804 171.089 105.567C170.688 107.329 170.715 109.161 171.167 110.911" fill="#7189FF"/>
<path d="M172.242 113.152C170.807 115.912 168.363 118.012 165.418 119.014C163.683 119.597 161.379 119.546 160.531 117.938C160.303 117.417 160.222 116.843 160.296 116.279C160.37 115.714 160.595 115.181 160.948 114.735C161.65 113.855 162.509 113.112 163.481 112.544C165.649 111.085 168.263 110.435 170.862 110.709" fill="#7189FF"/>
<path d="M188.032 129.967C192.185 129.27 196.059 125.788 196.085 121.585C196.121 120.73 195.891 119.885 195.426 119.166C194.882 118.554 194.144 118.146 193.336 118.01C192.528 117.874 191.697 118.019 190.982 118.419C189.564 119.265 188.471 120.562 187.88 122.104C187.154 123.706 186.696 125.417 186.525 127.168" fill="#7189FF"/>
<path d="M187.385 129.929C185.72 131.866 183.424 133.153 180.902 133.562C178.978 133.866 176.635 133.411 175.838 131.638C175.595 130.992 175.544 130.289 175.693 129.615C175.841 128.941 176.182 128.324 176.673 127.839C177.663 126.882 178.914 126.239 180.269 125.991C182.244 125.535 184.688 125.712 185.751 127.422" fill="#7189FF"/>
<path d="M200.351 149.364C202.528 148.955 204.608 148.134 206.479 146.946C208.492 145.68 210.416 143.274 209.429 141.096C208.98 140.322 208.277 139.727 207.44 139.411C206.602 139.095 205.681 139.077 204.833 139.361C203.149 139.99 201.696 141.116 200.667 142.59C199.428 143.982 198.558 145.663 198.135 147.477" fill="#7189FF"/>
<path d="M199.502 149.883C198.473 151.039 197.211 151.965 195.799 152.599C194.388 153.234 192.858 153.564 191.31 153.568C190.667 153.624 190.019 153.54 189.411 153.322C188.803 153.103 188.25 152.755 187.79 152.301C186.372 150.529 187.79 147.68 189.88 146.832C191.969 145.983 195.261 146.832 197.476 147.389" fill="#7189FF"/>
<path d="M202.149 156.594C191.741 130.79 172.293 108.113 147.312 95.4388C146.844 95.2109 147.312 94.5145 147.743 94.755C172.825 107.417 192.412 130.283 202.858 156.201C203.048 156.682 202.339 157.075 202.149 156.594Z" fill="#7189FF"/>
<path d="M94.9057 209.785C93.6057 207.104 91.7344 204.74 89.4233 202.859C88.3528 201.898 87.0388 201.25 85.6249 200.985C84.9257 200.863 84.2062 200.949 83.5556 201.233C82.905 201.516 82.3522 201.985 81.9657 202.58C81.711 203.189 81.5991 203.848 81.6386 204.506C81.6781 205.164 81.868 205.805 82.1936 206.379C83.1297 208.266 84.6614 209.792 86.5518 210.721C88.4422 211.65 90.5861 211.931 92.652 211.519" fill="#7189FF"/>
<path d="M95.1082 210.164C96.5414 211.133 97.7438 212.406 98.6301 213.892C99.5163 215.377 100.065 217.04 100.236 218.762C100.401 220.522 99.8056 222.712 98.0836 223.067C97.5452 223.122 97.0012 223.053 96.494 222.864C95.9867 222.675 95.5298 222.372 95.1588 221.978C93.9201 220.852 93.0068 219.415 92.5145 217.815C92.0222 216.216 91.9691 214.514 92.3607 212.887" fill="#7189FF"/>
<path d="M110.53 198.364C110.483 196.481 109.903 194.649 108.859 193.081C107.815 191.513 106.349 190.272 104.63 189.501C103.514 188.96 102.253 188.791 101.034 189.02C100.426 189.141 99.865 189.433 99.4166 189.861C98.9682 190.289 98.6509 190.836 98.5018 191.438C98.3925 192.522 98.7055 193.606 99.3755 194.464C100.383 195.966 101.738 197.202 103.325 198.068C104.912 198.934 106.684 199.405 108.492 199.44" fill="#7189FF"/>
<path d="M110.961 199.035C113.232 201.167 114.592 204.092 114.76 207.202C114.848 209.012 114.165 211.228 112.392 211.608C111.828 211.685 111.253 211.608 110.73 211.385C110.206 211.162 109.752 210.802 109.417 210.342C108.764 209.415 108.288 208.376 108.011 207.278C107.201 204.794 107.291 202.105 108.264 199.681" fill="#7189FF"/>
<path d="M131.434 188.425C131.902 184.234 129.61 179.562 125.571 178.397C124.75 178.119 123.86 178.119 123.039 178.397C122.302 178.753 121.708 179.349 121.356 180.088C121.003 180.827 120.914 181.664 121.102 182.461C121.534 184.056 122.488 185.46 123.812 186.45C125.171 187.585 126.712 188.484 128.37 189.108" fill="#7189FF"/>
<path d="M131.232 189.032C132.641 191.164 133.255 193.723 132.967 196.262C132.739 198.187 131.701 200.314 129.726 200.592C129.043 200.647 128.359 200.504 127.755 200.181C127.151 199.858 126.653 199.368 126.32 198.769C125.664 197.553 125.386 196.169 125.522 194.793C125.611 192.78 126.446 190.463 128.396 189.919" fill="#7189FF"/>
<path d="M153.466 181.853C153.66 179.645 153.437 177.42 152.807 175.295C152.124 173.003 150.351 170.496 147.983 170.863C147.109 171.071 146.337 171.582 145.803 172.305C145.27 173.028 145.011 173.917 145.071 174.814C145.215 176.604 145.899 178.308 147.034 179.701C148.04 181.277 149.418 182.582 151.047 183.499" fill="#7189FF"/>
<path d="M153.694 182.803C154.518 184.108 155.056 185.572 155.274 187.099C155.493 188.627 155.386 190.183 154.96 191.666C154.833 192.303 154.568 192.904 154.183 193.427C153.798 193.95 153.302 194.382 152.732 194.692C150.643 195.578 148.288 193.426 148.035 191.198C147.781 188.969 149.529 186.019 150.567 184.044" fill="#7189FF"/>
<path d="M160.898 182.094C133.245 185.082 106.125 197.617 87.1323 218.192C86.7778 218.584 86.2333 217.977 86.5879 217.597C105.656 196.921 132.942 184.297 160.721 181.296C161.24 181.296 161.43 182.043 160.898 182.094Z" fill="#7189FF"/>
<path d="M232.042 223.396C228.358 230.587 218.001 232.993 211.126 228.739C206.238 225.725 203.149 220.192 197.92 217.812C187.562 213.102 174.914 223.016 164.417 218.584C155.162 214.672 152.49 201.491 143.121 197.845C138.778 196.148 133.916 196.921 129.269 196.579C124.622 196.237 119.355 194.274 118.241 189.704C117.646 187.424 118.241 185.031 118.583 182.714C119.659 175.333 117.696 167.027 111.771 162.456C109.945 161.205 108.047 160.063 106.086 159.037C101.934 156.589 98.3035 153.35 95.3995 149.503C93.4623 146.971 91.8289 143.54 93.2217 140.64C94.6144 137.741 98.5268 136.842 101.857 136.627C108.31 136.156 114.792 136.249 121.229 136.905C124.04 137.196 126.977 137.589 129.636 136.614C136.144 134.234 138.613 124.763 145.476 123.851C149.882 123.256 153.756 126.637 156.694 129.967C159.631 133.297 162.771 137.095 167.177 137.741C170.799 138.285 174.319 136.475 177.927 135.892C188.474 134.069 198.185 142.008 204.757 150.44C206.479 152.643 208.239 155.024 210.847 156.024C212.466 156.476 214.117 156.806 215.785 157.012C220.128 157.936 223.673 161 226.889 164.064C233.486 170.395 239.766 177.346 243.146 185.829C246.527 194.312 246.54 204.593 241.222 212.013C239.183 214.849 236.335 217.445 235.955 220.876" fill="#FFD7E6"/>
<path d="M94.7665 141.856C101.426 143.616 108.023 145.654 114.582 147.743C122.905 150.453 131.151 153.382 139.322 156.53C149.021 160.244 158.602 164.233 168.064 168.496C178.421 173.155 188.63 178.148 198.692 183.474C209.429 189.163 219.942 195.249 230.232 201.732L234.144 204.264C234.537 204.517 234.891 203.897 234.499 203.656C224.218 196.988 213.666 190.742 202.845 184.917C192.716 179.405 182.376 174.252 171.824 169.458C162.328 165.102 152.714 161.021 142.982 157.214C134.541 153.922 126.053 150.845 117.519 147.984C110.758 145.743 103.946 143.641 97.0709 141.767L94.9438 141.185C94.8584 141.178 94.7733 141.201 94.7032 141.25C94.6331 141.299 94.5824 141.371 94.5598 141.454C94.5373 141.537 94.5443 141.625 94.5798 141.703C94.6152 141.781 94.6768 141.844 94.7539 141.881L94.7665 141.856Z" fill="#7189FF"/>
<path d="M100.059 151.377C103.413 151.498 106.771 151.294 110.087 150.769C110.542 150.693 110.352 150.01 109.897 150.086C106.643 150.592 103.349 150.783 100.059 150.655C99.6028 150.655 99.6028 151.352 100.059 151.377Z" fill="#7189FF"/>
<path d="M108.111 154.251L110.796 153.58C110.886 153.555 110.963 153.495 111.01 153.413C111.056 153.331 111.068 153.234 111.043 153.144C111.017 153.053 110.957 152.976 110.875 152.93C110.793 152.883 110.696 152.871 110.606 152.897L107.921 153.568C107.877 153.579 107.835 153.6 107.799 153.628C107.762 153.656 107.732 153.691 107.709 153.732C107.687 153.772 107.673 153.816 107.668 153.862C107.663 153.908 107.667 153.954 107.681 153.998C107.705 154.089 107.763 154.166 107.844 154.213C107.925 154.261 108.021 154.275 108.111 154.251Z" fill="#7189FF"/>
<path d="M114.683 140.754C115.905 141.567 116.973 142.592 117.836 143.78C117.884 143.861 117.963 143.919 118.055 143.941C118.1 143.953 118.147 143.955 118.193 143.948C118.239 143.941 118.283 143.925 118.323 143.901C118.363 143.876 118.398 143.845 118.425 143.807C118.453 143.77 118.473 143.727 118.484 143.682C118.495 143.637 118.498 143.589 118.491 143.543C118.484 143.497 118.468 143.453 118.443 143.413C117.517 142.13 116.368 141.023 115.05 140.146C115.01 140.122 114.965 140.105 114.917 140.098C114.87 140.091 114.822 140.093 114.776 140.105C114.73 140.117 114.687 140.138 114.649 140.167C114.612 140.196 114.58 140.232 114.556 140.273C114.513 140.355 114.502 140.449 114.526 140.538C114.549 140.627 114.605 140.705 114.683 140.754Z" fill="#7189FF"/>
<path d="M132.296 141.83C136.25 145.05 139.907 148.618 143.223 152.491C143.527 152.846 144.021 152.34 143.73 151.985C140.414 148.112 136.757 144.544 132.803 141.324C132.448 141.033 131.942 141.539 132.296 141.83Z" fill="#7189FF"/>
<path d="M141.956 145.996L144.628 149.123C144.695 149.191 144.786 149.228 144.881 149.228C144.976 149.228 145.067 149.191 145.134 149.123C145.201 149.056 145.239 148.965 145.239 148.87C145.239 148.775 145.201 148.684 145.134 148.617L142.45 145.49C142.384 145.425 142.295 145.39 142.203 145.39C142.111 145.39 142.022 145.425 141.956 145.49C141.922 145.523 141.896 145.562 141.877 145.606C141.859 145.649 141.85 145.696 141.85 145.743C141.85 145.79 141.859 145.837 141.877 145.88C141.896 145.924 141.922 145.963 141.956 145.996Z" fill="#7189FF"/>
<path d="M124.571 166.647C125.91 166.748 127.245 166.405 128.37 165.672C128.75 165.431 128.37 164.811 128.003 165.064C126.999 165.711 125.814 166.017 124.622 165.938C124.528 165.938 124.438 165.975 124.371 166.042C124.305 166.108 124.268 166.198 124.268 166.292C124.268 166.386 124.305 166.477 124.371 166.543C124.438 166.61 124.528 166.647 124.622 166.647H124.571Z" fill="#7189FF"/>
<path d="M176.611 184.576C177.897 184.269 179.05 183.559 179.903 182.55C179.968 182.482 180.005 182.391 180.005 182.297C180.005 182.202 179.968 182.112 179.903 182.043C179.87 182.01 179.831 181.983 179.787 181.965C179.744 181.946 179.697 181.937 179.65 181.937C179.603 181.937 179.556 181.946 179.513 181.965C179.469 181.983 179.43 182.01 179.397 182.043C178.651 182.958 177.63 183.607 176.485 183.892C176.041 183.993 176.231 184.677 176.675 184.576H176.611Z" fill="#7189FF"/>
<path d="M168.71 205.366C169.963 205.712 171.293 205.65 172.508 205.189C172.597 205.162 172.672 205.103 172.719 205.023C172.766 204.943 172.781 204.849 172.762 204.758C172.75 204.712 172.729 204.669 172.7 204.631C172.671 204.593 172.635 204.561 172.594 204.537C172.552 204.514 172.507 204.499 172.459 204.493C172.412 204.487 172.364 204.491 172.318 204.505C171.208 204.942 169.985 205.004 168.836 204.682C168.792 204.67 168.745 204.666 168.698 204.672C168.652 204.677 168.608 204.692 168.567 204.715C168.526 204.738 168.491 204.769 168.462 204.805C168.433 204.842 168.412 204.884 168.4 204.929C168.387 204.974 168.384 205.021 168.389 205.067C168.395 205.113 168.41 205.158 168.433 205.199C168.456 205.239 168.486 205.275 168.523 205.303C168.56 205.332 168.602 205.353 168.647 205.366H168.71Z" fill="#7189FF"/>
<path d="M127.56 175.282C135.096 173.975 142.273 171.102 148.629 166.85C150.395 165.667 152.086 164.377 153.694 162.988C154.036 162.697 153.529 162.19 153.187 162.494C147.418 167.385 140.69 171.016 133.435 173.155C131.418 173.748 129.368 174.222 127.295 174.573C126.839 174.649 127.029 175.345 127.484 175.257L127.56 175.282Z" fill="#7189FF"/>
<path d="M183.334 201.479C190.88 200.183 198.07 197.319 204.44 193.071C206.2 191.881 207.891 190.592 209.505 189.21C209.859 188.919 209.353 188.412 208.998 188.703C201.618 194.998 192.67 199.176 183.106 200.795C182.663 200.871 182.853 201.555 183.296 201.479H183.334Z" fill="#7189FF"/>
<path d="M148.63 173.168C150.374 172.801 151.933 171.833 153.036 170.433C153.103 170.366 153.141 170.275 153.141 170.18C153.141 170.085 153.103 169.993 153.036 169.926C152.969 169.859 152.878 169.821 152.783 169.821C152.688 169.821 152.597 169.859 152.529 169.926C151.508 171.227 150.059 172.124 148.44 172.459C147.997 172.56 148.186 173.244 148.63 173.142V173.168Z" fill="#7189FF"/>
<path d="M132.51 189.678C136.323 189.108 139.97 187.731 143.209 185.639C143.589 185.386 143.209 184.766 142.842 185.019C139.661 187.084 136.072 188.44 132.32 188.995C131.864 188.995 132.054 189.742 132.51 189.678Z" fill="#7189FF"/>
<path d="M195.477 205.948C199.258 205.055 202.804 203.358 205.872 200.972C206.239 200.694 205.732 200.187 205.365 200.466C202.373 202.774 198.918 204.411 195.236 205.265C194.78 205.366 194.97 206.062 195.426 205.948H195.477Z" fill="#7189FF"/>
<path d="M134.7 186.095C135.264 186.103 135.822 185.986 136.334 185.751C136.847 185.517 137.301 185.172 137.663 184.74C137.73 184.673 137.768 184.582 137.768 184.487C137.768 184.392 137.73 184.301 137.663 184.234C137.596 184.167 137.505 184.129 137.41 184.129C137.315 184.129 137.224 184.167 137.157 184.234C136.864 184.604 136.49 184.903 136.065 185.107C135.639 185.311 135.172 185.415 134.7 185.411C134.606 185.411 134.516 185.449 134.45 185.515C134.383 185.582 134.346 185.672 134.346 185.766C134.346 185.86 134.383 185.95 134.45 186.017C134.516 186.083 134.606 186.12 134.7 186.12V186.095Z" fill="#7189FF"/>
<path d="M154.846 184.145C158.189 182.881 161.259 180.986 163.886 178.561C164.215 178.245 163.709 177.738 163.379 178.055C160.847 180.399 157.885 182.231 154.656 183.449C154.238 183.613 154.415 184.297 154.846 184.145Z" fill="#7189FF"/>
<path d="M151.009 196.161C154.196 195.184 157.148 193.564 159.682 191.4C160.024 191.109 159.518 190.602 159.176 190.894C156.735 192.979 153.89 194.539 150.819 195.477C150.389 195.616 150.579 196.3 151.009 196.161Z" fill="#7189FF"/>
<path d="M158.301 144.439C163.522 149.958 167.834 156.27 171.077 163.14C171.279 163.558 171.9 163.14 171.697 162.773C168.405 155.849 164.037 149.49 158.757 143.932C158.441 143.603 157.934 144.109 158.251 144.439H158.301Z" fill="#7189FF"/>
<path d="M158.758 152.859C159.992 153.66 161.048 154.708 161.86 155.935C162.101 156.328 162.721 155.935 162.468 155.581C161.593 154.25 160.456 153.113 159.125 152.238C158.733 151.985 158.378 152.605 158.758 152.859Z" fill="#7189FF"/>
<path d="M178.232 145.16C178.958 146.435 179.419 147.843 179.587 149.301C179.587 149.395 179.624 149.485 179.691 149.551C179.757 149.618 179.847 149.655 179.941 149.655C180.035 149.655 180.125 149.618 180.192 149.551C180.258 149.485 180.296 149.395 180.296 149.301C180.123 147.716 179.632 146.183 178.852 144.793C178.804 144.711 178.724 144.651 178.632 144.628C178.539 144.604 178.441 144.618 178.359 144.667C178.276 144.715 178.217 144.795 178.193 144.887C178.169 144.98 178.183 145.078 178.232 145.16Z" fill="#7189FF"/>
<path d="M157.934 136.095L164.164 142.666C164.48 143.008 164.987 142.501 164.67 142.172L158.441 135.588C158.124 135.259 157.618 135.766 157.934 136.095Z" fill="#7189FF"/>
<path d="M165.962 141.096L167.57 142.97C167.603 143.004 167.643 143.03 167.686 143.049C167.73 143.067 167.776 143.076 167.824 143.076C167.871 143.076 167.917 143.067 167.961 143.049C168.004 143.03 168.044 143.004 168.077 142.97C168.141 142.904 168.177 142.815 168.177 142.723C168.177 142.631 168.141 142.542 168.077 142.476L166.469 140.59C166.402 140.522 166.311 140.485 166.216 140.485C166.121 140.485 166.029 140.522 165.962 140.59C165.895 140.657 165.857 140.748 165.857 140.843C165.857 140.938 165.895 141.029 165.962 141.096Z" fill="#7189FF"/>
<path d="M204.871 166.343C206.975 168.479 208.827 170.85 210.391 173.408C210.632 173.801 211.252 173.408 211.012 173.041C209.412 170.43 207.518 168.013 205.364 165.837C205.048 165.507 204.541 166.014 204.871 166.343Z" fill="#7189FF"/>
<path d="M204.847 163.114L206.189 164.672C206.221 164.705 206.259 164.732 206.301 164.75C206.344 164.768 206.389 164.777 206.436 164.777C206.482 164.777 206.527 164.768 206.57 164.75C206.612 164.732 206.651 164.705 206.683 164.672C206.716 164.639 206.743 164.599 206.761 164.556C206.779 164.512 206.789 164.466 206.789 164.419C206.789 164.371 206.779 164.325 206.761 164.281C206.743 164.238 206.716 164.198 206.683 164.165L205.416 162.608C205.383 162.574 205.344 162.547 205.3 162.529C205.257 162.511 205.21 162.502 205.163 162.502C205.116 162.502 205.069 162.511 205.026 162.529C204.982 162.547 204.943 162.574 204.91 162.608C204.845 162.676 204.809 162.767 204.809 162.861C204.809 162.955 204.845 163.046 204.91 163.114H204.847Z" fill="#7189FF"/>
<path d="M228.397 199.909C227.948 192.218 225.831 184.718 222.192 177.928C221.132 175.975 219.952 174.089 218.66 172.281C218.394 171.914 217.774 172.281 218.039 172.636C222.47 178.825 225.495 185.908 226.903 193.388C227.309 195.542 227.571 197.72 227.688 199.909C227.688 200.364 228.435 200.377 228.409 199.909H228.397Z" fill="#7189FF"/>
<path d="M212.949 212.925C217.324 212.585 221.401 210.582 224.345 207.328C224.648 206.986 224.142 206.48 223.838 206.822C221.039 209.934 217.159 211.863 212.987 212.216C212.531 212.216 212.519 212.963 212.987 212.925H212.949Z" fill="#7189FF"/>
<path d="M215.204 208.949L217.584 207.898C217.664 207.851 217.722 207.774 217.746 207.683C217.77 207.593 217.757 207.498 217.711 207.417C217.661 207.339 217.584 207.283 217.495 207.26C217.406 207.236 217.311 207.247 217.23 207.29L214.849 208.341C214.769 208.389 214.711 208.466 214.687 208.556C214.664 208.646 214.676 208.742 214.723 208.822C214.772 208.9 214.849 208.956 214.939 208.98C215.028 209.003 215.122 208.992 215.204 208.949Z" fill="#7189FF"/>
<path d="M218.774 204.72L219.711 203.91C219.743 203.876 219.769 203.837 219.787 203.793C219.804 203.75 219.813 203.703 219.812 203.657C219.811 203.566 219.775 203.48 219.711 203.416C219.644 203.346 219.554 203.305 219.457 203.302C219.362 203.308 219.272 203.348 219.204 203.416L218.267 204.214C218.202 204.282 218.166 204.373 218.166 204.467C218.166 204.561 218.202 204.652 218.267 204.72C218.337 204.782 218.427 204.818 218.521 204.821C218.615 204.82 218.705 204.784 218.774 204.72Z" fill="#7189FF"/>
<path d="M210.835 224.903C213.477 224.645 216.051 223.911 218.432 222.737C218.837 222.535 218.432 221.927 218.065 222.13C215.803 223.245 213.358 223.94 210.848 224.181C210.392 224.181 210.392 224.94 210.848 224.903H210.835Z" fill="#7189FF"/>
<path d="M220.951 221.813L221.901 221.015C221.966 220.947 222.002 220.856 222.002 220.762C222.002 220.668 221.966 220.577 221.901 220.509C221.868 220.476 221.829 220.449 221.785 220.432C221.741 220.415 221.695 220.406 221.648 220.408C221.554 220.409 221.464 220.445 221.395 220.509L220.458 221.307C220.423 221.339 220.394 221.378 220.375 221.422C220.355 221.465 220.345 221.512 220.344 221.56C220.344 221.608 220.354 221.655 220.374 221.699C220.393 221.742 220.422 221.781 220.458 221.813C220.489 221.848 220.528 221.876 220.572 221.894C220.616 221.911 220.664 221.918 220.711 221.914C220.801 221.914 220.888 221.877 220.951 221.813Z" fill="#7189FF"/>
<path d="M207.631 221.193C208.962 221.297 210.291 220.978 211.429 220.281C211.822 220.04 211.429 219.42 211.062 219.661C210.048 220.289 208.859 220.577 207.669 220.484C207.575 220.484 207.485 220.521 207.418 220.587C207.352 220.654 207.314 220.744 207.314 220.838C207.314 220.932 207.352 221.022 207.418 221.089C207.485 221.155 207.575 221.193 207.669 221.193H207.631Z" fill="#7189FF"/>
<path d="M247.085 212.596C247.085 212.596 232.904 206.721 220.015 190.349C207.125 173.978 200.681 150.453 199.566 142.59C198.452 134.727 195.971 109.784 201.175 88.4116C205.961 68.761 206.771 68.1533 210.43 70.2424C226.282 79.0421 243.692 95.73 253.542 106.961C268.597 124.092 279.321 148.579 274.345 175.561C272.906 183.396 269.704 190.802 264.982 197.219C260.259 203.635 254.139 208.893 247.085 212.596Z" fill="white"/>
<path d="M207.542 69.508C208.956 76.8142 210.753 84.0412 212.924 91.1592C215.608 100.516 218.52 109.797 221.546 119.014C224.42 127.764 227.396 136.475 230.536 145.135C232.587 150.782 234.587 156.53 237.145 161.962C239.956 167.976 242.906 173.94 245.856 179.878C249.135 186.437 252.541 192.945 256.314 199.238C257.226 200.77 258.176 202.289 259.138 203.796C259.366 204.15 259.936 203.796 259.708 203.467C251.794 191.109 245.552 177.802 239.158 164.621C236.461 159.05 234.233 153.314 232.093 147.503C228.991 139.083 226.079 130.587 223.23 122.066C220.166 112.798 217.203 103.491 214.456 94.122C212.252 86.5251 210.087 79.0041 208.543 71.3313C208.399 70.656 208.273 69.9849 208.163 69.3181C208.087 68.9003 207.454 69.0775 207.53 69.4954L207.542 69.508Z" fill="#7189FF"/>
<path d="M211.721 144.274C215.697 146.836 220.122 148.623 224.762 149.541C225.18 149.63 225.357 148.997 224.939 148.908C220.354 147.998 215.982 146.232 212.05 143.704C211.695 143.476 211.366 144.046 211.721 144.274Z" fill="#7189FF"/>
<path d="M220.799 183.474C225.179 185.333 229.869 186.351 234.625 186.475C234.713 186.475 234.796 186.44 234.858 186.378C234.92 186.317 234.955 186.233 234.955 186.146C234.955 186.058 234.92 185.975 234.858 185.913C234.796 185.851 234.713 185.816 234.625 185.816C229.983 185.703 225.404 184.715 221.128 182.904C220.748 182.74 220.407 183.31 220.799 183.474Z" fill="#7189FF"/>
<path d="M219.722 143.059C220.836 143.927 222.136 144.526 223.521 144.806C223.938 144.882 224.116 144.249 223.698 144.173C222.429 143.926 221.236 143.384 220.216 142.59C220.154 142.528 220.07 142.493 219.982 142.493C219.894 142.493 219.81 142.528 219.747 142.59C219.685 142.652 219.65 142.737 219.65 142.824C219.65 142.912 219.685 142.996 219.747 143.059H219.722Z" fill="#7189FF"/>
<path d="M206.872 136.335C207.926 137.089 209.076 137.698 210.291 138.146C210.375 138.169 210.465 138.158 210.541 138.116C210.617 138.073 210.673 138.002 210.696 137.918C210.716 137.834 210.704 137.746 210.662 137.671C210.619 137.596 210.55 137.539 210.468 137.513C209.305 137.081 208.207 136.493 207.202 135.766C207.164 135.743 207.123 135.728 207.08 135.721C207.036 135.714 206.992 135.716 206.95 135.727C206.907 135.738 206.867 135.756 206.832 135.783C206.797 135.809 206.768 135.842 206.746 135.88C206.707 135.958 206.699 136.048 206.722 136.132C206.745 136.216 206.799 136.288 206.872 136.335Z" fill="#7189FF"/>
<path d="M206.455 148.085C207.272 148.598 208.143 149.023 209.05 149.351C209.092 149.365 209.136 149.369 209.179 149.365C209.223 149.361 209.265 149.347 209.303 149.326C209.341 149.305 209.374 149.276 209.4 149.241C209.427 149.206 209.445 149.166 209.456 149.123C209.476 149.04 209.463 148.951 209.421 148.876C209.379 148.801 209.31 148.745 209.228 148.718C208.377 148.416 207.561 148.021 206.797 147.541C206.759 147.518 206.718 147.503 206.675 147.496C206.631 147.489 206.587 147.492 206.545 147.502C206.502 147.513 206.462 147.532 206.427 147.558C206.392 147.584 206.363 147.617 206.341 147.655C206.298 147.731 206.286 147.821 206.307 147.905C206.328 147.99 206.381 148.064 206.455 148.111V148.085Z" fill="#7189FF"/>
<path d="M204.479 103.757C208.752 108.839 214.155 112.85 220.256 115.469C220.635 115.634 220.977 115.064 220.585 114.899C214.54 112.299 209.186 108.323 204.948 103.289C204.682 102.96 204.214 103.428 204.479 103.757Z" fill="#7189FF"/>
<path d="M220.534 163.887C226.524 166.808 233.115 168.287 239.779 168.204C239.866 168.204 239.95 168.17 240.012 168.108C240.074 168.046 240.108 167.962 240.108 167.875C240.108 167.788 240.074 167.704 240.012 167.642C239.95 167.581 239.866 167.546 239.779 167.546C233.23 167.632 226.752 166.184 220.863 163.317C220.483 163.14 220.154 163.709 220.534 163.887Z" fill="#7189FF"/>
<path d="M230.675 190.109C231.81 190.328 232.962 190.447 234.119 190.463C234.536 190.463 234.536 189.817 234.119 189.805C233.018 189.79 231.921 189.68 230.839 189.476C230.754 189.459 230.666 189.475 230.591 189.519C230.516 189.563 230.46 189.633 230.434 189.716C230.415 189.8 230.429 189.888 230.474 189.961C230.519 190.035 230.591 190.088 230.675 190.109Z" fill="#7189FF"/>
<path d="M208.618 118.369C209.896 119.485 211.462 120.218 213.138 120.483C213.222 120.503 213.31 120.491 213.386 120.449C213.461 120.406 213.517 120.337 213.543 120.255C213.567 120.171 213.556 120.082 213.513 120.006C213.471 119.93 213.399 119.874 213.316 119.85C211.745 119.618 210.273 118.941 209.074 117.9C208.757 117.622 208.289 118.09 208.618 118.369Z" fill="#7189FF"/>
<path d="M221.862 175.978C223.32 176.856 224.999 177.295 226.699 177.245C227.117 177.245 227.13 176.574 226.699 176.586C225.119 176.645 223.554 176.249 222.192 175.447C222.119 175.421 222.04 175.42 221.968 175.446C221.896 175.472 221.835 175.523 221.796 175.589C221.757 175.655 221.742 175.732 221.754 175.808C221.766 175.884 221.805 175.953 221.862 176.004V175.978Z" fill="#7189FF"/>
<path d="M225.56 104.378C226.356 101.856 226.417 99.1593 225.737 96.6036C225.708 96.5282 225.652 96.4661 225.58 96.4292C225.508 96.3923 225.425 96.3832 225.347 96.4035C225.269 96.4239 225.201 96.4723 225.156 96.5395C225.111 96.6068 225.093 96.6882 225.104 96.7682C225.755 99.2118 225.694 101.791 224.927 104.2C224.8 104.606 225.433 104.783 225.56 104.378Z" fill="#7189FF"/>
<path d="M258.784 138.906C260.656 137.086 261.974 134.772 262.582 132.233C262.683 131.815 262.05 131.638 261.949 132.056C261.357 134.52 260.07 136.761 258.239 138.513C257.935 138.804 258.404 139.273 258.708 138.969L258.784 138.906Z" fill="#7189FF"/>
<path d="M253.567 126.206C255.226 124.108 256.246 121.576 256.504 118.913C256.504 118.483 255.884 118.495 255.846 118.913C255.605 121.405 254.651 123.774 253.098 125.738C252.845 126.067 253.313 126.535 253.567 126.206Z" fill="#7189FF"/>
<path d="M220.799 94.4638C220.916 93.4784 220.834 92.4796 220.559 91.5264C220.532 91.4466 220.475 91.3803 220.401 91.341C220.326 91.3018 220.24 91.2925 220.158 91.3152C220.077 91.3379 220.008 91.3909 219.965 91.4631C219.921 91.5353 219.908 91.6214 219.926 91.7036C220.174 92.6013 220.247 93.5385 220.141 94.4638C220.141 94.6411 220.306 94.793 220.47 94.793C220.557 94.7899 220.638 94.7542 220.7 94.6931C220.761 94.6321 220.796 94.5501 220.799 94.4638Z" fill="#7189FF"/>
<path d="M244.552 138.69C245.391 138.108 246.109 137.369 246.666 136.513C246.707 136.437 246.717 136.348 246.693 136.265C246.67 136.182 246.614 136.112 246.539 136.069C246.465 136.027 246.378 136.016 246.295 136.037C246.212 136.058 246.141 136.111 246.096 136.183L245.906 136.475C245.866 136.516 245.831 136.563 245.805 136.614L245.742 136.69C245.596 136.876 245.439 137.053 245.273 137.222C245.114 137.392 244.945 137.552 244.767 137.703L244.235 138.108C244.162 138.153 244.11 138.224 244.089 138.307C244.067 138.389 244.079 138.477 244.121 138.551C244.164 138.626 244.234 138.681 244.317 138.705C244.4 138.729 244.489 138.719 244.564 138.678L244.552 138.69Z" fill="#7189FF"/>
<path d="M230.042 142.362C231.933 141.275 233.451 139.642 234.398 137.677C235.599 135.703 236.616 133.622 237.436 131.461C239.089 127.112 239.947 122.502 239.969 117.85C239.974 115.297 239.715 112.752 239.196 110.253C239.108 109.835 238.475 110.012 238.563 110.43C240.308 119.234 238.863 128.373 234.486 136.209C233.309 138.311 231.954 140.818 229.662 141.856C229.27 142.02 229.662 142.59 229.991 142.426L230.042 142.362Z" fill="#7189FF"/>
<path d="M243.793 123.129C244.558 120.923 244.814 118.573 244.54 116.254C244.54 115.836 243.831 115.836 243.882 116.254C244.146 118.513 243.899 120.802 243.16 122.952C243.021 123.357 243.667 123.535 243.793 123.129Z" fill="#7189FF"/>
<path d="M244.197 113.735C244.256 112.996 244.097 112.257 243.741 111.607C243.696 111.535 243.625 111.483 243.542 111.462C243.459 111.442 243.371 111.454 243.297 111.497C243.223 111.539 243.169 111.609 243.145 111.691C243.122 111.773 243.131 111.861 243.172 111.937L243.286 112.152V112.253C243.345 112.409 243.392 112.57 243.425 112.734C243.443 112.873 243.443 113.014 243.425 113.152C243.438 113.321 243.438 113.49 243.425 113.659C243.425 113.746 243.46 113.83 243.521 113.891C243.583 113.953 243.667 113.988 243.754 113.988C243.841 113.988 243.925 113.953 243.987 113.891C244.049 113.83 244.083 113.746 244.083 113.659L244.197 113.735Z" fill="#7189FF"/>
<path d="M231.195 133.284C231.74 132.356 232.121 131.341 232.321 130.283C232.342 130.199 232.329 130.111 232.287 130.036C232.245 129.961 232.176 129.904 232.094 129.878C232.01 129.858 231.921 129.87 231.846 129.912C231.771 129.955 231.715 130.024 231.688 130.106C231.501 131.11 231.141 132.074 230.625 132.955C230.585 133.03 230.575 133.118 230.599 133.2C230.622 133.282 230.676 133.352 230.75 133.395C230.824 133.438 230.912 133.45 230.995 133.429C231.078 133.409 231.149 133.356 231.195 133.284Z" fill="#7189FF"/>
<path d="M248.997 184.867C256.074 178.827 260.392 170.407 263.874 161.912C264.874 159.455 265.811 156.961 266.735 154.479C266.887 154.087 266.254 153.909 266.102 154.302C262.912 162.849 259.582 171.636 253.859 178.865C252.263 180.88 250.478 182.737 248.528 184.411C248.199 184.677 248.667 185.145 248.997 184.867Z" fill="#7189FF"/>
<path d="M253.719 170.306C254.58 169.188 255.24 167.928 255.669 166.584C255.796 166.179 255.163 166.001 255.036 166.406C254.614 167.695 253.976 168.903 253.149 169.977C253.126 170.014 253.11 170.056 253.104 170.1C253.097 170.143 253.099 170.188 253.109 170.231C253.12 170.274 253.139 170.314 253.166 170.349C253.192 170.384 253.226 170.414 253.264 170.436C253.302 170.458 253.345 170.472 253.388 170.478C253.432 170.483 253.477 170.48 253.519 170.468C253.562 170.455 253.601 170.435 253.636 170.407C253.67 170.379 253.698 170.345 253.719 170.306Z" fill="#7189FF"/>
<path d="M264.557 169.243C265.498 168.064 266.083 166.64 266.241 165.14C266.241 165.053 266.206 164.969 266.144 164.907C266.083 164.846 265.999 164.811 265.912 164.811C265.824 164.811 265.741 164.846 265.679 164.907C265.617 164.969 265.582 165.053 265.582 165.14C265.436 166.468 264.918 167.727 264.088 168.774C264.031 168.839 264 168.922 264 169.008C264 169.095 264.031 169.178 264.088 169.243C264.152 169.302 264.236 169.335 264.323 169.335C264.41 169.335 264.493 169.302 264.557 169.243Z" fill="#7189FF"/>
<path d="M261.557 180.347C262.979 178.541 264.189 176.578 265.165 174.497C265.343 174.117 264.773 173.775 264.596 174.168C263.646 176.198 262.469 178.113 261.088 179.878C260.835 180.207 261.304 180.676 261.557 180.347Z" fill="#7189FF"/>
<path d="M261.924 174.472C262.585 174.012 263.039 173.312 263.19 172.522C263.21 172.438 263.198 172.35 263.156 172.275C263.114 172.199 263.044 172.143 262.962 172.117C262.92 172.105 262.876 172.103 262.832 172.109C262.789 172.115 262.747 172.129 262.709 172.152C262.671 172.174 262.638 172.204 262.612 172.239C262.586 172.274 262.568 172.315 262.557 172.357C262.533 172.522 262.49 172.683 262.431 172.838V172.902C262.437 172.935 262.437 172.97 262.431 173.003C262.399 173.084 262.356 173.161 262.304 173.231C262.262 173.306 262.216 173.377 262.165 173.446L262.089 173.535L261.899 173.725L261.81 173.801C261.739 173.85 261.688 173.923 261.667 174.007C261.646 174.091 261.656 174.18 261.696 174.257C261.718 174.294 261.748 174.327 261.783 174.353C261.818 174.38 261.858 174.399 261.9 174.409C261.943 174.42 261.987 174.422 262.03 174.415C262.073 174.409 262.115 174.393 262.152 174.37L261.924 174.472Z" fill="#7189FF"/>
<path d="M238.526 178.169C239.551 179.125 240.762 179.858 242.084 180.321C242.168 180.345 242.258 180.334 242.334 180.291C242.41 180.248 242.466 180.177 242.489 180.093C242.509 180.01 242.497 179.921 242.455 179.846C242.413 179.771 242.343 179.715 242.261 179.688C241.048 179.256 239.936 178.58 238.995 177.7C238.691 177.409 238.222 177.878 238.526 178.169Z" fill="#7189FF"/>
<path d="M283.601 105.53C286.574 105.644 289.536 105.1 292.274 103.935C293.614 103.451 294.796 102.61 295.693 101.504C296.13 100.945 296.392 100.269 296.446 99.5617C296.5 98.8543 296.344 98.1466 295.997 97.5279C295.578 97.0128 295.046 96.601 294.442 96.3244C293.838 96.0477 293.179 95.9137 292.515 95.9326C290.41 95.8778 288.345 96.5177 286.64 97.7535C284.935 98.9893 283.685 100.752 283.082 102.77" fill="#F2718D"/>
<path d="M283.171 105.543C281.641 106.357 279.95 106.824 278.219 106.911C276.489 106.999 274.76 106.704 273.155 106.049C271.535 105.365 269.876 103.821 270.37 102.137C270.57 101.632 270.885 101.18 271.289 100.818C271.693 100.455 272.176 100.192 272.7 100.048C274.275 99.4801 275.974 99.3476 277.618 99.664C279.263 99.9803 280.791 100.734 282.044 101.845" fill="#F2718D"/>
<path d="M286.374 124.636C288.059 125.475 289.947 125.821 291.82 125.633C293.693 125.445 295.475 124.73 296.959 123.573C297.959 122.836 298.696 121.797 299.061 120.61C299.231 120.017 299.231 119.387 299.061 118.794C298.891 118.201 298.557 117.667 298.099 117.254C297.191 116.66 296.091 116.434 295.022 116.621C293.224 116.808 291.498 117.426 289.991 118.422C288.483 119.419 287.238 120.764 286.361 122.344" fill="#F2718D"/>
<path d="M285.575 124.75C282.634 125.759 279.417 125.591 276.598 124.282C274.952 123.497 273.306 121.876 273.812 120.116C274.01 119.58 274.35 119.108 274.796 118.751C275.243 118.394 275.778 118.165 276.344 118.09C277.474 117.955 278.619 118.024 279.725 118.293C282.304 118.738 284.642 120.084 286.322 122.091" fill="#F2718D"/>
<path d="M285.373 147.819C288.855 150.187 294.059 150.352 296.984 147.326C297.611 146.741 298.029 145.967 298.174 145.122C298.208 144.304 297.96 143.499 297.471 142.842C296.983 142.185 296.283 141.716 295.49 141.514C293.881 141.147 292.196 141.33 290.704 142.033C289.066 142.694 287.548 143.618 286.209 144.768" fill="#F2718D"/>
<path d="M284.943 147.351C282.397 147.599 279.845 146.94 277.738 145.49C276.143 144.388 274.763 142.438 275.409 140.615C275.685 139.984 276.136 139.446 276.708 139.062C277.28 138.679 277.949 138.466 278.637 138.45C280.014 138.445 281.362 138.845 282.512 139.602C284.259 140.628 285.905 142.451 285.487 144.426" fill="#F2718D"/>
<path d="M280.877 170.357C282.731 171.574 284.797 172.433 286.967 172.889C289.31 173.358 292.361 172.889 293.146 170.699C293.36 169.829 293.266 168.913 292.881 168.105C292.495 167.297 291.842 166.648 291.032 166.267C289.381 165.554 287.553 165.36 285.79 165.71C283.934 165.875 282.148 166.492 280.586 167.508" fill="#F2718D"/>
<path d="M279.904 170.142C278.36 170.27 276.806 170.068 275.346 169.551C273.886 169.034 272.552 168.212 271.433 167.141C270.931 166.728 270.526 166.21 270.246 165.624C269.966 165.038 269.818 164.397 269.812 163.747C270.002 161.494 272.991 160.405 275.092 161.215C277.194 162.025 278.979 165.014 280.157 166.862" fill="#F2718D"/>
<path d="M277.181 176.814C287.488 150.985 289.096 121.104 279.802 94.7297C279.625 94.2359 280.41 94.0333 280.587 94.5271C289.931 121.053 288.311 151.073 277.966 177.029C277.776 177.511 276.979 177.308 277.181 176.814Z" fill="#F2718D"/>
<path d="M558.861 143.4C557.911 140.816 557.544 138.053 557.785 135.31C557.834 133.993 558.241 132.715 558.962 131.613C559.328 131.066 559.849 130.64 560.458 130.39C561.067 130.139 561.736 130.076 562.381 130.207C562.952 130.428 563.465 130.779 563.878 131.232C564.291 131.684 564.593 132.226 564.761 132.815C565.413 134.652 565.441 136.652 564.841 138.506C564.241 140.36 563.047 141.964 561.444 143.071" fill="#7189FF"/>
<path d="M558.86 143.78C558.579 145.358 558.65 146.979 559.068 148.527C559.486 150.074 560.241 151.51 561.279 152.732C562.33 153.998 564.166 154.986 565.52 154.074C565.902 153.75 566.205 153.343 566.406 152.885C566.608 152.426 566.703 151.928 566.685 151.428C566.733 149.881 566.365 148.349 565.619 146.993C564.873 145.636 563.776 144.505 562.444 143.717" fill="#7189FF"/>
<path d="M541.136 146.427C539.917 145.182 539.075 143.618 538.708 141.915C538.34 140.212 538.462 138.44 539.059 136.804C539.424 135.716 540.124 134.771 541.06 134.107C541.534 133.788 542.089 133.61 542.66 133.592C543.231 133.574 543.795 133.717 544.289 134.006C545.074 134.636 545.59 135.541 545.732 136.538C546.08 138.173 546.032 139.867 545.592 141.48C545.151 143.092 544.331 144.576 543.2 145.806" fill="#7189FF"/>
<path d="M541.312 147.148C541.269 150.028 542.34 152.813 544.3 154.922C545.452 156.189 547.351 157.126 548.757 156.189C549.166 155.859 549.481 155.425 549.668 154.934C549.855 154.442 549.907 153.909 549.82 153.39C549.622 152.358 549.236 151.371 548.681 150.478C547.556 148.338 545.714 146.661 543.477 145.743" fill="#7189FF"/>
<path d="M521.08 153.91C517.99 151.517 516.357 146.984 518.193 143.552C518.536 142.839 519.094 142.25 519.788 141.868C520.501 141.606 521.282 141.596 522.001 141.841C522.72 142.085 523.333 142.569 523.739 143.211C524.522 144.519 524.843 146.053 524.65 147.566C524.537 149.196 524.156 150.796 523.523 152.302" fill="#7189FF"/>
<path d="M521.611 154.163C522.127 156.472 523.435 158.529 525.309 159.974C526.727 161.063 528.841 161.709 530.259 160.62C530.74 160.201 531.089 159.651 531.264 159.038C531.439 158.424 531.433 157.774 531.247 157.164C530.852 155.95 530.113 154.876 529.12 154.074C527.727 152.808 525.65 151.909 524.055 152.808" fill="#7189FF"/>
<path d="M502.518 164.305C500.93 163.011 499.598 161.431 498.593 159.645C497.504 157.721 496.998 154.922 498.758 153.58C499.464 153.147 500.299 152.97 501.12 153.081C501.941 153.192 502.699 153.583 503.265 154.188C504.364 155.437 505.053 156.992 505.241 158.645C505.632 160.314 505.601 162.055 505.152 163.71" fill="white"/>
<path d="M502.986 165.153C503.316 166.548 503.937 167.858 504.81 168.995C505.683 170.132 506.788 171.071 508.051 171.75C508.555 172.077 509.125 172.288 509.72 172.369C510.316 172.45 510.922 172.399 511.495 172.218C513.419 171.395 513.533 168.42 512.191 166.85C510.849 165.28 507.798 164.507 505.772 163.963" fill="white"/>
<path d="M498.085 169.42C517.837 152.96 543.603 143.122 569.433 143.768C569.545 143.749 569.648 143.691 569.722 143.604C569.796 143.517 569.836 143.407 569.836 143.293C569.836 143.179 569.796 143.068 569.722 142.981C569.648 142.894 569.545 142.836 569.433 142.818C543.35 142.16 517.356 152.188 497.427 168.749C496.958 169.141 497.642 169.8 498.098 169.42H498.085Z" fill="#7189FF"/>
<path d="M576.105 245.022C577.9 242.647 580.195 240.698 582.829 239.311C584.054 238.582 585.455 238.202 586.88 238.21C587.59 238.228 588.278 238.455 588.859 238.863C589.44 239.271 589.888 239.841 590.147 240.501C590.279 241.15 590.261 241.821 590.094 242.462C589.928 243.102 589.616 243.696 589.185 244.199C587.887 245.858 586.082 247.048 584.045 247.585C582.008 248.122 579.851 247.978 577.903 247.174" fill="#7189FF"/>
<path d="M575.827 245.351C574.228 246.016 572.795 247.026 571.631 248.308C570.466 249.591 569.599 251.114 569.091 252.77C568.585 254.454 568.737 256.721 570.358 257.417C570.874 257.577 571.42 257.615 571.954 257.529C572.487 257.444 572.994 257.236 573.434 256.923C574.873 256.064 576.054 254.834 576.853 253.361C577.653 251.889 578.042 250.229 577.98 248.554" fill="#7189FF"/>
<path d="M563.027 230.739C563.448 228.904 564.378 227.224 565.711 225.894C567.043 224.563 568.725 223.636 570.561 223.219C571.764 222.913 573.033 223.002 574.182 223.472C574.748 223.715 575.234 224.112 575.586 224.618C575.937 225.124 576.14 225.718 576.17 226.333C576.056 227.417 575.536 228.417 574.714 229.131C573.427 230.402 571.854 231.345 570.126 231.881C568.398 232.416 566.567 232.529 564.787 232.208" fill="#7189FF"/>
<path d="M562.483 231.309C559.844 232.957 557.937 235.553 557.153 238.564C556.709 240.337 556.937 242.641 558.609 243.363C559.148 243.546 559.726 243.581 560.284 243.462C560.841 243.344 561.356 243.078 561.774 242.692C562.597 241.908 563.27 240.981 563.762 239.957C565.05 237.684 565.498 235.031 565.028 232.461" fill="#7189FF"/>
<path d="M544.49 216.862C544.87 212.671 548.035 208.531 552.239 208.189C553.083 208.085 553.938 208.249 554.683 208.658C555.338 209.154 555.804 209.858 556.004 210.654C556.204 211.451 556.127 212.292 555.784 213.039C555.048 214.517 553.834 215.703 552.34 216.407C550.798 217.259 549.125 217.849 547.39 218.154" fill="#7189FF"/>
<path d="M544.591 217.508C542.783 219.318 541.671 221.708 541.451 224.257C541.299 226.181 541.945 228.486 543.768 229.144C544.43 229.33 545.13 229.323 545.788 229.123C546.445 228.924 547.032 228.54 547.478 228.017C548.364 226.933 548.91 225.612 549.048 224.219C549.352 222.218 548.985 219.787 547.187 218.863" fill="#7189FF"/>
<path d="M524.193 206.075C524.44 203.861 525.101 201.713 526.143 199.744C527.257 197.63 529.499 195.528 531.752 196.351C532.558 196.738 533.205 197.392 533.583 198.202C533.962 199.012 534.049 199.928 533.829 200.795C533.332 202.524 532.321 204.061 530.929 205.201C529.633 206.539 528.022 207.532 526.245 208.088" fill="#7189FF"/>
<path d="M523.763 206.936C522.685 208.05 521.856 209.38 521.33 210.838C520.804 212.295 520.594 213.848 520.712 215.394C520.713 216.043 520.857 216.685 521.132 217.273C521.408 217.862 521.809 218.382 522.307 218.8C524.181 220.066 526.916 218.458 527.599 216.267C528.283 214.077 527.156 210.899 526.46 208.734" fill="#7189FF"/>
<path d="M516.864 204.847C543.389 213.229 567.51 230.866 582.058 254.796C582.324 255.252 582.982 254.796 582.716 254.315C568.092 230.258 543.845 212.532 517.205 204.1C516.712 203.948 516.357 204.695 516.864 204.847Z" fill="#7189FF"/>
<path d="M458.367 226.637C458.367 226.637 470.712 235.766 491.401 238.362C512.09 240.957 535.552 234.361 542.857 231.259C550.163 228.157 572.814 217.432 588.439 201.96C602.809 187.716 602.847 186.766 599.226 184.652C583.513 175.611 560.241 169.293 545.579 166.622C523.143 162.545 496.63 165.989 476.081 184.158C470.101 189.433 465.399 195.998 462.331 203.357C459.262 210.716 457.907 218.677 458.367 226.637Z" fill="#FFD7E6"/>
<path d="M601.189 186.12C594.295 188.637 587.275 190.797 580.158 192.59C570.941 195.123 561.647 197.326 552.303 199.466C543.322 201.525 534.315 203.458 525.283 205.265C519.307 206.442 513.293 207.683 507.228 208.367C500.821 209.101 494.377 209.633 487.945 210.101C480.348 210.722 472.751 211.19 465.154 211.203C463.305 211.203 461.457 211.203 459.621 211.139C459.19 211.139 459.203 211.785 459.621 211.798C474.815 212.216 490.008 210.532 505.126 209.266C510.951 208.641 516.74 207.724 522.473 206.518C531.272 204.834 540.047 202.947 548.796 200.972C558.267 198.845 567.712 196.579 577.094 194.11C584.59 192.147 592.098 190.109 599.404 187.5L601.328 186.791C601.721 186.639 601.544 186.006 601.151 186.158L601.189 186.12Z" fill="#7189FF"/>
<path d="M535.462 221.142C531.271 219.075 527.505 216.24 524.358 212.785C524.08 212.469 523.611 212.937 523.903 213.241C527.082 216.743 530.892 219.617 535.133 221.712C535.513 221.902 535.842 221.332 535.462 221.142Z" fill="#7189FF"/>
<path d="M497.186 233.525C493.428 230.795 490.219 227.379 487.728 223.459C487.5 223.105 486.93 223.459 487.158 223.788C489.713 227.804 493.004 231.301 496.857 234.095C497.199 234.348 497.528 233.778 497.186 233.525Z" fill="#7189FF"/>
<path d="M532.272 213.596C531.063 213.13 529.982 212.384 529.119 211.418C528.828 211.114 528.359 211.583 528.65 211.886C529.601 212.924 530.78 213.726 532.094 214.229C532.178 214.252 532.268 214.241 532.344 214.199C532.42 214.156 532.476 214.085 532.5 214.001C532.523 213.917 532.512 213.827 532.469 213.751C532.427 213.675 532.356 213.619 532.272 213.596Z" fill="#7189FF"/>
<path d="M544.77 221.18C543.626 220.698 542.553 220.063 541.579 219.293C541.548 219.263 541.512 219.238 541.472 219.222C541.431 219.205 541.388 219.196 541.345 219.196C541.301 219.196 541.258 219.205 541.218 219.222C541.178 219.238 541.141 219.263 541.111 219.293C541.08 219.324 541.056 219.361 541.039 219.401C541.022 219.441 541.014 219.484 541.014 219.528C541.014 219.571 541.022 219.614 541.039 219.654C541.056 219.695 541.08 219.731 541.111 219.762C542.121 220.572 543.237 221.241 544.428 221.75C544.504 221.795 544.594 221.809 544.68 221.787C544.765 221.766 544.838 221.711 544.884 221.636C544.929 221.56 544.943 221.47 544.921 221.384C544.9 221.299 544.845 221.225 544.77 221.18Z" fill="#7189FF"/>
<path d="M534.918 227.612C534.107 227.208 533.346 226.711 532.651 226.131C532.585 226.076 532.502 226.046 532.417 226.046C532.331 226.046 532.249 226.076 532.183 226.131C532.123 226.194 532.09 226.278 532.09 226.365C532.09 226.452 532.123 226.536 532.183 226.599C532.921 227.217 533.728 227.748 534.588 228.182C534.665 228.222 534.754 228.232 534.838 228.211C534.922 228.19 534.995 228.139 535.044 228.068C535.086 227.99 535.096 227.899 535.072 227.814C535.049 227.73 534.993 227.657 534.918 227.612Z" fill="#7189FF"/>
<path d="M573.763 206.391C567.268 205.355 561.103 202.819 555.759 198.984C555.417 198.731 555.088 199.301 555.429 199.554C560.814 203.43 567.033 205.989 573.586 207.024C574.004 207.088 574.181 206.455 573.763 206.391Z" fill="#7189FF"/>
<path d="M514.153 223.687C508.658 220.12 504.074 215.315 500.769 209.658C500.724 209.583 500.651 209.528 500.565 209.507C500.48 209.485 500.389 209.499 500.314 209.544C500.238 209.589 500.184 209.663 500.162 209.748C500.141 209.834 500.154 209.924 500.2 210C503.565 215.751 508.231 220.634 513.823 224.257C514.178 224.485 514.507 223.915 514.153 223.687Z" fill="#7189FF"/>
<path d="M486.552 228.638C485.827 227.815 485.17 226.934 484.589 226.004C484.361 225.65 483.792 226.004 484.02 226.333C484.627 227.318 485.322 228.246 486.096 229.106C486.126 229.137 486.161 229.161 486.2 229.178C486.239 229.194 486.281 229.203 486.324 229.203C486.367 229.203 486.409 229.194 486.448 229.178C486.487 229.161 486.522 229.137 486.552 229.106C486.583 229.075 486.608 229.039 486.624 228.999C486.641 228.959 486.65 228.915 486.65 228.872C486.65 228.828 486.641 228.785 486.624 228.745C486.608 228.705 486.583 228.668 486.552 228.638Z" fill="#7189FF"/>
<path d="M559.114 210.38C557.625 209.884 556.307 208.975 555.316 207.759C555.285 207.728 555.248 207.704 555.208 207.687C555.168 207.67 555.125 207.662 555.081 207.662C555.038 207.662 554.995 207.67 554.955 207.687C554.914 207.704 554.878 207.728 554.847 207.759C554.816 207.79 554.792 207.826 554.775 207.866C554.759 207.906 554.75 207.95 554.75 207.993C554.75 208.037 554.759 208.08 554.775 208.12C554.792 208.16 554.816 208.197 554.847 208.227C555.932 209.533 557.369 210.5 558.987 211.013C559.393 211.152 559.57 210.506 559.165 210.38H559.114Z" fill="#7189FF"/>
<path d="M503.074 228.802C501.678 228.055 500.526 226.921 499.757 225.536C499.712 225.463 499.64 225.411 499.557 225.39C499.475 225.37 499.387 225.382 499.313 225.425C499.239 225.467 499.185 225.537 499.161 225.619C499.138 225.701 499.147 225.789 499.187 225.865C500.012 227.351 501.247 228.568 502.745 229.372C503.112 229.575 503.442 229.005 503.074 228.802Z" fill="#7189FF"/>
<path d="M562.66 189.754C564.348 187.849 566.544 186.466 568.991 185.766C569.071 185.739 569.137 185.682 569.176 185.608C569.216 185.533 569.225 185.446 569.202 185.365C569.179 185.284 569.126 185.215 569.054 185.172C568.982 185.128 568.896 185.115 568.814 185.133C566.271 185.861 563.991 187.302 562.242 189.286C561.951 189.602 562.42 190.071 562.698 189.754H562.66Z" fill="#7189FF"/>
<path d="M505.949 197.326C505.969 196.54 506.096 195.76 506.329 195.009C506.62 193.857 506.975 192.704 507.355 191.577C508.165 189.121 509.064 186.69 510.09 184.322C510.422 183.45 510.82 182.603 511.28 181.79C511.32 181.715 511.329 181.627 511.306 181.545C511.283 181.463 511.228 181.393 511.154 181.35C511.08 181.307 510.993 181.295 510.91 181.316C510.827 181.336 510.755 181.388 510.71 181.461C509.735 183.233 508.922 185.089 508.279 187.007C507.289 189.449 506.444 191.948 505.747 194.49C505.455 195.391 505.293 196.329 505.266 197.275C505.266 197.362 505.3 197.446 505.362 197.508C505.424 197.57 505.507 197.604 505.595 197.604C505.682 197.604 505.766 197.57 505.828 197.508C505.889 197.446 505.924 197.362 505.924 197.275L505.949 197.326Z" fill="#7189FF"/>
<path d="M516.129 178.827C516.689 176.356 517.946 174.098 519.75 172.319C520.054 172.028 519.585 171.56 519.282 171.851C517.395 173.71 516.077 176.069 515.483 178.65C515.394 179.068 516.028 179.245 516.116 178.827H516.129Z" fill="#7189FF"/>
<path d="M529.74 176.713C530.628 174.369 532.166 172.327 534.172 170.825C534.514 170.585 534.172 170.002 533.843 170.255C531.686 171.864 530.041 174.063 529.107 176.586C528.955 176.979 529.588 177.156 529.74 176.763V176.713Z" fill="#7189FF"/>
<path d="M573.573 188.817C574.289 188.267 575.107 187.862 575.979 187.627C576.054 187.598 576.116 187.542 576.153 187.47C576.19 187.398 576.199 187.315 576.179 187.237C576.159 187.159 576.11 187.091 576.043 187.046C575.976 187.001 575.894 186.983 575.814 186.994C574.828 187.263 573.907 187.728 573.105 188.361C573.074 188.391 573.05 188.426 573.033 188.465C573.016 188.505 573.008 188.547 573.008 188.589C573.008 188.632 573.016 188.674 573.033 188.713C573.05 188.752 573.074 188.788 573.105 188.817C573.168 188.877 573.252 188.91 573.339 188.91C573.426 188.91 573.51 188.877 573.573 188.817Z" fill="#7189FF"/>
<path d="M523.662 190.704C523.715 189.802 523.948 188.919 524.346 188.108C524.375 188.072 524.396 188.03 524.407 187.984C524.419 187.939 524.42 187.892 524.412 187.846C524.404 187.8 524.387 187.757 524.36 187.718C524.334 187.68 524.3 187.647 524.26 187.623C524.221 187.599 524.176 187.583 524.13 187.577C524.084 187.571 524.037 187.575 523.992 187.589C523.948 187.602 523.907 187.625 523.872 187.656C523.837 187.686 523.808 187.724 523.789 187.766C523.334 188.683 523.067 189.682 523.004 190.704C523.004 190.791 523.039 190.875 523.1 190.937C523.162 190.998 523.246 191.033 523.333 191.033C523.42 191.033 523.504 190.998 523.566 190.937C523.628 190.875 523.662 190.791 523.662 190.704Z" fill="#7189FF"/>
<path d="M527.98 205.037C527.689 202.568 529.082 200.175 530.259 198.111C533.502 192.428 538.144 187.669 543.744 184.284C545.824 183.038 548.026 182.008 550.315 181.208C550.72 181.068 550.543 180.435 550.138 180.575C541.669 183.6 534.536 189.513 529.993 197.275C528.639 199.554 526.993 202.34 527.322 205.037C527.322 205.454 528.031 205.454 527.98 205.037Z" fill="#7189FF"/>
<path d="M537.197 183.791C538.659 182.047 540.494 180.654 542.566 179.714C542.958 179.536 542.566 178.979 542.237 179.144C540.113 180.11 538.231 181.537 536.729 183.322C536.463 183.651 536.919 184.12 537.197 183.791Z" fill="#7189FF"/>
<path d="M544.933 178.713C545.06 178.617 545.196 178.532 545.338 178.46C545.471 178.384 545.611 178.32 545.756 178.27L546.212 178.144H546.402H546.655C546.742 178.144 546.826 178.109 546.888 178.047C546.949 177.985 546.984 177.902 546.984 177.814C546.978 177.729 546.942 177.649 546.881 177.588C546.821 177.528 546.74 177.491 546.655 177.485C545.914 177.522 545.198 177.768 544.591 178.194C544.515 178.24 544.461 178.313 544.44 178.399C544.418 178.484 544.432 178.575 544.477 178.65C544.522 178.726 544.596 178.78 544.681 178.801C544.767 178.823 544.857 178.809 544.933 178.764V178.713Z" fill="#7189FF"/>
<path d="M535.095 199.693C535.586 198.799 536.223 197.995 536.982 197.313C537.044 197.251 537.079 197.167 537.079 197.079C537.079 196.991 537.044 196.907 536.982 196.845C536.92 196.783 536.835 196.748 536.748 196.748C536.66 196.748 536.575 196.783 536.513 196.845C535.713 197.571 535.041 198.427 534.525 199.377C534.483 199.451 534.472 199.539 534.493 199.622C534.514 199.704 534.567 199.775 534.639 199.82C534.716 199.863 534.805 199.875 534.89 199.854C534.975 199.833 535.048 199.78 535.095 199.706V199.693Z" fill="#7189FF"/>
<path d="M481.778 210.874C483.297 201.757 488.235 193.768 493.692 186.488C495.262 184.398 496.883 182.347 498.504 180.296C498.77 179.967 498.301 179.498 498.035 179.828C492.312 187.032 486.501 194.439 483.209 203.125C482.268 205.581 481.576 208.127 481.145 210.722C481.069 211.127 481.715 211.304 481.778 210.886V210.874Z" fill="#7189FF"/>
<path d="M491.755 199.339C492.239 198.103 492.933 196.959 493.806 195.958C494.084 195.642 493.628 195.173 493.337 195.49C492.39 196.575 491.641 197.818 491.121 199.162C491.098 199.246 491.109 199.335 491.152 199.411C491.194 199.487 491.265 199.543 491.349 199.567C491.433 199.59 491.523 199.579 491.599 199.537C491.675 199.494 491.731 199.423 491.755 199.339Z" fill="#7189FF"/>
<path d="M487.147 189.488C487.607 188.233 488.42 187.138 489.489 186.336C489.563 186.289 489.617 186.216 489.64 186.132C489.663 186.048 489.655 185.958 489.616 185.88C489.594 185.842 489.564 185.809 489.529 185.783C489.494 185.757 489.455 185.738 489.412 185.727C489.37 185.717 489.326 185.715 489.282 185.721C489.239 185.728 489.198 185.743 489.16 185.766C487.949 186.662 487.029 187.895 486.514 189.311C486.491 189.395 486.502 189.485 486.544 189.561C486.587 189.637 486.658 189.693 486.742 189.716C486.826 189.74 486.916 189.729 486.992 189.686C487.068 189.643 487.123 189.572 487.147 189.488Z" fill="#7189FF"/>
<path d="M479.094 197.807C479.894 195.712 480.931 193.716 482.183 191.856C482.424 191.501 481.854 191.172 481.614 191.527C480.337 193.436 479.28 195.483 478.461 197.63C478.309 198.022 478.942 198.199 479.094 197.807Z" fill="#7189FF"/>
<path d="M484.045 194.274C484.045 194.274 484.045 194.198 484.045 194.16C484.045 194.122 484.045 193.983 484.108 193.907L484.184 193.667V193.603V193.489L484.311 193.274L484.387 193.16C484.488 193.019 484.607 192.891 484.741 192.78C484.772 192.751 484.796 192.715 484.813 192.676C484.829 192.637 484.838 192.595 484.838 192.552C484.838 192.51 484.829 192.468 484.813 192.429C484.796 192.389 484.772 192.354 484.741 192.324C484.71 192.293 484.674 192.269 484.634 192.252C484.594 192.235 484.55 192.227 484.507 192.227C484.463 192.227 484.42 192.235 484.38 192.252C484.34 192.269 484.303 192.293 484.273 192.324C483.669 192.85 483.297 193.591 483.234 194.388C483.234 194.476 483.269 194.559 483.331 194.621C483.393 194.683 483.476 194.717 483.564 194.717C483.651 194.717 483.735 194.683 483.796 194.621C483.858 194.559 483.893 194.476 483.893 194.388L484.045 194.274Z" fill="#7189FF"/>
<path d="M492.439 215.546C491.198 215.202 490.042 214.602 489.046 213.786C488.982 213.726 488.899 213.693 488.812 213.693C488.725 213.693 488.641 213.726 488.577 213.786C488.547 213.815 488.522 213.851 488.506 213.89C488.489 213.929 488.48 213.971 488.48 214.014C488.48 214.056 488.489 214.098 488.506 214.137C488.522 214.177 488.547 214.212 488.577 214.242C489.654 215.145 490.91 215.809 492.262 216.191C492.347 216.215 492.439 216.203 492.516 216.16C492.593 216.116 492.65 216.043 492.673 215.957C492.697 215.872 492.685 215.78 492.641 215.703C492.598 215.626 492.525 215.569 492.439 215.546Z" fill="#7189FF"/>
<path d="M472.864 222.256C480.714 224.193 489.324 217.951 490.59 209.975C491.515 204.315 489.324 198.351 491.008 192.844C494.237 181.929 510 178.916 513.571 168.078C516.698 158.506 508.506 147.819 511.9 138.386C513.47 133.993 517.23 130.79 520.066 127.13C522.902 123.471 524.764 118.077 522.13 114.228C520.864 112.291 518.61 111.164 516.635 109.898C510.304 105.872 505.379 98.9459 505.847 91.501C506.099 89.2977 506.484 87.1117 507 84.955C507.874 80.2152 507.809 75.3498 506.81 70.6348C506.151 67.5075 504.657 64.0382 501.568 63.1899C498.478 62.3416 495.237 64.7219 492.882 67.0643C488.284 71.6245 484.098 76.5817 480.373 81.8783C478.739 84.1826 477.106 86.6516 474.624 88.0191C468.572 91.3744 459.798 87.0188 454.606 91.6023C451.276 94.5397 451.276 99.6803 451.859 104.087C452.441 108.493 453.239 113.342 450.859 117.09C448.883 120.179 445.237 121.686 442.401 123.99C434.095 130.752 433.728 143.274 435.766 153.783C436.298 156.518 436.944 159.417 435.981 162.051C435.251 163.566 434.405 165.022 433.449 166.406C431.297 170.293 431.284 174.978 431.487 179.422C431.917 188.539 433.057 197.858 437.248 206.012C441.438 214.166 449.175 220.889 458.266 221.737C461.747 222.066 465.571 221.61 468.395 223.611" fill="white"/>
<path d="M500.795 64.8232C497.757 71.0147 494.92 77.3075 492.236 83.6509C488.809 91.7458 485.593 99.9251 482.588 108.189C479.06 117.862 475.806 127.628 472.826 137.488C469.517 148.461 466.563 159.519 463.963 170.661C461.203 182.499 458.898 194.439 457.05 206.455C456.809 207.999 456.581 209.557 456.354 211.114C456.354 211.57 456.987 211.76 457.05 211.304C458.759 199.2 460.988 187.171 463.647 175.244C466.179 164.001 469.066 152.846 472.307 141.78C475.261 131.752 478.49 121.804 481.993 111.937C485.023 103.453 488.265 95.0504 491.717 86.7276C494.465 80.131 497.364 73.585 500.479 67.1403C500.783 66.4819 501.099 65.8742 501.428 65.1904C501.631 64.7726 501.011 64.4181 500.808 64.8232H500.795Z" fill="#7189FF"/>
<path d="M504.619 74.9145C502.532 77.5095 500.196 79.8929 497.642 82.0302C497.288 82.3215 497.807 82.8279 498.149 82.5367C500.698 80.3993 503.031 78.0158 505.113 75.4209C505.404 75.0664 504.897 74.56 504.619 74.9145Z" fill="#7189FF"/>
<path d="M501.657 82.7519L499.352 84.3346C499.271 84.3845 499.213 84.4639 499.189 84.556C499.166 84.6481 499.179 84.7457 499.226 84.8284C499.273 84.9084 499.35 84.9666 499.44 84.9903C499.53 85.014 499.626 85.0013 499.707 84.955L501.973 83.3723C502.053 83.3248 502.111 83.2477 502.135 83.1577C502.159 83.0677 502.146 82.972 502.1 82.8912C502.054 82.809 501.978 82.7482 501.888 82.7221C501.798 82.6959 501.701 82.7067 501.619 82.7519H501.657Z" fill="#7189FF"/>
<path d="M486.817 79.4093C486.618 80.9559 486.7 82.5257 487.057 84.0434C487.159 84.4865 487.855 84.2966 487.741 83.8535C487.41 82.396 487.337 80.8919 487.526 79.4093C487.526 79.3152 487.489 79.2251 487.422 79.1586C487.356 79.0921 487.265 79.0547 487.171 79.0547C487.078 79.0579 486.99 79.0963 486.924 79.1621C486.858 79.2279 486.82 79.3162 486.817 79.4093Z" fill="#7189FF"/>
<path d="M476.069 93.4889C475.901 98.6203 476.198 103.756 476.955 108.835C477.031 109.29 477.715 109.088 477.651 108.645C476.901 103.617 476.612 98.5311 476.79 93.4509C476.79 92.9951 476.081 92.9951 476.069 93.4509V93.4889Z" fill="#7189FF"/>
<path d="M472.89 103.605C473.092 104.96 473.295 106.328 473.485 107.682C473.522 107.759 473.586 107.821 473.663 107.856C473.741 107.892 473.829 107.899 473.912 107.876C473.995 107.854 474.067 107.803 474.116 107.733C474.165 107.663 474.188 107.578 474.181 107.492L473.574 103.415C473.562 103.371 473.541 103.329 473.513 103.293C473.485 103.256 473.45 103.226 473.41 103.203C473.369 103.181 473.325 103.167 473.279 103.162C473.233 103.157 473.187 103.161 473.143 103.175C473.053 103.199 472.975 103.257 472.928 103.338C472.88 103.419 472.867 103.515 472.89 103.605Z" fill="#7189FF"/>
<path d="M500.011 103.504C499.3 104.431 498.31 105.105 497.188 105.429C497.097 105.454 497.02 105.514 496.974 105.596C496.927 105.678 496.915 105.775 496.941 105.865C496.966 105.956 497.026 106.033 497.108 106.079C497.19 106.126 497.287 106.138 497.377 106.112C498.674 105.741 499.813 104.953 500.619 103.871C500.644 103.831 500.66 103.786 500.667 103.739C500.674 103.692 500.672 103.644 500.66 103.598C500.648 103.551 500.627 103.508 500.599 103.47C500.57 103.433 500.534 103.401 500.492 103.377C500.411 103.334 500.316 103.323 500.227 103.347C500.138 103.37 500.061 103.426 500.011 103.504Z" fill="#7189FF"/>
<path d="M479.574 154.353C478.603 155.055 477.43 155.424 476.231 155.404C476.137 155.404 476.047 155.441 475.981 155.507C475.914 155.574 475.877 155.664 475.877 155.758C475.877 155.852 475.914 155.942 475.981 156.009C476.047 156.075 476.137 156.113 476.231 156.113C477.554 156.137 478.849 155.737 479.929 154.973C479.97 154.95 480.006 154.918 480.035 154.88C480.064 154.842 480.085 154.799 480.097 154.753C480.109 154.707 480.111 154.659 480.104 154.612C480.097 154.565 480.08 154.52 480.055 154.479C480.008 154.399 479.931 154.341 479.841 154.317C479.751 154.294 479.655 154.306 479.574 154.353Z" fill="#7189FF"/>
<path d="M500.201 162.304C499.699 163.394 498.848 164.285 497.783 164.836C497.705 164.886 497.649 164.963 497.625 165.052C497.602 165.141 497.613 165.236 497.656 165.317C497.68 165.359 497.711 165.395 497.749 165.424C497.787 165.453 497.83 165.474 497.876 165.486C497.922 165.497 497.97 165.5 498.017 165.493C498.064 165.486 498.109 165.469 498.15 165.444C499.318 164.828 500.255 163.851 500.821 162.659C500.868 162.576 500.881 162.479 500.856 162.387C500.831 162.296 500.771 162.218 500.688 162.171C500.606 162.124 500.509 162.112 500.417 162.137C500.326 162.162 500.248 162.222 500.201 162.304Z" fill="#7189FF"/>
<path d="M504.671 111.278C498.808 116.057 492.011 119.559 484.716 121.559C482.682 122.096 480.619 122.519 478.537 122.826C478.094 122.889 478.284 123.573 478.727 123.509C486.298 122.352 493.543 119.627 499.999 115.507C501.797 114.342 503.526 113.074 505.177 111.709C505.532 111.418 505.025 110.924 504.671 111.202V111.278Z" fill="#7189FF"/>
<path d="M487.843 170.585C480.332 176.716 471.31 180.713 461.722 182.157C461.266 182.157 461.456 182.917 461.912 182.841C469.48 181.69 476.722 178.964 483.171 174.839C484.974 173.681 486.703 172.412 488.349 171.041C488.704 170.762 488.197 170.256 487.843 170.547V170.585Z" fill="#7189FF"/>
<path d="M489.299 125.801C487.981 126.799 486.354 127.301 484.703 127.219C484.247 127.219 484.247 127.903 484.703 127.928C486.485 128.02 488.242 127.482 489.667 126.409C489.744 126.359 489.8 126.282 489.824 126.193C489.847 126.104 489.836 126.009 489.793 125.928C489.77 125.886 489.738 125.85 489.7 125.821C489.662 125.792 489.619 125.771 489.573 125.76C489.527 125.748 489.479 125.745 489.432 125.752C489.385 125.76 489.34 125.776 489.299 125.801Z" fill="#7189FF"/>
<path d="M512.305 124.484C509.439 126.925 506.085 128.725 502.467 129.764C502.376 129.789 502.299 129.849 502.253 129.931C502.207 130.013 502.195 130.11 502.22 130.201C502.245 130.292 502.305 130.368 502.387 130.415C502.469 130.461 502.566 130.473 502.657 130.448C506.388 129.377 509.844 127.511 512.786 124.978C513.14 124.687 512.634 124.18 512.292 124.484H512.305Z" fill="#7189FF"/>
<path d="M483.336 182.613C480.254 184.831 476.73 186.36 473.004 187.095C472.561 187.184 472.751 187.88 473.194 187.792C476.976 187.033 480.554 185.479 483.69 183.233C484.058 182.968 483.69 182.347 483.336 182.613Z" fill="#7189FF"/>
<path d="M508.063 123.876C507.754 124.243 507.365 124.534 506.926 124.727C506.487 124.921 506.009 125.011 505.53 124.991C505.436 124.991 505.346 125.028 505.28 125.094C505.213 125.161 505.176 125.251 505.176 125.345C505.176 125.439 505.213 125.529 505.28 125.596C505.346 125.662 505.436 125.7 505.53 125.7C506.091 125.722 506.65 125.621 507.166 125.402C507.683 125.183 508.145 124.852 508.518 124.434C508.581 124.364 508.615 124.274 508.615 124.18C508.615 124.087 508.581 123.997 508.518 123.927C508.485 123.893 508.446 123.867 508.403 123.848C508.359 123.83 508.312 123.821 508.265 123.821C508.218 123.821 508.171 123.83 508.128 123.848C508.084 123.867 508.045 123.893 508.012 123.927L508.063 123.876Z" fill="#7189FF"/>
<path d="M493.553 137.677C490.52 139.308 487.201 140.34 483.778 140.716C483.322 140.716 483.31 141.476 483.778 141.425C487.326 141.043 490.766 139.977 493.907 138.285C494.313 138.07 493.907 137.45 493.54 137.677H493.553Z" fill="#7189FF"/>
<path d="M505.125 142.641C502.372 144.348 499.301 145.476 496.098 145.958C495.642 146.034 495.844 146.718 496.287 146.654C499.55 146.157 502.677 145.003 505.48 143.261C505.872 143.021 505.48 142.4 505.125 142.641Z" fill="#7189FF"/>
<path d="M460.975 114.823C461.715 122.482 463.668 129.974 466.761 137.019C466.939 137.437 467.559 137.019 467.382 136.652C464.341 129.722 462.418 122.355 461.684 114.823C461.684 114.38 460.924 114.368 460.975 114.823Z" fill="#7189FF"/>
<path d="M467.054 120.496C466.835 122.075 466.943 123.683 467.37 125.219C467.395 125.309 467.455 125.386 467.537 125.432C467.619 125.479 467.716 125.491 467.807 125.465C467.898 125.44 467.975 125.38 468.021 125.298C468.067 125.216 468.079 125.119 468.054 125.029C467.656 123.617 467.552 122.139 467.75 120.686C467.77 120.594 467.756 120.497 467.709 120.415C467.662 120.333 467.586 120.272 467.497 120.243C467.405 120.222 467.308 120.237 467.226 120.284C467.144 120.331 467.083 120.406 467.054 120.496Z" fill="#7189FF"/>
<path d="M448.465 130.524C448.987 132.03 449.82 133.411 450.909 134.575C451.213 134.917 451.719 134.411 451.403 134.069C450.402 132.993 449.635 131.721 449.149 130.334C448.997 129.903 448.313 130.093 448.465 130.524Z" fill="#7189FF"/>
<path d="M454.922 109.075C455.201 112.089 455.492 115.089 455.783 118.103C455.783 118.546 456.543 118.559 456.505 118.103L455.631 109.075C455.631 108.619 454.872 108.619 454.922 109.075Z" fill="#7189FF"/>
<path d="M453.467 118.546C453.581 119.356 453.708 120.167 453.822 120.99C453.835 121.035 453.857 121.077 453.886 121.113C453.916 121.15 453.952 121.18 453.993 121.202C454.034 121.225 454.08 121.239 454.126 121.244C454.173 121.248 454.22 121.244 454.265 121.23C454.31 121.219 454.351 121.198 454.388 121.17C454.424 121.142 454.455 121.106 454.477 121.066C454.5 121.026 454.514 120.982 454.519 120.936C454.523 120.89 454.519 120.844 454.506 120.8C454.392 119.977 454.265 119.166 454.151 118.356C454.139 118.31 454.118 118.267 454.09 118.229C454.061 118.191 454.025 118.159 453.983 118.135C453.942 118.112 453.896 118.097 453.849 118.091C453.802 118.085 453.754 118.089 453.708 118.103C453.619 118.132 453.544 118.194 453.5 118.277C453.455 118.359 453.443 118.455 453.467 118.546Z" fill="#7189FF"/>
<path d="M446.947 164.343C447.175 167.396 447.758 170.413 448.681 173.332C448.821 173.763 449.504 173.585 449.365 173.142C448.462 170.284 447.889 167.331 447.656 164.343C447.656 163.887 446.909 163.887 446.947 164.343Z" fill="#7189FF"/>
<path d="M444.528 162.291L444.832 164.33C444.844 164.375 444.866 164.417 444.894 164.454C444.923 164.49 444.959 164.521 444.999 164.544C445.04 164.567 445.084 164.581 445.131 164.587C445.177 164.593 445.224 164.589 445.269 164.577C445.314 164.564 445.356 164.543 445.392 164.514C445.429 164.486 445.46 164.45 445.483 164.41C445.506 164.369 445.52 164.324 445.526 164.278C445.532 164.232 445.528 164.185 445.516 164.14C445.414 163.469 445.326 162.785 445.224 162.101C445.195 162.012 445.133 161.938 445.051 161.893C444.968 161.848 444.872 161.837 444.781 161.861C444.693 161.888 444.617 161.947 444.57 162.026C444.523 162.106 444.508 162.201 444.528 162.291Z" fill="#7189FF"/>
<path d="M458.05 203.555C450.998 196.692 446.048 187.96 443.78 178.384C443.679 177.941 442.983 178.131 443.097 178.574C444.889 186.093 448.312 193.125 453.124 199.174C454.493 200.895 455.969 202.527 457.543 204.062C457.873 204.378 458.379 203.872 458.05 203.555Z" fill="#7189FF"/>
<path d="M476.98 200.491C473.989 203.423 469.987 205.096 465.8 205.163C465.706 205.163 465.616 205.201 465.549 205.267C465.483 205.334 465.445 205.424 465.445 205.518C465.445 205.612 465.483 205.702 465.549 205.768C465.616 205.835 465.706 205.872 465.8 205.872C470.175 205.802 474.358 204.058 477.486 200.998C477.816 200.668 477.309 200.175 476.98 200.491Z" fill="#7189FF"/>
<path d="M472.763 199.428L470.408 200.542C470.33 200.591 470.274 200.669 470.25 200.758C470.227 200.847 470.238 200.941 470.281 201.023C470.329 201.106 470.407 201.167 470.499 201.193C470.592 201.219 470.691 201.208 470.775 201.162L473.13 200.048C473.212 199.999 473.272 199.92 473.295 199.827C473.319 199.735 473.305 199.636 473.256 199.554C473.232 199.513 473.2 199.478 473.163 199.449C473.125 199.421 473.082 199.4 473.036 199.389C472.943 199.365 472.845 199.379 472.763 199.428Z" fill="#7189FF"/>
<path d="M467.37 199.339L466.103 199.529C466.017 199.558 465.945 199.618 465.9 199.698C465.856 199.777 465.842 199.871 465.863 199.959C465.873 200.005 465.893 200.048 465.921 200.085C465.949 200.123 465.986 200.153 466.028 200.175C466.113 200.207 466.208 200.207 466.293 200.175L467.56 199.997C467.649 199.97 467.725 199.911 467.775 199.833C467.794 199.789 467.803 199.741 467.803 199.693C467.803 199.646 467.794 199.598 467.775 199.554C467.772 199.476 467.746 199.401 467.699 199.339C467.609 199.308 467.511 199.308 467.42 199.339H467.37Z" fill="#7189FF"/>
<path d="M487.399 206.759C485.557 208.501 483.411 209.891 481.068 210.861C480.65 211.038 480.84 211.734 481.258 211.557C483.702 210.537 485.941 209.083 487.867 207.265C488.209 206.948 487.703 206.442 487.361 206.759H487.399Z" fill="#7189FF"/>
<path d="M478.841 212.165L477.575 212.342C477.486 212.369 477.409 212.427 477.36 212.507C477.342 212.549 477.332 212.594 477.332 212.64C477.332 212.686 477.342 212.731 477.36 212.773C477.37 212.817 477.388 212.859 477.414 212.896C477.441 212.933 477.474 212.964 477.512 212.988C477.602 213.019 477.7 213.019 477.791 212.988L479.057 212.811C479.142 212.783 479.214 212.724 479.259 212.646C479.281 212.603 479.292 212.555 479.292 212.507C479.292 212.459 479.281 212.411 479.259 212.368C479.248 212.322 479.228 212.28 479.199 212.243C479.171 212.206 479.135 212.175 479.095 212.152C479.009 212.12 478.915 212.12 478.829 212.152L478.841 212.165Z" fill="#7189FF"/>
<path d="M486.69 201.973C485.995 202.911 485.019 203.603 483.904 203.948C483.814 203.973 483.737 204.033 483.69 204.115C483.644 204.197 483.632 204.294 483.657 204.385C483.683 204.475 483.743 204.552 483.825 204.598C483.907 204.645 484.004 204.657 484.094 204.631C485.386 204.235 486.514 203.431 487.31 202.34C487.357 202.257 487.37 202.159 487.347 202.067C487.323 201.975 487.265 201.896 487.184 201.846C487.1 201.802 487.004 201.791 486.912 201.814C486.821 201.837 486.742 201.894 486.69 201.973Z" fill="#7189FF"/>
</g>
<path d="M496.705 387.657H196.441V185.235L346.568 74.9149L496.705 185.235V387.657Z" fill="#ABBEFE"/>
<path d="M475.082 123.636H216.623C214.414 123.636 212.623 125.427 212.623 127.636V308.837C212.623 311.046 214.414 312.837 216.623 312.837H475.082C477.291 312.837 479.082 311.046 479.082 308.837V127.636C479.082 125.427 477.291 123.636 475.082 123.636Z" fill="#6D8DFD"/>
<path d="M330.342 234.413L325.297 228.657L369.905 189.707L373.155 205.529L416.495 167.059L418.809 183.465L441.406 162.204L446.659 167.769L413.294 199.172L410.903 182.253L368.324 220.056L365.047 204.109L330.342 234.413Z" fill="#D5DEFE"/>
<path d="M445.299 172.951L458.841 151.045L436.135 163.251L445.299 172.951Z" fill="white"/>
<path d="M304.116 139.185H242.529V155.018H304.116V139.185Z" fill="#ABBEFE"/>
<path d="M255.391 148.816C256.343 146.522 255.252 143.893 252.954 142.943C250.657 141.993 248.023 143.082 247.071 145.376C246.119 147.669 247.21 150.298 249.508 151.248C251.805 152.198 254.44 151.109 255.391 148.816Z" fill="#6D8DFD"/>
<path d="M299.685 143.931H258.939V146.443H299.685V143.931Z" fill="#D5DEFE"/>
<path d="M299.685 147.76H258.939V150.272H299.685V147.76Z" fill="#D5DEFE"/>
<path d="M326 160.237H264.414V176.07H326V160.237Z" fill="#ABBEFE"/>
<path d="M273.12 172.647C275.607 172.647 277.623 170.635 277.623 168.152C277.623 165.67 275.607 163.658 273.12 163.658C270.633 163.658 268.617 165.67 268.617 168.152C268.617 170.635 270.633 172.647 273.12 172.647Z" fill="#6D8DFD"/>
<path d="M321.572 164.985H280.826V167.497H321.572V164.985Z" fill="#D5DEFE"/>
<path d="M321.572 168.812H280.826V171.324H321.572V168.812Z" fill="#D5DEFE"/>
<path d="M347.887 181.291H286.301V197.124H347.887V181.291Z" fill="#ABBEFE"/>
<path d="M295.005 193.698C297.492 193.698 299.508 191.686 299.508 189.203C299.508 186.721 297.492 184.709 295.005 184.709C292.518 184.709 290.502 186.721 290.502 189.203C290.502 191.686 292.518 193.698 295.005 193.698Z" fill="#6D8DFD"/>
<path d="M343.457 186.037H302.711V188.549H343.457V186.037Z" fill="#D5DEFE"/>
<path d="M343.457 189.866H302.711V192.378H343.457V189.866Z" fill="#D5DEFE"/>
<path d="M362.875 168.758L361.457 174.962C357.276 173.993 353.559 171.61 350.936 168.218C348.313 164.826 346.947 160.633 347.068 156.35C347.189 152.067 348.79 147.958 351.6 144.719C354.411 141.48 358.256 139.31 362.486 138.578L363.553 144.859C360.769 145.332 358.235 146.753 356.383 148.881C354.53 151.009 353.474 153.713 353.394 156.53C353.314 159.348 354.215 162.107 355.944 164.336C357.672 166.566 360.122 168.128 362.875 168.758Z" fill="#D5DEFE"/>
<path d="M383.508 151.921L377.358 153.619C376.648 151.049 375.112 148.782 372.988 147.166C370.863 145.55 368.265 144.674 365.594 144.674C364.91 144.673 364.227 144.732 363.553 144.848L362.486 138.568C367.023 137.803 371.682 138.744 375.565 141.208C379.447 143.672 382.277 147.485 383.508 151.91V151.921Z" fill="#ABBEFE"/>
<path d="M384.179 156.873C384.187 159.441 383.657 161.982 382.625 164.333L376.809 161.756C377.933 159.19 378.137 156.317 377.389 153.618L383.533 151.92C383.971 153.534 384.188 155.201 384.179 156.873Z" fill="#97ADFD"/>
<path d="M382.626 164.334C381.176 167.639 378.793 170.45 375.768 172.425C372.743 174.399 369.208 175.452 365.593 175.453C364.201 175.455 362.814 175.3 361.457 174.989L362.874 168.785C363.771 168.991 364.689 169.094 365.61 169.091C367.99 169.092 370.318 168.398 372.308 167.095C374.298 165.792 375.863 163.936 376.81 161.756L382.626 164.334Z" fill="#587CFC"/>
<path d="M436.399 204.152L432.361 222.256L414.349 226.828C413.572 223.757 413.596 220.54 414.416 217.481C415.237 214.422 416.828 211.623 419.037 209.351C421.247 207.079 424.002 205.408 427.041 204.498C430.079 203.588 433.301 203.469 436.399 204.152Z" fill="#D5DEFE"/>
<path d="M446.808 233.933C445.12 236.009 443.003 237.696 440.602 238.879C438.201 240.063 435.572 240.715 432.895 240.791C430.218 240.868 427.556 240.366 425.091 239.321C422.627 238.276 420.417 236.712 418.613 234.736L432.363 222.257L446.808 233.933Z" fill="#587CFC"/>
<path d="M447.84 211.993L432.361 222.255L436.399 204.151C441.084 205.194 445.183 208.004 447.84 211.993Z" fill="#97ADFD"/>
<path d="M450.948 222.256C450.953 226.508 449.49 230.632 446.806 233.933L432.361 222.256L447.84 211.995C449.872 215.032 450.954 218.604 450.948 222.256Z" fill="#436CFC"/>
<path d="M432.36 222.257L418.61 234.736C416.562 232.488 415.099 229.772 414.348 226.828L432.36 222.257Z" fill="#ABBEFE"/>
<path d="M327.968 286.591H325.779V294.914H327.968V286.591Z" fill="#D5DEFE"/>
<path d="M334.946 283.056H332.758V294.918H334.946V283.056Z" fill="#D5DEFE"/>
<path d="M341.929 277.994H339.74V294.919H341.929V277.994Z" fill="#D5DEFE"/>
<path d="M348.913 274.653H346.725V294.92H348.913V274.653Z" fill="#D5DEFE"/>
<path d="M355.894 272.02H353.705V294.919H355.894V272.02Z" fill="#D5DEFE"/>
<path d="M362.868 261.299H360.68V294.913H362.868V261.299Z" fill="#D5DEFE"/>
<path d="M369.851 258.4H367.662V294.914H369.851V258.4Z" fill="#D5DEFE"/>
<path d="M376.831 261.883H374.643V294.918H376.831V261.883Z" fill="#D5DEFE"/>
<path d="M383.814 264.823H381.625V294.92H383.814V264.823Z" fill="#D5DEFE"/>
<path d="M390.796 268.378H388.607V294.915H390.796V268.378Z" fill="#D5DEFE"/>
<path d="M397.771 276.017H395.582V294.919H397.771V276.017Z" fill="#D5DEFE"/>
<path d="M404.751 284.783H402.562V294.914H404.751V284.783Z" fill="#D5DEFE"/>
<path d="M411.733 273.423H409.545V294.914H411.733V273.423Z" fill="#D5DEFE"/>
<path d="M418.716 266.471H416.527V294.919H418.716V266.471Z" fill="#D5DEFE"/>
<path d="M425.696 261.299H423.508V294.913H425.696V261.299Z" fill="#D5DEFE"/>
<path d="M432.675 267.426H430.486V294.913H432.675V267.426Z" fill="#D5DEFE"/>
<path d="M439.655 274.593H437.467V294.919H439.655V274.593Z" fill="#D5DEFE"/>
<path d="M446.636 280.693H444.447V294.914H446.636V280.693Z" fill="#D5DEFE"/>
<path d="M453.618 286.591H451.43V294.914H453.618V286.591Z" fill="#D5DEFE"/>
<path d="M496.705 387.658H196.441V185.236L346.568 311.869L496.705 185.236V387.658Z" fill="#FFB81F"/>
<path d="M346.89 312.251L496.205 186.312V387.158H196.941V186.312L346.246 312.251L346.568 312.523L346.89 312.251Z" fill="white" style="mix-blend-mode:soft-light"/>
<path d="M346.89 312.251L496.205 186.312V387.158H196.941V186.312L346.246 312.251L346.568 312.523L346.89 312.251Z" stroke="#436CFC"/>
<path d="M346.568 278.91L495.181 388.11H197.966L346.568 278.91Z" fill="white" style="mix-blend-mode:overlay"/>
<path d="M346.568 278.91L495.181 388.11H197.966L346.568 278.91Z" stroke="#6D8DFD"/>
<path d="M190.234 231.704C189.231 231.759 188.231 231.57 187.317 231.154C186.404 230.737 185.606 230.104 184.991 229.31C184.786 229.05 184.417 229.418 184.623 229.678C185.282 230.526 186.137 231.2 187.114 231.644C188.092 232.087 189.162 232.286 190.234 232.224C190.57 232.224 190.57 231.682 190.234 231.704Z" fill="#EEEFF2"/>
<path d="M239.307 345H120.264C119.441 345.001 118.626 344.84 117.865 344.525C117.104 344.21 116.413 343.748 115.831 343.164C115.249 342.581 114.788 341.888 114.474 341.126C114.16 340.363 113.999 339.546 114 338.721V265.08C113.999 264.15 114.18 263.229 114.535 262.369C114.889 261.509 115.409 260.728 116.066 260.07C116.722 259.413 117.501 258.891 118.359 258.536C119.216 258.181 120.135 257.999 121.063 258H236.675C237.78 257.999 238.874 258.215 239.896 258.638C240.917 259.061 241.845 259.682 242.627 260.464C243.409 261.247 244.029 262.177 244.452 263.2C244.875 264.223 245.093 265.32 245.093 266.427V339.2C245.093 340.738 244.484 342.214 243.398 343.301C242.313 344.389 240.842 345 239.307 345Z" fill="#FFD7E6"/>
<path d="M239.141 345H119.953C119.171 345 118.397 344.845 117.675 344.545C116.953 344.246 116.296 343.806 115.744 343.252C115.191 342.698 114.752 342.04 114.453 341.316C114.154 340.592 114 339.816 114 339.033V266.36C113.997 265.463 114.32 264.596 114.911 263.922C115.241 263.541 115.707 263.305 116.209 263.263C116.711 263.222 117.21 263.378 117.598 263.7L163.132 301.494L172.561 309.287C174.512 310.906 176.969 311.785 179.502 311.769C182.034 311.752 184.48 310.842 186.41 309.198L242.361 261.584C245.86 264.924 245.071 268.264 245.071 268.264V338.988C245.077 339.774 244.928 340.553 244.633 341.28C244.338 342.008 243.902 342.67 243.351 343.228C242.8 343.787 242.145 344.231 241.422 344.535C240.699 344.839 239.924 344.997 239.141 345Z" fill="#F2718D"/>
<path d="M117.454 344.521C117.228 344.523 117.006 344.455 116.819 344.328C116.632 344.2 116.488 344.018 116.407 343.806C116.326 343.594 116.312 343.362 116.366 343.142C116.42 342.921 116.54 342.723 116.71 342.573L165.12 299.49C165.227 299.384 165.355 299.3 165.495 299.245C165.635 299.19 165.785 299.163 165.936 299.168C166.087 299.173 166.235 299.208 166.372 299.272C166.508 299.336 166.63 299.427 166.731 299.539C166.831 299.652 166.908 299.784 166.956 299.927C167.003 300.071 167.022 300.222 167.009 300.373C166.997 300.523 166.954 300.67 166.883 300.803C166.812 300.937 166.715 301.054 166.597 301.149L118.187 344.187C117.993 344.386 117.732 344.505 117.454 344.521Z" fill="#FFD7E6"/>
<path d="M240.728 344.521C240.46 344.524 240.199 344.429 239.995 344.254L192.085 302.496C191.969 302.402 191.874 302.286 191.805 302.154C191.735 302.022 191.693 301.878 191.68 301.729C191.667 301.581 191.684 301.431 191.73 301.289C191.776 301.147 191.85 301.016 191.947 300.904C192.045 300.791 192.164 300.699 192.298 300.634C192.431 300.568 192.576 300.53 192.725 300.522C192.873 300.514 193.022 300.535 193.162 300.586C193.302 300.636 193.43 300.714 193.54 300.815L241.461 342.618C241.682 342.813 241.816 343.087 241.835 343.382C241.854 343.676 241.755 343.966 241.561 344.187C241.453 344.298 241.323 344.385 241.18 344.442C241.037 344.5 240.883 344.527 240.728 344.521Z" fill="#FFD7E6"/>
<path d="M537.953 365.09H466.004C465.478 365.09 464.957 364.986 464.472 364.784C463.986 364.582 463.545 364.287 463.173 363.914C462.801 363.541 462.506 363.099 462.305 362.612C462.104 362.125 462 361.603 462 361.076V317.006C462 315.678 462.526 314.405 463.463 313.466C464.399 312.527 465.67 312 466.994 312H535.92C537.533 312 539.079 312.642 540.219 313.785C541.359 314.928 542 316.478 542 318.094V361.076C541.999 361.607 541.893 362.132 541.689 362.621C541.484 363.11 541.186 363.554 540.809 363.927C540.433 364.3 539.987 364.595 539.497 364.794C539.007 364.994 538.482 365.094 537.953 365.09Z" fill="#6C8FD4"/>
<path opacity="0.59" d="M538.318 365.09H465.631C465.151 365.089 464.675 364.992 464.233 364.806C463.79 364.62 463.388 364.348 463.051 364.006C462.713 363.664 462.447 363.258 462.266 362.812C462.086 362.366 461.996 361.888 462 361.407V317.119C462.002 316.575 462.199 316.05 462.556 315.639C462.756 315.407 463.039 315.262 463.344 315.236C463.649 315.21 463.952 315.305 464.189 315.5L491.982 338.554L497.705 343.325C498.896 344.311 500.395 344.847 501.94 344.837C503.485 344.828 504.977 344.274 506.156 343.272L540.263 314.238C542.4 316.275 541.922 318.312 541.922 318.312V361.407C541.929 362.374 541.554 363.304 540.878 363.994C540.203 364.685 539.282 365.078 538.318 365.09Z" fill="#0A4DD0"/>
<path d="M464.459 364.689C464.283 364.689 464.111 364.635 463.966 364.534C463.821 364.433 463.71 364.291 463.648 364.126C463.585 363.96 463.575 363.78 463.617 363.608C463.66 363.437 463.754 363.282 463.886 363.165L493.051 337.152C493.223 336.995 493.449 336.912 493.681 336.923C493.914 336.934 494.132 337.036 494.289 337.208C494.445 337.38 494.527 337.608 494.517 337.84C494.506 338.073 494.404 338.292 494.232 338.449L465.041 364.463C464.882 364.608 464.674 364.688 464.459 364.689Z" fill="#6C8FD4"/>
<path d="M539.194 364.889C538.986 364.887 538.786 364.81 538.63 364.672L509.5 339.285C509.409 339.211 509.335 339.12 509.281 339.017C509.226 338.914 509.193 338.801 509.183 338.685C509.173 338.569 509.186 338.452 509.222 338.341C509.258 338.23 509.316 338.127 509.392 338.039C509.468 337.951 509.561 337.879 509.666 337.828C509.77 337.777 509.884 337.747 510 337.741C510.116 337.734 510.233 337.751 510.342 337.791C510.451 337.83 510.552 337.891 510.637 337.97L539.768 363.357C539.855 363.432 539.927 363.524 539.978 363.627C540.03 363.73 540.061 363.842 540.069 363.957C540.077 364.072 540.062 364.187 540.025 364.297C539.989 364.406 539.931 364.507 539.855 364.593C539.772 364.687 539.671 364.762 539.557 364.813C539.443 364.865 539.319 364.89 539.194 364.889Z" fill="#6C8FD4"/>
<path d="M2.34064 419.566H652.562C661.348 419.566 670.143 419.686 678.919 419.566H680.07C680.401 419.566 680.72 419.433 680.954 419.198C681.189 418.963 681.32 418.644 681.32 418.312C681.32 417.979 681.189 417.66 680.954 417.425C680.72 417.19 680.401 417.058 680.07 417.058H29.8581C21.0725 417.058 12.2769 416.928 3.49136 417.058H2.34064C2.0089 417.058 1.69076 417.19 1.45619 417.425C1.22162 417.66 1.08984 417.979 1.08984 418.312C1.08984 418.644 1.22162 418.963 1.45619 419.198C1.69076 419.433 2.0089 419.566 2.34064 419.566Z" fill="#0F110E"/>
<defs>
<clipPath id="clip0_1516_130957">
<rect width="519.919" height="194.594" fill="white" transform="translate(81.6621 63)"/>
</clipPath>
</defs>
</svg>
