<svg width="494" height="493" viewBox="0 0 494 493" fill="none" xmlns="http://www.w3.org/2000/svg">
<g clip-path="url(#clip0_1516_131374)">
<path d="M657.688 0H-92.3125V500H657.688V0Z" fill="white"/>
<path d="M48.9593 454.256C48.9593 454.256 19.3087 437.63 15 378.631C15 292 74.6289 310.087 64.1815 260.935C49.5996 192.371 78.0953 151.517 142 154.332C195.883 156.711 190.131 198.822 218.956 162.62C250.046 123.546 308.2 94.666 365.753 118.875C423.306 143.083 395.459 221.735 435.254 238.448C475.049 255.161 499.778 299.245 492.836 360.255C486.329 417.464 451.908 455.484 402.963 454.904C378.979 454.623 305.246 455.223 221.589 454.904C134.524 454.546 48.9593 454.256 48.9593 454.256Z" fill="#DEE3FF"/>
<path d="M135.832 182.466C135.832 182.466 105.491 124.437 157.283 96.4973C213.031 66.4269 255.764 122.307 242.599 168.319C229.435 214.331 151.991 212.256 135.832 182.466Z" fill="#DEE3FF"/>
<path d="M132.442 454.76C140.692 455.34 174.012 455.87 168.112 427.65C165.112 413.24 172.772 411.65 180.182 404.38C187.592 397.11 186.702 393.53 184.432 385.58C182.162 377.63 192.372 380.34 194.352 368.37C196.332 356.4 188.852 346.37 175.932 346.44C163.012 346.51 165.932 359.91 161.692 364.87C157.452 369.83 150.952 365.26 146.642 377.06C142.332 388.86 148.642 395.91 140.342 400.52C138.685 401.481 137.133 402.614 135.712 403.9" stroke="#7189FF" stroke-miterlimit="10"/>
<path d="M146.312 422.661C152.706 409.661 159.456 396.847 166.562 384.221C168.976 379.954 171.416 375.704 173.882 371.471C173.932 371.385 173.998 371.311 174.077 371.251C174.156 371.191 174.246 371.147 174.341 371.122C174.437 371.097 174.537 371.091 174.635 371.105C174.733 371.118 174.827 371.151 174.912 371.201C174.998 371.25 175.072 371.317 175.132 371.395C175.192 371.474 175.236 371.564 175.261 371.66C175.286 371.755 175.292 371.855 175.278 371.953C175.265 372.051 175.232 372.145 175.182 372.231C167.182 385.831 159.612 399.651 152.472 413.691C150.832 416.917 149.209 420.161 147.602 423.421C147.182 424.291 145.882 423.531 146.312 422.661Z" fill="#7189FF"/>
<path d="M179.312 395.63L162.842 397.34L160.472 397.59C159.472 397.69 159.472 396.19 160.472 396.09L176.942 394.38L179.312 394.13C180.312 394.03 180.262 395.53 179.312 395.63Z" fill="#7189FF"/>
<path d="M172.733 386.08C172.652 386.659 172.749 387.249 173.012 387.771C173.275 388.293 173.69 388.722 174.204 389.001C174.717 389.28 175.303 389.396 175.884 389.333C176.465 389.27 177.013 389.032 177.455 388.649C177.897 388.266 178.211 387.758 178.356 387.192C178.501 386.625 178.469 386.029 178.266 385.481C178.062 384.933 177.696 384.46 177.217 384.126C176.738 383.792 176.168 383.612 175.583 383.61C174.878 383.561 174.182 383.793 173.648 384.256C173.113 384.719 172.785 385.375 172.733 386.08Z" stroke="#7189FF" stroke-miterlimit="10"/>
<path d="M166.383 363.889C166.668 364.376 167.092 364.767 167.6 365.013C168.108 365.259 168.678 365.348 169.237 365.27C169.796 365.192 170.32 364.949 170.74 364.573C171.161 364.197 171.461 363.704 171.602 363.157C171.742 362.61 171.717 362.034 171.53 361.502C171.343 360.969 171.001 360.504 170.549 360.166C170.097 359.828 169.555 359.631 168.991 359.602C168.428 359.572 167.868 359.71 167.383 359.999C166.736 360.384 166.268 361.009 166.081 361.738C165.894 362.467 166.002 363.24 166.383 363.889Z" stroke="#7189FF" stroke-miterlimit="10"/>
<path d="M154.913 428.499C154.806 429.224 154.925 429.964 155.251 430.619C155.577 431.275 156.096 431.815 156.739 432.167C157.381 432.519 158.115 432.666 158.844 432.589C159.572 432.512 160.259 432.214 160.813 431.735C161.367 431.256 161.761 430.619 161.943 429.909C162.124 429.2 162.084 428.451 161.829 427.765C161.573 427.079 161.113 426.487 160.512 426.07C159.91 425.652 159.195 425.429 158.463 425.429C157.586 425.371 156.722 425.661 156.057 426.236C155.393 426.81 154.982 427.623 154.913 428.499Z" stroke="#7189FF" stroke-miterlimit="10"/>
<path d="M171.461 356.591C171.445 356.767 171.467 356.943 171.523 357.11C171.579 357.277 171.67 357.431 171.789 357.561C171.908 357.691 172.053 357.795 172.214 357.866C172.375 357.937 172.55 357.974 172.726 357.974C172.902 357.974 173.077 357.937 173.238 357.866C173.399 357.795 173.544 357.691 173.663 357.561C173.782 357.431 173.873 357.277 173.929 357.11C173.986 356.943 174.007 356.767 173.991 356.591C173.963 356.275 173.818 355.981 173.583 355.767C173.349 355.552 173.043 355.434 172.726 355.434C172.409 355.434 172.103 355.552 171.869 355.767C171.635 355.981 171.489 356.275 171.461 356.591Z" stroke="#7189FF" stroke-miterlimit="10"/>
<path d="M91.3309 452.02C98.1609 447.15 98.8409 416.25 70.8409 410.02C56.5409 406.83 58.8409 399.67 55.9409 390.46C53.0409 381.25 49.4309 380.58 41.2409 379.33C33.0509 378.08 39.2409 366.92 29.4909 360.46C19.7409 354 6.73091 353.51 1.87091 367.63C-2.23909 379.58 9.41095 384.85 11.791 390.41C14.171 395.97 7.25091 403.48 15.6809 411.86C24.1109 420.24 33.1309 413.93 33.2409 422.81C33.3509 431.69 37.2409 447.87 45.8509 451.2C56.4409 455.29 85.9409 455.86 91.3309 452.02Z" stroke="#7189FF" stroke-miterlimit="10"/>
<path d="M81.8106 455.501C78.0106 450.971 74.0706 446.561 70.2706 442.031C60.8573 430.851 51.6673 419.487 42.7006 407.941C36.2139 399.581 29.8406 391.131 23.5806 382.591C23.0106 381.811 24.3106 381.061 24.8706 381.831C35.3973 396.277 46.2806 410.421 57.5206 424.261C64.5273 432.927 71.6706 441.497 78.9506 449.971C80.2506 451.481 81.5906 452.971 82.8706 454.481C83.4906 455.221 82.4306 456.281 81.8106 455.541V455.501Z" fill="#7189FF"/>
<path d="M66.7919 408.5C67.4219 403.33 66.3219 400.12 66.7919 395.36C68.6819 376.22 42.2919 384.78 31.7919 360.2C21.2919 335.62 47.0119 326.7 34.9119 316.42C22.8119 306.14 19.4319 270.81 37.1519 264.73C60.1519 256.85 80.7919 271.26 83.6019 290.24C85.7619 304.88 75.9519 315.1 101.492 325.83C127.032 336.56 123.092 349.89 117.842 375.38C112.592 400.87 129.842 391.521 143.272 413.031C153.902 430.031 138.962 447.47 132.272 453.95L80.5719 454.84" stroke="#7189FF" stroke-miterlimit="10"/>
<path d="M121.752 454.001L115.412 439.421C110.199 427.474 104.982 415.554 99.762 403.661C93.0954 388.481 86.3821 373.318 79.6221 358.171C73.1021 343.551 66.5087 328.964 59.8421 314.411C55.1121 304.131 50.4021 293.821 45.2121 283.771L44.012 281.491C43.552 280.641 44.8521 279.881 45.3021 280.731C50.2521 289.971 54.602 299.551 59.012 309.051C65.602 323.261 72.0121 337.541 78.4321 351.831C85.2588 367.111 92.0387 382.408 98.772 397.721C104.285 410.221 109.769 422.734 115.222 435.261C117.792 441.161 120.522 447.031 122.942 453.001C122.942 453.091 123.012 453.171 123.042 453.251C123.422 454.121 122.132 454.891 121.752 454.001Z" fill="#7189FF"/>
<path d="M74.6523 346.371L44.2823 344.691L39.9824 344.451C38.9824 344.391 38.9824 342.891 39.9824 342.951L70.3524 344.631L74.6523 344.871C75.6523 344.921 75.6523 346.421 74.6523 346.371Z" fill="#7189FF"/>
<path d="M109.762 424.996L92.2866 422.643L89.8254 422.312C89.0973 422.216 89.0973 420.909 89.8254 421.005L107.265 423.349L109.733 423.689C110.461 423.776 110.461 425.083 109.733 424.996H109.762Z" fill="#7189FF"/>
<path d="M112.902 338.62L106.022 354.08L95.0225 378.71L92.5125 384.34C92.1125 385.22 90.8225 384.46 91.2125 383.58L98.1025 368.12L109.103 343.5L111.593 337.86C111.983 336.98 113.272 337.75 112.882 338.62H112.902Z" fill="#7189FF"/>
<path d="M62.8814 286.101C64.5814 288.591 67.5314 289.531 69.4714 288.211C71.4114 286.891 71.6214 283.791 69.9314 281.301C68.2414 278.811 65.2814 277.871 63.3414 279.191C61.4014 280.511 61.1914 283.611 62.8814 286.101Z" stroke="#7189FF" stroke-miterlimit="10"/>
<path d="M61.5915 299.56C61.5915 300.03 61.7311 300.491 61.9927 300.882C62.2542 301.273 62.6259 301.578 63.0608 301.759C63.4957 301.939 63.9742 301.986 64.4358 301.894C64.8975 301.802 65.3216 301.575 65.6545 301.243C65.9873 300.91 66.214 300.486 66.3058 300.024C66.3977 299.562 66.3505 299.084 66.1704 298.649C65.9903 298.214 65.6852 297.842 65.2938 297.581C64.9024 297.319 64.4423 297.18 63.9715 297.18C63.3403 297.18 62.735 297.43 62.2886 297.877C61.8423 298.323 61.5915 298.928 61.5915 299.56Z" stroke="#7189FF" stroke-miterlimit="10"/>
<path d="M44.3631 361.03C44.3631 361.946 44.6346 362.841 45.1433 363.603C45.6521 364.364 46.3752 364.958 47.2212 365.308C48.0672 365.658 48.9982 365.75 49.8963 365.571C50.7945 365.393 51.6194 364.952 52.2669 364.304C52.9145 363.657 53.3554 362.832 53.5341 361.934C53.7127 361.036 53.621 360.105 53.2706 359.259C52.9202 358.413 52.3267 357.689 51.5653 357.181C50.8039 356.672 49.9088 356.4 48.9931 356.4C47.7651 356.4 46.5874 356.888 45.7191 357.757C44.8508 358.625 44.3631 359.802 44.3631 361.03Z" stroke="#7189FF" stroke-miterlimit="10"/>
<path d="M277.953 455.01C279.273 450.26 279.313 445.01 279.903 440.5C281.173 430.8 295.213 438.79 304.243 428.19C313.273 417.59 299.663 409.52 307.853 406.19C316.043 402.86 321.603 387.63 312.933 380.42C302.213 371.5 287.183 377.42 283.233 386.34C280.233 393.23 284.553 399.67 268.623 401.34C252.693 403.01 253.313 410.1 253.173 423.4C253.033 436.7 244.323 429.63 234.003 438.31C228.153 443.22 229.763 450.09 232.253 455.13" stroke="#7189FF" stroke-miterlimit="10"/>
<path d="M246.463 455.96C254.276 446.927 262.116 437.927 269.983 428.96C278.983 418.74 287.933 408.53 297.113 398.5C300.393 394.91 303.663 391.3 307.113 387.91C307.813 387.24 306.753 386.18 306.053 386.85C298.623 394.05 291.833 401.98 284.953 409.7C275.62 420.167 266.353 430.707 257.153 441.32C253.213 445.84 249.283 450.367 245.363 454.9C244.733 455.62 245.793 456.69 246.423 455.96H246.463Z" fill="#7189FF"/>
<path d="M281.333 415.58L298.863 419.08L301.393 419.59C302.333 419.78 302.733 418.33 301.793 418.14L284.263 414.64L281.733 414.13C280.793 413.94 280.393 415.39 281.333 415.58Z" fill="#7189FF"/>
<path d="M260.224 406.049L265.474 428.239L266.234 431.469C266.454 432.409 267.904 432.009 267.684 431.069L262.434 408.879L261.664 405.649C261.444 404.709 259.994 405.109 260.224 406.049Z" fill="#7189FF"/>
<path d="M295.563 387.23C295.007 387.701 294.308 387.967 293.58 387.985C292.853 388.004 292.141 387.772 291.563 387.33C290.613 386.4 290.883 384.85 292.153 383.86C292.709 383.391 293.409 383.127 294.137 383.11C294.864 383.094 295.576 383.327 296.153 383.77C297.133 384.7 296.863 386.25 295.563 387.23Z" stroke="#7189FF" stroke-miterlimit="10"/>
<path d="M296.952 426.78C296.896 427.34 296.671 427.87 296.306 428.298C295.941 428.727 295.453 429.033 294.909 429.177C294.365 429.32 293.789 429.294 293.26 429.101C292.731 428.909 292.274 428.559 291.95 428.099C291.625 427.638 291.449 427.09 291.445 426.527C291.441 425.964 291.61 425.414 291.928 424.949C292.246 424.484 292.698 424.128 293.225 423.928C293.751 423.728 294.326 423.694 294.872 423.83C295.538 423.947 296.131 424.323 296.52 424.876C296.91 425.429 297.065 426.113 296.952 426.78Z" stroke="#7189FF" stroke-miterlimit="10"/>
<path fill-rule="evenodd" clip-rule="evenodd" d="M438.346 60.66C439.667 61.3516 440.892 62.2158 441.986 63.23L445.876 61.84L449.536 67.61L446.626 70.58C447.07 72.0037 447.326 73.4797 447.386 74.97L451.116 76.74L449.616 83.4H445.496C444.804 84.7219 443.94 85.9459 442.926 87.04L444.316 90.93L438.546 94.58L435.616 91.67C434.192 92.1148 432.716 92.3704 431.226 92.43L429.456 96.16L422.786 94.66V90.54C421.462 89.8461 420.235 88.9821 419.136 87.97L415.246 89.36L411.596 83.58L414.506 80.65C414.061 79.2264 413.805 77.7503 413.746 76.26L410.016 74.49L411.516 67.83H415.686C416.377 66.5081 417.241 65.2841 418.256 64.19L416.866 60.29L422.586 56.58L425.516 59.49C426.939 59.0452 428.415 58.7896 429.906 58.73L431.676 55L438.336 56.5V60.62L438.346 60.66ZM432.476 68.51C431.061 68.1908 429.583 68.2984 428.23 68.8194C426.876 69.3403 425.707 70.251 424.872 71.4363C424.036 72.6216 423.571 74.0282 423.535 75.4781C423.499 76.928 423.893 78.356 424.669 79.5813C425.445 80.8067 426.567 81.7744 427.893 82.3619C429.219 82.9494 430.689 83.1304 432.118 82.8818C433.547 82.6333 434.87 81.9665 435.92 80.9658C436.97 79.965 437.699 78.6754 438.016 77.26C438.439 75.3652 438.094 73.3796 437.055 71.7392C436.017 70.0987 434.37 68.9373 432.476 68.51Z" fill="#F2718D"/>
<path fill-rule="evenodd" clip-rule="evenodd" d="M78.76 166.72C79.8695 167.304 80.8982 168.03 81.82 168.88L85.08 167.71L88.15 172.56L85.7 175.01C86.0834 176.205 86.3021 177.446 86.35 178.7L89.48 180.18L88.24 185.78H84.78C84.1983 186.888 83.472 187.914 82.62 188.83L83.78 192.1L78.94 195.17L76.48 192.72C75.2887 193.103 74.0505 193.322 72.8 193.37L71.31 196.5L65.72 195.24V191.78C64.6105 191.196 63.5818 190.47 62.66 189.62L59.4 190.78L56.33 185.94L58.77 183.48C58.3947 182.287 58.1794 181.05 58.13 179.8L55 178.31L56.26 172.72H59.72C60.304 171.61 61.0301 170.582 61.88 169.66L60.71 166.4L65.56 163.33L68.01 165.77C69.2064 165.395 70.4472 165.179 71.7 165.13L73.18 162L78.78 163.26V166.72H78.76ZM73.83 173.31C72.6433 173.043 71.4041 173.134 70.269 173.571C69.134 174.008 68.1541 174.772 67.4533 175.767C66.7525 176.761 66.3623 177.94 66.3319 179.156C66.3015 180.372 66.6325 181.57 67.2828 182.598C67.9331 183.626 68.8736 184.438 69.9854 184.931C71.0972 185.425 72.3303 185.577 73.5289 185.37C74.7274 185.162 75.8375 184.604 76.7188 183.766C77.6001 182.928 78.213 181.847 78.48 180.66C78.6586 179.872 78.68 179.056 78.5428 178.26C78.4057 177.464 78.1127 176.703 77.6807 176.02C77.2487 175.337 76.6862 174.746 76.0255 174.281C75.3647 173.816 74.6186 173.486 73.83 173.31Z" fill="#EC4E70"/>
<path d="M3.05817 455.959H471.139C477.463 455.959 483.787 456.051 490.11 455.959H490.95C491.229 455.959 491.496 455.858 491.692 455.678C491.889 455.497 492 455.253 492 454.998C492 454.743 491.889 454.499 491.692 454.319C491.496 454.139 491.229 454.038 490.95 454.038H22.8695C16.5456 454.038 10.2134 453.953 3.88959 454.038H3.04977C2.77136 454.038 2.50434 454.139 2.30747 454.319C2.1106 454.499 2 454.743 2 454.998C2 455.253 2.1106 455.497 2.30747 455.678C2.50434 455.858 2.77136 455.959 3.04977 455.959H3.05817Z" fill="#0F0D1D"/>
<path d="M357 288.641H103.81C102.004 288.641 100.272 287.923 98.9946 286.646C97.7175 285.369 97 283.637 97 281.831V73.1909C97 71.3847 97.7175 69.6526 98.9946 68.3755C100.272 67.0983 102.004 66.3809 103.81 66.3809H389.57C391.376 66.3809 393.108 67.0983 394.385 68.3755C395.662 69.6526 396.38 71.3847 396.38 73.1909V281.83C396.38 283.636 395.093 285.368 393.815 286.645C392.869 287.592 391.673 288.231 390.383 288.498" stroke="#F2718D" stroke-miterlimit="10"/>
<path d="M396.383 71.3127V86H97.3828V71.3127C97.3828 68.3806 99.8918 66 102.994 66H390.772C393.882 66 396.383 68.3806 396.383 71.3127Z" fill="white" stroke="#E54985" stroke-miterlimit="10"/>
<path d="M136.59 139.5H357.55C363.36 139.5 368.07 144.21 368.07 150.02V156.98C368.07 162.79 363.36 167.5 357.55 167.5H136.59C130.78 167.5 126.07 162.79 126.07 156.98V150.02C126.07 144.21 130.78 139.5 136.59 139.5Z" fill="white" stroke="#F2718D"/>
<path d="M357.55 192H136.59C130.504 192 125.57 196.934 125.57 203.02V233.98C125.57 240.066 130.504 245 136.59 245H357.55C363.636 245 368.57 240.066 368.57 233.98V203.02C368.57 196.934 363.636 192 357.55 192Z" stroke="#F2718D" stroke-miterlimit="10"/>
<path d="M137.918 101.084V103.991H133.971V115.98H130.343V103.991H126.396V101.084H137.918ZM147.018 104.013C148.376 104.013 149.465 104.465 150.286 105.371C151.106 106.262 151.516 107.493 151.516 109.063V115.98H147.909V109.551C147.909 108.759 147.704 108.143 147.294 107.705C146.883 107.266 146.332 107.047 145.638 107.047C144.945 107.047 144.394 107.266 143.983 107.705C143.573 108.143 143.368 108.759 143.368 109.551V115.98H139.739V100.278H143.368V105.731C143.736 105.208 144.238 104.791 144.875 104.479C145.511 104.168 146.226 104.013 147.018 104.013ZM165.199 109.869C165.199 110.209 165.178 110.562 165.136 110.93H156.924C156.98 111.666 157.214 112.232 157.624 112.628C158.048 113.01 158.565 113.201 159.173 113.201C160.078 113.201 160.708 112.819 161.062 112.055H164.924C164.726 112.833 164.365 113.533 163.841 114.156C163.332 114.778 162.688 115.266 161.91 115.62C161.132 115.973 160.262 116.15 159.3 116.15C158.14 116.15 157.108 115.903 156.202 115.408C155.297 114.912 154.59 114.205 154.08 113.286C153.571 112.366 153.316 111.291 153.316 110.06C153.316 108.829 153.564 107.754 154.059 106.835C154.568 105.915 155.276 105.208 156.181 104.713C157.086 104.218 158.126 103.97 159.3 103.97C160.446 103.97 161.465 104.211 162.356 104.692C163.247 105.173 163.94 105.859 164.436 106.75C164.945 107.641 165.199 108.681 165.199 109.869ZM161.486 108.914C161.486 108.292 161.274 107.797 160.849 107.429C160.425 107.061 159.894 106.877 159.258 106.877C158.65 106.877 158.133 107.054 157.709 107.408C157.299 107.761 157.044 108.264 156.945 108.914H161.486ZM179.207 115.98L176.109 110.357H175.239V115.98H171.61V101.084H177.7C178.875 101.084 179.872 101.289 180.692 101.7C181.527 102.11 182.15 102.676 182.56 103.397C182.97 104.104 183.175 104.897 183.175 105.774C183.175 106.764 182.892 107.648 182.326 108.426C181.775 109.204 180.954 109.756 179.865 110.081L183.303 115.98H179.207ZM175.239 107.79H177.488C178.153 107.79 178.648 107.627 178.974 107.302C179.313 106.976 179.483 106.516 179.483 105.922C179.483 105.356 179.313 104.911 178.974 104.585C178.648 104.26 178.153 104.097 177.488 104.097H175.239V107.79ZM196.615 109.869C196.615 110.209 196.593 110.562 196.551 110.93H188.339C188.395 111.666 188.629 112.232 189.039 112.628C189.464 113.01 189.98 113.201 190.588 113.201C191.494 113.201 192.123 112.819 192.477 112.055H196.339C196.141 112.833 195.78 113.533 195.257 114.156C194.747 114.778 194.104 115.266 193.326 115.62C192.547 115.973 191.677 116.15 190.715 116.15C189.555 116.15 188.523 115.903 187.617 115.408C186.712 114.912 186.005 114.205 185.495 113.286C184.986 112.366 184.732 111.291 184.732 110.06C184.732 108.829 184.979 107.754 185.474 106.835C185.983 105.915 186.691 105.208 187.596 104.713C188.502 104.218 189.541 103.97 190.715 103.97C191.861 103.97 192.88 104.211 193.771 104.692C194.662 105.173 195.356 105.859 195.851 106.75C196.36 107.641 196.615 108.681 196.615 109.869ZM192.901 108.914C192.901 108.292 192.689 107.797 192.265 107.429C191.84 107.061 191.31 106.877 190.673 106.877C190.065 106.877 189.548 107.054 189.124 107.408C188.714 107.761 188.459 108.264 188.36 108.914H192.901ZM202.157 105.816C202.511 105.265 202.999 104.819 203.622 104.479C204.244 104.14 204.973 103.97 205.807 103.97C206.783 103.97 207.667 104.218 208.46 104.713C209.252 105.208 209.874 105.915 210.327 106.835C210.794 107.754 211.027 108.822 211.027 110.039C211.027 111.256 210.794 112.331 210.327 113.264C209.874 114.184 209.252 114.898 208.46 115.408C207.667 115.903 206.783 116.15 205.807 116.15C204.987 116.15 204.258 115.98 203.622 115.641C202.999 115.301 202.511 114.863 202.157 114.325V121.625H198.529V104.14H202.157V105.816ZM207.335 110.039C207.335 109.134 207.08 108.426 206.571 107.917C206.076 107.394 205.461 107.132 204.725 107.132C204.004 107.132 203.388 107.394 202.879 107.917C202.384 108.44 202.136 109.155 202.136 110.06C202.136 110.966 202.384 111.68 202.879 112.203C203.388 112.727 204.004 112.988 204.725 112.988C205.446 112.988 206.062 112.727 206.571 112.203C207.08 111.666 207.335 110.944 207.335 110.039ZM218.321 116.15C217.161 116.15 216.114 115.903 215.18 115.408C214.261 114.912 213.532 114.205 212.995 113.286C212.471 112.366 212.209 111.291 212.209 110.06C212.209 108.844 212.478 107.776 213.016 106.856C213.553 105.922 214.289 105.208 215.223 104.713C216.156 104.218 217.203 103.97 218.363 103.97C219.523 103.97 220.57 104.218 221.504 104.713C222.437 105.208 223.173 105.922 223.711 106.856C224.248 107.776 224.517 108.844 224.517 110.06C224.517 111.277 224.241 112.352 223.689 113.286C223.152 114.205 222.409 114.912 221.461 115.408C220.528 115.903 219.481 116.15 218.321 116.15ZM218.321 113.01C219.014 113.01 219.601 112.755 220.082 112.246C220.577 111.737 220.825 111.008 220.825 110.06C220.825 109.112 220.584 108.384 220.103 107.875C219.636 107.365 219.056 107.111 218.363 107.111C217.656 107.111 217.069 107.365 216.602 107.875C216.135 108.37 215.902 109.098 215.902 110.06C215.902 111.008 216.128 111.737 216.581 112.246C217.048 112.755 217.628 113.01 218.321 113.01ZM230.07 106.113C230.495 105.463 231.025 104.953 231.662 104.585C232.299 104.204 233.006 104.013 233.784 104.013V107.853H232.787C231.881 107.853 231.202 108.051 230.749 108.447C230.297 108.829 230.07 109.508 230.07 110.485V115.98H226.442V104.14H230.07V106.113ZM242.118 112.904V115.98H240.272C238.956 115.98 237.93 115.662 237.195 115.026C236.459 114.375 236.091 113.321 236.091 111.864V107.153H234.648V104.14H236.091V101.254H239.72V104.14H242.096V107.153H239.72V111.906C239.72 112.26 239.805 112.515 239.974 112.67C240.144 112.826 240.427 112.904 240.823 112.904H242.118ZM248.956 116.15C247.923 116.15 247.003 115.973 246.197 115.62C245.391 115.266 244.754 114.785 244.287 114.177C243.821 113.554 243.559 112.861 243.502 112.097H247.088C247.131 112.508 247.322 112.84 247.661 113.095C248.001 113.349 248.418 113.477 248.913 113.477C249.366 113.477 249.713 113.392 249.953 113.222C250.208 113.038 250.335 112.805 250.335 112.522C250.335 112.182 250.158 111.935 249.804 111.779C249.451 111.609 248.878 111.425 248.086 111.227C247.237 111.029 246.53 110.824 245.964 110.612C245.398 110.386 244.91 110.039 244.5 109.572C244.089 109.091 243.884 108.447 243.884 107.641C243.884 106.962 244.068 106.347 244.436 105.795C244.818 105.229 245.37 104.784 246.091 104.458C246.827 104.133 247.697 103.97 248.701 103.97C250.186 103.97 251.354 104.338 252.202 105.074C253.065 105.809 253.56 106.785 253.688 108.002H250.335C250.278 107.592 250.094 107.266 249.783 107.026C249.486 106.785 249.09 106.665 248.595 106.665C248.171 106.665 247.845 106.75 247.619 106.92C247.392 107.075 247.279 107.295 247.279 107.577C247.279 107.917 247.456 108.172 247.81 108.341C248.178 108.511 248.743 108.681 249.507 108.851C250.384 109.077 251.099 109.303 251.651 109.53C252.202 109.742 252.683 110.096 253.094 110.591C253.518 111.072 253.737 111.722 253.751 112.543C253.751 113.236 253.553 113.858 253.157 114.41C252.775 114.948 252.216 115.372 251.481 115.683C250.759 115.995 249.918 116.15 248.956 116.15Z" fill="#29333D"/>
<path d="M300.218 181.762L282.551 168.748C281.775 168.915 280.972 168.914 280.197 168.743C279.421 168.572 278.692 168.237 278.058 167.759C275.919 166.127 274.758 163.974 275.491 162.666C276.223 161.359 276.782 161.42 276.782 161.42C276.782 161.42 277.337 161.15 277.24 160.208C277.143 159.266 278.442 158.136 278.442 158.136L279.225 157.971C279.225 157.971 279.521 157.879 279.475 156.911C279.429 155.943 280.874 154.777 280.874 154.777L281.555 154.566C281.555 154.566 276.583 149.072 275.784 146.915C274.985 144.758 276.352 142.428 279.225 144.274C282.099 146.12 286.974 151.683 286.974 151.683C287.737 151.218 288.623 150.995 289.515 151.044C290.407 151.093 291.263 151.41 291.971 151.955C294.621 153.841 303.933 161.981 303.933 161.981L309.73 168.927L300.218 181.762Z" fill="#DE9C80"/>
<path d="M290.252 155.554C290.252 155.554 288.073 158.715 285.679 159.577C283.286 160.44 281.799 158.378 282.863 156.526C283.927 154.673 286.976 150.456 289.581 150.745C292.186 151.035 305.778 162.636 308.435 167.386" stroke="#9E6050" stroke-width="0.75" stroke-miterlimit="10" stroke-linecap="round"/>
<path d="M287.976 158.598C288.425 158.967 288.732 159.48 288.845 160.05C288.958 160.62 288.87 161.212 288.596 161.724C287.581 163.483 285.466 162.874 283.12 161.394C280.773 159.915 278.804 157.503 279.776 155.767C279.962 155.464 280.208 155.203 280.501 155.001C280.793 154.798 281.124 154.659 281.473 154.592C281.822 154.525 282.181 154.532 282.528 154.612C282.874 154.692 283.2 154.843 283.485 155.056" stroke="#9E6050" stroke-width="0.75" stroke-miterlimit="10" stroke-linecap="round"/>
<path d="M285.922 162.851C286.264 163.391 286.382 164.044 286.25 164.669C286.118 165.295 285.748 165.845 285.217 166.202C283.283 167.658 280.067 165.437 278.735 163.652C277.403 161.867 276.47 159.879 277.88 158.538C279.029 157.434 279.871 158.085 279.871 158.085" stroke="#9E6050" stroke-width="0.75" stroke-miterlimit="10" stroke-linecap="round"/>
<path d="M283.361 166.907C283.361 166.907 283.818 168.375 281.964 168.981C280.109 169.587 275.903 167.027 275.382 164.626C274.861 162.226 276.405 161.127 277.155 161.267" stroke="#9E6050" stroke-width="0.75" stroke-miterlimit="10" stroke-linecap="round"/>
<path d="M415.292 381.038L433.629 401.461L451.502 389.963L432.813 367.049L415.292 381.038Z" fill="white" stroke="#0A4DD0" stroke-miterlimit="10"/>
<path d="M417.865 378.986L437.086 399.409" stroke="#0A4DD0" stroke-miterlimit="10"/>
<path d="M421.674 375.962L440.906 396.385" stroke="#0A4DD0" stroke-miterlimit="10"/>
<path d="M424.926 372.723L443.898 394.075" stroke="#0A4DD0" stroke-miterlimit="10"/>
<path d="M428.337 370.265L447.479 391.776" stroke="#0A4DD0" stroke-miterlimit="10"/>
<path d="M426.32 454.007L477.184 409.638L449.802 380.562L427.34 402.967L436.86 415.359L426.32 454.007Z" fill="#130047"/>
<path d="M430.163 428.293L439.377 432.54" stroke="white" stroke-miterlimit="10"/>
<path d="M432.622 421.656L441.824 425.903" stroke="white" stroke-miterlimit="10"/>
<path d="M435.24 417.532C435.24 417.532 417.504 423.637 416.416 418.042C414.659 409.048 435.24 417.532 435.24 417.532Z" stroke="white" stroke-miterlimit="10"/>
<path d="M421.288 407.464L435.795 417.454" stroke="white" stroke-miterlimit="10"/>
<path d="M443.456 411.678C444.532 412.877 445.94 413.731 447.501 414.13C449.063 414.53 450.708 414.458 452.228 413.923C453.749 413.388 455.076 412.415 456.043 411.126C457.01 409.837 457.573 408.29 457.66 406.681C457.747 405.073 457.355 403.474 456.533 402.089C455.711 400.703 454.497 399.591 453.043 398.896C451.589 398.2 449.962 397.95 448.366 398.179C446.771 398.408 445.279 399.104 444.079 400.181C442.472 401.623 441.503 403.644 441.386 405.8C441.27 407.956 442.014 410.07 443.456 411.678Z" fill="#F2718D"/>
<path d="M410.227 395.038L443.898 367.049L420.892 318.489L408.493 251.976L365.687 257.594L376.816 338.3L410.227 395.038Z" fill="#F2718D" stroke="white" stroke-miterlimit="10"/>
<path d="M367.148 392.727L367.16 420.162L388.138 423.537L389.543 394.007L367.148 392.727Z" fill="white" stroke="#0A4DD0" stroke-miterlimit="10"/>
<path d="M370.446 392.909L371.092 420.943" stroke="#0A4DD0" stroke-miterlimit="10"/>
<path d="M375.309 393.203L375.955 421.238" stroke="#0A4DD0" stroke-miterlimit="10"/>
<path d="M379.887 392.953L379.739 421.52" stroke="#0A4DD0" stroke-miterlimit="10"/>
<path d="M384.068 393.406L383.932 422.2" stroke="#0A4DD0" stroke-miterlimit="10"/>
<path d="M326.598 454.38L394.1 455.332L393.159 415.415L361.46 417.08L360.258 432.655L326.598 454.38Z" fill="#130047"/>
<path d="M346.635 437.819L350.658 447.119" stroke="white" stroke-miterlimit="10"/>
<path d="M352.902 434.512L356.914 443.823" stroke="white" stroke-miterlimit="10"/>
<path d="M357.605 433.199C357.605 433.199 340.322 425.893 343.246 421.011C347.961 413.139 357.605 433.199 357.605 433.199Z" stroke="white" stroke-miterlimit="10"/>
<path d="M353.956 416.388L358.07 433.515" stroke="white" stroke-miterlimit="10"/>
<path d="M367.636 434.331C367.636 435.942 368.114 437.516 369.01 438.855C369.905 440.195 371.178 441.239 372.667 441.855C374.156 442.471 375.794 442.633 377.375 442.318C378.955 442.004 380.407 441.229 381.547 440.09C382.687 438.951 383.463 437.499 383.777 435.92C384.091 434.34 383.93 432.702 383.313 431.214C382.697 429.726 381.652 428.454 380.312 427.559C378.972 426.664 377.397 426.187 375.785 426.187C373.624 426.187 371.551 427.045 370.023 428.572C368.495 430.099 367.636 432.171 367.636 434.331Z" fill="#F2718D"/>
<path d="M410.26 255.329L399.776 403.488H355.112L347.156 253.029L410.26 255.329Z" fill="#F2718D" stroke="white" stroke-miterlimit="10"/>
<path d="M383.832 280.667C379.196 281.608 374.379 280.966 370.152 278.843C364.871 276.045 362.752 270.37 362.038 264.741C361.734 262.67 361.684 260.571 361.89 258.488C362.015 257.412 363.715 257.356 363.59 258.488C363.166 262.496 363.674 266.547 365.075 270.325C365.918 272.86 367.545 275.062 369.722 276.612C372.332 278.264 375.337 279.191 378.426 279.296C380.081 279.41 381.745 279.319 383.378 279.024C384.455 278.809 384.908 280.44 383.832 280.667Z" fill="white"/>
<path d="M297.629 181.86L309.62 165.153L343.813 176.967L375.059 142.238L392.059 196.517C376.362 213.032 350.431 225.572 339.789 222.253C327.515 218.424 303.341 188.702 303.341 188.702L297.629 181.86Z" fill="#0A4DD0" stroke="white" stroke-miterlimit="10"/>
<path d="M317.895 168.573L303.388 188.701C299.875 184.714 297.631 181.905 297.631 181.905L309.621 165.197L317.895 168.573Z" fill="#7BA7FE" stroke="white" stroke-miterlimit="10"/>
<path d="M308.205 166.932L315.945 171.293" stroke="white" stroke-miterlimit="10"/>
<path d="M305.994 170.204L313.236 175.04" stroke="white" stroke-miterlimit="10"/>
<path d="M303.5 173.682L310.516 178.824" stroke="white" stroke-miterlimit="10"/>
<path d="M301.245 176.978L307.807 182.562" stroke="white" stroke-miterlimit="10"/>
<path d="M299.421 179.367L305.723 185.461" stroke="white" stroke-miterlimit="10"/>
<path d="M353.299 170.634L356.721 171.223L360.133 171.812L358.931 168.561L357.73 165.31L355.52 167.972L353.299 170.634Z" stroke="white" stroke-width="0.5" stroke-miterlimit="10"/>
<path d="M355.735 183.798L359.203 183.888L362.66 183.979L361.017 180.932L359.362 177.896L357.549 180.841L355.735 183.798Z" stroke="white" stroke-width="0.5" stroke-miterlimit="10"/>
<path d="M340.232 218.73L343.688 218.821L347.156 218.923L345.502 215.876L343.858 212.829L342.045 215.785L340.232 218.73Z" stroke="#F2718D" stroke-width="0.5" stroke-miterlimit="10"/>
<path d="M330.168 205.318L328.513 208.365L326.859 211.401L330.315 211.321L333.783 211.231L331.981 208.274L330.168 205.318Z" stroke="#F2718D" stroke-width="0.5" stroke-miterlimit="10"/>
<path d="M319.028 196.461L321.929 198.341L324.842 200.233L325.012 196.778L325.193 193.312L322.111 194.886L319.028 196.461Z" stroke="#F2718D" stroke-width="0.5" stroke-miterlimit="10"/>
<path d="M339.472 186.526L340.526 189.823L341.58 193.13L343.915 190.57L346.238 188.01L342.861 187.263L339.472 186.526Z" stroke="#F2718D" stroke-width="0.5" stroke-miterlimit="10"/>
<path d="M331.947 174.938L331.517 178.37L331.086 181.814L334.282 180.466L337.467 179.118L334.713 177.034L331.947 174.938Z" stroke="#F2718D" stroke-width="0.5" stroke-miterlimit="10"/>
<path d="M349.186 175.641L347.814 178.824L346.432 181.996L349.877 181.6L353.322 181.203L351.26 178.428L349.186 175.641Z" stroke="#F2718D" stroke-width="0.5" stroke-miterlimit="10"/>
<path d="M307.183 190.13L310.515 191.104L313.836 192.067L313.009 188.703L312.181 185.338L309.688 187.74L307.183 190.13Z" stroke="#F2718D" stroke-width="0.5" stroke-miterlimit="10"/>
<path d="M362.48 162.694L365.948 162.785L369.416 162.875L367.761 159.828L366.107 156.793L364.293 159.738L362.48 162.694Z" stroke="#F2718D" stroke-width="0.5" stroke-miterlimit="10"/>
<path d="M344.958 249.131L346.092 256.335C346.212 257.352 346.66 258.303 347.367 259.044C348.074 259.786 349.002 260.278 350.013 260.447C359.961 261.779 369.977 262.536 380.012 262.712C390.994 262.712 403.812 261.047 409.422 259.416C410.377 259.158 411.235 258.625 411.89 257.884C412.544 257.143 412.967 256.227 413.106 255.248L413.899 249.516C414.027 248.842 414.011 248.148 413.852 247.48C413.693 246.812 413.394 246.186 412.976 245.641C412.557 245.097 412.028 244.647 411.424 244.321C410.819 243.995 410.153 243.801 409.468 243.751L349.401 243.309C346.613 243.252 344.471 246.073 344.958 249.131Z" fill="#7BA7FE" stroke="white" stroke-miterlimit="10"/>
<path d="M409.445 259.383L408.969 243.718" stroke="white" stroke-miterlimit="10"/>
<path d="M404.287 260.538L403.822 243.718" stroke="white" stroke-miterlimit="10"/>
<path d="M399.777 261.251L399.075 243.649" stroke="white" stroke-miterlimit="10"/>
<path d="M393.679 243.649L394.473 261.897" stroke="white" stroke-miterlimit="10"/>
<path d="M387.015 243.558L387.639 262.407" stroke="white" stroke-miterlimit="10"/>
<path d="M381.123 262.407L380.738 243.514" stroke="white" stroke-miterlimit="10"/>
<path d="M375.059 243.468V262.599" stroke="white" stroke-miterlimit="10"/>
<path d="M368.734 243.275V262.282" stroke="white" stroke-miterlimit="10"/>
<path d="M363.34 243.275L363.521 261.897" stroke="white" stroke-miterlimit="10"/>
<path d="M358.219 243.275L358.74 261.455" stroke="white" stroke-miterlimit="10"/>
<path d="M352.959 243.275L353.82 260.911" stroke="white" stroke-miterlimit="10"/>
<path d="M350.023 260.458L348.493 243.275" stroke="white" stroke-miterlimit="10"/>
<path d="M348.074 250.491C345.943 249.438 343.79 248.033 343.812 246.176C344.515 188.407 360.11 142.238 379.252 142.238C398.394 142.238 413.977 188.407 414.68 246.176C414.17 248.362 412.617 249.574 410.418 250.491C396.048 256.506 362.048 257.401 348.074 250.491Z" fill="#0A4DD0" stroke="white" stroke-miterlimit="10"/>
<path d="M368.702 164.824L370.685 167.656L372.657 170.499L374.13 167.361L375.604 164.224L372.147 164.518L368.702 164.824Z" stroke="#F2718D" stroke-width="0.5" stroke-miterlimit="10"/>
<path d="M357.391 172.695L359.374 175.539L361.358 178.37L362.82 175.244L364.293 172.106L360.848 172.401L357.391 172.695Z" stroke="#F2718D" stroke-width="0.5" stroke-miterlimit="10"/>
<path d="M378.232 178.303L377.835 181.747L377.427 185.179L380.612 183.808L383.785 182.438L381.008 180.376L378.232 178.303Z" stroke="#F2718D" stroke-width="0.5" stroke-miterlimit="10"/>
<path d="M388.897 188.951L391.73 190.933L394.575 192.927L394.87 189.472L395.176 186.028L392.036 187.49L388.897 188.951Z" stroke="#F2718D" stroke-width="0.5" stroke-miterlimit="10"/>
<path d="M352.529 194.059L355.941 193.493L359.363 192.926L357.165 190.253L354.966 187.568L353.742 190.819L352.529 194.059Z" stroke="#F2718D" stroke-width="0.5" stroke-miterlimit="10"/>
<path d="M376.171 198.704L379.049 200.629L381.917 202.555L382.155 199.111L382.393 195.657L379.276 197.174L376.171 198.704Z" stroke="#F2718D" stroke-width="0.5" stroke-miterlimit="10"/>
<path d="M391.516 202.316L392.728 205.555L393.941 208.795L396.14 206.122L398.35 203.46L394.927 202.882L391.516 202.316Z" stroke="#F2718D" stroke-width="0.5" stroke-miterlimit="10"/>
<path d="M361.131 201.933L363.93 203.971L366.73 205.999L367.092 202.556L367.455 199.123L364.293 200.528L361.131 201.933Z" stroke="#F2718D" stroke-width="0.5" stroke-miterlimit="10"/>
<path d="M377.779 213.032L376.94 216.397L376.09 219.749L379.433 218.798L382.754 217.846L380.272 215.445L377.779 213.032Z" stroke="#F2718D" stroke-width="0.5" stroke-miterlimit="10"/>
<path d="M391.73 214.38L391.583 217.834L391.435 221.289L394.507 219.692L397.578 218.084L394.654 216.226L391.73 214.38Z" stroke="#F2718D" stroke-width="0.5" stroke-miterlimit="10"/>
<path d="M388.218 236.786L387.379 240.15L386.541 243.503L389.873 242.563L393.193 241.612L390.711 239.199L388.218 236.786Z" stroke="#F2718D" stroke-width="0.5" stroke-miterlimit="10"/>
<path d="M401.431 244.16L401.771 247.603L402.1 251.058L404.922 249.042L407.744 247.026L404.582 245.599L401.431 244.16Z" stroke="#F2718D" stroke-width="0.5" stroke-miterlimit="10"/>
<path d="M385.349 248.418L385.1 251.873L384.851 255.328L387.967 253.822L391.084 252.304L388.217 250.367L385.349 248.418Z" stroke="#F2718D" stroke-width="0.5" stroke-miterlimit="10"/>
<path d="M365.301 220.859L362.899 223.351L360.496 225.843L363.851 226.682L367.217 227.52L366.265 224.19L365.301 220.859Z" stroke="#F2718D" stroke-width="0.5" stroke-miterlimit="10"/>
<path d="M349.876 210.71L351.621 213.701L353.367 216.691L355.078 213.689L356.801 210.676L353.344 210.699L349.876 210.71Z" stroke="#F2718D" stroke-width="0.5" stroke-miterlimit="10"/>
<path d="M363.828 190.504L367.148 191.478L370.48 192.441L369.653 189.076L368.826 185.712L366.321 188.114L363.828 190.504Z" stroke="#F2718D" stroke-width="0.5" stroke-miterlimit="10"/>
<path d="M365.823 153.667L369.28 153.791L372.736 153.927L371.116 150.869L369.506 147.799L367.659 150.733L365.823 153.667Z" stroke="#F2718D" stroke-width="0.5" stroke-miterlimit="10"/>
<path d="M396.174 238.349C396.174 238.349 360.088 247.818 352.801 245.292C346.692 243.174 364.61 240.852 364.61 240.852C364.61 240.852 352.008 243.729 350.818 241.237C349.628 238.745 364.134 237.023 364.134 237.023C364.134 237.023 349.401 239.447 349.095 237.148C348.789 234.848 363.828 233.274 363.828 233.274C363.828 233.274 348.914 235.913 348.449 233.274C347.984 230.635 363.341 229.072 363.341 229.072C363.341 229.072 353.696 228.868 354.274 226.806C354.852 224.745 374.346 226.047 389.657 221.584C404.968 217.121 396.174 238.349 396.174 238.349Z" fill="#DE9C80"/>
<path d="M362.853 233.864C359.461 234.572 356.004 234.921 352.539 234.906C351.349 234.906 348.187 234.906 348.074 233.127C347.972 231.666 349.978 230.964 351.043 230.601C353.324 229.882 355.67 229.385 358.047 229.117C359.645 228.902 361.255 228.71 362.864 228.585V229.435C361.606 229.435 360.348 229.31 359.101 229.197C357.546 229.188 356.007 228.88 354.568 228.291C353.435 227.656 353.287 226.524 354.511 225.912C356.064 225.13 358.172 225.198 359.883 225.062C364.043 224.711 368.191 224.485 372.35 224.247C375.94 223.913 379.505 223.357 383.026 222.582C386.426 221.947 389.894 221.358 393.226 220.475C393.332 220.456 393.441 220.477 393.532 220.535C393.623 220.592 393.689 220.681 393.717 220.785C393.746 220.888 393.734 220.999 393.685 221.095C393.636 221.19 393.553 221.264 393.453 221.302C387.514 222.767 381.498 223.902 375.433 224.7C372.565 225.108 369.698 225.153 366.819 225.345C364.768 225.481 362.717 225.64 360.665 225.81C358.91 225.826 357.163 226.031 355.452 226.422C354.727 226.648 354.239 227.067 355.033 227.554C355.37 227.711 355.729 227.818 356.098 227.871C357.081 228.077 358.077 228.221 359.079 228.302C360.325 228.415 361.583 228.506 362.841 228.54C362.942 228.556 363.034 228.608 363.1 228.686C363.166 228.764 363.202 228.862 363.202 228.965C363.202 229.067 363.166 229.165 363.1 229.243C363.034 229.321 362.942 229.373 362.841 229.389C358.909 229.565 355.014 230.231 351.247 231.372C350.624 231.587 349.298 231.961 348.981 232.663C348.516 233.796 350.669 233.886 351.338 233.954C355.111 234.148 358.893 233.828 362.581 233.003C363.125 232.901 363.351 233.716 362.807 233.818L362.853 233.864Z" fill="#9E6050"/>
<path d="M363.442 237.534C360.462 238.066 357.447 238.508 354.432 238.78C352.933 239.051 351.398 239.051 349.899 238.78C348.834 238.474 347.961 237.511 348.618 236.401C349.119 235.72 349.821 235.213 350.624 234.951C352.042 234.424 353.533 234.119 355.044 234.045C355.588 234.045 355.577 234.849 355.044 234.895C353.757 234.967 352.484 235.207 351.259 235.608C350.563 235.815 349.937 236.207 349.446 236.741C348.822 237.545 349.865 237.998 350.579 238.1C352.068 238.227 353.567 238.177 355.044 237.953C356.801 237.783 358.546 237.545 360.292 237.273C361.278 237.126 362.275 236.968 363.261 236.786C363.794 236.696 364.02 237.511 363.476 237.613L363.442 237.534Z" fill="#9E6050"/>
<path d="M363.091 241.611C361.539 241.905 359.952 242.132 358.377 242.313C357.175 242.46 355.974 242.574 354.761 242.619C353.82 242.678 352.876 242.617 351.951 242.438C351.259 242.279 350.353 241.939 350.149 241.169C349.945 240.399 350.693 239.742 351.282 239.379C352.982 238.471 354.84 237.894 356.756 237.68C357.289 237.59 357.527 238.405 356.983 238.496C355.397 238.714 353.847 239.137 352.37 239.753C351.958 239.926 351.575 240.163 351.237 240.455C351.152 240.542 351.076 240.637 351.01 240.739C350.975 240.793 350.956 240.856 350.953 240.92C350.953 241.045 351.078 241.169 351.271 241.294C351.603 241.481 351.969 241.604 352.347 241.656C354.283 241.894 356.243 241.837 358.161 241.486C359.725 241.305 361.301 241.09 362.865 240.784C363.397 240.682 363.624 241.498 363.08 241.611H363.091Z" fill="#9E6050"/>
<path d="M357.119 242.449C356.598 242.517 355.646 242.675 354.977 242.811C354.105 242.981 352.325 243.14 351.736 243.887C351.7 243.969 351.681 244.058 351.681 244.148C351.681 244.237 351.7 244.326 351.736 244.408C352.065 245.201 353.368 245.405 354.082 245.541C356.685 245.886 359.322 245.886 361.925 245.541C364.903 245.191 367.858 244.669 370.776 243.978C375.411 243.004 380.035 242.007 384.648 240.953C388.411 240.104 392.502 239.47 396.072 237.974C396.571 237.759 396.797 238.586 396.299 238.79C392.819 240.251 388.83 240.874 385.169 241.712C380.149 242.845 375.117 243.978 370.073 244.986C366.43 245.829 362.722 246.367 358.989 246.594C357.21 246.674 351.543 247.229 350.886 244.567C350.828 244.351 350.822 244.125 350.867 243.907C350.912 243.689 351.008 243.484 351.147 243.309C351.827 242.517 353.413 242.313 354.343 242.109C355.272 241.905 356.201 241.758 357.131 241.633C357.675 241.565 357.675 242.415 357.131 242.483L357.119 242.449Z" fill="#9E6050"/>
<path d="M382.029 175.505L383.604 143.789C383.604 143.789 453.61 173.239 452.012 212.884C450.414 252.529 394.926 240.149 394.926 240.149L389.86 220.077L410.26 209.282C397.533 182.301 382.029 175.505 382.029 175.505Z" fill="#0A4DD0"/>
<path d="M389.873 220.067L419.385 204.424" stroke="white" stroke-miterlimit="10"/>
<path d="M410.26 209.262C406.095 201.775 401.493 194.539 396.478 187.593C394.269 184.7 391.904 181.928 389.395 179.29" stroke="white" stroke-miterlimit="10"/>
<path d="M404.674 241.542C401.401 241.254 398.147 240.781 394.927 240.126L389.861 220.055L398.667 215.422L404.674 241.542Z" fill="#7BA7FE" stroke="white" stroke-miterlimit="10"/>
<path d="M403.824 237.85L394.338 237.782" stroke="white" stroke-miterlimit="10"/>
<path d="M402.611 232.662L393.352 233.897" stroke="white" stroke-miterlimit="10"/>
<path d="M401.297 226.999L392.038 228.732" stroke="white" stroke-miterlimit="10"/>
<path d="M399.777 220.406L390.745 223.555" stroke="white" stroke-miterlimit="10"/>
<path d="M383.604 143.789C383.604 143.789 453.61 173.239 452.012 212.884C450.414 252.529 394.926 240.149 394.926 240.149" stroke="white" stroke-miterlimit="10"/>
<path d="M395.607 151.866L394.768 155.23L393.941 158.594L397.273 157.631L400.594 156.668L398.1 154.267L395.607 151.866Z" stroke="#F2718D" stroke-width="0.5" stroke-miterlimit="10"/>
<path d="M385.487 169.91L387.47 172.753L389.453 175.585L390.927 172.459L392.389 169.321L388.943 169.615L385.487 169.91Z" stroke="#F2718D" stroke-width="0.5" stroke-miterlimit="10"/>
<path d="M379.252 156.045L381.236 158.889L383.208 161.732L384.681 158.594L386.154 155.456L382.698 155.751L379.252 156.045Z" stroke="#F2718D" stroke-width="0.5" stroke-miterlimit="10"/>
<path d="M399.834 168.495L402.565 170.625L405.296 172.754L405.772 169.322L406.26 165.89L403.041 167.192L399.834 168.495Z" stroke="#F2718D" stroke-width="0.5" stroke-miterlimit="10"/>
<path d="M400.593 186.187L404.004 186.844L407.404 187.489L406.271 184.227L405.138 180.954L402.871 183.57L400.593 186.187Z" stroke="#F2718D" stroke-width="0.5" stroke-miterlimit="10"/>
<path d="M419.565 169.989L417.321 172.617L415.077 175.256L418.477 175.879L421.889 176.514L420.733 173.251L419.565 169.989Z" stroke="#F2718D" stroke-width="0.5" stroke-miterlimit="10"/>
<path d="M415.983 188.01L419.383 188.656L422.783 189.313L421.65 186.039L420.517 182.765L418.25 185.382L415.983 188.01Z" stroke="#F2718D" stroke-width="0.5" stroke-miterlimit="10"/>
<path d="M432.768 191.057L435.93 189.653L439.092 188.237L436.281 186.198L433.482 184.17L433.13 187.614L432.768 191.057Z" stroke="#F2718D" stroke-width="0.5" stroke-miterlimit="10"/>
<path d="M409.523 201.887L412.912 202.623L416.289 203.36L415.235 200.064L414.181 196.767L411.858 199.327L409.523 201.887Z" stroke="#F2718D" stroke-width="0.5" stroke-miterlimit="10"/>
<path d="M442.81 209.215L446.199 209.94L449.576 210.676L448.522 207.38L447.468 204.083L445.145 206.643L442.81 209.215Z" stroke="#F2718D" stroke-width="0.5" stroke-miterlimit="10"/>
<path d="M431.613 219.704L435.081 219.681L438.549 219.659L436.792 216.68L435.047 213.689L433.335 216.691L431.613 219.704Z" stroke="#F2718D" stroke-width="0.5" stroke-miterlimit="10"/>
<path d="M432.395 229.196L432.905 232.617L433.415 236.037L436.124 233.885L438.844 231.733L435.614 230.464L432.395 229.196Z" stroke="#F2718D" stroke-width="0.5" stroke-miterlimit="10"/>
<path d="M413.581 212.953L415.19 216.022L416.799 219.081L418.647 216.158L420.494 213.225L417.037 213.089L413.581 212.953Z" stroke="#F2718D" stroke-width="0.5" stroke-miterlimit="10"/>
<path d="M415.282 228.902L418.036 231.009L420.79 233.115L421.232 229.683L421.674 226.251L418.478 227.576L415.282 228.902Z" stroke="#F2718D" stroke-width="0.5" stroke-miterlimit="10"/>
<path d="M401.477 221.743L404.231 223.85L406.985 225.945L407.427 222.513L407.869 219.081L404.673 220.418L401.477 221.743Z" stroke="#F2718D" stroke-width="0.5" stroke-miterlimit="10"/>
<path d="M412.936 238.121L410.726 235.459L408.516 232.797L407.314 236.037L406.113 239.288L409.524 238.699L412.936 238.121Z" stroke="#F2718D" stroke-width="0.5" stroke-miterlimit="10"/>
<path d="M432.77 206.292L432.135 202.882L431.489 199.484L428.86 201.738L426.242 203.992L429.506 205.136L432.77 206.292Z" stroke="#F2718D" stroke-width="0.5" stroke-miterlimit="10"/>
<path d="M357.867 122.982L353.334 121.847L357.456 115.052L357.867 122.982Z" fill="#DE9C80"/>
<path d="M365.586 102.139L373.258 101.844C378.347 101.651 382.699 106.239 382.926 112.038L383.368 123.909C383.368 124.249 383.368 124.578 383.368 124.906C383.465 125.257 383.522 125.618 383.538 125.982L383.81 133.22V133.594L384.093 140.821C384.136 142.084 383.678 143.313 382.818 144.241C381.958 145.168 380.767 145.718 379.503 145.771L376.454 145.895C375.189 145.935 373.959 145.475 373.032 144.614C372.105 143.753 371.555 142.561 371.502 141.297L371.264 134.908L366.832 135.078C361.732 135.27 357.38 130.683 357.165 124.883L356.712 113.001C356.508 107.224 360.497 102.331 365.586 102.139Z" fill="#DE9C80"/>
<path d="M361.889 117.736C361.756 118.027 361.711 118.351 361.761 118.668C361.811 118.984 361.954 119.278 362.172 119.513C362.389 119.748 362.672 119.914 362.983 119.988C363.295 120.063 363.621 120.044 363.922 119.933C364.223 119.823 364.484 119.625 364.672 119.366C364.861 119.108 364.968 118.799 364.981 118.479C364.994 118.159 364.912 117.842 364.745 117.569C364.578 117.296 364.333 117.078 364.043 116.944C363.849 116.854 363.64 116.803 363.427 116.795C363.214 116.786 363.001 116.82 362.801 116.893C362.601 116.967 362.418 117.079 362.261 117.224C362.105 117.369 361.978 117.543 361.889 117.736Z" fill="black"/>
<path d="M357.867 127.705L358.195 127.773H358.637C358.731 127.77 358.823 127.751 358.909 127.716C358.909 127.716 359 127.716 359.023 127.716C359.095 127.688 359.164 127.65 359.227 127.603L359.306 127.524L359.465 127.365C359.465 127.365 359.521 127.286 359.521 127.274C359.569 127.219 359.611 127.158 359.646 127.093L359.737 126.912V126.821C359.737 126.753 359.737 126.912 359.737 126.821C359.742 126.799 359.742 126.776 359.737 126.753C359.822 126.541 359.886 126.321 359.929 126.096C359.934 126.048 359.934 125.998 359.929 125.949V125.893C359.929 125.813 359.929 126.029 359.929 125.949C359.935 125.915 359.935 125.881 359.929 125.847C359.935 125.736 359.983 125.631 360.062 125.553C360.142 125.476 360.249 125.431 360.36 125.428C360.471 125.428 360.578 125.472 360.656 125.551C360.735 125.63 360.779 125.736 360.779 125.847C360.776 126.406 360.618 126.953 360.322 127.427C360.025 127.901 359.603 128.284 359.102 128.532C358.597 128.69 358.055 128.69 357.549 128.532C357.449 128.494 357.366 128.42 357.317 128.325C357.268 128.229 357.256 128.119 357.285 128.015C357.313 127.911 357.379 127.822 357.47 127.765C357.561 127.707 357.67 127.686 357.776 127.705H357.867Z" fill="#9E6050"/>
<path d="M352.653 89.3504C357.186 87.1756 364.213 97.5286 364.213 97.5286C364.213 97.5286 359.736 90.7323 364.848 89.1805C369.959 87.6287 376 97.1095 376 97.1095C376 97.1095 395.935 100.021 394.949 118.495C394.949 118.495 394.666 129.222 383.786 132.53L383.14 120.806L381.848 119.911L380.714 123.604C380.714 123.604 376.419 124.533 373.62 117.725C367.191 116.252 361.217 113.239 356.212 108.946C344.81 99.1371 348.074 91.5252 352.653 89.3504Z" fill="#0F0D1D"/>
<path d="M390.358 123.151C390.34 124.326 389.973 125.469 389.304 126.436C388.635 127.402 387.694 128.148 386.6 128.58C385.507 129.011 384.309 129.108 383.16 128.859C382.011 128.609 380.962 128.025 380.146 127.179C379.329 126.333 378.783 125.263 378.575 124.107C378.368 122.95 378.508 121.757 378.979 120.681C379.45 119.604 380.231 118.691 381.222 118.058C382.212 117.425 383.369 117.1 384.544 117.125C386.115 117.154 387.609 117.806 388.699 118.935C389.789 120.065 390.386 121.581 390.358 123.151Z" fill="#DE9C80"/>
<path d="M380.533 123.741C380.519 123.223 380.592 122.706 380.748 122.212C380.891 121.72 381.137 121.264 381.469 120.873C381.801 120.483 382.212 120.167 382.675 119.947C383.452 119.625 384.302 119.52 385.134 119.641C385.313 119.647 385.483 119.72 385.609 119.846C385.735 119.973 385.809 120.142 385.814 120.321C385.814 120.66 385.508 121.057 385.134 121C384.784 120.972 384.431 120.972 384.08 121H383.933C383.865 121 383.865 121 383.933 121C383.865 121.006 383.797 121.006 383.729 121C383.587 121.027 383.447 121.065 383.31 121.114H383.23C383.23 121.17 383.151 121.114 383.23 121.114L383.072 121.193C382.962 121.25 382.856 121.315 382.754 121.385C382.868 121.283 382.607 121.476 382.754 121.385L382.641 121.487C382.55 121.567 382.482 121.657 382.403 121.737C382.494 121.612 382.324 121.816 382.403 121.737L382.312 121.85L382.165 122.122C382.144 122.158 382.125 122.196 382.108 122.235V122.314C382.108 122.394 382.108 122.224 382.108 122.224L382.006 122.507C381.948 122.673 381.902 122.843 381.87 123.017V123.232C381.87 123.379 381.87 123.028 381.87 123.175C381.864 123.213 381.864 123.251 381.87 123.288C381.853 123.443 381.853 123.598 381.87 123.753C381.87 123.842 381.853 123.93 381.819 124.013C381.785 124.095 381.734 124.17 381.671 124.233C381.608 124.296 381.533 124.347 381.451 124.381C381.368 124.415 381.28 124.432 381.19 124.432C381.101 124.432 381.013 124.415 380.93 124.381C380.848 124.347 380.773 124.296 380.71 124.233C380.646 124.17 380.596 124.095 380.562 124.013C380.528 123.93 380.51 123.842 380.51 123.753L380.533 123.741Z" fill="#9E6050"/>
<path d="M369.574 127.014C367.364 127.014 365.573 125.224 365.573 123.015C365.573 120.807 367.364 119.017 369.574 119.017C371.783 119.017 373.574 120.807 373.574 123.015C373.574 125.224 371.783 127.014 369.574 127.014Z" fill="#E08098"/>
<path d="M369.748 138.391L386.09 138.579C387.767 138.598 389.111 139.973 389.092 141.649L389.032 146.882C389.012 148.558 387.637 149.902 385.96 149.882L369.618 149.694C367.941 149.675 366.596 148.3 366.616 146.624L366.676 141.391C366.695 139.715 368.071 138.371 369.748 138.391Z" fill="#7BA7FE"/>
<path d="M369.748 138.391L386.09 138.579C387.767 138.598 389.111 139.973 389.092 141.649L389.032 146.882C389.012 148.558 387.637 149.902 385.96 149.882L369.618 149.694C367.941 149.675 366.596 148.3 366.616 146.624L366.676 141.391C366.695 139.715 368.071 138.371 369.748 138.391Z" stroke="#FEFFFD" stroke-miterlimit="10"/>
<path d="M369.812 138.375V149.68" stroke="#FEFFFD" stroke-miterlimit="10"/>
<path d="M373.779 138.375V149.68" stroke="#FEFFFD" stroke-miterlimit="10"/>
<path d="M377.746 138.375V149.68" stroke="#FEFFFD" stroke-miterlimit="10"/>
<path d="M381.713 138.375V149.68" stroke="#FEFFFD" stroke-miterlimit="10"/>
<path d="M385.678 138.375V149.68" stroke="#FEFFFD" stroke-miterlimit="10"/>
</g>
<defs>
<clipPath id="clip0_1516_131374">
<rect width="494" height="493" fill="white"/>
</clipPath>
</defs>
</svg>
