<svg width="494" height="493" viewBox="0 0 494 493" fill="none" xmlns="http://www.w3.org/2000/svg">
<g clip-path="url(#clip0_1516_131219)">
<path d="M657.688 0H-92.3125V500H657.688V0Z" fill="white"/>
<path d="M48.9593 454.256C48.9593 454.256 19.3087 437.63 15 378.631C15 292 74.6289 310.087 64.1815 260.935C49.5996 192.371 78.0953 151.517 142 154.332C195.883 156.711 190.131 198.822 218.956 162.62C250.046 123.546 308.2 94.666 365.753 118.875C423.306 143.083 395.459 221.735 435.254 238.448C475.049 255.161 499.778 299.245 492.836 360.255C486.329 417.464 451.908 455.484 402.963 454.904C378.979 454.623 305.246 455.223 221.589 454.904C134.524 454.546 48.9593 454.256 48.9593 454.256Z" fill="#DEE3FF"/>
<path d="M143.826 98.3006C143.826 98.3006 127.716 67.2506 155.216 52.3006C184.816 36.2106 207.506 66.1106 200.516 90.7306C193.526 115.351 152.406 114.241 143.826 98.3006Z" fill="#DEE3FF"/>
<path d="M345.837 454.76C337.587 455.34 304.267 455.87 310.167 427.65C313.167 413.24 305.507 411.65 298.097 404.38C290.687 397.11 291.577 393.53 293.847 385.58C296.117 377.63 285.907 380.34 283.927 368.37C281.947 356.4 289.427 346.37 302.347 346.44C315.267 346.51 312.347 359.91 316.587 364.87C320.827 369.83 327.327 365.26 331.637 377.06C335.947 388.86 329.637 395.91 337.937 400.52C339.595 401.481 341.147 402.614 342.567 403.9" stroke="#7189FF" stroke-miterlimit="10"/>
<path d="M331.967 422.661C325.574 409.661 318.824 396.847 311.717 384.221C309.304 379.954 306.864 375.704 304.397 371.471C304.347 371.385 304.281 371.311 304.202 371.251C304.123 371.191 304.034 371.147 303.938 371.122C303.842 371.097 303.743 371.091 303.645 371.105C303.547 371.118 303.452 371.151 303.367 371.201C303.282 371.25 303.207 371.317 303.147 371.395C303.087 371.474 303.044 371.564 303.019 371.66C302.994 371.755 302.988 371.855 303.001 371.953C303.015 372.051 303.047 372.145 303.097 372.231C311.097 385.831 318.667 399.651 325.807 413.691C327.447 416.917 329.07 420.161 330.677 423.421C331.097 424.291 332.397 423.531 331.967 422.661Z" fill="#7189FF"/>
<path d="M298.966 395.63L315.436 397.34L317.806 397.59C318.806 397.69 318.806 396.19 317.806 396.09L301.336 394.38L298.966 394.13C297.966 394.03 298.016 395.53 298.966 395.63Z" fill="#7189FF"/>
<path d="M305.548 386.08C305.629 386.659 305.532 387.249 305.269 387.771C305.007 388.293 304.591 388.722 304.078 389.001C303.564 389.28 302.978 389.396 302.397 389.333C301.816 389.27 301.268 389.032 300.826 388.649C300.385 388.266 300.07 387.758 299.926 387.192C299.781 386.625 299.812 386.029 300.016 385.481C300.219 384.933 300.585 384.46 301.064 384.126C301.544 383.792 302.114 383.612 302.698 383.61C303.403 383.561 304.099 383.793 304.634 384.256C305.168 384.719 305.497 385.375 305.548 386.08Z" stroke="#7189FF" stroke-miterlimit="10"/>
<path d="M311.896 363.889C311.611 364.376 311.187 364.767 310.679 365.013C310.171 365.259 309.601 365.348 309.042 365.27C308.483 365.192 307.96 364.949 307.539 364.573C307.118 364.197 306.818 363.704 306.678 363.157C306.537 362.61 306.562 362.034 306.749 361.502C306.937 360.969 307.278 360.504 307.73 360.166C308.182 359.828 308.724 359.631 309.288 359.602C309.852 359.572 310.411 359.71 310.896 359.999C311.543 360.384 312.011 361.009 312.198 361.738C312.385 362.467 312.277 363.24 311.896 363.889Z" stroke="#7189FF" stroke-miterlimit="10"/>
<path d="M323.367 428.499C323.473 429.224 323.355 429.964 323.028 430.619C322.702 431.275 322.183 431.815 321.541 432.167C320.899 432.519 320.164 432.666 319.436 432.589C318.707 432.512 318.02 432.214 317.466 431.735C316.912 431.256 316.518 430.619 316.337 429.909C316.155 429.2 316.195 428.451 316.451 427.765C316.707 427.079 317.166 426.487 317.768 426.07C318.369 425.652 319.084 425.429 319.817 425.429C320.693 425.371 321.557 425.661 322.222 426.236C322.886 426.81 323.298 427.623 323.367 428.499Z" stroke="#7189FF" stroke-miterlimit="10"/>
<path d="M306.816 356.591C306.832 356.767 306.811 356.943 306.754 357.11C306.698 357.277 306.607 357.431 306.488 357.561C306.369 357.691 306.225 357.795 306.063 357.866C305.902 357.937 305.728 357.974 305.551 357.974C305.375 357.974 305.201 357.937 305.039 357.866C304.878 357.795 304.733 357.691 304.614 357.561C304.495 357.431 304.405 357.277 304.348 357.11C304.292 356.943 304.271 356.767 304.286 356.591C304.314 356.275 304.46 355.981 304.694 355.767C304.928 355.552 305.234 355.434 305.551 355.434C305.869 355.434 306.174 355.552 306.409 355.767C306.643 355.981 306.788 356.275 306.816 356.591Z" stroke="#7189FF" stroke-miterlimit="10"/>
<path d="M386.948 452.02C380.118 447.15 379.438 416.25 407.438 410.02C421.738 406.83 419.438 399.67 422.338 390.46C425.238 381.25 428.848 380.58 437.038 379.33C445.228 378.08 439.038 366.92 448.788 360.46C458.538 354 471.548 353.51 476.408 367.63C480.518 379.58 468.868 384.85 466.488 390.41C464.108 395.97 471.028 403.48 462.598 411.86C454.168 420.24 445.148 413.93 445.038 422.81C444.928 431.69 441.038 447.87 432.428 451.2C421.838 455.29 392.338 455.86 386.948 452.02Z" stroke="#7189FF" stroke-miterlimit="10"/>
<path d="M396.469 455.501C400.269 450.971 404.209 446.561 408.009 442.031C417.422 430.851 426.612 419.487 435.579 407.941C442.065 399.581 448.439 391.131 454.699 382.591C455.269 381.811 453.969 381.061 453.409 381.831C442.882 396.277 431.999 410.421 420.759 424.261C413.752 432.927 406.609 441.497 399.329 449.971C398.029 451.481 396.689 452.971 395.409 454.481C394.789 455.221 395.849 456.281 396.469 455.541V455.501Z" fill="#7189FF"/>
<path d="M411.487 408.5C410.857 403.33 411.957 400.12 411.487 395.36C409.597 376.22 435.987 384.78 446.487 360.2C456.987 335.62 431.267 326.7 443.367 316.42C455.467 306.14 458.847 270.81 441.127 264.73C418.127 256.85 397.487 271.26 394.677 290.24C392.517 304.88 402.327 315.1 376.787 325.83C351.247 336.56 355.187 349.89 360.437 375.38C365.687 400.87 348.437 391.521 335.007 413.031C324.377 430.031 339.317 447.47 346.007 453.95L397.707 454.84" stroke="#7189FF" stroke-miterlimit="10"/>
<path d="M356.527 454.001L362.867 439.421C368.081 427.474 373.297 415.554 378.517 403.661C385.184 388.481 391.897 373.318 398.657 358.171C405.177 343.551 411.771 328.964 418.437 314.411C423.167 304.131 427.877 293.821 433.067 283.771L434.267 281.491C434.727 280.641 433.427 279.881 432.977 280.731C428.027 289.971 423.677 299.551 419.267 309.051C412.677 323.261 406.267 337.541 399.847 351.831C393.021 367.111 386.241 382.408 379.507 397.721C373.994 410.221 368.511 422.734 363.057 435.261C360.487 441.161 357.757 447.031 355.337 453.001C355.337 453.091 355.267 453.171 355.237 453.251C354.857 454.121 356.147 454.891 356.527 454.001Z" fill="#7189FF"/>
<path d="M403.627 346.371L433.997 344.691L438.297 344.451C439.297 344.391 439.297 342.891 438.297 342.951L407.927 344.631L403.627 344.871C402.627 344.921 402.627 346.421 403.627 346.371Z" fill="#7189FF"/>
<path d="M368.517 424.996L385.993 422.643L388.454 422.312C389.182 422.216 389.182 420.909 388.454 421.005L371.015 423.349L368.546 423.689C367.818 423.776 367.818 425.083 368.546 424.996H368.517Z" fill="#7189FF"/>
<path d="M365.377 338.62L372.257 354.08L383.257 378.71L385.767 384.34C386.167 385.22 387.457 384.46 387.067 383.58L380.177 368.12L369.177 343.5L366.687 337.86C366.297 336.98 365.007 337.75 365.397 338.62H365.377Z" fill="#7189FF"/>
<path d="M415.396 286.101C413.696 288.591 410.746 289.531 408.806 288.211C406.866 286.891 406.656 283.791 408.346 281.301C410.036 278.811 412.996 277.871 414.936 279.191C416.876 280.511 417.086 283.611 415.396 286.101Z" stroke="#7189FF" stroke-miterlimit="10"/>
<path d="M416.686 299.56C416.686 300.03 416.546 300.491 416.285 300.882C416.023 301.273 415.651 301.578 415.217 301.759C414.782 301.939 414.303 301.986 413.842 301.894C413.38 301.802 412.956 301.575 412.623 301.243C412.29 300.91 412.063 300.486 411.972 300.024C411.88 299.562 411.927 299.084 412.107 298.649C412.287 298.214 412.592 297.842 412.984 297.581C413.375 297.319 413.835 297.18 414.306 297.18C414.937 297.18 415.542 297.43 415.989 297.877C416.435 298.323 416.686 298.928 416.686 299.56Z" stroke="#7189FF" stroke-miterlimit="10"/>
<path d="M433.916 361.03C433.916 361.946 433.645 362.841 433.136 363.603C432.627 364.364 431.904 364.958 431.058 365.308C430.212 365.658 429.281 365.75 428.383 365.571C427.485 365.393 426.66 364.952 426.012 364.304C425.365 363.657 424.924 362.832 424.745 361.934C424.567 361.036 424.658 360.105 425.009 359.259C425.359 358.413 425.953 357.689 426.714 357.181C427.475 356.672 428.371 356.4 429.286 356.4C430.514 356.4 431.692 356.888 432.56 357.757C433.428 358.625 433.916 359.802 433.916 361.03Z" stroke="#7189FF" stroke-miterlimit="10"/>
<path d="M236.078 455.01C237.398 450.26 237.438 445.01 238.028 440.5C239.298 430.8 253.338 438.79 262.368 428.19C271.398 417.59 257.788 409.52 265.978 406.19C274.168 402.86 279.728 387.63 271.058 380.42C260.338 371.5 245.308 377.42 241.358 386.34C238.358 393.23 242.678 399.67 226.748 401.34C210.818 403.01 211.438 410.1 211.298 423.4C211.158 436.7 202.448 429.63 192.128 438.31C186.278 443.22 187.888 450.09 190.378 455.13" stroke="#7189FF" stroke-miterlimit="10"/>
<path d="M204.586 455.96C212.399 446.927 220.239 437.927 228.106 428.96C237.106 418.74 246.056 408.53 255.236 398.5C258.516 394.91 261.786 391.3 265.236 387.91C265.936 387.24 264.876 386.18 264.176 386.85C256.746 394.05 249.956 401.98 243.076 409.7C233.743 420.167 224.476 430.707 215.276 441.32C211.336 445.84 207.406 450.367 203.486 454.9C202.856 455.62 203.916 456.69 204.546 455.96H204.586Z" fill="#7189FF"/>
<path d="M239.458 415.58L256.988 419.08L259.518 419.59C260.458 419.78 260.858 418.33 259.918 418.14L242.388 414.64L239.858 414.13C238.918 413.94 238.518 415.39 239.458 415.58Z" fill="#7189FF"/>
<path d="M218.347 406.049L223.597 428.239L224.357 431.469C224.577 432.409 226.027 432.009 225.807 431.069L220.557 408.879L219.787 405.649C219.567 404.709 218.117 405.109 218.347 406.049Z" fill="#7189FF"/>
<path d="M253.686 387.23C253.13 387.701 252.431 387.967 251.703 387.985C250.976 388.004 250.264 387.772 249.686 387.33C248.736 386.4 249.006 384.85 250.276 383.86C250.832 383.391 251.532 383.127 252.26 383.11C252.987 383.094 253.699 383.327 254.276 383.77C255.256 384.7 254.986 386.25 253.686 387.23Z" stroke="#7189FF" stroke-miterlimit="10"/>
<path d="M255.077 426.78C255.021 427.34 254.796 427.87 254.431 428.298C254.066 428.727 253.578 429.033 253.034 429.177C252.49 429.32 251.914 429.294 251.385 429.101C250.856 428.909 250.399 428.559 250.075 428.099C249.75 427.638 249.574 427.09 249.57 426.527C249.566 425.964 249.735 425.414 250.053 424.949C250.371 424.484 250.823 424.128 251.35 423.928C251.876 423.728 252.451 423.694 252.997 423.83C253.663 423.947 254.256 424.323 254.645 424.876C255.035 425.429 255.19 426.113 255.077 426.78Z" stroke="#7189FF" stroke-miterlimit="10"/>
<path d="M64.1367 398.22L80.9267 397.33L83.3467 397.2C84.3467 397.15 84.3467 395.65 83.3467 395.7L66.5467 396.59L64.1367 396.72C63.1367 396.72 63.1367 398.27 64.1367 398.22Z" fill="#7189FF"/>
<path d="M80.9267 405.66C80.9486 406.172 80.8168 406.679 80.5481 407.116C80.2793 407.553 79.8861 407.9 79.4188 408.111C78.9516 408.323 78.4317 408.389 77.9262 408.303C77.4206 408.217 76.9525 407.981 76.582 407.626C76.2115 407.272 75.9555 406.814 75.8471 406.313C75.7387 405.812 75.7828 405.289 75.9736 404.813C76.1645 404.337 76.4934 403.929 76.9181 403.642C77.3428 403.354 77.8438 403.2 78.3567 403.2C79.0234 403.186 79.6682 403.438 80.1499 403.899C80.6316 404.36 80.911 404.993 80.9267 405.66Z" stroke="#7189FF" stroke-miterlimit="10"/>
<path d="M395.5 288.641H167.427C165.621 288.641 163.889 287.923 162.612 286.646C161.335 285.369 160.617 283.637 160.617 281.831V73.1909C160.617 71.3847 161.335 69.6526 162.612 68.3755C163.889 67.0983 165.621 66.3809 167.427 66.3809H453.187C454.993 66.3809 456.725 67.0983 458.003 68.3755C459.28 69.6526 459.997 71.3847 459.997 73.1909V281.83C459.997 283.636 458.71 285.368 457.433 286.645C456.487 287.592 455.291 288.231 454 288.498" stroke="#F2718D" stroke-miterlimit="10"/>
<path d="M460 71.3127V86H161V71.3127C161 68.3806 163.509 66 166.611 66H454.389C457.499 66 460 68.3806 460 71.3127Z" fill="white" stroke="#E54985" stroke-miterlimit="10"/>
<path fill-rule="evenodd" clip-rule="evenodd" d="M438.346 40.5799C439.667 41.2715 440.892 42.1357 441.986 43.1499L445.876 41.7599L449.536 47.5299L446.626 50.4999C447.07 51.9236 447.326 53.3996 447.386 54.8899L451.116 56.6599L449.616 63.3199H445.496C444.804 64.6418 443.94 65.8659 442.926 66.9599L444.316 70.8499L438.546 74.4999L435.616 71.5899C434.192 72.0347 432.716 72.2903 431.226 72.3499L429.456 76.0799L422.786 74.5799V70.4599C421.462 69.766 420.235 68.902 419.136 67.8899L415.246 69.2799L411.596 63.4999L414.506 60.5699C414.061 59.1463 413.805 57.6703 413.746 56.1799L410.016 54.4099L411.516 47.7499H415.686C416.377 46.428 417.241 45.204 418.256 44.1099L416.866 40.2099L422.586 36.4999L425.516 39.4099C426.939 38.9651 428.415 38.7096 429.906 38.6499L431.676 34.9199L438.336 36.4199V40.5399L438.346 40.5799ZM432.476 48.4299C431.061 48.1107 429.583 48.2184 428.23 48.7393C426.876 49.2602 425.707 50.1709 424.872 51.3562C424.036 52.5415 423.571 53.9481 423.535 55.398C423.499 56.8479 423.893 58.2759 424.669 59.5013C425.445 60.7266 426.567 61.6943 427.893 62.2818C429.219 62.8693 430.689 63.0503 432.118 62.8018C433.547 62.5532 434.87 61.8864 435.92 60.8857C436.97 59.8849 437.699 58.5953 438.016 57.1799C438.439 55.2851 438.094 53.2996 437.055 51.6591C436.017 50.0186 434.37 48.8573 432.476 48.4299Z" fill="#F2718D"/>
<path fill-rule="evenodd" clip-rule="evenodd" d="M104.297 78.5594C105.975 79.4368 107.528 80.533 108.917 81.8195L113.857 80.0594L118.487 87.3795L114.797 91.0894C115.372 92.8944 115.709 94.7671 115.797 96.6595L120.527 98.8994L118.627 107.359H113.397C112.52 109.037 111.424 110.591 110.137 111.979L111.897 116.909L104.577 121.549L100.867 117.859C99.0634 118.44 97.1901 118.776 95.2972 118.859L93.0472 123.589L84.5972 121.699V116.459C82.9179 115.589 81.3638 114.496 79.9772 113.209L75.0372 114.969L70.4072 107.649L74.0972 103.929C73.5211 102.128 73.1849 100.259 73.0972 98.3694L68.3672 96.1194L70.2672 87.6694H75.5072C76.3775 85.9901 77.4708 84.4361 78.7572 83.0495L76.9972 78.1095L84.3172 73.4695L88.0372 77.1694C89.8386 76.5934 91.708 76.2571 93.5972 76.1694L95.8472 71.4395L104.297 73.3394V78.5695V78.5594ZM96.8472 88.4995C95.0529 88.0892 93.1772 88.2207 91.4576 88.8772C89.738 89.5337 88.2519 90.6856 87.1875 92.1873C86.123 93.6889 85.5281 95.4726 85.478 97.3125C85.4279 99.1524 85.925 100.966 86.9062 102.523C87.8873 104.08 89.3086 105.312 90.9899 106.061C92.6712 106.81 94.537 107.043 96.351 106.731C98.1649 106.419 99.8456 105.576 101.18 104.308C102.514 103.04 103.443 101.405 103.847 99.6095C104.385 97.2084 103.951 94.692 102.64 92.6101C101.328 90.5283 99.2453 89.0504 96.8472 88.4995Z" stroke="#EC4E70" stroke-miterlimit="10"/>
<path fill-rule="evenodd" clip-rule="evenodd" d="M330.207 282.14C331.317 282.724 332.345 283.45 333.267 284.3L336.527 283.13L339.597 287.98L337.147 290.43C337.531 291.625 337.749 292.866 337.797 294.12L340.927 295.6L339.687 301.2H336.227C335.646 302.308 334.919 303.333 334.067 304.25L335.227 307.52L330.387 310.59L327.927 308.14C326.736 308.523 325.498 308.742 324.247 308.79L322.757 311.92L317.167 310.66V307.2C316.058 306.616 315.029 305.89 314.107 305.04L310.847 306.2L307.777 301.36L310.217 298.9C309.842 297.707 309.627 296.47 309.577 295.22L306.447 293.73L307.707 288.14H311.167C311.751 287.03 312.477 286.002 313.327 285.08L312.157 281.82L317.007 278.75L319.457 281.19C320.654 280.815 321.894 280.599 323.147 280.55L324.627 277.42L330.227 278.68V282.14H330.207ZM325.277 288.73C324.091 288.463 322.851 288.554 321.716 288.991C320.581 289.428 319.601 290.192 318.901 291.187C318.2 292.181 317.81 293.36 317.779 294.576C317.749 295.792 318.08 296.99 318.73 298.018C319.38 299.046 320.321 299.858 321.433 300.351C322.544 300.845 323.778 300.997 324.976 300.79C326.175 300.582 327.285 300.024 328.166 299.186C329.047 298.347 329.66 297.267 329.927 296.08C330.106 295.292 330.127 294.476 329.99 293.68C329.853 292.884 329.56 292.122 329.128 291.44C328.696 290.757 328.134 290.166 327.473 289.701C326.812 289.236 326.066 288.906 325.277 288.73Z" fill="#EC4E70"/>
<path d="M3.05817 455.959H471.139C477.463 455.959 483.787 456.051 490.11 455.959H490.95C491.229 455.959 491.496 455.858 491.692 455.678C491.889 455.497 492 455.253 492 454.998C492 454.743 491.889 454.499 491.692 454.319C491.496 454.139 491.229 454.038 490.95 454.038H22.8695C16.5456 454.038 10.2134 453.953 3.88959 454.038H3.04977C2.77136 454.038 2.50434 454.139 2.30747 454.319C2.1106 454.499 2 454.743 2 454.998C2 455.253 2.1106 455.497 2.30747 455.678C2.50434 455.858 2.77136 455.959 3.04977 455.959H3.05817Z" fill="#0F0D1D"/>
<path d="M200.207 139.5H421.167C426.978 139.5 431.688 144.21 431.688 150.02V156.98C431.688 162.79 426.978 167.5 421.167 167.5H200.207C194.397 167.5 189.688 162.79 189.688 156.98V150.02C189.688 144.21 194.397 139.5 200.207 139.5Z" fill="white" stroke="#F2718D"/>
<path d="M421.167 192H200.207C194.121 192 189.188 196.934 189.188 203.02V233.98C189.188 240.066 194.121 245 200.207 245H421.167C427.254 245 432.188 240.066 432.188 233.98V203.02C432.188 196.934 427.254 192 421.167 192Z" stroke="#F2718D" stroke-miterlimit="10"/>
<path d="M201.535 101.084V103.991H197.589V115.98H193.96V103.991H190.013V101.084H201.535ZM210.635 104.013C211.993 104.013 213.082 104.465 213.903 105.371C214.723 106.262 215.134 107.493 215.134 109.063V115.98H211.526V109.551C211.526 108.759 211.321 108.143 210.911 107.705C210.501 107.266 209.949 107.047 209.256 107.047C208.562 107.047 208.011 107.266 207.601 107.705C207.19 108.143 206.985 108.759 206.985 109.551V115.98H203.357V100.278H206.985V105.731C207.353 105.208 207.855 104.791 208.492 104.479C209.128 104.168 209.843 104.013 210.635 104.013ZM228.817 109.869C228.817 110.209 228.795 110.562 228.753 110.93H220.541C220.597 111.666 220.831 112.232 221.241 112.628C221.666 113.01 222.182 113.201 222.79 113.201C223.696 113.201 224.325 112.819 224.679 112.055H228.541C228.343 112.833 227.982 113.533 227.459 114.156C226.949 114.778 226.306 115.266 225.528 115.62C224.749 115.973 223.879 116.15 222.918 116.15C221.758 116.15 220.725 115.903 219.819 115.408C218.914 114.912 218.207 114.205 217.697 113.286C217.188 112.366 216.934 111.291 216.934 110.06C216.934 108.829 217.181 107.754 217.676 106.835C218.186 105.915 218.893 105.208 219.798 104.713C220.704 104.218 221.743 103.97 222.918 103.97C224.063 103.97 225.082 104.211 225.973 104.692C226.864 105.173 227.558 105.859 228.053 106.75C228.562 107.641 228.817 108.681 228.817 109.869ZM225.103 108.914C225.103 108.292 224.891 107.797 224.467 107.429C224.042 107.061 223.512 106.877 222.875 106.877C222.267 106.877 221.75 107.054 221.326 107.408C220.916 107.761 220.661 108.264 220.562 108.914H225.103ZM242.824 115.98L239.726 110.357H238.856V115.98H235.228V101.084H241.318C242.492 101.084 243.489 101.289 244.31 101.7C245.144 102.11 245.767 102.676 246.177 103.397C246.587 104.104 246.792 104.897 246.792 105.774C246.792 106.764 246.509 107.648 245.944 108.426C245.392 109.204 244.571 109.756 243.482 110.081L246.92 115.98H242.824ZM238.856 107.79H241.105C241.77 107.79 242.265 107.627 242.591 107.302C242.93 106.976 243.1 106.516 243.1 105.922C243.1 105.356 242.93 104.911 242.591 104.585C242.265 104.26 241.77 104.097 241.105 104.097H238.856V107.79ZM260.232 109.869C260.232 110.209 260.211 110.562 260.168 110.93H251.956C252.013 111.666 252.246 112.232 252.656 112.628C253.081 113.01 253.597 113.201 254.205 113.201C255.111 113.201 255.74 112.819 256.094 112.055H259.956C259.758 112.833 259.397 113.533 258.874 114.156C258.364 114.778 257.721 115.266 256.943 115.62C256.165 115.973 255.295 116.15 254.333 116.15C253.173 116.15 252.14 115.903 251.235 115.408C250.329 114.912 249.622 114.205 249.113 113.286C248.603 112.366 248.349 111.291 248.349 110.06C248.349 108.829 248.596 107.754 249.091 106.835C249.601 105.915 250.308 105.208 251.213 104.713C252.119 104.218 253.159 103.97 254.333 103.97C255.479 103.97 256.497 104.211 257.388 104.692C258.28 105.173 258.973 105.859 259.468 106.75C259.977 107.641 260.232 108.681 260.232 109.869ZM256.518 108.914C256.518 108.292 256.306 107.797 255.882 107.429C255.457 107.061 254.927 106.877 254.29 106.877C253.682 106.877 253.166 107.054 252.741 107.408C252.331 107.761 252.076 108.264 251.977 108.914H256.518ZM265.775 105.816C266.128 105.265 266.616 104.819 267.239 104.479C267.861 104.14 268.59 103.97 269.424 103.97C270.4 103.97 271.285 104.218 272.077 104.713C272.869 105.208 273.491 105.915 273.944 106.835C274.411 107.754 274.644 108.822 274.644 110.039C274.644 111.256 274.411 112.331 273.944 113.264C273.491 114.184 272.869 114.898 272.077 115.408C271.285 115.903 270.4 116.15 269.424 116.15C268.604 116.15 267.875 115.98 267.239 115.641C266.616 115.301 266.128 114.863 265.775 114.325V121.625H262.146V104.14H265.775V105.816ZM270.952 110.039C270.952 109.134 270.698 108.426 270.188 107.917C269.693 107.394 269.078 107.132 268.342 107.132C267.621 107.132 267.005 107.394 266.496 107.917C266.001 108.44 265.753 109.155 265.753 110.06C265.753 110.966 266.001 111.68 266.496 112.203C267.005 112.727 267.621 112.988 268.342 112.988C269.064 112.988 269.679 112.727 270.188 112.203C270.698 111.666 270.952 110.944 270.952 110.039ZM281.938 116.15C280.778 116.15 279.731 115.903 278.797 115.408C277.878 114.912 277.149 114.205 276.612 113.286C276.088 112.366 275.827 111.291 275.827 110.06C275.827 108.844 276.095 107.776 276.633 106.856C277.171 105.922 277.906 105.208 278.84 104.713C279.773 104.218 280.82 103.97 281.98 103.97C283.14 103.97 284.187 104.218 285.121 104.713C286.055 105.208 286.79 105.922 287.328 106.856C287.865 107.776 288.134 108.844 288.134 110.06C288.134 111.277 287.858 112.352 287.306 113.286C286.769 114.205 286.026 114.912 285.078 115.408C284.145 115.903 283.098 116.15 281.938 116.15ZM281.938 113.01C282.631 113.01 283.218 112.755 283.699 112.246C284.194 111.737 284.442 111.008 284.442 110.06C284.442 109.112 284.201 108.384 283.72 107.875C283.254 107.365 282.673 107.111 281.98 107.111C281.273 107.111 280.686 107.365 280.219 107.875C279.752 108.37 279.519 109.098 279.519 110.06C279.519 111.008 279.745 111.737 280.198 112.246C280.665 112.755 281.245 113.01 281.938 113.01ZM293.688 106.113C294.112 105.463 294.643 104.953 295.279 104.585C295.916 104.204 296.623 104.013 297.401 104.013V107.853H296.404C295.498 107.853 294.819 108.051 294.367 108.447C293.914 108.829 293.688 109.508 293.688 110.485V115.98H290.059V104.14H293.688V106.113ZM305.735 112.904V115.98H303.889C302.573 115.98 301.547 115.662 300.812 115.026C300.076 114.375 299.708 113.321 299.708 111.864V107.153H298.265V104.14H299.708V101.254H303.337V104.14H305.714V107.153H303.337V111.906C303.337 112.26 303.422 112.515 303.592 112.67C303.761 112.826 304.044 112.904 304.44 112.904H305.735ZM312.573 116.15C311.54 116.15 310.621 115.973 309.814 115.62C309.008 115.266 308.371 114.785 307.905 114.177C307.438 113.554 307.176 112.861 307.119 112.097H310.706C310.748 112.508 310.939 112.84 311.278 113.095C311.618 113.349 312.035 113.477 312.53 113.477C312.983 113.477 313.33 113.392 313.57 113.222C313.825 113.038 313.952 112.805 313.952 112.522C313.952 112.182 313.775 111.935 313.422 111.779C313.068 111.609 312.495 111.425 311.703 111.227C310.854 111.029 310.147 110.824 309.581 110.612C309.015 110.386 308.527 110.039 308.117 109.572C307.706 109.091 307.501 108.447 307.501 107.641C307.501 106.962 307.685 106.347 308.053 105.795C308.435 105.229 308.987 104.784 309.708 104.458C310.444 104.133 311.314 103.97 312.318 103.97C313.804 103.97 314.971 104.338 315.819 105.074C316.682 105.809 317.178 106.785 317.305 108.002H313.952C313.896 107.592 313.712 107.266 313.4 107.026C313.103 106.785 312.707 106.665 312.212 106.665C311.788 106.665 311.462 106.75 311.236 106.92C311.01 107.075 310.897 107.295 310.897 107.577C310.897 107.917 311.073 108.172 311.427 108.341C311.795 108.511 312.361 108.681 313.125 108.851C314.002 109.077 314.716 109.303 315.268 109.53C315.819 109.742 316.3 110.096 316.711 110.591C317.135 111.072 317.354 111.722 317.369 112.543C317.369 113.236 317.17 113.858 316.774 114.41C316.392 114.948 315.834 115.372 315.098 115.683C314.377 115.995 313.535 116.15 312.573 116.15Z" fill="#29333D"/>
<path d="M120.596 339.852L113.716 355.312L102.716 379.942L100.206 385.572C99.8058 386.452 98.5159 385.692 98.9059 384.812L105.796 369.352L116.796 344.732L119.286 339.092C119.676 338.212 120.966 338.982 120.576 339.852H120.596Z" fill="#7189FF"/>
<path d="M81.5778 408.072L101.758 386.052L86.0978 372.752L65.4878 395.242L81.5778 408.072Z" fill="#FDC8A7"/>
<path d="M86.2464 455.583L37.6464 411.312L64.9064 383.562L86.3164 405.853L76.7864 417.723L86.2464 455.583Z" fill="#13004D"/>
<path d="M83.2264 430.782L75.2864 434.242L74.1664 434.722C73.7364 434.912 73.3464 434.272 73.7964 434.072L81.7264 430.622L82.8464 430.132C83.2864 429.942 83.6664 430.592 83.2264 430.782Z" fill="white"/>
<path d="M80.9764 424.273L73.0364 427.723L71.9164 428.213C71.4864 428.403 71.0964 427.753 71.5464 427.563L79.4764 424.113L80.5964 423.623C81.0364 423.433 81.4164 424.073 80.9764 424.273Z" fill="white"/>
<path d="M78.416 419.513C80.5303 420.29 82.6831 420.957 84.866 421.513C86.6723 421.981 88.5106 422.315 90.366 422.513C91.8769 422.763 93.4255 422.654 94.886 422.193C95.3969 421.963 95.8201 421.575 96.0925 421.086C96.365 420.596 96.4721 420.032 96.3979 419.477C96.3237 418.921 96.0723 418.405 95.6809 418.004C95.2896 417.604 94.7793 417.34 94.226 417.253C91.296 416.513 87.876 417.413 85.036 418.153C82.7888 418.718 80.5781 419.419 78.416 420.253C77.966 420.423 77.776 419.703 78.216 419.533C80.2578 418.752 82.3409 418.085 84.456 417.533C87.526 416.713 91.196 415.753 94.366 416.533C94.9156 416.624 95.4347 416.847 95.8789 417.183C96.3231 417.52 96.679 417.959 96.916 418.463C97.1418 419.059 97.2126 419.703 97.1216 420.335C97.0307 420.966 96.781 421.564 96.396 422.073C95.3793 422.97 94.0497 423.43 92.696 423.353C90.8194 423.385 88.9458 423.19 87.116 422.773C84.0878 422.172 81.1118 421.333 78.216 420.263C77.766 420.063 77.966 419.343 78.416 419.513Z" fill="white"/>
<path d="M92.2872 410.732L79.7671 418.972L77.9571 420.162C77.5471 420.422 77.1771 419.772 77.5771 419.512L90.0972 411.272L91.9072 410.082C92.3172 409.812 92.6872 410.462 92.2872 410.732Z" fill="white"/>
<path d="M147.346 241.604C147.346 241.604 171.616 298.164 166.676 319.174C161.736 340.184 129.016 373.174 96.9064 399.544L73.7465 373.424L101.746 325.044L89.4064 246.894L146.496 242.954" fill="#0A4DD0"/>
<path d="M81.7778 359.562L109.508 388.853" stroke="#13004D" stroke-miterlimit="10" stroke-linecap="round"/>
<path d="M148.867 349.373C135.317 365.823 115.997 383.843 96.8672 399.543L73.7072 373.423L101.707 325.043" stroke="#13004D" stroke-miterlimit="10" stroke-linecap="round"/>
<path d="M127.328 423.923L127.048 394.053L107.008 395.023L107.288 425.523L127.328 423.923Z" fill="#FDC8A7"/>
<path d="M166.678 454.292L100.948 454.452L102.308 415.582L133.158 417.562L134.148 432.752L166.678 454.292Z" fill="#13004D"/>
<path d="M147.677 438.122L144.157 446.012L143.657 447.142C143.457 447.582 142.816 447.202 143.006 446.762L146.526 438.872L147.026 437.742C147.216 437.302 147.867 437.682 147.677 438.122Z" fill="white"/>
<path d="M141.618 434.831L138.097 442.721L137.597 443.851C137.397 444.291 136.757 443.911 136.947 443.471L140.467 435.581L140.967 434.451C141.167 434.011 141.808 434.391 141.618 434.831Z" fill="white"/>
<path d="M136.617 432.943C138.7 432.073 140.736 431.095 142.717 430.013C144.334 429.158 145.888 428.189 147.367 427.113C148.638 426.277 149.702 425.162 150.477 423.853C150.729 423.333 150.792 422.741 150.655 422.179C150.518 421.616 150.19 421.12 149.727 420.773C149.33 420.429 148.833 420.221 148.31 420.18C147.786 420.139 147.263 420.266 146.817 420.543C145.571 421.257 144.471 422.2 143.577 423.323C142.481 424.61 141.479 425.974 140.577 427.403C139.291 429.364 138.119 431.398 137.067 433.493C136.857 433.923 136.207 433.493 136.427 433.113C137.401 431.165 138.483 429.272 139.667 427.443C140.621 425.915 141.68 424.455 142.837 423.073C143.796 421.838 144.976 420.79 146.317 419.983C146.806 419.662 147.369 419.474 147.953 419.435C148.536 419.397 149.12 419.51 149.647 419.763C150.209 420.075 150.679 420.527 151.012 421.076C151.346 421.625 151.53 422.251 151.547 422.893C151.295 424.274 150.549 425.515 149.447 426.383C148.044 427.646 146.508 428.752 144.867 429.683C142.302 431.21 139.628 432.547 136.867 433.683C136.367 433.853 136.177 433.123 136.617 432.943Z" fill="white"/>
<path d="M140.827 417.073L137.147 431.663L136.627 433.713C136.593 433.802 136.528 433.875 136.444 433.918C136.359 433.961 136.262 433.972 136.17 433.946C136.079 433.921 136 433.863 135.949 433.783C135.899 433.703 135.88 433.606 135.897 433.513L139.587 418.923L140.107 416.873C140.217 416.413 140.947 416.603 140.827 417.073Z" fill="white"/>
<path d="M101.528 437.963C103.516 438.041 105.463 438.551 107.234 439.457C109.004 440.363 110.557 441.643 111.783 443.209C113.01 444.775 113.881 446.59 114.336 448.526C114.791 450.462 114.819 452.475 114.418 454.423H100.948L101.528 437.963Z" fill="white"/>
<path d="M82.0771 249.163C82.4971 250.073 98.0771 405.663 98.0771 405.663H135.077L135.407 389.563L138.367 246.133L82.0771 249.163Z" fill="#0A4DD0" stroke="#13004D" stroke-miterlimit="10" stroke-linecap="round"/>
<path d="M117.168 249.252C117.168 249.252 116.668 267.772 99.908 267.562" stroke="#13004D" stroke-miterlimit="10" stroke-linecap="round"/>
<path d="M114.758 390.002L110.378 264.252" stroke="#13004D" stroke-miterlimit="10" stroke-linecap="round"/>
<path d="M96.7677 390.433L135.428 389.562" stroke="#13004D" stroke-miterlimit="10" stroke-linecap="round"/>
<path d="M214.048 150.202L227.908 131.352C228.751 131.277 229.567 131.021 230.303 130.602C231.038 130.182 231.674 129.609 232.168 128.922C233.828 126.582 234.328 124.022 233.168 122.922C232.008 121.822 231.458 122.062 231.458 122.062C231.458 122.062 230.808 121.962 230.608 120.972C230.408 119.982 228.728 119.242 228.728 119.242L227.878 119.322C227.878 119.322 227.548 119.322 227.288 118.322C227.028 117.322 225.188 116.592 225.188 116.592H224.428C224.428 116.592 227.748 109.422 227.878 106.972C228.008 104.522 225.878 102.582 223.538 105.372C221.198 108.162 217.998 115.372 217.998 115.372C217.074 115.14 216.102 115.194 215.209 115.526C214.316 115.858 213.545 116.453 212.998 117.232C210.898 119.992 203.998 131.232 203.998 131.232L200.298 140.142L214.048 150.202Z" fill="#FDC8A7"/>
<path d="M215.887 120.353C215.887 120.353 219.107 122.883 221.817 123.003C224.527 123.123 225.387 120.553 223.717 119.003C222.047 117.453 217.607 114.123 215.047 115.243C212.487 116.363 202.327 132.483 201.127 138.163" stroke="#FF8576" stroke-width="0.75" stroke-miterlimit="10" stroke-linecap="round"/>
<path d="M219.167 122.733C218.827 123.251 218.677 123.871 218.743 124.487C218.808 125.104 219.086 125.678 219.527 126.113C221.117 127.583 223.077 126.293 224.997 124.043C226.917 121.793 228.157 118.713 226.617 117.253C226.332 117.003 225.999 116.815 225.637 116.701C225.276 116.588 224.894 116.551 224.518 116.593C224.141 116.636 223.777 116.756 223.45 116.947C223.123 117.138 222.839 117.396 222.617 117.703" stroke="#FF8576" stroke-width="0.75" stroke-miterlimit="10" stroke-linecap="round"/>
<path d="M222.607 126.413C222.43 127.071 222.517 127.773 222.85 128.369C223.182 128.965 223.734 129.407 224.387 129.603C226.817 130.473 229.387 127.193 230.177 124.953C230.967 122.713 231.287 120.393 229.427 119.473C227.907 118.713 227.257 119.643 227.257 119.643" stroke="#FF8576" stroke-width="0.75" stroke-miterlimit="10" stroke-linecap="round"/>
<path d="M226.497 129.731C226.497 129.731 226.497 131.371 228.577 131.401C230.657 131.431 234.127 127.491 233.897 124.881C233.667 122.271 231.747 121.641 231.027 122.021" stroke="#FF8576" stroke-width="0.75" stroke-miterlimit="10" stroke-linecap="round"/>
<path d="M216.217 149.112L200.687 136.682L193.687 145.232L213.607 159.712L216.217 149.112Z" fill="white" stroke="#2ABBF0" stroke-miterlimit="10"/>
<path d="M194.777 140.033L218.697 158.783C218.697 158.783 213.247 200.873 185.947 212.463C158.647 224.053 137.947 213.343 134.117 196.193C130.287 179.043 123.587 157.553 123.587 157.553C123.587 157.553 143.767 170.143 161.227 166.173C178.687 162.203 194.777 140.033 194.777 140.033Z" fill="#E55E7B"/>
<path d="M194.777 140.033L218.697 158.783C218.222 161.979 217.574 165.147 216.757 168.273L188.137 147.933C190.49 145.42 192.706 142.783 194.777 140.033Z" fill="white"/>
<path d="M198.527 142.971C196.817 145.021 194.377 147.971 192.127 150.761L191.327 150.191C193.197 147.891 195.857 144.641 197.747 142.361L198.527 142.971Z" fill="#13004D"/>
<path d="M211.548 153.193L212.348 153.803L208.248 162.223L207.438 161.643L211.548 153.193Z" fill="#13004D"/>
<path d="M212.577 165.302L215.887 156.592L216.697 157.222L213.397 165.892L212.577 165.302Z" fill="#13004D"/>
<path d="M202.226 145.873L202.996 146.483L197.096 154.293L196.296 153.723L202.226 145.873Z" fill="#13004D"/>
<path d="M207.828 150.262L203.078 158.552L202.278 157.982L207.048 149.652L207.828 150.262Z" fill="#13004D"/>
<path d="M123.587 157.553C123.587 157.553 143.767 170.143 161.227 166.173C178.687 162.203 194.777 140.033 194.777 140.033L218.697 158.783" stroke="#13004D" stroke-miterlimit="10" stroke-linecap="round"/>
<path d="M122.627 154.922C122.627 154.922 133.207 159.712 141.807 173.422C148.137 183.502 160.137 223.812 156.137 258.422L76.7967 259.902L82.9467 189.732L107.947 154.912L122.627 154.922Z" fill="#E55E7B"/>
<path d="M156.137 258.404L76.7974 259.884L77.8574 247.784L156.857 246.264C156.837 250.354 156.597 254.414 156.137 258.404Z" fill="white"/>
<path d="M132.618 246.733L133.598 246.713V258.823L132.618 258.843V246.733Z" fill="#13004D"/>
<path d="M125.267 246.874L126.247 246.854L126.527 258.954L125.547 258.974L125.267 246.874Z" fill="#13004D"/>
<path d="M119.117 246.993L120.107 246.973V259.073L119.117 259.093V246.993Z" fill="#13004D"/>
<path d="M146.188 246.471L147.178 246.451L146.458 258.581L145.478 258.601L146.188 246.471Z" fill="#13004D"/>
<path d="M152.526 258.472H151.526C151.756 253.912 152.006 249.142 152.146 246.342H153.146C153.006 249.252 152.746 254.242 152.526 258.472Z" fill="#13004D"/>
<path d="M139.528 246.602L140.508 246.582L140.668 258.692L139.688 258.712L139.528 246.602Z" fill="#13004D"/>
<path d="M92.188 247.502L93.168 247.482V259.582L92.188 259.592V247.502Z" fill="#13004D"/>
<path d="M87.0083 247.602L87.9883 247.582L87.9283 259.672L86.9483 259.692L87.0083 247.602Z" fill="#13004D"/>
<path d="M80.5981 247.733L81.5781 247.713L80.5181 259.813L79.5381 259.833L80.5981 247.733Z" fill="#13004D"/>
<path d="M97.9966 247.393L98.9766 247.373V259.473L97.9966 259.483V247.393Z" fill="#13004D"/>
<path d="M105.307 247.252L106.287 247.232V259.332L105.307 259.352V247.252Z" fill="#13004D"/>
<path d="M112.758 247.112L113.738 247.092L113.358 259.202L112.378 259.222L112.758 247.112Z" fill="#13004D"/>
<path d="M122.627 154.922C122.627 154.922 133.207 159.712 141.807 173.422C148.137 183.502 160.137 223.812 156.137 258.422L76.7967 259.902L82.9467 189.732L107.947 154.912L122.627 154.922Z" stroke="#13004D" stroke-miterlimit="10"/>
<path d="M97.8474 241.813C97.8474 241.813 118.717 241.813 129.947 235.123C141.177 228.433 131.477 225.353 128.947 225.423C126.417 225.493 98.9474 227.013 98.9474 227.013L97.8474 241.813Z" fill="#FDC8A7"/>
<path d="M127.668 227.652C127.668 227.652 126.108 232.572 117.148 232.712" stroke="#FF8576" stroke-width="0.75" stroke-miterlimit="10" stroke-linecap="round"/>
<path d="M133.107 228.672C133.107 228.672 132.707 232.752 121.747 235.122" stroke="#FF8576" stroke-width="0.75" stroke-miterlimit="10" stroke-linecap="round"/>
<path d="M94.6277 224.264L100.598 225.644L99.6176 243.304L89.5876 244.344L94.6277 224.264Z" fill="white" stroke="#2ABBF0" stroke-miterlimit="10"/>
<path d="M107.947 154.922L94.6273 194.042C94.6273 194.042 79.3173 205.862 73.6273 213.042L95.7073 222.352L93.4873 245.002C93.4873 245.002 35.7273 268.732 33.0673 219.732C30.4073 170.732 107.947 154.922 107.947 154.922Z" fill="#E55E7B"/>
<path d="M93.5183 245.004L84.0283 248.064L86.8583 218.604L95.7383 222.354L93.5183 245.004Z" fill="white"/>
<path d="M94.578 229.123L85.918 228.353L86.018 227.373L95.168 228.183L94.588 234.103L85.438 233.303L85.538 232.323L94.188 233.083L94.578 229.123Z" fill="#13004D"/>
<path d="M84.9865 237.992L94.1465 238.612L93.6365 243.792L84.3565 244.632L84.4465 243.642L93.2365 242.842L93.5565 239.562L84.8965 238.972L84.9865 237.992Z" fill="#13004D"/>
<path d="M95.5077 224.712L86.4677 222.642L86.5576 221.662L95.5977 223.732L95.5077 224.712Z" fill="#13004D"/>
<path d="M58.8583 206.793L95.7383 222.353L93.5182 245.003C93.5182 245.003 35.7283 268.733 33.0683 219.733C32.1883 203.593 40.0683 191.043 50.9283 181.473" stroke="#13004D" stroke-miterlimit="10" stroke-linecap="round"/>
<path d="M94.627 194.043C94.627 194.043 79.317 205.863 73.627 213.043" stroke="#13004D" stroke-miterlimit="10" stroke-linecap="round"/>
<path d="M177.878 229.732L134.287 229.812C129.757 229.812 127.418 226.312 129.058 221.972L140.487 191.732C141.428 189.51 142.972 187.595 144.944 186.204C146.916 184.813 149.238 184.002 151.647 183.862L195.287 183.732C199.807 183.732 202.147 187.232 200.507 191.572L189.087 221.832C188.148 224.068 186.598 225.994 184.616 227.391C182.634 228.788 180.299 229.599 177.878 229.732Z" fill="#0F0D1D"/>
<path d="M173.538 204.393C173.07 205.976 172.124 207.375 170.829 208.4C169.535 209.424 167.956 210.022 166.308 210.113C163.158 210.113 161.308 207.573 162.118 204.413C162.585 202.831 163.531 201.431 164.826 200.407C166.12 199.383 167.7 198.785 169.348 198.693C172.498 198.733 174.368 201.243 173.538 204.393Z" stroke="white" stroke-miterlimit="10"/>
<path d="M146.185 229.844L105.255 229.915C103.852 229.918 102.713 228.783 102.71 227.38L102.708 225.94C102.705 224.537 103.841 223.398 105.243 223.396L146.173 223.324C147.576 223.322 148.715 224.457 148.718 225.86L148.72 227.3C148.723 228.702 147.588 229.842 146.185 229.844Z" fill="#0F0D1D"/>
<path d="M107.488 140.482C107.488 140.162 107.408 139.842 107.388 139.482L106.718 127.782C106.388 122.062 110.228 117.152 115.248 116.872L122.798 116.432C127.798 116.152 132.188 120.592 132.518 126.302L133.188 138.002C133.508 143.722 129.678 148.622 124.658 148.912L120.838 149.132L120.898 153.772C120.906 154.246 120.821 154.717 120.646 155.157C120.472 155.598 120.213 155.999 119.883 156.339C119.553 156.679 119.16 156.951 118.725 157.138C118.29 157.326 117.822 157.426 117.348 157.432L111.228 157.522C110.272 157.533 109.35 157.165 108.664 156.498C107.978 155.831 107.584 154.919 107.568 153.962C107.568 153.962 107.428 140.832 107.488 140.482Z" fill="#FDC8A7"/>
<path d="M117.627 131.023C117.647 131.358 117.766 131.679 117.968 131.947C118.171 132.214 118.448 132.416 118.765 132.526C119.082 132.637 119.424 132.651 119.749 132.567C120.074 132.482 120.367 132.304 120.591 132.054C120.814 131.804 120.959 131.493 121.006 131.161C121.054 130.829 121.002 130.49 120.857 130.187C120.712 129.885 120.481 129.631 120.193 129.46C119.904 129.288 119.572 129.206 119.237 129.223C119.012 129.234 118.793 129.29 118.59 129.387C118.387 129.484 118.206 129.62 118.056 129.787C117.907 129.955 117.792 130.15 117.718 130.362C117.644 130.574 117.613 130.799 117.627 131.023Z" fill="black"/>
<path d="M128.757 130.132C128.773 130.418 128.874 130.693 129.046 130.922C129.218 131.151 129.455 131.323 129.725 131.418C129.996 131.513 130.288 131.525 130.566 131.454C130.843 131.382 131.093 131.23 131.285 131.017C131.476 130.803 131.599 130.538 131.64 130.254C131.68 129.971 131.636 129.681 131.512 129.423C131.388 129.164 131.19 128.948 130.944 128.802C130.697 128.656 130.413 128.586 130.127 128.602C129.936 128.612 129.75 128.66 129.577 128.742C129.405 128.825 129.251 128.94 129.124 129.082C128.997 129.224 128.899 129.39 128.836 129.57C128.773 129.75 128.746 129.941 128.757 130.132Z" fill="black"/>
<path d="M127.527 137.193C127.527 137.193 126.817 139.733 125.017 140.003C123.217 140.273 121.687 138.353 121.497 136.803L127.527 137.193Z" fill="white"/>
<path d="M125.946 128.871C126.537 130.282 127.282 131.623 128.166 132.871C128.194 132.921 128.21 132.976 128.214 133.033C128.218 133.089 128.209 133.146 128.188 133.199C128.167 133.252 128.134 133.299 128.092 133.338C128.05 133.376 128 133.405 127.946 133.421L126.076 133.711C125.983 133.728 125.886 133.709 125.806 133.659C125.726 133.608 125.668 133.529 125.642 133.438C125.617 133.346 125.627 133.249 125.671 133.164C125.714 133.08 125.787 133.015 125.876 132.981L127.746 132.691L127.516 133.241C126.629 131.995 125.884 130.653 125.296 129.241C125.248 129.156 125.234 129.055 125.258 128.96C125.283 128.865 125.343 128.783 125.426 128.731C125.468 128.705 125.516 128.687 125.565 128.679C125.615 128.671 125.665 128.673 125.714 128.685C125.762 128.697 125.808 128.719 125.848 128.749C125.888 128.78 125.921 128.818 125.946 128.861V128.871Z" fill="#FF8576"/>
<path d="M116.826 128.572C117.392 128.253 117.988 127.992 118.606 127.792C118.703 127.767 118.805 127.78 118.893 127.828C118.98 127.876 119.046 127.957 119.076 128.052C119.098 128.15 119.083 128.252 119.033 128.34C118.983 128.427 118.902 128.492 118.806 128.522C118.66 128.563 118.516 128.613 118.376 128.672L118.166 128.742L118.066 128.792C117.788 128.912 117.518 129.049 117.256 129.202C117.214 129.227 117.168 129.244 117.119 129.251C117.071 129.258 117.021 129.255 116.974 129.243C116.926 129.231 116.882 129.21 116.843 129.18C116.804 129.151 116.771 129.114 116.746 129.072C116.697 128.985 116.683 128.883 116.708 128.786C116.732 128.689 116.792 128.605 116.876 128.552L116.826 128.572Z" fill="#903E3E"/>
<path d="M129.217 127.062C129.812 127.06 130.406 127.093 130.997 127.162C131.096 127.166 131.19 127.208 131.26 127.278C131.33 127.349 131.372 127.442 131.377 127.542C131.377 127.722 131.207 127.942 130.997 127.912C130.406 127.843 129.812 127.81 129.217 127.812C129.163 127.821 129.107 127.818 129.054 127.803C129.001 127.788 128.951 127.762 128.909 127.726C128.867 127.691 128.834 127.646 128.811 127.596C128.787 127.546 128.776 127.492 128.776 127.437C128.776 127.382 128.787 127.327 128.811 127.277C128.834 127.227 128.867 127.183 128.909 127.147C128.951 127.111 129.001 127.085 129.054 127.071C129.107 127.056 129.163 127.053 129.217 127.062Z" fill="#903E3E"/>
<path d="M109.147 135.613L110.017 126.363C110.017 126.363 137.017 131.033 138.147 116.243C138.837 106.853 127.047 102.963 118.487 108.133C118.487 108.133 101.687 107.533 96.6169 117.963C91.5469 128.393 96.5569 135.733 107.487 145.593L107.387 139.513L109.147 135.613Z" fill="#B86955"/>
<path d="M97.9677 137.023C98.0444 138.122 98.4459 139.174 99.1213 140.044C99.7967 140.915 100.716 141.565 101.761 141.913C102.807 142.26 103.932 142.289 104.994 141.996C106.056 141.702 107.007 141.1 107.726 140.266C108.445 139.431 108.9 138.402 109.033 137.308C109.167 136.214 108.972 135.106 108.474 134.123C107.976 133.14 107.197 132.327 106.236 131.788C105.275 131.249 104.176 131.007 103.078 131.093C101.614 131.203 100.254 131.89 99.2961 133.001C98.338 134.113 97.8603 135.56 97.9677 137.023Z" fill="#FDC8A7"/>
<path d="M106.137 137.083C106.142 137.053 106.142 137.023 106.137 136.993V136.893C106.137 136.833 106.137 136.693 106.137 136.823C106.095 136.544 106.028 136.27 105.937 136.003C105.943 135.966 105.943 135.929 105.937 135.893C105.937 135.893 105.877 135.733 105.937 135.833C105.937 135.753 105.867 135.673 105.817 135.583L105.687 135.353C105.661 135.322 105.637 135.288 105.617 135.253V135.193L105.427 134.983L105.307 134.883V134.833C105.367 134.883 105.227 134.773 105.307 134.833L105.047 134.663L104.917 134.593H104.837H104.767C104.183 134.403 103.558 134.372 102.957 134.503C102.91 134.516 102.86 134.52 102.812 134.514C102.763 134.508 102.716 134.492 102.673 134.468C102.631 134.444 102.593 134.412 102.563 134.373C102.533 134.334 102.51 134.29 102.497 134.243C102.484 134.196 102.48 134.146 102.486 134.098C102.492 134.049 102.508 134.002 102.532 133.959C102.556 133.916 102.588 133.879 102.627 133.849C102.666 133.818 102.71 133.796 102.757 133.783C103.329 133.627 103.93 133.617 104.506 133.753C105.083 133.89 105.616 134.168 106.057 134.563C106.59 135.129 106.939 135.844 107.057 136.613C107.091 136.798 107.112 136.985 107.117 137.173C107.103 137.262 107.057 137.343 106.988 137.401C106.92 137.459 106.832 137.491 106.742 137.491C106.652 137.491 106.565 137.459 106.496 137.401C106.427 137.343 106.382 137.262 106.367 137.173L106.137 137.083Z" fill="#FF8576"/>
<path d="M110.757 156.373C110.757 157.703 113.117 158.783 116.017 158.783C118.917 158.783 121.287 157.733 121.287 156.373C121.287 155.013 118.937 153.963 116.037 153.963C113.137 153.963 110.757 155.043 110.757 156.373Z" fill="#E55E7B" stroke="#13004D" stroke-miterlimit="10"/>
<path d="M121.027 152.232C119.34 153.092 117.48 153.557 115.587 153.592C112.147 153.742 108.847 152.382 107.587 150.592L104.587 156.462L114.117 161.372L117.577 154.892L122.147 160.432L124.287 156.152L121.027 152.232Z" fill="white" stroke="#2ABBF0" stroke-miterlimit="10"/>
</g>
<defs>
<clipPath id="clip0_1516_131219">
<rect width="494" height="493" fill="white"/>
</clipPath>
</defs>
</svg>
