<svg width="494" height="457" viewBox="0 0 494 457" fill="none" xmlns="http://www.w3.org/2000/svg">
<g clip-path="url(#clip0_1_6207)">
<path d="M48.9593 440.256C48.9593 440.256 19.3087 423.63 15 364.631C15 278 74.6289 296.087 64.1815 246.935C49.5996 178.371 78.0953 137.517 142 140.332C195.883 142.711 190.131 184.822 218.956 148.62C250.046 109.546 308.2 80.666 365.753 104.875C423.306 129.083 395.459 207.735 435.254 224.448C475.049 241.161 499.778 285.245 492.836 346.255C486.329 403.464 451.908 441.484 402.963 440.904C378.979 440.623 305.246 441.223 221.589 440.904C134.524 440.546 48.9593 440.256 48.9593 440.256Z" fill="#DEE3FF"/>
<path d="M143.826 84.3006C143.826 84.3006 127.716 53.2506 155.216 38.3006C184.816 22.2106 207.506 52.1106 200.516 76.7306C193.526 101.351 152.406 100.241 143.826 84.3006Z" fill="#DEE3FF"/>
<path d="M345.837 440.76C337.587 441.34 304.267 441.87 310.167 413.65C313.167 399.24 305.507 397.65 298.097 390.38C290.687 383.11 291.577 379.53 293.847 371.58C296.117 363.63 285.907 366.34 283.927 354.37C281.947 342.4 289.427 332.37 302.347 332.44C315.267 332.51 312.347 345.91 316.587 350.87C320.827 355.83 327.327 351.26 331.637 363.06C335.947 374.86 329.637 381.91 337.937 386.52C339.595 387.481 341.147 388.614 342.567 389.9" stroke="#7189FF" stroke-miterlimit="10"/>
<path d="M331.967 408.661C325.574 395.661 318.824 382.847 311.717 370.221C309.304 365.954 306.864 361.704 304.397 357.471C304.347 357.385 304.281 357.311 304.202 357.251C304.123 357.191 304.034 357.147 303.938 357.122C303.842 357.097 303.743 357.091 303.645 357.105C303.547 357.118 303.452 357.151 303.367 357.201C303.282 357.25 303.207 357.317 303.147 357.395C303.087 357.474 303.044 357.564 303.019 357.66C302.994 357.755 302.988 357.855 303.001 357.953C303.015 358.051 303.047 358.145 303.097 358.231C311.097 371.831 318.667 385.651 325.807 399.691C327.447 402.917 329.07 406.161 330.677 409.421C331.097 410.291 332.397 409.531 331.967 408.661Z" fill="#7189FF"/>
<path d="M298.966 381.63L315.436 383.34L317.806 383.59C318.806 383.69 318.806 382.19 317.806 382.09L301.336 380.38L298.966 380.13C297.966 380.03 298.016 381.53 298.966 381.63Z" fill="#7189FF"/>
<path d="M305.548 372.08C305.629 372.659 305.532 373.249 305.269 373.771C305.007 374.293 304.591 374.722 304.078 375.001C303.564 375.28 302.978 375.396 302.397 375.333C301.816 375.27 301.268 375.032 300.826 374.649C300.385 374.266 300.07 373.758 299.926 373.192C299.781 372.625 299.812 372.029 300.016 371.481C300.219 370.933 300.585 370.46 301.064 370.126C301.544 369.792 302.114 369.612 302.698 369.61C303.403 369.561 304.099 369.793 304.634 370.256C305.168 370.719 305.497 371.375 305.548 372.08Z" stroke="#7189FF" stroke-miterlimit="10"/>
<path d="M311.896 349.889C311.611 350.376 311.187 350.767 310.679 351.013C310.171 351.259 309.601 351.348 309.042 351.27C308.483 351.192 307.96 350.949 307.539 350.573C307.118 350.197 306.818 349.704 306.678 349.157C306.537 348.61 306.562 348.034 306.749 347.502C306.937 346.969 307.278 346.504 307.73 346.166C308.182 345.828 308.724 345.631 309.288 345.602C309.852 345.572 310.411 345.71 310.896 345.999C311.543 346.384 312.011 347.009 312.198 347.738C312.385 348.467 312.277 349.24 311.896 349.889Z" stroke="#7189FF" stroke-miterlimit="10"/>
<path d="M323.367 414.499C323.473 415.224 323.355 415.964 323.028 416.619C322.702 417.275 322.183 417.815 321.541 418.167C320.899 418.519 320.164 418.666 319.436 418.589C318.707 418.512 318.02 418.214 317.466 417.735C316.912 417.256 316.518 416.619 316.337 415.909C316.155 415.2 316.195 414.451 316.451 413.765C316.707 413.079 317.166 412.487 317.768 412.07C318.369 411.652 319.084 411.429 319.817 411.429C320.693 411.371 321.557 411.661 322.222 412.236C322.886 412.81 323.298 413.623 323.367 414.499Z" stroke="#7189FF" stroke-miterlimit="10"/>
<path d="M306.816 342.591C306.832 342.767 306.811 342.943 306.754 343.11C306.698 343.277 306.607 343.431 306.488 343.561C306.369 343.691 306.225 343.795 306.063 343.866C305.902 343.937 305.728 343.974 305.551 343.974C305.375 343.974 305.201 343.937 305.039 343.866C304.878 343.795 304.733 343.691 304.614 343.561C304.495 343.431 304.405 343.277 304.348 343.11C304.292 342.943 304.271 342.767 304.286 342.591C304.314 342.275 304.46 341.981 304.694 341.767C304.928 341.552 305.234 341.434 305.551 341.434C305.869 341.434 306.174 341.552 306.409 341.767C306.643 341.981 306.788 342.275 306.816 342.591Z" stroke="#7189FF" stroke-miterlimit="10"/>
<path d="M386.948 438.02C380.118 433.15 379.438 402.25 407.438 396.02C421.738 392.83 419.438 385.67 422.338 376.46C425.238 367.25 428.848 366.58 437.038 365.33C445.228 364.08 439.038 352.92 448.788 346.46C458.538 340 471.548 339.51 476.408 353.63C480.518 365.58 468.868 370.85 466.488 376.41C464.108 381.97 471.028 389.48 462.598 397.86C454.168 406.24 445.148 399.93 445.038 408.81C444.928 417.69 441.038 433.87 432.428 437.2C421.838 441.29 392.338 441.86 386.948 438.02Z" stroke="#7189FF" stroke-miterlimit="10"/>
<path d="M396.469 441.501C400.269 436.971 404.209 432.561 408.009 428.031C417.422 416.851 426.612 405.487 435.579 393.941C442.065 385.581 448.439 377.131 454.699 368.591C455.269 367.811 453.969 367.061 453.409 367.831C442.882 382.277 431.999 396.421 420.759 410.261C413.752 418.927 406.609 427.497 399.329 435.971C398.029 437.481 396.689 438.971 395.409 440.481C394.789 441.221 395.849 442.281 396.469 441.541V441.501Z" fill="#7189FF"/>
<path d="M411.487 394.5C410.857 389.33 411.957 386.12 411.487 381.36C409.597 362.22 435.987 370.78 446.487 346.2C456.987 321.62 431.267 312.7 443.367 302.42C455.467 292.14 458.847 256.81 441.127 250.73C418.127 242.85 397.487 257.26 394.677 276.24C392.517 290.88 402.327 301.1 376.787 311.83C351.247 322.56 355.187 335.89 360.437 361.38C365.687 386.87 348.437 377.521 335.007 399.031C324.377 416.031 339.317 433.47 346.007 439.95L397.707 440.84" stroke="#7189FF" stroke-miterlimit="10"/>
<path d="M356.527 440.001L362.867 425.421C368.081 413.474 373.297 401.554 378.517 389.661C385.184 374.481 391.897 359.318 398.657 344.171C405.177 329.551 411.771 314.964 418.437 300.411C423.167 290.131 427.877 279.821 433.067 269.771L434.267 267.491C434.727 266.641 433.427 265.881 432.977 266.731C428.027 275.971 423.677 285.551 419.267 295.051C412.677 309.261 406.267 323.541 399.847 337.831C393.021 353.111 386.241 368.408 379.507 383.721C373.994 396.221 368.511 408.734 363.057 421.261C360.487 427.161 357.757 433.031 355.337 439.001C355.337 439.091 355.267 439.171 355.237 439.251C354.857 440.121 356.147 440.891 356.527 440.001Z" fill="#7189FF"/>
<path d="M403.627 332.371L433.997 330.691L438.297 330.451C439.297 330.391 439.297 328.891 438.297 328.951L407.927 330.631L403.627 330.871C402.627 330.921 402.627 332.421 403.627 332.371Z" fill="#7189FF"/>
<path d="M368.517 410.996L385.993 408.643L388.454 408.312C389.182 408.216 389.182 406.909 388.454 407.005L371.015 409.349L368.546 409.689C367.818 409.776 367.818 411.083 368.546 410.996H368.517Z" fill="#7189FF"/>
<path d="M365.377 324.62L372.257 340.08L383.257 364.71L385.767 370.34C386.167 371.22 387.457 370.46 387.067 369.58L380.177 354.12L369.177 329.5L366.687 323.86C366.297 322.98 365.007 323.75 365.397 324.62H365.377Z" fill="#7189FF"/>
<path d="M415.396 272.101C413.696 274.591 410.746 275.531 408.806 274.211C406.866 272.891 406.656 269.791 408.346 267.301C410.036 264.811 412.996 263.871 414.936 265.191C416.876 266.511 417.086 269.611 415.396 272.101Z" stroke="#7189FF" stroke-miterlimit="10"/>
<path d="M416.686 285.56C416.686 286.03 416.546 286.491 416.285 286.882C416.023 287.273 415.651 287.578 415.217 287.759C414.782 287.939 414.303 287.986 413.842 287.894C413.38 287.802 412.956 287.575 412.623 287.243C412.29 286.91 412.063 286.486 411.972 286.024C411.88 285.562 411.927 285.084 412.107 284.649C412.287 284.214 412.592 283.842 412.984 283.581C413.375 283.319 413.835 283.18 414.306 283.18C414.937 283.18 415.542 283.43 415.989 283.877C416.435 284.323 416.686 284.928 416.686 285.56Z" stroke="#7189FF" stroke-miterlimit="10"/>
<path d="M433.916 347.03C433.916 347.946 433.645 348.841 433.136 349.603C432.627 350.364 431.904 350.958 431.058 351.308C430.212 351.658 429.281 351.75 428.383 351.571C427.485 351.393 426.66 350.952 426.012 350.304C425.365 349.657 424.924 348.832 424.745 347.934C424.567 347.036 424.658 346.105 425.009 345.259C425.359 344.413 425.953 343.689 426.714 343.181C427.475 342.672 428.371 342.4 429.286 342.4C430.514 342.4 431.692 342.888 432.56 343.757C433.428 344.625 433.916 345.802 433.916 347.03Z" stroke="#7189FF" stroke-miterlimit="10"/>
<path d="M236.078 441.01C237.398 436.26 237.438 431.01 238.028 426.5C239.298 416.8 253.338 424.79 262.368 414.19C271.398 403.59 257.788 395.52 265.978 392.19C274.168 388.86 279.728 373.63 271.058 366.42C260.338 357.5 245.308 363.42 241.358 372.34C238.358 379.23 242.678 385.67 226.748 387.34C210.818 389.01 211.438 396.1 211.298 409.4C211.158 422.7 202.448 415.63 192.128 424.31C186.278 429.22 187.888 436.09 190.378 441.13" stroke="#7189FF" stroke-miterlimit="10"/>
<path d="M204.586 441.96C212.399 432.927 220.239 423.927 228.106 414.96C237.106 404.74 246.056 394.53 255.236 384.5C258.516 380.91 261.786 377.3 265.236 373.91C265.936 373.24 264.876 372.18 264.176 372.85C256.746 380.05 249.956 387.98 243.076 395.7C233.743 406.167 224.476 416.707 215.276 427.32C211.336 431.84 207.406 436.367 203.486 440.9C202.856 441.62 203.916 442.69 204.546 441.96H204.586Z" fill="#7189FF"/>
<path d="M239.458 401.58L256.988 405.08L259.518 405.59C260.458 405.78 260.858 404.33 259.918 404.14L242.388 400.64L239.858 400.13C238.918 399.94 238.518 401.39 239.458 401.58Z" fill="#7189FF"/>
<path d="M218.347 392.049L223.597 414.239L224.357 417.469C224.577 418.409 226.027 418.009 225.807 417.069L220.557 394.879L219.787 391.649C219.567 390.709 218.117 391.109 218.347 392.049Z" fill="#7189FF"/>
<path d="M253.686 373.23C253.13 373.701 252.431 373.967 251.703 373.985C250.976 374.004 250.264 373.772 249.686 373.33C248.736 372.4 249.006 370.85 250.276 369.86C250.832 369.391 251.532 369.127 252.26 369.11C252.987 369.094 253.699 369.327 254.276 369.77C255.256 370.7 254.986 372.25 253.686 373.23Z" stroke="#7189FF" stroke-miterlimit="10"/>
<path d="M255.077 412.78C255.021 413.34 254.796 413.87 254.431 414.298C254.066 414.727 253.578 415.033 253.034 415.177C252.49 415.32 251.914 415.294 251.385 415.101C250.856 414.909 250.399 414.559 250.075 414.099C249.75 413.638 249.574 413.09 249.57 412.527C249.566 411.964 249.735 411.414 250.053 410.949C250.371 410.484 250.823 410.128 251.35 409.928C251.876 409.728 252.451 409.694 252.997 409.83C253.663 409.947 254.256 410.323 254.645 410.876C255.035 411.429 255.19 412.113 255.077 412.78Z" stroke="#7189FF" stroke-miterlimit="10"/>
<path d="M395.5 274.641H167.427C165.621 274.641 163.889 273.923 162.612 272.646C161.335 271.369 160.617 269.637 160.617 267.831V59.1909C160.617 57.3847 161.335 55.6526 162.612 54.3755C163.889 53.0983 165.621 52.3809 167.427 52.3809H453.187C454.993 52.3809 456.725 53.0983 458.003 54.3755C459.28 55.6526 459.997 57.3847 459.997 59.1909V267.83C459.997 269.636 458.71 271.368 457.433 272.645C456.487 273.592 455.291 274.231 454 274.498" stroke="#F2718D" stroke-miterlimit="10"/>
<path d="M460 57.3127V72H161V57.3127C161 54.3806 163.509 52 166.611 52H454.389C457.499 52 460 54.3806 460 57.3127Z" fill="white" stroke="#E54985" stroke-miterlimit="10"/>
<path fill-rule="evenodd" clip-rule="evenodd" d="M438.346 26.5799C439.667 27.2715 440.892 28.1357 441.986 29.1499L445.876 27.7599L449.536 33.5299L446.626 36.4999C447.07 37.9236 447.326 39.3996 447.386 40.8899L451.116 42.6599L449.616 49.3199H445.496C444.804 50.6418 443.94 51.8659 442.926 52.9599L444.316 56.8499L438.546 60.4999L435.616 57.5899C434.192 58.0347 432.716 58.2903 431.226 58.3499L429.456 62.0799L422.786 60.5799V56.4599C421.462 55.766 420.235 54.902 419.136 53.8899L415.246 55.2799L411.596 49.4999L414.506 46.5699C414.061 45.1463 413.805 43.6703 413.746 42.1799L410.016 40.4099L411.516 33.7499H415.686C416.377 32.428 417.241 31.204 418.256 30.1099L416.866 26.2099L422.586 22.4999L425.516 25.4099C426.939 24.9651 428.415 24.7096 429.906 24.6499L431.676 20.9199L438.336 22.4199V26.5399L438.346 26.5799ZM432.476 34.4299C431.061 34.1107 429.583 34.2184 428.23 34.7393C426.876 35.2602 425.707 36.1709 424.872 37.3562C424.036 38.5415 423.571 39.9481 423.535 41.398C423.499 42.8479 423.893 44.2759 424.669 45.5013C425.445 46.7266 426.567 47.6943 427.893 48.2818C429.219 48.8693 430.689 49.0503 432.118 48.8018C433.547 48.5532 434.87 47.8864 435.92 46.8857C436.97 45.8849 437.699 44.5953 438.016 43.1799C438.439 41.2851 438.094 39.2996 437.055 37.6591C436.017 36.0186 434.37 34.8573 432.476 34.4299Z" fill="#F2718D"/>
<path fill-rule="evenodd" clip-rule="evenodd" d="M104.93 7.12C106.608 7.99733 108.161 9.09359 109.55 10.38L114.49 8.62L119.12 15.94L115.43 19.65C116.005 21.455 116.341 23.3276 116.43 25.22L121.16 27.46L119.26 35.92H114.03C113.153 37.5975 112.056 39.1511 110.77 40.54L112.53 45.47L105.21 50.11L101.5 46.42C99.6962 47.0002 97.8229 47.3365 95.93 47.42L93.68 52.15L85.23 50.26V45.02C83.5507 44.1497 81.9966 43.0564 80.61 41.77L75.67 43.53L71.04 36.21L74.73 32.49C74.1539 30.6886 73.8177 28.8192 73.73 26.93L69 24.68L70.9 16.23H76.14C77.0103 14.5507 78.1036 12.9966 79.39 11.61L77.63 6.67L84.95 2.03L88.67 5.73C90.4714 5.15391 92.3408 4.81768 94.23 4.73L96.48 0L104.93 1.89999V7.13V7.12ZM97.48 17.06C95.6857 16.6498 93.81 16.7812 92.0904 17.4377C90.3709 18.0942 88.8847 19.2462 87.8203 20.7478C86.7558 22.2494 86.1609 24.0331 86.1108 25.873C86.0608 27.713 86.5578 29.5264 87.539 31.0837C88.5202 32.641 89.9414 33.8721 91.6227 34.6212C93.304 35.3702 95.1698 35.6035 96.9838 35.2915C98.7978 34.9795 100.478 34.1363 101.813 32.8686C103.147 31.6008 104.075 29.9656 104.48 28.17C105.018 25.769 104.584 23.2525 103.272 21.1707C101.961 19.0888 99.8781 17.6109 97.48 17.06Z" stroke="#EC4E70" stroke-miterlimit="10"/>
<path fill-rule="evenodd" clip-rule="evenodd" d="M330.207 268.14C331.317 268.724 332.345 269.45 333.267 270.3L336.527 269.13L339.597 273.98L337.147 276.43C337.531 277.625 337.749 278.866 337.797 280.12L340.927 281.6L339.687 287.2H336.227C335.646 288.308 334.919 289.333 334.067 290.25L335.227 293.52L330.387 296.59L327.927 294.14C326.736 294.523 325.498 294.742 324.247 294.79L322.757 297.92L317.167 296.66V293.2C316.058 292.616 315.029 291.89 314.107 291.04L310.847 292.2L307.777 287.36L310.217 284.9C309.842 283.707 309.627 282.47 309.577 281.22L306.447 279.73L307.707 274.14H311.167C311.751 273.03 312.477 272.002 313.327 271.08L312.157 267.82L317.007 264.75L319.457 267.19C320.654 266.815 321.894 266.599 323.147 266.55L324.627 263.42L330.227 264.68V268.14H330.207ZM325.277 274.73C324.091 274.463 322.851 274.554 321.716 274.991C320.581 275.428 319.601 276.192 318.901 277.187C318.2 278.181 317.81 279.36 317.779 280.576C317.749 281.792 318.08 282.99 318.73 284.018C319.38 285.046 320.321 285.858 321.433 286.351C322.544 286.845 323.778 286.997 324.976 286.79C326.175 286.582 327.285 286.024 328.166 285.186C329.047 284.347 329.66 283.267 329.927 282.08C330.106 281.292 330.127 280.476 329.99 279.68C329.853 278.884 329.56 278.122 329.128 277.44C328.696 276.757 328.134 276.166 327.473 275.701C326.812 275.236 326.066 274.906 325.277 274.73Z" fill="#EC4E70"/>
<path d="M3.05817 441.959H471.139C477.463 441.959 483.787 442.051 490.11 441.959H490.95C491.229 441.959 491.496 441.858 491.692 441.678C491.889 441.497 492 441.253 492 440.998C492 440.743 491.889 440.499 491.692 440.319C491.496 440.139 491.229 440.038 490.95 440.038H22.8695C16.5456 440.038 10.2134 439.953 3.88959 440.038H3.04977C2.77136 440.038 2.50434 440.139 2.30747 440.319C2.1106 440.499 2 440.743 2 440.998C2 441.253 2.1106 441.497 2.30747 441.678C2.50434 441.858 2.77136 441.959 3.04977 441.959H3.05817Z" fill="#0F0D1D"/>
<path d="M200.207 125.5H421.167C426.978 125.5 431.688 130.21 431.688 136.02V142.98C431.688 148.79 426.978 153.5 421.167 153.5H200.207C194.397 153.5 189.688 148.79 189.688 142.98V136.02C189.688 130.21 194.397 125.5 200.207 125.5Z" fill="white" stroke="#F2718D"/>
<path d="M421.167 178H200.207C194.121 178 189.188 182.934 189.188 189.02V219.98C189.188 226.066 194.121 231 200.207 231H421.167C427.254 231 432.188 226.066 432.188 219.98V189.02C432.188 182.934 427.254 178 421.167 178Z" stroke="#F2718D" stroke-miterlimit="10"/>
<path d="M201.535 87.0842V89.9913H197.589V101.98H193.96V89.9913H190.013V87.0842H201.535ZM210.635 90.0125C211.993 90.0125 213.082 90.4652 213.903 91.3706C214.723 92.2618 215.134 93.4926 215.134 95.0628V101.98H211.526V95.5509C211.526 94.7587 211.321 94.1433 210.911 93.7048C210.501 93.2662 209.949 93.047 209.256 93.047C208.562 93.047 208.011 93.2662 207.601 93.7048C207.19 94.1433 206.985 94.7587 206.985 95.5509V101.98H203.357V86.2779H206.985V91.7313C207.353 91.2079 207.855 90.7906 208.492 90.4794C209.128 90.1682 209.843 90.0125 210.635 90.0125ZM228.817 95.8692C228.817 96.2087 228.795 96.5624 228.753 96.9302H220.541C220.597 97.6658 220.831 98.2316 221.241 98.6278C221.666 99.0097 222.182 99.2007 222.79 99.2007C223.696 99.2007 224.325 98.8187 224.679 98.0548H228.541C228.343 98.8329 227.982 99.5331 227.459 100.156C226.949 100.778 226.306 101.266 225.528 101.62C224.749 101.973 223.879 102.15 222.918 102.15C221.758 102.15 220.725 101.903 219.819 101.408C218.914 100.912 218.207 100.205 217.697 99.2856C217.188 98.366 216.934 97.2909 216.934 96.0602C216.934 94.8294 217.181 93.7543 217.676 92.8348C218.186 91.9152 218.893 91.2079 219.798 90.7128C220.704 90.2177 221.743 89.9701 222.918 89.9701C224.063 89.9701 225.082 90.2106 225.973 90.6916C226.864 91.1726 227.558 91.8587 228.053 92.7499C228.562 93.6411 228.817 94.6809 228.817 95.8692ZM225.103 94.9143C225.103 94.2919 224.891 93.7967 224.467 93.4289C224.042 93.0611 223.512 92.8772 222.875 92.8772C222.267 92.8772 221.75 93.054 221.326 93.4077C220.916 93.7614 220.661 94.2636 220.562 94.9143H225.103ZM242.824 101.98L239.726 96.3572H238.856V101.98H235.228V87.0842H241.318C242.492 87.0842 243.489 87.2893 244.31 87.6996C245.144 88.1098 245.767 88.6757 246.177 89.3972C246.587 90.1045 246.792 90.8967 246.792 91.7738C246.792 92.764 246.509 93.6482 245.944 94.4262C245.392 95.2043 244.571 95.756 243.482 96.0814L246.92 101.98H242.824ZM238.856 93.7897H241.105C241.77 93.7897 242.265 93.627 242.591 93.3016C242.93 92.9762 243.1 92.5165 243.1 91.9223C243.1 91.3565 242.93 90.9108 242.591 90.5855C242.265 90.2601 241.77 90.0974 241.105 90.0974H238.856V93.7897ZM260.232 95.8692C260.232 96.2087 260.211 96.5624 260.168 96.9302H251.956C252.013 97.6658 252.246 98.2316 252.656 98.6278C253.081 99.0097 253.597 99.2007 254.205 99.2007C255.111 99.2007 255.74 98.8187 256.094 98.0548H259.956C259.758 98.8329 259.397 99.5331 258.874 100.156C258.364 100.778 257.721 101.266 256.943 101.62C256.165 101.973 255.295 102.15 254.333 102.15C253.173 102.15 252.14 101.903 251.235 101.408C250.329 100.912 249.622 100.205 249.113 99.2856C248.603 98.366 248.349 97.2909 248.349 96.0602C248.349 94.8294 248.596 93.7543 249.091 92.8348C249.601 91.9152 250.308 91.2079 251.213 90.7128C252.119 90.2177 253.159 89.9701 254.333 89.9701C255.479 89.9701 256.497 90.2106 257.388 90.6916C258.28 91.1726 258.973 91.8587 259.468 92.7499C259.977 93.6411 260.232 94.6809 260.232 95.8692ZM256.518 94.9143C256.518 94.2919 256.306 93.7967 255.882 93.4289C255.457 93.0611 254.927 92.8772 254.29 92.8772C253.682 92.8772 253.166 93.054 252.741 93.4077C252.331 93.7614 252.076 94.2636 251.977 94.9143H256.518ZM265.775 91.8162C266.128 91.2645 266.616 90.8189 267.239 90.4794C267.861 90.1399 268.59 89.9701 269.424 89.9701C270.4 89.9701 271.285 90.2177 272.077 90.7128C272.869 91.2079 273.491 91.9152 273.944 92.8348C274.411 93.7543 274.644 94.8223 274.644 96.0389C274.644 97.2555 274.411 98.3307 273.944 99.2643C273.491 100.184 272.869 100.898 272.077 101.408C271.285 101.903 270.4 102.15 269.424 102.15C268.604 102.15 267.875 101.98 267.239 101.641C266.616 101.301 266.128 100.863 265.775 100.325V107.625H262.146V90.1399H265.775V91.8162ZM270.952 96.0389C270.952 95.1336 270.698 94.4262 270.188 93.917C269.693 93.3936 269.078 93.1318 268.342 93.1318C267.621 93.1318 267.005 93.3936 266.496 93.917C266.001 94.4404 265.753 95.1548 265.753 96.0602C265.753 96.9655 266.001 97.6799 266.496 98.2034C267.005 98.7268 267.621 98.9885 268.342 98.9885C269.064 98.9885 269.679 98.7268 270.188 98.2034C270.698 97.6658 270.952 96.9443 270.952 96.0389ZM281.938 102.15C280.778 102.15 279.731 101.903 278.797 101.408C277.878 100.912 277.149 100.205 276.612 99.2856C276.088 98.366 275.827 97.2909 275.827 96.0602C275.827 94.8436 276.095 93.7755 276.633 92.856C277.171 91.9223 277.906 91.2079 278.84 90.7128C279.773 90.2177 280.82 89.9701 281.98 89.9701C283.14 89.9701 284.187 90.2177 285.121 90.7128C286.055 91.2079 286.79 91.9223 287.328 92.856C287.865 93.7755 288.134 94.8436 288.134 96.0602C288.134 97.2768 287.858 98.3519 287.306 99.2856C286.769 100.205 286.026 100.912 285.078 101.408C284.145 101.903 283.098 102.15 281.938 102.15ZM281.938 99.0097C282.631 99.0097 283.218 98.7551 283.699 98.2458C284.194 97.7365 284.442 97.008 284.442 96.0602C284.442 95.1123 284.201 94.3838 283.72 93.8745C283.254 93.3653 282.673 93.1106 281.98 93.1106C281.273 93.1106 280.686 93.3653 280.219 93.8745C279.752 94.3697 279.519 95.0982 279.519 96.0602C279.519 97.008 279.745 97.7365 280.198 98.2458C280.665 98.7551 281.245 99.0097 281.938 99.0097ZM293.688 92.1133C294.112 91.4626 294.643 90.9533 295.279 90.5855C295.916 90.2035 296.623 90.0125 297.401 90.0125V93.8533H296.404C295.498 93.8533 294.819 94.0514 294.367 94.4475C293.914 94.8294 293.688 95.5085 293.688 96.4846V101.98H290.059V90.1399H293.688V92.1133ZM305.735 98.9036V101.98H303.889C302.573 101.98 301.547 101.662 300.812 101.026C300.076 100.375 299.708 99.3209 299.708 97.8638V93.1531H298.265V90.1399H299.708V87.254H303.337V90.1399H305.714V93.1531H303.337V97.9063C303.337 98.2599 303.422 98.5146 303.592 98.6702C303.761 98.8258 304.044 98.9036 304.44 98.9036H305.735ZM312.573 102.15C311.54 102.15 310.621 101.973 309.814 101.62C309.008 101.266 308.371 100.785 307.905 100.177C307.438 99.5543 307.176 98.8612 307.119 98.0973H310.706C310.748 98.5075 310.939 98.8399 311.278 99.0946C311.618 99.3492 312.035 99.4765 312.53 99.4765C312.983 99.4765 313.33 99.3917 313.57 99.2219C313.825 99.038 313.952 98.8046 313.952 98.5217C313.952 98.1821 313.775 97.9346 313.422 97.779C313.068 97.6092 312.495 97.4253 311.703 97.2272C310.854 97.0292 310.147 96.8241 309.581 96.6119C309.015 96.3855 308.527 96.0389 308.117 95.5721C307.706 95.0911 307.501 94.4475 307.501 93.6411C307.501 92.9621 307.685 92.3467 308.053 91.795C308.435 91.2291 308.987 90.7835 309.708 90.4582C310.444 90.1328 311.314 89.9701 312.318 89.9701C313.804 89.9701 314.971 90.3379 315.819 91.0735C316.682 91.8091 317.178 92.7853 317.305 94.0018H313.952C313.896 93.5916 313.712 93.2662 313.4 93.0257C313.103 92.7853 312.707 92.665 312.212 92.665C311.788 92.665 311.462 92.7499 311.236 92.9196C311.01 93.0753 310.897 93.2945 310.897 93.5775C310.897 93.917 311.073 94.1716 311.427 94.3414C311.795 94.5111 312.361 94.6809 313.125 94.8506C314.002 95.077 314.716 95.3033 315.268 95.5297C315.819 95.7419 316.3 96.0955 316.711 96.5907C317.135 97.0716 317.354 97.7224 317.369 98.5429C317.369 99.2361 317.17 99.8585 316.774 100.41C316.392 100.948 315.834 101.372 315.098 101.683C314.377 101.995 313.535 102.15 312.573 102.15Z" fill="#29333D"/>
<g clip-path="url(#clip1_1_6207)">
<path fill-rule="evenodd" clip-rule="evenodd" d="M62.881 240.851L61.7536 248.753L59.9662 247.929C61.3414 252.181 62.2632 256.567 62.716 261.013C62.0782 263.204 61.2454 265.333 60.2274 267.376C60.3658 267.25 60.4659 267.088 60.5161 266.909L60.1587 269.286L59.8837 271.21V271.444C60.193 272.447 60.231 273.514 59.9937 274.536C59.9165 274.83 59.8567 275.128 59.8149 275.429L58.8113 276.859L58.4538 277.45H57.1339C56.3823 277.01 55.7682 276.002 55.2916 274.426V274.193L55.4153 273.602L55.5941 271.224L55.9515 267.706V266.331L54.7004 263.583L55.5941 266.496V267.211L50.7682 265.837L55.0028 267.376L52.4318 269.575L52.3768 272.049L52.3218 274.729L56.7765 278.481C57.1501 278.804 57.4909 279.163 57.7939 279.553C58.9488 280.742 59.5034 281.951 59.4575 283.181L52.4318 280.501L49.1595 276.653L46.1898 267.898C48.4905 262.985 50.3328 257.117 51.7168 250.293L52.0743 240.411C55.6303 239.394 59.4196 239.548 62.881 240.851Z" fill="#DE9078"/>
<path fill-rule="evenodd" clip-rule="evenodd" d="M55.9241 267.678L54.9754 267.376L50.7407 265.837L55.5666 267.211V266.496L54.6729 263.583L55.9241 266.331V267.678ZM63.1285 277.202C62.7021 277.482 62.2615 277.738 61.8086 277.972C61.0503 277.456 60.2084 277.074 59.3201 276.845H58.7838L59.7875 275.416C59.8293 275.115 59.889 274.816 59.9663 274.522C60.013 274.605 60.112 274.646 60.2688 274.646V275.594L59.4988 276.543C60.4276 276.632 61.3224 276.938 62.1111 277.436L63.1285 277.202ZM62.8811 240.851C63.5398 241.05 64.1794 241.308 64.7921 241.621L61.7536 251.846C62.6271 254.969 63.2704 258.153 63.6785 261.37C62.9259 263.373 61.8583 265.242 60.5162 266.909C60.466 267.088 60.3659 267.25 60.2275 267.376C61.2454 265.333 62.0783 263.204 62.716 261.013C62.2632 256.567 61.3415 252.181 59.9663 247.929L61.7536 248.754L62.8811 240.851Z" fill="#D36A4B"/>
<path fill-rule="evenodd" clip-rule="evenodd" d="M52.7068 269.767L52.6518 271.609L55.4016 273.574L55.2778 274.165V274.399L55.0441 274.165L52.7755 272.516L52.363 272.09L52.418 269.616L52.7068 269.767Z" fill="#C95432"/>
<path fill-rule="evenodd" clip-rule="evenodd" d="M55.0303 274.165L55.2641 274.399C55.7389 275.984 56.353 276.992 57.1064 277.422H58.4263L58.7838 276.831H59.32L58.5363 277.725H56.694C55.8713 276.683 55.3018 275.464 55.0303 274.165ZM52.7618 272.516L52.7068 274.715L58.605 279.827C58.3216 279.764 58.0417 279.686 57.7664 279.594C57.4633 279.204 57.1226 278.845 56.7489 278.522L52.2943 274.77L52.3493 272.09L52.7618 272.516Z" fill="#CF5E3D"/>
<path fill-rule="evenodd" clip-rule="evenodd" d="M54.9754 267.376L55.924 267.678L55.5665 271.197L52.7068 269.767L52.4043 269.589L54.9754 267.376ZM60.7499 271.43C60.6083 271.489 60.4565 271.52 60.3031 271.52C60.1497 271.52 59.9978 271.489 59.8562 271.43V271.197L60.1312 269.273L60.3787 269.328L60.0212 271.114L60.7499 271.43ZM55.0853 267.802L53.1193 269.589L55.4428 270.716L55.6903 268.091L55.0853 267.802Z" fill="#B54B2D"/>
<path fill-rule="evenodd" clip-rule="evenodd" d="M52.7068 269.767L55.5666 271.196L55.3878 273.574L52.6381 271.609L52.7068 269.767ZM60.2687 274.646C61.7283 274.81 63.1426 275.253 64.4346 275.952C64.3164 276.345 63.8846 276.776 63.1285 277.202L62.1111 277.436C61.3223 276.938 60.4275 276.632 59.4988 276.543L60.2687 275.594V274.646Z" fill="#D9795E"/>
<path fill-rule="evenodd" clip-rule="evenodd" d="M55.0853 267.802L55.6903 268.09L55.4428 270.715L53.1193 269.588L55.0853 267.802ZM60.3924 269.341L62.5923 270.234C62.1574 270.858 61.4964 271.287 60.7499 271.43L60.0349 271.128L60.3924 269.341Z" fill="#D77153"/>
<path fill-rule="evenodd" clip-rule="evenodd" d="M52.7618 272.502L55.0303 274.151C55.2998 275.455 55.8694 276.679 56.694 277.724H58.5363L59.32 276.831C60.2084 277.06 61.0503 277.442 61.8085 277.958C62.229 278.246 62.6287 278.563 63.0047 278.906C61.6889 279.712 60.1311 280.028 58.6051 279.8L52.7068 274.687L52.7618 272.502Z" fill="#DB846A"/>
<path fill-rule="evenodd" clip-rule="evenodd" d="M55.5666 144.578C56.0817 143.184 56.7371 142.148 57.5327 141.472L66.277 149.1L74.5539 197.106L66.6345 257.797C65.9195 258.202 65.2275 258.559 64.5584 258.869C57.5739 261.885 51.4419 261.133 46.1624 256.615C50.7637 233.203 53.6005 205.295 54.6729 172.89V172.835C53.3255 158.908 53.6234 149.489 55.5666 144.578Z" fill="#23181F"/>
<path fill-rule="evenodd" clip-rule="evenodd" d="M64.5583 258.869C61.1227 256.903 58.0262 254.397 55.3878 251.447C56.8544 235.745 58.7196 221.663 60.9836 209.2C59.671 193.567 59.0936 178.871 59.2513 165.111C57.3466 159.238 56.1183 152.399 55.5665 144.592C56.0817 143.198 56.7371 142.163 57.5327 141.486L66.2769 149.114L74.5538 197.12L66.6344 257.811C65.9195 258.207 65.2274 258.559 64.5583 258.869Z" fill="#23181F"/>
<path fill-rule="evenodd" clip-rule="evenodd" d="M64.5584 258.869C57.5739 261.885 51.4419 261.134 46.1624 256.615C50.7637 233.204 53.6005 205.295 54.6729 172.89V172.835C53.3255 158.908 53.6234 149.49 55.5666 144.579C56.1166 152.385 57.3448 159.225 59.2513 165.098C59.0955 178.861 59.6729 193.557 60.9837 209.186C58.7215 221.647 56.8563 235.73 55.3879 251.434C58.0252 254.389 61.1217 256.899 64.5584 258.869Z" fill="#30212B"/>
<path fill-rule="evenodd" clip-rule="evenodd" d="M77.2899 434.578L76.5199 434.702C71.7527 435.006 67.0372 435.864 62.4686 437.258C60.0274 437.968 57.657 438.902 55.3879 440.048C55.2919 440.1 55.1904 440.142 55.0854 440.172L54.8104 440.296C47.7086 443.667 40.4034 444.877 32.8946 443.924C32.8589 443.877 32.7984 443.877 32.7159 443.924L32.6059 443.8C31.1972 443.605 29.8623 443.051 28.7287 442.192C28.5271 442.028 28.3428 441.844 28.1788 441.643C28.1045 441.568 28.0687 441.511 28.0687 441.464C28.022 441.464 28 441.445 28 441.409C28.2017 439.027 31.8543 437.203 38.9579 435.939L39.4941 435.815C43.2372 434.944 46.8161 433.477 50.0945 431.472C54.0009 428.918 57.6644 426.011 61.0387 422.787C61.402 422.854 61.7603 422.945 62.1111 423.061C67.6308 424.335 73.5245 424.454 79.7922 423.419C80.8646 423.263 81.9553 423.066 83.0644 422.828C84.1643 424.972 84.6226 427.51 84.4393 430.442C84.1185 432.404 81.7353 433.783 77.2899 434.578Z" fill="#2E1E1B"/>
<path fill-rule="evenodd" clip-rule="evenodd" d="M83.9031 433.919C83.4998 435.229 82.0287 436.237 79.4897 436.943C75.8934 437.694 72.214 437.972 68.5456 437.767C67.8306 437.73 67.0744 437.671 66.277 437.588C62.8673 437.554 59.4943 438.584 56.1579 440.681C51.0799 443.695 44.4804 445.124 36.3594 444.969L36.2356 444.845C36.1623 444.879 36.0828 444.898 36.0019 444.9C31.8296 444.744 29.2264 443.654 28.1925 441.629C28.3565 441.831 28.5408 442.015 28.7425 442.179C29.876 443.037 31.211 443.591 32.6197 443.787L32.7296 443.91C32.8121 443.864 32.8727 443.864 32.9084 443.91C40.4245 444.865 47.7297 443.656 54.8242 440.282L55.0992 440.158C55.2042 440.128 55.3056 440.087 55.4017 440.035C57.6708 438.889 60.0411 437.955 62.4824 437.245C67.051 435.85 71.7665 434.993 76.5337 434.689L77.3037 434.565C81.751 433.768 84.1341 432.393 84.4531 430.442C84.3965 431.617 84.2121 432.783 83.9031 433.919Z" fill="#150E0D"/>
<path fill-rule="evenodd" clip-rule="evenodd" d="M61.0387 422.814C61.402 422.881 61.7603 422.973 62.111 423.089C67.6308 424.362 73.5245 424.482 79.7922 423.446C79.4255 427.974 76.0524 431.387 69.6729 433.685C70.0968 434.122 70.6732 434.378 71.2816 434.4C70.3701 434.429 69.461 434.29 68.6006 433.987C63.6033 436.012 58.782 437.162 54.1367 437.437C50.8349 437.866 47.6204 438.808 44.6087 440.227C44.5406 440.284 44.4609 440.327 44.3749 440.351C39.8103 442.412 34.5903 443.026 28.7149 442.192C28.5133 442.028 28.329 441.844 28.165 441.642C28.095 441.573 28.0348 441.495 27.9862 441.409C28.1879 439.027 31.8405 437.203 38.9441 435.939L39.4803 435.815C43.2234 434.944 46.8023 433.477 50.0807 431.472C53.9908 428.928 57.6588 426.029 61.0387 422.814Z" fill="#3E2824"/>
<path fill-rule="evenodd" clip-rule="evenodd" d="M58.66 428.806L59.6087 428.215C58.8589 427.061 57.9698 426.328 56.9414 426.016L57.1752 425.769C58.3209 426.172 59.3292 426.988 60.1999 428.215L58.7701 429.164C58.7371 429.045 58.6958 428.925 58.66 428.806ZM55.3328 430.359L55.979 429.878C55.8604 429.483 55.6627 429.116 55.398 428.8C55.1333 428.483 54.8072 428.224 54.4392 428.037L54.6179 427.913C55.088 428.054 55.5172 428.306 55.869 428.648C56.2209 428.991 56.485 429.412 56.639 429.878L55.3878 430.648C55.383 430.55 55.3645 430.453 55.3328 430.359ZM51.5793 430.236L51.7581 430.002C52.4731 430.24 53.0459 430.813 53.4767 431.72L52.2943 432.325C52.2086 432.276 52.1299 432.216 52.0606 432.146L52.8855 431.72C52.6151 431.101 52.1585 430.583 51.5793 430.236Z" fill="#3A2521"/>
<path fill-rule="evenodd" clip-rule="evenodd" d="M56.9415 426.016C57.9681 426.326 58.8572 427.059 59.6088 428.215L58.6601 428.806C58.0657 427.824 57.1389 427.088 56.0478 426.731L56.9415 426.016ZM54.4392 428.036C54.8072 428.223 55.1334 428.483 55.3981 428.799C55.6628 429.116 55.8604 429.483 55.9791 429.878L55.3329 430.359C54.9907 429.659 54.4246 429.093 53.7242 428.751L54.4392 428.036ZM52.0606 432.159C51.7596 431.625 51.3526 431.157 50.8645 430.785L51.5794 430.235C52.1586 430.582 52.6151 431.101 52.8856 431.72L52.0606 432.159Z" fill="#593A33"/>
<path fill-rule="evenodd" clip-rule="evenodd" d="M131.227 425.714C133.18 425.43 134.984 424.507 136.355 423.089C136.773 425.401 137.39 427.672 138.198 429.878C138.55 430.787 138.655 431.774 138.5 432.737C138.133 434.322 136.983 436.026 135.049 437.849C134.949 437.986 134.829 438.107 134.692 438.207C132.032 441.183 130.405 443.656 129.811 445.628C125.486 451.943 119.813 455.731 112.79 456.994L112.611 457.118C110.349 457.75 108.364 457.791 106.658 457.241C105.536 456.952 104.499 456.401 103.633 455.633C103.543 455.506 103.441 455.386 103.33 455.276C102.898 452.573 104.804 449.101 109.05 444.858C109.086 444.776 109.124 444.699 109.16 444.625C113.061 438.735 116.202 432.377 118.509 425.7C118.918 425.553 119.336 425.434 119.76 425.343C121.842 424.709 124.071 424.753 126.126 425.466C127.792 425.891 129.527 425.975 131.227 425.714Z" fill="#2E1E1B"/>
<path fill-rule="evenodd" clip-rule="evenodd" d="M129.797 445.642C130.395 443.663 132.022 441.189 134.678 438.22C134.815 438.121 134.936 438 135.035 437.863C136.98 436.04 138.131 434.336 138.486 432.75V436.791C137.023 439.603 134.682 441.861 131.818 443.223C131.268 443.589 130.732 444.281 130.209 445.298L129.797 446.439C127.57 450.72 125.031 453.354 122.18 454.341C119.32 456.128 115.251 457.342 109.971 457.983C108.814 458.118 107.644 457.867 106.644 457.269C108.349 457.818 110.333 457.777 112.597 457.145L112.776 457.021C119.797 455.748 125.471 451.955 129.797 445.642Z" fill="#150E0D"/>
<path fill-rule="evenodd" clip-rule="evenodd" d="M119.733 425.356C121.814 424.723 124.043 424.766 126.098 425.48C127.775 425.903 129.519 425.983 131.227 425.714C131.539 430.002 130.943 433.69 129.44 436.777L131.639 440.296L129.137 437.492C126.8 443.127 123.069 446.64 117.945 448.033C117.551 448.15 117.093 448.265 116.571 448.377C111.722 449.566 108.527 451.847 106.987 455.221L106.63 457.255C105.509 456.966 104.472 456.415 103.605 455.647C103.515 455.519 103.414 455.4 103.303 455.29C102.87 452.587 104.777 449.114 109.022 444.872C109.058 444.79 109.097 444.713 109.132 444.639C113.033 438.749 116.174 432.39 118.482 425.714C118.89 425.567 119.308 425.447 119.733 425.356Z" fill="#3E2824"/>
<path fill-rule="evenodd" clip-rule="evenodd" d="M123.431 432.86C122.468 432.201 121.375 431.753 120.226 431.547C119.076 431.34 117.896 431.381 116.763 431.665L116.942 431.252C118.09 430.95 119.29 430.899 120.46 431.103C121.63 431.307 122.742 431.761 123.72 432.434L123.431 432.86ZM121.823 436.008C120.855 435.329 119.75 434.87 118.587 434.664C117.423 434.457 116.228 434.508 115.086 434.812L115.264 434.345C116.419 434.043 117.626 433.998 118.8 434.214C119.973 434.431 121.085 434.902 122.056 435.595L121.823 436.008ZM120.145 438.619C119.171 437.983 118.078 437.551 116.932 437.348C115.786 437.144 114.611 437.175 113.477 437.437L113.601 436.956C114.766 436.674 115.978 436.64 117.157 436.856C118.336 437.071 119.457 437.531 120.448 438.206L120.145 438.619Z" fill="#3A2521"/>
<path fill-rule="evenodd" clip-rule="evenodd" d="M116.763 431.665C117.896 431.381 119.076 431.341 120.226 431.547C121.375 431.753 122.468 432.201 123.431 432.861L123.074 433.562C121.169 432.215 119.006 431.802 116.584 432.325L116.763 431.665ZM115.086 434.812C116.228 434.508 117.423 434.458 118.587 434.664C119.75 434.871 120.855 435.329 121.823 436.008L121.396 436.599C119.453 435.371 117.272 434.996 114.852 435.472L115.086 434.812ZM120.145 438.619L119.733 439.334C117.872 437.987 115.709 437.575 113.243 438.097L113.477 437.437C114.611 437.175 115.786 437.145 116.932 437.348C118.078 437.551 119.171 437.983 120.145 438.619Z" fill="#593A33"/>
<path fill-rule="evenodd" clip-rule="evenodd" d="M60.8049 238.707H89.4301L91.6437 269.767C91.2037 273.89 90.7867 277.995 90.3926 282.081C88.5227 301.322 87.0149 320.563 85.8691 339.804C87.3723 346.474 87.5282 356.768 86.3366 370.685C84.8334 382.909 83.8435 395.068 83.3668 407.16L83.2431 413.757C83.1978 417.601 83.6178 421.435 84.4942 425.178C75.3283 427.205 67.3906 426.591 60.6811 423.336C62.3108 407.742 62.0725 383.563 59.9662 350.798C58.188 308.157 58.1284 274.779 59.7875 250.664C60.0716 246.376 60.4107 242.39 60.8049 238.707Z" fill="#261A22"/>
<path fill-rule="evenodd" clip-rule="evenodd" d="M60.6812 423.336C71.8361 425.599 78.266 425.242 79.9709 422.264C83.5822 379.898 84.6913 354.115 83.2981 344.916L80.0258 346.098C83.3622 296.917 84.1597 263.163 82.4182 244.837L80.0946 261.604L79.6134 261.494C71.4813 259.67 64.8727 256.06 59.7875 250.664C60.0698 246.376 60.4089 242.39 60.8049 238.707H89.4302L91.6437 269.767C91.2037 273.89 90.7867 277.995 90.3926 282.081C88.5227 301.322 87.0149 320.563 85.8691 339.804C87.3723 346.474 87.5282 356.768 86.3366 370.685C84.8334 382.909 83.8435 395.068 83.3669 407.16L83.2431 413.757C83.1978 417.601 83.6179 421.435 84.4942 425.178C75.3301 427.205 67.3925 426.591 60.6812 423.336Z" fill="#181016"/>
<path fill-rule="evenodd" clip-rule="evenodd" d="M59.7875 250.664C64.8746 256.059 71.4832 259.669 79.6134 261.494L80.0946 261.604L82.4182 244.837C84.1579 263.161 83.3604 296.915 80.0258 346.099L83.2981 344.917C84.6913 354.115 83.5822 379.898 79.9708 422.265C78.266 425.24 71.8361 425.598 60.6811 423.337C62.3108 407.742 62.0725 383.563 59.9662 350.799C58.188 308.157 58.1284 274.779 59.7875 250.664Z" fill="#261A22"/>
<path fill-rule="evenodd" clip-rule="evenodd" d="M120.805 250.897C124.105 285.771 126.03 319.529 126.58 352.173C132.932 372.44 136.562 396.417 137.469 424.106C132.354 427.157 126.424 429.122 119.678 430.002L118.537 430.112C118.188 429.04 117.675 427.377 116.997 425.123C110.397 377.635 99.9023 330.17 85.5118 282.727C85.4365 282.517 85.3767 282.301 85.333 282.081V281.834C84.4531 277.401 83.1423 270.74 81.4008 261.851C81.2817 261.301 81.1809 260.724 81.0984 260.119C79.8683 253.971 78.4613 246.834 76.8774 238.707H119.609C120.049 242.795 120.448 246.859 120.805 250.897Z" fill="#181016"/>
<path fill-rule="evenodd" clip-rule="evenodd" d="M119.678 430.002C125.078 429.186 130.083 426.684 133.977 422.855C133.977 399.059 130.677 376.272 124.077 354.495L122.647 355.086C123.564 322.798 121.681 289.219 116.997 254.347C116.318 249.152 115.562 243.939 114.728 238.707H119.609C120.049 242.795 120.448 246.859 120.805 250.897C124.105 285.771 126.03 319.529 126.58 352.173C132.932 372.44 136.561 396.417 137.469 424.106C132.354 427.157 126.424 429.122 119.678 430.002Z" fill="#1F141C"/>
<path fill-rule="evenodd" clip-rule="evenodd" d="M85.6905 238.707H114.728C115.562 243.937 116.319 249.15 116.997 254.347C113.035 257.558 108.765 260.37 104.252 262.744C100.361 263.689 96.361 264.11 92.3587 263.995C90.883 263.912 89.4119 263.77 87.9453 263.569L85.6905 238.707ZM84.6731 238.707L81.4008 261.851C81.2817 261.301 81.1809 260.724 81.0984 260.119C79.8683 253.971 78.4613 246.834 76.8774 238.707H84.6731Z" fill="#181016"/>
<path fill-rule="evenodd" clip-rule="evenodd" d="M81.4008 261.851L84.673 238.707H85.6904L87.9453 263.569C89.4118 263.77 90.883 263.912 92.3587 263.995C96.361 264.11 100.361 263.689 104.251 262.744C108.765 260.37 113.034 257.558 116.997 254.347C121.681 289.219 123.564 322.798 122.648 355.086L124.077 354.495C130.677 376.274 133.977 399.061 133.977 422.855C130.083 426.684 125.078 429.186 119.678 430.002L118.537 430.112C118.188 429.04 117.675 427.377 116.997 425.123C110.397 377.635 99.9023 330.17 85.5117 282.727C85.4365 282.517 85.3767 282.301 85.333 282.081V281.834C84.453 277.401 83.1423 270.74 81.4008 261.851Z" fill="#261A22"/>
<path fill-rule="evenodd" clip-rule="evenodd" d="M103.124 117.682V106.372L105.86 106.908C105.072 111.628 105.191 115.494 106.218 118.507L86.048 140.469L85.388 138.916C85.3055 136.067 85.6813 134.381 86.5154 133.858C92.2987 129.756 97.8438 125.328 103.124 120.596V117.682Z" fill="#D67154"/>
<path fill-rule="evenodd" clip-rule="evenodd" d="M83.0094 127.619C87.8124 128.05 94.5172 124.738 103.124 117.683V120.596C97.8438 125.328 92.2986 129.756 86.5154 133.859L83.2432 129.337C83.1607 128.732 83.0827 128.16 83.0094 127.619Z" fill="#DE9078"/>
<path fill-rule="evenodd" clip-rule="evenodd" d="M80.9883 103.279L103.124 106.372V117.682C94.508 124.737 87.8032 128.05 83.0094 127.619C81.6697 119.575 80.9937 111.434 80.9883 103.279Z" fill="#DA8167"/>
<path fill-rule="evenodd" clip-rule="evenodd" d="M80.9883 103.279C80.9937 111.434 81.6697 119.575 83.0094 127.619C83.0827 128.169 83.1607 128.741 83.2432 129.337L86.5154 133.858C85.6813 134.381 85.3055 136.067 85.388 138.916L81.8683 129.461C80.4501 120.805 79.7145 112.05 79.6685 103.279H80.9883Z" fill="#E29E8B"/>
<path fill-rule="evenodd" clip-rule="evenodd" d="M115.333 130.643L141.814 141.541H143.601L143.656 142.256C139.137 147.926 135.43 154.628 132.533 162.363C130.668 167.344 129.175 172.457 128.065 177.659C125.682 191.219 122.767 202.938 119.32 212.815L126.869 248.575C120.298 252.893 113.299 256.522 105.984 259.405L101.859 260.367C96.5237 261.662 90.992 261.942 85.553 261.192L83.4357 238.061C82.9572 238.061 82.4815 238.078 82.0058 238.061L78.8848 260.414C78.7281 260.378 78.5686 260.337 78.4036 260.29C69.6391 258.311 62.6364 254.266 57.3953 248.155C58.7427 232.879 60.4704 219.195 62.5786 207.103C61.3503 191.912 60.8142 177.632 60.97 164.265C58.9828 157.833 57.7912 150.173 57.3953 141.286L58.3439 140.049H60.2L72.7528 135.816C74.7418 134.506 76.4696 133.672 77.9361 133.314L81.2633 131.954C81.3454 131.061 81.53 130.18 81.8133 129.329C81.8174 129.432 81.8359 129.533 81.8683 129.631C82.466 131.335 84.2991 131.968 87.3679 131.528L88.3715 132.6L89.5677 130.992C96.5522 128.811 102.13 124.491 106.3 118.032L107.07 123.804L115.333 130.643Z" fill="#261A22"/>
<path fill-rule="evenodd" clip-rule="evenodd" d="M83.9031 238.047C83.3142 233.312 83.0752 228.539 83.1881 223.768L90.2139 236.618C88.1848 237.378 86.0618 237.859 83.9031 238.047ZM83.1881 223.768L81.2633 238.047C78.6387 237.89 76.0807 237.158 73.7701 235.904L83.1881 223.768Z" fill="#D3CFC2"/>
<path fill-rule="evenodd" clip-rule="evenodd" d="M83.903 238.047C83.0231 238.082 82.1477 238.082 81.277 238.047L83.2018 223.768C83.0843 228.539 83.3187 233.311 83.903 238.047Z" fill="#E6E2D5"/>
<path fill-rule="evenodd" clip-rule="evenodd" d="M132.533 162.363C128.876 166.726 126.195 173.309 124.49 182.112C121.639 196.634 118.431 209.53 114.866 220.8L117.244 216.264L121.644 245.016C117.006 250.687 110.42 255.804 101.887 260.367C96.5512 261.662 91.0196 261.942 85.5805 261.192L82.8995 231.863V231.684C82.8628 231.327 82.8215 230.97 82.7757 230.612C82.7473 230.556 82.7287 230.496 82.7207 230.434C82.0883 226.109 81.5154 221.528 81.0021 216.69C80.3623 211.092 79.8032 205.201 79.3248 199.016L79.9847 196.57C78.949 194.921 77.9773 193.258 77.0699 191.581C70.6006 179.597 67.4429 166.385 67.5969 151.945C69.1093 150.956 70.7363 149.352 72.4778 147.135C71.3393 145.631 70.1087 144.199 68.7931 142.847L72.7803 135.824C74.7693 134.514 76.497 133.68 77.9636 133.323L81.2909 131.962C81.373 131.069 81.5575 130.188 81.8408 129.337C81.8449 129.44 81.8634 129.542 81.8958 129.639C82.4934 131.344 84.3266 131.976 87.3954 131.536L88.3991 132.608L89.5952 131C96.5796 128.819 102.157 124.499 106.328 118.04L107.098 123.812L115.374 130.643L141.855 141.541H143.642L143.697 142.256C139.153 147.926 135.431 154.628 132.533 162.363Z" fill="#30212B"/>
<path fill-rule="evenodd" clip-rule="evenodd" d="M77.0562 191.581L79.1322 196.528L78.4861 198.851C79.0819 209.681 80.113 220.254 81.5796 230.571L78.4173 260.312C69.6528 258.333 62.65 254.287 57.4089 248.176C58.7563 232.901 60.4841 219.217 62.5923 207.125C61.3641 191.933 60.8278 177.654 60.9837 164.286C58.9965 157.854 57.8049 150.195 57.4089 141.307L58.3577 140.07H60.2138L72.7665 135.837L68.7793 142.86C70.0949 144.212 71.3255 145.644 72.464 147.148C70.7243 149.367 69.0973 150.971 67.5831 151.958C67.4181 166.389 70.5759 179.596 77.0562 191.581Z" fill="#372732"/>
<path fill-rule="evenodd" clip-rule="evenodd" d="M78.4173 260.298L81.5795 230.557C80.113 220.243 79.0818 209.669 78.486 198.838L79.1322 196.515L77.0562 191.567C77.9727 193.237 78.9443 194.9 79.9709 196.556L79.311 199.003C79.7876 205.187 80.3467 211.078 80.9883 216.677C81.5016 221.514 82.0745 226.095 82.7069 230.42C82.7149 230.482 82.7336 230.543 82.762 230.599C82.8096 230.956 82.8508 231.313 82.8857 231.671V231.849L78.8985 260.408C78.7418 260.386 78.5823 260.345 78.4173 260.298Z" fill="#2C1F27"/>
<path fill-rule="evenodd" clip-rule="evenodd" d="M101.873 260.367C110.406 255.804 116.992 250.687 121.63 245.015L117.23 216.264L114.852 220.799C118.427 209.53 121.635 196.634 124.476 182.112C126.181 173.316 128.862 166.733 132.519 162.362C130.655 167.344 129.161 172.457 128.051 177.659C125.668 191.219 122.753 202.937 119.307 212.814L126.855 248.575C120.284 252.892 113.285 256.522 105.97 259.405L101.873 260.367Z" fill="#23181F"/>
<path fill-rule="evenodd" clip-rule="evenodd" d="M82.707 204.376C83.1604 204.356 83.6055 204.502 83.9581 204.788C84.1313 204.932 84.2704 205.113 84.3655 205.318C84.4606 205.522 84.5093 205.745 84.5081 205.97C84.506 206.189 84.4557 206.405 84.3606 206.602C84.2656 206.799 84.1281 206.973 83.9581 207.111C83.7911 207.268 83.5945 207.39 83.3796 207.47C83.1648 207.551 82.9361 207.587 82.707 207.578C82.2463 207.583 81.8002 207.417 81.4559 207.111C81.3057 206.961 81.187 206.784 81.1067 206.588C81.0264 206.392 80.9861 206.182 80.9883 205.97C80.9842 205.752 81.0234 205.535 81.1036 205.332C81.1838 205.129 81.3036 204.944 81.4559 204.788C81.8142 204.513 82.2552 204.368 82.707 204.376ZM83.6006 206.685C83.7183 206.608 83.8134 206.501 83.8762 206.376C83.939 206.25 83.9673 206.11 83.9581 205.97C83.9614 205.823 83.9309 205.677 83.8689 205.544C83.8069 205.41 83.7151 205.293 83.6006 205.2C83.3619 205.014 83.0651 204.916 82.762 204.926C82.4431 204.924 82.1314 205.02 81.8683 205.2C81.6783 205.41 81.5794 205.687 81.5933 205.97C81.5813 206.102 81.5998 206.236 81.6475 206.359C81.6951 206.483 81.7707 206.595 81.8683 206.685C82.1134 206.908 82.4308 207.034 82.762 207.042C82.9188 207.043 83.0742 207.012 83.2184 206.951C83.3627 206.889 83.4928 206.799 83.6006 206.685Z" fill="#140D12"/>
<path fill-rule="evenodd" clip-rule="evenodd" d="M83.6006 206.685C83.4928 206.799 83.3627 206.889 83.2184 206.951C83.0741 207.012 82.9188 207.043 82.762 207.042C82.4307 207.035 82.1134 206.908 81.8683 206.685C81.7707 206.595 81.6951 206.484 81.6474 206.36C81.5997 206.236 81.5812 206.103 81.5933 205.97C81.5794 205.688 81.6783 205.411 81.8683 205.201C82.1313 205.021 82.4431 204.925 82.762 204.926C83.0651 204.917 83.3618 205.014 83.6006 205.201C83.7151 205.293 83.8069 205.411 83.8689 205.544C83.9308 205.678 83.9613 205.823 83.9581 205.97C83.9672 206.111 83.939 206.251 83.8762 206.376C83.8134 206.502 83.7182 206.608 83.6006 206.685Z" fill="#23181F"/>
<path fill-rule="evenodd" clip-rule="evenodd" d="M84.2606 217.226C84.2615 217.087 84.2295 216.95 84.1674 216.826C84.1053 216.702 84.0147 216.594 83.9031 216.512C83.791 216.407 83.6588 216.327 83.5147 216.275C83.3705 216.223 83.2174 216.201 83.0644 216.209C82.7621 216.208 82.4694 216.315 82.2395 216.512C82.1278 216.594 82.0373 216.702 81.9752 216.826C81.9131 216.95 81.8811 217.087 81.882 217.226C81.8788 217.373 81.9093 217.519 81.9713 217.653C82.0333 217.786 82.125 217.904 82.2395 217.996C82.3457 218.108 82.4736 218.198 82.6154 218.259C82.7571 218.32 82.9099 218.353 83.0644 218.353C83.2222 218.362 83.3798 218.334 83.5252 218.272C83.6705 218.21 83.7998 218.115 83.9031 217.996C84.0176 217.904 84.1093 217.786 84.1713 217.653C84.2333 217.519 84.2638 217.373 84.2606 217.226ZM84.8518 217.226C84.8505 217.442 84.8018 217.655 84.7092 217.849C84.6165 218.044 84.4822 218.216 84.3156 218.353C83.9754 218.668 83.5276 218.84 83.0644 218.834C82.5835 218.847 82.1161 218.675 81.7583 218.353C81.6051 218.208 81.4834 218.034 81.4006 217.84C81.3179 217.646 81.2758 217.437 81.2771 217.226C81.2749 217.013 81.3165 216.802 81.3993 216.606C81.4821 216.41 81.6042 216.233 81.7583 216.086C82.1345 215.804 82.5949 215.659 83.0644 215.673C83.5161 215.665 83.9572 215.811 84.3156 216.086C84.4831 216.225 84.6179 216.399 84.7106 216.596C84.8032 216.793 84.8514 217.009 84.8518 217.226Z" fill="#140D12"/>
<path fill-rule="evenodd" clip-rule="evenodd" d="M84.2606 217.226C84.2638 217.373 84.2332 217.519 84.1713 217.652C84.1093 217.786 84.0175 217.903 83.9031 217.996C83.7998 218.115 83.6705 218.209 83.5251 218.271C83.3797 218.333 83.2222 218.361 83.0644 218.353C82.9098 218.352 82.7571 218.32 82.6153 218.259C82.4735 218.197 82.3457 218.108 82.2394 217.996C82.1249 217.903 82.0332 217.786 81.9712 217.652C81.9093 217.519 81.8787 217.373 81.8819 217.226C81.8811 217.087 81.913 216.95 81.9751 216.826C82.0372 216.702 82.1278 216.594 82.2394 216.511C82.4693 216.315 82.762 216.208 83.0644 216.209C83.2173 216.2 83.3705 216.222 83.5146 216.274C83.6588 216.326 83.7909 216.407 83.9031 216.511C84.0147 216.594 84.1053 216.702 84.1674 216.826C84.2295 216.95 84.2614 217.087 84.2606 217.226Z" fill="#23181F"/>
<path fill-rule="evenodd" clip-rule="evenodd" d="M86.3366 228.344C86.1734 228.508 85.9776 228.635 85.7621 228.718C85.5466 228.801 85.3161 228.837 85.0854 228.825C84.6222 228.831 84.1745 228.659 83.8343 228.344C83.667 228.208 83.5321 228.036 83.4395 227.841C83.3469 227.646 83.2988 227.433 83.2988 227.217C83.2988 227.002 83.3469 226.789 83.4395 226.594C83.5321 226.399 83.667 226.227 83.8343 226.091C84.1926 225.816 84.6337 225.67 85.0854 225.678C85.5394 225.655 85.9857 225.802 86.3366 226.091C86.5039 226.227 86.6387 226.399 86.7314 226.594C86.824 226.789 86.872 227.002 86.872 227.217C86.872 227.433 86.824 227.646 86.7314 227.841C86.6387 228.036 86.5039 228.208 86.3366 228.344ZM85.9791 227.987C86.0952 227.896 86.1882 227.779 86.2503 227.645C86.3124 227.511 86.342 227.365 86.3366 227.217C86.3356 227.079 86.3028 226.943 86.2408 226.819C86.1788 226.695 86.0893 226.587 85.9791 226.503C85.7499 226.305 85.4567 226.198 85.1542 226.2C84.8295 226.19 84.512 226.297 84.2605 226.503C84.1503 226.587 84.0608 226.695 83.9988 226.819C83.9369 226.943 83.9041 227.079 83.903 227.217C83.8976 227.365 83.9272 227.511 83.9894 227.645C84.0515 227.779 84.1444 227.896 84.2605 227.987C84.3771 228.105 84.5166 228.197 84.6703 228.258C84.824 228.32 84.9887 228.349 85.1542 228.344C85.3088 228.344 85.4618 228.313 85.6037 228.251C85.7455 228.19 85.8733 228.1 85.9791 227.987Z" fill="#140D12"/>
<path fill-rule="evenodd" clip-rule="evenodd" d="M85.9792 227.987C85.8734 228.1 85.7456 228.19 85.6037 228.251C85.4618 228.312 85.3089 228.344 85.1543 228.344C84.9888 228.349 84.8241 228.32 84.6704 228.258C84.5166 228.197 84.3772 228.105 84.2606 227.987C84.1445 227.896 84.0516 227.779 83.9894 227.645C83.9273 227.511 83.8977 227.365 83.9031 227.217C83.9041 227.079 83.9369 226.943 83.9989 226.819C84.0609 226.695 84.1504 226.587 84.2606 226.503C84.512 226.297 84.8296 226.19 85.1543 226.2C85.4568 226.198 85.7499 226.305 85.9792 226.503C86.0894 226.587 86.1789 226.695 86.2409 226.819C86.3028 226.943 86.3356 227.079 86.3367 227.217C86.3421 227.365 86.3125 227.511 86.2503 227.645C86.1882 227.779 86.0953 227.896 85.9792 227.987Z" fill="#23181F"/>
<path fill-rule="evenodd" clip-rule="evenodd" d="M107.056 123.812C107.771 125.709 107.909 127.372 107.469 128.801C103.381 150.935 97.3908 168.967 89.4989 182.895C88.4998 168.217 88.4998 154.35 89.4989 141.294L91.575 137.734L96.0434 141.775C101.121 137.892 104.614 132.994 106.52 127.083L107.235 125.351L107.056 123.812ZM81.277 131.962C81.012 134.405 81.1513 136.875 81.6895 139.273L83.4219 137.789L84.728 141.294C81.5933 150.694 78.9351 163.031 76.7536 178.305C75.852 172.653 75.2781 166.954 75.035 161.235C76.1349 152.192 77.6794 142.828 79.6684 133.144L81.277 131.962Z" fill="#F4F0E3"/>
<path fill-rule="evenodd" clip-rule="evenodd" d="M80.9195 195.511C84.1329 191.557 87.0031 187.337 89.4989 182.895C97.3908 168.968 103.381 150.937 107.469 128.801C107.909 127.372 107.771 125.709 107.056 123.812L115.333 130.642L115.443 132.965L115.993 141.83C113.8 143.706 111.357 145.27 108.734 146.475L114.274 151.051C103.275 175.845 91.6254 191.833 79.3247 199.016L79.9846 196.57L80.9195 195.511Z" fill="#372732"/>
<path fill-rule="evenodd" clip-rule="evenodd" d="M83.8343 136.415C83.0625 137.324 82.3462 138.279 81.6894 139.274C81.1513 136.876 81.0119 134.405 81.277 131.962C81.3591 131.069 81.5436 130.188 81.8269 129.337C81.831 129.44 81.8495 129.542 81.8819 129.639C82.4795 131.344 84.3127 131.976 87.3815 131.536L88.3852 132.608L89.5813 131C96.5658 128.819 102.143 124.499 106.314 118.04L107.084 123.812L107.262 125.352L106.548 127.083C103.57 133.863 100.037 138.522 95.9471 141.06L91.4787 136.058L88.3852 132.608C86.8636 133.405 85.3467 134.674 83.8343 136.415Z" fill="#E6E2D5"/>
<path fill-rule="evenodd" clip-rule="evenodd" d="M79.3109 199.016C91.6116 191.835 103.261 175.847 114.261 151.052L108.72 146.475C111.343 145.27 113.786 143.707 115.979 141.83L115.429 132.965L116.502 142.132C114.701 144.058 112.513 145.58 110.081 146.599L115.374 150.763C106.045 173.092 94.5786 189.432 80.9745 199.786C80.3348 204.385 80.3348 210.02 80.9745 216.69C80.3439 211.092 79.7894 205.201 79.3109 199.016Z" fill="#21161D"/>
<path fill-rule="evenodd" clip-rule="evenodd" d="M89.4989 182.895C87.9041 172.182 87.6657 158.457 88.784 141.72C88.7829 141.458 88.8013 141.196 88.8389 140.936L91.4512 136.057L95.9334 141.074C100.023 138.536 103.557 133.877 106.534 127.097C104.629 133.006 101.137 137.904 96.0571 141.788L91.5887 137.748L89.5126 141.307C88.5062 154.354 88.5017 168.217 89.4989 182.895ZM76.4512 180.572C75.0902 174.313 74.3761 167.93 74.3201 161.524C75.8233 150.694 77.6061 141.234 79.6685 133.144C77.6886 142.828 76.1441 152.192 75.035 161.235C75.2781 166.953 75.852 172.653 76.7537 178.305C76.6363 179.067 76.5355 179.823 76.4512 180.572Z" fill="#C5C2B6"/>
<path fill-rule="evenodd" clip-rule="evenodd" d="M88.8389 140.936C88.5371 140.768 88.2193 140.63 87.8902 140.524L89.7326 135.879L88.3577 132.608L91.4512 136.058L88.8389 140.936ZM89.4989 182.895C87.0031 187.337 84.1328 191.558 80.9195 195.512L78.0048 180.627C79.5171 163.97 82.354 150.763 86.5153 141.005C87.3207 141.043 88.1024 141.289 88.7839 141.72C87.6638 158.459 87.9022 172.184 89.4989 182.895Z" fill="#40345B"/>
<path fill-rule="evenodd" clip-rule="evenodd" d="M87.8903 140.524C86.6621 140.092 85.6492 140.229 84.8518 140.936L83.8344 136.415C85.3467 134.676 86.8545 133.407 88.3577 132.608L89.7326 135.879L87.8903 140.524ZM86.5154 141.005C82.3559 150.763 79.5191 163.97 78.0048 180.627L80.9196 195.512C79.0658 190.648 77.5723 185.655 76.4512 180.572C76.5337 179.821 76.6345 179.065 76.7537 178.305C78.9333 163.029 81.5915 150.692 84.728 141.294C84.7748 141.176 84.816 141.055 84.8518 140.936C85.4072 140.898 85.965 140.922 86.5154 141.005Z" fill="#483B65"/>
<path fill-rule="evenodd" clip-rule="evenodd" d="M79.6685 133.144C77.6062 141.234 75.8233 150.694 74.3201 161.524C74.3761 167.93 75.0902 174.313 76.4512 180.572C77.5724 185.655 79.0659 190.648 80.9196 195.511L79.9847 196.57C73.596 185.348 69.8472 175.196 68.7381 166.114C68.2665 161.507 68.0461 156.878 68.0781 152.247C69.783 151.331 71.4099 149.59 72.959 147.025C71.6877 145.524 70.2943 144.131 68.7931 142.86L72.7803 135.837C74.7693 134.527 76.497 133.694 77.9636 133.336L81.2908 131.976L79.6685 133.144Z" fill="#3E2D39"/>
<path fill-rule="evenodd" clip-rule="evenodd" d="M88.784 141.72C88.1025 141.289 87.3208 141.043 86.5154 141.005C85.9651 140.921 85.4072 140.898 84.8518 140.936C85.6492 140.229 86.6621 140.091 87.8903 140.524C88.2194 140.63 88.5372 140.768 88.839 140.936C88.8013 141.196 88.783 141.458 88.784 141.72Z" fill="#302744"/>
<path fill-rule="evenodd" clip-rule="evenodd" d="M81.6895 139.273C82.3462 138.278 83.0625 137.323 83.8343 136.415L84.8517 140.936C84.816 141.054 84.7747 141.175 84.728 141.293L83.4218 137.789L81.6895 139.273Z" fill="#C9C5B8"/>
<path fill-rule="evenodd" clip-rule="evenodd" d="M68.7792 142.847C70.2804 144.117 71.6738 145.51 72.9451 147.011C71.3961 149.586 69.7691 151.326 68.0642 152.233C68.0322 156.864 68.2526 161.494 68.7242 166.101C69.8242 175.179 73.573 185.33 79.9708 196.556C71.5565 183.273 67.4318 168.398 67.5968 151.931C69.1092 150.942 70.7361 149.338 72.4777 147.121C71.3342 145.621 70.0991 144.194 68.7792 142.847Z" fill="#281D25"/>
<path fill-rule="evenodd" clip-rule="evenodd" d="M73.7839 88.4639C73.6343 88.4724 73.4885 88.5147 73.3576 88.5876C73.2825 87.2315 73.2641 85.8435 73.3026 84.4233V84.066C75.2825 78.6712 78.816 74.7635 83.9031 72.3428C89.0177 71.7931 94.3751 72.1092 99.9755 73.2911C104.026 76.095 107.368 79.8028 109.737 84.1209L108.541 96.9161C108.931 96.6683 109.386 96.5437 109.847 96.5587H110.452C111.873 96.9527 112.308 98.8951 111.758 102.386C110.652 104.597 109.354 106.708 107.881 108.694C107.049 109.601 105.862 109.917 104.32 109.642L103.963 113.875C103.823 114.642 103.518 115.369 103.069 116.006L93.1286 124.705C92.1995 125.326 91.1723 125.786 90.0901 126.066C89.4527 126.268 88.792 126.389 88.124 126.423C91.0205 125.745 92.8674 124.375 93.6648 122.314C95.2138 120.218 97.4961 118.138 100.512 116.074C102.492 114.253 103.482 111.019 103.482 106.372C103.482 101.809 103.541 98.4553 103.66 96.3114C103.818 94.1766 103.955 92.5136 104.073 91.3225L102.945 88.6425C102.832 86.6127 102.934 84.5765 103.248 82.5679V82.3893H103.179C100.367 82.7943 96.8152 83.9441 92.5237 85.8389C91.9737 86.0386 91.3595 86.2585 90.6813 86.4986C86.2339 88.0855 81.871 88.7589 77.5923 88.5188L75.75 88.4089C78.4814 87.6942 80.6629 86.778 82.2944 85.6602V85.5503C80.6244 85.5851 78.64 86.1577 76.3412 87.2682L75.035 87.9279C74.5945 87.9631 74.1512 87.9447 73.7151 87.8729C73.7154 88.0719 73.7384 88.2702 73.7839 88.4639Z" fill="#DA8167"/>
<path fill-rule="evenodd" clip-rule="evenodd" d="M88.124 126.423C87.99 126.461 87.851 126.48 87.7116 126.478L84.7968 126.299C83.1671 125.704 82.0717 124.833 81.5108 123.688C81.4747 123.413 81.3759 123.15 81.222 122.919C80.4172 121.159 79.4409 119.484 78.3072 117.916C78.1074 117.524 77.8875 117.125 77.6473 116.72C76.9024 115.244 76.401 113.656 76.1625 112.02C76.1623 111.898 76.139 111.776 76.0937 111.663L75.2688 107.031V106.729C75.2321 106.335 75.1908 105.977 75.145 105.657C74.8698 103.287 74.8698 100.894 75.145 98.5239L74.6775 97.1496C74.5593 96.325 74.4383 95.4234 74.3201 94.4696C74.1551 92.8021 73.9718 90.8001 73.7701 88.4638C73.7247 88.27 73.7016 88.0718 73.7014 87.8728C74.1375 87.9445 74.5807 87.963 75.0213 87.9278L76.3274 87.2681C78.6281 86.1686 80.6125 85.596 82.2807 85.5501V85.6601C80.6492 86.7797 78.4677 87.696 75.7362 88.4088L77.5786 88.5187C81.8591 88.7588 86.2221 88.0854 90.6676 86.4984C91.3459 86.2584 91.96 86.0385 92.5099 85.8388C96.7996 83.9422 100.351 82.7923 103.165 82.3892H103.234V82.5678C102.92 84.5764 102.818 86.6126 102.932 88.6424L104.059 91.3224C103.942 92.5135 103.804 94.1764 103.647 96.3113C103.529 98.4552 103.47 101.809 103.468 106.371C103.468 111.017 102.478 114.251 100.498 116.074C97.4806 118.136 95.1983 120.216 93.6511 122.314C92.8628 124.375 91.0205 125.745 88.124 126.423ZM73.7151 95.1293L73.2477 96.38L73.5364 101.08C73.6189 102.867 73.8801 104.136 74.3201 104.887C74.3558 105.126 74.3943 105.363 74.4301 105.602C73.6785 105.08 73.2431 103.632 73.1239 101.259L72.8352 96.4899L73.6189 94.4696C73.6409 94.7088 73.6794 94.9287 73.7151 95.1293Z" fill="#DE9078"/>
<path fill-rule="evenodd" clip-rule="evenodd" d="M84.7968 126.299L84.0818 126.244C82.4118 125.647 81.3211 124.777 80.8096 123.633C80.7652 123.354 80.6621 123.087 80.5071 122.85C79.6697 121.112 78.6951 119.444 77.5924 117.861C77.3972 117.467 77.1767 117.086 76.9324 116.72C76.224 115.21 75.7245 113.61 75.4475 111.965C75.4118 111.849 75.3933 111.729 75.3925 111.608L74.5538 106.962C74.5867 106.874 74.5867 106.776 74.5538 106.688C74.4771 106.335 74.4357 105.976 74.4301 105.616C74.3944 105.376 74.3558 105.14 74.3201 104.901C74.152 102.781 74.1888 100.65 74.4301 98.5377L73.9627 97.1084C73.8802 96.468 73.7976 95.811 73.7152 95.1431C73.6794 94.9424 73.6409 94.7226 73.6052 94.4834C73.486 92.662 73.4035 90.7012 73.3577 88.6012C73.4886 88.5284 73.6343 88.4861 73.7839 88.4775C73.9764 90.8139 74.1597 92.8159 74.3339 94.4834C74.4521 95.4372 74.5731 96.3305 74.6913 97.1634L75.1588 98.5377C74.8836 100.907 74.8836 103.301 75.1588 105.671C75.2065 105.991 75.2477 106.349 75.2825 106.743V107.045L76.1074 111.676C76.1527 111.79 76.176 111.911 76.1762 112.034C76.4147 113.67 76.9162 115.257 77.6611 116.734C77.8994 117.139 78.1194 117.538 78.321 117.93C79.4547 119.497 80.431 121.173 81.2358 122.932C81.3897 123.163 81.4885 123.427 81.5246 123.702C82.0745 124.838 83.1653 125.704 84.7968 126.299Z" fill="#E6A997"/>
<path fill-rule="evenodd" clip-rule="evenodd" d="M73.7151 95.1294C73.7976 95.7973 73.8802 96.4543 73.9627 97.0947L74.4301 98.524C74.1888 100.637 74.1519 102.768 74.3201 104.887C73.8801 104.136 73.6189 102.867 73.5364 101.08L73.2477 96.38L73.7151 95.1294Z" fill="#D97C62"/>
<path fill-rule="evenodd" clip-rule="evenodd" d="M108.184 101.548C108.624 98.6963 109.357 97.3494 110.384 97.507C111.538 98.4232 111.442 100.448 110.095 103.582C109.486 104.794 108.768 105.949 107.95 107.031C109.397 105.055 110.375 102.776 110.81 100.366C110.885 99.2662 110.647 98.5927 110.095 98.3454C109.38 98.3454 108.743 99.4128 108.184 101.548Z" fill="#D56C4F"/>
<path fill-rule="evenodd" clip-rule="evenodd" d="M107.95 107.032C106.85 107.508 106.749 106.853 107.647 105.066C108.564 103.245 108.747 102.072 108.197 101.548C108.747 99.4131 109.384 98.3457 110.109 98.3457C110.658 98.5858 110.897 99.2592 110.823 100.366C110.385 102.777 109.402 105.057 107.95 107.032Z" fill="#D77457"/>
<path fill-rule="evenodd" clip-rule="evenodd" d="M70.9241 87.1581C71.8774 86.7184 72.8306 85.8846 73.7839 84.6568C76.2788 82.4304 78.7582 81.2989 81.222 81.2622C78.9528 81.7838 76.8352 82.8234 75.035 84.2995C74.6381 84.568 74.2776 84.8867 73.9626 85.2478C73.0169 86.279 71.8889 87.127 70.6354 87.7491C70.7618 87.5683 70.8592 87.3689 70.9241 87.1581Z" fill="#531100"/>
<path fill-rule="evenodd" clip-rule="evenodd" d="M70.9241 87.1581C71.0574 86.6069 71.1493 86.0464 71.1991 85.4814L71.2679 85.4265L71.3778 84.2995C71.7075 81.9149 72.4324 79.6018 73.5227 77.4553C74.0819 76.3549 74.7847 75.3336 75.6125 74.418C76.9059 73.0493 78.4154 71.9025 80.0809 71.0234C81.3202 70.3541 82.6359 69.8372 83.9994 69.4841C88.5028 67.9677 93.3138 67.5992 97.9957 68.4121C99.0327 68.7776 100.043 69.2138 101.021 69.7177C101.087 69.7485 101.147 69.7903 101.199 69.8414C103.454 71.2231 104.921 73.0876 105.599 75.435L105.778 75.6137H106.314L106.864 75.7923C107.647 76.0461 108.406 76.368 109.132 76.7544C111.242 78.7334 112.393 81.2531 112.583 84.3133C112.627 84.4886 112.651 84.6685 112.652 84.8493C112.033 88.8014 110.91 92.658 109.311 96.325C109.306 96.3878 109.287 96.4487 109.256 96.5037C108.989 96.5106 108.729 96.5864 108.5 96.7237C108.271 96.8609 108.082 97.055 107.95 97.2871C107.921 97.3844 107.858 97.4676 107.771 97.5207C107.366 99.7838 106.752 101.529 105.929 102.757C105.497 103.157 105.187 103.672 105.035 104.241C104.997 104.279 104.966 104.324 104.945 104.373C104.923 104.423 104.912 104.476 104.911 104.53C104.934 103.307 105.114 102.092 105.448 100.915C105.888 97.9742 105.828 95.6928 105.269 94.0711C105.271 93.9676 105.253 93.8647 105.214 93.7687L102.767 87.7079C102.69 85.6004 102.791 83.4902 103.069 81.3996H102.945C100.131 81.8321 96.5796 82.982 92.2899 84.8493C91.7023 85.1337 91.0842 85.3504 90.4476 85.4952C85.3678 87.2818 80.3861 87.9369 75.5025 87.4605C78.3256 86.6707 80.53 85.7178 82.1157 84.6019C80.4109 84.6019 78.4036 85.1379 76.0938 86.2098C75.0795 86.8617 73.9777 87.3661 72.8215 87.7079C72.8768 90.7705 73.1156 93.827 73.5364 96.861L73.9627 98.2903C73.8453 99.562 73.7857 100.872 73.7839 102.221C73.2614 101.266 72.9223 99.8369 72.7665 97.933L72.6428 97.5757C72.5182 96.6496 72.2588 95.7467 71.8728 94.8957C71.8394 94.7607 71.821 94.6224 71.8178 94.4834C71.7711 94.3267 71.6116 93.7742 71.3366 92.8204C71.0965 91.95 71.0965 90.342 71.3366 87.9965C70.8371 88.1631 70.3576 88.3843 69.9067 88.6562L70.388 88.0652C70.4769 87.9734 70.5552 87.872 70.6216 87.7628C71.8801 87.1422 73.0128 86.2941 73.9627 85.2616C74.2776 84.9005 74.6381 84.5817 75.0351 84.3133C76.8353 82.8371 78.9529 81.7975 81.2221 81.276C78.7564 81.3108 76.277 82.4423 73.7839 84.6706C72.8306 85.891 71.8774 86.7202 70.9241 87.1581Z" fill="#2D0900"/>
<path fill-rule="evenodd" clip-rule="evenodd" d="M70.8691 88.3403V88.2991C73.1783 87.6907 75.3551 86.661 77.2898 85.2618C78.8389 84.3547 80.6262 84.0203 82.6519 84.2585C83.0585 84.2442 83.4434 84.0716 83.7244 83.7775C83.6083 84.0281 83.4424 84.2524 83.2367 84.4367C83.0311 84.621 82.79 84.7615 82.5282 84.8495C80.8233 84.8495 78.8389 85.3855 76.5749 86.4575C75.5426 87.1089 74.4221 87.6087 73.2477 87.9418C73.365 91.3153 73.6033 94.3709 73.9626 97.1086L74.4301 98.5379C74.2695 99.8373 74.1914 101.146 74.1963 102.455C73.7197 101.502 73.3806 100.054 73.1789 98.1119L73.069 97.7546C72.9769 96.8506 72.7353 95.9682 72.354 95.1433C72.3073 94.9784 72.266 94.819 72.2303 94.6623C72.1945 94.5056 72.057 93.9696 71.8178 93.0543C71.5777 92.1839 71.5777 90.5805 71.8178 88.2441L70.8691 88.3403ZM90.9426 85.6604C85.8188 87.4928 80.8188 88.1479 75.9425 87.6257C83.7995 87.6733 90.4448 86.1295 95.8784 82.9941C98.3973 81.891 101.066 81.1684 103.798 80.8502L103.44 81.6198C100.581 82.0596 97.0287 83.2094 92.7849 85.0694C92.1807 85.3093 91.5605 85.5068 90.9288 85.6604H90.9426ZM109.572 76.9195C111.708 78.8986 112.877 81.4365 113.078 84.5334C113.08 84.7135 113.062 84.8933 113.023 85.0694C112.383 89.3573 111.293 93.1643 109.751 96.4902C109.745 96.5549 109.721 96.6166 109.682 96.6688C109.422 96.7025 109.172 96.7894 108.947 96.9242C108.723 97.059 108.528 97.2388 108.376 97.4522C108.743 96.5726 109.178 95.9542 109.682 95.5969C111.627 90.5668 112.503 86.6636 112.308 83.8875C111.942 79.6362 110.374 77.057 107.606 76.1499C108.284 76.3305 108.94 76.5887 109.559 76.9195H109.572ZM103.449 81.6115L103.977 81.0838C104.532 79.3943 105.246 77.7608 106.108 76.2049C105.724 77.8546 105.059 79.4259 104.142 80.8502C103.671 83.1182 103.55 85.4449 103.784 87.7494C104.752 90.0169 105.588 92.3389 106.286 94.7035C106.754 96.5419 106.73 98.4708 106.218 100.297C105.668 102.166 105.411 103.559 105.448 104.475C105.41 104.562 105.391 104.655 105.393 104.75C105.367 103.506 105.525 102.265 105.86 101.067C106.335 98.1733 106.298 95.9102 105.75 94.2775C105.704 94.1584 105.663 94.0622 105.626 93.9889L103.248 87.8593C103.136 85.7522 103.233 83.6392 103.537 81.5511C103.496 81.5572 103.46 81.5789 103.435 81.6115H103.449Z" fill="#110400"/>
<path fill-rule="evenodd" clip-rule="evenodd" d="M76.0937 74.652C77.3761 73.2981 78.8658 72.1568 80.5071 71.2711C81.7716 70.6012 83.1096 70.08 84.4942 69.7181C88.9753 68.2125 93.7569 67.8256 98.4219 68.5911C99.344 68.9373 100.246 69.3337 101.125 69.7786C96.1167 67.3652 89.4255 67.9818 81.0515 71.6284C76.1606 74.6795 73.1468 78.6651 72.0103 83.5852C72.3875 81.5203 73.0492 79.5177 73.9763 77.6343C74.5744 76.568 75.2842 75.5683 76.0937 74.652Z" fill="#531100"/>
<path fill-rule="evenodd" clip-rule="evenodd" d="M87.0516 107.815C84.7143 108.291 83.3073 108.213 82.8307 107.581L82.762 107.031C82.86 107.009 82.948 106.955 83.0126 106.878C83.0771 106.802 83.1146 106.706 83.1194 106.605C83.7796 104.544 84.2581 102.428 84.5493 100.283L85.6905 99.8159L86.6391 100.462L86.2816 107.196C86.2829 107.29 86.3051 107.383 86.3465 107.468C86.3879 107.553 86.4474 107.627 86.521 107.687C86.5945 107.746 86.6802 107.788 86.772 107.81C86.8637 107.832 86.9592 107.834 87.0516 107.815Z" fill="#E29E8B"/>
<path fill-rule="evenodd" clip-rule="evenodd" d="M87.5327 109.285L88.0002 108.873C88.6794 108.755 89.0589 108.771 89.1414 108.928C89.0314 109.012 88.9043 109.072 88.7691 109.103C88.6338 109.134 88.4935 109.135 88.3577 109.106C88.0742 109.116 87.7948 109.177 87.5327 109.285ZM82.8306 109.23C82.6605 109.082 82.4813 108.944 82.2944 108.818C82.2607 108.753 82.2191 108.693 82.1707 108.639L82.7619 108.928L82.8306 109.23Z" fill="#9C493A"/>
<path fill-rule="evenodd" clip-rule="evenodd" d="M82.762 108.928V108.749C83.1861 109.111 83.7072 109.34 84.2606 109.409H85.0305L86.4604 109.285L87.7666 108.639L89.3751 108.392L89.8563 108.158C89.694 108.476 89.4466 108.743 89.1414 108.928C89.059 108.771 88.6794 108.755 88.0002 108.873L87.5328 109.285H87.3541C86.9874 109.485 86.5887 109.723 86.1579 110C85.0122 110.322 84.1002 110.263 83.4219 109.821C83.2211 109.629 83.0232 109.431 82.8307 109.23L82.762 108.928Z" fill="#D67154"/>
<path fill-rule="evenodd" clip-rule="evenodd" d="M82.762 108.749L82.3495 108.213L81.6345 107.746L81.6895 106.427L82.5832 106.069L82.762 107.031L82.8307 107.581C83.3055 108.213 84.7124 108.291 87.0516 107.815C87.5566 107.112 88.1376 106.466 88.784 105.891C89.4512 106.257 89.8087 107.013 89.8563 108.158L89.3751 108.392L87.7666 108.639L86.4604 109.285L85.0305 109.409H84.2606C83.7072 109.341 83.1861 109.111 82.762 108.749Z" fill="#DA8167"/>
<path fill-rule="evenodd" clip-rule="evenodd" d="M82.1845 108.639C82.1845 108.593 82.1653 108.571 82.1295 108.571L81.882 108.337C81.7396 108.172 81.6572 107.964 81.6483 107.746L82.3632 108.213L82.7757 108.749V108.928L82.1845 108.639Z" fill="#CF5A38"/>
<path fill-rule="evenodd" clip-rule="evenodd" d="M89.6089 92.0372C89.4907 91.4875 89.6694 90.7811 90.1451 89.9482C90.5856 90.2436 91.0999 90.4102 91.63 90.4293L91.3963 90.0032C92.0021 90.2787 92.6466 90.4595 93.3074 90.5392L94.0773 90.6629L94.3798 90.7866C95.4418 90.9099 96.4939 91.1074 97.5283 91.3776C98.3606 91.6176 98.8967 91.778 99.1369 91.8586C100.603 92.7656 101.593 93.7368 102.107 94.7722C101.017 93.9635 99.7564 93.4136 98.422 93.1642C95.4634 92.9751 92.5198 92.5987 89.6089 92.0372Z" fill="#2D0900"/>
<path fill-rule="evenodd" clip-rule="evenodd" d="M76.5749 91.9685C76.2761 91.9718 75.9774 91.9535 75.6812 91.9135C75.0836 91.996 74.7261 92.2159 74.6088 92.5732C74.8489 91.1439 75.6234 90.4659 76.9323 90.5392C79.196 90.5276 81.4446 90.1707 83.6005 89.481L83.1881 90.1819L83.8343 89.9482C83.6645 90.6224 83.3181 91.2391 82.8307 91.7349C82.7308 91.8271 82.6068 91.889 82.4732 91.9135C81.9965 92.1151 81.2633 92.1747 80.2733 92.0922C79.0403 92.2105 77.7972 92.169 76.5749 91.9685Z" fill="#2D0900"/>
<path fill-rule="evenodd" clip-rule="evenodd" d="M92.8811 112.446C92.7727 112.507 92.6898 112.604 92.6474 112.721C91.1982 112.65 89.7456 112.691 88.3027 112.845C86.3202 113.325 84.2449 113.263 82.2944 112.666L81.332 112.433L81.222 112.254L82.2944 112.433C84.2449 113.03 86.3202 113.091 88.3027 112.611C89.8236 112.456 91.353 112.401 92.8811 112.446Z" fill="#DDDDDD"/>
<path fill-rule="evenodd" clip-rule="evenodd" d="M90.2688 114.164C88.4679 114.673 86.5795 114.795 84.728 114.522L84.1918 114.467C84.1418 114.426 84.0775 114.406 84.0131 114.412C83.6079 114.302 83.2124 114.16 82.8307 113.986C82.6818 113.921 82.5391 113.843 82.4045 113.752C82.1225 113.59 81.8635 113.392 81.6345 113.161L81.332 112.446L82.2945 112.68C84.2449 113.277 86.3202 113.339 88.3028 112.859C89.7456 112.705 91.1982 112.663 92.6474 112.735C92.0211 113.372 91.2464 113.845 90.3926 114.109C90.3693 114.109 90.3463 114.114 90.325 114.124C90.3037 114.133 90.2846 114.147 90.2688 114.164Z" fill="#F2F2F2"/>
<path fill-rule="evenodd" clip-rule="evenodd" d="M94.1323 112.089C94.0263 112.123 93.9313 112.184 93.8573 112.267L93.6099 112.377C93.4041 112.456 93.1814 112.48 92.9636 112.446H92.8949C91.3665 112.405 89.8371 112.465 88.3165 112.625C86.334 113.105 84.2587 113.043 82.3082 112.446L81.2358 112.267L80.9333 112.199C80.5917 112.155 80.2555 112.077 79.9297 111.965C79.8115 111.929 79.6905 111.888 79.5722 111.841C79.4202 111.736 79.2592 111.644 79.091 111.566C79.0085 111.52 78.9315 111.478 78.8572 111.443C78.7518 111.371 78.6508 111.293 78.5548 111.209C79.8999 111.163 81.2442 111.32 82.542 111.676C83.4675 111.957 84.4379 112.06 85.4017 111.979H85.5255C85.799 111.943 86.0745 111.924 86.3504 111.924C88.3324 111.681 90.3399 111.741 92.3037 112.102H92.6062C93.2387 112.121 93.8705 112.047 94.4815 111.883C94.3519 111.926 94.2329 111.996 94.1323 112.089Z" fill="#C6533C"/>
<path fill-rule="evenodd" clip-rule="evenodd" d="M81.3321 112.446L81.6346 113.161C81.8635 113.391 82.1225 113.59 82.4045 113.752C82.5391 113.842 82.6818 113.921 82.8308 113.985C83.1268 114.417 83.505 114.786 83.9438 115.071C84.3826 115.356 84.8734 115.553 85.388 115.648C84.4131 115.615 83.4488 115.435 82.5283 115.112C82.2533 114.92 81.9975 114.722 81.7583 114.521C81.0298 113.796 80.3544 113.02 79.7372 112.199C79.6888 112.074 79.6289 111.955 79.5585 111.841C79.6767 111.888 79.7977 111.929 79.916 111.965C80.2417 112.077 80.578 112.155 80.9196 112.199L81.2221 112.267L81.3321 112.446ZM90.2689 114.164C90.2846 114.147 90.3038 114.133 90.3251 114.124C90.3463 114.114 90.3694 114.109 90.3927 114.109C91.2464 113.844 92.0212 113.372 92.6475 112.735C92.6898 112.618 92.7727 112.52 92.8812 112.46H92.9499C93.1676 112.494 93.3904 112.47 93.5961 112.391C93.3615 112.502 93.1439 112.645 92.9499 112.817C92.8181 112.906 92.7134 113.03 92.6475 113.174C91.8737 113.906 91.0152 114.543 90.0902 115.071C89.8509 115.107 89.6144 115.148 89.3752 115.195C89.789 114.972 90.1069 114.605 90.2689 114.164Z" fill="#260E0D"/>
<path fill-rule="evenodd" clip-rule="evenodd" d="M82.5282 115.112C82.7695 115.332 83.0557 115.496 83.3669 115.593C83.5237 115.676 83.6776 115.753 83.8344 115.827C84.1067 115.908 84.3891 115.949 84.6731 115.951C85.9461 116.109 87.2374 116.029 88.4815 115.717C88.6083 115.703 88.7304 115.66 88.839 115.593C88.9079 115.568 88.9694 115.525 89.0177 115.47C89.3857 115.361 89.7443 115.223 90.0901 115.057C91.0151 114.529 91.8737 113.893 92.6474 113.161C92.7134 113.016 92.8181 112.892 92.9499 112.803C93.1439 112.631 93.3615 112.488 93.5961 112.377L93.8436 112.267C93.9176 112.184 94.0125 112.123 94.1185 112.089C94.1194 112.096 94.1186 112.104 94.1162 112.111C94.1137 112.118 94.1097 112.124 94.1044 112.13C94.0991 112.135 94.0927 112.139 94.0856 112.141C94.0786 112.144 94.071 112.145 94.0636 112.144C94.0335 112.249 93.992 112.35 93.9398 112.446C93.1057 113.793 92.235 114.764 91.3275 115.36C90.0971 116.394 88.6188 117.09 87.0378 117.38C86.2297 117.505 85.406 117.486 84.6043 117.325C83.9566 117.227 83.3295 117.022 82.7482 116.72C82.0778 116.338 81.5223 115.782 81.1396 115.112C80.7079 114.444 80.4521 114.09 80.3696 114.054C79.8914 113.377 79.4729 112.659 79.1185 111.91C79.1178 111.789 79.0992 111.669 79.0635 111.553C79.2317 111.63 79.3927 111.722 79.5447 111.828C79.6151 111.941 79.675 112.061 79.7235 112.185C80.3407 113.007 81.0161 113.783 81.7445 114.508C81.9975 114.722 82.2533 114.92 82.5282 115.112Z" fill="#EC7861"/>
<path fill-rule="evenodd" clip-rule="evenodd" d="M85.3879 115.649C86.7324 115.682 88.0748 115.524 89.3751 115.181C89.6144 115.135 89.8509 115.093 90.0901 115.058C89.7443 115.224 89.3857 115.361 89.0177 115.47C88.9693 115.525 88.9079 115.568 88.8389 115.594C88.7304 115.661 88.6083 115.703 88.4815 115.717C87.2373 116.03 85.9461 116.109 84.673 115.951C84.389 115.95 84.1066 115.908 83.8343 115.827C83.6776 115.753 83.5236 115.676 83.3669 115.594C83.0557 115.496 82.7695 115.332 82.5282 115.113C83.4488 115.435 84.413 115.616 85.3879 115.649Z" fill="#EAEAEA"/>
<path fill-rule="evenodd" clip-rule="evenodd" d="M89.3751 115.181C88.0748 115.524 86.7324 115.681 85.3879 115.648C84.8733 115.553 84.3826 115.357 83.9438 115.071C83.505 114.786 83.1268 114.417 82.8307 113.985C83.2124 114.16 83.6078 114.302 84.013 114.411C84.0775 114.406 84.1417 114.425 84.1918 114.466L84.728 114.521C86.5795 114.795 88.4679 114.673 90.2688 114.164C90.104 114.6 89.7864 114.961 89.3751 115.181Z" fill="#311110"/>
<path fill-rule="evenodd" clip-rule="evenodd" d="M75.9288 98.9912C75.3312 98.5991 75.2487 98.283 75.6813 98.043C76.5979 97.0534 78.0461 96.6549 80.0259 96.8473C80.7757 96.6897 81.4907 97.0287 82.1708 97.8643C82.564 98.3398 82.685 98.6889 82.5283 98.8813L79.5585 99.2386C77.7253 99.5501 76.5154 99.4677 75.9288 98.9912Z" fill="#E1E7E5"/>
<path fill-rule="evenodd" clip-rule="evenodd" d="M82.3495 98.8814C82.6244 98.8347 82.7839 98.8347 82.8307 98.8814C81.9984 98.9987 81.2422 99.1361 80.5621 99.2937C78.3439 99.6602 76.6986 99.5411 75.6262 98.9364C75.3045 98.7358 75.2275 98.4966 75.3925 98.2218V98.0981C75.9058 97.191 77.2349 96.6962 79.3797 96.6138C80.9654 96.6138 82.0928 97.3101 82.7619 98.7028L82.487 98.241V98.2218L82.4182 98.1668C81.8303 97.4308 80.9754 96.9567 80.0396 96.8474C78.0598 96.8932 76.6115 97.3697 75.6949 98.2767C75.5767 98.5516 75.6757 98.7385 75.9974 98.8127C76.87 99.3625 78.3595 99.5045 80.4658 99.2388C81.0829 99.0686 81.7129 98.9491 82.3495 98.8814Z" fill="#321C12"/>
<path fill-rule="evenodd" clip-rule="evenodd" d="M82.3495 98.8814C82.6245 98.766 82.663 98.5516 82.487 98.241L82.7619 98.7028L82.8307 98.8814C82.7839 98.8347 82.6245 98.8347 82.3495 98.8814ZM79.4347 96.2702C76.8591 96.2353 75.333 97.0691 74.8563 98.7715C75.289 96.8291 76.6547 95.7983 78.9535 95.6792C80.8582 95.6792 82.3064 96.4305 83.2981 97.9331C82.5099 97.0077 81.222 96.4534 79.4347 96.2702ZM76.2175 99.7747C78.0179 100.02 79.8455 99.9826 81.6345 99.6648C79.7298 100.37 77.9242 100.402 76.2175 99.761V99.7747Z" fill="#C36F5F"/>
<path fill-rule="evenodd" clip-rule="evenodd" d="M77.6474 97.9194C77.6299 97.7819 77.6417 97.6423 77.682 97.5097C77.7223 97.377 77.7901 97.2544 77.8811 97.1498C78.3431 96.9893 78.8235 96.8877 79.311 96.8475L79.3797 96.7925C79.7372 96.8282 80.0342 96.8475 80.2734 96.8475C80.5288 97.1742 80.6733 97.5737 80.6859 97.9882C80.7116 98.3785 80.5832 98.7633 80.3284 99.0601C80.2838 99.1296 80.2229 99.1872 80.151 99.2279C80.0792 99.2686 79.9985 99.2912 79.9159 99.2938C79.7589 99.3346 79.5969 99.3531 79.4347 99.3488C79.1809 99.3964 78.923 99.4194 78.6648 99.4175C78.4419 99.3664 78.2344 99.2627 78.0598 99.1151C77.7802 98.7807 77.6334 98.3551 77.6474 97.9194Z" fill="#321C12"/>
<path fill-rule="evenodd" clip-rule="evenodd" d="M98.1332 98.9916C98.6089 99.2665 98.5127 99.6156 97.8582 100.009C97.1433 100.401 95.7318 100.401 93.6236 100.009L90.5988 99.4177C90.3972 99.1776 90.5347 98.7974 91.0113 98.277C91.8454 97.4047 92.6795 97.1069 93.5136 97.3836C95.6327 97.2279 97.1726 97.7639 98.1332 98.9916Z" fill="#E1E7E5"/>
<path fill-rule="evenodd" clip-rule="evenodd" d="M95.9334 100.064C95.6941 100.146 95.4796 100.223 95.2871 100.297L94.3247 100.187C94.1493 100.143 93.9693 100.12 93.7885 100.119C93.6514 100.019 93.5308 99.8983 93.431 99.7612C93.2825 99.5961 93.1792 99.3955 93.1311 99.1788C93.0829 98.9621 93.0915 98.7367 93.156 98.5243C93.1547 98.2927 93.2074 98.0641 93.3101 97.8565C93.4127 97.6489 93.5624 97.4681 93.7473 97.3286C94.062 97.3672 94.3789 97.3855 94.696 97.3836C95.256 97.4831 95.8076 97.6256 96.3458 97.8096C96.5412 98.1306 96.6052 98.5146 96.5245 98.8816C96.4778 99.3343 96.2676 99.7545 95.9334 100.064Z" fill="#321C12"/>
<path fill-rule="evenodd" clip-rule="evenodd" d="M98.2432 100.009C96.9691 100.558 95.1039 100.536 92.6474 99.94C91.8292 99.6832 90.9987 99.4676 90.1589 99.294C90.9563 97.7089 92.2671 96.953 94.0911 97.0263C96.4742 97.3928 97.9041 98.0892 98.3807 99.1153L98.4357 99.1703L98.5595 99.239C98.5909 99.3842 98.5775 99.5356 98.521 99.673C98.4645 99.8104 98.3677 99.9275 98.2432 100.009ZM90.6813 99.349L92.8261 99.885C95.0901 100.4 96.7583 100.4 97.8307 99.885C97.8995 99.861 97.9618 99.8215 98.0127 99.7696C98.0637 99.7176 98.102 99.6546 98.1246 99.5855C98.1472 99.5163 98.1535 99.4429 98.1431 99.3709C98.1327 99.2989 98.1058 99.2302 98.0645 99.1703C97.1479 98.1808 95.6218 97.5852 93.4861 97.3837C92.9618 97.3815 92.4426 97.4865 91.9603 97.6921C91.478 97.8977 91.0427 98.1996 90.6813 98.5793C90.4717 98.7961 90.2872 99.0359 90.1313 99.294C90.316 99.2951 90.5001 99.3135 90.6813 99.349Z" fill="#321C12"/>
<path fill-rule="evenodd" clip-rule="evenodd" d="M99.0132 99.7613C98.5824 97.9013 96.9188 96.8706 94.0224 96.669C92.0773 96.7515 90.6474 97.2874 89.7327 98.277C90.9242 96.6094 92.5924 95.8764 94.7373 96.078C97.2762 96.4353 98.7015 97.6631 99.0132 99.7613ZM90.6813 99.349C90.5001 99.3135 90.316 99.2951 90.1314 99.294C90.2872 99.0358 90.4717 98.7961 90.6813 98.5793C90.4063 98.9724 90.4063 99.2308 90.6813 99.349ZM97.4046 100.833C95.4614 101.355 93.4449 101.172 91.3551 100.284C93.3299 100.785 95.3717 100.97 97.4046 100.833Z" fill="#C36F5F"/>
<path fill-rule="evenodd" clip-rule="evenodd" d="M95.8646 112.804C96.1029 112.007 96.1029 111.351 95.8646 110.838C93.5217 111.381 91.1191 111.621 88.7152 111.553L83.6005 111.484L83.2431 111.429C81.6606 111.398 80.0926 111.12 78.596 110.605C78.1193 110.687 78.3026 111.695 79.1459 113.628C79.4681 115.721 80.1128 117.752 81.057 119.648C82.1569 120.52 83.0506 120.932 83.738 120.885L85.223 119.579L86.8315 119.648L88.014 121.311L90.9975 120.83C93.0507 118.768 94.673 116.093 95.8646 112.804ZM105.571 102.688L105.503 104.296L104.32 109.643L103.963 113.876C103.823 114.642 103.518 115.369 103.069 116.006L93.1286 124.705C92.1995 125.327 91.1723 125.787 90.0901 126.066C89.4527 126.269 88.7919 126.389 88.124 126.423C87.9899 126.462 87.851 126.48 87.7115 126.478L84.0818 126.245C82.4117 125.647 81.321 124.777 80.8095 123.633C80.7651 123.354 80.662 123.087 80.507 122.85C79.6697 121.112 78.695 119.444 77.5923 117.861C77.3971 117.467 77.1766 117.086 76.9323 116.721C76.2239 115.21 75.7244 113.61 75.4475 111.965C75.4118 111.85 75.3933 111.729 75.3925 111.608L74.8425 108.282C75.2367 110.298 75.7316 111.901 76.3274 113.092C76.6575 113.742 77.15 114.296 77.7573 114.7C78.6299 115.023 78.8682 114.725 78.4722 113.807C77.3522 111.505 77.0543 109.998 77.5786 109.285C78.0918 108.809 79.5996 108.749 82.1019 109.107C84.1276 109.739 86.7262 109.881 89.8976 109.533C93.234 109.251 95.4155 109.228 96.4421 109.464C97.1204 109.704 97.2991 110.597 96.9783 112.144V112.446C96.9416 113.236 97.4595 113.392 98.5319 112.914C98.6501 112.878 98.7876 112.839 98.9444 112.804C100.768 111.887 102.276 110.38 103.468 108.282C104.436 106.529 105.144 104.645 105.571 102.688Z" fill="#422222"/>
<path fill-rule="evenodd" clip-rule="evenodd" d="M74.3201 98.5244V100.119L71.8728 100.366V98.277L74.0726 97.686L74.3201 98.5244Z" fill="#0B0B0B"/>
<path fill-rule="evenodd" clip-rule="evenodd" d="M103.179 100.063V99.17L104.856 98.7577V97.8094L103.179 98.2218V97.8094L108.954 96.6138L107.414 98.6341L103.179 100.063Z" fill="#1F1F1F"/>
<path fill-rule="evenodd" clip-rule="evenodd" d="M102.409 97.9195L103.179 97.8096V98.2219V99.1702V100.063L102.409 100.297V97.9195Z" fill="#21141B"/>
<path fill-rule="evenodd" clip-rule="evenodd" d="M103.179 99.1702V98.2219L104.856 97.8096V98.7579L103.179 99.1702Z" fill="#666666"/>
<path fill-rule="evenodd" clip-rule="evenodd" d="M93.7747 104.351L95.9196 99.651L92.2349 104.173C91.7949 104.09 91.3962 104.013 91.0387 103.939L94.2559 97.7407L89.9663 103.458C89.1597 102.596 88.5333 101.582 88.124 100.476C88.0415 99.4494 88.4173 98.7164 89.2514 98.2766H89.3201C90.5117 97.6444 92.5557 97.2688 95.4521 97.1497C96.9074 97.0459 98.37 97.1477 99.7968 97.452C100.088 97.5788 100.344 97.7756 100.54 98.025C100.737 98.2744 100.869 98.5686 100.924 98.8814V98.9363C100.945 99.8202 100.824 100.702 100.567 101.548C100.567 101.571 100.562 101.594 100.552 101.615C100.543 101.636 100.529 101.656 100.512 101.671C100.145 102.661 98.8939 103.476 96.7583 104.118C95.7755 104.305 94.7748 104.384 93.7747 104.351ZM73.3576 102.51C73.0897 102.238 72.8875 101.909 72.7664 101.548V101.493C72.5426 100.719 72.4224 99.9199 72.4089 99.115V99.06C72.4521 98.781 72.5606 98.5161 72.7254 98.2869C72.8902 98.0576 73.1068 97.8705 73.3576 97.7407C74.5852 97.4428 75.8493 97.3225 77.1111 97.3833C79.2908 97.431 80.9773 97.6509 82.1707 98.043C82.3826 98.0797 82.5761 98.1861 82.7206 98.3454H82.8443C83.5941 98.776 83.9516 99.4861 83.9168 100.476C83.4594 101.59 82.8129 102.618 82.0057 103.513C81.8741 103.585 81.736 103.645 81.5933 103.692C80.1313 104.042 78.6238 104.162 77.1249 104.049L82.1844 98.043L75.3925 103.692C75.1705 103.559 74.9293 103.462 74.6775 103.403L77.9498 99.3486L73.3576 102.51Z" fill="#D4D4D4" fill-opacity="0.2"/>
<path fill-rule="evenodd" clip-rule="evenodd" d="M102.409 97.9194V100.297L101.818 100.599C101.513 101.564 100.98 102.44 100.264 103.156C100.19 103.156 100.154 103.178 100.154 103.224C98.8418 104.131 97.114 104.686 94.971 104.887C94.5737 104.843 94.1744 104.821 93.7748 104.819H93.5411C92.9434 104.824 92.3462 104.787 91.7537 104.709L90.75 104.475C90.34 104.367 89.9398 104.225 89.5539 104.049C88.7944 103.197 88.1347 102.261 87.5878 101.259V101.19C87.2211 100.441 86.685 100.084 85.9792 100.118H85.9242C85.2093 100.084 84.6913 100.423 84.3705 101.135L84.3155 101.259C83.8039 102.206 83.2056 103.103 82.5282 103.939C81.5016 104.415 80.1909 104.654 78.596 104.654H77.4686C77.2536 104.577 77.0329 104.518 76.8086 104.475C76.1631 104.372 75.5281 104.211 74.9113 103.994C74.7197 103.964 74.5341 103.904 74.3613 103.815C73.8856 103.54 73.4484 103.266 73.0552 102.977L72.9315 102.867C72.3081 102.236 71.8582 101.455 71.6253 100.599L71.1991 100.366V98.0431C72.1805 97.5394 73.2592 97.2534 74.3613 97.2048C75.0698 97.0836 75.7874 97.0239 76.5062 97.0261C78.0564 96.9948 79.6065 97.0959 81.1395 97.3284C82.1386 97.5282 83.1515 97.7664 84.1781 98.0431C84.8034 98.1974 85.445 98.2758 86.0891 98.2767C86.6665 98.2363 87.2406 98.1583 87.8078 98.0431C88.8435 97.7206 89.8976 97.4411 90.97 97.2048C92.6428 96.9325 94.3348 96.7946 96.0297 96.7925C96.8824 96.7562 97.7365 96.7746 98.5869 96.8474C99.7264 96.9109 100.849 97.1521 101.914 97.5621C102.079 97.6081 102.24 97.6679 102.395 97.7408L102.409 97.9194ZM93.7748 104.351C94.7749 104.384 95.7755 104.306 96.7583 104.118C98.9031 103.478 100.154 102.663 100.512 101.671C100.529 101.656 100.543 101.636 100.552 101.615C100.562 101.594 100.567 101.571 100.567 101.548C100.824 100.702 100.945 99.8203 100.924 98.9364V98.8815C100.869 98.5687 100.737 98.2745 100.54 98.0251C100.344 97.7757 100.088 97.5789 99.7968 97.4521C98.37 97.1478 96.9074 97.046 95.4522 97.1498C92.5557 97.2689 90.5117 97.6445 89.3201 98.2767H89.2514C88.4191 98.7165 88.0434 99.4495 88.124 100.476C88.5334 101.582 89.1597 102.596 89.9664 103.458C90.0129 103.494 90.0545 103.535 90.0901 103.582C90.2452 103.655 90.4062 103.714 90.5713 103.76C90.7342 103.799 90.8914 103.859 91.0388 103.939C91.3962 104.013 91.795 104.09 92.2349 104.173C92.7447 104.259 93.2587 104.319 93.7748 104.351ZM73.3576 102.51C73.7514 102.871 74.1961 103.172 74.6775 103.403C74.9293 103.462 75.1705 103.559 75.3925 103.692C75.5782 103.784 75.778 103.844 75.9837 103.87C76.355 103.955 76.7317 104.015 77.1111 104.049C78.6101 104.162 80.1176 104.042 81.5795 103.692C81.7222 103.645 81.8603 103.585 81.992 103.513C82.7991 102.618 83.4456 101.591 83.9031 100.476C83.9397 99.4862 83.5823 98.7761 82.8307 98.3455H82.7069C82.5624 98.1862 82.3688 98.0798 82.1569 98.0431C80.9672 97.6491 79.2807 97.4292 77.0974 97.3834C75.8356 97.3226 74.5716 97.4429 73.3439 97.7408C73.0932 97.8706 72.8765 98.0577 72.7117 98.287C72.5468 98.5162 72.4384 98.7811 72.3952 99.0601V99.1151C72.4087 99.9199 72.5289 100.719 72.7527 101.493V101.548C72.8778 101.911 73.0847 102.24 73.3576 102.51Z" fill="#050304"/>
<path fill-rule="evenodd" clip-rule="evenodd" d="M102.588 97.4521L103.179 97.8095L102.409 97.9194V97.7408C102.254 97.6679 102.093 97.6081 101.928 97.5621L102.588 97.4521Z" fill="#150D11"/>
<path fill-rule="evenodd" clip-rule="evenodd" d="M102.588 97.4521L108.954 96.6138L103.179 97.8094L102.588 97.4521Z" fill="#161616"/>
<path fill-rule="evenodd" clip-rule="evenodd" d="M89.9664 103.458L94.256 97.7407L91.0388 103.939C90.8914 103.859 90.7343 103.799 90.5713 103.76C90.4062 103.714 90.2453 103.655 90.0901 103.582C90.0546 103.535 90.013 103.494 89.9664 103.458ZM93.7748 104.351C93.2587 104.319 92.7447 104.259 92.235 104.173L95.9334 99.6511L93.7748 104.351ZM77.1112 104.049C76.7317 104.015 76.355 103.955 75.9837 103.87C75.778 103.844 75.5782 103.784 75.3925 103.692L82.1845 98.0431L77.1112 104.049ZM74.6776 103.417C74.1961 103.185 73.7514 102.884 73.3577 102.523L77.9499 99.3624L74.6776 103.417Z" fill="#D4D4D4" fill-opacity="0.3"/>
<path fill-rule="evenodd" clip-rule="evenodd" d="M191.64 186.523L192.588 204.912C178.903 211.014 163.17 212.778 145.388 210.203C137.772 197.406 132.34 183.43 129.316 168.849C131.578 157.937 136.262 149.15 143.367 142.489C147.374 160.337 152.494 176.344 158.725 190.509C169.838 190.931 180.948 189.586 191.64 186.523Z" fill="#30212B"/>
<path fill-rule="evenodd" clip-rule="evenodd" d="M192.409 200.995C179.953 207.619 164.678 209.8 146.584 207.537L150.324 203.015L145.979 205.97L132.052 170.155C133.326 160.956 137.098 151.734 143.367 142.489C147.374 160.337 152.494 176.344 158.725 190.509C169.838 190.931 180.948 189.586 191.64 186.523L192.409 200.995Z" fill="#30212B"/>
<path fill-rule="evenodd" clip-rule="evenodd" d="M143.367 142.489C137.098 151.734 133.326 160.956 132.052 170.155L145.979 205.97L150.324 203.002L146.584 207.523C164.678 209.786 179.953 207.606 192.41 200.981L192.588 204.912C178.903 211.014 163.17 212.778 145.388 210.203C137.772 197.406 132.34 183.43 129.316 168.849C131.58 157.937 136.263 149.15 143.367 142.489Z" fill="#23181F"/>
<path fill-rule="evenodd" clip-rule="evenodd" d="M191.64 186.455C192.428 186.455 193.12 187.389 193.716 189.258C194.313 191.045 194.634 193.207 194.678 195.745C194.753 198.32 194.533 200.519 194.018 202.342C193.505 204.129 192.849 205.022 192.052 205.022C191.255 205.022 190.563 204.129 189.976 202.342C189.378 200.519 189.039 198.32 188.959 195.745C188.922 193.207 189.16 191.045 189.673 189.258C190.189 187.389 190.844 186.455 191.64 186.455Z" fill="#181015"/>
<path fill-rule="evenodd" clip-rule="evenodd" d="M214.023 185.094C216.653 184.582 219.353 184.54 221.997 184.97L227.359 183.541C228.979 183.351 230.61 183.273 232.24 183.307C232.116 183.555 231.973 183.794 231.814 184.022L227.772 184.256L222.052 185.74C218.842 185.348 216.184 185.49 214.078 186.166C216.576 186.968 219.12 187.625 221.695 188.131L214.023 186.757V185.094Z" fill="#D36A4B"/>
<path fill-rule="evenodd" clip-rule="evenodd" d="M210.874 180.806C211.175 180.896 211.458 181.035 211.713 181.218C214.168 181.741 216.725 182.158 219.385 182.469L219.632 183.005L219.907 182.826C223.89 181.483 228.13 181.079 232.295 181.644C232.412 181.906 232.467 182.19 232.458 182.475C232.448 182.761 232.374 183.041 232.24 183.294C230.61 183.259 228.979 183.337 227.359 183.527L221.997 184.957C219.353 184.527 216.653 184.568 214.023 185.08L210.874 180.806Z" fill="#DE9078"/>
<path fill-rule="evenodd" clip-rule="evenodd" d="M232.295 181.644C228.13 181.078 223.89 181.483 219.907 182.826L219.632 183.005L219.385 182.469C216.725 182.157 214.168 181.74 211.713 181.218C211.459 181.035 211.175 180.895 210.874 180.806L210.764 180.682C211.466 180.772 212.16 180.914 212.84 181.108C215.237 181.722 217.696 182.059 220.169 182.111L220.402 182.056C226.223 180.71 230.187 180.572 232.295 181.644Z" fill="#E4A694"/>
<path fill-rule="evenodd" clip-rule="evenodd" d="M225.682 188.31L229.917 183.128C229.868 183.004 229.808 182.885 229.738 182.771C230.648 182.535 231.596 182.475 232.529 182.592C233.84 183.069 234.275 183.921 233.835 185.149C233.835 184.049 233.5 183.358 232.831 183.074C231.93 182.873 230.996 182.873 230.095 183.074L230.329 183.362L226.823 187.595L227.414 187.471L225.682 188.31ZM221.585 191.938L220.444 192.529L221.818 189.78C222.54 188.701 223.421 187.737 224.431 186.922C224.344 186.656 224.189 186.417 223.982 186.229C223.774 186.041 223.522 185.91 223.248 185.85C222.896 185.767 222.529 185.767 222.176 185.85C221.022 186.457 220.053 187.364 219.371 188.475L217.708 190.674L214.38 192.213L214.793 188.117L214.202 184.503L211.575 181.479L214.49 184.159L214.793 185.698V186.056L214.971 188.076L216.223 189.217L219.014 188.378L220.98 186.234C221.591 185.717 222.381 185.461 223.18 185.52L223.784 184.984L224.788 184.036L226.713 182.73C227.813 182.134 228.684 182.052 229.325 182.483C228.143 182.483 227.254 182.702 226.658 183.142C226.627 183.178 226.589 183.208 226.547 183.229C226.504 183.25 226.458 183.263 226.411 183.266L224.032 185.932C224.476 186.107 224.852 186.42 225.104 186.825C223.909 187.632 222.881 188.664 222.08 189.863L221.076 192.007L221.585 191.938ZM190.155 187.952L194.554 186.702L194.912 186.454C195.113 185.822 195.608 185.268 196.397 184.791L197.593 182.592L199.971 180.394C199.971 180.153 201.241 178.981 203.78 176.875C205.142 176.337 206.557 175.941 208.001 175.693L212.235 173.549C212.475 173.668 212.689 173.769 212.882 173.852L209.018 176.518L209.609 177.535L208.179 176.765L203.835 177.947L198.597 183.486L199.38 183.664L196.287 186.221L195.146 187.829L189.55 189.67L189.673 189.258C189.804 188.813 189.965 188.376 190.155 187.952ZM218.904 188.901L216.168 189.918L215.026 188.846L214.751 191.691L217.488 190.509L218.904 188.901Z" fill="#D36A4B"/>
<path fill-rule="evenodd" clip-rule="evenodd" d="M233.835 185.149L229.257 186.455L227.414 187.472L226.823 187.596L230.329 183.363L230.095 183.074C230.996 182.873 231.93 182.873 232.831 183.074C233.5 183.349 233.835 184.041 233.835 185.149ZM229.738 182.772C229.808 182.885 229.868 183.005 229.917 183.129L225.682 188.31L223.84 190.921L221.585 191.938L221.049 191.993L222.052 189.849C222.854 188.651 223.881 187.619 225.077 186.812C224.825 186.407 224.449 186.094 224.005 185.919L226.383 183.253C226.43 183.249 226.477 183.237 226.519 183.216C226.562 183.194 226.6 183.165 226.631 183.129C227.228 182.689 228.117 182.469 229.298 182.469C229.46 182.545 229.609 182.647 229.738 182.772ZM220.444 192.529L220.031 193.354L218.835 194.426C216.528 194.881 214.303 195.683 212.235 196.804C208.414 197.389 204.536 197.509 200.686 197.161L199.201 197.807L198.06 199.236C197.75 199.045 197.456 198.829 197.18 198.59L189.729 201.435C189.268 199.567 189.01 197.655 188.959 195.732C188.891 193.69 189.09 191.648 189.55 189.657L195.146 187.815L196.287 186.207L199.38 183.651L198.597 183.473L203.835 177.934L208.18 176.752L209.609 177.522L209.018 176.505L212.882 173.838C213.156 173.989 213.391 174.202 213.567 174.459C213.744 174.717 213.858 175.013 213.899 175.323C213.279 176.579 212.335 177.646 211.163 178.415L209.376 178.717L206.103 180.435L205.691 180.257L206.227 181.15C205.984 181.112 205.745 181.053 205.512 180.971L206.873 183.995L204.907 188.516L199.256 189.767L203.656 189.643L207.767 191.485L213.844 192.378L213.542 191.43L214.38 192.2L217.708 190.66L219.797 188.461C219.99 187.701 220.705 186.986 221.942 186.317C222.884 185.841 223.714 186.038 224.431 186.908C223.421 187.724 222.54 188.688 221.818 189.767L220.444 192.529ZM218.904 188.901L217.474 190.509L214.738 191.691L215.013 188.846L216.154 189.918L218.904 188.901ZM194.926 186.455L194.568 186.702L190.168 187.953L190.278 187.706L194.926 186.455ZM211.589 181.466C209.802 181.653 207.996 181.551 206.241 181.164C206.287 181.005 206.323 180.845 206.351 180.683L206.777 180.518C207.445 180.765 208.143 180.922 208.853 180.985C209.205 180.903 209.565 180.862 209.926 180.861C210.144 180.824 210.364 180.805 210.586 180.806H211.053L214.504 184.146L211.589 181.466ZM214.807 186.043L223.798 184.971L223.193 185.507C222.395 185.447 221.605 185.704 220.994 186.221L219.027 188.365L216.236 189.204L214.971 188.077L214.807 186.043ZM204.99 179.679H203.917L202.955 180.27L204.454 179.858L205.636 180.16L205.526 180.037C205.336 179.928 205.152 179.809 204.976 179.679H204.99Z" fill="#DE9078"/>
<path fill-rule="evenodd" clip-rule="evenodd" d="M214.793 185.685L221.227 185.039C221.978 184.992 222.748 184.935 223.537 184.861C223.62 184.778 223.68 184.756 223.716 184.792L224.788 184.022L223.798 184.97L214.807 186.042L214.793 185.685ZM211.576 181.48L214.202 184.503L214.793 188.131L214.38 192.227L213.542 191.457L213.844 192.406L207.767 191.512L203.656 189.671L199.256 189.794L204.907 188.544L206.873 184.022L205.512 180.999C205.745 181.08 205.984 181.14 206.227 181.177L205.691 180.284L206.103 180.463L209.376 178.745L211.163 178.442C212.335 177.674 213.279 176.606 213.899 175.35C213.903 175.508 213.885 175.665 213.844 175.817C213.266 176.986 212.406 177.992 211.342 178.745L209.321 179.294L206.763 180.545L206.337 180.71C206.31 180.872 206.273 181.033 206.227 181.191C207.983 181.574 209.789 181.672 211.576 181.48ZM211.026 180.82H210.558C210.674 180.784 210.794 180.766 210.916 180.765L211.026 180.82ZM204.976 179.693C205.148 179.822 205.327 179.941 205.512 180.05L205.622 180.174L204.44 179.872L202.941 180.284L203.904 179.693H204.976ZM224.431 186.95C223.716 186.077 222.886 185.88 221.942 186.359C220.705 187.026 219.99 187.74 219.797 188.503L217.708 190.702L219.371 188.503C220.053 187.392 221.022 186.485 222.176 185.878C222.529 185.795 222.896 185.795 223.248 185.878C223.52 185.937 223.772 186.066 223.979 186.251C224.186 186.437 224.342 186.672 224.431 186.936V186.95Z" fill="#E4A694"/>
</g>
</g>
<defs>
<clipPath id="clip0_1_6207">
<rect width="494" height="457" fill="white"/>
</clipPath>
<clipPath id="clip1_1_6207">
<rect width="206" height="390" fill="white" transform="translate(28 68)"/>
</clipPath>
</defs>
</svg>
