<svg width="494" height="461" viewBox="0 0 494 461" fill="none" xmlns="http://www.w3.org/2000/svg">
<g clip-path="url(#clip0_1_6353)">
<path d="M48.9593 440.256C48.9593 440.256 19.3087 423.63 15 364.631C15 278 74.6289 296.087 64.1815 246.935C49.5996 178.371 78.0953 137.517 142 140.332C195.883 142.711 190.131 184.822 218.956 148.62C250.046 109.546 308.2 80.666 365.753 104.875C423.306 129.083 395.459 207.735 435.254 224.448C475.049 241.161 499.778 285.245 492.836 346.255C486.329 403.464 451.908 441.484 402.963 440.904C378.979 440.623 305.246 441.223 221.589 440.904C134.524 440.546 48.9593 440.256 48.9593 440.256Z" fill="#DEE3FF"/>
<path d="M135.832 168.466C135.832 168.466 105.491 110.437 157.283 82.4973C213.031 52.4269 255.764 108.307 242.599 154.319C229.435 200.331 151.991 198.256 135.832 168.466Z" fill="#DEE3FF"/>
<path d="M132.442 440.76C140.692 441.34 174.012 441.87 168.112 413.65C165.112 399.24 172.772 397.65 180.182 390.38C187.592 383.11 186.702 379.53 184.432 371.58C182.162 363.63 192.372 366.34 194.352 354.37C196.332 342.4 188.852 332.37 175.932 332.44C163.012 332.51 165.932 345.91 161.692 350.87C157.452 355.83 150.952 351.26 146.642 363.06C142.332 374.86 148.642 381.91 140.342 386.52C138.685 387.481 137.133 388.614 135.712 389.9" stroke="#7189FF" stroke-miterlimit="10"/>
<path d="M146.312 408.661C152.706 395.661 159.456 382.847 166.562 370.221C168.976 365.954 171.416 361.704 173.882 357.471C173.932 357.385 173.998 357.311 174.077 357.251C174.156 357.191 174.246 357.147 174.341 357.122C174.437 357.097 174.537 357.091 174.635 357.105C174.733 357.118 174.827 357.151 174.912 357.201C174.998 357.25 175.072 357.317 175.132 357.395C175.192 357.474 175.236 357.564 175.261 357.66C175.286 357.755 175.292 357.855 175.278 357.953C175.265 358.051 175.232 358.145 175.182 358.231C167.182 371.831 159.612 385.651 152.472 399.691C150.832 402.917 149.209 406.161 147.602 409.421C147.182 410.291 145.882 409.531 146.312 408.661Z" fill="#7189FF"/>
<path d="M179.312 381.63L162.842 383.34L160.472 383.59C159.472 383.69 159.472 382.19 160.472 382.09L176.942 380.38L179.312 380.13C180.312 380.03 180.262 381.53 179.312 381.63Z" fill="#7189FF"/>
<path d="M172.733 372.08C172.652 372.659 172.749 373.249 173.012 373.771C173.275 374.293 173.69 374.722 174.204 375.001C174.717 375.28 175.303 375.396 175.884 375.333C176.465 375.27 177.013 375.032 177.455 374.649C177.897 374.266 178.211 373.758 178.356 373.192C178.501 372.625 178.469 372.029 178.266 371.481C178.062 370.933 177.696 370.46 177.217 370.126C176.738 369.792 176.168 369.612 175.583 369.61C174.878 369.561 174.182 369.793 173.648 370.256C173.113 370.719 172.785 371.375 172.733 372.08Z" stroke="#7189FF" stroke-miterlimit="10"/>
<path d="M166.383 349.889C166.668 350.376 167.092 350.767 167.6 351.013C168.108 351.259 168.678 351.348 169.237 351.27C169.796 351.192 170.32 350.949 170.74 350.573C171.161 350.197 171.461 349.704 171.602 349.157C171.742 348.61 171.717 348.034 171.53 347.502C171.343 346.969 171.001 346.504 170.549 346.166C170.097 345.828 169.555 345.631 168.991 345.602C168.428 345.572 167.868 345.71 167.383 345.999C166.736 346.384 166.268 347.009 166.081 347.738C165.894 348.467 166.002 349.24 166.383 349.889Z" stroke="#7189FF" stroke-miterlimit="10"/>
<path d="M154.913 414.499C154.806 415.224 154.925 415.964 155.251 416.619C155.577 417.275 156.096 417.815 156.739 418.167C157.381 418.519 158.115 418.666 158.844 418.589C159.572 418.512 160.259 418.214 160.813 417.735C161.367 417.256 161.761 416.619 161.943 415.909C162.124 415.2 162.084 414.451 161.829 413.765C161.573 413.079 161.113 412.487 160.512 412.07C159.91 411.652 159.195 411.429 158.463 411.429C157.586 411.371 156.722 411.661 156.057 412.236C155.393 412.81 154.982 413.623 154.913 414.499Z" stroke="#7189FF" stroke-miterlimit="10"/>
<path d="M171.461 342.591C171.445 342.767 171.467 342.943 171.523 343.11C171.579 343.277 171.67 343.431 171.789 343.561C171.908 343.691 172.053 343.795 172.214 343.866C172.375 343.937 172.55 343.974 172.726 343.974C172.902 343.974 173.077 343.937 173.238 343.866C173.399 343.795 173.544 343.691 173.663 343.561C173.782 343.431 173.873 343.277 173.929 343.11C173.986 342.943 174.007 342.767 173.991 342.591C173.963 342.275 173.818 341.981 173.583 341.767C173.349 341.552 173.043 341.434 172.726 341.434C172.409 341.434 172.103 341.552 171.869 341.767C171.635 341.981 171.489 342.275 171.461 342.591Z" stroke="#7189FF" stroke-miterlimit="10"/>
<path d="M91.3309 438.02C98.1609 433.15 98.8409 402.25 70.8409 396.02C56.5409 392.83 58.8409 385.67 55.9409 376.46C53.0409 367.25 49.4309 366.58 41.2409 365.33C33.0509 364.08 39.2409 352.92 29.4909 346.46C19.7409 340 6.73091 339.51 1.87091 353.63C-2.23909 365.58 9.41095 370.85 11.791 376.41C14.171 381.97 7.25091 389.48 15.6809 397.86C24.1109 406.24 33.1309 399.93 33.2409 408.81C33.3509 417.69 37.2409 433.87 45.8509 437.2C56.4409 441.29 85.9409 441.86 91.3309 438.02Z" stroke="#7189FF" stroke-miterlimit="10"/>
<path d="M81.8106 441.501C78.0106 436.971 74.0706 432.561 70.2706 428.031C60.8573 416.851 51.6673 405.487 42.7006 393.941C36.2139 385.581 29.8406 377.131 23.5806 368.591C23.0106 367.811 24.3106 367.061 24.8706 367.831C35.3973 382.277 46.2806 396.421 57.5206 410.261C64.5273 418.927 71.6706 427.497 78.9506 435.971C80.2506 437.481 81.5906 438.971 82.8706 440.481C83.4906 441.221 82.4306 442.281 81.8106 441.541V441.501Z" fill="#7189FF"/>
<path d="M66.7919 394.5C67.4219 389.33 66.3219 386.12 66.7919 381.36C68.6819 362.22 42.2919 370.78 31.7919 346.2C21.2919 321.62 47.0119 312.7 34.9119 302.42C22.8119 292.14 19.4319 256.81 37.1519 250.73C60.1519 242.85 80.7919 257.26 83.6019 276.24C85.7619 290.88 75.9519 301.1 101.492 311.83C127.032 322.56 123.092 335.89 117.842 361.38C112.592 386.87 129.842 377.521 143.272 399.031C153.902 416.031 138.962 433.47 132.272 439.95L80.5719 440.84" stroke="#7189FF" stroke-miterlimit="10"/>
<path d="M121.752 440.001L115.412 425.421C110.199 413.474 104.982 401.554 99.762 389.661C93.0954 374.481 86.3821 359.318 79.6221 344.171C73.1021 329.551 66.5087 314.964 59.8421 300.411C55.1121 290.131 50.4021 279.821 45.2121 269.771L44.012 267.491C43.552 266.641 44.8521 265.881 45.3021 266.731C50.2521 275.971 54.602 285.551 59.012 295.051C65.602 309.261 72.0121 323.541 78.4321 337.831C85.2588 353.111 92.0387 368.408 98.772 383.721C104.285 396.221 109.769 408.734 115.222 421.261C117.792 427.161 120.522 433.031 122.942 439.001C122.942 439.091 123.012 439.171 123.042 439.251C123.422 440.121 122.132 440.891 121.752 440.001Z" fill="#7189FF"/>
<path d="M74.6523 332.371L44.2823 330.691L39.9824 330.451C38.9824 330.391 38.9824 328.891 39.9824 328.951L70.3524 330.631L74.6523 330.871C75.6523 330.921 75.6523 332.421 74.6523 332.371Z" fill="#7189FF"/>
<path d="M109.762 410.996L92.2866 408.643L89.8254 408.312C89.0973 408.216 89.0973 406.909 89.8254 407.005L107.265 409.349L109.733 409.689C110.461 409.776 110.461 411.083 109.733 410.996H109.762Z" fill="#7189FF"/>
<path d="M112.902 324.62L106.022 340.08L95.0225 364.71L92.5125 370.34C92.1125 371.22 90.8225 370.46 91.2125 369.58L98.1025 354.12L109.103 329.5L111.593 323.86C111.983 322.98 113.272 323.75 112.882 324.62H112.902Z" fill="#7189FF"/>
<path d="M62.8814 272.101C64.5814 274.591 67.5314 275.531 69.4714 274.211C71.4114 272.891 71.6214 269.791 69.9314 267.301C68.2414 264.811 65.2814 263.871 63.3414 265.191C61.4014 266.511 61.1914 269.611 62.8814 272.101Z" stroke="#7189FF" stroke-miterlimit="10"/>
<path d="M61.5915 285.56C61.5915 286.03 61.7311 286.491 61.9927 286.882C62.2542 287.273 62.6259 287.578 63.0608 287.759C63.4957 287.939 63.9742 287.986 64.4358 287.894C64.8975 287.802 65.3216 287.575 65.6545 287.243C65.9873 286.91 66.214 286.486 66.3058 286.024C66.3977 285.562 66.3505 285.084 66.1704 284.649C65.9903 284.214 65.6852 283.842 65.2938 283.581C64.9024 283.319 64.4423 283.18 63.9715 283.18C63.3403 283.18 62.735 283.43 62.2886 283.877C61.8423 284.323 61.5915 284.928 61.5915 285.56Z" stroke="#7189FF" stroke-miterlimit="10"/>
<path d="M44.3631 347.03C44.3631 347.946 44.6346 348.841 45.1433 349.603C45.6521 350.364 46.3752 350.958 47.2212 351.308C48.0672 351.658 48.9982 351.75 49.8963 351.571C50.7945 351.393 51.6194 350.952 52.2669 350.304C52.9145 349.657 53.3554 348.832 53.5341 347.934C53.7127 347.036 53.621 346.105 53.2706 345.259C52.9202 344.413 52.3267 343.689 51.5653 343.181C50.8039 342.672 49.9088 342.4 48.9931 342.4C47.7651 342.4 46.5874 342.888 45.7191 343.757C44.8508 344.625 44.3631 345.802 44.3631 347.03Z" stroke="#7189FF" stroke-miterlimit="10"/>
<path d="M277.953 441.01C279.273 436.26 279.313 431.01 279.903 426.5C281.173 416.8 295.213 424.79 304.243 414.19C313.273 403.59 299.663 395.52 307.853 392.19C316.043 388.86 321.603 373.63 312.933 366.42C302.213 357.5 287.183 363.42 283.233 372.34C280.233 379.23 284.553 385.67 268.623 387.34C252.693 389.01 253.313 396.1 253.173 409.4C253.033 422.7 244.323 415.63 234.003 424.31C228.153 429.22 229.763 436.09 232.253 441.13" stroke="#7189FF" stroke-miterlimit="10"/>
<path d="M246.463 441.96C254.276 432.927 262.116 423.927 269.983 414.96C278.983 404.74 287.933 394.53 297.113 384.5C300.393 380.91 303.663 377.3 307.113 373.91C307.813 373.24 306.753 372.18 306.053 372.85C298.623 380.05 291.833 387.98 284.953 395.7C275.62 406.167 266.353 416.707 257.153 427.32C253.213 431.84 249.283 436.367 245.363 440.9C244.733 441.62 245.793 442.69 246.423 441.96H246.463Z" fill="#7189FF"/>
<path d="M281.333 401.58L298.863 405.08L301.393 405.59C302.333 405.78 302.733 404.33 301.793 404.14L284.263 400.64L281.733 400.13C280.793 399.94 280.393 401.39 281.333 401.58Z" fill="#7189FF"/>
<path d="M260.224 392.049L265.474 414.239L266.234 417.469C266.454 418.409 267.904 418.009 267.684 417.069L262.434 394.879L261.664 391.649C261.444 390.709 259.994 391.109 260.224 392.049Z" fill="#7189FF"/>
<path d="M295.563 373.23C295.007 373.701 294.308 373.967 293.58 373.985C292.853 374.004 292.141 373.772 291.563 373.33C290.613 372.4 290.883 370.85 292.153 369.86C292.709 369.391 293.409 369.127 294.137 369.11C294.864 369.094 295.576 369.327 296.153 369.77C297.133 370.7 296.863 372.25 295.563 373.23Z" stroke="#7189FF" stroke-miterlimit="10"/>
<path d="M296.952 412.78C296.896 413.34 296.671 413.87 296.306 414.298C295.941 414.727 295.453 415.033 294.909 415.177C294.365 415.32 293.789 415.294 293.26 415.101C292.731 414.909 292.274 414.559 291.95 414.099C291.625 413.638 291.449 413.09 291.445 412.527C291.441 411.964 291.61 411.414 291.928 410.949C292.246 410.484 292.698 410.128 293.225 409.928C293.751 409.728 294.326 409.694 294.872 409.83C295.538 409.947 296.131 410.323 296.52 410.876C296.91 411.429 297.065 412.113 296.952 412.78Z" stroke="#7189FF" stroke-miterlimit="10"/>
<path fill-rule="evenodd" clip-rule="evenodd" d="M438.346 46.66C439.667 47.3516 440.892 48.2158 441.986 49.23L445.876 47.84L449.536 53.61L446.626 56.58C447.07 58.0037 447.326 59.4797 447.386 60.97L451.116 62.74L449.616 69.4H445.496C444.804 70.7219 443.94 71.9459 442.926 73.04L444.316 76.93L438.546 80.58L435.616 77.67C434.192 78.1148 432.716 78.3704 431.226 78.43L429.456 82.16L422.786 80.66V76.54C421.462 75.8461 420.235 74.9821 419.136 73.97L415.246 75.36L411.596 69.58L414.506 66.65C414.061 65.2264 413.805 63.7503 413.746 62.26L410.016 60.49L411.516 53.83H415.686C416.377 52.5081 417.241 51.2841 418.256 50.19L416.866 46.29L422.586 42.58L425.516 45.49C426.939 45.0452 428.415 44.7896 429.906 44.73L431.676 41L438.336 42.5V46.62L438.346 46.66ZM432.476 54.51C431.061 54.1908 429.583 54.2984 428.23 54.8194C426.876 55.3403 425.707 56.251 424.872 57.4363C424.036 58.6216 423.571 60.0282 423.535 61.4781C423.499 62.928 423.893 64.356 424.669 65.5813C425.445 66.8067 426.567 67.7744 427.893 68.3619C429.219 68.9494 430.689 69.1304 432.118 68.8818C433.547 68.6333 434.87 67.9665 435.92 66.9658C436.97 65.965 437.699 64.6754 438.016 63.26C438.439 61.3652 438.094 59.3796 437.055 57.7392C436.017 56.0987 434.37 54.9373 432.476 54.51Z" fill="#F2718D"/>
<path fill-rule="evenodd" clip-rule="evenodd" d="M78.76 152.72C79.8695 153.304 80.8982 154.03 81.82 154.88L85.08 153.71L88.15 158.56L85.7 161.01C86.0834 162.205 86.3021 163.446 86.35 164.7L89.48 166.18L88.24 171.78H84.78C84.1983 172.888 83.472 173.914 82.62 174.83L83.78 178.1L78.94 181.17L76.48 178.72C75.2887 179.103 74.0505 179.322 72.8 179.37L71.31 182.5L65.72 181.24V177.78C64.6105 177.196 63.5818 176.47 62.66 175.62L59.4 176.78L56.33 171.94L58.77 169.48C58.3947 168.287 58.1794 167.05 58.13 165.8L55 164.31L56.26 158.72H59.72C60.304 157.61 61.0301 156.582 61.88 155.66L60.71 152.4L65.56 149.33L68.01 151.77C69.2064 151.395 70.4472 151.179 71.7 151.13L73.18 148L78.78 149.26V152.72H78.76ZM73.83 159.31C72.6433 159.043 71.4041 159.134 70.269 159.571C69.134 160.008 68.1541 160.772 67.4533 161.767C66.7525 162.761 66.3623 163.94 66.3319 165.156C66.3015 166.372 66.6325 167.57 67.2828 168.598C67.9331 169.626 68.8736 170.438 69.9854 170.931C71.0972 171.425 72.3303 171.577 73.5289 171.37C74.7274 171.162 75.8375 170.604 76.7188 169.766C77.6001 168.928 78.213 167.847 78.48 166.66C78.6586 165.872 78.68 165.056 78.5428 164.26C78.4057 163.464 78.1127 162.703 77.6807 162.02C77.2487 161.337 76.6862 160.746 76.0255 160.281C75.3647 159.816 74.6186 159.486 73.83 159.31Z" fill="#EC4E70"/>
<path d="M3.05817 441.959H471.139C477.463 441.959 483.787 442.051 490.11 441.959H490.95C491.229 441.959 491.496 441.858 491.692 441.678C491.889 441.497 492 441.253 492 440.998C492 440.743 491.889 440.499 491.692 440.319C491.496 440.139 491.229 440.038 490.95 440.038H22.8695C16.5456 440.038 10.2134 439.953 3.88959 440.038H3.04977C2.77136 440.038 2.50434 440.139 2.30747 440.319C2.1106 440.499 2 440.743 2 440.998C2 441.253 2.1106 441.497 2.30747 441.678C2.50434 441.858 2.77136 441.959 3.04977 441.959H3.05817Z" fill="#0F0D1D"/>
<path d="M387 274.641H103.81C102.004 274.641 100.272 273.923 98.9946 272.646C97.7175 271.369 97 269.637 97 267.831V59.1909C97 57.3847 97.7175 55.6526 98.9946 54.3755C100.272 53.0983 102.004 52.3809 103.81 52.3809H389.57C391.376 52.3809 393.108 53.0983 394.385 54.3755C395.662 55.6526 396.38 57.3847 396.38 59.1909V267.83C396.38 269.636 395.093 271.368 393.815 272.645C392.869 273.592 391.673 274.231 390.383 274.498" stroke="#F2718D" stroke-miterlimit="10"/>
<path d="M396.383 57.3127V72H97.3828V57.3127C97.3828 54.3806 99.8918 52 102.994 52H390.772C393.882 52 396.383 54.3806 396.383 57.3127Z" fill="white" stroke="#E54985" stroke-miterlimit="10"/>
<path d="M136.59 125.5H357.55C363.36 125.5 368.07 130.21 368.07 136.02V142.98C368.07 148.79 363.36 153.5 357.55 153.5H136.59C130.78 153.5 126.07 148.79 126.07 142.98V136.02C126.07 130.21 130.78 125.5 136.59 125.5Z" fill="white" stroke="#F2718D"/>
<path d="M357.55 178H136.59C130.504 178 125.57 182.934 125.57 189.02V219.98C125.57 226.066 130.504 231 136.59 231H357.55C363.636 231 368.57 226.066 368.57 219.98V189.02C368.57 182.934 363.636 178 357.55 178Z" stroke="#F2718D" stroke-miterlimit="10"/>
<path d="M137.918 87.0842V89.9913H133.971V101.98H130.343V89.9913H126.396V87.0842H137.918ZM147.018 90.0125C148.376 90.0125 149.465 90.4652 150.286 91.3706C151.106 92.2618 151.516 93.4926 151.516 95.0628V101.98H147.909V95.5509C147.909 94.7587 147.704 94.1433 147.294 93.7048C146.883 93.2662 146.332 93.047 145.638 93.047C144.945 93.047 144.394 93.2662 143.983 93.7048C143.573 94.1433 143.368 94.7587 143.368 95.5509V101.98H139.739V86.2779H143.368V91.7313C143.736 91.2079 144.238 90.7906 144.875 90.4794C145.511 90.1682 146.226 90.0125 147.018 90.0125ZM165.199 95.8692C165.199 96.2087 165.178 96.5624 165.136 96.9302H156.924C156.98 97.6658 157.214 98.2316 157.624 98.6278C158.048 99.0097 158.565 99.2007 159.173 99.2007C160.078 99.2007 160.708 98.8187 161.062 98.0548H164.924C164.726 98.8329 164.365 99.5331 163.841 100.156C163.332 100.778 162.688 101.266 161.91 101.62C161.132 101.973 160.262 102.15 159.3 102.15C158.14 102.15 157.108 101.903 156.202 101.408C155.297 100.912 154.59 100.205 154.08 99.2856C153.571 98.366 153.316 97.2909 153.316 96.0602C153.316 94.8294 153.564 93.7543 154.059 92.8348C154.568 91.9152 155.276 91.2079 156.181 90.7128C157.086 90.2177 158.126 89.9701 159.3 89.9701C160.446 89.9701 161.465 90.2106 162.356 90.6916C163.247 91.1726 163.94 91.8587 164.436 92.7499C164.945 93.6411 165.199 94.6809 165.199 95.8692ZM161.486 94.9143C161.486 94.2919 161.274 93.7967 160.849 93.4289C160.425 93.0611 159.894 92.8772 159.258 92.8772C158.65 92.8772 158.133 93.054 157.709 93.4077C157.299 93.7614 157.044 94.2636 156.945 94.9143H161.486ZM179.207 101.98L176.109 96.3572H175.239V101.98H171.61V87.0842H177.7C178.875 87.0842 179.872 87.2893 180.692 87.6996C181.527 88.1098 182.15 88.6757 182.56 89.3972C182.97 90.1045 183.175 90.8967 183.175 91.7738C183.175 92.764 182.892 93.6482 182.326 94.4262C181.775 95.2043 180.954 95.756 179.865 96.0814L183.303 101.98H179.207ZM175.239 93.7897H177.488C178.153 93.7897 178.648 93.627 178.974 93.3016C179.313 92.9762 179.483 92.5165 179.483 91.9223C179.483 91.3565 179.313 90.9108 178.974 90.5855C178.648 90.2601 178.153 90.0974 177.488 90.0974H175.239V93.7897ZM196.615 95.8692C196.615 96.2087 196.593 96.5624 196.551 96.9302H188.339C188.395 97.6658 188.629 98.2316 189.039 98.6278C189.464 99.0097 189.98 99.2007 190.588 99.2007C191.494 99.2007 192.123 98.8187 192.477 98.0548H196.339C196.141 98.8329 195.78 99.5331 195.257 100.156C194.747 100.778 194.104 101.266 193.326 101.62C192.547 101.973 191.677 102.15 190.715 102.15C189.555 102.15 188.523 101.903 187.617 101.408C186.712 100.912 186.005 100.205 185.495 99.2856C184.986 98.366 184.732 97.2909 184.732 96.0602C184.732 94.8294 184.979 93.7543 185.474 92.8348C185.983 91.9152 186.691 91.2079 187.596 90.7128C188.502 90.2177 189.541 89.9701 190.715 89.9701C191.861 89.9701 192.88 90.2106 193.771 90.6916C194.662 91.1726 195.356 91.8587 195.851 92.7499C196.36 93.6411 196.615 94.6809 196.615 95.8692ZM192.901 94.9143C192.901 94.2919 192.689 93.7967 192.265 93.4289C191.84 93.0611 191.31 92.8772 190.673 92.8772C190.065 92.8772 189.548 93.054 189.124 93.4077C188.714 93.7614 188.459 94.2636 188.36 94.9143H192.901ZM202.157 91.8162C202.511 91.2645 202.999 90.8189 203.622 90.4794C204.244 90.1399 204.973 89.9701 205.807 89.9701C206.783 89.9701 207.667 90.2177 208.46 90.7128C209.252 91.2079 209.874 91.9152 210.327 92.8348C210.794 93.7543 211.027 94.8223 211.027 96.0389C211.027 97.2555 210.794 98.3307 210.327 99.2643C209.874 100.184 209.252 100.898 208.46 101.408C207.667 101.903 206.783 102.15 205.807 102.15C204.987 102.15 204.258 101.98 203.622 101.641C202.999 101.301 202.511 100.863 202.157 100.325V107.625H198.529V90.1399H202.157V91.8162ZM207.335 96.0389C207.335 95.1336 207.08 94.4262 206.571 93.917C206.076 93.3936 205.461 93.1318 204.725 93.1318C204.004 93.1318 203.388 93.3936 202.879 93.917C202.384 94.4404 202.136 95.1548 202.136 96.0602C202.136 96.9655 202.384 97.6799 202.879 98.2034C203.388 98.7268 204.004 98.9885 204.725 98.9885C205.446 98.9885 206.062 98.7268 206.571 98.2034C207.08 97.6658 207.335 96.9443 207.335 96.0389ZM218.321 102.15C217.161 102.15 216.114 101.903 215.18 101.408C214.261 100.912 213.532 100.205 212.995 99.2856C212.471 98.366 212.209 97.2909 212.209 96.0602C212.209 94.8436 212.478 93.7755 213.016 92.856C213.553 91.9223 214.289 91.2079 215.223 90.7128C216.156 90.2177 217.203 89.9701 218.363 89.9701C219.523 89.9701 220.57 90.2177 221.504 90.7128C222.437 91.2079 223.173 91.9223 223.711 92.856C224.248 93.7755 224.517 94.8436 224.517 96.0602C224.517 97.2768 224.241 98.3519 223.689 99.2856C223.152 100.205 222.409 100.912 221.461 101.408C220.528 101.903 219.481 102.15 218.321 102.15ZM218.321 99.0097C219.014 99.0097 219.601 98.7551 220.082 98.2458C220.577 97.7365 220.825 97.008 220.825 96.0602C220.825 95.1123 220.584 94.3838 220.103 93.8745C219.636 93.3653 219.056 93.1106 218.363 93.1106C217.656 93.1106 217.069 93.3653 216.602 93.8745C216.135 94.3697 215.902 95.0982 215.902 96.0602C215.902 97.008 216.128 97.7365 216.581 98.2458C217.048 98.7551 217.628 99.0097 218.321 99.0097ZM230.07 92.1133C230.495 91.4626 231.025 90.9533 231.662 90.5855C232.299 90.2035 233.006 90.0125 233.784 90.0125V93.8533H232.787C231.881 93.8533 231.202 94.0514 230.749 94.4475C230.297 94.8294 230.07 95.5085 230.07 96.4846V101.98H226.442V90.1399H230.07V92.1133ZM242.118 98.9036V101.98H240.272C238.956 101.98 237.93 101.662 237.195 101.026C236.459 100.375 236.091 99.3209 236.091 97.8638V93.1531H234.648V90.1399H236.091V87.254H239.72V90.1399H242.096V93.1531H239.72V97.9063C239.72 98.2599 239.805 98.5146 239.974 98.6702C240.144 98.8258 240.427 98.9036 240.823 98.9036H242.118ZM248.956 102.15C247.923 102.15 247.003 101.973 246.197 101.62C245.391 101.266 244.754 100.785 244.287 100.177C243.821 99.5543 243.559 98.8612 243.502 98.0973H247.088C247.131 98.5075 247.322 98.8399 247.661 99.0946C248.001 99.3492 248.418 99.4765 248.913 99.4765C249.366 99.4765 249.713 99.3917 249.953 99.2219C250.208 99.038 250.335 98.8046 250.335 98.5217C250.335 98.1821 250.158 97.9346 249.804 97.779C249.451 97.6092 248.878 97.4253 248.086 97.2272C247.237 97.0292 246.53 96.8241 245.964 96.6119C245.398 96.3855 244.91 96.0389 244.5 95.5721C244.089 95.0911 243.884 94.4475 243.884 93.6411C243.884 92.9621 244.068 92.3467 244.436 91.795C244.818 91.2291 245.37 90.7835 246.091 90.4582C246.827 90.1328 247.697 89.9701 248.701 89.9701C250.186 89.9701 251.354 90.3379 252.202 91.0735C253.065 91.8091 253.56 92.7853 253.688 94.0018H250.335C250.278 93.5916 250.094 93.2662 249.783 93.0257C249.486 92.7853 249.09 92.665 248.595 92.665C248.171 92.665 247.845 92.7499 247.619 92.9196C247.392 93.0753 247.279 93.2945 247.279 93.5775C247.279 93.917 247.456 94.1716 247.81 94.3414C248.178 94.5111 248.743 94.6809 249.507 94.8506C250.384 95.077 251.099 95.3033 251.651 95.5297C252.202 95.7419 252.683 96.0955 253.094 96.5907C253.518 97.0716 253.737 97.7224 253.751 98.5429C253.751 99.2361 253.553 99.8585 253.157 100.41C252.775 100.948 252.216 101.372 251.481 101.683C250.759 101.995 249.918 102.15 248.956 102.15Z" fill="#29333D"/>
<g clip-path="url(#clip1_1_6353)">
<path fill-rule="evenodd" clip-rule="evenodd" d="M408.393 426.442C409.465 426.286 410.556 426.089 411.665 425.85C412.764 427.995 413.222 430.533 413.039 433.465C412.717 435.41 410.334 436.784 405.892 437.589L405.122 437.713C400.356 438.017 395.642 438.875 391.074 440.269C388.634 440.975 386.264 441.904 383.995 443.046C383.899 443.098 383.798 443.14 383.693 443.17L383.404 443.293C376.304 446.666 369.001 447.875 361.494 446.922C361.458 446.875 361.398 446.875 361.315 446.922L361.205 446.798C359.797 446.603 358.462 446.049 357.329 445.19C357.128 445.026 356.943 444.842 356.779 444.64C356.705 444.566 356.669 444.508 356.669 444.462C356.623 444.462 356.601 444.442 356.601 444.407C356.802 442.024 360.454 440.201 367.556 438.936L368.106 438.812C371.848 437.941 375.426 436.474 378.703 434.469C382.609 431.914 386.271 429.006 389.645 425.782C390.008 425.849 390.366 425.941 390.717 426.057C396.233 427.349 402.125 427.477 408.393 426.442Z" fill="#2E1E1B"/>
<path fill-rule="evenodd" clip-rule="evenodd" d="M412.503 436.916C412.098 438.226 410.632 439.234 408.105 439.94C404.509 440.692 400.831 440.969 397.163 440.764C396.449 440.728 395.693 440.668 394.895 440.586C391.486 440.551 388.114 441.582 384.779 443.678C379.7 446.693 373.102 448.123 364.985 447.967L364.862 447.843C364.788 447.877 364.709 447.896 364.628 447.898C360.457 447.742 357.854 446.652 356.821 444.627C356.985 444.828 357.169 445.013 357.37 445.177C358.504 446.035 359.838 446.589 361.247 446.785L361.357 446.908C361.439 446.862 361.5 446.862 361.535 446.908C369.04 447.863 376.344 446.654 383.445 443.28L383.734 443.156C383.839 443.126 383.94 443.084 384.036 443.032C386.305 441.886 388.675 440.952 391.115 440.242C395.683 438.847 400.397 437.989 405.163 437.685L405.933 437.562C410.377 436.764 412.76 435.39 413.08 433.438C413.015 434.615 412.821 435.781 412.503 436.916Z" fill="#150E0D"/>
<path fill-rule="evenodd" clip-rule="evenodd" d="M398.29 436.682C398.714 437.119 399.29 437.375 399.899 437.397C398.987 437.426 398.078 437.286 397.218 436.984C392.224 439.009 387.404 440.159 382.758 440.434C379.457 440.864 376.243 441.805 373.233 443.225C373.165 443.282 373.085 443.324 372.999 443.348C368.435 445.41 363.212 446.024 357.329 445.19C357.128 445.026 356.943 444.842 356.779 444.64C356.709 444.571 356.649 444.492 356.601 444.407C356.802 442.024 360.454 440.201 367.556 438.936L368.106 438.812C371.848 437.941 375.426 436.474 378.703 434.469C382.609 431.914 386.271 429.006 389.645 425.782C390.008 425.849 390.366 425.941 390.717 426.057C396.233 427.33 402.125 427.449 408.393 426.414C408.036 430.959 404.668 434.382 398.29 436.682Z" fill="#3E2824"/>
<path fill-rule="evenodd" clip-rule="evenodd" d="M387.267 431.802L388.215 431.211C387.464 430.056 386.575 429.323 385.548 429.012L385.782 428.764C386.929 429.167 387.937 429.983 388.806 431.211L387.377 432.159C387.344 432.041 387.294 431.92 387.267 431.802ZM380.188 433.231L380.366 432.998C381.081 433.236 381.654 433.809 382.085 434.716L380.902 435.321C380.817 435.272 380.738 435.212 380.669 435.142L381.494 434.716C381.223 434.097 380.767 433.578 380.188 433.231ZM383.94 433.355L384.586 432.874C384.468 432.479 384.27 432.112 384.005 431.795C383.741 431.479 383.415 431.219 383.047 431.032L383.225 430.908C383.695 431.049 384.125 431.302 384.476 431.644C384.828 431.986 385.092 432.408 385.246 432.874L383.995 433.644C383.99 433.545 383.972 433.448 383.94 433.355Z" fill="#3A2521"/>
<path fill-rule="evenodd" clip-rule="evenodd" d="M385.548 429.012C386.575 429.321 387.464 430.055 388.215 431.211L387.267 431.802C386.672 430.82 385.746 430.084 384.655 429.726L385.548 429.012ZM383.94 433.355C383.598 432.655 383.032 432.089 382.332 431.747L383.047 431.032C383.415 431.219 383.741 431.479 384.005 431.795C384.27 432.112 384.468 432.479 384.586 432.874L383.94 433.355ZM380.188 433.232C380.767 433.579 381.223 434.097 381.494 434.716L380.669 435.142C380.368 434.607 379.961 434.14 379.473 433.768L380.188 433.232Z" fill="#593A33"/>
<path fill-rule="evenodd" clip-rule="evenodd" d="M459.815 428.709C461.762 428.423 463.56 427.5 464.928 426.084C465.346 428.396 465.962 430.668 466.77 432.874C467.122 433.784 467.227 434.77 467.072 435.733C466.706 437.319 465.556 439.023 463.622 440.846C463.522 440.984 463.402 441.104 463.265 441.204C460.607 444.18 458.981 446.654 458.385 448.626C454.06 454.942 448.388 458.731 441.368 459.994L441.19 460.118C438.926 460.75 436.942 460.791 435.238 460.241C434.112 459.954 433.071 459.403 432.2 458.633C432.11 458.505 432.009 458.386 431.898 458.276C431.465 455.572 433.371 452.099 437.616 447.857C437.652 447.774 437.69 447.697 437.726 447.623C441.626 441.732 444.766 435.373 447.073 428.696C447.481 428.548 447.899 428.429 448.324 428.338C450.404 427.705 452.633 427.748 454.688 428.462C456.362 428.89 458.106 428.974 459.815 428.709Z" fill="#2E1E1B"/>
<path fill-rule="evenodd" clip-rule="evenodd" d="M460.419 446.207C459.87 446.574 459.334 447.266 458.811 448.283L458.399 449.424C456.172 453.705 453.634 456.339 450.784 457.327C447.925 459.114 443.856 460.328 438.578 460.97C437.421 461.104 436.251 460.853 435.252 460.255C436.956 460.805 438.94 460.764 441.203 460.131L441.382 460.008C448.4 458.743 454.072 454.954 458.399 448.64C458.996 446.661 460.623 444.187 463.278 441.218C463.416 441.118 463.536 440.997 463.636 440.86C465.58 439.037 466.73 437.332 467.086 435.747V439.788C465.62 442.596 463.28 444.849 460.419 446.207Z" fill="#150E0D"/>
<path fill-rule="evenodd" clip-rule="evenodd" d="M447.073 428.71C447.481 428.562 447.899 428.443 448.324 428.352C450.404 427.719 452.633 427.762 454.688 428.476C456.363 428.899 458.107 428.979 459.815 428.71C460.126 432.998 459.531 436.686 458.028 439.775L460.227 443.293L457.725 440.489C455.389 446.125 451.659 449.639 446.537 451.032C446.144 451.149 445.686 451.264 445.162 451.376C440.316 452.565 437.123 454.847 435.582 458.221L435.224 460.255C434.098 459.968 433.057 459.417 432.186 458.647C432.096 458.519 431.995 458.4 431.884 458.29C431.452 455.586 433.358 452.113 437.602 447.871C437.638 447.788 437.676 447.711 437.712 447.637C441.617 441.747 444.762 435.388 447.073 428.71Z" fill="#3E2824"/>
<path fill-rule="evenodd" clip-rule="evenodd" d="M452.021 435.857C451.058 435.197 449.965 434.749 448.816 434.543C447.667 434.337 446.487 434.377 445.354 434.661L445.533 434.249C446.681 433.947 447.881 433.896 449.051 434.1C450.22 434.304 451.332 434.758 452.31 435.431L452.021 435.857ZM450.413 439.005C449.445 438.326 448.341 437.867 447.178 437.661C446.014 437.454 444.819 437.505 443.678 437.809L443.856 437.342C445.011 437.04 446.217 436.995 447.391 437.211C448.564 437.428 449.675 437.899 450.646 438.592L450.413 439.005ZM448.736 441.616C447.762 440.981 446.669 440.548 445.523 440.345C444.378 440.142 443.203 440.172 442.069 440.434L442.193 439.953C443.358 439.672 444.569 439.638 445.748 439.853C446.927 440.069 448.048 440.529 449.038 441.204L448.736 441.616Z" fill="#3A2521"/>
<path fill-rule="evenodd" clip-rule="evenodd" d="M445.354 434.661C446.487 434.377 447.667 434.337 448.816 434.543C449.965 434.749 451.058 435.197 452.021 435.857L451.664 436.558C449.759 435.211 447.597 434.799 445.176 435.321L445.354 434.661ZM443.678 437.809C444.819 437.505 446.014 437.454 447.178 437.661C448.341 437.867 449.445 438.326 450.413 439.005L449.987 439.596C448.044 438.368 445.863 437.992 443.444 438.469L443.678 437.809ZM448.736 441.616L448.323 442.331C446.463 440.984 444.301 440.572 441.836 441.094L442.069 440.434C443.203 440.172 444.378 440.142 445.523 440.345C446.669 440.548 447.762 440.98 448.736 441.616Z" fill="#593A33"/>
<path fill-rule="evenodd" clip-rule="evenodd" d="M389.411 241.676H418.029L420.228 272.741C419.788 276.864 419.371 280.97 418.977 285.057C417.108 304.3 415.6 323.544 414.455 342.787C415.958 349.458 416.114 359.754 414.922 373.673C413.418 385.899 412.428 398.059 411.953 410.153L411.83 416.751C411.784 420.595 412.204 424.43 413.08 428.173C403.917 430.2 395.981 429.586 389.273 426.332C390.903 410.735 390.664 386.552 388.559 353.783C386.781 311.136 386.721 277.753 388.38 253.635C388.673 249.346 389.017 245.36 389.411 241.676Z" fill="#261A22"/>
<path fill-rule="evenodd" clip-rule="evenodd" d="M389.287 426.332C400.441 428.595 406.869 428.238 408.572 425.259C412.181 382.887 413.289 357.101 411.898 347.9L408.627 349.083C411.962 299.894 412.76 266.136 411.019 247.807L408.696 264.576L408.215 264.466C400.085 262.643 393.478 259.032 388.394 253.635C388.678 249.346 389.017 245.36 389.411 241.676H418.029L420.228 272.741C419.788 276.864 419.371 280.97 418.977 285.057C417.108 304.3 415.6 323.544 414.455 342.787C415.958 349.458 416.114 359.754 414.922 373.673C413.418 385.899 412.428 398.059 411.953 410.153L411.83 416.751C411.784 420.595 412.204 424.43 413.08 428.173C403.928 430.2 395.997 429.586 389.287 426.332Z" fill="#181016"/>
<path fill-rule="evenodd" clip-rule="evenodd" d="M388.394 253.635C393.479 259.03 400.086 262.641 408.215 264.466L408.696 264.576L411.019 247.807C412.76 266.134 411.962 299.892 408.627 349.082L411.898 347.9C413.293 357.101 412.184 382.887 408.572 425.259C406.867 428.236 400.439 428.593 389.287 426.331C390.916 410.735 390.678 386.552 388.572 353.783C386.795 311.136 386.735 277.753 388.394 253.635Z" fill="#261A22"/>
<path fill-rule="evenodd" clip-rule="evenodd" d="M409.699 263.092C408.471 256.943 407.065 249.804 405.479 241.676H448.2C448.64 245.765 449.038 249.829 449.396 253.868C452.695 288.747 454.619 322.51 455.169 355.158C461.519 375.428 465.148 399.409 466.055 427.101C460.942 430.153 455.013 432.118 448.269 432.998L447.128 433.108C446.779 432.036 446.266 430.373 445.588 428.118C438.99 380.624 428.498 333.152 414.111 285.703C414.036 285.492 413.976 285.276 413.933 285.057V284.809C413.053 280.376 411.743 273.714 410.001 264.823C409.891 264.266 409.791 263.689 409.699 263.092Z" fill="#181016"/>
<path fill-rule="evenodd" clip-rule="evenodd" d="M413.273 241.676H414.29L416.544 266.542C418.01 266.743 419.477 266.885 420.943 266.968C424.944 267.082 428.943 266.662 432.832 265.717C437.345 263.343 441.613 260.53 445.574 257.318C450.255 292.195 452.138 325.78 451.224 358.072L452.653 357.481C459.251 379.263 462.55 402.053 462.55 425.85C458.657 429.68 453.654 432.182 448.255 432.998L447.114 433.108C446.766 432.036 446.253 430.373 445.574 428.118C438.977 380.624 428.484 333.152 414.098 285.703C414.022 285.492 413.963 285.276 413.919 285.057V284.809C413.039 280.376 411.729 273.714 409.988 264.823L413.273 241.676Z" fill="#261A22"/>
<path fill-rule="evenodd" clip-rule="evenodd" d="M414.29 241.676H443.32C444.152 246.907 444.908 252.121 445.588 257.318C441.627 260.53 437.359 263.343 432.846 265.717C428.956 266.662 424.958 267.082 420.956 266.968C419.479 266.885 418.013 266.743 416.558 266.542L414.29 241.676ZM413.273 241.676L410.001 264.823C409.884 264.274 409.783 263.696 409.699 263.092C408.471 256.943 407.065 249.804 405.479 241.676H413.273Z" fill="#181016"/>
<path fill-rule="evenodd" clip-rule="evenodd" d="M445.588 257.318C444.908 252.123 444.152 246.909 443.32 241.676H448.2C448.64 245.765 449.038 249.829 449.396 253.868C452.695 288.747 454.619 322.51 455.169 355.158C461.519 375.428 465.148 399.409 466.055 427.101C460.942 430.153 455.013 432.118 448.269 432.998C453.668 432.182 458.671 429.68 462.564 425.85C462.564 402.051 459.265 379.261 452.667 357.481L451.238 358.072C452.154 325.78 450.271 292.195 445.588 257.318Z" fill="#1F141C"/>
<path fill-rule="evenodd" clip-rule="evenodd" d="M388.394 144.07C392.242 149.11 394.859 155.616 396.242 163.589C397.072 168.543 397.454 173.562 397.383 178.585C388.731 192.158 379.806 202.595 370.607 209.897H370.539C368.992 210.804 367.681 211.139 366.607 210.9C361.494 208.243 357.907 202.135 355.845 192.578L349.123 171.396C350.589 168.18 355.171 166.173 362.869 165.376C364.216 165.376 365.247 165.614 365.961 166.09L371.611 179.836C372.527 178.454 373.42 177.066 374.291 175.671C380.108 166.198 384.368 155.854 386.909 145.032L388.394 144.07Z" fill="#30212B"/>
<path fill-rule="evenodd" clip-rule="evenodd" d="M396.242 163.589C392.045 181.328 385.979 193.488 378.043 200.069C376.854 203.368 374.38 206.644 370.621 209.897H370.552C369.005 210.804 367.695 211.138 366.621 210.9C361.508 208.243 357.92 202.135 355.858 192.578L349.137 171.396C354.369 172.587 359.982 170.819 365.975 166.09L371.624 179.836L375.844 185.856C377.089 189.382 377.829 193.065 378.043 196.797C378.43 193.108 378.151 189.378 377.219 185.787L373.398 180.867C373.315 179.437 373.613 177.71 374.291 175.685C380.108 166.212 384.368 155.868 386.909 145.046L388.394 144.084C392.242 149.115 394.859 155.616 396.242 163.589Z" fill="#30212B"/>
<path fill-rule="evenodd" clip-rule="evenodd" d="M365.961 166.09C359.968 170.819 354.356 172.587 349.123 171.396C350.589 168.18 355.171 166.173 362.869 165.375C364.216 165.375 365.247 165.614 365.961 166.09Z" fill="#130D11"/>
<path fill-rule="evenodd" clip-rule="evenodd" d="M370.607 209.897C374.373 206.644 376.848 203.368 378.03 200.069C385.967 193.49 392.033 181.33 396.229 163.589C397.059 168.543 397.441 173.562 397.369 178.585C388.726 192.158 379.806 202.595 370.607 209.897ZM374.291 175.671C373.611 177.696 373.313 179.424 373.398 180.853L377.205 185.788C378.137 189.379 378.416 193.108 378.03 196.798C377.815 193.065 377.075 189.382 375.83 185.856L371.624 179.836C372.532 178.454 373.42 177.066 374.291 175.671Z" fill="#23181F"/>
<path fill-rule="evenodd" clip-rule="evenodd" d="M337.275 137.775C338.238 138.729 339.095 139.785 339.831 140.923L341.934 145.404C343.742 146.747 345.207 148.499 346.209 150.517L350.085 149.623L346.333 150.998L343.955 153.788L342.347 157.541L340.202 154.558L339.845 151.809C339.834 150.506 339.463 149.231 338.773 148.125C338.472 147.886 338.126 147.708 337.756 147.603C337.488 147.528 337.205 147.522 336.934 147.584C336.663 147.647 336.411 147.776 336.203 147.96C336.708 149.152 337.009 150.421 337.096 151.713L336.862 154.737L336.203 153.733L336.615 154.008L336.794 151.63C336.7 150.209 336.336 148.819 335.721 147.534C336.137 147.293 336.618 147.187 337.096 147.232L336.326 143.782C336.281 143.701 336.239 143.619 336.203 143.534C335.928 142.865 335.254 142.233 334.182 141.637C334.979 141.555 335.712 142.05 336.381 143.122L337.398 145.266L337.756 146.572L337.989 147.355C338.357 147.505 338.689 147.729 338.966 148.012C339.242 148.296 339.457 148.634 339.598 149.005L340.189 151.864L342.209 153.953L343.817 153.651L345.013 152.001L345.192 151.644L339.955 147.905C341.754 149.121 343.622 150.232 345.549 151.232C344.798 149.408 343.387 147.621 341.316 145.871L339.117 141.239L337.041 138.558C337.115 138.256 337.192 138.003 337.275 137.775ZM333.701 141.692C333.577 141.741 333.457 141.801 333.344 141.871L334.484 148.483L333.344 146.874L333.893 147.287L332.945 141.871L333.247 141.761C332.59 141.129 331.795 140.658 330.924 140.387C330.173 140.269 329.536 140.704 329.014 141.692C329.213 140.428 330.006 139.892 331.392 140.084C332.238 140.501 333.016 141.044 333.701 141.692ZM364.051 144.785C364.146 144.981 364.229 145.183 364.298 145.39L362.154 149.665C361.884 151.335 361.38 152.96 360.656 154.489L361.618 157.582L361.549 160.084C361.959 160.739 362.129 161.516 362.03 162.283L362.209 162.64L363.762 167.767C363.24 168.079 362.74 168.395 362.264 168.716L361.137 163.3L360.958 161.376L359.528 157.637L360.312 157.816L359.418 154.833L361.137 149.417L360.312 147.933L361.315 148.579L364.051 144.785ZM343.405 154.256L341.921 154.668L340.079 152.414L340.491 154.544L342.209 156.867L343.405 154.256Z" fill="#D36A4B"/>
<path fill-rule="evenodd" clip-rule="evenodd" d="M337.756 146.572L345.013 152.002L343.817 153.651L342.209 153.953L340.189 151.878L339.598 149.019C339.457 148.648 339.242 148.31 338.966 148.026C338.689 147.742 338.357 147.519 337.989 147.369L337.756 146.572ZM333.701 141.692C333.859 141.657 334.02 141.639 334.182 141.637C335.254 142.235 335.928 142.867 336.203 143.534C336.239 143.619 336.281 143.702 336.326 143.782L337.096 147.232C336.618 147.188 336.137 147.293 335.721 147.534C336.336 148.819 336.7 150.209 336.794 151.63L336.615 154.008L336.203 153.733L334.787 151.699L334.498 148.483L333.357 141.871C333.466 141.801 333.581 141.742 333.701 141.692ZM342.333 157.527L343.405 157.293L342.635 157.939L348.34 160.207L352.807 160.675L356.614 162.998L352.326 159.067L352.931 154.201L355.542 152.249C353.562 151.747 351.702 150.854 350.072 149.624L346.195 150.517C345.197 148.501 343.737 146.749 341.934 145.404L339.845 140.936C339.108 139.798 338.251 138.743 337.288 137.789C337.379 137.505 337.525 137.241 337.718 137.015C337.912 136.788 338.149 136.603 338.416 136.469C341.155 138.783 343.264 141.753 344.546 145.101V145.459L345.027 145.225C346.63 146.642 348.339 147.933 350.14 149.087C350.69 149.17 351.542 149.665 352.697 150.572C353.553 150.948 354.454 151.211 355.377 151.355L357.109 151.823L358.181 152.895L357.467 151.52L359.116 148.222L359.418 146.38C360.208 145.258 361.273 144.358 362.511 143.768C362.83 143.797 363.137 143.904 363.405 144.079C363.673 144.254 363.895 144.492 364.051 144.771L361.302 148.579L360.298 147.933L361.123 149.417L359.405 154.833L360.298 157.816L359.515 157.637L360.944 161.376L361.123 163.3L362.25 168.716C358.997 170.622 355.881 171.634 352.903 171.754L352.601 170.022L351.652 168.716C348.145 167.069 344.846 165.012 341.824 162.585C340.575 160.588 339.042 158.783 337.275 157.225L336.794 155.685L336.862 154.723L337.096 151.699C337.009 150.407 336.708 149.139 336.203 147.947C337.238 147.554 338.054 147.793 338.649 148.661C339.401 149.891 339.676 150.862 339.474 151.575L340.189 154.544L342.333 157.527ZM333.344 146.874L332.271 145.088L329.014 141.692C329.536 140.703 330.173 140.268 330.924 140.387C331.795 140.658 332.59 141.129 333.247 141.761L332.945 141.871L333.893 147.287L333.344 146.874ZM343.405 154.256L342.209 156.867L340.491 154.544L340.079 152.414L341.921 154.668L343.405 154.256Z" fill="#DE9078"/>
<path fill-rule="evenodd" clip-rule="evenodd" d="M345.013 152.002L337.756 146.586L337.398 145.28L337.948 146.407C337.991 146.463 338.028 146.523 338.058 146.586C338.698 147.026 339.335 147.466 339.969 147.905L345.206 151.644L345.013 152.002ZM340.189 154.558L339.474 151.589C339.676 150.874 339.401 149.903 338.649 148.675C338.054 147.803 337.238 147.565 336.203 147.96C336.411 147.776 336.663 147.647 336.934 147.585C337.205 147.522 337.488 147.529 337.756 147.603C338.122 147.714 338.463 147.897 338.759 148.139C339.449 149.245 339.82 150.52 339.831 151.823L340.189 154.558ZM350.085 149.61C351.716 150.841 353.576 151.733 355.556 152.235L352.931 154.201L352.326 159.08L356.614 163.012L352.807 160.689L348.34 160.221L342.635 157.953L343.405 157.307L342.333 157.541L343.941 153.788L346.333 150.984L350.085 149.61ZM355.377 151.342C355.967 151.46 356.575 151.46 357.164 151.342L358.594 148.304L359.144 146.215C359.9 145.176 360.901 144.341 362.058 143.782H362.539C361.3 144.372 360.235 145.271 359.446 146.393L359.144 148.235L357.494 151.534L358.209 152.909L357.137 151.837L355.377 151.342ZM338.416 136.456C340.285 137.005 342.393 139.603 344.738 144.249L344.862 144.428C346.287 145.921 347.883 147.241 349.618 148.359C350.72 148.987 351.756 149.724 352.711 150.558C351.565 149.651 350.713 149.156 350.154 149.074C348.353 147.919 346.644 146.628 345.041 145.211L344.56 145.445V145.088C343.27 141.736 341.151 138.766 338.402 136.456H338.416Z" fill="#E4A694"/>
<path fill-rule="evenodd" clip-rule="evenodd" d="M474.508 274.693L473.189 275.71L473.67 274.335L474.22 273.263L473.56 274.156L472.667 276.768L471.787 279.146C471.651 279.455 471.435 279.721 471.163 279.919C470.89 280.117 470.569 280.239 470.234 280.273C470.016 280.311 469.794 280.305 469.579 280.255C469.364 280.206 469.161 280.114 468.983 279.984C469.661 279.114 470.334 277.446 471.003 274.981L471.828 273.607L470.811 274.61C470.224 276.539 469.507 278.427 468.667 280.259C468.51 280.617 468.356 280.955 468.199 281.277C468.156 281.347 468.133 281.428 468.131 281.51C467.7 282.225 467.008 282.445 466.055 282.17C466.039 282.153 466.02 282.139 465.999 282.13C465.978 282.12 465.955 282.115 465.931 282.115C465.382 281.437 465.185 280.901 465.34 280.507C466.354 278.215 467.11 275.818 467.595 273.359L467.127 274.019C466.537 276.344 465.741 278.612 464.749 280.795C464.645 281.054 464.502 281.296 464.323 281.51V281.579C463.892 282.33 463.278 282.587 462.481 282.349C462.412 282.323 462.351 282.28 462.303 282.225L460.282 281.331L457.258 281.881C457.222 281.881 457.203 281.846 457.203 281.771C456.69 280.974 456.571 280.319 456.846 279.806C458.228 278.615 460.152 278.065 462.619 278.156L462.193 277.73L463.512 270.83L461.547 266.789L462.674 265.593L461.01 266.844C459.979 267.513 459.137 268.436 458.564 269.524C458.087 271.669 457.336 272.86 456.31 273.098H456.255C455.549 272.964 454.888 272.657 454.33 272.205C454.963 271.208 455.338 269.402 455.457 266.789C456.529 265.552 457.643 263.843 458.797 261.662C458.871 261.506 458.967 261.327 459.086 261.126C459.485 260.416 460.063 259.824 460.763 259.408L465.986 255.655L466.165 255.298C469.804 253.915 473.824 253.915 477.464 255.298L476.639 259.518C476.089 263.202 475.928 266.933 476.158 270.651C476.398 271.998 475.848 273.327 474.508 274.638V274.693Z" fill="#DE9078"/>
<path fill-rule="evenodd" clip-rule="evenodd" d="M457.189 281.785C456.9 281.501 456.676 281.157 456.534 280.777C456.391 280.397 456.334 279.99 456.365 279.586C458.115 278.166 459.938 277.593 461.835 277.868C462.312 275.998 462.591 273.556 462.674 270.542L461.01 266.858L462.674 265.607L461.547 266.803L463.512 270.844L462.193 277.744L462.619 278.17C460.152 278.088 458.227 278.638 456.846 279.82C456.562 280.333 456.676 280.988 457.189 281.785ZM464.749 280.823C465.741 278.639 466.537 276.371 467.127 274.047L467.594 273.387C467.11 275.845 466.354 278.243 465.34 280.534C465.183 280.928 465.38 281.465 465.931 282.143C465.379 281.876 464.954 281.402 464.749 280.823ZM470.22 280.287C469.705 280.37 469.181 280.37 468.667 280.287C469.507 278.454 470.224 276.567 470.811 274.638L471.828 273.634L471.003 275.009C470.334 277.474 469.661 279.142 468.983 280.012C469.161 280.137 469.362 280.226 469.574 280.273C469.786 280.32 470.006 280.325 470.22 280.287ZM474.508 274.693L474.261 274.94L474.151 275.05C473.554 275.535 473.047 276.121 472.653 276.782L473.546 274.17L474.206 273.277L473.656 274.349L473.175 275.724L474.508 274.693Z" fill="#D36A4B"/>
<path fill-rule="evenodd" clip-rule="evenodd" d="M408.751 98.3668L398.634 99.2053L398.332 99.0266L408.751 98.2568V98.3668Z" fill="#161616"/>
<path fill-rule="evenodd" clip-rule="evenodd" d="M408.751 98.3672L408.448 99.0819L398.634 101.405V99.2057L408.751 98.3672Z" fill="#1F1F1F"/>
<path fill-rule="evenodd" clip-rule="evenodd" d="M413.988 141.871C413.905 139.021 414.281 137.335 415.115 136.813C420.896 132.71 426.44 128.281 431.719 123.549V109.322L434.468 109.858C433.671 114.579 433.79 118.446 434.826 121.459L414.647 143.425L413.988 141.871Z" fill="#D67154"/>
<path fill-rule="evenodd" clip-rule="evenodd" d="M411.596 130.572C416.398 131.003 423.105 127.69 431.719 120.634V123.548C426.44 128.281 420.896 132.709 415.115 136.813L411.843 132.29C411.761 131.686 411.678 131.113 411.596 130.572Z" fill="#DE9078"/>
<path fill-rule="evenodd" clip-rule="evenodd" d="M412.792 107.837L431.719 109.322V120.634C423.105 127.69 416.398 131.003 411.596 130.572C410.606 122.197 411.005 114.618 412.792 107.837Z" fill="#DA8167"/>
<path fill-rule="evenodd" clip-rule="evenodd" d="M412.792 107.838C411.005 114.619 410.606 122.197 411.596 130.572C411.678 131.122 411.761 131.695 411.843 132.291L415.115 136.813C414.283 137.335 413.907 139.021 413.988 141.871L410.469 132.414C410.044 124.175 410.283 115.915 411.184 107.714L412.792 107.838Z" fill="#E29E8B"/>
<path fill-rule="evenodd" clip-rule="evenodd" d="M439.155 80.5807C440.306 81.6111 441.201 82.8961 441.767 84.3332C441.717 89.1377 440.957 93.9085 439.513 98.4909C441.135 98.731 442.106 99.8215 442.427 101.762C442.509 104.346 441.657 106.294 439.87 107.604C439.717 107.676 439.578 107.773 439.458 107.893C438.21 108.605 437.117 109.558 436.241 110.697C435.49 111.567 434.482 111.705 433.217 111.109C432.893 113.504 432.192 115.833 431.142 118.009C431.143 118.048 431.131 118.087 431.109 118.119C431.087 118.151 431.055 118.175 431.018 118.188C430.065 120.451 428.599 122.119 426.62 123.191C423.655 125.123 420.527 126.792 417.273 128.181C416.435 128.54 415.551 128.78 414.647 128.896C414.138 128.978 413.624 129.019 413.108 129.019C411.664 129.002 410.232 128.742 408.874 128.25C407.61 127.735 406.996 126.562 407.032 124.731C407.133 121.787 406.628 118.853 405.548 116.113C404.503 113.626 403.743 111.03 403.28 108.374L403.17 108.016V107.948C402.803 105.529 403.06 102.596 403.94 99.1507L403.39 98.6147C402.639 97.7808 402.281 96.5895 402.318 95.0409C402.638 93.254 402.68 90.8531 402.441 87.8383V87.2885C402.432 87.2245 402.409 87.1635 402.373 87.1098C402.396 87.0751 402.408 87.0345 402.408 86.9929C402.408 86.9514 402.396 86.9108 402.373 86.8761C402.49 83.9438 403.109 81.5612 404.228 79.7285L404.998 79.1925C415.234 72.2923 426.363 72.5534 438.386 79.9759C438.665 80.1473 438.923 80.3503 439.155 80.5807Z" fill="#DE9078"/>
<path fill-rule="evenodd" clip-rule="evenodd" d="M439.155 80.5806C440.306 81.611 441.201 82.8959 441.767 84.333C441.717 89.1376 440.957 93.9083 439.513 98.4908C441.135 98.7309 442.106 99.8213 442.427 101.762C442.509 104.346 441.657 106.294 439.87 107.604C439.717 107.676 439.578 107.773 439.458 107.893C438.21 108.605 437.117 109.558 436.241 110.697C435.49 111.567 434.482 111.705 433.217 111.109L433.162 115.934C433.117 117.473 432.521 118.921 431.375 120.277C429.724 121.646 427.881 122.767 425.905 123.604C425.773 123.734 425.63 123.854 425.479 123.961C425.232 124.084 424.994 124.222 424.764 124.373C422.374 125.851 419.863 127.125 417.259 128.181C416.421 128.54 415.538 128.78 414.634 128.896C421.937 126.002 426.876 122.313 429.451 117.831C430.606 116.566 431.183 114.225 431.183 110.807C430.862 107.361 431.652 103.902 433.437 100.937C436.141 99.1854 437.927 96.4867 438.798 92.8414C439.828 88.8319 439.95 84.6432 439.155 80.5806Z" fill="#DA8167"/>
<path fill-rule="evenodd" clip-rule="evenodd" d="M402.441 87.8382V87.2884C402.432 87.2245 402.409 87.1634 402.373 87.1097C402.396 87.0751 402.408 87.0344 402.408 86.9929C402.408 86.9513 402.396 86.9107 402.373 86.876C402.49 83.9437 403.109 81.5612 404.228 79.7285L404.998 79.1924C403.92 81.5977 403.314 84.1873 403.211 86.8211C403.249 87.1361 403.249 87.4545 403.211 87.7695C403.413 90.6652 403.312 93.0248 402.909 94.8484C402.836 96.3603 403.156 97.5287 403.871 98.3534L404.517 98.9032C403.564 102.275 403.248 105.176 403.569 107.604V107.659L403.692 108.016C404.169 110.765 405.081 114.096 406.428 118.009C406.097 117.393 405.799 116.76 405.534 116.112C404.49 113.626 403.729 111.03 403.266 108.374L403.156 108.016V107.948C402.79 105.529 403.046 102.596 403.926 99.1507L403.376 98.6146C402.625 97.7807 402.267 96.5894 402.304 95.0408C402.634 93.2539 402.68 90.853 402.441 87.8382Z" fill="#E6A997"/>
<path fill-rule="evenodd" clip-rule="evenodd" d="M440.901 104.745C441.845 102.243 441.547 100.754 440.008 100.278C438.376 100.16 437.002 101.269 435.884 103.604V103.783C437.433 104.305 437.689 105.46 436.654 107.247C435.866 108.751 434.936 109.759 433.863 110.271C435.879 108.41 436.631 106.962 436.118 105.927C436.073 105.858 436.012 105.8 435.94 105.759C435.868 105.718 435.788 105.696 435.705 105.693C435.466 105.575 435.128 105.652 434.688 105.927C433.816 106.248 433.678 105.854 434.276 104.745L434.399 104.676C436.379 100.945 438.303 99.2404 440.172 99.5629C441.914 100.078 442.156 101.805 440.901 104.745Z" fill="#D36B4E"/>
<path fill-rule="evenodd" clip-rule="evenodd" d="M402.015 95.398C402.006 95.299 402.017 95.1991 402.048 95.1046C402.079 95.01 402.128 94.9228 402.194 94.8482C402.225 94.8121 402.263 94.7826 402.305 94.7614C402.348 94.7402 402.394 94.7276 402.441 94.7244C403.393 94.6057 404.356 94.6289 405.301 94.7932C405.855 94.9345 406.35 95.2472 406.716 95.6866L406.606 95.0268C406.978 95.3932 407.313 95.7935 407.61 96.2227C407.728 96.6543 407.574 96.8082 407.142 96.69C406.559 96.4069 405.939 96.2079 405.301 96.099C405.031 96.0291 404.754 95.9877 404.476 95.9753L404.421 95.9203C403.686 95.8201 402.939 95.9447 402.277 96.2777C402.098 96.1347 402.015 95.8378 402.015 95.398Z" fill="#2D0900"/>
<path fill-rule="evenodd" clip-rule="evenodd" d="M414.812 97.0201C414.371 96.7244 414.024 96.3097 413.809 95.8242C416.078 96.4133 418.42 96.6771 420.764 96.6077C424.015 96.7635 426.398 97.7715 427.912 99.6317C426.161 98.5321 424.035 98.0372 421.534 98.1472C419.873 98.0284 418.205 98.0284 416.544 98.1472C416.024 98.1899 415.503 98.0767 415.048 97.8221C414.593 97.5675 414.223 97.183 413.988 96.7177L414.812 97.0201Z" fill="#2D0900"/>
<path fill-rule="evenodd" clip-rule="evenodd" d="M409.465 112.002L409.287 112.181L408.984 112.305C408.627 112.379 408.346 112.437 408.146 112.483C407.869 112.484 407.594 112.461 407.321 112.415C407.203 112.415 407.046 112.2 406.84 111.769C406.758 111.568 406.656 111.329 406.538 111.054L409.218 104.085L409.52 103.494L410.18 103.247L410.95 104.209C410.832 104.566 410.73 104.924 410.647 105.281L409.933 110.807C409.932 110.892 409.913 110.976 409.878 111.054C409.844 111.406 409.7 111.738 409.465 112.002Z" fill="#E29E8B"/>
<path fill-rule="evenodd" clip-rule="evenodd" d="M412.915 113.789C412.851 113.783 412.787 113.803 412.737 113.844L412.668 113.789C412.451 113.787 412.235 113.764 412.022 113.72C410.867 113.686 410.29 113.805 410.29 114.078C409.18 114.107 408.098 113.725 407.252 113.006C407.253 112.998 407.252 112.991 407.25 112.984C407.248 112.977 407.244 112.97 407.238 112.965C407.233 112.96 407.227 112.956 407.219 112.953C407.212 112.951 407.205 112.95 407.197 112.951V112.896C407.04 112.533 406.92 112.156 406.84 111.769C407.041 112.2 407.203 112.415 407.321 112.415C407.594 112.461 407.869 112.484 408.146 112.483C408.346 112.437 408.627 112.379 408.984 112.305L409.287 112.181L409.465 112.002L409.575 111.947L411.541 111.645C411.739 111.641 411.938 111.66 412.132 111.7C412.893 111.818 413.292 112.338 413.328 113.253C413.304 113.368 413.254 113.476 413.183 113.568C413.112 113.661 413.02 113.737 412.915 113.789Z" fill="#D67154"/>
<path fill-rule="evenodd" clip-rule="evenodd" d="M406.84 111.769C406.92 112.156 407.04 112.533 407.197 112.896L407.142 112.827C407.06 112.791 406.868 112.695 406.538 112.538C406.42 112.216 406.42 111.68 406.538 110.93V111.054C406.656 111.329 406.758 111.568 406.84 111.769Z" fill="#CF5A38"/>
<path fill-rule="evenodd" clip-rule="evenodd" d="M412.915 113.789C413.02 113.737 413.112 113.661 413.183 113.568C413.254 113.476 413.304 113.368 413.328 113.253C413.292 112.338 412.893 111.818 412.132 111.7C411.938 111.66 411.739 111.642 411.541 111.645L409.575 111.947L410.647 111.109C411.747 110.312 412.718 110.234 413.562 110.875C413.748 110.981 413.899 111.139 413.996 111.329C414.094 111.52 414.134 111.735 414.111 111.947C413.946 113.012 413.548 113.626 412.915 113.789Z" fill="#DA8167"/>
<path fill-rule="evenodd" clip-rule="evenodd" d="M411.541 113.432C411.07 113.174 410.538 113.051 410.001 113.075C410.598 112.682 411.101 112.58 411.541 112.772C411.889 112.86 412.213 113.025 412.489 113.253C412.69 113.41 412.374 113.468 411.541 113.432Z" fill="#9C493A"/>
<path fill-rule="evenodd" clip-rule="evenodd" d="M418.922 115.933C416.705 117.006 414.679 117.363 412.847 117.006L408.572 116.346H408.393C407.832 116.226 407.29 116.027 406.785 115.755V115.686C407.484 115.408 408.25 115.346 408.984 115.507L409.699 115.988L410.592 115.865C411.63 115.791 412.673 115.875 413.685 116.112H413.74C413.803 116.118 413.864 116.136 413.919 116.167C414.321 116.203 414.72 116.263 415.115 116.346C416.274 116.431 417.438 116.329 418.565 116.043C418.621 116.015 418.681 115.996 418.744 115.988C418.794 115.947 418.858 115.928 418.922 115.933ZM419.156 115.81C419.227 115.777 419.302 115.741 419.376 115.7L419.101 115.865C419.055 115.87 419.013 115.891 418.983 115.925L419.046 115.865C419.074 115.833 419.113 115.813 419.156 115.81Z" fill="#C6533C"/>
<path fill-rule="evenodd" clip-rule="evenodd" d="M407.142 116.112C407.545 116.303 407.964 116.459 408.393 116.58H408.572C410.131 116.675 411.68 116.896 413.204 117.239C414.954 117.48 416.787 117.182 418.702 116.346C417.464 117.239 416.096 117.939 414.647 118.422C413.745 118.699 412.801 118.82 411.857 118.779H411.678L409.053 118.422C407.614 117.872 406.977 117.102 407.142 116.112Z" fill="#EC7861"/>
<path fill-rule="evenodd" clip-rule="evenodd" d="M419.046 115.865L418.983 115.925C419.013 115.891 419.055 115.87 419.101 115.865L419.376 115.7C419.302 115.741 419.227 115.777 419.156 115.81C419.249 115.731 419.316 115.625 419.348 115.508C419.38 115.39 419.375 115.265 419.335 115.15C419.673 115.329 419.958 115.595 420.159 115.922C420.359 116.248 420.469 116.622 420.475 117.006C420.236 116.409 419.926 116.03 419.513 115.865C419.257 116.055 418.981 116.217 418.688 116.346C416.782 117.178 414.95 117.476 413.19 117.239C411.666 116.896 410.117 116.675 408.558 116.579H408.379C407.95 116.459 407.532 116.303 407.129 116.112C407.011 116.03 406.908 115.928 406.826 115.81L406.703 116.634C406.391 115.993 406.391 115.553 406.703 115.315L406.771 115.672V115.741C407.277 116.013 407.818 116.212 408.379 116.332H408.558L412.833 116.992C414.666 117.349 416.691 116.992 418.908 115.92C418.925 115.899 418.946 115.884 418.97 115.874C418.994 115.865 419.02 115.861 419.046 115.865Z" fill="#311110"/>
<path fill-rule="evenodd" clip-rule="evenodd" d="M420.008 104.14C417.946 103.865 416.636 103.411 416.077 102.779C415.41 102.147 415.35 101.789 415.898 101.707C417.126 100.752 418.835 100.674 421.025 101.473C421.85 101.473 422.583 102.046 423.224 103.191C423.534 103.789 423.594 104.188 423.403 104.387L420.008 104.14Z" fill="#E1E7E5"/>
<path fill-rule="evenodd" clip-rule="evenodd" d="M419.458 103.851C418.353 103.806 417.282 103.454 416.366 102.834C416.241 102.472 416.199 102.087 416.242 101.707C416.242 101.626 416.261 101.546 416.297 101.473C417.25 100.876 418.423 100.757 419.816 101.116C420.13 101.565 420.276 102.11 420.228 102.655C420.111 103.128 419.84 103.549 419.458 103.851Z" fill="#321C12"/>
<path fill-rule="evenodd" clip-rule="evenodd" d="M423.925 104.319C423.756 104.232 423.566 104.194 423.376 104.209C423.651 104.162 423.728 103.884 423.609 103.384C423.741 103.692 423.857 104.008 423.925 104.319ZM422.372 105.034C420.243 105.267 418.098 104.763 416.297 103.604C418.258 104.321 420.297 104.8 422.372 105.034ZM420.228 99.7416C421.217 99.9228 422.142 100.357 422.913 101.003C423.684 101.649 424.274 102.483 424.627 103.425C423.912 102.161 422.583 101.189 420.64 100.511C417.734 99.7965 415.846 100.296 414.977 102.01C415.784 99.9844 417.534 99.2284 420.228 99.7416Z" fill="#C36F5F"/>
<path fill-rule="evenodd" clip-rule="evenodd" d="M423.925 104.319C423.055 104.206 422.177 104.169 421.3 104.209C418.681 104.009 416.839 103.432 415.774 102.477C415.5 102.119 415.431 101.845 415.596 101.652C415.549 101.57 415.568 101.528 415.651 101.528C416.439 100.658 418.084 100.438 420.585 100.869C422.052 101.235 423.046 102.028 423.568 103.247C423.013 102.335 422.142 101.66 421.121 101.35C418.904 100.835 417.199 100.972 416.008 101.762C415.768 101.927 415.809 102.188 416.132 102.546C417.074 103.37 418.737 103.902 421.121 104.14C421.878 104.093 422.637 104.116 423.389 104.209C423.575 104.196 423.76 104.234 423.925 104.319Z" fill="#321C12"/>
<path fill-rule="evenodd" clip-rule="evenodd" d="M406.428 102.422C405.116 102.386 404.303 102.106 403.981 101.597C403.614 101.121 403.596 100.786 403.926 100.594C404.76 99.5582 405.832 99.2971 407.142 99.8102C407.692 99.6929 408.127 100.133 408.448 101.13C408.649 101.644 408.668 102.018 408.503 102.257L406.428 102.422Z" fill="#E1E7E5"/>
<path fill-rule="evenodd" clip-rule="evenodd" d="M406.661 100.992C406.545 101.425 406.384 101.844 406.18 102.243C405.46 102.276 404.749 102.068 404.16 101.652C404.124 101.295 404.124 100.936 404.16 100.58V100.332C404.45 100.018 404.815 99.7818 405.222 99.6471C405.628 99.5125 406.062 99.4834 406.483 99.5627C406.641 100.022 406.702 100.508 406.661 100.992Z" fill="#321C12"/>
<path fill-rule="evenodd" clip-rule="evenodd" d="M408.929 102.065C408.346 102.088 407.766 102.166 407.197 102.298H407.142C407.591 102.171 408.052 102.093 408.517 102.065H408.929ZM407.142 102.298C405.594 102.463 404.503 102.147 403.871 101.35C403.791 101.24 403.742 101.11 403.73 100.974C403.718 100.839 403.743 100.703 403.802 100.58C403.794 100.572 403.787 100.563 403.783 100.552C403.778 100.541 403.776 100.53 403.776 100.518C403.776 100.507 403.778 100.495 403.783 100.485C403.787 100.474 403.794 100.464 403.802 100.456C404.325 99.54 405.356 99.1231 406.895 99.2055C407.775 99.4804 408.352 100.136 408.627 101.171C408.306 100.374 407.83 99.879 407.197 99.6866C405.887 99.4465 404.815 99.7627 403.981 100.635C403.923 100.748 403.899 100.876 403.912 101.002C403.924 101.129 403.972 101.249 404.05 101.35C404.647 102.03 405.678 102.346 407.142 102.298Z" fill="#321C12"/>
<path fill-rule="evenodd" clip-rule="evenodd" d="M408.503 102.065C408.705 101.982 408.787 101.762 408.751 101.405C408.793 101.629 408.853 101.85 408.929 102.065H408.503ZM407.912 102.889C406.446 103.412 405.177 103.238 404.105 102.367C405.571 102.882 406.84 103.056 407.912 102.889ZM403.39 101.048C403.94 99.0682 405.049 98.1381 406.716 98.2572C408.027 98.4148 408.902 99.4045 409.342 101.226C409.15 100.682 408.836 100.19 408.424 99.787C408.012 99.3842 407.512 99.0818 406.964 98.9032C405.177 98.5459 403.986 99.2606 403.39 101.048Z" fill="#C36F5F"/>
<path fill-rule="evenodd" clip-rule="evenodd" d="M402.373 91.2468H402.015C400.714 91.2468 399.647 91.5033 398.813 92.0165C398.648 92.1347 398.488 92.2557 398.332 92.3739C398.295 91.2743 399.385 89.5515 401.603 87.2056C400.594 87.905 399.671 88.7217 398.854 89.6386C399.056 88.6489 399.395 87.2011 399.871 85.295C400.936 80.7664 403.731 77.3942 408.256 75.1784C408.412 75.096 409.8 74.3995 412.421 73.0891C415.041 71.7788 418.592 71.1281 423.073 71.1373C428.709 71.7696 433.172 73.4557 436.461 76.1956C438.005 77.4915 439.296 79.062 440.269 80.8278C442.532 82.1748 443.943 84.003 444.502 86.3122C444.692 86.8522 444.83 87.4092 444.915 87.9754C445.235 90.8692 444.067 94.6355 441.41 99.2741C439.458 97.927 437.332 98.7838 435.032 101.844C434.925 101.991 434.833 102.147 434.757 102.312C434.076 103.719 433.63 105.228 433.437 106.779L432.186 107.439C432.47 104.607 432.553 101.76 432.434 98.9167C431.561 97.8519 430.787 96.3674 430.111 94.4632L430.771 93.446C431.796 91.3548 431.987 88.9519 431.307 86.7245C429.236 85.6524 426.716 85.492 423.747 86.2435C415.692 89.5698 408.567 91.2376 402.373 91.2468Z" fill="#2D0900"/>
<path fill-rule="evenodd" clip-rule="evenodd" d="M432.186 107.425L432.008 99.5081C430.891 98.0072 430.066 96.3101 429.575 94.5048C431.123 92.8352 431.618 90.5122 431.059 87.5359C429.318 85.8315 425.612 86.2117 419.939 88.6767C414.661 91.0959 408.806 91.9481 402.373 91.2334C408.567 91.2334 415.692 89.5656 423.747 86.2301C426.716 85.4787 429.236 85.639 431.307 86.7112C431.988 88.9385 431.796 91.3414 430.771 93.4326L430.111 94.4498C430.789 96.354 431.563 97.8385 432.434 98.9033C432.553 101.746 432.47 104.594 432.186 107.425Z" fill="#D67356"/>
<path fill-rule="evenodd" clip-rule="evenodd" d="M439.925 97.5421C442.427 96.9465 444.095 93.7117 444.928 87.8379C445.249 90.7702 444.058 94.6602 441.355 99.5077C439.45 97.9206 437.343 98.672 435.032 101.762C434.967 101.911 434.889 102.053 434.798 102.188C435.751 99.5673 437.419 98.0369 439.801 97.5971C439.815 97.5696 439.851 97.5421 439.925 97.5421ZM435.169 83.137C436.038 82.4239 436.952 81.7674 437.905 81.1714C434.422 83.8746 432.635 85.8219 432.544 87.0132C432.828 89.7897 432.278 92.2089 430.894 94.2707C431.288 96.6899 432.063 98.4539 433.217 99.5627C432.935 99.3541 432.677 99.1143 432.448 98.8479C431.575 97.7483 430.801 96.2409 430.125 94.3257L430.839 93.3085C431.465 91.9917 431.771 90.546 431.733 89.0887C431.412 90.7583 430.775 91.8488 429.822 92.3601C430.858 91.3338 431.357 89.4323 431.32 86.6558C429.25 85.5836 426.748 85.405 423.816 86.1197C422.111 86.8345 420.462 87.4668 418.867 88.0166C418.628 88.099 418.392 88.176 418.152 88.2502C417.168 88.5704 416.212 88.9703 415.293 89.4461C415.088 89.6057 414.867 89.7439 414.634 89.8585C412.674 90.9357 410.501 91.5692 408.27 91.7141C409.782 91.5143 411.449 90.8362 413.273 89.6798C409.69 90.5842 406.013 91.064 402.318 91.1093H402.015C400.714 91.1093 399.647 91.3704 398.813 91.8928C399.776 91.2939 400.881 90.9618 402.015 90.9306H402.318C408.549 90.5384 415.77 88.417 423.98 84.5665C426.675 83.6941 428.998 83.6346 430.949 84.3878C432.251 84.5069 433.657 84.09 435.169 83.137Z" fill="#110400"/>
<path fill-rule="evenodd" clip-rule="evenodd" d="M398.332 92.1266C398.489 91.137 399.479 89.5287 401.301 87.302C400.238 88.7639 399.344 90.3408 398.634 92.0029L398.332 92.1266ZM399.885 85.2265C400.95 80.6978 403.763 77.3027 408.325 75.0411C408.489 74.966 409.878 74.2741 412.489 72.9656C415.073 71.6552 418.606 71 423.087 71C428.723 71.6323 433.185 73.3184 436.475 76.0583C428.538 70.8149 420.345 70.178 411.898 74.1477C409.923 75.0248 408.013 76.0399 406.18 77.1854L405.713 77.5428C402.652 79.5313 400.453 83.2609 399.115 88.7315C399.298 87.8243 399.555 86.656 399.885 85.2265Z" fill="#531100"/>
<path fill-rule="evenodd" clip-rule="evenodd" d="M433.506 106.408L433.149 115.989C433.089 117.609 432.478 119.161 431.417 120.387C429.728 121.736 427.87 122.859 425.891 123.727C425.773 123.802 425.616 123.898 425.465 124.016C425.19 124.181 424.934 124.34 424.695 124.497C422.286 125.905 419.778 127.136 417.19 128.181C416.399 128.617 415.531 128.897 414.634 129.006C414.102 129.089 413.564 129.131 413.025 129.129C411.587 129.088 410.163 128.823 408.806 128.346C407.578 127.831 406.964 126.662 406.964 124.841C407.055 121.898 406.569 118.965 405.534 116.209C405.042 115.136 404.642 114.023 404.338 112.882C405.053 114.786 405.433 115.4 405.479 114.724C405.515 113.974 406.147 113.674 407.376 113.831C408.146 113.942 408.922 114.002 409.699 114.009H410.111C411.549 113.768 413.017 113.768 414.455 114.009C416.045 114.009 417.627 113.787 419.156 113.35C420.703 112.992 421.711 113.551 422.18 115.027C422.422 115.258 422.714 115.431 423.033 115.534C423.352 115.636 423.69 115.665 424.022 115.618C424.048 115.6 424.079 115.59 424.111 115.59C424.143 115.59 424.174 115.6 424.2 115.618C424.485 115.578 424.762 115.5 425.025 115.384C425.51 115.277 425.974 115.091 426.4 114.834C428.782 113.562 430.707 111.001 432.173 107.15L433.506 106.408ZM412.86 115.686C411.897 115.53 410.919 115.493 409.946 115.576C409.388 115.573 408.832 115.49 408.297 115.329C407.262 115.054 406.547 115.352 406.153 116.222C406.296 117.354 406.535 118.471 406.867 119.563C406.985 121.232 407.342 122.006 407.94 121.885C408.537 121.803 409.055 121.125 409.493 119.851L410.62 119.975C411.252 121.797 412.182 123.047 413.41 123.727C415.124 123.178 417.03 122.005 419.128 120.209C421.273 118.387 422.065 116.802 421.506 115.453C421.074 114.855 420.359 114.754 419.362 115.15C418.728 115.614 418.006 115.943 417.24 116.118C416.474 116.293 415.681 116.31 414.909 116.167C414.441 116.088 413.981 115.968 413.534 115.81L412.86 115.686Z" fill="#422222"/>
<path fill-rule="evenodd" clip-rule="evenodd" d="M470.591 144.606L471.787 145.321C479.484 179.005 481.464 217.629 477.725 261.195C476.334 262.451 474.621 263.294 472.777 263.628C469.129 264.26 464.965 262.794 460.282 259.229C461.033 246.336 460.992 231.436 460.158 214.529L455.045 180.193C457.429 162.663 462.611 150.801 470.591 144.606Z" fill="#30212B"/>
<path fill-rule="evenodd" clip-rule="evenodd" d="M472.79 263.628C469.143 264.26 464.978 262.794 460.296 259.229C461.047 246.336 461.006 231.436 460.172 214.529L455.059 180.193C457.441 162.663 462.619 150.801 470.591 144.606C463.645 150.288 458.843 162.292 456.186 180.619C458.213 199.458 461.842 214.211 467.072 224.879C465.533 223.294 463.989 221.131 462.44 218.392V257.208C462.907 260.462 466.357 262.601 472.79 263.628Z" fill="#23181F"/>
<path fill-rule="evenodd" clip-rule="evenodd" d="M470.591 144.606L471.787 145.321C479.484 179.005 481.464 217.629 477.725 261.195C476.334 262.451 474.62 263.294 472.776 263.628C466.351 262.603 462.901 260.463 462.426 257.208V218.405C463.975 221.154 465.519 223.317 467.058 224.893C461.826 214.219 458.197 199.466 456.172 180.633C458.831 162.295 463.638 150.286 470.591 144.606Z" fill="#30212B"/>
<path fill-rule="evenodd" clip-rule="evenodd" d="M413.562 107.425C412.929 106.546 412.315 104.896 411.72 102.477C411.562 101.762 412.203 101.465 413.644 101.584C417.566 101.701 420.48 102.118 422.386 102.834L422.441 102.889H422.565C423.518 103.329 423.994 104.424 423.994 106.175C424 106.91 423.959 107.644 423.871 108.374C423.797 109.006 423.224 109.382 422.152 109.501C419.532 109.418 417.529 109.221 416.146 108.91L419.348 105.872L414.895 108.484C414.725 108.426 414.564 108.347 414.414 108.25L418.579 102.711L413.562 107.425Z" fill="white" fill-opacity="0.2"/>
<path fill-rule="evenodd" clip-rule="evenodd" d="M416.132 108.91C415.698 108.822 415.278 108.679 414.881 108.484L419.335 105.872L416.132 108.91ZM413.561 107.425L418.565 102.71L414.4 108.25C414.178 108.146 413.991 107.979 413.864 107.769C413.753 107.664 413.651 107.549 413.561 107.425Z" fill="white" fill-opacity="0.3"/>
<path fill-rule="evenodd" clip-rule="evenodd" d="M403.445 106.106L405.41 103.37L402.084 105.57C401.808 105.441 401.545 105.284 401.301 105.102L404.105 101.831L400.6 104.443C400.329 104.185 400.106 103.883 399.94 103.549C399.626 102.626 399.441 101.664 399.39 100.69V100.635C399.39 99.5354 400.022 99.0589 401.287 99.2056C403.486 99.5996 405.255 100.296 406.593 101.295C406.656 101.325 406.716 101.362 406.771 101.405C407.248 101.81 407.445 102.685 407.362 104.03V104.085C407.28 105.672 406.904 106.506 406.235 106.587H406.111C405.208 106.519 404.315 106.358 403.445 106.106Z" fill="white" fill-opacity="0.2"/>
<path fill-rule="evenodd" clip-rule="evenodd" d="M401.314 105.102C401.053 104.914 400.817 104.692 400.613 104.443L404.118 101.831L401.314 105.102ZM402.098 105.57L405.424 103.371L403.459 106.106C402.974 106.003 402.51 105.822 402.084 105.57H402.098Z" fill="white" fill-opacity="0.3"/>
<path fill-rule="evenodd" clip-rule="evenodd" d="M438.853 98.6144L426.482 102.367L426.413 102.119L439.1 98.4907L438.853 98.6144Z" fill="#161616"/>
<path fill-rule="evenodd" clip-rule="evenodd" d="M426.482 102.367L438.853 98.6143C437.268 99.1293 435.921 100.16 434.812 101.707L426.716 104.923L426.592 104.14L429.754 102.889V102.119L426.537 103.315L426.482 102.367Z" fill="#1F1F1F"/>
<path fill-rule="evenodd" clip-rule="evenodd" d="M426.592 104.14L426.537 103.315L429.754 102.12V102.889L426.592 104.14Z" fill="#666666"/>
<path fill-rule="evenodd" clip-rule="evenodd" d="M425.822 102.601L426.001 104.443V104.498H425.946L426.001 104.979L425.946 105.034C425.552 105.282 425.26 105.662 425.121 106.106C425.086 106.427 425.047 106.724 425.011 106.999C424.94 107.288 424.839 107.569 424.709 107.838C424.511 108.386 424.107 108.835 423.582 109.088C422.212 109.368 420.814 109.488 419.417 109.446H419.238C419.214 109.445 419.189 109.439 419.168 109.427C419.146 109.415 419.128 109.398 419.115 109.377H418.812C417.709 109.286 416.615 109.107 415.541 108.841C415.137 108.733 414.742 108.595 414.359 108.429H414.29C414.217 108.393 414.137 108.374 414.056 108.374C414.021 108.327 413.979 108.286 413.933 108.25C413.566 108.087 413.242 107.843 412.984 107.535C412.325 106.844 411.799 106.038 411.431 105.157C411.082 104.203 410.708 103.61 410.304 103.37C409.861 103.219 409.397 103.14 408.929 103.137C408.764 103.137 408.654 103.315 408.627 103.673V103.783C408.588 103.921 408.569 104.065 408.572 104.209C408.489 104.519 408.407 104.835 408.324 105.157C407.932 106.193 407.318 106.729 406.483 106.766C405.366 106.697 404.255 106.559 403.156 106.353L402.73 106.229C402.557 106.141 402.372 106.081 402.18 106.051C402.024 105.968 401.87 105.891 401.713 105.817H401.466C401.265 105.673 401.048 105.553 400.82 105.46C400.498 105.259 400.201 105.056 399.926 104.855C399.605 104.548 399.344 104.185 399.156 103.783V103.673C398.79 102.207 398.41 101.176 398.015 100.58V98.9032C399.768 98.5934 402.924 99.2303 407.486 100.814C408.358 101.288 409.55 101.485 411.06 101.405C411.102 101.402 411.142 101.382 411.17 101.35H411.225C413.057 101.267 414.89 101.267 416.723 101.35H416.833C419.738 101.432 422.001 101.712 423.623 102.188C424.016 102.263 424.434 102.32 424.874 102.367C425.069 102.403 425.267 102.421 425.465 102.422C425.561 102.383 425.664 102.365 425.767 102.367L425.822 102.601ZM422.551 103.068H422.427L422.372 103.013C420.468 102.416 417.554 102.058 413.63 101.941C412.201 101.824 411.559 102.08 411.706 102.711C412.303 104.82 412.917 106.273 413.548 107.068C413.666 107.186 413.768 107.282 413.85 107.357C413.99 107.538 414.175 107.68 414.386 107.769C414.532 107.862 414.696 107.923 414.867 107.948C415.261 108.136 415.684 108.257 416.118 108.305C417.502 108.587 419.504 108.766 422.125 108.841C423.197 108.724 423.77 108.408 423.843 107.893C423.932 107.241 423.974 106.584 423.967 105.927C423.976 104.424 423.504 103.471 422.551 103.068ZM406.785 101.762C406.722 101.757 406.661 101.738 406.606 101.707C405.259 100.835 403.491 100.221 401.301 99.8653C400.036 99.748 399.404 100.165 399.404 101.116V101.171C399.457 102.028 399.642 102.872 399.954 103.673C400.126 103.966 400.35 104.227 400.613 104.443C400.827 104.662 401.062 104.86 401.314 105.034C401.515 105.152 401.776 105.308 402.098 105.46C402.533 105.665 402.996 105.804 403.472 105.872C404.345 106.123 405.245 106.262 406.153 106.284H406.276C406.945 106.25 407.321 105.535 407.404 104.14V104.085C407.468 102.896 407.262 102.121 406.785 101.762Z" fill="#050304"/>
<path fill-rule="evenodd" clip-rule="evenodd" d="M426.413 102.12L426.482 102.367L425.822 102.601L425.767 102.367C425.664 102.365 425.561 102.383 425.465 102.422L425.41 102.367L426.413 102.12Z" fill="#1C1117"/>
<path fill-rule="evenodd" clip-rule="evenodd" d="M426.537 103.315L426.592 104.14L426.716 104.923L425.712 105.281L425.946 105.033L426.001 104.978L425.946 104.497H426.001V104.442L425.822 102.6L426.482 102.367L426.537 103.315Z" fill="#21141B"/>
<path fill-rule="evenodd" clip-rule="evenodd" d="M472.24 145.211C467.725 150.882 464.018 157.585 461.12 165.321C459.256 170.303 457.763 175.416 456.653 180.619C454.271 194.181 451.357 205.901 447.911 215.78L455.471 251.545C448.898 255.864 441.896 259.494 434.578 262.377L430.455 263.339C425.12 264.634 419.59 264.914 414.153 264.163L412.036 241.03C411.56 241.049 411.082 241.052 410.606 241.03L407.486 263.38C407.329 263.344 407.17 263.303 407.005 263.256C398.245 261.277 391.244 257.231 386.002 251.119C387.349 235.842 389.076 222.156 391.184 210.062C389.954 194.869 389.418 180.587 389.576 167.217C387.587 160.785 386.396 153.124 386.002 144.235L386.95 142.998H388.806L401.356 138.765C403.344 137.454 405.071 136.62 406.538 136.263L409.864 134.902C409.942 134.009 410.122 133.128 410.4 132.277C410.404 132.38 410.423 132.481 410.455 132.579C411.053 134.284 412.885 134.916 415.953 134.476L416.957 135.548L418.152 133.94C425.135 131.759 430.711 127.438 434.881 120.978L435.65 126.751L443.925 133.583L470.399 144.483H472.185L472.24 145.211Z" fill="#261A22"/>
<path fill-rule="evenodd" clip-rule="evenodd" d="M409.878 241.016L411.788 226.735C411.675 231.506 411.914 236.28 412.503 241.016C411.623 241.053 410.748 241.053 409.878 241.016Z" fill="#E6E2D5"/>
<path fill-rule="evenodd" clip-rule="evenodd" d="M409.878 241.016C407.254 240.859 404.696 240.127 402.387 238.872L411.788 226.735L418.812 239.587C416.779 240.348 414.652 240.829 412.489 241.016C411.901 236.28 411.662 231.506 411.775 226.735L409.878 241.016Z" fill="#D3CFC2"/>
<path fill-rule="evenodd" clip-rule="evenodd" d="M411.486 234.831V234.652C411.449 234.295 411.408 233.937 411.362 233.58C411.334 233.524 411.315 233.464 411.307 233.401C410.675 229.076 410.102 224.494 409.589 219.656C408.949 214.057 408.39 208.165 407.912 201.979L408.572 199.533C407.536 197.883 406.565 196.22 405.658 194.543C399.19 182.557 396.033 169.343 396.187 154.902C397.699 153.912 399.326 152.308 401.067 150.091C399.929 148.586 398.698 147.154 397.383 145.802L401.369 138.778C403.358 137.468 405.085 136.634 406.551 136.277L409.878 134.916C409.955 134.023 410.135 133.142 410.414 132.29C410.418 132.393 410.436 132.495 410.469 132.593C411.066 134.297 412.899 134.929 415.967 134.49L416.97 135.562L418.166 133.954C425.149 131.773 430.725 127.452 434.894 120.992L435.664 126.765L443.939 133.596L470.412 144.496H472.199L472.254 145.211C467.738 150.881 464.032 157.585 461.134 165.32C457.469 169.684 454.788 176.268 453.093 185.073C450.243 199.597 447.036 212.495 443.471 223.766L445.849 219.23L450.248 247.985C445.609 253.657 439.025 258.775 430.496 263.339C425.162 264.634 419.631 264.914 414.194 264.163L411.486 234.831Z" fill="#30212B"/>
<path fill-rule="evenodd" clip-rule="evenodd" d="M430.468 263.339C438.998 258.776 445.582 253.658 450.22 247.985L445.822 219.23L443.444 223.766C447.018 212.495 450.225 199.597 453.066 185.073C454.77 176.276 457.45 169.692 461.107 165.321C459.242 170.303 457.749 175.417 456.639 180.619C454.257 194.181 451.343 205.902 447.897 215.78L455.471 251.545C448.898 255.864 441.896 259.494 434.578 262.377L430.468 263.339Z" fill="#23181F"/>
<path fill-rule="evenodd" clip-rule="evenodd" d="M405.658 194.543L407.733 199.492L407.087 201.814C407.685 212.646 408.716 223.221 410.18 233.539L407.019 263.284C398.258 261.304 391.257 257.259 386.016 251.147C387.363 235.869 389.09 222.183 391.198 210.089C389.968 194.896 389.432 180.615 389.59 167.245C387.601 160.812 386.41 153.151 386.016 144.263L386.964 143.026H388.82L401.369 138.792L397.383 145.816C398.698 147.168 399.929 148.6 401.067 150.104C399.328 152.324 397.701 153.927 396.187 154.915C396.03 169.348 399.187 182.557 405.658 194.543Z" fill="#372732"/>
<path fill-rule="evenodd" clip-rule="evenodd" d="M407.019 263.27L410.18 233.525C408.714 223.209 407.683 212.634 407.087 201.801L407.733 199.478L405.658 194.53C406.574 196.199 407.546 197.863 408.572 199.519L407.912 201.966C408.389 208.151 408.948 214.044 409.589 219.643C410.104 224.481 410.677 229.063 411.307 233.388C411.315 233.45 411.334 233.511 411.362 233.567C411.41 233.924 411.451 234.281 411.486 234.639V234.817L407.5 263.38C407.343 263.358 407.184 263.317 407.019 263.27Z" fill="#2C1F27"/>
<path fill-rule="evenodd" clip-rule="evenodd" d="M411.307 207.34C411.761 207.32 412.206 207.467 412.558 207.753C412.729 207.898 412.865 208.08 412.958 208.284C413.05 208.488 413.097 208.71 413.094 208.935C413.094 209.152 413.046 209.368 412.953 209.565C412.86 209.762 412.726 209.936 412.558 210.076C412.391 210.233 412.194 210.355 411.98 210.435C411.765 210.515 411.536 210.552 411.307 210.543C410.847 210.548 410.401 210.382 410.056 210.076C409.906 209.926 409.788 209.748 409.707 209.552C409.627 209.356 409.587 209.146 409.589 208.935C409.585 208.717 409.624 208.5 409.704 208.297C409.785 208.094 409.904 207.909 410.056 207.753C410.415 207.478 410.856 207.332 411.307 207.34ZM410.482 209.649C410.728 209.872 411.045 209.999 411.376 210.007C411.53 210.006 411.683 209.974 411.825 209.913C411.967 209.851 412.094 209.762 412.201 209.649C412.318 209.573 412.413 209.466 412.476 209.34C412.539 209.215 412.567 209.075 412.558 208.935C412.561 208.788 412.531 208.642 412.469 208.508C412.407 208.375 412.315 208.257 412.201 208.165C411.966 207.981 411.674 207.884 411.376 207.89C411.057 207.889 410.745 207.985 410.482 208.165C410.293 208.375 410.194 208.652 410.208 208.935C410.194 209.066 410.21 209.198 410.255 209.322C410.301 209.446 410.374 209.558 410.469 209.649H410.482Z" fill="#140D12"/>
<path fill-rule="evenodd" clip-rule="evenodd" d="M410.469 209.649C410.371 209.559 410.296 209.448 410.248 209.324C410.2 209.2 410.182 209.067 410.194 208.935C410.18 208.652 410.279 208.375 410.469 208.165C410.732 207.985 411.043 207.889 411.362 207.89C411.661 207.884 411.952 207.981 412.187 208.165C412.301 208.257 412.393 208.375 412.455 208.508C412.517 208.642 412.548 208.787 412.544 208.935C412.554 209.075 412.525 209.215 412.462 209.34C412.4 209.466 412.305 209.573 412.187 209.649C412.081 209.762 411.953 209.851 411.811 209.912C411.669 209.974 411.517 210.006 411.362 210.007C411.031 209.999 410.714 209.872 410.469 209.649Z" fill="#23181F"/>
<path fill-rule="evenodd" clip-rule="evenodd" d="M409.878 220.192C409.876 219.979 409.917 219.768 410 219.572C410.083 219.376 410.205 219.199 410.359 219.051C410.735 218.77 411.195 218.625 411.665 218.639C412.116 218.631 412.557 218.776 412.915 219.051C413.085 219.189 413.223 219.363 413.318 219.56C413.413 219.758 413.463 219.973 413.465 220.192C413.462 220.409 413.412 220.623 413.317 220.817C413.221 221.012 413.084 221.184 412.915 221.319C412.575 221.634 412.128 221.806 411.665 221.801C411.184 221.813 410.717 221.641 410.359 221.319C410.206 221.175 410.084 221 410.001 220.806C409.919 220.612 409.876 220.403 409.878 220.192ZM411.665 219.175C411.358 219.171 411.06 219.278 410.826 219.478C410.715 219.56 410.624 219.668 410.562 219.792C410.5 219.916 410.468 220.053 410.469 220.192C410.466 220.339 410.496 220.485 410.558 220.619C410.62 220.752 410.712 220.87 410.826 220.962C410.934 221.076 411.064 221.166 411.208 221.228C411.352 221.289 411.508 221.321 411.665 221.319C411.82 221.326 411.975 221.297 412.118 221.235C412.261 221.173 412.388 221.08 412.489 220.962C412.604 220.87 412.696 220.752 412.757 220.619C412.819 220.485 412.85 220.339 412.847 220.192C412.848 220.053 412.816 219.916 412.754 219.792C412.691 219.668 412.601 219.56 412.489 219.478C412.379 219.375 412.249 219.295 412.107 219.243C411.966 219.191 411.815 219.168 411.665 219.175Z" fill="#140D12"/>
<path fill-rule="evenodd" clip-rule="evenodd" d="M411.665 219.175C411.815 219.168 411.966 219.191 412.107 219.243C412.249 219.295 412.379 219.375 412.489 219.477C412.601 219.56 412.692 219.668 412.754 219.792C412.816 219.916 412.848 220.053 412.847 220.192C412.85 220.339 412.819 220.485 412.757 220.619C412.696 220.752 412.604 220.869 412.489 220.962C412.388 221.08 412.261 221.173 412.118 221.235C411.975 221.297 411.82 221.325 411.665 221.319C411.508 221.32 411.352 221.289 411.208 221.228C411.064 221.166 410.934 221.076 410.826 220.962C410.712 220.869 410.62 220.752 410.558 220.619C410.496 220.485 410.466 220.339 410.469 220.192C410.468 220.053 410.5 219.916 410.562 219.792C410.624 219.668 410.715 219.56 410.826 219.477C411.06 219.278 411.358 219.17 411.665 219.175Z" fill="#23181F"/>
<path fill-rule="evenodd" clip-rule="evenodd" d="M415.472 230.185C415.471 230.402 415.421 230.616 415.326 230.811C415.231 231.007 415.093 231.178 414.922 231.312C414.759 231.475 414.563 231.603 414.348 231.685C414.132 231.768 413.902 231.805 413.671 231.793C413.208 231.799 412.761 231.626 412.421 231.312C412.253 231.176 412.119 231.004 412.026 230.809C411.933 230.614 411.885 230.401 411.885 230.185C411.885 229.969 411.933 229.756 412.026 229.561C412.119 229.366 412.253 229.194 412.421 229.058C412.779 228.783 413.22 228.637 413.671 228.646C414.125 228.622 414.571 228.769 414.922 229.058C415.093 229.192 415.231 229.363 415.326 229.559C415.421 229.754 415.471 229.968 415.472 230.185ZM413.754 231.312C413.909 231.312 414.061 231.28 414.203 231.219C414.345 231.157 414.473 231.067 414.579 230.955C414.695 230.864 414.788 230.747 414.85 230.613C414.912 230.479 414.941 230.332 414.936 230.185C414.935 230.046 414.902 229.91 414.84 229.786C414.778 229.662 414.689 229.554 414.579 229.47C414.349 229.273 414.056 229.165 413.754 229.168C413.429 229.157 413.112 229.265 412.86 229.47C412.75 229.554 412.661 229.662 412.599 229.786C412.537 229.91 412.504 230.046 412.503 230.185C412.498 230.332 412.527 230.479 412.589 230.613C412.652 230.747 412.744 230.864 412.86 230.955C412.977 231.072 413.116 231.165 413.27 231.226C413.424 231.288 413.588 231.317 413.754 231.312Z" fill="#140D12"/>
<path fill-rule="evenodd" clip-rule="evenodd" d="M413.754 231.312C413.588 231.317 413.424 231.287 413.27 231.226C413.116 231.164 412.977 231.072 412.86 230.955C412.744 230.864 412.651 230.746 412.589 230.613C412.527 230.479 412.498 230.332 412.503 230.185C412.504 230.046 412.537 229.91 412.599 229.786C412.661 229.662 412.75 229.554 412.86 229.47C413.112 229.264 413.429 229.157 413.754 229.168C414.056 229.165 414.349 229.273 414.579 229.47C414.689 229.554 414.778 229.662 414.84 229.786C414.902 229.91 414.935 230.046 414.936 230.185C414.941 230.332 414.912 230.479 414.85 230.613C414.788 230.746 414.695 230.864 414.579 230.955C414.473 231.067 414.345 231.157 414.203 231.219C414.061 231.28 413.908 231.312 413.754 231.312Z" fill="#23181F"/>
<path fill-rule="evenodd" clip-rule="evenodd" d="M409.52 198.475C412.733 194.52 415.602 190.299 418.097 185.856C425.978 171.928 431.967 153.894 436.063 131.755C436.503 130.325 436.365 128.662 435.65 126.765L443.925 133.597L444.035 135.92L444.571 144.785C442.378 146.662 439.936 148.226 437.313 149.431L442.853 154.008C431.857 178.805 420.21 194.796 407.912 201.98L408.572 199.533L409.52 198.475Z" fill="#372732"/>
<path fill-rule="evenodd" clip-rule="evenodd" d="M435.65 126.765C436.365 128.662 436.503 130.325 436.063 131.755C431.974 153.892 425.985 171.926 418.097 185.856C417.1 171.176 417.1 157.307 418.097 144.249L420.173 140.689L424.64 144.73C429.717 140.847 433.208 135.949 435.114 130.037L435.829 128.305L435.65 126.765ZM409.878 134.916C409.613 137.36 409.752 139.83 410.29 142.229L412.022 140.744L413.328 144.249C410.194 153.651 407.536 165.99 405.355 181.266C404.454 175.613 403.88 169.913 403.637 164.194C404.737 155.149 406.281 145.784 408.27 136.098L409.878 134.916Z" fill="#F4F0E3"/>
<path fill-rule="evenodd" clip-rule="evenodd" d="M412.434 139.369C411.663 140.278 410.947 141.233 410.29 142.228C409.752 139.83 409.613 137.359 409.878 134.916C409.955 134.023 410.135 133.142 410.414 132.29C410.418 132.393 410.436 132.495 410.469 132.593C411.066 134.297 412.899 134.929 415.967 134.49L416.97 135.562L418.166 133.954C425.149 131.773 430.725 127.452 434.894 120.992L435.664 126.765L435.843 128.304L435.128 130.036C432.15 136.817 428.617 141.477 424.53 144.015L420.063 139.012L416.957 135.562C415.454 136.359 413.946 137.628 412.434 139.369Z" fill="#E6E2D5"/>
<path fill-rule="evenodd" clip-rule="evenodd" d="M407.912 201.98C420.21 194.797 431.857 178.807 442.853 154.008L437.327 149.431C439.95 148.226 442.392 146.662 444.585 144.785L444.049 135.919L445.121 145.088C443.321 147.014 441.133 148.536 438.702 149.555L443.994 153.72C434.656 176.051 423.188 192.395 409.589 202.749C408.949 207.35 408.949 212.985 409.589 219.656C408.949 214.057 408.39 208.165 407.912 201.98Z" fill="#21161D"/>
<path fill-rule="evenodd" clip-rule="evenodd" d="M397.383 145.802C398.884 147.073 400.277 148.466 401.548 149.967C400.001 152.542 398.375 154.283 396.668 155.19C396.636 159.822 396.857 164.452 397.328 169.059C398.428 178.139 402.176 188.292 408.572 199.519C400.16 186.234 396.032 171.357 396.187 154.888C397.699 153.898 399.326 152.295 401.067 150.077C399.928 148.578 398.698 147.15 397.383 145.802Z" fill="#281D25"/>
<path fill-rule="evenodd" clip-rule="evenodd" d="M408.27 136.098C406.208 144.189 404.425 153.651 402.923 164.482C402.979 170.889 403.692 177.273 405.053 183.533C406.174 188.616 407.667 193.61 409.52 198.474L408.572 199.533C402.185 188.309 398.437 178.156 397.328 169.073C396.857 164.466 396.636 159.836 396.668 155.204C398.373 154.288 399.999 152.547 401.548 149.981C400.277 148.48 398.884 147.087 397.383 145.816L401.369 138.792C403.358 137.482 405.085 136.648 406.551 136.29L409.878 134.93L408.27 136.098Z" fill="#3E2D39"/>
<path fill-rule="evenodd" clip-rule="evenodd" d="M420.049 139.012L417.438 143.892C417.136 143.723 416.818 143.585 416.489 143.479L418.331 138.833L416.957 135.562L420.049 139.012ZM418.097 185.856C415.602 190.299 412.733 194.52 409.52 198.475L406.606 183.588C408.118 166.929 410.959 153.72 415.128 143.96C415.934 143.998 416.715 144.244 417.396 144.675C416.269 161.417 416.503 175.144 418.097 185.856Z" fill="#40345B"/>
<path fill-rule="evenodd" clip-rule="evenodd" d="M416.489 143.479C415.259 143.047 414.251 143.184 413.465 143.892L412.448 139.369C413.96 137.63 415.467 136.361 416.97 135.562L418.345 138.833L416.489 143.479ZM415.115 143.96C410.954 153.72 408.114 166.929 406.593 183.588L409.507 198.475C407.653 193.61 406.16 188.617 405.039 183.533C405.122 182.782 405.223 182.026 405.342 181.265C407.523 165.988 410.18 153.649 413.314 144.249C413.361 144.131 413.402 144.01 413.438 143.892C413.998 143.853 414.56 143.876 415.115 143.96Z" fill="#483B65"/>
<path fill-rule="evenodd" clip-rule="evenodd" d="M410.29 142.229C410.947 141.233 411.663 140.279 412.434 139.37L413.452 143.892C413.416 144.01 413.375 144.131 413.328 144.249L412.036 140.744L410.29 142.229Z" fill="#C9C5B8"/>
<path fill-rule="evenodd" clip-rule="evenodd" d="M417.383 144.675C416.701 144.244 415.92 143.998 415.115 143.96C414.569 143.878 414.016 143.854 413.465 143.891C414.262 143.184 415.27 143.047 416.489 143.479C416.818 143.585 417.136 143.723 417.438 143.891C417.4 144.151 417.382 144.413 417.383 144.675Z" fill="#302744"/>
<path fill-rule="evenodd" clip-rule="evenodd" d="M420.049 139.012L424.517 144.029C428.603 141.491 432.136 136.831 435.114 130.05C433.208 135.961 429.717 140.859 424.64 144.744L420.173 140.703L418.097 144.263C417.1 157.321 417.1 171.19 418.097 185.87C416.503 175.156 416.265 161.429 417.383 144.689C417.382 144.427 417.4 144.165 417.438 143.906L420.049 139.012ZM405.053 183.547C403.692 177.287 402.979 170.903 402.923 164.496C404.425 153.665 406.208 144.203 408.27 136.112C406.29 145.798 404.746 155.163 403.637 164.208C403.88 169.926 404.454 175.627 405.355 181.279C405.236 182.033 405.136 182.784 405.053 183.534V183.547Z" fill="#C5C2B6"/>
</g>
<path fill-rule="evenodd" clip-rule="evenodd" d="M64.93 7.12C66.6075 7.99733 68.1611 9.09359 69.55 10.38L74.49 8.62L79.12 15.94L75.43 19.65C76.0053 21.455 76.3415 23.3276 76.43 25.22L81.16 27.46L79.26 35.92H74.03C73.1527 37.5975 72.0564 39.1511 70.77 40.54L72.53 45.47L65.21 50.11L61.5 46.42C59.6962 47.0002 57.8229 47.3365 55.93 47.42L53.68 52.15L45.23 50.26V45.02C43.5507 44.1497 41.9966 43.0564 40.61 41.77L35.67 43.53L31.04 36.21L34.73 32.49C34.1539 30.6886 33.8177 28.8192 33.73 26.93L29 24.68L30.9 16.23H36.14C37.0103 14.5507 38.1036 12.9966 39.39 11.61L37.63 6.67L44.95 2.03L48.67 5.73C50.4714 5.15391 52.3408 4.81768 54.23 4.73L56.48 0L64.93 1.89999V7.13V7.12ZM57.48 17.06C55.6857 16.6498 53.81 16.7812 52.0904 17.4377C50.3709 18.0942 48.8847 19.2462 47.8203 20.7478C46.7558 22.2494 46.1609 24.0331 46.1108 25.873C46.0608 27.713 46.5578 29.5264 47.539 31.0837C48.5202 32.641 49.9414 33.8721 51.6227 34.6212C53.304 35.3702 55.1698 35.6035 56.9838 35.2915C58.7978 34.9795 60.4784 34.1363 61.8128 32.8686C63.1472 31.6008 64.0755 29.9656 64.48 28.17C65.0182 25.769 64.584 23.2525 63.2723 21.1707C61.9606 19.0888 59.8781 17.6109 57.48 17.06Z" stroke="#EC4E70" stroke-miterlimit="10"/>
</g>
<defs>
<clipPath id="clip0_1_6353">
<rect width="494" height="461" fill="white"/>
</clipPath>
<clipPath id="clip1_1_6353">
<rect width="150.539" height="390" fill="white" transform="translate(329 71)"/>
</clipPath>
</defs>
</svg>
