<svg width="16" height="16" viewBox="0 0 16 16" fill="none" xmlns="http://www.w3.org/2000/svg">
<path d="M14.4312 10.175C14.4971 10.2895 14.515 10.4254 14.4811 10.553C14.4471 10.6807 14.364 10.7897 14.25 10.8563C14.1746 10.9019 14.0881 10.9258 14 10.925C13.9114 10.9258 13.8243 10.9031 13.7474 10.8592C13.6706 10.8153 13.6067 10.7517 13.5625 10.675L12.4125 8.68754C11.7377 9.14144 10.9951 9.48531 10.2125 9.70629L10.575 11.7625C10.5969 11.8933 10.5666 12.0275 10.4906 12.1362C10.4147 12.2449 10.2991 12.3194 10.1687 12.3438H10.0812C9.96354 12.3441 9.8495 12.303 9.75919 12.2275C9.66887 12.1521 9.60807 12.0472 9.58747 11.9313L9.23122 9.90629C8.82359 9.96707 8.41211 9.9984 7.99997 10C7.58592 10.0002 7.17238 9.97099 6.76247 9.91254L6.40622 11.9375C6.38563 12.0534 6.32482 12.1583 6.23451 12.2338C6.14419 12.3092 6.03016 12.3504 5.91247 12.35H5.82497C5.69462 12.3257 5.57904 12.2511 5.50307 12.1424C5.4271 12.0337 5.39682 11.8996 5.41872 11.7688L5.78747 9.70629C5.00236 9.48673 4.2575 9.14279 3.58122 8.68754L2.42497 10.6875C2.38031 10.7625 2.31726 10.8248 2.24179 10.8685C2.16632 10.9123 2.08094 10.936 1.99372 10.9375C1.9061 10.9372 1.8201 10.9139 1.74434 10.8699C1.66858 10.8259 1.60571 10.7627 1.56203 10.6868C1.51835 10.6108 1.49541 10.5247 1.49548 10.4371C1.49556 10.3495 1.51866 10.2634 1.56247 10.1875L2.78122 8.07504C2.35534 7.70979 1.96409 7.306 1.61247 6.86879C1.57092 6.81813 1.53987 6.7597 1.52112 6.69691C1.50238 6.63412 1.49632 6.56823 1.5033 6.50308C1.51028 6.43792 1.53016 6.37481 1.56178 6.31742C1.5934 6.26003 1.63613 6.2095 1.68747 6.16879C1.73775 6.12689 1.79585 6.0954 1.85841 6.07615C1.92097 6.0569 1.98672 6.05029 2.05186 6.05669C2.11699 6.06308 2.18021 6.08237 2.23783 6.11341C2.29544 6.14446 2.34631 6.18666 2.38747 6.23754C2.7787 6.7253 3.22547 7.16577 3.71872 7.55004H3.72497C4.94544 8.50208 6.45215 9.01313 7.99997 9.00004C9.83122 9.00004 11.2375 8.35629 12.2687 7.55629H12.2812C12.7745 7.17202 13.2212 6.73155 13.6125 6.24379C13.6532 6.19245 13.7037 6.14972 13.7611 6.1181C13.8185 6.08648 13.8816 6.0666 13.9468 6.05962C14.0119 6.05264 14.0778 6.0587 14.1406 6.07744C14.2034 6.09618 14.2618 6.12724 14.3125 6.16879C14.3638 6.2095 14.4065 6.26003 14.4382 6.31742C14.4698 6.37481 14.4897 6.43792 14.4966 6.50308C14.5036 6.56823 14.4976 6.63412 14.4788 6.69691C14.4601 6.7597 14.429 6.81813 14.3875 6.86879C14.0359 7.306 13.6446 7.70979 13.2187 8.07504L14.4312 10.175Z" fill="#9198A7"/>
</svg>
