<svg width="16" height="16" viewBox="0 0 16 16" fill="none" xmlns="http://www.w3.org/2000/svg">
<path d="M15.4563 7.8C15.4375 7.75 14.9063 6.575 13.7313 5.39375C12.1625 3.83125 10.1813 3 8.00004 3C5.81879 3 3.83754 3.83125 2.26878 5.39375C1.09378 6.575 0.562535 7.75 0.543785 7.8C0.51588 7.86298 0.501465 7.93111 0.501465 8C0.501465 8.06889 0.51588 8.13702 0.543785 8.2C0.562535 8.25 1.09378 9.425 2.26878 10.6062C3.83754 12.1687 5.81879 13 8.00004 13C10.1813 13 12.1625 12.1687 13.7313 10.6062C14.9063 9.425 15.4375 8.25 15.4563 8.2C15.4842 8.13702 15.4986 8.06889 15.4986 8C15.4986 7.93111 15.4842 7.86298 15.4563 7.8ZM8.00004 12C6.07504 12 4.39379 11.3 3.00628 9.91875C2.43287 9.35402 1.94633 8.70741 1.56253 8C1.94581 7.29038 2.43237 6.64164 3.00628 6.075C4.39379 4.7 6.07504 4 8.00004 4C9.92504 4 11.6063 4.7 12.9938 6.075C13.5677 6.64164 14.0543 7.29038 14.4375 8C13.9875 8.84375 12.025 12 8.00004 12ZM8.00004 5C7.40669 5 6.82667 5.17595 6.33332 5.50559C5.83998 5.83524 5.45546 6.30377 5.2284 6.85195C5.00133 7.40013 4.94192 8.00333 5.05768 8.58527C5.17344 9.16721 5.45916 9.70176 5.87872 10.1213C6.29827 10.5409 6.83282 10.8266 7.41476 10.9424C7.99671 11.0581 8.59991 10.9987 9.14809 10.7716C9.69626 10.5446 10.1648 10.1601 10.4944 9.66671C10.8241 9.17336 11 8.59334 11 8C11 7.20435 10.684 6.44129 10.1214 5.87868C9.55875 5.31607 8.79568 5 8.00004 5ZM8.00004 10C7.60447 10 7.21779 9.8827 6.8889 9.66294C6.56 9.44318 6.30365 9.13082 6.15228 8.76537C6.0009 8.39991 5.96129 7.99778 6.03846 7.60982C6.11564 7.22186 6.30612 6.86549 6.58582 6.58579C6.86553 6.30608 7.22189 6.1156 7.60986 6.03843C7.99782 5.96126 8.39995 6.00087 8.7654 6.15224C9.13086 6.30362 9.44321 6.55996 9.66297 6.88886C9.88274 7.21776 10 7.60444 10 8C9.99839 8.52993 9.78714 9.03768 9.41243 9.41239C9.03771 9.78711 8.52996 9.99835 8.00004 10Z" fill="#9198A7"/>
</svg>
