<svg width="32" height="32" viewBox="0 0 32 32" fill="none" xmlns="http://www.w3.org/2000/svg">
<g id="Dashboard/Default" opacity="0.8">
<path id="Shape" d="M17.7998 18.2998C17.7998 18.2086 17.8397 18.0973 17.9604 17.9917C18.0831 17.8844 18.2758 17.7998 18.5141 17.7998H27.0855C27.3238 17.7998 27.5165 17.8844 27.6392 17.9917C27.7599 18.0973 27.7998 18.2086 27.7998 18.2998V27.2998C27.7998 27.3911 27.7599 27.5023 27.6392 27.6079C27.5165 27.7152 27.3238 27.7998 27.0855 27.7998H18.5141C18.2758 27.7998 18.0831 27.7152 17.9604 27.6079C17.8397 27.5023 17.7998 27.3911 17.7998 27.2998V18.2998Z" stroke="#F13E7F" stroke-width="2"/>
<path id="Shape_2" d="M17.7998 4.91448C17.7998 4.51999 18.1196 4.2002 18.5141 4.2002H27.0855C27.48 4.2002 27.7998 4.51999 27.7998 4.91448V13.4859C27.7998 13.8804 27.48 14.2002 27.0855 14.2002H18.5141C18.1196 14.2002 17.7998 13.8804 17.7998 13.4859V4.91448Z" stroke="#FC88B2" stroke-width="2"/>
<path id="Shape_3" d="M4.2002 13.7002C4.2002 13.7914 4.24012 13.9027 4.3608 14.0083C4.48346 14.1156 4.67622 14.2002 4.91448 14.2002H13.4859C13.7242 14.2002 13.9169 14.1156 14.0396 14.0083C14.1603 13.9027 14.2002 13.7914 14.2002 13.7002V4.7002C14.2002 4.60895 14.1603 4.49771 14.0396 4.39211C13.9169 4.28479 13.7242 4.2002 13.4859 4.2002H4.91448C4.67622 4.2002 4.48346 4.28479 4.3608 4.39211C4.24012 4.49771 4.2002 4.60895 4.2002 4.7002V13.7002Z" stroke="#F13E7F" stroke-width="2"/>
<path id="Shape_4" d="M4.2002 27.0855C4.2002 27.48 4.51999 27.7998 4.91448 27.7998H13.4859C13.8804 27.7998 14.2002 27.48 14.2002 27.0855V18.5141C14.2002 18.1196 13.8804 17.7998 13.4859 17.7998H4.91448C4.51999 17.7998 4.2002 18.1196 4.2002 18.5141V27.0855Z" stroke="#FC88B2" stroke-width="2"/>
</g>
</svg>
