<svg width="32" height="32" viewBox="0 0 32 32" fill="none" xmlns="http://www.w3.org/2000/svg">
<g id="Frame">
<path id="Vector" d="M28.7071 9.70757L12.7071 25.7076C12.6142 25.8005 12.5039 25.8743 12.3825 25.9246C12.2611 25.975 12.131 26.0009 11.9996 26.0009C11.8682 26.0009 11.738 25.975 11.6166 25.9246C11.4952 25.8743 11.385 25.8005 11.2921 25.7076L4.29208 18.7076C4.10444 18.5199 3.99902 18.2654 3.99902 18.0001C3.99902 17.7347 4.10444 17.4802 4.29208 17.2926C4.47972 17.1049 4.73422 16.9995 4.99958 16.9995C5.26494 16.9995 5.51944 17.1049 5.70708 17.2926L11.9996 23.5863L27.2921 8.29257C27.4797 8.10493 27.7342 7.99951 27.9996 7.99951C28.2649 7.99951 28.5194 8.10493 28.7071 8.29257C28.8947 8.48021 29.0001 8.7347 29.0001 9.00007C29.0001 9.26543 28.8947 9.51993 28.7071 9.70757Z" fill="#DF2D53"/>
</g>
</svg>
