<svg width="64" height="64" viewBox="0 0 64 64" fill="none" xmlns="http://www.w3.org/2000/svg">
<g id="Instagram">
<rect x="0.5" y="0.5" width="63" height="63" rx="31.5" fill="white"/>
<path id="Subtract" d="M26.3773 32.1943C26.3773 28.9774 28.986 26.3689 32.2047 26.3689C35.4235 26.3689 38.0336 28.9774 38.0336 32.1943C38.0336 35.4111 35.4235 38.0196 32.2047 38.0196C28.986 38.0196 26.3773 35.4111 26.3773 32.1943ZM23.2264 32.1943C23.2264 37.15 27.246 41.1672 32.2047 41.1672C37.1635 41.1672 41.1831 37.15 41.1831 32.1943C41.1831 27.2385 37.1635 23.2213 32.2047 23.2213C27.246 23.2213 23.2264 27.2385 23.2264 32.1943ZM39.4403 22.8655C39.4402 23.2803 39.5631 23.6857 39.7935 24.0307C40.0239 24.3756 40.3515 24.6445 40.7348 24.8034C41.1181 24.9622 41.54 25.0039 41.947 24.9232C42.3541 24.8424 42.728 24.6429 43.0216 24.3497C43.3151 24.0566 43.5151 23.683 43.5963 23.2763C43.6774 22.8695 43.636 22.4479 43.4773 22.0647C43.3187 21.6814 43.0499 21.3538 42.7049 21.1233C42.36 20.8927 41.9544 20.7696 41.5394 20.7694H41.5385C40.9823 20.7697 40.4489 20.9906 40.0555 21.3836C39.6621 21.7766 39.4408 22.3096 39.4403 22.8655ZM25.1408 46.4181C23.4361 46.3405 22.5095 46.0567 21.8938 45.817C21.0774 45.4994 20.495 45.1211 19.8826 44.5099C19.2702 43.8987 18.8911 43.3172 18.5747 42.5013C18.3346 41.8862 18.0507 40.9599 17.9732 39.2562C17.8884 37.4143 17.8715 36.8609 17.8715 32.1944C17.8715 27.5279 17.8898 26.9761 17.9732 25.1326C18.0508 23.4289 18.3369 22.5044 18.5747 21.8875C18.8925 21.0716 19.271 20.4895 19.8826 19.8775C20.4941 19.2655 21.076 18.8866 21.8938 18.5704C22.5092 18.3305 23.4361 18.0467 25.1408 17.9693C26.9839 17.8846 27.5375 17.8677 32.2047 17.8677C36.872 17.8677 37.4262 17.886 39.2708 17.9693C40.9755 18.0469 41.9005 18.3328 42.5178 18.5704C43.3342 18.8866 43.9166 19.2663 44.529 19.8775C45.1414 20.4887 45.5191 21.0716 45.8369 21.8875C46.0769 22.5026 46.3609 23.4289 46.4384 25.1326C46.5232 26.9761 46.5401 27.5279 46.5401 32.1944C46.5401 36.8609 46.5232 37.4127 46.4384 39.2562C46.3608 40.9599 46.0754 41.8859 45.8369 42.5013C45.5191 43.3172 45.1406 43.8993 44.529 44.5099C43.9175 45.1205 43.3342 45.4994 42.5178 45.817C41.9024 46.0569 40.9755 46.3407 39.2708 46.4181C37.4277 46.5028 36.8741 46.5197 32.2047 46.5197C27.5354 46.5197 26.9833 46.5028 25.1408 46.4181ZM24.996 14.8256C23.1346 14.9103 21.8627 15.2052 20.7519 15.6372C19.6015 16.0833 18.6277 16.6818 17.6546 17.6528C16.6814 18.6238 16.0841 19.5986 15.6378 20.7483C15.2055 21.8591 14.9104 23.1296 14.8256 24.9899C14.7394 26.8531 14.7197 27.4487 14.7197 32.1943C14.7197 36.9398 14.7394 37.5355 14.8256 39.3987C14.9104 41.2591 15.2055 42.5294 15.6378 43.6402C16.0841 44.7892 16.6815 45.7651 17.6546 46.7357C18.6276 47.7063 19.6015 48.304 20.7519 48.7513C21.8648 49.1833 23.1346 49.4783 24.996 49.563C26.8613 49.6477 27.4564 49.6688 32.2047 49.6688C36.9531 49.6688 37.5491 49.6491 39.4135 49.563C41.275 49.4783 42.5461 49.1833 43.6576 48.7513C44.8073 48.304 45.7818 47.7068 46.7549 46.7357C47.7281 45.7647 48.3241 44.7892 48.7717 43.6402C49.204 42.5294 49.5005 41.2589 49.5839 39.3987C49.6686 37.5341 49.6884 36.9398 49.6884 32.1943C49.6884 27.4487 49.6686 26.8531 49.5839 24.9899C49.4991 23.1295 49.204 21.8584 48.7717 20.7483C48.3241 19.5993 47.7265 18.6254 46.7549 17.6528C45.7833 16.6802 44.8073 16.0833 43.659 15.6372C42.5461 15.2052 41.2749 14.9089 39.4149 14.8256C37.5505 14.7408 36.9545 14.7197 32.2061 14.7197C27.4578 14.7197 26.8613 14.7394 24.996 14.8256Z" fill="url(#paint0_linear_94_23165)"/>
<rect x="0.5" y="0.5" width="63" height="63" rx="31.5" stroke="#F2F1F0"/>
</g>
<defs>
<linearGradient id="paint0_linear_94_23165" x1="49.0163" y1="49.6688" x2="14.0672" y2="14.7002" gradientUnits="userSpaceOnUse">
<stop stop-color="#FBE18A"/>
<stop offset="0.21" stop-color="#FCBB45"/>
<stop offset="0.38" stop-color="#F75274"/>
<stop offset="0.52" stop-color="#D53692"/>
<stop offset="0.74" stop-color="#8F39CE"/>
<stop offset="1" stop-color="#5B4FE9"/>
</linearGradient>
</defs>
</svg>
