<svg width="64" height="24" viewBox="0 0 64 24" fill="none" xmlns="http://www.w3.org/2000/svg">
<g id="Linkedin">
<g clip-path="url(#clip0_94_23180)">
<rect width="64" height="64" rx="32" fill="white"/>
<path id="Subtract" d="M0 0H100V100H0V0Z" fill="white"/>
<path id="Vector" fill-rule="evenodd" clip-rule="evenodd" d="M17.3052 14.7197C15.8783 14.7197 14.7207 15.842 14.7207 17.2247V47.1856C14.7207 48.5684 15.8784 49.6898 17.3052 49.6898H47.1062C48.5337 49.6898 49.6907 48.5683 49.6907 47.1852V17.2247C49.6907 15.842 48.5337 14.7197 47.1062 14.7197H17.3052ZM25.3475 28.2415V43.9851H20.1145V28.2415H25.3475ZM25.6924 23.3726C25.6924 24.8834 24.5566 26.0924 22.7321 26.0924L22.6978 26.0922C20.9415 26.0922 19.8061 24.8833 19.8061 23.3725C19.8061 21.8274 20.9758 20.6522 22.7668 20.6522C24.5566 20.6522 25.6582 21.8274 25.6924 23.3726ZM33.4765 43.9851H28.244C28.244 43.9851 28.3126 29.719 28.2443 28.2421H33.4769V30.4705C34.1725 29.398 35.4174 27.8724 38.1931 27.8724C41.6359 27.8724 44.2171 30.1226 44.2171 34.9582V43.9851H38.9847V35.5636C38.9847 33.447 38.227 32.0034 36.3339 32.0034C34.888 32.0034 34.027 32.9769 33.6489 33.9174C33.5107 34.2531 33.4765 34.7242 33.4765 35.1941V43.9851Z" fill="#006699"/>
</g>
<rect x="0.5" y="0.5" width="63" height="63" rx="31.5" stroke="#F2F1F0"/>
</g>
<defs>
<clipPath id="clip0_94_23180">
<rect width="64" height="64" rx="32" fill="white"/>
</clipPath>
</defs>
</svg>
