<svg width="44" height="44" viewBox="0 0 44 44" fill="none" xmlns="http://www.w3.org/2000/svg">
<g id="svg-gobbler (12) 1" clip-path="url(#clip0_94_23189)">
<g id="Group">
<g id="Group 2547">
<path id="Vector" d="M11.1119 15.8745H10.0285C4.48997 15.8745 0 20.3645 0 25.9031C0 31.4416 4.48997 35.9316 10.0285 35.9316H11.1119C11.6951 35.9316 12.2657 35.879 12.8217 35.7835L15.8501 37.2878C16.603 37.6619 17.4696 37.0484 17.367 36.2139L17.0893 33.9555C19.5474 32.1278 21.1404 29.2016 21.1404 25.9031C21.1404 20.3645 16.6504 15.8745 11.1119 15.8745Z" fill="url(#paint0_linear_94_23189)"/>
<path id="Vector_2" d="M5.35988 27.5674C6.34931 27.5674 7.15141 26.7653 7.15141 25.7759C7.15141 24.7865 6.34931 23.9844 5.35988 23.9844C4.37045 23.9844 3.56836 24.7865 3.56836 25.7759C3.56836 26.7653 4.37045 27.5674 5.35988 27.5674Z" fill="url(#paint1_linear_94_23189)"/>
<path id="Vector_3" d="M10.5698 27.5674C11.5593 27.5674 12.3614 26.7653 12.3614 25.7759C12.3614 24.7865 11.5593 23.9844 10.5698 23.9844C9.58041 23.9844 8.77832 24.7865 8.77832 25.7759C8.77832 26.7653 9.58041 27.5674 10.5698 27.5674Z" fill="url(#paint2_linear_94_23189)"/>
<path id="Vector_4" d="M15.7827 27.5674C16.7722 27.5674 17.5743 26.7653 17.5743 25.7759C17.5743 24.7865 16.7722 23.9844 15.7827 23.9844C14.7933 23.9844 13.9912 24.7865 13.9912 25.7759C13.9912 26.7653 14.7933 27.5674 15.7827 27.5674Z" fill="url(#paint3_linear_94_23189)"/>
</g>
<g id="Group 2548">
<path id="Vector_5" d="M30.7718 2.33203H32.0613C38.6544 2.33203 43.9992 7.67682 43.9992 14.2699C43.9992 20.863 38.6544 26.2077 32.0614 26.2077H30.7719C30.0776 26.2077 29.3984 26.1451 28.7366 26.0314L25.1316 27.8221C24.2354 28.2673 23.2038 27.537 23.3259 26.5437L23.6564 23.8554C20.7302 21.6797 18.834 18.1964 18.834 14.2698C18.834 7.67682 24.1787 2.33203 30.7718 2.33203Z" fill="url(#paint4_linear_94_23189)"/>
<path id="Vector_6" d="M18.916 15.6611C19.3053 19.0124 21.0821 21.9402 23.6574 23.8551L23.3269 26.5434C23.2047 27.5366 24.2364 28.267 25.1326 27.8218L28.7376 26.0311C29.3994 26.1448 30.0786 26.2074 30.7729 26.2074H32.0624C38.1847 26.2074 43.2296 21.5985 43.9191 15.6611H18.916Z" fill="url(#paint5_linear_94_23189)"/>
<g id="Group 2551">
<path id="Vector_7" d="M26.2915 16.583C27.281 16.583 28.083 15.781 28.083 14.7915C28.083 13.8021 27.281 13 26.2915 13C25.3021 13 24.5 13.8021 24.5 14.7915C24.5 15.781 25.3021 16.583 26.2915 16.583Z" fill="url(#paint6_linear_94_23189)"/>
<path id="Vector_8" d="M31.5015 16.583C32.4909 16.583 33.293 15.781 33.293 14.7915C33.293 13.8021 32.4909 13 31.5015 13C30.5121 13 29.71 13.8021 29.71 14.7915C29.71 15.781 30.5121 16.583 31.5015 16.583Z" fill="url(#paint7_linear_94_23189)"/>
<path id="Vector_9" d="M36.7144 16.583C37.7038 16.583 38.5059 15.781 38.5059 14.7915C38.5059 13.8021 37.7038 13 36.7144 13C35.7249 13 34.9229 13.8021 34.9229 14.7915C34.9229 15.781 35.7249 16.583 36.7144 16.583Z" fill="url(#paint8_linear_94_23189)"/>
</g>
</g>
</g>
</g>
<defs>
<linearGradient id="paint0_linear_94_23189" x1="4.95812" y1="20.291" x2="18.4939" y2="33.8267" gradientUnits="userSpaceOnUse">
<stop stop-color="#FEAEE1"/>
<stop offset="1" stop-color="#FE2AA8"/>
</linearGradient>
<linearGradient id="paint1_linear_94_23189" x1="4.70844" y1="25.1245" x2="7.111" y2="27.5271" gradientUnits="userSpaceOnUse">
<stop stop-color="#EAF6FF"/>
<stop offset="1" stop-color="#B3DAFE"/>
</linearGradient>
<linearGradient id="paint2_linear_94_23189" x1="9.9184" y1="25.1245" x2="12.3211" y2="27.5271" gradientUnits="userSpaceOnUse">
<stop stop-color="#EAF6FF"/>
<stop offset="1" stop-color="#B3DAFE"/>
</linearGradient>
<linearGradient id="paint3_linear_94_23189" x1="15.1313" y1="25.1245" x2="17.5339" y2="27.5271" gradientUnits="userSpaceOnUse">
<stop stop-color="#EAF6FF"/>
<stop offset="1" stop-color="#B3DAFE"/>
</linearGradient>
<linearGradient id="paint4_linear_94_23189" x1="23.3756" y1="7.9894" x2="43.1518" y2="27.7656" gradientUnits="userSpaceOnUse">
<stop stop-color="#5C9CFC"/>
<stop offset="0.159" stop-color="#5A9AF9"/>
<stop offset="0.365" stop-color="#5392F0"/>
<stop offset="0.598" stop-color="#4886E2"/>
<stop offset="0.847" stop-color="#3874CF"/>
<stop offset="1" stop-color="#2D68C1"/>
</linearGradient>
<linearGradient id="paint5_linear_94_23189" x1="31.4175" y1="17.1614" x2="31.4175" y2="30.9867" gradientUnits="userSpaceOnUse">
<stop stop-color="#5CC12D" stop-opacity="0"/>
<stop offset="0.0001" stop-color="#2D68C1" stop-opacity="0"/>
<stop offset="0.607" stop-color="#2D5694" stop-opacity="0.607"/>
<stop offset="1" stop-color="#2D4D7C"/>
</linearGradient>
<linearGradient id="paint6_linear_94_23189" x1="25.6401" y1="14.1401" x2="28.0426" y2="16.5427" gradientUnits="userSpaceOnUse">
<stop stop-color="#EAF6FF"/>
<stop offset="1" stop-color="#B3DAFE"/>
</linearGradient>
<linearGradient id="paint7_linear_94_23189" x1="30.85" y1="14.1401" x2="33.2527" y2="16.5427" gradientUnits="userSpaceOnUse">
<stop stop-color="#EAF6FF"/>
<stop offset="1" stop-color="#B3DAFE"/>
</linearGradient>
<linearGradient id="paint8_linear_94_23189" x1="36.0629" y1="14.1401" x2="38.4655" y2="16.5427" gradientUnits="userSpaceOnUse">
<stop stop-color="#EAF6FF"/>
<stop offset="1" stop-color="#B3DAFE"/>
</linearGradient>
<clipPath id="clip0_94_23189">
<rect width="44" height="44" fill="white"/>
</clipPath>
</defs>
</svg>
