<svg width="64" height="64" viewBox="0 0 64 64" fill="none" xmlns="http://www.w3.org/2000/svg">
<g id="TikTok">
<rect x="0.5" y="0.5" width="63" height="63" rx="31.5" fill="white"/>
<g id="Vector">
<path fill-rule="evenodd" clip-rule="evenodd" d="M38.4241 27.8746C40.3867 29.2699 42.7371 30.0153 45.1451 30.0063V25.234C44.6717 25.2353 44.1996 25.1846 43.7373 25.0828V28.8848C41.3238 28.8891 38.97 28.1351 37.0083 26.7293V36.5443C37.0024 38.1549 36.5607 39.7339 35.7301 41.1137C34.8995 42.4936 33.711 43.623 32.2906 44.3822C30.8701 45.1413 29.2707 45.5019 27.662 45.4257C26.0532 45.3495 24.495 44.8394 23.1527 43.9494C24.3943 45.2057 25.9808 46.0652 27.7113 46.4192C29.4418 46.7733 31.2384 46.6058 32.8736 45.9381C34.5088 45.2704 35.9091 44.1324 36.8972 42.6683C37.8853 41.2042 38.4167 39.4799 38.4241 37.7136V27.8746ZM40.166 23.0069C39.1679 21.9251 38.5555 20.5437 38.4241 19.0777V18.4573H37.0878C37.253 19.3891 37.6125 20.2758 38.1428 21.0596C38.6731 21.8435 39.3624 22.5069 40.166 23.0069ZM26.2467 40.1713C25.7836 39.5657 25.4998 38.8422 25.4276 38.0832C25.3554 37.3242 25.4977 36.5602 25.8383 35.8781C26.179 35.196 26.7042 34.6232 27.3544 34.2249C28.0045 33.8267 28.7534 33.6189 29.5158 33.6253C29.9367 33.6252 30.3552 33.6895 30.7566 33.8162V28.8848C30.2873 28.8226 29.8141 28.7961 29.3408 28.8052V32.639C28.3634 32.33 27.3054 32.4003 26.3774 32.8358C25.4495 33.2713 24.7194 34.0402 24.3325 34.9895C23.9455 35.9387 23.9301 36.9989 24.2892 37.959C24.6483 38.9192 25.3557 39.709 26.2706 40.1713H26.2467Z" fill="#EE1D52"/>
<path fill-rule="evenodd" clip-rule="evenodd" d="M37.0076 26.6975C38.9694 28.1033 41.3232 28.8572 43.7366 28.853V25.051C42.3615 24.7603 41.1124 24.0453 40.1653 23.0069C39.3618 22.5069 38.6724 21.8435 38.1421 21.0596C37.6118 20.2758 37.2523 19.3891 37.0872 18.4573H33.5716V37.7136C33.5683 38.5659 33.2982 39.3958 32.7991 40.0868C32.3001 40.7778 31.5972 41.2952 30.7891 41.5663C29.981 41.8374 29.1083 41.8487 28.2935 41.5985C27.4787 41.3483 26.7627 40.8492 26.2461 40.1713C25.4272 39.7582 24.7715 39.0812 24.3846 38.2496C23.9977 37.4181 23.9023 36.4804 24.1137 35.588C24.3251 34.6955 24.831 33.9003 25.5498 33.3306C26.2685 32.761 27.1583 32.4501 28.0754 32.4481C28.4963 32.4495 28.9145 32.5138 29.3162 32.639V28.8052C27.5804 28.8469 25.8945 29.3945 24.4654 30.3808C23.0364 31.3671 21.9265 32.7493 21.2719 34.3575C20.6173 35.9657 20.4465 37.7301 20.7805 39.434C21.1144 41.138 21.9387 42.7073 23.152 43.9494C24.4946 44.8458 26.0552 45.3612 27.6676 45.4407C29.28 45.5202 30.8838 45.1609 32.3081 44.401C33.7324 43.6411 34.9239 42.5091 35.7557 41.1255C36.5875 39.742 37.0284 38.1587 37.0315 36.5443L37.0076 26.6975Z" fill="#E3E3E3"/>
<path fill-rule="evenodd" clip-rule="evenodd" d="M43.7366 25.051L43.737 24.0247C42.4742 24.03 41.2361 23.6773 40.166 23.0069C41.1107 24.0483 42.3602 24.7639 43.7366 25.051ZM37.0878 18.4573C37.0878 18.2743 37.0319 18.0831 37.0081 17.9002V17.2798H32.1562V36.544C32.152 37.6227 31.72 38.6556 30.955 39.4162C30.19 40.1767 29.1546 40.6026 28.0759 40.6005C27.4407 40.6037 26.8141 40.4568 26.2467 40.1713C26.7634 40.8492 27.4787 41.3483 28.2935 41.5985C29.1083 41.8487 29.981 41.8374 30.7891 41.5663C31.5972 41.2952 32.3001 40.7778 32.7991 40.0868C33.2982 39.3958 33.5683 38.5659 33.5716 37.7136V18.4573H37.0878ZM29.3167 28.797V27.7073C27.3202 27.4361 25.2907 27.8491 23.5589 28.8789C21.8272 29.9088 20.4953 31.4949 19.7804 33.3786C19.0654 35.2624 19.0096 37.3327 19.622 39.2522C20.2343 41.1718 21.479 42.8276 23.1527 43.9494C21.9486 42.7044 21.1329 41.1354 20.8057 39.4345C20.4785 37.7337 20.6538 35.9744 21.3101 34.3716C21.9664 32.7687 23.0754 31.3917 24.5015 30.4088C25.9276 29.4259 27.6091 28.8796 29.3406 28.8367L29.3167 28.797Z" fill="#69C9D0"/>
</g>
<rect x="0.5" y="0.5" width="63" height="63" rx="31.5" stroke="#F2F1F0"/>
</g>
</svg>
