<svg width="64" height="64" viewBox="0 0 64 64" fill="none" xmlns="http://www.w3.org/2000/svg">
<g id="Youtube">
<g clip-path="url(#clip0_94_23172)">
<rect width="64" height="64" rx="32" fill="white"/>
<path id="Subtract" d="M0 0H100V100H0V0Z" fill="white"/>
<path id="Vector" fill-rule="evenodd" clip-rule="evenodd" d="M45.9325 19.9624C47.5053 20.3871 48.7414 21.6264 49.1592 23.1973C49.9195 26.0482 49.9195 32.0002 49.9195 32.0002C49.9195 32.0002 49.9195 37.9522 49.1592 40.8031C48.7356 42.3798 47.4994 43.6191 45.9325 44.038C43.0889 44.8002 31.6795 44.8002 31.6795 44.8002C31.6795 44.8002 20.2758 44.8002 17.4264 44.038C15.8537 43.6133 14.6175 42.374 14.1997 40.8031C13.4395 37.9522 13.4395 32.0002 13.4395 32.0002C13.4395 32.0002 13.4395 26.0482 14.1997 23.1973C14.6233 21.6206 15.8595 20.3813 17.4264 19.9624C20.2758 19.2002 31.6795 19.2002 31.6795 19.2002C31.6795 19.2002 43.0889 19.2002 45.9325 19.9624ZM37.5119 32.0002L28.0349 37.4867V26.5137L37.5119 32.0002Z" fill="#FF3000"/>
</g>
<rect x="0.5" y="0.5" width="63" height="63" rx="31.5" stroke="#F2F1F0"/>
</g>
<defs>
<clipPath id="clip0_94_23172">
<rect width="64" height="64" rx="32" fill="white"/>
</clipPath>
</defs>
</svg>
