<svg width="15" height="16" viewBox="0 0 15 16" fill="none" xmlns="http://www.w3.org/2000/svg">
<path d="M3.25 6.65979H12.0833C12.2208 6.65979 12.3333 6.76526 12.3333 6.89417V11.9723C12.3333 12.4899 11.8854 12.9098 11.3333 12.9098H4C3.44792 12.9098 3 12.4899 3 11.9723V6.89417C3 6.76526 3.1125 6.65979 3.25 6.65979ZM12.3333 5.80042V5.09729C12.3333 4.57971 11.8854 4.15979 11.3333 4.15979H10.3333V3.14417C10.3333 3.01526 10.2208 2.90979 10.0833 2.90979H9.25C9.1125 2.90979 9 3.01526 9 3.14417V4.15979H6.33333V3.14417C6.33333 3.01526 6.22083 2.90979 6.08333 2.90979H5.25C5.1125 2.90979 5 3.01526 5 3.14417V4.15979H4C3.44792 4.15979 3 4.57971 3 5.09729V5.80042C3 5.92932 3.1125 6.03479 3.25 6.03479H12.0833C12.2208 6.03479 12.3333 5.92932 12.3333 5.80042Z" fill="#8595A6"/>
</svg>
