<svg width="15" height="16" viewBox="0 0 15 16" fill="none" xmlns="http://www.w3.org/2000/svg">
<g clip-path="url(#clip0_2723_2958)">
<path d="M4.05905 15.4687H0.882583C0.661995 15.4687 0.441406 15.2481 0.441406 15.0275V11.8069C0.441406 11.5422 0.661995 11.3657 0.882583 11.3657H3.97082V15.0275C3.97082 15.1598 4.01494 15.3363 4.05905 15.4687Z" fill="#8595A6"/>
<path d="M10.1476 9.73329V15.0274C10.1476 15.248 9.92705 15.4686 9.70646 15.4686H5.29469C5.0741 15.4686 4.85352 15.248 4.85352 15.0274V9.73329C4.85352 9.46858 5.0741 9.29211 5.29469 9.29211H9.70646C9.92705 9.29211 10.1476 9.46858 10.1476 9.73329Z" fill="#8595A6"/>
<path d="M14.5591 12.3804V15.0274C14.5591 15.248 14.3385 15.4686 14.1179 15.4686H10.9414C10.9855 15.3363 11.0296 15.1598 11.0296 15.0274V11.9392H14.1179C14.3385 11.9392 14.5591 12.1157 14.5591 12.3804Z" fill="#8595A6"/>
<path d="M11.0729 4.43923L9.61703 5.851L9.96997 7.88041C10.0141 8.05688 9.92586 8.23335 9.7935 8.32158C9.66115 8.40982 9.44056 8.40982 9.30821 8.3657L7.49938 7.39511L5.69056 8.32158C5.55821 8.40982 5.38174 8.40982 5.24938 8.27747C5.11703 8.18923 5.0288 8.01276 5.07291 7.83629L5.42586 5.80688L3.92586 4.43923C3.83762 4.351 3.7935 4.17452 3.83762 3.99805C3.88174 3.82158 4.01409 3.73335 4.19056 3.68923L6.21997 3.38041L7.10233 1.57158C7.23468 1.26276 7.76409 1.26276 7.89644 1.57158L8.7788 3.38041L10.8082 3.68923C10.9847 3.73335 11.117 3.82158 11.1611 3.99805C11.2053 4.17452 11.1611 4.351 11.0729 4.43923Z" fill="#8595A6"/>
</g>
<defs>
<clipPath id="clip0_2723_2958">
<rect width="15" height="15" fill="white" transform="translate(0 0.90979)"/>
</clipPath>
</defs>
</svg>
