<svg width="15" height="16" viewBox="0 0 15 16" fill="none" xmlns="http://www.w3.org/2000/svg">
<path fill-rule="evenodd" clip-rule="evenodd" d="M14.7368 4.484C14.7368 3.61453 14.0321 2.90979 13.1626 2.90979H1.57421C0.704737 2.90979 0 3.61453 0 4.484C0 6.20558 0 9.614 0 11.3356C0 12.2051 0.704737 12.9098 1.57421 12.9098H5.08789H7.36842C7.36842 12.9098 7.89474 12.9098 8.21105 12.9098H9.64895H13.1626C14.0321 12.9098 14.7368 12.2051 14.7368 11.3356V4.484ZM3.97579 9.48874H5.49789L5.81632 10.4445C5.90842 10.7203 6.20684 10.8693 6.48211 10.7777C6.75789 10.6856 6.90684 10.3872 6.81526 10.1119L5.23632 5.37505C5.16474 5.15979 4.96316 5.01505 4.73684 5.01505C4.51053 5.01505 4.30895 5.15979 4.23737 5.37505L2.65842 10.1119C2.56684 10.3872 2.71579 10.6856 2.99158 10.7777C3.26684 10.8693 3.56526 10.7203 3.65737 10.4445L3.97579 9.48874ZM9.47368 5.80453H8.42105C8.13053 5.80453 7.89474 6.04032 7.89474 6.33084C7.89474 6.62137 8.13053 6.85716 8.42105 6.85716H9.45895C9.45158 7.09611 9.44895 7.39084 9.47263 7.71032C9.46105 7.83084 9.44474 7.95453 9.42211 8.07926C9.30316 8.74084 9.00526 9.45032 8.21105 9.79558C7.94474 9.91137 7.82263 10.2219 7.93842 10.4882C8.05421 10.7545 8.36474 10.8766 8.63105 10.7608C9.27368 10.4814 9.70895 10.0493 10 9.55505C10.2911 10.0493 10.7263 10.4814 11.3689 10.7608C11.6353 10.8766 11.9458 10.7545 12.0616 10.4882C12.1774 10.2219 12.0553 9.91137 11.7889 9.79558C10.9947 9.45032 10.6968 8.74084 10.5779 8.07926C10.5553 7.95453 10.5389 7.83084 10.5274 7.71032C10.5511 7.39084 10.5484 7.09611 10.5411 6.85716H11.5789C11.8695 6.85716 12.1053 6.62137 12.1053 6.33084C12.1053 6.04032 11.8695 5.80453 11.5789 5.80453H10.5263V5.54137C10.5263 5.25084 10.2905 5.01505 10 5.01505C9.70947 5.01505 9.47368 5.25084 9.47368 5.54137V5.80453ZM4.32684 8.43611H5.14684L4.73684 7.20558L4.32684 8.43611Z" fill="#8595A6"/>
</svg>
