<svg width="15" height="16" viewBox="0 0 15 16" fill="none" xmlns="http://www.w3.org/2000/svg">
<path d="M7 3.01038C5.065 3.01038 3 4.65363 3 6.68538C3 11.0104 7 13.5104 7 13.5104C7 13.5104 11 11.0104 11 6.68538C11 4.65363 8.935 3.01038 7 3.01038ZM7 7.99788C6.66848 7.99788 6.35054 7.85959 6.11612 7.61345C5.8817 7.36731 5.75 7.03347 5.75 6.68538C5.75 6.33728 5.8817 6.00344 6.11612 5.7573C6.35054 5.51116 6.66848 5.37288 7 5.37288C7.33152 5.37288 7.64946 5.51116 7.88388 5.7573C8.1183 6.00344 8.25 6.33728 8.25 6.68538C8.25 7.03347 8.1183 7.36731 7.88388 7.61345C7.64946 7.85959 7.33152 7.99788 7 7.99788Z" fill="#8595A6"/>
</svg>
