<svg width="15" height="16" viewBox="0 0 15 16" fill="none" xmlns="http://www.w3.org/2000/svg">
<path fill-rule="evenodd" clip-rule="evenodd" d="M13 5.90979C13 5.35751 12.5523 4.90979 12 4.90979H2C1.44772 4.90979 1 5.35751 1 5.90979V12.9098C1 13.4621 1.44772 13.9098 2 13.9098H12C12.5523 13.9098 13 13.4621 13 12.9098V5.90979ZM7 12.9098C7.55228 12.9098 8 12.4621 8 11.9098C8 11.3575 7.55228 10.9098 7 10.9098C6.44772 10.9098 6 11.3575 6 11.9098C6 12.4621 6.44772 12.9098 7 12.9098ZM4.91645 10.528C5.36515 9.85295 6.13106 9.40979 7.00025 9.40979C7.83515 9.40979 8.57456 9.81856 9.0294 10.4491C9.19096 10.673 9.50347 10.7236 9.72742 10.5621C9.95138 10.4005 10.002 10.088 9.84041 9.86405C9.20567 8.98415 8.17002 8.40979 7.00025 8.40979C5.78222 8.40979 4.70982 9.0324 4.08366 9.97439C3.93079 10.2044 3.99329 10.5147 4.22326 10.6676C4.45324 10.8204 4.76359 10.7579 4.91645 10.528ZM7.00044 7.40979C5.5285 7.40979 4.22165 8.11597 3.39982 9.21013C3.23397 9.43093 2.92054 9.47548 2.69975 9.30964C2.47895 9.14379 2.4344 8.83036 2.60024 8.60956C3.60282 7.27476 5.20069 6.40979 7.00044 6.40979C8.80019 6.40979 10.3981 7.27477 11.4006 8.60956C11.5665 8.83036 11.5219 9.14379 11.3011 9.30964C11.0803 9.47548 10.7669 9.43093 10.6011 9.21013C9.77923 8.11597 8.47238 7.40979 7.00044 7.40979Z" fill="#8595A6"/>
<path d="M5 2.90979L7 4.90979L9 2.90979" stroke="#8595A6" stroke-width="1.5" stroke-linecap="round"/>
</svg>
