<svg width="15" height="16" viewBox="0 0 15 16" fill="none" xmlns="http://www.w3.org/2000/svg">
<path d="M9.34237 3.63702C8.87458 3.16805 8.22121 2.90979 7.50005 2.90979C6.77504 2.90979 6.1195 3.16648 5.65388 3.63255C5.1832 4.10376 4.95387 4.74415 5.00772 5.43567C5.11445 6.79995 6.23249 7.90976 7.50005 7.90976C8.76761 7.90976 9.88372 6.80017 9.99214 5.43611C10.0467 4.75085 9.81593 4.11179 9.34237 3.63702Z" fill="#8595A6"/>
<path d="M11.3076 12.9097H3.69241C3.59274 12.911 3.49403 12.8908 3.40346 12.8507C3.3129 12.8106 3.23275 12.7516 3.16887 12.6779C3.02825 12.516 2.97157 12.295 3.01354 12.0714C3.19613 11.096 3.76597 10.2766 4.66162 9.70145C5.45732 9.19083 6.46524 8.90979 7.5 8.90979C8.53476 8.90979 9.54268 9.19104 10.3384 9.70145C11.234 10.2764 11.8039 11.0958 11.9865 12.0712C12.0284 12.2947 11.9718 12.5158 11.8311 12.6777C11.7673 12.7514 11.6871 12.8105 11.5966 12.8506C11.506 12.8908 11.4073 12.911 11.3076 12.9097Z" fill="#8595A6"/>
</svg>
