<svg width="15" height="16" viewBox="0 0 15 16" fill="none" xmlns="http://www.w3.org/2000/svg">
<g clip-path="url(#clip0_2723_2935)">
<path fill-rule="evenodd" clip-rule="evenodd" d="M15 5.40979C15 2.92451 12.9853 0.90979 10.5 0.90979C8.01472 0.90979 6 2.92451 6 5.40979C6 7.89507 8.01472 9.90979 10.5 9.90979C12.9853 9.90979 15 7.89507 15 5.40979ZM8.35188 5.73883C8.62218 5.68232 8.88711 5.85563 8.94362 6.12593C9.08339 6.79447 9.72569 7.19582 10.4997 7.19582C11.2736 7.19582 11.9159 6.79447 12.0557 6.12593C12.1122 5.85563 12.3771 5.68232 12.6474 5.73883C12.9177 5.79534 13.091 6.06027 13.0345 6.33057C12.7652 7.6188 11.5666 8.19582 10.4997 8.19582C9.43272 8.19582 8.23411 7.6188 7.96478 6.33057C7.90827 6.06027 8.08158 5.79534 8.35188 5.73883ZM12.9548 4.38768C12.9548 4.72659 12.6801 5.00132 12.3412 5.00132C12.0023 5.00132 11.7275 4.72659 11.7275 4.38768C11.7275 4.04878 12.0023 3.77405 12.3412 3.77405C12.6801 3.77405 12.9548 4.04878 12.9548 4.38768ZM8.65953 5.00132C8.99844 5.00132 9.27317 4.72659 9.27317 4.38768C9.27317 4.04878 8.99844 3.77405 8.65953 3.77405C8.32063 3.77405 8.0459 4.04878 8.0459 4.38768C8.0459 4.72659 8.32063 5.00132 8.65953 5.00132Z" fill="#8595A6"/>
<path fill-rule="evenodd" clip-rule="evenodd" d="M9 11.4098C9 8.92451 6.98528 6.90979 4.5 6.90979C2.01472 6.90979 0 8.92451 0 11.4098C0 13.8951 2.01472 15.9098 4.5 15.9098C6.98528 15.9098 9 13.8951 9 11.4098ZM6.66705 13.9406C6.39915 14.0076 6.12768 13.8447 6.06071 13.5768C5.94093 13.0977 5.33867 12.7283 4.50033 12.7283C3.66198 12.7283 3.05972 13.0977 2.93994 13.5768C2.87297 13.8447 2.6015 14.0076 2.3336 13.9406C2.06571 13.8737 1.90283 13.6022 1.9698 13.3343C2.25912 12.177 3.49776 11.7283 4.50033 11.7283C5.50289 11.7283 6.74154 12.177 7.03085 13.3343C7.09783 13.6022 6.93495 13.8737 6.66705 13.9406ZM2.65953 11.0003C2.92602 11.0003 3.15283 10.8305 3.23759 10.5931C3.41069 10.605 3.58513 10.5263 3.68827 10.3716C3.84145 10.1418 3.77936 9.83139 3.5496 9.67821L2.32233 8.86003C2.09256 8.70685 1.78213 8.76894 1.62895 8.9987C1.47577 9.22847 1.53786 9.5389 1.76762 9.69208L2.19983 9.98022C2.10404 10.0885 2.0459 10.2308 2.0459 10.3867C2.0459 10.7256 2.32063 11.0003 2.65953 11.0003ZM6.34118 11.0003C6.68008 11.0003 6.95481 10.7256 6.95481 10.3867C6.95481 10.2307 6.89656 10.0882 6.80061 9.97992L7.23238 9.69208C7.46214 9.5389 7.52423 9.22847 7.37105 8.9987C7.21787 8.76894 6.90744 8.70685 6.67767 8.86003L5.4504 9.67821C5.22064 9.83139 5.15855 10.1418 5.31173 10.3716C5.41501 10.5265 5.58977 10.6052 5.7631 10.5931C5.84785 10.8305 6.07467 11.0003 6.34118 11.0003Z" fill="#8595A6"/>
</g>
<defs>
<clipPath id="clip0_2723_2935">
<rect width="15" height="15" fill="white" transform="translate(0 0.90979)"/>
</clipPath>
</defs>
</svg>
