<svg width="15" height="16" viewBox="0 0 15 16" fill="none" xmlns="http://www.w3.org/2000/svg">
<path d="M7.14131 4.13658C7.28803 3.83929 7.71197 3.83929 7.85869 4.13658L8.8764 6.19867C8.93466 6.31673 9.04729 6.39856 9.17757 6.41749L11.4532 6.74816C11.7813 6.79583 11.9123 7.19902 11.6749 7.43044L10.0282 9.03555C9.93395 9.12744 9.89093 9.25984 9.91319 9.3896L10.3019 11.6561C10.358 11.9828 10.015 12.232 9.72154 12.0777L7.68614 11.0076C7.56961 10.9464 7.43039 10.9464 7.31386 11.0076L5.27846 12.0777C4.98501 12.232 4.64204 11.9828 4.69808 11.6561L5.08681 9.3896C5.10907 9.25984 5.06605 9.12744 4.97177 9.03555L3.3251 7.43044C3.08769 7.19902 3.21869 6.79583 3.54678 6.74816L5.82243 6.41749C5.95271 6.39856 6.06534 6.31673 6.12361 6.19867L7.14131 4.13658Z" fill="#8595A6"/>
</svg>
