<svg width="497" height="211" viewBox="0 0 497 211" fill="none" xmlns="http://www.w3.org/2000/svg">
<path d="M98.9312 209.57C98.9312 209.57 56.3194 199.409 53.6386 163.618C49.168 103.932 118.347 133.502 110.469 103.932C101.491 70.2465 119.407 41.1125 152.935 38.6613C186.462 36.2101 214.679 60.4215 234.911 32.2701C252.771 7.40704 297.598 -8.51835 333.703 5.67264C379.394 23.6382 359.842 69.1186 384.643 79.2844C409.444 89.4502 458.209 115.571 453.882 152.645C449.822 187.429 422.176 210.292 391.668 209.941C376.716 209.77 288.686 210.136 236.537 209.941C182.269 209.74 98.9312 209.57 98.9312 209.57Z" fill="#DEE3FF"/>
<g clip-path="url(#clip0_6217_66319)">
<path d="M198.03 129.488L180.674 124.909L169.471 167.37L150.802 162.444L96.2836 98.2599L101.962 76.7368L167.451 94.0146L171.005 80.5444L190.987 85.8162L187.434 99.2865L204.79 103.866L198.03 129.488ZM160.691 119.637L126.999 110.748L128.003 106.942L160.598 144.827L154.472 143.21L160.691 119.637Z" fill="#FF5C5C"/>
<path d="M377.158 168.597L372.465 151.083L329.782 162.52L324.734 143.681L353.476 63.7309L375.111 57.9337L392.818 124.018L406.359 120.39L411.762 140.553L398.221 144.182L402.914 161.696L377.158 168.597ZM367.062 130.919L357.952 96.9205L361.779 95.8952L345.022 143.45L343.366 137.269L367.062 130.919Z" fill="#00B884"/>
<path d="M252.167 169.416C239.411 165.997 230.849 158.707 226.479 147.545C222.234 136.311 222.412 122.108 227.014 104.937C231.669 87.5706 238.592 75.281 247.782 68.0688C257.069 60.8829 268.091 58.9994 280.846 62.4183C293.7 65.8636 302.302 73.007 306.652 83.8485C311.003 94.69 310.864 108.745 306.235 126.014C301.607 143.283 294.596 155.706 285.203 163.285C275.934 170.791 264.922 172.835 252.167 169.416ZM257.966 147.781C262.675 149.044 266.842 147.426 270.467 142.929C274.189 138.458 277.563 130.581 280.587 119.297C283.638 107.915 284.63 99.505 283.564 94.066C282.622 88.5552 279.796 85.1686 275.087 83.9062C270.377 82.6438 266.187 84.15 262.517 88.4247C258.972 92.6276 255.687 100.371 252.663 111.654C249.612 123.036 248.531 131.581 249.42 137.288C250.408 143.021 253.256 146.519 257.966 147.781Z" fill="#9058FE"/>
</g>
<path d="M424.225 209.899C420.262 206.025 407.204 193.811 413.571 183.626C421.603 170.78 436.027 178.198 432.883 162.98C429.74 147.761 427.375 139.803 442.672 133.393C457.968 126.983 452.083 120.876 453.384 112.14C455.062 100.802 467.426 92.1985 481.19 96.9023C491.804 100.532 489.776 121.634 482.511 127.773C475.246 133.913 490.674 139.243 484.38 153.914C478.086 168.586 462.307 163.48 463.47 174.917C463.747 177.723 468.476 190.926 465.398 198.574C463.853 202.408 460.564 206.381 454.17 209.675" stroke="#7189FF" stroke-miterlimit="10"/>
<path d="M430.36 209.8L434.125 201.163C437.247 194.022 440.379 186.885 443.523 179.752C447.521 170.679 451.541 161.616 455.584 152.564C459.494 143.828 463.423 135.099 467.472 126.41C470.299 120.289 473.112 114.143 476.217 108.148C476.454 107.693 476.692 107.232 476.937 106.778C477.088 106.501 476.659 106.251 476.507 106.527C473.562 112.015 470.972 117.727 468.35 123.34C464.388 131.851 460.53 140.409 456.686 148.973C452.592 158.104 448.528 167.246 444.494 176.399C441.196 183.865 437.912 191.332 434.64 198.798L431.503 205.992C431.014 207.106 430.433 208.226 430.03 209.372C430.012 209.422 429.99 209.47 429.964 209.517C429.838 209.807 430.268 210.057 430.393 209.767L430.36 209.8Z" fill="#7189FF"/>
<path d="M458.734 145.423L476.87 144.421L479.512 144.276C479.829 144.276 479.829 143.769 479.512 143.782L461.382 144.784L458.74 144.928C458.423 144.928 458.423 145.442 458.74 145.423H458.734Z" fill="#7189FF"/>
<path d="M437.777 192.573L457.968 190.306L460.874 189.977C461.184 189.944 461.191 189.45 460.874 189.483L440.683 191.749L437.777 192.079C437.467 192.111 437.467 192.606 437.777 192.573Z" fill="#7189FF"/>
<path d="M436.007 140.897L440.122 150.12L446.687 164.824L448.199 168.197C448.325 168.487 448.754 168.237 448.629 167.954L444.507 158.73L437.942 144.026L436.43 140.646C436.304 140.357 435.875 140.607 436.007 140.897Z" fill="#7189FF"/>
<path d="M465.781 109.63C464.764 111.119 462.994 111.686 461.818 110.895C460.643 110.105 460.53 108.26 461.547 106.771C462.565 105.282 464.328 104.716 465.51 105.506C466.692 106.297 466.772 108.148 465.781 109.63Z" fill="#7189FF"/>
<path d="M466.521 117.674C466.521 117.956 466.438 118.231 466.281 118.465C466.124 118.699 465.901 118.881 465.641 118.989C465.38 119.096 465.093 119.125 464.816 119.07C464.54 119.015 464.285 118.879 464.086 118.68C463.886 118.481 463.75 118.228 463.695 117.952C463.64 117.676 463.669 117.39 463.777 117.13C463.885 116.87 464.067 116.647 464.302 116.491C464.537 116.335 464.812 116.251 465.095 116.251C465.282 116.251 465.467 116.288 465.641 116.359C465.814 116.431 465.971 116.536 466.103 116.668C466.236 116.8 466.341 116.957 466.413 117.13C466.484 117.302 466.521 117.487 466.521 117.674Z" fill="#7189FF"/>
<path d="M476.87 154.382C476.87 154.929 476.708 155.464 476.403 155.919C476.098 156.374 475.665 156.729 475.158 156.939C474.651 157.148 474.093 157.203 473.555 157.096C473.017 156.989 472.523 156.726 472.135 156.339C471.747 155.952 471.483 155.459 471.376 154.922C471.269 154.385 471.323 153.829 471.533 153.323C471.743 152.818 472.099 152.386 472.555 152.082C473.011 151.778 473.548 151.615 474.096 151.615C474.832 151.615 475.538 151.907 476.058 152.426C476.578 152.945 476.87 153.648 476.87 154.382Z" fill="#7189FF"/>
<path d="M0.557861 209.763L469.975 209.764" stroke="#161522" stroke-miterlimit="10" stroke-linecap="round"/>
<path d="M62.8712 208.876C58.1839 209.045 39.2335 213.198 39.5153 197.814C39.6764 189.958 37.3811 190.239 32.7663 187.162C28.1515 184.085 28.2643 182.117 28.667 177.723C29.0697 173.329 24.6401 175.449 21.7488 169.69C18.2455 162.773 22.4656 157.64 29.271 156.37C36.0764 155.101 35.8751 162.443 38.5731 164.629C41.271 166.814 45.016 162.122 50.2107 168.476C53.6013 172.63 48.3422 182.133 53.3275 181.225" stroke="#7189FF" stroke-miterlimit="10"/>
<path d="M53.972 195.171C47.3196 186.206 40.3182 177.522 32.9679 169.119C32.4524 168.533 31.5987 169.384 32.1142 169.971C39.3786 178.304 46.3156 186.905 52.925 195.774C53.3841 196.392 54.4311 195.774 53.972 195.171Z" fill="#7189FF"/>
<path d="M42.6401 168.726L41.9072 179.707L41.8025 181.258L42.4065 180.655L32.3072 181.459C31.5018 181.523 31.5018 182.728 32.3072 182.664L42.4065 181.86C42.5654 181.856 42.7167 181.791 42.8291 181.679C42.9415 181.567 43.0065 181.416 43.0106 181.258L43.7435 170.276L43.8482 168.726C43.9045 167.922 42.6965 167.922 42.6401 168.726Z" fill="#7189FF"/>
<path d="M32.6377 117.899C24.1973 111.038 22.1678 89.8465 34.2081 83.4118C49.0834 75.4508 64.6512 87.7658 66.6163 100.426C68.1224 110.195 61.2767 117.015 79.0996 124.181C96.9225 131.347 94.1681 140.247 90.5037 157.238C86.8392 174.228 98.8876 168.003 108.222 182.358C115.639 193.733 105.21 205.333 100.563 209.671L64.1116 209.495C62.9248 208.804 61.7938 208.023 60.7291 207.157C48.9545 197.517 53.6176 182.39 54.8579 170.581C56.5492 154.466 37.7679 163.512 30.4309 147.124C23.094 130.736 41.086 124.759 32.6377 117.899Z" stroke="#7189FF" stroke-miterlimit="10"/>
<path d="M94.2157 209.109C92.75 205.896 91.2788 202.664 89.8023 199.413C86.1781 191.46 82.5432 183.515 78.8975 175.578C74.2264 165.403 69.5284 155.251 64.8035 145.124C60.2558 135.371 55.6545 125.64 50.9994 115.931C47.7055 109.086 44.4195 102.226 40.8115 95.5423C40.5376 95.0068 40.2558 94.4926 39.9658 93.9999C39.5873 93.3251 38.5484 93.9276 38.9269 94.6105C42.3658 100.748 45.3699 107.126 48.4625 113.457C53.0612 122.928 57.5471 132.455 62.0089 141.991C66.7928 152.209 71.5418 162.449 76.2559 172.71C80.1002 181.049 83.9231 189.382 87.7244 197.71L91.3808 205.743C91.9446 206.988 92.4197 208.338 93.0963 209.519C93.1238 209.574 93.148 209.63 93.1687 209.688C93.4909 210.395 94.5298 209.776 94.2157 209.077V209.109Z" fill="#7189FF"/>
<path d="M60.3744 137.042L39.2093 135.926L36.1891 135.765C35.8025 135.765 35.8025 136.343 36.1891 136.368L57.3543 137.46L60.3744 137.621C60.761 137.621 60.761 137.042 60.3744 137.018V137.042Z" fill="#7189FF"/>
<path d="M86.3558 132.278L73.8806 159.053L72.141 162.781C71.9799 163.126 72.5034 163.432 72.6645 163.086L85.1397 136.303L86.8793 132.576C87.0404 132.23 86.5169 131.925 86.3558 132.278Z" fill="#7189FF"/>
<path d="M52.1679 97.6308C53.3518 99.2937 55.3894 99.9283 56.7666 99.0446C58.1438 98.161 58.2646 96.0964 57.0807 94.4335C55.8968 92.7706 53.8592 92.136 52.482 93.0197C51.1049 93.9033 50.984 95.9679 52.1679 97.6308Z" fill="#7189FF"/>
<path d="M39.2415 147.63C39.2174 148.27 39.3857 148.903 39.7247 149.447C40.0638 149.991 40.5581 150.422 41.1442 150.683C41.7303 150.945 42.3815 151.026 43.0142 150.916C43.6468 150.806 44.2321 150.51 44.6947 150.066C45.1574 149.622 45.4765 149.049 45.6109 148.423C45.7453 147.797 45.6889 147.145 45.4491 146.55C45.2092 145.956 44.7968 145.447 44.2647 145.088C43.7326 144.73 43.1052 144.538 42.463 144.537C41.6255 144.524 40.8169 144.842 40.2134 145.422C39.6099 146.001 39.2606 146.795 39.2415 147.63Z" fill="#7189FF"/>
<defs>
<clipPath id="clip0_6217_66319">
<rect width="328" height="132" fill="white" transform="translate(84 47.8065)"/>
</clipPath>
</defs>
</svg>
