<svg width="660" height="591" viewBox="0 0 660 591" fill="none" xmlns="http://www.w3.org/2000/svg">
<g clip-path="url(#clip0_1_220)">
<path d="M66.1191 187.85C77.0355 162.121 95.3835 127.174 116.385 108.749C145.2 83.4692 173.382 72.5729 201.313 71.8464C259.644 70.3408 302.505 88.0523 313.751 139.1C318.846 162.306 311.507 178.631 311.362 202.391C311.217 226.152 303.323 253.492 318.899 271.428C340.811 296.681 378.985 299.164 412.157 295.004C445.329 290.844 479.556 282.206 511.513 291.993C559.826 306.798 597.049 369.852 588.219 419.632C579.388 469.412 554.255 521.067 508.438 542.384C462.621 563.702 386.364 566.171 334.673 566.779L277.834 563.847C188.76 552.383 118.695 511.439 78.4215 439.536C38.1483 367.633 30.8619 270.9 66.1191 187.85Z" fill="#DEE3FF"/>
<path d="M539.5 203.248C593.9 203.248 638 160.715 638 108.248C638 55.781 593.9 13.248 539.5 13.248C485.1 13.248 441 55.781 441 108.248C441 160.715 485.1 203.248 539.5 203.248Z" fill="#DEE3FF"/>
<path d="M151.061 533.971L112.042 529.758L106.485 529.163C105.851 529.084 105.864 530.075 106.485 530.154L145.517 534.354L151.061 534.961C151.695 535.027 151.695 534.037 151.061 533.971Z" fill="#888DFF"/>
<path d="M96.1617 397.324C96.1433 397.869 96.2881 398.407 96.5775 398.869C96.8669 399.331 97.2877 399.696 97.7859 399.916C98.2841 400.137 98.8368 400.204 99.3732 400.108C99.9095 400.012 100.405 399.758 100.796 399.378C101.187 398.999 101.455 398.511 101.567 397.977C101.679 397.443 101.628 396.889 101.422 396.384C101.217 395.879 100.865 395.447 100.412 395.144C99.9588 394.841 99.4258 394.681 98.8809 394.683C98.5276 394.672 98.1758 394.733 97.8463 394.861C97.5168 394.989 97.2163 395.182 96.9628 395.428C96.7092 395.674 96.5076 395.969 96.37 396.295C96.2324 396.621 96.1616 396.971 96.1617 397.324Z" fill="white"/>
<path d="M115.131 565.458C107.448 565.736 76.3885 572.564 76.8505 547.271C77.1145 534.354 73.3525 534.816 65.7889 529.758C58.2253 524.699 58.4101 521.463 59.0701 514.239C59.7301 507.014 52.4701 510.501 47.7313 501.031C41.9893 489.659 48.9061 481.22 60.0601 479.133C71.2141 477.046 70.8841 489.118 75.3061 492.71C79.7281 496.303 85.8661 488.589 94.3801 499.037C99.9373 505.865 91.3177 521.49 99.4885 519.997" stroke="#7189FF" stroke-miterlimit="10"/>
<path d="M100.545 542.926C89.6417 528.186 78.1665 513.909 66.1193 500.093C65.2745 499.129 63.8753 500.529 64.7201 501.493C76.6265 515.194 87.9961 529.335 98.8289 543.917C99.5813 544.934 101.297 543.917 100.545 542.926Z" fill="#7189FF"/>
<path d="M81.972 499.447L80.7708 517.502L80.5992 520.051L81.5892 519.06L65.0364 520.381C63.7164 520.487 63.7164 522.468 65.0364 522.362L81.5892 521.041C81.8497 521.035 82.0976 520.928 82.2818 520.744C82.4661 520.559 82.5725 520.311 82.5792 520.051L83.7804 501.996L83.952 499.447C84.0444 498.126 82.0644 498.126 81.972 499.447Z" fill="#7189FF"/>
<path d="M65.5778 415.881C51.7442 404.602 48.4178 369.76 68.1518 359.18C92.5322 346.091 118.048 366.339 121.269 387.154C123.737 403.215 112.517 414.428 141.729 426.209C170.94 437.991 166.426 452.625 160.42 480.559C154.414 508.493 174.161 498.258 189.46 521.86C201.617 540.562 184.523 559.634 176.907 566.766L117.163 566.475C115.218 565.341 113.364 564.056 111.619 562.632C92.321 546.783 99.9638 521.913 101.997 502.497C104.769 476.003 73.9862 490.874 61.961 463.931C49.9358 436.987 79.4246 427.16 65.5778 415.881Z" stroke="#7189FF" stroke-miterlimit="10"/>
<path d="M166.504 565.842C164.102 560.559 161.691 555.245 159.271 549.9C153.331 536.824 147.373 523.762 141.398 510.713C133.742 493.983 126.042 477.293 118.298 460.642C110.844 444.608 103.303 428.609 95.6731 412.646C90.2743 401.393 84.8887 390.113 78.9751 379.124C78.5263 378.244 78.0643 377.399 77.5891 376.588C76.9687 375.479 75.2659 376.47 75.8863 377.592C81.5227 387.683 86.4463 398.17 91.5151 408.578C99.0523 424.149 106.405 439.814 113.718 455.491C121.558 472.292 129.342 489.127 137.068 505.998C143.369 519.707 149.635 533.408 155.865 547.1L161.858 560.308C162.782 562.355 163.561 564.574 164.67 566.515C164.715 566.605 164.754 566.698 164.788 566.793C165.316 567.955 167.019 566.938 166.504 565.789V565.842Z" fill="#7189FF"/>
<path d="M111.039 447.356L76.349 445.52L71.399 445.256C70.7654 445.256 70.7654 446.207 71.399 446.246L106.089 448.043L111.039 448.307C111.672 448.307 111.672 447.356 111.039 447.316V447.356Z" fill="#7189FF"/>
<path d="M153.622 439.522L133.175 483.544L130.324 489.672C130.06 490.24 130.918 490.742 131.182 490.174L151.629 446.139L154.48 440.011C154.744 439.443 153.886 438.941 153.622 439.522Z" fill="#7189FF"/>
<path d="M97.5878 382.558C99.5282 385.292 102.868 386.335 105.125 384.883C107.382 383.43 107.58 380.035 105.64 377.301C103.699 374.567 100.36 373.524 98.1026 374.977C95.8454 376.43 95.6474 379.824 97.5878 382.558Z" fill="#7189FF"/>
<path d="M76.4017 464.763C76.3622 465.816 76.638 466.856 77.1936 467.75C77.7493 468.645 78.5595 469.353 79.5201 469.783C80.4808 470.214 81.5481 470.347 82.585 470.166C83.6219 469.985 84.5811 469.498 85.3395 468.768C86.0978 468.038 86.6207 467.097 86.841 466.067C87.0613 465.037 86.9689 463.965 86.5758 462.988C86.1826 462.011 85.5066 461.174 84.6346 460.584C83.7625 459.995 82.7342 459.679 81.6817 459.678C80.309 459.657 78.9836 460.18 77.9945 461.132C77.0054 462.085 76.4329 463.39 76.4017 464.763Z" fill="#7189FF"/>
<path d="M266.64 566.911C261.862 562.262 246.273 547.601 253.889 535.384C263.499 519.971 280.751 528.873 276.989 510.607C273.227 492.34 270.389 482.791 288.697 475.104C307.006 467.417 299.957 460.087 301.515 449.6C303.521 435.996 318.318 425.681 334.779 431.321C347.464 435.679 345.048 460.985 336.389 468.302C327.73 475.619 346.144 482.078 338.62 499.684C331.096 517.29 312.22 511.148 313.54 524.871C313.883 528.252 319.533 544.088 315.85 553.267C314.002 557.864 310.068 562.632 302.425 566.594" stroke="#7189FF" stroke-miterlimit="10"/>
<path d="M274.098 566.911C279.316 554.857 284.57 542.824 289.859 530.814C299.231 509.47 308.642 488.14 318.384 466.968C322.04 459.043 325.644 451 329.776 443.287C330.066 442.719 329.221 442.217 328.918 442.785C325.367 449.389 322.225 456.309 319.07 463.151C314.354 473.312 309.725 483.513 305.184 493.753C296.314 513.6 287.544 533.495 278.876 553.439C276.993 557.753 275.114 562.077 273.24 566.409C272.989 566.99 273.847 567.492 274.098 566.911Z" fill="#7189FF"/>
<path d="M307.864 489.699L329.565 488.497L332.693 488.325C333.327 488.325 333.327 487.295 332.693 487.335L310.992 488.536L307.864 488.708C307.23 488.708 307.23 489.738 307.864 489.699Z" fill="#7189FF"/>
<path d="M282.797 546.267L306.94 543.626L310.425 543.229C311.045 543.229 311.058 542.173 310.425 542.239L286.269 544.96L282.797 545.343C282.177 545.422 282.164 546.412 282.797 546.333V546.267Z" fill="#7189FF"/>
<path d="M280.5 484.165L293.264 512.825L295.086 516.933C295.35 517.514 296.195 517.012 295.944 516.431L283.179 487.77L281.358 483.676C281.094 483.095 280.249 483.597 280.5 484.165Z" fill="#7189FF"/>
<path d="M316.285 446.549C315.071 448.332 312.959 449.019 311.573 448.068C310.187 447.117 310.028 444.898 311.243 443.115C312.457 441.332 314.569 440.658 315.968 441.609C317.367 442.56 317.499 444.766 316.285 446.549Z" fill="#7189FF"/>
<path d="M315.467 457.908C316.408 457.908 317.17 457.145 317.17 456.204C317.17 455.263 316.408 454.5 315.467 454.5C314.527 454.5 313.764 455.263 313.764 456.204C313.764 457.145 314.527 457.908 315.467 457.908Z" fill="#7189FF"/>
<path d="M329.551 500.252C329.548 500.907 329.352 501.546 328.986 502.09C328.621 502.633 328.102 503.056 327.497 503.305C326.891 503.554 326.225 503.618 325.583 503.488C324.941 503.359 324.352 503.042 323.89 502.578C323.428 502.114 323.114 501.523 322.987 500.88C322.86 500.238 322.927 499.572 323.178 498.967C323.429 498.362 323.854 497.845 324.398 497.481C324.943 497.117 325.583 496.923 326.238 496.923C326.674 496.923 327.106 497.01 327.509 497.177C327.912 497.344 328.277 497.59 328.585 497.899C328.893 498.208 329.137 498.575 329.303 498.979C329.468 499.383 329.553 499.815 329.551 500.252Z" fill="#7189FF"/>
<path d="M551.892 406.754H110.88C105.719 406.754 101.521 402.079 101.521 396.32V61.2671C101.521 55.5085 105.719 50.833 110.88 50.833H584.641C589.816 50.833 594 55.5085 594 61.2671V338.418" stroke="#E54985" stroke-miterlimit="10"/>
<path d="M188.232 125.866H150.031C143.004 125.866 137.307 131.567 137.307 138.598V170.508C137.307 177.54 143.004 183.24 150.031 183.24H188.232C195.26 183.24 200.957 177.54 200.957 170.508V138.598C200.957 131.567 195.26 125.866 188.232 125.866Z" fill="#FFE0E7"/>
<path d="M258.984 125.866H220.783C213.756 125.866 208.059 131.567 208.059 138.598V170.508C208.059 177.54 213.756 183.24 220.783 183.24H258.984C266.012 183.24 271.709 177.54 271.709 170.508V138.598C271.709 131.567 266.012 125.866 258.984 125.866Z" fill="white" stroke="#717FFF" stroke-miterlimit="10"/>
<path d="M328.35 125.866H292.947C285.147 125.866 278.823 132.193 278.823 139.998V169.108C278.823 176.913 285.147 183.24 292.947 183.24H328.35C336.15 183.24 342.474 176.913 342.474 169.108V139.998C342.474 132.193 336.15 125.866 328.35 125.866Z" fill="white" stroke="#717FFF" stroke-miterlimit="10"/>
<path d="M399.102 125.866H363.699C355.899 125.866 349.575 132.193 349.575 139.998V169.108C349.575 176.913 355.899 183.24 363.699 183.24H399.102C406.902 183.24 413.226 176.913 413.226 169.108V139.998C413.226 132.193 406.902 125.866 399.102 125.866Z" fill="white" stroke="#717FFF" stroke-miterlimit="10"/>
<path d="M469.854 125.866H434.452C426.651 125.866 420.328 132.193 420.328 139.998V169.108C420.328 176.913 426.651 183.24 434.452 183.24H469.854C477.655 183.24 483.978 176.913 483.978 169.108V139.998C483.978 132.193 477.655 125.866 469.854 125.866Z" fill="#FFC8D4"/>
<path d="M540.606 125.866H505.203C497.403 125.866 491.079 132.193 491.079 139.998V169.108C491.079 176.913 497.403 183.24 505.203 183.24H540.606C548.406 183.24 554.73 176.913 554.73 169.108V139.998C554.73 132.193 548.406 125.866 540.606 125.866Z" fill="white" stroke="#717FFF" stroke-miterlimit="10"/>
<path d="M187.915 189.104H150.348C143.146 189.104 137.307 194.947 137.307 202.154V233.43C137.307 240.636 143.146 246.479 150.348 246.479H187.915C195.118 246.479 200.957 240.636 200.957 233.43V202.154C200.957 194.947 195.118 189.104 187.915 189.104Z" fill="white" stroke="black" stroke-miterlimit="10"/>
<path d="M258.667 189.104H221.1C213.898 189.104 208.059 194.947 208.059 202.154V233.43C208.059 240.636 213.898 246.479 221.1 246.479H258.667C265.87 246.479 271.709 240.636 271.709 233.43V202.154C271.709 194.947 265.87 189.104 258.667 189.104Z" fill="white" stroke="#717FFF" stroke-miterlimit="10"/>
<path d="M329.432 189.104H291.865C284.662 189.104 278.823 194.947 278.823 202.154V233.43C278.823 240.636 284.662 246.479 291.865 246.479H329.432C336.635 246.479 342.474 240.636 342.474 233.43V202.154C342.474 194.947 336.635 189.104 329.432 189.104Z" fill="#DF3056"/>
<path d="M400.184 189.104H362.617C355.414 189.104 349.575 194.947 349.575 202.154V233.43C349.575 240.636 355.414 246.479 362.617 246.479H400.184C407.387 246.479 413.226 240.636 413.226 233.43V202.154C413.226 194.947 407.387 189.104 400.184 189.104Z" fill="white" stroke="#717FFF" stroke-miterlimit="10"/>
<path d="M470.936 189.104H433.369C426.167 189.104 420.328 194.947 420.328 202.154V233.43C420.328 240.636 426.167 246.479 433.369 246.479H470.936C478.139 246.479 483.978 240.636 483.978 233.43V202.154C483.978 194.947 478.139 189.104 470.936 189.104Z" fill="white" stroke="#717FFF" stroke-miterlimit="10"/>
<path d="M541.688 189.104H504.121C496.918 189.104 491.079 194.947 491.079 202.154V233.43C491.079 240.636 496.918 246.479 504.121 246.479H541.688C548.891 246.479 554.73 240.636 554.73 233.43V202.154C554.73 194.947 548.891 189.104 541.688 189.104Z" fill="#F2718D"/>
<path d="M187.255 252.33H151.008C143.441 252.33 137.307 258.468 137.307 266.04V295.995C137.307 303.566 143.441 309.704 151.008 309.704H187.255C194.823 309.704 200.957 303.566 200.957 295.995V266.04C200.957 258.468 194.823 252.33 187.255 252.33Z" fill="white" stroke="black" stroke-miterlimit="10"/>
<path d="M258.007 252.33H221.76C214.193 252.33 208.059 258.468 208.059 266.04V295.995C208.059 303.566 214.193 309.704 221.76 309.704H258.007C265.575 309.704 271.709 303.566 271.709 295.995V266.04C271.709 258.468 265.575 252.33 258.007 252.33Z" fill="#F2718D"/>
<path d="M328.772 252.33H292.525C284.958 252.33 278.823 258.468 278.823 266.04V295.995C278.823 303.566 284.958 309.704 292.525 309.704H328.772C336.339 309.704 342.474 303.566 342.474 295.995V266.04C342.474 258.468 336.339 252.33 328.772 252.33Z" fill="white" stroke="#717FFF" stroke-miterlimit="10"/>
<path d="M399.524 252.33H363.277C355.71 252.33 349.575 258.468 349.575 266.04V295.995C349.575 303.566 355.71 309.704 363.277 309.704H399.524C407.091 309.704 413.226 303.566 413.226 295.995V266.04C413.226 258.468 407.091 252.33 399.524 252.33Z" fill="#F2718D"/>
<path d="M470.276 252.33H434.029C426.462 252.33 420.328 258.468 420.328 266.04V295.995C420.328 303.566 426.462 309.704 434.029 309.704H470.276C477.844 309.704 483.978 303.566 483.978 295.995V266.04C483.978 258.468 477.844 252.33 470.276 252.33Z" fill="white" stroke="#717FFF" stroke-miterlimit="10"/>
<path d="M541.028 252.33H504.781C497.214 252.33 491.079 258.468 491.079 266.04V295.995C491.079 303.566 497.214 309.704 504.781 309.704H541.028C548.595 309.704 554.73 303.566 554.73 295.995V266.04C554.73 258.468 548.595 252.33 541.028 252.33Z" fill="white" stroke="#717FFF" stroke-miterlimit="10"/>
<path d="M187.295 315.568H150.969C143.423 315.568 137.307 321.689 137.307 329.238V359.273C137.307 366.822 143.423 372.943 150.969 372.943H187.295C194.84 372.943 200.957 366.822 200.957 359.273V329.238C200.957 321.689 194.84 315.568 187.295 315.568Z" fill="#888DFF"/>
<path d="M258.047 315.568H221.721C214.175 315.568 208.059 321.689 208.059 329.238V359.273C208.059 366.822 214.175 372.943 221.721 372.943H258.047C265.592 372.943 271.709 366.822 271.709 359.273V329.238C271.709 321.689 265.592 315.568 258.047 315.568Z" fill="white" stroke="#717FFF" stroke-miterlimit="10"/>
<path d="M328.812 315.568H292.485C284.94 315.568 278.823 321.689 278.823 329.238V359.273C278.823 366.822 284.94 372.943 292.485 372.943H328.812C336.357 372.943 342.474 366.822 342.474 359.273V329.238C342.474 321.689 336.357 315.568 328.812 315.568Z" fill="white" stroke="#717FFF" stroke-miterlimit="10"/>
<path d="M399.564 315.568H363.237C355.692 315.568 349.575 321.689 349.575 329.238V359.273C349.575 366.822 355.692 372.943 363.237 372.943H399.564C407.109 372.943 413.226 366.822 413.226 359.273V329.238C413.226 321.689 407.109 315.568 399.564 315.568Z" fill="white" stroke="#717FFF" stroke-miterlimit="10"/>
<path d="M470.316 315.568H433.99C426.444 315.568 420.328 321.689 420.328 329.238V359.273C420.328 366.822 426.444 372.943 433.99 372.943H470.316C477.861 372.943 483.978 366.822 483.978 359.273V329.238C483.978 321.689 477.861 315.568 470.316 315.568Z" fill="#F2718D"/>
<path d="M541.068 315.568H504.741C497.196 315.568 491.079 321.689 491.079 329.238V359.273C491.079 366.822 497.196 372.943 504.741 372.943H541.068C548.613 372.943 554.73 366.822 554.73 359.273V329.238C554.73 321.689 548.613 315.568 541.068 315.568Z" fill="white" stroke="#717FFF" stroke-miterlimit="10"/>
<path d="M594 61.2671V90.1127H101.64V61.2671C101.64 55.5085 105.771 50.833 110.88 50.833H584.76C589.881 50.833 594 55.5085 594 61.2671Z" fill="white" stroke="#E54985" stroke-miterlimit="10"/>
<path d="M503.686 567.175C495.766 559.409 469.669 534.922 482.394 514.503C498.445 488.748 527.274 503.619 520.991 473.11C514.708 442.6 509.982 426.645 540.553 413.794C571.125 400.943 559.363 388.699 561.964 371.186C565.316 348.455 590.027 331.206 617.536 340.636C638.748 347.914 634.696 390.218 620.176 402.528C605.656 414.837 636.491 425.522 623.911 454.936C611.332 484.349 579.797 474.113 582.12 497.042C582.675 502.668 592.126 529.137 585.974 544.471C582.886 552.158 576.312 560.122 563.534 566.726" stroke="#7189FF" stroke-miterlimit="10"/>
<path d="M515.948 566.977L523.472 549.661C529.711 535.344 535.972 521.036 542.256 506.736C550.246 488.545 558.28 470.375 566.359 452.228C574.173 434.715 582.027 417.214 590.119 399.793C595.768 387.523 601.392 375.201 607.596 363.182C608.071 362.27 608.546 361.346 609.034 360.434C609.338 359.88 608.48 359.378 608.176 359.933C602.289 370.935 597.115 382.386 591.874 393.639C583.954 410.703 576.246 427.86 568.563 445.03C560.379 463.336 552.257 481.664 544.196 500.014C537.605 514.982 531.04 529.951 524.502 544.92L518.232 559.343C517.255 561.575 516.093 563.82 515.288 566.118C515.252 566.219 515.208 566.316 515.156 566.409C514.905 566.99 515.763 567.492 516.014 566.911L515.948 566.977Z" fill="#7189FF"/>
<path d="M572.656 437.911L608.903 435.904L614.183 435.613C614.817 435.613 614.817 434.596 614.183 434.623L577.949 436.63L572.669 436.921C572.036 436.921 572.036 437.951 572.669 437.911H572.656Z" fill="#7189FF"/>
<path d="M530.772 532.439L571.124 527.895L576.932 527.235C577.553 527.169 577.566 526.178 576.932 526.244L536.58 530.788L530.772 531.448C530.152 531.514 530.152 532.505 530.772 532.439Z" fill="#7189FF"/>
<path d="M527.234 428.837L535.458 447.328L548.578 476.808L551.601 483.57C551.852 484.151 552.71 483.649 552.459 483.081L544.222 464.591L531.102 435.111L528.079 428.335C527.828 427.754 526.97 428.256 527.234 428.837Z" fill="#7189FF"/>
<path d="M586.74 366.154C584.707 369.139 581.169 370.274 578.82 368.69C576.47 367.105 576.246 363.406 578.279 360.421C580.311 357.437 583.836 356.301 586.199 357.886C588.561 359.47 588.72 363.182 586.74 366.154Z" fill="#7189FF"/>
<path d="M588.219 382.281C588.219 382.845 588.052 383.396 587.738 383.866C587.425 384.335 586.98 384.7 586.459 384.916C585.938 385.132 585.364 385.189 584.811 385.079C584.258 384.969 583.75 384.697 583.352 384.298C582.953 383.899 582.681 383.391 582.571 382.837C582.461 382.284 582.518 381.71 582.733 381.189C582.949 380.668 583.315 380.222 583.784 379.909C584.252 379.595 584.804 379.428 585.368 379.428C585.742 379.428 586.113 379.502 586.459 379.645C586.805 379.788 587.119 379.998 587.384 380.263C587.648 380.528 587.858 380.843 588.002 381.189C588.145 381.535 588.219 381.906 588.219 382.281Z" fill="#7189FF"/>
<path d="M608.903 455.873C608.903 456.971 608.578 458.043 607.969 458.955C607.359 459.868 606.494 460.579 605.481 460.998C604.467 461.418 603.353 461.528 602.277 461.314C601.202 461.1 600.214 460.572 599.439 459.796C598.663 459.02 598.135 458.032 597.921 456.956C597.708 455.88 597.817 454.764 598.237 453.751C598.657 452.737 599.367 451.871 600.279 451.261C601.191 450.652 602.262 450.326 603.359 450.326C604.829 450.326 606.239 450.911 607.279 451.951C608.319 452.991 608.903 454.402 608.903 455.873Z" fill="#7189FF"/>
<path fill-rule="evenodd" clip-rule="evenodd" d="M624.408 228.509C625.963 230.134 627.295 231.959 628.368 233.937L634.624 233.805L637.119 243.856L631.522 246.669C631.495 248.932 631.157 251.181 630.519 253.352L635.034 257.684L629.754 266.547L623.814 264.592C622.19 266.149 620.365 267.481 618.388 268.554L618.507 274.815L608.475 277.311L605.65 271.711C603.393 271.685 601.15 271.347 598.984 270.707L594.655 275.224L585.784 269.941L587.751 263.998C586.198 262.37 584.867 260.545 583.791 258.569L577.534 258.688L575 248.624L580.584 245.811C580.629 243.575 580.966 241.355 581.587 239.207L577.086 234.875L582.366 225.999L588.306 227.967C589.93 226.41 591.754 225.078 593.731 224.005L593.599 217.744L603.644 215.248L606.456 220.835C608.716 220.875 610.962 221.213 613.135 221.839L617.464 217.322L626.322 222.671L624.368 228.614L624.408 228.509ZM612.198 236.975C610.316 235.842 608.141 235.292 605.948 235.396C603.755 235.5 601.642 236.252 599.876 237.558C598.11 238.864 596.77 240.664 596.027 242.731C595.284 244.799 595.17 247.04 595.7 249.172C596.23 251.304 597.38 253.231 599.004 254.71C600.629 256.188 602.655 257.151 604.826 257.476C606.998 257.802 609.217 257.476 611.204 256.54C613.19 255.604 614.854 254.099 615.986 252.216C616.739 250.967 617.238 249.582 617.455 248.139C617.672 246.696 617.603 245.225 617.251 243.809C616.899 242.394 616.272 241.061 615.405 239.888C614.537 238.716 613.448 237.726 612.198 236.975Z" fill="#EC4E70"/>
<path fill-rule="evenodd" clip-rule="evenodd" d="M415.003 402.037C416.588 402.866 418.057 403.901 419.372 405.114L424.045 403.45L428.441 410.384L424.93 413.897C425.478 415.608 425.789 417.385 425.854 419.18L430.328 421.307L428.533 429.311H423.583C422.752 430.898 421.713 432.369 420.494 433.682L422.158 438.358L415.228 442.756L411.716 439.23C410.005 439.768 408.229 440.074 406.436 440.141L404.311 444.632L396.299 442.835V437.909C394.71 437.085 393.24 436.05 391.93 434.832L387.257 436.496L382.861 429.562L386.386 426.022C385.848 424.309 385.542 422.533 385.475 420.739L381 418.612L382.795 410.595H387.706C388.536 409.003 389.575 407.528 390.794 406.21L389.131 401.535L396.061 397.15L399.572 400.65C401.283 400.108 403.059 399.797 404.852 399.725L406.978 395.248L414.99 397.044V402.01L415.003 402.037ZM407.941 411.494C406.245 411.102 404.47 411.223 402.842 411.84C401.214 412.458 399.805 413.545 398.794 414.963C397.783 416.382 397.215 418.068 397.162 419.81C397.109 421.551 397.574 423.269 398.496 424.747C399.419 426.224 400.759 427.395 402.347 428.11C403.935 428.826 405.699 429.054 407.416 428.766C409.133 428.479 410.727 427.688 411.995 426.494C413.263 425.301 414.149 423.757 414.541 422.06C415.059 419.783 414.656 417.394 413.419 415.414C412.183 413.435 410.213 412.025 407.941 411.494Z" fill="#F2718D"/>
<path fill-rule="evenodd" clip-rule="evenodd" d="M257.816 67.197C258.972 67.8016 260.045 68.5558 261.004 69.4403L264.415 68.2271L267.622 73.282L265.06 75.8431C265.46 77.09 265.687 78.3858 265.734 79.6944L269 81.2445L267.69 87.0793H264.077C263.47 88.2367 262.712 89.3084 261.823 90.2662L263.037 93.6746L257.979 96.8808L255.417 94.3101C254.168 94.7023 252.872 94.9257 251.564 94.9744L250.013 98.248L244.165 96.9386V93.3472C243.006 92.7469 241.933 91.9922 240.976 91.1039L237.566 92.317L234.358 87.2622L236.93 84.6818C236.538 83.4334 236.314 82.1382 236.266 80.8305L233 79.2804L234.31 73.4361H237.894C238.5 72.2751 239.258 71.2001 240.148 70.2395L238.934 66.8311L243.992 63.6345L246.554 66.186C247.803 65.7906 249.099 65.564 250.408 65.512L251.959 62.248L257.806 63.5575V67.1777L257.816 67.197ZM252.662 74.0908C251.424 73.8053 250.128 73.8933 248.94 74.3435C247.752 74.7937 246.724 75.5859 245.986 76.6201C245.248 77.6542 244.834 78.8837 244.795 80.1532C244.757 81.4227 245.095 82.6752 245.769 83.7522C246.442 84.8292 247.42 85.6825 248.579 86.2041C249.738 86.7256 251.025 86.8921 252.278 86.6825C253.532 86.4728 254.695 85.8964 255.62 85.0261C256.546 84.1559 257.193 83.0309 257.478 81.7934C257.857 80.1339 257.562 78.3923 256.66 76.949C255.757 75.5058 254.32 74.4782 252.662 74.0908Z" fill="#F2718D"/>
<path d="M54.8723 566.977H598.052" stroke="#161522" stroke-miterlimit="10" stroke-linecap="round"/>
<path d="M237.368 559.497C225.406 561.607 219.128 560.372 187.457 560.372C157.274 560.372 135.627 556.696 128.959 555.034C122.291 553.373 114.032 551.756 114.032 551.756C114.032 551.756 137.208 539.397 163.222 539.081C189.236 538.765 232.067 551.241 233.019 551.664C233.971 552.086 237.368 559.497 237.368 559.497Z" fill="#DFDEDE"/>
<mask id="mask0_1_220" style="mask-type:luminance" maskUnits="userSpaceOnUse" x="114" y="539" width="124" height="22">
<path d="M237.367 559.497C225.406 561.607 219.128 560.372 187.457 560.372C157.274 560.372 135.627 556.696 128.959 555.034C122.291 553.373 114.031 551.756 114.031 551.756C114.031 551.756 137.208 539.397 163.222 539.081C189.236 538.765 232.067 551.241 233.019 551.664C233.971 552.086 237.367 559.497 237.367 559.497Z" fill="white"/>
</mask>
<g mask="url(#mask0_1_220)">
<path d="M212.133 288.704C209.85 265.609 214.298 237.121 215.026 232.713C218.937 231.952 240.022 226.832 237.684 206.14C236.924 199.458 236.516 192.74 236.46 186.015C236.375 180.924 236.331 178.369 235.022 176.928C232.196 173.811 228.406 172.15 221.341 169.239C204.23 162.174 192.669 157.145 190.489 156.182L187.758 145.195C187.722 145.052 187.648 144.921 187.546 144.814C187.444 144.708 187.315 144.63 187.174 144.588C187.031 144.546 186.881 144.543 186.737 144.579C186.593 144.614 186.461 144.687 186.354 144.79C186.247 144.89 175.657 154.833 160.329 154.833C151.731 154.833 150.915 152.326 150.911 152.326C150.885 152.123 150.785 151.937 150.632 151.802C150.479 151.667 150.281 151.592 150.077 151.591C149.873 151.593 149.676 151.668 149.523 151.803C149.369 151.938 149.27 152.124 149.243 152.326L148.059 160.586C144.155 161.957 119.714 170.658 115.983 174.977C115.907 175.063 115.85 175.165 115.815 175.275C115.78 175.385 115.769 175.501 115.781 175.616C115.818 175.984 119.501 211.21 120.067 221.932C120.652 232.904 120.802 261.032 120.354 276.654C120.086 286.094 113.256 550.752 113.19 553.428C113.184 553.611 113.239 553.791 113.345 553.94C113.451 554.089 113.603 554.2 113.778 554.255C113.94 554.305 114.113 554.306 114.275 554.258C114.438 554.21 114.582 554.114 114.69 553.983C114.862 553.836 118.292 551.285 138.347 555.674C143.236 556.744 147.313 557.861 151.253 558.945C159.483 561.206 166.324 563.092 175.881 563.092C182.204 563.092 189.71 562.265 199.576 560.169C229.935 553.718 236.64 561.64 236.702 561.699C236.813 561.846 236.969 561.954 237.146 562.004C237.323 562.055 237.512 562.047 237.684 561.98C237.856 561.913 238.002 561.792 238.098 561.635C238.195 561.478 238.238 561.294 238.22 561.111C237.974 558.64 214.614 313.803 212.133 288.704Z" fill="#C2C2C1"/>
</g>
<path d="M237.368 559.497C225.406 561.607 219.128 560.372 187.457 560.372C157.274 560.372 135.627 556.696 128.959 555.034C122.291 553.373 114.032 551.756 114.032 551.756C114.032 551.756 137.208 539.397 163.222 539.081C189.236 538.765 232.067 551.241 233.019 551.664C233.971 552.086 237.368 559.497 237.368 559.497Z" stroke="#302D30" stroke-linecap="round" stroke-linejoin="round"/>
<path d="M148.721 559.894C148.721 559.894 149.048 563.871 148.963 564.985C148.879 566.099 137.476 567.191 137.476 567.191L137.248 563.882C137.248 563.882 132.793 565.57 129.29 568.33C122.335 573.811 121.203 575.906 107.459 575.906C93.7152 575.906 91.811 572.458 91.9103 570.267L92.3514 568.161L144.828 558.843L148.713 559.883" fill="#423940"/>
<path d="M148.721 559.894C148.721 559.894 149.048 563.871 148.963 564.985C148.879 566.099 137.476 567.191 137.476 567.191L137.248 563.882C137.248 563.882 132.793 565.57 129.29 568.33C122.335 573.811 121.203 575.906 107.459 575.906C93.7152 575.906 91.811 572.458 91.9103 570.267L92.3514 568.161L144.828 558.843L148.713 559.883" stroke="#302D30" stroke-linecap="round" stroke-linejoin="round"/>
<path d="M229.909 574.064C229.593 578.872 223.326 583.067 214.122 584.695C207.74 585.827 199.198 578.766 199.3 575.322V572.598L229.909 571.344V574.064Z" fill="#423940" stroke="#302D30" stroke-linecap="round" stroke-linejoin="round"/>
<path d="M148.728 551.091V559.365C148.728 562.383 136.866 560.659 129.29 565.246C121.714 569.834 121.203 572.818 107.459 572.818C93.7151 572.818 91.3221 569.411 92.6087 567.632C94.1856 565.452 98.0453 563.441 104.324 560.548C110.602 557.656 113.94 553.88 119.027 548.499L148.728 551.091ZM223.535 555.535C223.013 551.568 214.61 548.745 214.61 548.745L202.906 552.175C202.906 556.468 203.274 560.023 202.906 562.53C202.539 565.037 199.411 568.485 199.304 571.933C199.197 575.381 207.74 582.42 214.125 581.31C223.263 579.714 229.597 575.484 229.913 570.679C230.229 565.875 224.057 559.504 223.535 555.535Z" fill="#5E595E"/>
<mask id="mask1_1_220" style="mask-type:luminance" maskUnits="userSpaceOnUse" x="92" y="548" width="138" height="34">
<path d="M148.728 551.091V559.365C148.728 562.383 136.866 560.659 129.29 565.246C121.714 569.834 121.203 572.818 107.459 572.818C93.7151 572.818 91.3221 569.411 92.6087 567.632C94.1856 565.452 98.0453 563.441 104.324 560.548C110.602 557.656 113.94 553.88 119.027 548.499L148.728 551.091ZM223.535 555.535C223.013 551.568 214.61 548.745 214.61 548.745L202.906 552.175C202.906 556.468 203.274 560.023 202.906 562.53C202.539 565.037 199.411 568.485 199.304 571.933C199.197 575.381 207.74 582.42 214.125 581.31C223.263 579.714 229.597 575.484 229.913 570.679C230.229 565.875 224.057 559.504 223.535 555.535Z" fill="white"/>
</mask>
<g mask="url(#mask1_1_220)">
<path d="M212.133 288.704C209.85 265.609 214.298 237.121 215.026 232.714C218.937 231.953 240.022 226.832 237.684 206.141C236.924 199.458 236.516 192.741 236.46 186.016C236.375 180.924 236.331 178.37 235.022 176.929C232.196 173.812 228.406 172.15 221.341 169.239C204.23 162.174 192.669 157.145 190.489 156.182L187.758 145.195C187.722 145.052 187.648 144.921 187.546 144.815C187.444 144.708 187.315 144.63 187.174 144.589C187.031 144.547 186.881 144.543 186.737 144.579C186.593 144.614 186.461 144.688 186.354 144.791C186.247 144.89 175.657 154.833 160.329 154.833C151.731 154.833 150.915 152.326 150.911 152.326C150.885 152.124 150.785 151.937 150.632 151.802C150.479 151.667 150.281 151.592 150.077 151.591C149.873 151.593 149.676 151.668 149.523 151.803C149.369 151.938 149.27 152.124 149.243 152.326L148.059 160.586C144.155 161.957 119.714 170.658 115.983 174.977C115.907 175.064 115.85 175.165 115.815 175.275C115.78 175.386 115.769 175.502 115.781 175.617C115.818 175.984 119.501 211.21 120.067 221.932C120.652 232.905 120.802 261.032 120.354 276.655C120.086 286.094 113.256 550.752 113.19 553.428C113.184 553.611 113.239 553.791 113.345 553.94C113.451 554.09 113.603 554.2 113.778 554.255C113.94 554.306 114.113 554.307 114.275 554.258C114.438 554.21 114.582 554.114 114.69 553.983C114.862 553.836 118.292 551.285 138.347 555.674C143.236 556.744 147.313 557.861 151.253 558.946C159.483 561.206 166.324 563.092 175.881 563.092C182.204 563.092 189.71 562.265 199.576 560.17C229.935 553.719 236.64 561.64 236.702 561.699C236.813 561.847 236.969 561.954 237.146 562.005C237.323 562.056 237.512 562.047 237.684 561.98C237.856 561.914 238.002 561.793 238.098 561.636C238.195 561.479 238.238 561.294 238.22 561.111C237.974 558.641 214.614 313.803 212.133 288.704Z" fill="#4A454A"/>
</g>
<path d="M148.728 551.091V559.365C148.728 562.383 136.866 560.659 129.29 565.246C121.714 569.834 121.203 572.818 107.459 572.818C93.7151 572.818 91.3221 569.411 92.6087 567.632C94.1856 565.452 98.0453 563.441 104.324 560.548C110.602 557.656 113.94 553.88 119.027 548.499L148.728 551.091ZM223.535 555.535C223.013 551.568 214.61 548.745 214.61 548.745L202.906 552.175C202.906 556.468 203.274 560.023 202.906 562.53C202.539 565.037 199.411 568.485 199.304 571.933C199.197 575.381 207.74 582.42 214.125 581.31C223.263 579.714 229.597 575.484 229.913 570.679C230.229 565.875 224.057 559.504 223.535 555.535Z" stroke="#302D30" stroke-linecap="round" stroke-linejoin="round"/>
<path d="M121.089 563.643C119.81 561.221 116.756 558.409 118.843 554.888C120.29 552.577 122.098 550.515 124.199 548.778" stroke="#302D30" stroke-linecap="round" stroke-linejoin="round"/>
<path d="M109.948 557.225C113.44 556.174 114.568 555.597 116.197 553.998C117.825 552.399 121.435 548.609 121.435 548.609" stroke="#302D30" stroke-linecap="round" stroke-linejoin="round"/>
<path d="M120.247 556.078C120.247 556.078 118.807 554.498 114.388 553.983" stroke="#302D30" stroke-linecap="round" stroke-linejoin="round"/>
<path d="M122.358 552.671C118.516 550.851 117.123 551.02 117.123 551.02" stroke="#302D30" stroke-linecap="round" stroke-linejoin="round"/>
<path d="M108.764 564.867C107.745 563.835 106.499 563.055 105.125 562.59C103.751 562.125 102.287 561.987 100.85 562.188" stroke="#302D30" stroke-linecap="round" stroke-linejoin="round"/>
<path d="M205.435 572.392C207.538 570.028 215.294 569.51 220.488 571.627" stroke="#302D30" stroke-linecap="round" stroke-linejoin="round"/>
<path d="M201.826 565.272C207.876 561.842 211.111 555.38 210.707 549.635" stroke="#302D30" stroke-linecap="round" stroke-linejoin="round"/>
<path d="M224.098 564.537C217.591 559.843 214.618 557.185 214.735 550.344" stroke="#302D30" stroke-linecap="round" stroke-linejoin="round"/>
<path d="M219.099 557.394C214.868 554.821 208.806 555.189 206.829 557.394" stroke="#302D30" stroke-linecap="round" stroke-linejoin="round"/>
<path d="M219.099 553.381C214.868 550.807 208.806 551.175 206.829 553.381" stroke="#302D30" stroke-linecap="round" stroke-linejoin="round"/>
<path d="M135.19 126.011C133.381 129.521 135.642 133.293 133.312 138.652C130.103 146.004 127.022 168.835 127.022 168.835L166.615 158.888L165.24 99.442L142.255 93.6855C142.255 93.6855 141.92 105.97 139.083 108.871C136.245 111.771 135.19 126.011 135.19 126.011Z" fill="#DFDEDE"/>
<mask id="mask2_1_220" style="mask-type:luminance" maskUnits="userSpaceOnUse" x="127" y="93" width="40" height="76">
<path d="M135.19 126.011C133.381 129.521 135.642 133.293 133.312 138.652C130.103 146.004 127.022 168.835 127.022 168.835L166.615 158.888L165.24 99.442L142.255 93.6855C142.255 93.6855 141.92 105.97 139.083 108.871C136.245 111.771 135.19 126.011 135.19 126.011Z" fill="white"/>
</mask>
<g mask="url(#mask2_1_220)">
<path d="M158.293 106.775C153.643 96.5638 126.342 113.212 121.986 119.883C118.178 125.717 122.196 147.82 127.133 154.94C123.361 156.631 109.952 163.145 123.203 164.828C138.473 166.765 159.616 162.77 159.043 142.953C158.469 123.137 158.293 106.775 158.293 106.775ZM136.973 156.263C134.885 157.973 132.723 156.421 133.87 154.315C136.396 149.684 140.73 136.811 140.73 131.562C140.73 128.588 141.299 130.742 142.064 131.282C144.181 132.778 142.064 144.42 143.608 149.775C144.766 153.834 141.211 152.779 136.962 156.263H136.973Z" fill="#C2C2C1"/>
</g>
<path d="M135.19 126.011C133.381 129.521 135.642 133.293 133.312 138.652C130.103 146.004 127.022 168.835 127.022 168.835L166.615 158.888L165.24 99.442L142.255 93.6855C142.255 93.6855 141.92 105.97 139.083 108.871C136.245 111.771 135.19 126.011 135.19 126.011Z" stroke="#302D30" stroke-linecap="round" stroke-linejoin="round"/>
<path d="M195.132 126.011C196.94 129.521 194.68 133.293 197.01 138.652C200.219 146.004 203.3 164.674 203.3 164.674L165.071 152.426V99.442L188.041 93.6855C188.041 93.6855 188.376 105.97 191.213 108.871C194.051 111.771 195.132 126.011 195.132 126.011Z" fill="#DFDEDE"/>
<mask id="mask3_1_220" style="mask-type:luminance" maskUnits="userSpaceOnUse" x="165" y="93" width="39" height="72">
<path d="M195.132 126.011C196.94 129.521 194.68 133.293 197.01 138.652C200.219 146.004 203.3 164.674 203.3 164.674L165.071 152.426V99.442L188.041 93.6855C188.041 93.6855 188.376 105.97 191.213 108.871C194.051 111.771 195.132 126.011 195.132 126.011Z" fill="white"/>
</mask>
<g mask="url(#mask3_1_220)">
<path d="M171.261 142.953C170.687 162.77 191.846 166.765 207.101 164.828C220.352 163.145 206.942 156.631 203.171 154.94C208.126 147.824 212.144 125.717 208.336 119.883C203.976 113.212 176.675 96.5638 172.029 106.775C172.029 106.775 171.834 123.133 171.261 142.953ZM186.725 149.775C188.265 144.42 186.152 132.778 188.265 131.282C189.034 130.742 189.603 128.588 189.603 131.562C189.603 136.811 193.937 149.684 196.463 154.315C197.609 156.421 195.444 157.991 193.36 156.263C189.111 152.779 185.556 153.834 186.733 149.775H186.725Z" fill="#C2C2C1"/>
</g>
<path d="M195.132 126.011C196.94 129.521 194.68 133.293 197.01 138.652C200.219 146.004 203.3 164.674 203.3 164.674L165.071 152.426V99.442L188.041 93.6855C188.041 93.6855 188.376 105.97 191.213 108.871C194.051 111.771 195.132 126.011 195.132 126.011Z" stroke="#302D30" stroke-linecap="round" stroke-linejoin="round"/>
<path d="M168.625 164.791L187.652 159.068L185.534 131.341L168.625 138.726H168.622L150.72 139.534L149.592 159.068L168.622 164.791H168.625Z" fill="#E49E5F" stroke="#302E30" stroke-linecap="round" stroke-linejoin="round"/>
<path d="M116.62 173.841C113.646 179.619 108.165 263.513 108.165 263.513L124.967 266.322C124.967 266.322 127.114 246.998 127.445 241.55C127.776 236.102 125.111 214.632 121.597 203.402C118.083 192.172 117.281 180.612 116.62 173.841Z" fill="white"/>
<mask id="mask4_1_220" style="mask-type:luminance" maskUnits="userSpaceOnUse" x="108" y="173" width="20" height="94">
<path d="M116.62 173.841C113.646 179.619 108.165 263.513 108.165 263.513L124.967 266.322C124.967 266.322 127.114 246.998 127.445 241.55C127.776 236.102 125.111 214.632 121.597 203.402C118.083 192.172 117.281 180.612 116.62 173.841Z" fill="white"/>
</mask>
<g mask="url(#mask4_1_220)">
<path d="M116.822 175.804C120.733 190.415 119.292 241.546 117.836 247.806C116.381 254.066 108.713 255.232 112.01 256.077C115.307 256.922 113.366 259.984 112.01 260.392C110.654 260.801 110.051 268.751 120.336 268.847C130.621 268.943 131.205 264.094 131.205 232.489C131.205 200.884 116.822 175.804 116.822 175.804Z" fill="#DFDEDE"/>
</g>
<path d="M116.62 173.841C113.646 179.619 108.165 263.513 108.165 263.513L124.967 266.322C124.967 266.322 127.114 246.998 127.445 241.55C127.776 236.102 125.111 214.632 121.597 203.402C118.083 192.172 117.281 180.612 116.62 173.841Z" stroke="#302D30" stroke-linecap="round" stroke-linejoin="round"/>
<path d="M125.794 256.868C123.03 255.967 119.939 255.842 117.145 254.868C116.13 254.562 115.208 254.004 114.465 253.247C114.438 253.214 114.422 253.172 114.423 253.128C114.423 253.085 114.438 253.043 114.467 253.01C114.495 252.977 114.534 252.955 114.577 252.948C114.619 252.941 114.663 252.949 114.701 252.971C116.439 253.85 118.413 253.975 120.332 254.225C122.376 254.475 124.376 254.574 126.386 255.283C126.49 255.322 126.586 255.381 126.667 255.457C126.748 255.533 126.814 255.624 126.86 255.725C126.906 255.826 126.932 255.935 126.935 256.046C126.939 256.157 126.921 256.267 126.882 256.372C126.844 256.476 126.785 256.571 126.709 256.652C126.633 256.733 126.542 256.799 126.441 256.845C126.34 256.891 126.231 256.917 126.12 256.921C126.009 256.925 125.898 256.907 125.794 256.868Z" fill="#302D30"/>
<path d="M124.684 262.94C123.376 260.874 121.008 259.837 118.671 259.334C116.167 258.786 113.554 258.723 110.981 258.738C110.956 258.742 110.932 258.742 110.908 258.736C110.884 258.731 110.861 258.721 110.841 258.706C110.822 258.692 110.805 258.674 110.791 258.654C110.778 258.633 110.77 258.61 110.766 258.586C110.761 258.561 110.762 258.537 110.768 258.513C110.773 258.489 110.783 258.466 110.797 258.447C110.811 258.427 110.829 258.41 110.85 258.397C110.871 258.384 110.894 258.375 110.918 258.371C112.212 258.015 113.541 257.803 114.881 257.738C116.231 257.662 117.586 257.722 118.924 257.918C121.677 258.323 124.585 259.529 126.118 262.043C126.236 262.234 126.273 262.464 126.221 262.683C126.17 262.901 126.033 263.09 125.842 263.208C125.651 263.326 125.421 263.363 125.202 263.312C124.984 263.26 124.795 263.123 124.677 262.932L124.684 262.94Z" fill="#302D30"/>
<path d="M211.291 287.094C208.781 261.709 214.291 230.295 214.291 230.295C214.291 230.295 239.353 226.689 236.842 204.546C234.684 185.494 236.522 178.146 234.398 175.804C231.758 172.897 228.369 171.364 221.018 168.327C201.807 160.399 189.773 155.094 189.773 155.094L186.942 143.699C186.942 143.699 176.176 153.992 160.333 153.992C150.559 153.992 150.081 150.761 150.081 150.761L148.824 159.531C148.824 159.531 120.49 169.368 116.623 173.845C116.623 173.845 120.336 209.335 120.913 220.201C121.49 231.067 121.648 259.055 121.2 274.99C120.928 284.547 114.035 551.76 114.035 551.76C114.035 551.76 116.359 548.308 138.528 553.16C160.697 558.012 167.872 564.346 199.396 557.652C230.92 550.958 237.371 559.49 237.371 559.49C237.371 559.49 213.802 312.484 211.291 287.094Z" fill="white"/>
<mask id="mask5_1_220" style="mask-type:luminance" maskUnits="userSpaceOnUse" x="114" y="143" width="124" height="418">
<path d="M211.291 287.094C208.781 261.709 214.291 230.295 214.291 230.295C214.291 230.295 239.353 226.689 236.842 204.546C234.684 185.494 236.522 178.146 234.398 175.804C231.758 172.897 228.369 171.364 221.018 168.327C201.807 160.399 189.773 155.094 189.773 155.094L186.942 143.699C186.942 143.699 176.176 153.992 160.333 153.992C150.559 153.992 150.081 150.761 150.081 150.761L148.824 159.531C148.824 159.531 120.49 169.368 116.623 173.845C116.623 173.845 120.336 209.335 120.913 220.201C121.49 231.067 121.648 259.055 121.2 274.99C120.928 284.547 114.035 551.76 114.035 551.76C114.035 551.76 116.359 548.308 138.528 553.16C160.697 558.012 167.872 564.346 199.396 557.652C230.92 550.958 237.371 559.49 237.371 559.49C237.371 559.49 213.802 312.484 211.291 287.094Z" fill="white"/>
</mask>
<g mask="url(#mask5_1_220)">
<path d="M156.348 392.18C160.55 399.531 164.593 447.876 170.372 458.437C176.15 468.998 198.558 532.527 200.922 536.733C203.285 540.938 189.526 518.721 175.698 491.979C161.869 465.237 165.236 480.782 159.524 450.593C153.812 420.403 156.348 392.18 156.348 392.18Z" fill="#DFDEDE"/>
<path d="M220.628 200.929C217.298 212.408 208.329 235.268 207.542 245.245C206.755 255.221 204.41 278.916 207.299 292.568C210.188 306.22 212.42 380.954 214.486 399.995C216.162 415.433 221.051 462.216 224.987 480.33C228.924 498.445 235.28 554.425 234.287 560.732C233.295 567.04 240.477 568.544 255.442 558.832C270.406 549.12 263.584 510.259 264.371 484.267C265.157 458.275 224.37 208.527 224.37 208.527L220.628 200.929Z" fill="#DFDEDE"/>
<path d="M155.415 560.313C155.415 560.313 148.588 484.532 144.913 462.741C141.237 440.951 133.889 411.022 139.682 422.05C145.475 433.077 168.559 524.18 171.188 532.325C173.816 540.471 172.493 506.594 172.496 503.709C172.5 500.823 184.586 524.187 194.82 539.412C205.053 554.638 209.78 561.791 201.116 562.155C192.452 562.519 155.415 560.313 155.415 560.313Z" fill="#DFDEDE"/>
<path d="M203.373 215.485C203.373 220.877 203.44 232.677 205.491 238.959C207.542 245.241 202.138 242.767 193.257 241.183C184.377 239.599 176.231 237.507 176.231 237.507L203.373 215.485Z" fill="#DFDEDE"/>
<path d="M183.63 143.71C184.057 148.856 181.3 158.73 175.698 163.155C170.096 167.581 180.337 156.219 195.055 160.395C209.773 164.571 214.724 166.427 221.018 168.327C228.042 170.456 208.634 159.322 201.822 151.143C195.011 142.964 189.905 139.42 188.42 141.564C186.935 143.707 183.63 143.71 183.63 143.71Z" fill="#DFDEDE"/>
<path d="M148.725 157.719C148.28 160.722 150.169 164.438 153.227 165.324C156.286 166.21 146.295 162.336 136.458 164.104C128.268 165.574 129.492 164.949 134.642 162.424C139.792 159.899 148.725 157.719 148.725 157.719Z" fill="#DFDEDE"/>
<path d="M115.855 264.797C115.855 264.797 118.211 309.484 120.336 294.167C122.019 282.036 139.112 280.691 148.86 276.986C158.05 273.49 162.763 272.207 162.763 272.207L151.794 272.42L115.855 264.797Z" fill="#DFDEDE"/>
</g>
<path d="M211.291 287.094C208.781 261.709 214.291 230.295 214.291 230.295C214.291 230.295 239.353 226.689 236.842 204.546C234.684 185.494 236.522 178.146 234.398 175.804C231.758 172.897 228.369 171.364 221.018 168.327C201.807 160.399 189.773 155.094 189.773 155.094L186.942 143.699C186.942 143.699 176.176 153.992 160.333 153.992C150.559 153.992 150.081 150.761 150.081 150.761L148.824 159.531C148.824 159.531 120.49 169.368 116.623 173.845C116.623 173.845 120.336 209.335 120.913 220.201C121.49 231.067 121.648 259.055 121.2 274.99C120.928 284.547 114.035 551.76 114.035 551.76C114.035 551.76 116.359 548.308 138.528 553.16C160.697 558.012 167.872 564.346 199.396 557.652C230.92 550.958 237.371 559.49 237.371 559.49C237.371 559.49 213.802 312.484 211.291 287.094Z" stroke="#302D30" stroke-linecap="round" stroke-linejoin="round"/>
<path d="M90.3186 282.624C90.6862 292.049 91.7118 298.937 93.8548 299.423C95.9978 299.908 107.599 290.358 107.599 290.358L106.128 264.627H90.3223L90.3186 282.624Z" fill="#DFDEDE"/>
<mask id="mask6_1_220" style="mask-type:luminance" maskUnits="userSpaceOnUse" x="90" y="264" width="18" height="36">
<path d="M90.3186 282.624C90.6862 292.049 91.7118 298.937 93.8548 299.423C95.9978 299.908 107.599 290.358 107.599 290.358L106.128 264.627H90.3223L90.3186 282.624Z" fill="white"/>
</mask>
<g mask="url(#mask6_1_220)">
<path d="M88.7932 292.828C90.6789 288.689 92.8145 286.789 96.3029 287.094C99.7913 287.399 97.6593 298.448 96.3029 301.165C94.9465 303.881 107.944 296.511 105.904 288.95C103.864 281.389 97.5343 276.228 91.7816 278.323C86.0289 280.418 84.2314 287.98 85.8083 289.917C86.6735 291.012 87.6768 291.991 88.7932 292.828Z" fill="#C2C2C1"/>
</g>
<path d="M90.3186 282.624C90.6862 292.049 91.7118 298.937 93.8548 299.423C95.9978 299.908 107.599 290.358 107.599 290.358L106.128 264.627H90.3223L90.3186 282.624Z" stroke="#302D30" stroke-linecap="round" stroke-linejoin="round"/>
<path d="M60.2834 268.318C55.8503 267.726 52.7479 268.685 52.9868 271.372C53.2257 274.059 61.2391 273.243 63.8049 274.272C66.3706 275.302 60.2834 268.318 60.2834 268.318Z" fill="#E49E5F" stroke="#302D30" stroke-linecap="round" stroke-linejoin="round"/>
<path d="M80.0557 273.048L102.552 276.327L161.116 271.387C161.898 271.321 162.628 270.964 163.16 270.386C163.691 269.808 163.986 269.051 163.986 268.266V266.836L80.0557 273.048Z" fill="#9B99A3"/>
<mask id="mask7_1_220" style="mask-type:luminance" maskUnits="userSpaceOnUse" x="80" y="266" width="84" height="11">
<path d="M80.0557 273.048L102.552 276.327L161.116 271.387C161.898 271.321 162.628 270.964 163.16 270.386C163.691 269.808 163.986 269.051 163.986 268.266V266.836L80.0557 273.048Z" fill="white"/>
</mask>
<g mask="url(#mask7_1_220)">
<path d="M152.514 261.241C149.625 267.424 130.04 275.103 116.079 279.407C102.118 283.712 142.942 288.755 159.564 283.521C176.187 278.286 177.789 273.331 170.757 268.148C163.725 262.965 152.514 261.241 152.514 261.241Z" fill="#818088"/>
</g>
<path d="M80.0557 273.048L102.552 276.327L161.116 271.387C161.898 271.321 162.628 270.964 163.16 270.386C163.691 269.808 163.986 269.051 163.986 268.266V266.836L80.0557 273.048Z" stroke="#302D30" stroke-linecap="round" stroke-linejoin="round"/>
<path d="M80.0557 268.737L102.556 272.019L163.986 266.836L96.4904 257.569L57.1992 261.333L80.0557 268.737Z" fill="#CBC9D6"/>
<mask id="mask8_1_220" style="mask-type:luminance" maskUnits="userSpaceOnUse" x="57" y="257" width="107" height="16">
<path d="M80.0557 268.74L102.552 272.019L163.986 266.836L96.4867 257.569L57.1992 261.337L80.0557 268.74Z" fill="white"/>
</mask>
<g mask="url(#mask8_1_220)">
<path d="M90.3186 262.091C115.634 268.656 171.79 266.836 171.79 266.836L94.7517 274.379L80.7614 264.796L90.3186 262.091Z" fill="#B2B0BB"/>
</g>
<path d="M80.0557 268.737L102.556 272.019L163.986 266.836L96.4904 257.569L57.1992 261.333L80.0557 268.737Z" stroke="#302D30" stroke-linecap="round" stroke-linejoin="round"/>
<path d="M69.1384 268.987L84.7424 271.262L127.353 267.667L80.5372 261.238L53.2844 263.852L69.1384 268.987Z" fill="#5E595E"/>
<mask id="mask9_1_220" style="mask-type:luminance" maskUnits="userSpaceOnUse" x="53" y="261" width="75" height="11">
<path d="M69.1348 268.987L84.7424 271.263L127.353 267.668L80.5336 261.242L53.2808 263.852L69.1348 268.987Z" fill="white"/>
</mask>
<g mask="url(#mask9_1_220)">
<path d="M86.2202 264.131C111.536 270.696 171.79 266.837 171.79 266.837L94.7518 274.38L80.7615 264.797L86.2202 264.131Z" fill="#4A454A"/>
</g>
<path d="M69.1384 268.987L84.7424 271.262L127.353 267.667L80.5372 261.238L53.2844 263.852L69.1384 268.987Z" stroke="#302D30" stroke-linecap="round" stroke-linejoin="round"/>
<path d="M34.7031 262.076L12.1297 197.896C12.0041 197.537 11.969 197.154 12.0276 196.779C12.0862 196.404 12.2366 196.049 12.4655 195.746C12.6944 195.444 12.9946 195.202 13.3394 195.044C13.6843 194.885 14.063 194.814 14.4418 194.837L71.6417 201.454C73.2874 201.645 74.8439 202.304 76.1262 203.353C77.4085 204.402 78.3628 205.797 78.8759 207.372L99.9716 272.163C100.106 272.579 100.132 273.024 100.046 273.453C99.961 273.883 99.7675 274.283 99.4841 274.617C99.2007 274.951 98.8367 275.207 98.4267 275.361C98.0167 275.515 97.5743 275.562 97.1412 275.497L40.5514 266.928C39.2281 266.726 37.9847 266.168 36.9545 265.313C35.9242 264.458 35.146 263.339 34.7031 262.076Z" fill="#CBC9D6"/>
<mask id="mask10_1_220" style="mask-type:luminance" maskUnits="userSpaceOnUse" x="12" y="194" width="89" height="82">
<path d="M34.7031 262.076L12.1297 197.896C12.0041 197.537 11.969 197.154 12.0276 196.779C12.0862 196.404 12.2366 196.049 12.4655 195.746C12.6944 195.444 12.9946 195.202 13.3394 195.044C13.6843 194.885 14.063 194.814 14.4418 194.837L71.6417 201.454C73.2874 201.645 74.8439 202.304 76.1262 203.353C77.4085 204.402 78.3628 205.797 78.8759 207.372L99.9716 272.163C100.106 272.579 100.132 273.024 100.046 273.453C99.961 273.883 99.7675 274.283 99.4841 274.617C99.2007 274.951 98.8367 275.207 98.4267 275.361C98.0167 275.515 97.5743 275.562 97.1412 275.497L40.5514 266.928C39.2281 266.726 37.9847 266.168 36.9545 265.313C35.9242 264.458 35.146 263.339 34.7031 262.076Z" fill="white"/>
</mask>
<g mask="url(#mask10_1_220)">
<path d="M86.3085 198.649C77.1483 221.458 59.6108 241.046 43.1135 246.59C26.6163 252.133 52.4759 251.368 67.5433 246.016C82.6106 240.664 56.9164 271.501 15.3461 263.252C-26.2241 255.004 80.3316 310.222 96.123 292.325C111.915 274.427 114.837 237.268 108.433 219.267C102.03 201.266 86.3085 198.649 86.3085 198.649Z" fill="#B2B0BB"/>
</g>
<path d="M34.7031 262.076L12.1297 197.896C12.0041 197.537 11.969 197.154 12.0276 196.779C12.0862 196.404 12.2366 196.049 12.4655 195.746C12.6944 195.444 12.9946 195.202 13.3394 195.044C13.6843 194.885 14.063 194.814 14.4418 194.837L71.6417 201.454C73.2874 201.645 74.8439 202.304 76.1262 203.353C77.4085 204.402 78.3628 205.797 78.8759 207.372L99.9716 272.163C100.106 272.579 100.132 273.024 100.046 273.453C99.961 273.883 99.7675 274.283 99.4841 274.617C99.2007 274.951 98.8367 275.207 98.4267 275.361C98.0167 275.515 97.5743 275.562 97.1412 275.497L40.5514 266.928C39.2281 266.726 37.9847 266.168 36.9545 265.313C35.9242 264.458 35.146 263.339 34.7031 262.076Z" stroke="#302D30" stroke-linecap="round" stroke-linejoin="round"/>
<path d="M104.265 278.323L101.857 276.1L97.8616 275.934L78.5449 273.166C77.6864 272.292 77.0324 271.239 76.6298 270.082C75.8946 268.06 73.9061 266.774 72.6379 267.847C71.6417 268.682 72.6379 271.582 72.6379 271.582C72.6379 271.582 70.3992 267.05 68.6238 264.616C66.5396 261.753 64.5804 262.999 64.5804 262.999C64.5804 262.999 64.7201 263.212 63.9077 261.036C62.8344 258.158 59.4967 259.143 59.0115 260.301C55.2842 258.492 54.2329 262.216 55.8172 266.263C56.6736 268.432 57.2213 270.384 58.3424 273.049C59.3092 275.353 62.1175 279.331 62.9225 279.779C65.6831 281.301 68.9914 283.657 79.5447 284.782C85.8452 285.458 89.0542 285.517 92.9286 284.348C97.2793 284.034 101.61 283.483 105.901 282.698L104.265 278.323Z" fill="#F5B87E"/>
<mask id="mask11_1_220" style="mask-type:luminance" maskUnits="userSpaceOnUse" x="55" y="259" width="51" height="27">
<path d="M104.265 278.323L101.857 276.1L97.8616 275.934L78.5449 273.166C77.6864 272.292 77.0324 271.239 76.6298 270.082C75.8946 268.06 73.9061 266.774 72.6379 267.847C71.6417 268.682 72.6379 271.582 72.6379 271.582C72.6379 271.582 70.3992 267.05 68.6238 264.616C66.5396 261.753 64.5804 262.999 64.5804 262.999C64.5804 262.999 64.7201 263.212 63.9077 261.036C62.8344 258.158 59.4967 259.143 59.0115 260.301C55.2842 258.492 54.2329 262.216 55.8172 266.263C56.6736 268.432 57.2213 270.384 58.3424 273.049C59.3092 275.353 62.1175 279.331 62.9225 279.779C65.6831 281.301 68.9914 283.657 79.5447 284.782C85.8452 285.458 89.0542 285.517 92.9286 284.348C97.2793 284.034 101.61 283.483 105.901 282.698L104.265 278.323Z" fill="white"/>
</mask>
<g mask="url(#mask11_1_220)">
<path d="M67.4402 263.381C68.3923 264.326 70.708 270.615 71.2741 272.019C71.8402 273.424 73.0423 277.041 75.7514 278.323C78.4605 279.606 78.6921 278.768 78.6921 278.768C78.6921 278.768 72.8107 273.684 72.5313 271.207C72.252 268.729 73.8069 266.259 75.5749 270.663C77.343 275.067 79.6734 274.791 82.3862 275.497C85.099 276.202 89.499 277.57 89.7379 279.408C89.9769 281.246 88.694 283.264 85.8305 283.392C80.5193 283.478 75.2287 282.711 70.1604 281.121C63.9813 279.103 59.1329 276.202 59.5004 277.713C59.868 279.224 69.2671 288.627 83.7206 289.447C98.1741 290.266 106.265 288.057 108.206 284.716C110.146 281.374 114.219 280.43 106.643 273.398C99.0673 266.366 92.6051 262.37 85.8305 261.962C79.0559 261.554 67.4402 263.381 67.4402 263.381Z" fill="#E49E5F"/>
</g>
<path d="M104.265 278.323L101.857 276.1L97.8616 275.934L78.5449 273.166C77.6864 272.292 77.0324 271.239 76.6298 270.082C75.8946 268.06 73.9061 266.774 72.6379 267.847C71.6417 268.682 72.6379 271.582 72.6379 271.582C72.6379 271.582 70.3992 267.05 68.6238 264.616C66.5396 261.753 64.5804 262.999 64.5804 262.999C64.5804 262.999 64.7201 263.212 63.9077 261.036C62.8344 258.158 59.4967 259.143 59.0115 260.301C55.2842 258.492 54.2329 262.216 55.8172 266.263C56.6736 268.432 57.2213 270.384 58.3424 273.049C59.3092 275.353 62.1175 279.331 62.9225 279.779C65.6831 281.301 68.9914 283.657 79.5447 284.782C85.8452 285.458 89.0542 285.517 92.9286 284.348C97.2793 284.034 101.61 283.483 105.901 282.698L104.265 278.323Z" stroke="#302D30" stroke-linecap="round" stroke-linejoin="round"/>
<path d="M100.596 276.048C100.721 278.482 102.523 297.868 93.855 299.423L120.556 295.207L121.089 274.766C121.089 274.766 111.753 275.526 104.978 276.096C103.522 276.267 102.049 276.251 100.596 276.048Z" fill="white"/>
<mask id="mask12_1_220" style="mask-type:luminance" maskUnits="userSpaceOnUse" x="93" y="274" width="29" height="26">
<path d="M100.596 276.048C100.721 278.482 102.523 297.868 93.855 299.423L120.556 295.207L121.089 274.766C121.089 274.766 111.753 275.526 104.978 276.096C103.522 276.267 102.049 276.251 100.596 276.048Z" fill="white"/>
</mask>
<g mask="url(#mask12_1_220)">
<path d="M102.331 282.029C111.775 280.283 116.458 285.749 116.774 290.752C117.09 295.755 98.5381 291.465 93.855 294.321C89.172 297.177 68.7085 308.359 96.0605 306.694C123.413 305.029 131.514 305.029 132.227 292.656C132.94 280.283 136.035 266.252 136.035 266.252L102.725 260.393L90.3078 275.545L102.331 282.029Z" fill="#DFDEDE"/>
</g>
<path d="M100.596 276.048C100.721 278.482 102.523 297.868 93.855 299.423L120.556 295.207L121.089 274.766C121.089 274.766 111.753 275.526 104.978 276.096C103.522 276.267 102.049 276.251 100.596 276.048Z" stroke="#302D30" stroke-linecap="round" stroke-linejoin="round"/>
<path d="M59.6805 260.812C59.6191 260.962 59.5939 261.124 59.6069 261.286C59.7355 262.269 59.9823 263.233 60.3421 264.157C60.9965 265.861 61.4888 267.624 61.8124 269.421C62.316 271.858 63.6026 273.909 64.9039 276.037C64.9285 276.079 64.9357 276.129 64.9241 276.177C64.9124 276.224 64.8827 276.265 64.8413 276.291C64.8052 276.312 64.7631 276.32 64.7216 276.314C64.6802 276.308 64.642 276.288 64.6135 276.258C63.0806 274.725 61.6287 272.916 60.8604 270.821C60.6097 270.125 60.4021 269.414 60.2391 268.693C59.6878 266.678 58.6329 264.62 58.0999 262.58C57.883 261.687 57.7102 260.595 58.3461 259.768C58.4137 259.68 58.498 259.607 58.594 259.552C58.69 259.498 58.7958 259.462 58.9055 259.449C59.0151 259.435 59.1264 259.443 59.233 259.473C59.3395 259.502 59.4391 259.553 59.5261 259.621C59.7007 259.761 59.814 259.964 59.8421 260.186C59.8702 260.408 59.811 260.632 59.6768 260.812H59.6805Z" fill="#302D30"/>
<path d="M65.1907 263.591C65.0437 263.848 65.1025 264.565 65.1907 264.966C65.6208 267.042 66.6353 269.009 67.5506 270.913C68.1681 272.277 68.7048 273.677 69.2892 274.957C69.587 275.692 70.0722 276.096 70.4655 276.669C70.8588 277.243 71.3146 277.831 71.9358 278.14C71.9733 278.161 72.0021 278.195 72.0174 278.235C72.0327 278.275 72.0334 278.319 72.0194 278.36C72.0054 278.4 71.9776 278.435 71.9409 278.457C71.9041 278.479 71.8607 278.488 71.8182 278.482C71.4193 278.399 71.043 278.231 70.7154 277.989C70.1052 277.574 69.5944 276.964 69.0503 276.519C68.1534 275.615 67.7822 274.563 67.2124 273.512C66.2273 271.505 65.0069 269.612 64.2276 267.517C63.713 266.046 62.7903 263.8 63.985 262.389C64.1448 262.243 64.3539 262.165 64.5699 262.168C64.7858 262.172 64.9923 262.257 65.1473 262.408C65.3024 262.558 65.3943 262.762 65.4044 262.977C65.4145 263.193 65.342 263.405 65.2016 263.569L65.1907 263.591Z" fill="#302D30"/>
<path d="M73.3839 271.196C74.2992 272.909 75.0675 274.766 76.1188 276.343C76.5953 277.083 77.3018 277.646 78.1295 277.945C79.0006 278.368 79.9123 278.776 80.8128 279.221C80.8525 279.239 80.8843 279.271 80.9025 279.311C80.9207 279.351 80.9242 279.396 80.9123 279.438C80.9003 279.48 80.8737 279.516 80.8373 279.541C80.8008 279.565 80.757 279.575 80.7136 279.57C78.6257 279.335 76.1812 278.938 74.9535 277.214C73.6706 275.571 72.8105 273.762 71.8805 271.957C71.7776 271.758 71.7582 271.526 71.8265 271.312C71.8947 271.099 72.045 270.921 72.2444 270.818C72.4438 270.715 72.6758 270.695 72.8895 270.764C73.1032 270.832 73.281 270.982 73.3839 271.182V271.196Z" fill="#302D30"/>
<path d="M86.0657 273.096C88.4587 273.681 90.9215 275.184 91.7927 277.618C91.9949 278.059 92.4691 280.459 91.7376 280.36C91.6802 280.353 91.6261 280.329 91.5818 280.292C91.5375 280.255 91.5048 280.206 91.4876 280.15C91.2841 279.458 90.9887 278.797 90.6091 278.184C89.4512 276.364 87.4442 275.497 85.5511 274.596C85.3736 274.512 85.2333 274.366 85.1569 274.185C85.0805 274.004 85.0734 273.802 85.1371 273.616C85.2009 273.43 85.3309 273.275 85.5022 273.179C85.6735 273.083 85.8741 273.054 86.0657 273.096Z" fill="#302D30"/>
<path d="M156.017 385.077L167.107 444.457L178.194 496.761" stroke="#302D30" stroke-linecap="round" stroke-linejoin="round"/>
<path d="M166.615 154.079V169.639C166.615 169.639 163.531 238.333 163.737 266.829L155.981 265.726L152.529 265.134C152.323 236.639 154.672 169.635 154.672 169.635V154.079" stroke="#302D30" stroke-linecap="round" stroke-linejoin="round"/>
<path d="M240.632 346.647C240.293 340.979 240.371 333.186 240.566 331.083L226.836 328.315C226.63 331.55 225.803 333.8 223.458 336.601C221.113 339.402 218.657 341.177 217.415 343.883C216.173 346.588 216.709 349.33 215.728 353.517C215.274 355.425 215.027 357.375 214.993 359.336C214.971 361.586 214.647 362.277 214.721 363.089C214.776 363.692 217.349 364.28 218.72 361.2C220.091 358.119 220.234 355.418 220.878 353.991C221.317 353.036 221.821 352.111 222.385 351.223C222.385 351.223 224.193 366.633 224.171 367.621C224.149 368.61 223.19 375.708 223.135 377.583C223.08 379.458 223.929 383.435 226.546 380.788C226.847 382.35 228.612 381.207 229.336 380.105C230.042 380.645 231.225 379.167 233.339 376.403C235.452 373.639 236.463 370.863 237.562 370.272C238.661 369.68 241.345 361.604 241.529 359.979C241.712 358.354 240.974 352.319 240.632 346.647Z" fill="#F5B87E"/>
<mask id="mask13_1_220" style="mask-type:luminance" maskUnits="userSpaceOnUse" x="214" y="328" width="28" height="54">
<path d="M240.632 346.647C240.293 340.979 240.371 333.186 240.566 331.083L226.836 328.315C226.63 331.55 225.803 333.8 223.458 336.601C221.113 339.402 218.657 341.177 217.415 343.883C216.173 346.588 216.709 349.33 215.728 353.517C215.274 355.425 215.027 357.375 214.993 359.336C214.971 361.586 214.647 362.277 214.721 363.089C214.776 363.692 217.349 364.28 218.72 361.2C220.091 358.119 220.234 355.418 220.878 353.991C221.317 353.036 221.821 352.111 222.385 351.223C222.385 351.223 224.193 366.633 224.171 367.621C224.149 368.61 223.19 375.708 223.135 377.583C223.08 379.458 223.929 383.435 226.546 380.788C226.847 382.35 228.612 381.207 229.336 380.105C230.042 380.645 231.225 379.167 233.339 376.403C235.452 373.639 236.463 370.863 237.562 370.272C238.661 369.68 241.345 361.604 241.529 359.979C241.712 358.354 240.974 352.319 240.632 346.647Z" fill="white"/>
</mask>
<g mask="url(#mask13_1_220)">
<path d="M245.473 344.372C244.521 337.34 244.333 333.598 236.228 334.318C228.123 335.039 216.143 336.575 215.276 339.023C214.408 341.471 217.011 346.537 217.011 346.537C223.425 347.353 234.622 347.007 236.86 349.235C239.099 351.462 240.823 361.321 240.624 364.46C240.426 367.599 240.466 371.106 243.991 364.387C247.517 357.667 245.473 344.372 245.473 344.372Z" fill="#E49E5F"/>
<path d="M240.9 350.371C241.334 355.418 238.327 363.188 237.368 365.203C236.408 367.217 233.769 371.084 231.214 372.253C228.66 373.422 227.946 372.83 226.561 375.131C225.175 377.432 223.054 377.704 223.543 373.466C224.032 369.228 224.741 354.407 224.454 351.245C224.168 348.084 222.679 345.125 220.282 350.371C217.886 355.616 220.102 360.744 214.724 362.471C209.347 364.199 213.622 390.812 228.457 387.357C243.293 383.902 252.791 378.296 250.924 367.794C249.057 357.292 240.9 350.371 240.9 350.371Z" fill="#E49E5F"/>
</g>
<path d="M240.632 346.647C240.293 340.979 240.371 333.186 240.566 331.083L226.836 328.315C226.63 331.55 225.803 333.8 223.458 336.601C221.113 339.402 218.657 341.177 217.415 343.883C216.173 346.588 216.709 349.33 215.728 353.517C215.274 355.425 215.027 357.375 214.993 359.336C214.971 361.586 214.647 362.277 214.721 363.089C214.776 363.692 217.349 364.28 218.72 361.2C220.091 358.119 220.234 355.418 220.878 353.991C221.317 353.036 221.821 352.111 222.385 351.223C222.385 351.223 224.193 366.633 224.171 367.621C224.149 368.61 223.19 375.708 223.135 377.583C223.08 379.458 223.929 383.435 226.546 380.788C226.847 382.35 228.612 381.207 229.336 380.105C230.042 380.645 231.225 379.167 233.339 376.403C235.452 373.639 236.463 370.863 237.562 370.272C238.661 369.68 241.345 361.604 241.529 359.979C241.712 358.354 240.974 352.319 240.632 346.647Z" stroke="#302D30" stroke-linecap="round" stroke-linejoin="round"/>
<path d="M230.53 360.604C229.876 364.041 229.964 367.349 229.854 370.856C229.431 374.44 228.384 377.657 227.366 381.049C227.298 381.263 227.149 381.442 226.95 381.546C226.751 381.649 226.519 381.67 226.305 381.603C226.091 381.535 225.913 381.386 225.809 381.187C225.705 380.988 225.685 380.756 225.752 380.542C226.259 378.91 226.755 377.26 227.222 375.62C227.72 374.017 228.123 372.386 228.428 370.735C228.693 367.316 228.843 363.732 230.163 360.505C230.176 360.456 230.208 360.415 230.252 360.39C230.296 360.364 230.348 360.358 230.396 360.371C230.445 360.384 230.487 360.416 230.512 360.46C230.537 360.504 230.544 360.556 230.53 360.604Z" fill="#302D30"/>
<path d="M228.612 379.689C230.416 376.381 232.247 372.988 233.545 369.43C234.372 366.588 234.725 363.622 235.401 360.729C235.406 360.68 235.431 360.636 235.469 360.605C235.507 360.574 235.556 360.56 235.605 360.566C235.654 360.571 235.698 360.595 235.729 360.634C235.76 360.672 235.774 360.721 235.768 360.77C235.636 364.225 235.581 367.783 234.445 371.088C233.271 374.353 231.814 377.51 230.093 380.524C229.98 380.714 229.797 380.853 229.583 380.91C229.369 380.967 229.141 380.938 228.948 380.828C228.756 380.719 228.613 380.538 228.553 380.325C228.492 380.112 228.517 379.884 228.623 379.689H228.612Z" fill="#302D30"/>
<path d="M236.055 370.668C236.599 369.198 237.081 367.625 237.551 366.095C237.996 364.515 238.526 362.961 239.139 361.438C239.15 361.39 239.179 361.348 239.22 361.321C239.261 361.295 239.311 361.285 239.359 361.295C239.407 361.304 239.45 361.332 239.477 361.373C239.505 361.414 239.516 361.463 239.507 361.512C239.507 364.022 239 366.448 238.404 368.863C238.202 369.684 237.948 370.49 237.643 371.278C237.562 371.487 237.401 371.656 237.195 371.746C236.99 371.836 236.757 371.841 236.548 371.76C236.339 371.678 236.171 371.517 236.08 371.312C235.99 371.106 235.985 370.874 236.066 370.664L236.055 370.668Z" fill="#302D30"/>
<path d="M221.595 350.965C221.962 349.789 223.432 348.326 223.377 350.598C223.377 351.37 223.01 352.307 222.08 351.98C221.89 351.899 221.736 351.752 221.647 351.566C221.557 351.38 221.539 351.168 221.595 350.969V350.965Z" fill="#302D30"/>
<path d="M216.816 345.047L250.928 345.782C250.928 345.782 247.201 272.633 246.557 263.686C245.914 254.739 242.624 227.196 240.114 205.052C237.956 186.004 236.522 178.141 234.398 175.8C217.448 194.021 211.707 236.767 211.707 236.767L216.816 345.047Z" fill="white"/>
<mask id="mask14_1_220" style="mask-type:luminance" maskUnits="userSpaceOnUse" x="211" y="175" width="40" height="171">
<path d="M216.816 345.047L250.928 345.782C250.928 345.782 247.2 272.633 246.557 263.686C245.914 254.739 242.624 227.196 240.113 205.052C237.956 186.004 236.522 178.141 234.397 175.8C217.448 194.021 211.706 236.767 211.706 236.767L216.816 345.047Z" fill="white"/>
</mask>
<g mask="url(#mask14_1_220)">
<path d="M236.059 179.222C241.499 204.391 242.907 246.336 243.146 273.938C243.385 301.54 247.645 332.108 244.855 338.056C242.065 344.003 223.851 339.129 222.705 337.03C221.017 333.939 216.963 217.223 215.062 217.859C213.162 218.495 202.734 298.114 204.035 316.372C205.336 334.63 235.305 366.194 244.837 360.758C254.368 355.321 255.545 345.091 259.827 319.632C264.109 294.173 236.059 179.222 236.059 179.222Z" fill="#DFDEDE"/>
</g>
<path d="M216.816 345.047L250.928 345.782C250.928 345.782 247.201 272.633 246.557 263.686C245.914 254.739 242.624 227.196 240.114 205.052C237.956 186.004 236.522 178.141 234.398 175.8C217.448 194.021 211.707 236.767 211.707 236.767L216.816 345.047Z" stroke="#302D30" stroke-linecap="round" stroke-linejoin="round"/>
<path d="M203.373 202.88H176.231V237.514H203.373V202.88Z" fill="white"/>
<mask id="mask15_1_220" style="mask-type:luminance" maskUnits="userSpaceOnUse" x="176" y="202" width="28" height="36">
<path d="M203.373 202.88H176.231V237.514H203.373V202.88Z" fill="white"/>
</mask>
<g mask="url(#mask15_1_220)">
<path d="M173.206 212.525H204.675C204.675 212.525 181.212 214.97 178.576 219.072C175.94 223.174 174.327 228.898 174.327 228.898L173.206 212.525Z" fill="#DFDEDE"/>
</g>
<path d="M203.373 202.88H176.231V237.514H203.373V202.88Z" stroke="#302D30" stroke-linecap="round" stroke-linejoin="round"/>
<path d="M176.231 212.537H203.373" stroke="#302D30" stroke-linecap="round" stroke-linejoin="round"/>
<path d="M203.373 204.542H204.675V208.13H203.373" stroke="#302D30" stroke-linecap="round" stroke-linejoin="round"/>
<path d="M154.4 536.21L148.732 480.477" stroke="#302D30" stroke-linecap="round" stroke-linejoin="round"/>
<path d="M154.852 165.324C147.475 164.13 148.82 159.527 148.82 159.527" stroke="#302D30" stroke-linecap="round" stroke-linejoin="round"/>
<path d="M166.615 165.324C173.992 164.129 184.626 161.019 189.773 155.098" stroke="#302D30" stroke-linecap="round" stroke-linejoin="round"/>
<path d="M166.615 165.324H154.852" stroke="#302D30" stroke-linecap="round" stroke-linejoin="round"/>
<path d="M138.579 116.516C139.561 113.829 141.81 113.873 142.064 114.634C142.064 114.634 142.351 99.8753 145.607 95.74C148.864 91.6047 165.247 92.4612 165.247 92.4612C165.247 92.4612 181.627 91.6047 184.884 95.74C188.141 99.8753 188.431 114.634 188.431 114.634C188.681 113.873 190.931 113.829 191.912 116.516C193.166 119.953 191.699 124.706 188.714 127.775C185.729 130.844 185.806 129.352 185.773 127.499C185.773 127.499 180.995 150.371 165.244 150.371C149.493 150.371 144.71 127.499 144.71 127.499C144.681 129.337 144.762 130.844 141.77 127.775C138.778 124.706 137.318 119.953 138.579 116.516Z" fill="#F5B87E"/>
<mask id="mask16_1_220" style="mask-type:luminance" maskUnits="userSpaceOnUse" x="138" y="92" width="55" height="59">
<path d="M138.579 116.516C139.56 113.829 141.81 113.873 142.064 114.634C142.064 114.634 142.35 99.8753 145.607 95.74C148.864 91.6047 165.247 92.4612 165.247 92.4612C165.247 92.4612 181.627 91.6047 184.884 95.74C188.14 99.8753 188.431 114.634 188.431 114.634C188.681 113.873 190.93 113.829 191.912 116.516C193.165 119.953 191.699 124.706 188.714 127.775C185.729 130.844 185.806 129.352 185.773 127.499C185.773 127.499 180.995 150.371 165.244 150.371C149.492 150.371 144.71 127.499 144.71 127.499C144.681 129.337 144.762 130.844 141.769 127.775C138.777 124.706 137.318 119.953 138.579 116.516Z" fill="white"/>
</mask>
<g mask="url(#mask16_1_220)">
<path d="M169.232 126.011C167.559 126.724 167.236 127.94 165.24 127.94C163.244 127.94 162.92 126.724 161.244 126.011C161.244 126.011 161.16 130.054 165.24 130.054C169.32 130.054 169.232 126.011 169.232 126.011Z" fill="#E49E5F"/>
<path d="M145.335 116.156C145.162 118.85 146.379 123.14 148.757 126.735C151.136 130.33 151.077 132.414 151.077 134.215C151.077 136.016 148.948 138.439 146.666 133.675C144.383 128.911 144.387 120.332 142.038 118.376C139.689 116.42 139.612 117.115 140.961 116.17C142.31 115.226 145.335 116.156 145.335 116.156Z" fill="#E49E5F"/>
<path d="M185.141 116.156C185.314 118.85 184.097 123.14 181.719 126.735C179.341 130.33 179.399 132.414 179.399 134.215C179.399 136.016 182.197 138.259 184.465 133.509C186.733 128.76 185.435 122.18 187.773 120.225C190.111 118.269 190.842 117.115 189.493 116.156C188.144 115.196 185.141 116.156 185.141 116.156Z" fill="#E49E5F"/>
<path d="M202.473 149.349C201.186 145 201.337 137.718 201.855 133.936C202.432 129.72 200.444 110.359 200.359 109.539C200.33 109.319 200.215 109.118 200.04 108.981C199.865 108.843 199.643 108.78 199.422 108.804C199.392 108.804 198.686 108.867 196.455 108.536C195.452 105.393 194 102.985 192.132 101.368C190.662 92.406 184.781 81.8857 165.24 81.8857C145.699 81.8857 139.814 92.395 138.344 101.368C136.476 102.985 135.035 105.393 134.021 108.536C131.786 108.867 131.08 108.804 131.08 108.804C130.968 108.789 130.853 108.797 130.744 108.827C130.635 108.858 130.533 108.91 130.444 108.98C130.355 109.05 130.281 109.137 130.227 109.236C130.172 109.336 130.139 109.445 130.128 109.557C130.044 110.377 128.055 129.738 128.632 133.954C129.15 137.737 129.305 145.022 128.014 149.367C126.996 152.793 126.221 165.217 126.177 165.747C126.162 165.951 126.221 166.153 126.344 166.316C126.467 166.48 126.645 166.593 126.845 166.635C127.045 166.677 127.254 166.646 127.432 166.546C127.611 166.446 127.747 166.285 127.816 166.092C127.889 165.89 135.204 146.066 137.064 140.688C138.086 137.729 138.274 132.462 138.439 127.823C138.553 124.632 138.708 120.265 139.229 119.618C139.63 119.122 140.766 117.858 142.2 116.255C145.934 112.09 151.54 105.83 153.348 103.048C155.186 101.768 156.561 101.118 157.392 101.118C158.862 101.118 159.866 102.162 160.755 103.084C161.491 103.856 162.145 104.525 163.023 104.525C163.282 104.186 163.616 103.91 163.998 103.72C164.381 103.531 164.802 103.432 165.229 103.432C165.656 103.432 166.077 103.531 166.46 103.72C166.842 103.91 167.176 104.186 167.434 104.525C168.313 104.525 168.956 103.856 169.702 103.084C170.592 102.162 171.603 101.118 173.066 101.118C173.908 101.118 175.271 101.768 177.109 103.048C178.918 105.83 184.523 112.09 188.258 116.255C189.695 117.858 190.831 119.122 191.228 119.618C191.75 120.265 191.908 124.636 192.018 127.827C192.184 132.473 192.386 137.751 193.393 140.692C195.253 146.07 202.583 165.894 202.642 166.096C202.702 166.258 202.81 166.398 202.952 166.496C203.094 166.595 203.263 166.647 203.436 166.647C203.494 166.648 203.552 166.642 203.608 166.629C203.807 166.588 203.985 166.476 204.108 166.315C204.232 166.154 204.293 165.953 204.281 165.75C204.266 165.199 203.491 152.775 202.473 149.349Z" fill="#E49E5F"/>
</g>
<path d="M138.579 116.516C139.561 113.829 141.81 113.873 142.064 114.634C142.064 114.634 142.351 99.8753 145.607 95.74C148.864 91.6047 165.247 92.4612 165.247 92.4612C165.247 92.4612 181.627 91.6047 184.884 95.74C188.141 99.8753 188.431 114.634 188.431 114.634C188.681 113.873 190.931 113.829 191.912 116.516C193.166 119.953 191.699 124.706 188.714 127.775C185.729 130.844 185.806 129.352 185.773 127.499C185.773 127.499 180.995 150.371 165.244 150.371C149.493 150.371 144.71 127.499 144.71 127.499C144.681 129.337 144.762 130.844 141.77 127.775C138.778 124.706 137.318 119.953 138.579 116.516Z" stroke="#302E30" stroke-linecap="round" stroke-linejoin="round"/>
<path d="M168.184 136.656H162.424C161.885 136.656 161.367 136.87 160.986 137.251C160.604 137.632 160.389 138.149 160.388 138.689C160.388 139.229 160.602 139.747 160.984 140.129C161.366 140.511 161.884 140.725 162.424 140.725H168.184C168.724 140.724 169.241 140.509 169.622 140.128C170.003 139.746 170.217 139.228 170.217 138.689C170.216 138.15 170.002 137.634 169.621 137.253C169.24 136.872 168.723 136.657 168.184 136.656Z" fill="#E49E5F"/>
<path d="M144.416 122.508C143.262 119.887 142.126 118.178 140.976 117.538" stroke="#302E30" stroke-linecap="round" stroke-linejoin="round"/>
<path d="M186.06 122.508C187.214 119.887 188.35 118.178 189.501 117.538" stroke="#302E30" stroke-linecap="round" stroke-linejoin="round"/>
<path d="M159.248 134.325C159.248 134.325 160.641 134.752 165.251 134.752C169.861 134.752 171.228 134.325 171.228 134.325" stroke="#302E30" stroke-linecap="round" stroke-linejoin="round"/>
<path d="M168.545 126.011C167.159 126.599 166.89 127.61 165.236 127.61C163.582 127.61 163.314 126.599 161.928 126.011" stroke="#302E30" stroke-linecap="round" stroke-linejoin="round"/>
<path d="M161.483 107.649C161.77 109.373 162.325 112.009 162.332 113.24C162.332 114.784 161.917 116.622 161.564 118.328C161.402 119.103 160.425 117.96 159.726 117.593C158.079 116.718 156.418 117.482 153.786 116.857C151.301 116.28 149.816 115.968 149.184 114.63C150.287 110.483 154.911 110.755 151.474 110.02C148.037 109.285 154.62 107.837 156.833 108.234C159.046 108.631 161.483 107.649 161.483 107.649Z" fill="#E49E5F"/>
<path d="M149.18 114.656C150.651 114.255 151.599 111.929 154.775 111.929C158.759 111.929 159.833 114.972 159.833 114.972C159.833 114.972 159.164 115.641 156.208 115.821C153.253 116.002 149.941 114.792 149.941 114.792" fill="white"/>
<path d="M156.716 113.59C156.716 113.92 156.619 114.242 156.437 114.517C156.254 114.791 155.994 115.005 155.689 115.132C155.385 115.258 155.05 115.291 154.726 115.227C154.403 115.163 154.106 115.004 153.873 114.771C153.64 114.538 153.481 114.241 153.417 113.918C153.353 113.594 153.386 113.259 153.513 112.955C153.639 112.651 153.853 112.391 154.128 112.208C154.402 112.025 154.724 111.928 155.054 111.929C155.495 111.929 155.917 112.104 156.229 112.415C156.541 112.727 156.716 113.15 156.716 113.59Z" fill="#373035" stroke="#302E30" stroke-linecap="round" stroke-linejoin="round"/>
<path d="M149.051 114.181C149.728 113.814 150.36 112.891 151.316 112.204C151.8 111.836 152.342 111.551 152.918 111.358C155.745 110.443 159.45 111.748 160.27 114.817C160.3 114.935 160.282 115.06 160.22 115.165C160.158 115.27 160.057 115.346 159.939 115.376C159.834 115.401 159.723 115.39 159.625 115.344C159.526 115.298 159.447 115.22 159.399 115.122C159.145 114.74 158.844 114.392 158.502 114.086C157.637 113.351 156.566 112.9 155.436 112.795C154.306 112.689 153.17 112.933 152.183 113.494C151.783 113.733 151.386 114.023 150.944 114.343C150.544 114.604 149.026 115.725 148.739 114.733C148.721 114.619 148.743 114.503 148.799 114.403C148.856 114.303 148.945 114.225 149.051 114.181Z" fill="#302E30"/>
<path d="M168.993 107.649C168.706 109.373 168.151 112.009 168.144 113.24C168.144 114.784 168.559 116.622 168.912 118.328C169.074 119.103 170.052 117.96 170.75 117.593C172.397 116.718 174.058 117.482 176.69 116.857C179.175 116.28 180.66 115.968 181.292 114.63C180.19 110.483 175.565 110.755 179.002 110.02C182.439 109.285 175.856 107.837 173.643 108.234C171.43 108.631 168.993 107.649 168.993 107.649Z" fill="#E49E5F"/>
<path d="M181.296 114.656C179.826 114.255 178.877 111.929 175.702 111.929C171.717 111.929 170.644 114.972 170.644 114.972C170.644 114.972 171.313 115.641 174.268 115.821C177.223 116.002 180.517 114.792 180.517 114.792" fill="white"/>
<path d="M173.761 113.59C173.76 113.92 173.857 114.242 174.039 114.516C174.222 114.791 174.482 115.005 174.786 115.131C175.09 115.258 175.425 115.291 175.748 115.227C176.072 115.164 176.369 115.005 176.602 114.773C176.835 114.54 176.994 114.243 177.059 113.92C177.123 113.597 177.09 113.262 176.964 112.957C176.838 112.653 176.625 112.393 176.351 112.21C176.077 112.026 175.755 111.929 175.426 111.929C174.985 111.929 174.562 112.104 174.25 112.415C173.937 112.727 173.761 113.149 173.761 113.59Z" fill="#373035" stroke="#302E30" stroke-linecap="round" stroke-linejoin="round"/>
<path d="M181.168 115.134C179.962 114.891 179.238 114.031 178.293 113.494C177.306 112.933 176.171 112.689 175.04 112.795C173.91 112.901 172.84 113.351 171.974 114.086C171.612 114.409 171.295 114.78 171.033 115.189C170.971 115.274 170.881 115.335 170.779 115.363C170.677 115.39 170.568 115.381 170.472 115.338C170.375 115.295 170.296 115.221 170.248 115.127C170.199 115.033 170.185 114.925 170.206 114.821C171.026 111.752 174.731 110.447 177.558 111.362C178.135 111.555 178.676 111.84 179.16 112.208C180.116 112.895 180.748 113.825 181.425 114.185C181.538 114.23 181.631 114.315 181.686 114.424C181.741 114.533 181.753 114.659 181.721 114.776C181.69 114.894 181.615 114.996 181.513 115.063C181.411 115.129 181.288 115.156 181.168 115.137V115.134Z" fill="#302E30"/>
<path d="M180.921 133.689C177.444 135.479 176.22 137.343 175.407 139.754C174.595 142.166 171.978 142.809 169.666 142.809C167.354 142.809 166.659 140.604 167.405 139.295C168.151 137.986 166.71 137.387 165.222 137.387C163.733 137.387 162.281 137.986 163.016 139.295C163.751 140.604 163.064 142.809 160.755 142.809C158.447 142.809 155.811 142.166 155.014 139.754C154.216 137.343 152.996 135.479 149.518 133.689C146.041 131.899 145.026 127.301 144.372 124.478C144.821 131.436 144.644 140.67 150.735 144.257C155.679 147.169 159.083 149.495 159.925 150.253C160.766 151.01 164.049 151.286 165.192 151.286C166.335 151.286 169.603 151.01 170.456 150.253C171.309 149.495 174.705 147.169 179.646 144.257C185.736 140.67 185.56 131.436 186.008 124.478C185.413 127.301 184.398 131.895 180.921 133.689Z" fill="#423940"/>
<mask id="mask17_1_220" style="mask-type:luminance" maskUnits="userSpaceOnUse" x="144" y="124" width="43" height="28">
<path d="M180.921 133.689C177.444 135.479 176.22 137.343 175.407 139.754C174.595 142.166 171.978 142.809 169.666 142.809C167.354 142.809 166.659 140.604 167.405 139.295C168.151 137.986 166.71 137.387 165.222 137.387C163.733 137.387 162.281 137.986 163.016 139.295C163.751 140.604 163.064 142.809 160.755 142.809C158.447 142.809 155.811 142.166 155.014 139.754C154.216 137.343 152.996 135.479 149.518 133.689C146.041 131.899 145.026 127.301 144.372 124.478C144.821 131.436 144.644 140.67 150.735 144.257C155.679 147.169 159.083 149.495 159.925 150.253C160.766 151.01 164.049 151.286 165.192 151.286C166.335 151.286 169.603 151.01 170.456 150.253C171.309 149.495 174.705 147.169 179.646 144.257C185.736 140.67 185.56 131.436 186.008 124.478C185.413 127.301 184.398 131.895 180.921 133.689Z" fill="white"/>
</mask>
<g mask="url(#mask17_1_220)">
<path d="M163.332 137.836C163.129 137.947 162.975 138.13 162.9 138.349C162.825 138.568 162.835 138.807 162.928 139.019C163.199 138.685 163.342 138.266 163.332 137.836Z" fill="#383137"/>
<path d="M167.552 139.008C167.643 138.795 167.651 138.556 167.576 138.338C167.5 138.119 167.347 137.936 167.144 137.825C167.134 138.255 167.279 138.675 167.552 139.008Z" fill="#383137"/>
<path d="M179.697 141.982C174.753 144.434 171.349 146.393 170.507 147.033C169.666 147.672 166.383 147.904 165.244 147.904C164.104 147.904 160.833 147.669 159.976 147.033C159.12 146.397 155.727 144.434 150.786 141.982C144.696 138.96 144.872 131.186 144.424 125.323C144.872 132.285 144.696 141.515 150.786 145.103C155.73 148.014 159.134 150.341 159.976 151.098C160.818 151.855 164.1 152.131 165.244 152.131C166.387 152.131 169.655 151.855 170.507 151.098C171.36 150.341 174.757 148.014 179.697 145.103C185.788 141.515 185.611 132.285 186.06 125.323C185.63 131.186 185.788 138.96 179.697 141.982Z" fill="#383137"/>
</g>
<path d="M180.921 133.689C177.444 135.479 176.22 137.343 175.407 139.754C174.595 142.166 171.978 142.809 169.666 142.809C167.354 142.809 166.659 140.604 167.405 139.295C168.151 137.986 166.71 137.387 165.222 137.387C163.733 137.387 162.281 137.986 163.016 139.295C163.751 140.604 163.064 142.809 160.755 142.809C158.447 142.809 155.811 142.166 155.014 139.754C154.216 137.343 152.996 135.479 149.518 133.689C146.041 131.899 145.026 127.301 144.372 124.478C144.821 131.436 144.644 140.67 150.735 144.257C155.679 147.169 159.083 149.495 159.925 150.253C160.766 151.01 164.049 151.286 165.192 151.286C166.335 151.286 169.603 151.01 170.456 150.253C171.309 149.495 174.705 147.169 179.646 144.257C185.736 140.67 185.56 131.436 186.008 124.478C185.413 127.301 184.398 131.895 180.921 133.689Z" stroke="#302E30" stroke-linecap="round" stroke-linejoin="round"/>
<path d="M173.911 131.69C172.945 131.208 170.133 130.565 168.482 129.187C166.832 127.808 166.148 128.496 165.24 128.496C164.332 128.496 163.645 127.808 161.994 129.187C160.344 130.565 157.532 131.208 156.565 131.69C155.598 132.172 155.256 136.197 154.507 138.369C155.106 137.086 155.797 133.936 156.436 133.348C157.172 132.668 158.954 132.245 160.847 132.138C162.608 132.054 164.078 132.304 165.229 132.304C166.38 132.304 167.846 132.054 169.607 132.138C171.511 132.23 173.283 132.668 174.018 133.348C174.658 133.936 175.349 137.086 175.948 138.369C175.22 136.197 174.863 132.164 173.911 131.69Z" fill="#423940" stroke="#302E30" stroke-linecap="round" stroke-linejoin="round"/>
<path d="M160.575 109.704C161.035 109.388 161.39 108.943 161.597 108.425C161.597 108.425 160.561 108.425 156.962 108.179C153.466 107.947 151.184 108.065 150.077 108.705C149.066 109.289 147.037 111.586 146.714 112.274C146.714 112.274 148.743 109.083 151.86 108.69C155.186 108.274 160.211 109.991 160.575 109.704Z" fill="#423940"/>
<path d="M160.05 109.043C160.347 108.815 160.597 108.53 160.785 108.205L161.612 109.286C158.836 109.249 156.098 108.948 153.378 108.988C152.46 108.962 151.543 109.087 150.665 109.356C149.847 109.818 149.071 110.35 148.346 110.947C147.82 111.348 147.367 111.837 147.008 112.392L146.471 112.098C147.208 110.977 148.092 109.959 149.099 109.073C152.275 106.455 156.819 108.312 160.402 108.878H160.38C160.261 108.9 160.148 108.952 160.053 109.028L160.05 109.043ZM161.101 110.367C160.939 110.471 160.758 110.541 160.569 110.573C160.379 110.605 160.185 110.599 159.998 110.554C158.895 110.381 157.756 110.098 156.69 109.922C154.345 109.554 151.985 109.102 149.776 110.15C148.655 110.642 147.692 111.435 146.993 112.44C146.949 112.502 146.884 112.545 146.81 112.562C146.735 112.579 146.658 112.568 146.591 112.531C146.525 112.494 146.474 112.434 146.449 112.362C146.425 112.29 146.427 112.212 146.456 112.142C146.769 111.543 147.287 110.877 147.632 110.304C148.015 109.686 148.456 109.107 148.948 108.573C150.845 106.606 155.058 107.205 157.546 107.305C158.734 107.393 160.487 107.529 161.66 107.558C161.789 107.562 161.915 107.596 162.029 107.656C162.143 107.716 162.242 107.801 162.318 107.906C162.395 108.01 162.446 108.13 162.469 108.257C162.492 108.384 162.485 108.515 162.45 108.639C162.185 109.329 161.724 109.927 161.123 110.359L161.101 110.367Z" fill="#302E30"/>
<path d="M169.901 109.704C169.442 109.388 169.086 108.943 168.879 108.425C168.879 108.425 169.916 108.425 173.514 108.179C177.01 107.947 179.293 108.065 180.399 108.705C181.41 109.289 183.439 111.586 183.763 112.274C183.763 112.274 181.734 109.083 178.598 108.69C175.29 108.274 170.265 109.991 169.901 109.704Z" fill="#423940"/>
<path d="M169.375 110.367C168.64 109.815 167.196 108.187 168.64 107.599C169.879 107.503 171.687 107.426 172.963 107.312C175.455 107.216 179.657 106.61 181.561 108.58C182.053 109.114 182.494 109.694 182.877 110.311C183.219 110.877 183.737 111.543 184.053 112.149C184.082 112.219 184.085 112.298 184.06 112.37C184.035 112.441 183.984 112.501 183.918 112.538C183.851 112.575 183.774 112.586 183.7 112.569C183.626 112.553 183.56 112.509 183.516 112.447C182.817 111.442 181.854 110.649 180.734 110.157C178.528 109.109 176.165 109.561 173.82 109.929C172.742 110.105 171.592 110.389 170.511 110.561C170.324 110.606 170.13 110.613 169.941 110.581C169.751 110.548 169.57 110.478 169.408 110.374L169.375 110.367ZM170.427 109.043C170.328 108.96 170.206 108.907 170.077 108.892C173.672 108.33 178.197 106.47 181.381 109.087C182.388 109.974 183.272 110.991 184.009 112.113L183.472 112.407C183.113 111.851 182.66 111.363 182.134 110.962C181.409 110.365 180.633 109.832 179.815 109.37C178.937 109.101 178.02 108.977 177.102 109.003C174.375 108.962 171.643 109.264 168.868 109.3L169.695 108.22C169.876 108.544 170.12 108.829 170.412 109.058L170.427 109.043Z" fill="#302E30"/>
<path d="M142.053 108.083V114.633C142.053 114.633 144.416 117.728 144.416 124.102C144.416 109.127 144.813 110.006 147.166 106.091C150.353 100.798 151.309 96.5703 151.309 96.5703L142.053 108.083Z" fill="#383137" stroke="#302E30" stroke-linecap="round" stroke-linejoin="round"/>
<path d="M188.424 108.083V114.633C188.424 114.633 186.06 117.728 186.06 124.102C186.06 109.127 185.663 110.006 183.31 106.091C180.123 100.798 179.168 96.5703 179.168 96.5703L188.424 108.083Z" fill="#383137" stroke="#302E30" stroke-linecap="round" stroke-linejoin="round"/>
<path d="M191.346 99.2577C190.243 92.1596 185.751 80.1836 165.247 80.1836C144.744 80.1836 140.226 92.1596 139.149 99.2577C135.282 102.397 134.153 108.502 133.878 110.476H136.55C138.708 109.855 141.737 108.723 144.119 106.823C148.28 103.514 154.411 97.7064 157.422 97.7064C160.432 97.7064 161.748 101.11 163.053 101.11C164.358 101.11 165.259 99.4414 165.259 99.4414C165.259 99.4414 166.155 101.11 167.464 101.11C168.773 101.11 170.077 97.7064 173.095 97.7064C176.113 97.7064 182.237 103.5 186.398 106.823C188.78 108.723 191.809 109.855 193.967 110.476H196.639C196.345 108.499 195.213 102.397 191.346 99.2577Z" fill="white"/>
<mask id="mask18_1_220" style="mask-type:luminance" maskUnits="userSpaceOnUse" x="133" y="80" width="64" height="31">
<path d="M191.346 99.2577C190.243 92.1596 185.751 80.1836 165.247 80.1836C144.743 80.1836 140.226 92.1596 139.149 99.2577C135.282 102.397 134.153 108.502 133.877 110.476H136.55C138.708 109.855 141.736 108.723 144.118 106.823C148.279 103.514 154.411 97.7064 157.421 97.7064C160.432 97.7064 161.748 101.11 163.053 101.11C164.358 101.11 165.258 99.4414 165.258 99.4414C165.258 99.4414 166.155 101.11 167.464 101.11C168.772 101.11 170.077 97.7064 173.095 97.7064C176.113 97.7064 182.237 103.5 186.398 106.823C188.78 108.723 191.809 109.855 193.967 110.476H196.639C196.345 108.499 195.213 102.397 191.346 99.2577Z" fill="white"/>
</mask>
<g mask="url(#mask18_1_220)">
<path d="M156.451 98.1034L157.403 97.7064C157.046 97.8387 156.738 97.9747 156.451 98.1034Z" fill="#DFDEDE"/>
<path d="M174.025 98.1034C173.738 97.9747 173.43 97.8424 173.073 97.7064L174.025 98.1034Z" fill="#DFDEDE"/>
<path d="M195.448 108.907C195.448 108.907 195.183 103.121 192.382 99.2907C192.416 96.5375 190.934 95.3171 189.809 94.3871C188.685 93.4571 181.991 88.6859 165.251 88.6859C148.511 88.6859 141.854 93.4351 140.689 94.3871C139.524 95.3392 138.072 96.5375 138.116 99.2907C135.318 103.121 135.05 108.907 135.05 108.907C135.05 108.907 143.321 104.661 148.713 102.518C153.65 100.559 153.363 99.5039 156.473 98.1071C153.01 99.5443 141.181 104.294 139.899 102.628C139.794 102.467 139.729 102.283 139.709 102.091C139.688 101.899 139.713 101.706 139.781 101.526C143.159 98.8018 150.272 96.078 159.52 95.2509C160.413 95.1757 161.31 95.3277 162.129 95.6928C162.947 96.0579 163.659 96.6241 164.2 97.3388C164.685 97.9784 165.097 98.4415 165.262 98.4415C165.427 98.4415 165.835 97.9784 166.321 97.3388C166.861 96.6244 167.574 96.0584 168.392 95.6933C169.21 95.3283 170.107 95.1761 171 95.2509C180.248 96.078 187.361 98.8018 190.743 101.526C190.81 101.706 190.835 101.9 190.814 102.091C190.792 102.283 190.727 102.467 190.622 102.628C189.339 104.294 177.51 99.5443 174.047 98.1071C177.157 99.5076 176.87 100.563 181.807 102.518C187.181 104.661 195.448 108.907 195.448 108.907Z" fill="#DFDEDE"/>
</g>
<path d="M191.346 99.2577C190.243 92.1596 185.751 80.1836 165.247 80.1836C144.744 80.1836 140.226 92.1596 139.149 99.2577C135.282 102.397 134.153 108.502 133.878 110.476H136.55C138.708 109.855 141.737 108.723 144.119 106.823C148.28 103.514 154.411 97.7064 157.422 97.7064C160.432 97.7064 161.748 101.11 163.053 101.11C164.358 101.11 165.259 99.4414 165.259 99.4414C165.259 99.4414 166.155 101.11 167.464 101.11C168.773 101.11 170.077 97.7064 173.095 97.7064C176.113 97.7064 182.237 103.5 186.398 106.823C188.78 108.723 191.809 109.855 193.967 110.476H196.639C196.345 108.499 195.213 102.397 191.346 99.2577Z" stroke="#302E30" stroke-linecap="round" stroke-linejoin="round"/>
<path d="M152.731 99.8789C149.812 102.82 141.814 105.393 136.998 106.326C132.183 107.26 130.959 107.087 130.959 107.087C130.959 107.087 128.89 127.117 129.459 131.282C130.029 135.446 130.103 142.706 128.816 147.051C127.816 150.426 127.022 168.003 127.022 168.003C127.022 168.003 134.374 143.302 136.263 137.861C138.153 132.421 137.105 118.335 138.572 116.523C140.038 114.711 150.423 103.555 152.731 99.8789Z" fill="white"/>
<mask id="mask19_1_220" style="mask-type:luminance" maskUnits="userSpaceOnUse" x="127" y="99" width="26" height="70">
<path d="M152.731 99.8789C149.812 102.82 141.814 105.393 136.998 106.326C132.183 107.26 130.959 107.087 130.959 107.087C130.959 107.087 128.89 127.117 129.459 131.282C130.029 135.446 130.103 142.706 128.816 147.051C127.816 150.426 127.022 168.003 127.022 168.003C127.022 168.003 134.374 143.302 136.263 137.861C138.153 132.421 137.105 118.335 138.572 116.523C140.038 114.711 150.423 103.555 152.731 99.8789Z" fill="white"/>
</mask>
<g mask="url(#mask19_1_220)">
<path d="M137.502 127.613C136.833 135.502 132.073 143.313 128.463 146.022C124.854 148.731 114.726 157.59 122.177 161.192C129.628 164.795 136.146 169.04 138.123 156.266C140.101 143.493 137.502 127.613 137.502 127.613Z" fill="#DFDEDE"/>
</g>
<path d="M152.731 99.8789C149.812 102.82 141.814 105.393 136.998 106.326C132.183 107.26 130.959 107.087 130.959 107.087C130.959 107.087 128.89 127.117 129.459 131.282C130.029 135.446 130.103 142.706 128.816 147.051C127.816 150.426 127.022 168.003 127.022 168.003C127.022 168.003 134.374 143.302 136.263 137.861C138.153 132.421 137.105 118.335 138.572 116.523C140.038 114.711 150.423 103.555 152.731 99.8789Z" stroke="#302E30" stroke-linecap="round" stroke-linejoin="round"/>
<path d="M177.745 99.8789C180.664 102.82 188.663 105.393 193.478 106.326C198.293 107.26 199.517 107.087 199.517 107.087C199.517 107.087 201.587 127.117 201.017 131.282C200.447 135.446 200.374 142.706 201.66 147.051C202.664 150.426 203.3 160.916 203.3 160.916C203.3 160.916 196.092 143.272 194.213 137.854C192.335 132.436 193.371 118.328 191.905 116.516C190.438 114.704 180.054 103.555 177.745 99.8789Z" fill="white"/>
<mask id="mask20_1_220" style="mask-type:luminance" maskUnits="userSpaceOnUse" x="177" y="99" width="27" height="62">
<path d="M177.745 99.8789C180.664 102.82 188.663 105.393 193.478 106.326C198.293 107.26 199.517 107.087 199.517 107.087C199.517 107.087 201.587 127.117 201.017 131.282C200.447 135.446 200.374 142.706 201.66 147.051C202.664 150.426 203.3 160.916 203.3 160.916C203.3 160.916 196.092 143.272 194.213 137.854C192.335 132.436 193.371 118.328 191.905 116.516C190.438 114.704 180.054 103.555 177.745 99.8789Z" fill="white"/>
</mask>
<g mask="url(#mask20_1_220)">
<path d="M192.912 127.613C193.581 135.502 198.341 143.313 201.951 146.022C205.561 148.731 215.688 157.59 208.237 161.192C200.786 164.795 194.268 169.04 192.291 156.266C190.313 143.493 192.912 127.613 192.912 127.613Z" fill="#DFDEDE"/>
</g>
<path d="M177.745 99.8789C180.664 102.82 188.663 105.393 193.478 106.326C198.293 107.26 199.517 107.087 199.517 107.087C199.517 107.087 201.587 127.117 201.017 131.282C200.447 135.446 200.374 142.706 201.66 147.051C202.664 150.426 203.3 160.916 203.3 160.916C203.3 160.916 196.092 143.272 194.213 137.854C192.335 132.436 193.371 118.328 191.905 116.516C190.438 114.704 180.054 103.555 177.745 99.8789Z" stroke="#302E30" stroke-linecap="round" stroke-linejoin="round"/>
<path d="M165.24 83.3818C144.504 83.3818 140.244 90.2153 140.759 93.5493L165.24 90.3917L189.717 93.5493C190.243 90.2153 185.972 83.3818 165.24 83.3818Z" fill="#423940" stroke="#302E30" stroke-linecap="round" stroke-linejoin="round"/>
<path d="M189.262 93.3507C187.854 92.1965 181.252 87.8369 165.24 87.8369C149.228 87.8369 142.623 92.1928 141.215 93.3507C139.807 94.5086 138.395 95.729 139.131 99.2578C143.259 95.865 152.812 92.4612 165.229 92.4612C177.646 92.4612 187.207 95.865 191.328 99.2578C192.081 95.729 190.67 94.5012 189.262 93.3507Z" fill="#423940"/>
<mask id="mask21_1_220" style="mask-type:luminance" maskUnits="userSpaceOnUse" x="138" y="87" width="54" height="13">
<path d="M189.262 93.3507C187.854 92.1965 181.252 87.8369 165.24 87.8369C149.228 87.8369 142.622 92.1928 141.214 93.3507C139.807 94.5086 138.395 95.729 139.13 99.2578C143.258 95.865 152.812 92.4612 165.229 92.4612C177.646 92.4612 187.207 95.865 191.327 99.2578C192.081 95.729 190.669 94.5012 189.262 93.3507Z" fill="white"/>
</mask>
<g mask="url(#mask21_1_220)">
<path d="M191.346 96.5928C187.218 93.2 177.668 89.7962 165.247 89.7962C152.827 89.7962 143.266 93.2 139.149 96.5928C139.123 96.4752 139.108 96.3685 139.09 96.2546C138.885 97.2474 138.905 98.2738 139.149 99.2578C143.277 95.865 152.83 92.4612 165.247 92.4612C177.664 92.4612 187.225 95.865 191.346 99.2578C191.59 98.2738 191.61 97.2474 191.405 96.2546C191.386 96.3685 191.372 96.4752 191.346 96.5928Z" fill="#383137"/>
</g>
<path d="M189.262 93.3507C187.854 92.1965 181.252 87.8369 165.24 87.8369C149.228 87.8369 142.623 92.1928 141.215 93.3507C139.807 94.5086 138.395 95.729 139.131 99.2578C143.259 95.865 152.812 92.4612 165.229 92.4612C177.646 92.4612 187.207 95.865 191.328 99.2578C192.081 95.729 190.67 94.5012 189.262 93.3507Z" stroke="#302E30" stroke-linecap="round" stroke-linejoin="round"/>
</g>
<defs>
<clipPath id="clip0_1_220">
<rect width="660" height="591" fill="white"/>
</clipPath>
</defs>
</svg>
