<svg width="602" height="470" viewBox="0 0 602 470" fill="none" xmlns="http://www.w3.org/2000/svg">
<g clip-path="url(#clip0_1_958)">
<path d="M494.375 454.191C494.375 454.191 586.05 436.121 590.719 372C596.104 298.313 522.118 297.504 533.466 244.083C549.304 169.524 518.332 125.122 448.922 128.181C390.396 130.767 341.019 176.535 309.711 137.19C275.941 94.7224 212.778 63.3345 150.266 89.6453C87.754 115.956 118 201.437 74.7763 219.601C31.5523 237.766 4.75556 285.72 12.254 352.028C19.3213 414.204 56.719 455.526 109.881 454.895C135.931 454.59 216.006 455.242 306.882 454.895C401.438 454.506 494.375 454.191 494.375 454.191Z" fill="#DEE3FF"/>
<rect x="81.5" y="62.5" width="298" height="221" rx="11.5" stroke="#E54985"/>
<path d="M30.6893 186.547C30.6893 186.547 14.5793 155.497 42.0793 140.547C71.6793 124.457 94.3693 154.357 87.3793 178.977C80.3893 203.597 39.2693 202.487 30.6893 186.547Z" fill="#DEE3FF"/>
<path d="M435.15 454.76C426.9 455.34 393.58 455.87 399.48 427.65C402.48 413.24 394.82 411.65 387.41 404.38C380 397.11 380.89 393.53 383.16 385.58C385.43 377.63 375.22 380.34 373.24 368.37C371.26 356.4 378.74 346.37 391.66 346.44C404.58 346.51 401.66 359.91 405.9 364.87C410.14 369.83 416.64 365.26 420.95 377.06C425.26 388.86 418.95 395.91 427.25 400.52C428.908 401.481 430.46 402.614 431.88 403.9" stroke="#7189FF" stroke-miterlimit="10"/>
<path d="M421.28 422.66C414.887 409.66 408.137 396.847 401.03 384.22C398.617 379.953 396.177 375.703 393.71 371.47C393.66 371.385 393.594 371.31 393.515 371.25C393.436 371.191 393.347 371.147 393.251 371.122C393.155 371.097 393.056 371.091 392.958 371.104C392.86 371.118 392.765 371.15 392.68 371.2C392.595 371.25 392.52 371.316 392.46 371.395C392.4 371.474 392.357 371.563 392.332 371.659C392.307 371.755 392.301 371.854 392.314 371.952C392.328 372.05 392.36 372.145 392.41 372.23C400.41 385.83 407.98 399.65 415.12 413.69C416.76 416.917 418.383 420.16 419.99 423.42C420.41 424.29 421.71 423.53 421.28 422.66Z" fill="#7189FF"/>
<path d="M388.28 395.63L404.75 397.34L407.12 397.59C408.12 397.69 408.12 396.19 407.12 396.09L390.65 394.38L388.28 394.13C387.28 394.03 387.33 395.53 388.28 395.63Z" fill="#7189FF"/>
<path d="M394.86 386.08C394.941 386.659 394.844 387.248 394.581 387.77C394.319 388.292 393.903 388.722 393.39 389.001C392.876 389.28 392.29 389.396 391.709 389.333C391.128 389.27 390.58 389.032 390.138 388.649C389.697 388.266 389.382 387.758 389.238 387.191C389.093 386.625 389.124 386.028 389.328 385.481C389.531 384.933 389.897 384.46 390.376 384.126C390.856 383.792 391.426 383.612 392.01 383.61C392.715 383.56 393.411 383.793 393.946 384.256C394.48 384.719 394.809 385.375 394.86 386.08Z" stroke="#7189FF" stroke-miterlimit="10"/>
<path d="M401.21 363.89C400.924 364.377 400.501 364.768 399.992 365.014C399.484 365.26 398.915 365.349 398.355 365.271C397.796 365.192 397.273 364.95 396.852 364.574C396.431 364.198 396.132 363.705 395.991 363.158C395.851 362.611 395.876 362.035 396.063 361.503C396.25 360.97 396.591 360.505 397.043 360.167C397.495 359.829 398.038 359.632 398.601 359.602C399.165 359.573 399.725 359.711 400.21 360C400.856 360.385 401.324 361.01 401.512 361.739C401.699 362.468 401.591 363.241 401.21 363.89Z" stroke="#7189FF" stroke-miterlimit="10"/>
<path d="M412.68 428.5C412.786 429.225 412.668 429.964 412.342 430.62C412.015 431.276 411.496 431.816 410.854 432.168C410.212 432.52 409.477 432.667 408.749 432.59C408.021 432.513 407.334 432.215 406.78 431.735C406.226 431.256 405.831 430.619 405.65 429.91C405.468 429.2 405.508 428.452 405.764 427.766C406.02 427.08 406.479 426.488 407.081 426.071C407.683 425.653 408.398 425.43 409.13 425.43C410.007 425.372 410.871 425.662 411.535 426.236C412.2 426.811 412.611 427.624 412.68 428.5Z" stroke="#7189FF" stroke-miterlimit="10"/>
<path d="M396.13 356.59C396.146 356.766 396.125 356.943 396.068 357.109C396.012 357.276 395.921 357.43 395.802 357.56C395.683 357.69 395.538 357.794 395.377 357.865C395.216 357.936 395.041 357.973 394.865 357.973C394.689 357.973 394.514 357.936 394.353 357.865C394.192 357.794 394.047 357.69 393.928 357.56C393.809 357.43 393.718 357.276 393.662 357.109C393.605 356.943 393.584 356.766 393.6 356.59C393.628 356.274 393.774 355.98 394.008 355.766C394.242 355.551 394.548 355.433 394.865 355.433C395.182 355.433 395.488 355.551 395.722 355.766C395.956 355.98 396.102 356.274 396.13 356.59Z" stroke="#7189FF" stroke-miterlimit="10"/>
<path d="M483.69 452.02C476.86 447.15 476.18 416.25 504.18 410.02C518.48 406.83 516.18 399.67 519.08 390.46C521.98 381.25 525.59 380.58 533.78 379.33C541.97 378.08 535.78 366.92 545.53 360.46C555.28 354 568.29 353.51 573.15 367.63C577.26 379.58 565.61 384.85 563.23 390.41C560.85 395.97 567.77 403.48 559.34 411.86C550.91 420.24 541.89 413.93 541.78 422.81C541.67 431.69 537.78 447.87 529.17 451.2C518.58 455.29 489.08 455.86 483.69 452.02Z" stroke="#7189FF" stroke-miterlimit="10"/>
<path d="M493.21 455.5C497.01 450.97 500.95 446.56 504.75 442.03C514.163 430.85 523.353 419.486 532.32 407.94C538.807 399.58 545.18 391.13 551.44 382.59C552.01 381.81 550.71 381.06 550.15 381.83C539.623 396.276 528.74 410.42 517.5 424.26C510.493 432.926 503.35 441.496 496.07 449.97C494.77 451.48 493.43 452.97 492.15 454.48C491.53 455.22 492.59 456.28 493.21 455.54V455.5Z" fill="#7189FF"/>
<path d="M502.72 410.36C502.09 405.19 501.27 400.12 500.8 395.36C498.91 376.22 525.3 384.78 535.8 360.2C546.3 335.62 520.58 326.7 532.68 316.42C544.78 306.14 548.16 270.81 530.44 264.73C507.44 256.85 486.8 271.26 483.99 290.24C481.83 304.88 491.64 315.1 466.1 325.83C440.56 336.56 444.5 349.89 449.75 375.38C455 400.87 437.75 391.521 424.32 413.031C413.69 430.031 428.63 447.47 435.32 453.95L487.02 454.84" stroke="#7189FF" stroke-miterlimit="10"/>
<path d="M445.84 454L452.18 439.42C457.393 427.473 462.61 415.553 467.83 403.66C474.497 388.48 481.21 373.317 487.97 358.17C494.49 343.55 501.083 328.963 507.75 314.41C512.48 304.13 517.19 293.82 522.38 283.77L523.58 281.49C524.04 280.64 522.74 279.88 522.29 280.73C517.34 289.97 512.99 299.55 508.58 309.05C501.99 323.26 495.58 337.54 489.16 351.83C482.333 367.11 475.553 382.407 468.82 397.72C463.307 410.22 457.823 422.733 452.37 435.26C449.8 441.16 447.07 447.03 444.65 453C444.65 453.09 444.58 453.17 444.55 453.25C444.17 454.12 445.46 454.89 445.84 454Z" fill="#7189FF"/>
<path d="M492.94 346.37L523.31 344.69L527.61 344.45C528.61 344.39 528.61 342.89 527.61 342.95L497.24 344.63L492.94 344.87C491.94 344.92 491.94 346.42 492.94 346.37Z" fill="#7189FF"/>
<path d="M457.94 425.32L481.94 422.62L485.32 422.24C486.32 422.13 486.32 420.63 485.32 420.74L461.37 423.43L457.98 423.82C456.98 423.92 456.98 425.42 457.98 425.32H457.94Z" fill="#7189FF"/>
<path d="M454.69 338.62L461.57 354.08L472.57 378.71L475.08 384.34C475.48 385.22 476.77 384.46 476.38 383.58L469.49 368.12L458.49 343.5L456 337.86C455.61 336.98 454.32 337.75 454.71 338.62H454.69Z" fill="#7189FF"/>
<path d="M504.71 286.1C503.01 288.59 500.06 289.53 498.12 288.21C496.18 286.89 495.97 283.79 497.66 281.3C499.35 278.81 502.31 277.87 504.25 279.19C506.19 280.51 506.4 283.61 504.71 286.1Z" stroke="#7189FF" stroke-miterlimit="10"/>
<path d="M506 299.56C506 300.03 505.86 300.491 505.599 300.882C505.337 301.273 504.966 301.578 504.531 301.759C504.096 301.939 503.617 301.986 503.156 301.894C502.694 301.802 502.27 301.575 501.937 301.243C501.604 300.91 501.378 300.486 501.286 300.024C501.194 299.562 501.241 299.084 501.421 298.649C501.601 298.214 501.906 297.842 502.298 297.581C502.689 297.319 503.149 297.18 503.62 297.18C504.251 297.18 504.857 297.43 505.303 297.877C505.749 298.323 506 298.928 506 299.56Z" stroke="#7189FF" stroke-miterlimit="10"/>
<path d="M523.23 361.03C523.23 361.946 522.958 362.841 522.45 363.603C521.941 364.364 521.218 364.958 520.372 365.308C519.526 365.658 518.595 365.75 517.697 365.571C516.799 365.393 515.974 364.952 515.326 364.304C514.679 363.657 514.238 362.832 514.059 361.934C513.88 361.036 513.972 360.105 514.322 359.259C514.673 358.413 515.266 357.689 516.028 357.181C516.789 356.672 517.684 356.4 518.6 356.4C519.828 356.4 521.006 356.888 521.874 357.757C522.742 358.625 523.23 359.802 523.23 361.03Z" stroke="#7189FF" stroke-miterlimit="10"/>
<path d="M311.39 455.01C312.71 450.26 312.75 445.01 313.34 440.5C314.61 430.8 328.65 438.79 337.68 428.19C346.71 417.59 333.1 409.52 341.29 406.19C349.48 402.86 355.04 387.63 346.37 380.42C335.65 371.5 320.62 377.42 316.67 386.34C313.67 393.23 317.99 399.67 302.06 401.34C286.13 403.01 286.75 410.1 286.61 423.4C286.47 436.7 277.76 429.63 267.44 438.31C261.59 443.22 263.2 450.09 265.69 455.13" stroke="#7189FF" stroke-miterlimit="10"/>
<path d="M279.9 455.96C287.713 446.927 295.553 437.927 303.42 428.96C312.42 418.74 321.37 408.53 330.55 398.5C333.83 394.91 337.1 391.3 340.55 387.91C341.25 387.24 340.19 386.18 339.49 386.85C332.06 394.05 325.27 401.98 318.39 409.7C309.057 420.167 299.79 430.707 290.59 441.32C286.65 445.84 282.72 450.367 278.8 454.9C278.17 455.62 279.23 456.69 279.86 455.96H279.9Z" fill="#7189FF"/>
<path d="M314.77 415.58L332.3 419.08L334.83 419.59C335.77 419.78 336.17 418.33 335.23 418.14L317.7 414.64L315.17 414.13C314.23 413.94 313.83 415.39 314.77 415.58Z" fill="#7189FF"/>
<path d="M293.66 406.05L298.91 428.24L299.67 431.47C299.89 432.41 301.34 432.01 301.12 431.07L295.87 408.88L295.1 405.65C294.88 404.71 293.43 405.11 293.66 406.05Z" fill="#7189FF"/>
<path d="M329 387.23C328.445 387.701 327.745 387.967 327.018 387.985C326.29 388.004 325.578 387.772 325 387.33C324.05 386.4 324.32 384.85 325.59 383.86C326.146 383.391 326.846 383.127 327.574 383.11C328.302 383.094 329.013 383.327 329.59 383.77C330.57 384.7 330.3 386.25 329 387.23Z" stroke="#7189FF" stroke-miterlimit="10"/>
<path d="M330.39 426.78C330.334 427.34 330.109 427.87 329.744 428.298C329.379 428.727 328.891 429.033 328.347 429.177C327.802 429.32 327.227 429.294 326.698 429.101C326.169 428.909 325.712 428.559 325.388 428.099C325.063 427.638 324.887 427.09 324.883 426.527C324.879 425.964 325.048 425.414 325.366 424.949C325.684 424.484 326.136 424.128 326.663 423.928C327.189 423.728 327.764 423.694 328.31 423.83C328.976 423.947 329.569 424.323 329.958 424.876C330.348 425.429 330.503 426.113 330.39 426.78Z" stroke="#7189FF" stroke-miterlimit="10"/>
<path d="M144.83 453.98C139.33 455.42 114.44 459.55 114.83 439.73C115.03 429.6 112.08 429.97 106.15 426C100.22 422.03 100.36 419.5 100.88 413.83C101.4 408.16 95.7599 410.91 91.9999 403.5C87.4999 394.59 92.9199 387.94 101.66 386.34C110.4 384.74 110.15 394.17 113.66 396.98C117.17 399.79 121.94 393.74 128.66 401.98C133.02 407.33 126.25 419.54 132.66 418.41" stroke="#7189FF" stroke-miterlimit="10"/>
<path d="M133.36 436.33C124.82 424.79 115.82 413.6 106.36 402.76C105.72 402.04 104.66 403.1 105.29 403.83C114.623 414.557 123.547 425.643 132.06 437.09C132.62 437.86 133.93 437.09 133.35 436.33H133.36Z" fill="#7189FF"/>
<path d="M118.85 402.24L117.85 416.4L117.72 418.4L118.47 417.65L105.47 418.72C104.52 418.8 104.47 420.3 105.47 420.22L118.47 419.15C118.666 419.143 118.853 419.061 118.992 418.922C119.131 418.783 119.212 418.597 119.22 418.4L120.22 404.24L120.35 402.24C120.41 401.24 118.91 401.24 118.85 402.24Z" fill="#7189FF"/>
<path d="M106 336.74C95.15 327.89 92.55 300.58 108 292.29C127.12 282.03 147.14 297.9 149.66 314.22C151.6 326.81 142.8 335.6 165.71 344.83C188.62 354.06 185.08 365.52 180.37 387.43C175.66 409.34 191.15 401.31 203.18 419.81C212.72 434.47 199.32 449.42 193.34 455L146.48 454.77C144.958 453.884 143.507 452.881 142.14 451.77C127.01 439.4 133.02 419.85 134.59 404.63C136.29 388.17 112.59 395.53 103.19 374.4C93.79 353.27 116.82 345.58 106 336.74Z" stroke="#7189FF" stroke-miterlimit="10"/>
<path d="M185.1 454.3L179.43 441.8C174.763 431.553 170.097 421.307 165.43 411.06C159.43 398.013 153.41 384.973 147.37 371.94C141.49 359.33 135.59 346.73 129.56 334.18C125.33 325.37 121.11 316.53 116.47 307.92C116.12 307.26 115.76 306.6 115.39 305.92C114.92 305.08 113.63 305.83 114.1 306.68C118.52 314.59 122.42 322.81 126.37 330.97C132.27 343.18 138.04 355.46 143.78 367.76C149.893 380.92 155.967 394.087 162 407.26C166.947 418.047 171.88 428.84 176.8 439.64C178.36 443.093 179.923 446.537 181.49 449.97C182.22 451.57 182.84 453.31 183.7 454.85C183.7 454.91 183.76 454.99 183.79 455.06C184.19 455.94 185.48 455.17 185.09 454.3H185.1Z" fill="#7189FF"/>
<path d="M141.62 361.05L114.36 359.6L110.53 359.4C109.53 359.4 109.53 360.85 110.53 360.9L137.79 362.35L141.62 362.55C142.62 362.6 142.62 361.1 141.62 361.05Z" fill="#7189FF"/>
<path d="M173 428.94L142.43 425.64L138.04 425.17C137.04 425.07 137.09 426.57 138.04 426.67L168.61 429.97L173 430.44C174 430.54 173.95 429.04 173 428.94Z" fill="#7189FF"/>
<path d="M174.71 355.08L168.52 368.4L158.71 389.5L156.44 394.38C156.03 395.25 157.33 396.02 157.73 395.14L163.92 381.82L173.73 360.71L176 355.83C176.41 354.96 175.11 354.2 174.71 355.07V355.08Z" fill="#7189FF"/>
<path d="M140 335.36C141.52 337.5 144.17 338.31 145.91 337.17C147.65 336.03 147.84 333.38 146.32 331.24C144.8 329.1 142.15 328.24 140.41 329.42C138.67 330.6 138.46 333.22 140 335.36Z" stroke="#7189FF" stroke-miterlimit="10"/>
<path d="M130 322.2C129.982 322.627 130.092 323.049 130.316 323.412C130.54 323.776 130.868 324.064 131.257 324.24C131.646 324.416 132.079 324.471 132.5 324.399C132.92 324.327 133.31 324.131 133.618 323.835C133.927 323.54 134.14 323.159 134.23 322.742C134.32 322.324 134.283 321.89 134.124 321.493C133.965 321.097 133.691 320.757 133.338 320.518C132.984 320.279 132.567 320.15 132.14 320.15C131.865 320.143 131.591 320.191 131.334 320.291C131.077 320.39 130.843 320.54 130.644 320.73C130.445 320.921 130.286 321.149 130.175 321.401C130.065 321.653 130.005 321.925 130 322.2Z" stroke="#7189FF" stroke-miterlimit="10"/>
<path d="M137.42 315.09C137.39 315.804 137.574 316.51 137.949 317.118C138.324 317.726 138.872 318.208 139.523 318.502C140.174 318.797 140.898 318.889 141.602 318.769C142.306 318.648 142.958 318.319 143.474 317.825C143.989 317.331 144.346 316.694 144.496 315.995C144.647 315.297 144.586 314.57 144.32 313.907C144.054 313.244 143.595 312.676 143.004 312.275C142.412 311.875 141.714 311.661 141 311.66C140.071 311.641 139.172 311.992 138.501 312.635C137.83 313.278 137.441 314.161 137.42 315.09Z" stroke="#7189FF" stroke-miterlimit="10"/>
<path d="M114.45 375.05C114.418 375.879 114.635 376.698 115.072 377.403C115.509 378.108 116.147 378.666 116.904 379.005C117.661 379.345 118.502 379.451 119.319 379.309C120.136 379.167 120.892 378.784 121.49 378.209C122.088 377.634 122.501 376.893 122.675 376.082C122.848 375.271 122.776 374.427 122.466 373.657C122.157 372.888 121.624 372.228 120.937 371.764C120.25 371.299 119.44 371.051 118.61 371.05C118.074 371.038 117.541 371.132 117.041 371.327C116.541 371.522 116.085 371.813 115.699 372.185C115.312 372.557 115.003 373.001 114.788 373.493C114.574 373.985 114.459 374.514 114.45 375.05Z" stroke="#7189FF" stroke-miterlimit="10"/>
<path d="M212.45 454.85C213.393 454.296 214.292 453.671 215.14 452.98C224.49 445.34 220.77 433.26 219.8 423.85C218.75 413.68 233.38 418.22 239.21 405.17C245.04 392.12 230.77 387.36 237.48 381.9C244.19 376.44 245.79 359.55 236.24 354.43C224.42 348.09 212.05 357.9 210.49 367.98C209.29 375.76 214.73 381.2 200.57 386.9C195.71 388.9 192.77 390.98 191.13 393.47" stroke="#7189FF" stroke-miterlimit="10"/>
<path d="M204.81 421.89C212.55 405.07 220.25 388.22 228.49 371.65C229.85 368.9 231.23 366.16 232.72 363.48C233.19 362.64 231.89 361.88 231.42 362.73C228.31 368.3 225.59 374.11 222.82 379.86C218.693 388.454 214.633 397.077 210.64 405.73C208.253 410.857 205.877 415.99 203.51 421.13C203.11 422 204.41 422.77 204.81 421.89Z" fill="#7189FF"/>
<path d="M215.45 398.14L232.24 397.25L234.66 397.12C235.66 397.12 235.66 395.57 234.66 395.62L217.86 396.51L215.45 396.64C214.45 396.69 214.45 398.19 215.45 398.14Z" fill="#7189FF"/>
<path d="M205.07 439.12L216.07 437.93L217.65 437.76C218.65 437.66 218.65 436.16 217.65 436.26L206.65 437.45L205.07 437.62C204.12 437.72 204.07 439.22 205.07 439.12Z" fill="#7189FF"/>
<path d="M194 393.85L203.89 415.14L205.29 418.14C205.7 419.02 206.99 418.26 206.58 417.39L196.69 396.1L195.29 393.1C194.89 392.23 193.59 392.99 194 393.86V393.85Z" fill="#7189FF"/>
<path d="M222 365.75C221.643 366.363 221.068 366.819 220.39 367.028C219.712 367.238 218.981 367.185 218.34 366.88C217.26 366.17 217.15 364.53 218.09 363.21C218.447 362.597 219.022 362.141 219.7 361.932C220.378 361.722 221.109 361.775 221.75 362.08C222.79 362.79 222.91 364.43 222 365.75Z" stroke="#7189FF" stroke-miterlimit="10"/>
<path d="M232.24 405.58C232.262 406.092 232.13 406.6 231.861 407.037C231.593 407.473 231.199 407.82 230.732 408.031C230.265 408.243 229.745 408.31 229.239 408.223C228.734 408.137 228.266 407.901 227.895 407.547C227.525 407.192 227.269 406.735 227.16 406.233C227.052 405.732 227.096 405.21 227.287 404.734C227.478 404.258 227.807 403.85 228.231 403.562C228.656 403.274 229.157 403.12 229.67 403.12C230.337 403.107 230.981 403.358 231.463 403.819C231.945 404.28 232.224 404.913 232.24 405.58Z" stroke="#7189FF" stroke-miterlimit="10"/>
<path d="M20.06 456.29H577.42C584.95 456.29 592.48 456.41 600.01 456.29H601.01C601.342 456.29 601.659 456.158 601.894 455.924C602.128 455.689 602.26 455.371 602.26 455.04C602.26 454.708 602.128 454.391 601.894 454.156C601.659 453.922 601.342 453.79 601.01 453.79H43.65C36.12 453.79 28.58 453.68 21.05 453.79H20.05C19.7185 453.79 19.4006 453.922 19.1662 454.156C18.9317 454.391 18.8 454.708 18.8 455.04C18.8 455.371 18.9317 455.689 19.1662 455.924C19.4006 456.158 19.7185 456.29 20.05 456.29H20.06Z" fill="#0F0D1D"/>
<path d="M120.52 150.5H341.48C347.29 150.5 352 155.21 352 161.02V167.98C352 173.79 347.29 178.5 341.48 178.5H120.52C114.71 178.5 110 173.79 110 167.98V161.02C110 155.21 114.71 150.5 120.52 150.5Z" fill="white" stroke="#F2718D"/>
<path d="M341.48 203H120.52C114.434 203 109.5 207.934 109.5 214.02V244.98C109.5 251.066 114.434 256 120.52 256H341.48C347.566 256 352.5 251.066 352.5 244.98V214.02C352.5 207.934 347.566 203 341.48 203Z" stroke="#F2718D" stroke-miterlimit="10"/>
<path fill-rule="evenodd" clip-rule="evenodd" d="M52.79 287.89C54.4676 288.767 56.0212 289.863 57.41 291.15L62.34 289.39L66.98 296.71L63.29 300.42C63.8653 302.225 64.2015 304.097 64.29 305.99L69.0201 308.24L67.12 316.69H61.8801C61.0097 318.369 59.9165 319.923 58.6301 321.31L60.39 326.24L53 330.89L49.28 327.2C47.4787 327.776 45.6093 328.112 43.72 328.2L41.47 332.92L33.0201 331.03V325.79C31.3407 324.919 29.7866 323.826 28.4 322.54L23.4601 324.3L18.8201 316.98L22.5201 313.26C21.944 311.458 21.6077 309.589 21.5201 307.7L16.79 305.45L18.69 297H24C24.8774 295.322 25.9736 293.768 27.26 292.38L25.5 287.44L32.8201 282.8L36.53 286.5C38.335 285.924 40.2077 285.588 42.1001 285.5L44.3501 280.77L52.8 282.67V287.9L52.79 287.89ZM45.34 297.84C43.5457 297.429 41.67 297.561 39.9505 298.217C38.2309 298.874 36.7448 300.026 35.6803 301.527C34.6159 303.029 34.021 304.813 33.9709 306.653C33.9208 308.493 34.4178 310.306 35.399 311.863C36.3802 313.421 37.8014 314.652 39.4827 315.401C41.164 316.15 43.0298 316.383 44.8438 316.071C46.6578 315.759 48.3384 314.916 49.6728 313.648C51.0073 312.38 51.9355 310.745 52.34 308.95C52.8782 306.549 52.4441 304.032 51.1324 301.95C49.8207 299.868 47.7382 298.39 45.34 297.84Z" stroke="#EC4E70" stroke-miterlimit="10"/>
<path d="M122.032 101.083V103.99H118.085V115.979H114.456V103.99H110.509V101.083H122.032ZM131.131 104.012C132.489 104.012 133.578 104.464 134.399 105.37C135.219 106.261 135.63 107.492 135.63 109.062V115.979H132.022V109.55C132.022 108.758 131.817 108.142 131.407 107.704C130.997 107.265 130.445 107.046 129.752 107.046C129.059 107.046 128.507 107.265 128.097 107.704C127.686 108.142 127.481 108.758 127.481 109.55V115.979H123.853V100.277H127.481V105.73C127.849 105.207 128.351 104.79 128.988 104.478C129.624 104.167 130.339 104.012 131.131 104.012ZM149.313 109.868C149.313 110.208 149.291 110.561 149.249 110.929H141.037C141.094 111.665 141.327 112.231 141.737 112.627C142.162 113.009 142.678 113.2 143.286 113.2C144.192 113.2 144.821 112.818 145.175 112.054H149.037C148.839 112.832 148.478 113.532 147.955 114.155C147.445 114.777 146.802 115.265 146.024 115.619C145.246 115.972 144.376 116.149 143.414 116.149C142.254 116.149 141.221 115.902 140.316 115.407C139.41 114.911 138.703 114.204 138.194 113.285C137.684 112.365 137.43 111.29 137.43 110.059C137.43 108.828 137.677 107.753 138.172 106.834C138.682 105.914 139.389 105.207 140.294 104.712C141.2 104.217 142.239 103.969 143.414 103.969C144.559 103.969 145.578 104.21 146.469 104.691C147.36 105.172 148.054 105.858 148.549 106.749C149.058 107.64 149.313 108.68 149.313 109.868ZM145.599 108.913C145.599 108.291 145.387 107.796 144.963 107.428C144.538 107.06 144.008 106.876 143.371 106.876C142.763 106.876 142.247 107.053 141.822 107.407C141.412 107.76 141.157 108.263 141.058 108.913H145.599ZM167.076 105.879C167.076 106.742 166.878 107.534 166.482 108.256C166.086 108.963 165.478 109.536 164.657 109.974C163.837 110.413 162.818 110.632 161.602 110.632H159.352V115.979H155.724V101.083H161.602C162.79 101.083 163.794 101.288 164.615 101.699C165.435 102.109 166.051 102.675 166.461 103.396C166.871 104.118 167.076 104.945 167.076 105.879ZM161.326 107.746C162.019 107.746 162.535 107.584 162.875 107.258C163.214 106.933 163.384 106.473 163.384 105.879C163.384 105.285 163.214 104.825 162.875 104.5C162.535 104.174 162.019 104.012 161.326 104.012H159.352V107.746H161.326ZM172.594 106.112C173.018 105.462 173.549 104.952 174.185 104.584C174.822 104.203 175.529 104.012 176.307 104.012V107.852H175.31C174.405 107.852 173.726 108.05 173.273 108.446C172.82 108.828 172.594 109.507 172.594 110.484V115.979H168.965V104.139H172.594V106.112ZM183.432 116.149C182.272 116.149 181.225 115.902 180.291 115.407C179.371 114.911 178.643 114.204 178.105 113.285C177.582 112.365 177.32 111.29 177.32 110.059C177.32 108.843 177.589 107.775 178.127 106.855C178.664 105.921 179.4 105.207 180.333 104.712C181.267 104.217 182.314 103.969 183.474 103.969C184.634 103.969 185.681 104.217 186.614 104.712C187.548 105.207 188.284 105.921 188.821 106.855C189.359 107.775 189.628 108.843 189.628 110.059C189.628 111.276 189.352 112.351 188.8 113.285C188.263 114.204 187.52 114.911 186.572 115.407C185.638 115.902 184.592 116.149 183.432 116.149ZM183.432 113.009C184.125 113.009 184.712 112.754 185.193 112.245C185.688 111.736 185.935 111.007 185.935 110.059C185.935 109.111 185.695 108.383 185.214 107.874C184.747 107.364 184.167 107.11 183.474 107.11C182.767 107.11 182.18 107.364 181.713 107.874C181.246 108.369 181.012 109.097 181.012 110.059C181.012 111.007 181.239 111.736 181.692 112.245C182.158 112.754 182.738 113.009 183.432 113.009ZM193.356 102.908C192.72 102.908 192.196 102.724 191.786 102.356C191.39 101.974 191.192 101.508 191.192 100.956C191.192 100.39 191.39 99.9232 191.786 99.5554C192.196 99.1735 192.72 98.9825 193.356 98.9825C193.979 98.9825 194.488 99.1735 194.884 99.5554C195.294 99.9232 195.5 100.39 195.5 100.956C195.5 101.508 195.294 101.974 194.884 102.356C194.488 102.724 193.979 102.908 193.356 102.908ZM195.181 117.507C195.181 118.964 194.813 120.011 194.078 120.648C193.342 121.299 192.317 121.624 191.001 121.624H189.579V118.547H190.449C190.845 118.547 191.128 118.469 191.298 118.314C191.468 118.158 191.553 117.903 191.553 117.55V104.139H195.181V117.507ZM208.952 109.868C208.952 110.208 208.931 110.561 208.888 110.929H200.676C200.733 111.665 200.966 112.231 201.376 112.627C201.801 113.009 202.317 113.2 202.925 113.2C203.831 113.2 204.46 112.818 204.814 112.054H208.676C208.478 112.832 208.117 113.532 207.594 114.155C207.084 114.777 206.441 115.265 205.663 115.619C204.885 115.972 204.015 116.149 203.053 116.149C201.893 116.149 200.86 115.902 199.955 115.407C199.049 114.911 198.342 114.204 197.833 113.285C197.323 112.365 197.069 111.29 197.069 110.059C197.069 108.828 197.316 107.753 197.811 106.834C198.321 105.914 199.028 105.207 199.933 104.712C200.839 104.217 201.879 103.969 203.053 103.969C204.199 103.969 205.217 104.21 206.108 104.691C207 105.172 207.693 105.858 208.188 106.749C208.697 107.64 208.952 108.68 208.952 109.868ZM205.238 108.913C205.238 108.291 205.026 107.796 204.602 107.428C204.177 107.06 203.647 106.876 203.01 106.876C202.402 106.876 201.886 107.053 201.461 107.407C201.051 107.76 200.796 108.263 200.697 108.913H205.238ZM210.145 110.059C210.145 108.828 210.392 107.753 210.887 106.834C211.396 105.914 212.097 105.207 212.988 104.712C213.893 104.217 214.926 103.969 216.086 103.969C217.571 103.969 218.809 104.358 219.8 105.136C220.804 105.914 221.462 107.011 221.773 108.425H217.911C217.586 107.52 216.956 107.067 216.022 107.067C215.358 107.067 214.827 107.329 214.431 107.852C214.035 108.362 213.837 109.097 213.837 110.059C213.837 111.021 214.035 111.764 214.431 112.287C214.827 112.797 215.358 113.051 216.022 113.051C216.956 113.051 217.586 112.598 217.911 111.693H221.773C221.462 113.079 220.804 114.169 219.8 114.961C218.795 115.753 217.557 116.149 216.086 116.149C214.926 116.149 213.893 115.902 212.988 115.407C212.097 114.911 211.396 114.204 210.887 113.285C210.392 112.365 210.145 111.29 210.145 110.059ZM230.313 112.903V115.979H228.467C227.151 115.979 226.126 115.661 225.39 115.025C224.655 114.374 224.287 113.32 224.287 111.863V107.152H222.844V104.139H224.287V101.253H227.915V104.139H230.292V107.152H227.915V111.905C227.915 112.259 228 112.514 228.17 112.669C228.34 112.825 228.623 112.903 229.019 112.903H230.313Z" fill="#29333D"/>
<path d="M81.5 74C81.5 67.6487 86.6487 62.5 93 62.5H368C374.351 62.5 379.5 67.6487 379.5 74V86.5H81.5V74Z" fill="white" stroke="#E54985"/>
<path fill-rule="evenodd" clip-rule="evenodd" d="M118.91 38.9098C120.124 39.5394 121.247 40.3298 122.25 41.2598L125.81 39.9898L129.16 45.2798L126.49 47.9598C126.903 49.2554 127.138 50.601 127.19 51.9598L130.61 53.5798L129.24 59.6898H125.46C124.824 60.8969 124.034 62.0163 123.11 63.0198L124.38 66.5898L119.09 69.9398L116.41 67.2698C115.112 67.6731 113.768 67.9084 112.41 67.9698L110.79 71.3798L104.68 70.0098V66.2298C103.469 65.6 102.349 64.8095 101.35 63.8798L97.78 65.1498L94.43 59.8598L97.1 57.1798C96.6903 55.8834 96.4549 54.5382 96.4 53.1798L93 51.5698L94.37 45.4598H98.15C98.7761 44.2437 99.5669 43.1198 100.5 42.1198L99.23 38.5598L104.51 35.2098L107.2 37.8798C108.495 37.4654 109.841 37.2298 111.2 37.1798L112.82 33.7598L118.92 35.1298V38.9098H118.91ZM113.53 46.0998C112.234 45.8087 110.882 45.9086 109.643 46.3868C108.404 46.865 107.335 47.7 106.571 48.7861C105.807 49.8722 105.382 51.1606 105.351 52.4881C105.32 53.8156 105.683 55.1226 106.395 56.2435C107.107 57.3645 108.135 58.2491 109.35 58.7853C110.565 59.3214 111.911 59.4851 113.219 59.2556C114.527 59.0261 115.737 58.4136 116.697 57.4958C117.657 56.578 118.322 55.3961 118.61 54.0998C118.995 52.3655 118.676 50.5493 117.724 49.0497C116.771 47.55 115.263 46.4892 113.53 46.0998Z" fill="#F2718D"/>
<g clip-path="url(#clip1_1_958)">
<path d="M425.142 124.2C422.09 122.937 420.288 122.692 418.616 116.591C416.812 109.978 414.867 101.283 413.736 94.2741C412.383 85.8538 411.066 81.8397 411.066 79.029C411.066 75.6271 416.996 69.33 421.635 69.3783C426.275 69.4265 455.067 65.8769 456.793 76.0885C458.519 86.3002 469.934 117.547 468.963 122.602C467.991 127.656 425.142 124.2 425.142 124.2Z" fill="#DFDEDE"/>
<mask id="mask0_1_958" style="mask-type:luminance" maskUnits="userSpaceOnUse" x="411" y="68" width="59" height="58">
<path d="M425.142 124.2C422.09 122.937 420.288 122.692 418.616 116.591C416.812 109.978 414.867 101.283 413.736 94.2741C412.383 85.8538 411.066 81.8397 411.066 79.029C411.066 75.6271 416.996 69.33 421.635 69.3783C426.275 69.4265 455.067 65.8769 456.793 76.0885C458.519 86.3002 469.934 117.547 468.963 122.602C467.991 127.656 425.142 124.2 425.142 124.2Z" fill="white"/>
</mask>
<g mask="url(#mask0_1_958)">
<path d="M411.066 82.1956C414.133 78.7485 416.235 83.0823 416.036 85.3502C415.838 87.6181 415.387 95.3176 416.466 98.5837C417.546 101.85 419.371 107.218 419.236 110.252C419.101 113.286 415.54 119.839 418.851 123.265C422.162 126.691 454.388 127.868 459.04 124.273C463.691 120.678 457.936 116.63 456.162 112.429C454.388 108.228 453.377 103.017 454.078 100.918C454.779 98.8189 455.627 102.164 457.256 107.064C458.886 111.965 460.513 119.731 463.46 123.244C466.407 126.758 473.383 135.995 471.915 118.262C470.448 100.529 464.933 79.9941 460.188 74.3152C455.443 68.6364 447.297 68.3771 438.466 64.5409C429.634 60.7047 408.612 63.033 406.892 68.8264C405.172 74.6198 411.066 82.1956 411.066 82.1956Z" fill="#C2C2C1"/>
</g>
<path d="M425.142 124.2C422.09 122.937 420.288 122.692 418.616 116.591C416.812 109.978 414.867 101.283 413.736 94.2741C412.383 85.8538 411.066 81.8397 411.066 79.029C411.066 75.6271 416.996 69.33 421.635 69.3783C426.275 69.4265 455.067 65.8769 456.793 76.0885C458.519 86.3002 469.934 117.547 468.963 122.602C467.991 127.656 425.142 124.2 425.142 124.2Z" stroke="#302D30" stroke-linecap="round" stroke-linejoin="round"/>
<path d="M423.918 113.874C424.315 116.07 423.918 119.993 423.918 119.993C423.918 119.993 442.621 120.192 447.072 118.995C451.522 117.798 454.418 113.835 453.555 109.712C452.883 106.318 452.408 102.887 452.133 99.4372C452 97.7725 452.018 91.6563 452.018 91.6563C452.018 91.6563 449.643 101.714 442.321 105.831C434.999 109.947 423.918 113.874 423.918 113.874Z" fill="#E49E5F" stroke="#302D30" stroke-linecap="round" stroke-linejoin="round"/>
<path d="M418.836 71.2722C418.018 75.5155 417.149 78.471 417.591 80.5007C418.033 82.5304 418.153 83.5467 418.153 83.5467C418.153 83.5467 416.951 85.9593 416.779 90.5675C416.608 95.1758 418.451 100.134 420.315 103.916C422.18 107.698 422.12 112.245 422.12 112.245C424.755 113.24 427.574 113.651 430.383 113.452C434.914 113.084 440.607 110.038 442.82 109.208C445.033 108.379 447.974 107.918 449.135 104.594C450.295 101.271 451.176 95.8272 451.176 95.8272C451.176 95.8272 453.41 97.9383 455.227 94.651C456.61 92.1509 457.864 91.1406 457.753 87.6603C457.608 83.0642 454.198 84.4213 454.198 84.4213C454.198 84.4213 455.173 78.2026 450.909 73.9593C446.645 69.7161 439.891 65.7472 432.518 66.5766C425.145 67.4059 418.926 70.8108 418.836 71.2722Z" fill="#F5B87E"/>
<mask id="mask1_1_958" style="mask-type:luminance" maskUnits="userSpaceOnUse" x="416" y="66" width="42" height="48">
<path d="M418.836 71.2722C418.018 75.5155 417.149 78.471 417.591 80.5007C418.033 82.5303 418.154 83.5466 418.154 83.5466C418.154 83.5466 416.951 85.9593 416.779 90.5675C416.608 95.1757 418.451 100.134 420.316 103.916C422.18 107.698 422.12 112.245 422.12 112.245C424.755 113.24 427.574 113.651 430.383 113.452C434.914 113.084 440.607 110.038 442.82 109.208C445.033 108.379 447.974 107.918 449.135 104.594C450.295 101.271 451.176 95.8272 451.176 95.8272C451.176 95.8272 453.411 97.9383 455.227 94.651C456.61 92.1509 457.864 91.1406 457.753 87.6603C457.608 83.0641 454.198 84.4213 454.198 84.4213C454.198 84.4213 455.173 78.2026 450.909 73.9593C446.645 69.716 439.891 65.7472 432.518 66.5765C425.145 67.4059 418.926 70.8107 418.836 71.2722Z" fill="white"/>
</mask>
<g mask="url(#mask1_1_958)">
<path d="M475.452 104.878C474.85 101.434 464.729 79.2944 464.299 78.3534C464.239 78.2228 464.139 78.1141 464.015 78.0423C463.891 77.9704 463.747 77.939 463.604 77.9524C463.604 77.9524 463.267 77.9825 462.702 77.9976C462.003 76.3503 461.145 74.7756 460.14 73.2958C459.844 72.5083 459.599 71.7024 459.406 70.8832C459.003 69.321 458.588 67.7045 457.193 65.5844C455.603 63.1717 450.524 57.532 437.789 57.532C426.206 57.532 418.481 64.5831 417.609 66.8208C417.399 67.37 417.218 67.9297 417.065 68.4977C416.891 69.3186 416.53 70.0883 416.012 70.7475C415.643 71.227 415.279 71.6794 414.927 72.1227C412.879 74.6741 411.114 76.8787 410.392 80.9832C410.362 81.1449 410.391 81.3121 410.472 81.4548C410.554 81.5975 410.683 81.7065 410.838 81.7623C410.992 81.8181 411.161 81.817 411.315 81.7594C411.468 81.7018 411.596 81.5913 411.676 81.4477C411.846 81.1115 411.981 80.7588 412.079 80.3951C412.605 78.7123 413.49 75.9016 418.944 73.5794C420.854 72.7681 421.693 73.2084 422.661 74.3665C423.629 75.5246 424.766 76.0222 425.851 75.7869C426.235 75.7018 426.59 75.519 426.883 75.2561C427.158 75.5748 427.525 75.8011 427.932 75.9046C428.768 76.0976 429.52 75.6422 430.284 75.1235C430.63 74.8852 430.956 74.6201 431.261 74.3303C431.676 73.9443 431.953 73.691 433.116 73.2778C434.13 72.9189 435.886 74.1825 437.326 75.3315C438.586 77.1712 443.247 79.9458 449.189 83.3748C450.892 84.3547 452.417 85.6171 453.699 87.1084C454.153 87.6694 454.986 91.7438 455.227 94.648C455.527 98.3455 456.622 101.922 457.431 104.275C458.955 108.696 465.288 124.695 465.354 124.855C465.388 124.94 465.438 125.019 465.502 125.084C465.566 125.15 465.643 125.202 465.727 125.238L477.695 130.283C477.806 130.33 477.928 130.347 478.047 130.332C478.167 130.317 478.281 130.271 478.378 130.199C478.474 130.127 478.55 130.031 478.598 129.92C478.646 129.81 478.664 129.688 478.651 129.568C478.633 129.394 476.808 112.451 475.452 104.878Z" fill="#E49E5F"/>
<path d="M443.084 76.4716C442.814 78.64 444.329 81.1642 444.438 82.1383C444.546 83.1125 443.337 84.0444 441.77 82.6872C440.204 81.3301 438.093 81.2789 435.877 81.2789C433.66 81.2789 431.065 80.1931 430.906 81.5503C430.747 82.9074 430.193 87.5156 429.842 89.7352C429.541 91.596 429.842 91.3518 430.924 92.0575C432.007 92.7632 431.79 93.122 432.007 89.9795C432.223 86.837 431.931 86.9637 435.501 87.024C439.07 87.0843 442.796 86.9697 443.878 88.7069C444.961 90.444 446.203 93.2608 445.715 94.5063C445.228 95.7519 442.3 98.0831 440.519 99.7659C438.739 101.449 439.5 107.137 442.579 105.077C445.658 103.017 452.147 94.8863 452.31 86.5385C452.472 78.1906 452.472 74.5565 449.985 74.4479C447.499 74.3394 443.084 76.4716 443.084 76.4716Z" fill="#E49E5F"/>
<path d="M418.427 81.4507C419.997 81.0315 421.642 79.3969 423.178 79.7106C424.715 80.0242 426.263 81.0074 426.675 82.4761C427.087 83.9449 426.597 85.3291 426.26 86.8702C425.923 88.4113 425.593 90.4198 425.593 90.4198C425.593 90.4198 425.506 86.9396 422.959 86.7647C420.412 86.5897 418.096 87.1688 417.477 88.2726C416.857 89.3764 417.591 94.7928 418.74 96.4666C419.888 98.1404 420.123 100.855 420.192 101.895C420.261 102.936 417.047 102.957 416.415 96.7863C415.784 90.6159 414.44 85.9504 415.318 84.1016C416.196 82.2529 418.427 81.4507 418.427 81.4507Z" fill="#E49E5F"/>
<path d="M425.087 103.005C426.748 102.461 428.539 102.461 430.199 103.005C431.778 103.466 433.227 106.003 427.965 106.003C422.703 106.003 424.23 103.258 425.087 103.005Z" fill="#E49E5F"/>
</g>
<path d="M418.836 71.2722C418.018 75.5155 417.149 78.471 417.591 80.5007C418.033 82.5304 418.153 83.5467 418.153 83.5467C418.153 83.5467 416.951 85.9593 416.779 90.5675C416.608 95.1758 418.451 100.134 420.315 103.916C422.18 107.698 422.12 112.245 422.12 112.245C424.755 113.24 427.574 113.651 430.383 113.452C434.914 113.084 440.607 110.038 442.82 109.208C445.033 108.379 447.974 107.918 449.135 104.594C450.295 101.271 451.176 95.8272 451.176 95.8272C451.176 95.8272 453.41 97.9383 455.227 94.651C456.61 92.1509 457.864 91.1406 457.753 87.6603C457.608 83.0642 454.198 84.4213 454.198 84.4213C454.198 84.4213 455.173 78.2026 450.909 73.9593C446.645 69.7161 439.891 65.7472 432.518 66.5766C425.145 67.4059 418.926 70.8108 418.836 71.2722Z" stroke="#302D30" stroke-linecap="round" stroke-linejoin="round"/>
<path d="M446.212 73.51C446.512 74.5625 448.371 78.8299 449.381 80.1659C450.391 81.5019 451.426 91.9278 451.077 93.2577C450.728 94.5877 446.747 97.7513 444.134 99.1266C441.521 100.502 438.252 103.032 437.067 105.203C435.883 107.375 433.369 108.919 432.082 108.919C430.416 108.919 428.921 107.435 428.921 106.313C428.921 105.191 430.037 105.107 430.037 104.275C430.037 103.641 429.661 103.216 427.607 103.216C425.626 103.216 425.731 103.671 425.881 104.229C425.987 104.609 426.408 104.754 426.408 105.767C426.408 106.781 425.079 108.593 423.831 108.28C422.583 107.966 421.212 105.098 420.445 103.325C419.678 101.551 417.239 96.2584 417.248 95.4592C417.6 99.1989 420.096 105.134 420.688 107.45C421.129 109.089 421.456 110.757 421.666 112.441C421.699 113.045 423.025 115.12 428.215 115.011C433.405 114.902 434.554 113.962 437.515 112.405C440.477 110.849 444.176 109.959 446.179 108.485C448.56 106.733 449.643 105.608 450.16 102.818C450.677 100.028 450.809 98.7797 450.809 98.7797C450.809 98.7797 450.948 90.842 451.366 89.5753C451.784 88.3087 454.123 84.6354 454.123 84.6354C454.123 84.6354 456.487 77.6718 455.825 76.1911C455.164 74.7103 454.292 72.9701 451.54 71.4502C448.789 69.9302 445.697 71.6492 446.212 73.51Z" fill="#423940"/>
<mask id="mask2_1_958" style="mask-type:luminance" maskUnits="userSpaceOnUse" x="417" y="70" width="39" height="46">
<path d="M446.212 73.51C446.512 74.5625 448.371 78.8299 449.381 80.1659C450.391 81.5019 451.426 91.9277 451.077 93.2577C450.728 94.5877 446.747 97.7513 444.134 99.1265C441.521 100.502 438.252 103.032 437.067 105.203C435.883 107.375 433.369 108.919 432.082 108.919C430.416 108.919 428.921 107.435 428.921 106.313C428.921 105.191 430.037 105.107 430.037 104.275C430.037 103.641 429.661 103.216 427.607 103.216C425.626 103.216 425.731 103.671 425.881 104.229C425.987 104.609 426.408 104.754 426.408 105.767C426.408 106.781 425.079 108.593 423.831 108.28C422.583 107.966 421.212 105.098 420.445 103.325C419.678 101.551 417.239 96.2584 417.248 95.4592C417.6 99.1989 420.096 105.134 420.688 107.45C421.129 109.089 421.456 110.757 421.666 112.441C421.699 113.045 423.025 115.12 428.215 115.011C433.405 114.902 434.554 113.961 437.515 112.405C440.477 110.849 444.176 109.959 446.179 108.485C448.56 106.733 449.643 105.608 450.16 102.818C450.677 100.028 450.809 98.7797 450.809 98.7797C450.809 98.7797 450.948 90.842 451.366 89.5753C451.784 88.3087 454.123 84.6354 454.123 84.6354C454.123 84.6354 456.487 77.6718 455.825 76.191C455.164 74.7103 454.292 72.9701 451.54 71.4501C448.789 69.9301 445.697 71.6492 446.212 73.51Z" fill="white"/>
</mask>
<g mask="url(#mask2_1_958)">
<path d="M455.732 75.98C455.309 77.9698 454.772 79.9334 454.123 81.8609C454.123 81.8609 451.784 85.5311 451.366 86.7978C451.235 87.3645 451.154 87.9418 451.125 88.5228C451.177 89.1721 451.162 89.825 451.08 90.4711C451.098 90.7727 451.113 91.0381 451.125 91.2975C451.154 90.7174 451.235 90.1411 451.366 89.5754C451.784 88.3087 454.123 84.6354 454.123 84.6354C454.123 84.6354 456.487 77.6719 455.825 76.1911C455.795 76.1187 455.765 76.0403 455.732 75.98Z" fill="#383137"/>
<path d="M475.452 104.878C474.85 101.434 464.729 79.2944 464.299 78.3534C464.239 78.2228 464.139 78.1141 464.015 78.0423C463.891 77.9704 463.747 77.939 463.604 77.9524C463.604 77.9524 463.267 77.9825 462.702 77.9976C462.003 76.3503 461.145 74.7756 460.14 73.2958C459.844 72.5083 459.599 71.7024 459.406 70.8832C459.003 69.321 458.588 67.7045 457.193 65.5844C455.603 63.1717 450.524 57.532 437.789 57.532C426.206 57.532 418.481 64.5831 417.609 66.8208C417.399 67.37 417.218 67.9297 417.065 68.4977C416.891 69.3186 416.53 70.0883 416.012 70.7475C415.643 71.227 415.279 71.6794 414.927 72.1227C412.879 74.6741 411.114 76.8787 410.392 80.9832C410.362 81.1449 410.391 81.3121 410.472 81.4548C410.554 81.5975 410.683 81.7065 410.838 81.7623C410.992 81.8181 411.161 81.817 411.315 81.7594C411.468 81.7018 411.596 81.5913 411.676 81.4477C411.846 81.1115 411.981 80.7588 412.079 80.3951C412.605 78.7123 413.49 75.9016 418.944 73.5794C420.854 72.7681 421.693 73.2084 422.661 74.3665C423.629 75.5246 424.766 76.0222 425.851 75.7869C426.235 75.7018 426.59 75.519 426.883 75.2561C427.158 75.5748 427.525 75.8011 427.932 75.9046C428.768 76.0976 429.52 75.6422 430.284 75.1235C430.63 74.8852 430.956 74.6201 431.261 74.3303C431.676 73.9443 431.953 73.691 433.116 73.2778C434.13 72.9189 435.886 74.1825 437.326 75.3315C438.586 77.1712 443.247 79.9458 449.189 83.3748C450.892 84.3547 452.417 85.6171 453.699 87.1084C454.153 87.6694 454.986 91.7438 455.227 94.648C455.527 98.3455 456.622 101.922 457.431 104.275C458.955 108.696 465.288 124.695 465.354 124.855C465.388 124.94 465.438 125.019 465.502 125.084C465.566 125.15 465.643 125.202 465.727 125.238L477.695 130.283C477.806 130.33 477.928 130.347 478.047 130.332C478.167 130.317 478.281 130.271 478.378 130.199C478.474 130.127 478.55 130.031 478.598 129.92C478.646 129.81 478.664 129.688 478.651 129.568C478.633 129.394 476.808 112.451 475.452 104.878Z" fill="#383137"/>
<path d="M450.809 96.6988C450.809 96.6988 450.677 97.9473 450.16 100.737C449.643 103.527 448.56 104.658 446.179 106.404C444.176 107.879 440.45 108.783 437.515 110.324C434.581 111.865 433.405 112.822 428.215 112.93C423.025 113.039 421.699 110.976 421.666 110.361C421.456 108.675 421.129 107.006 420.688 105.366C420.508 104.658 420.147 103.611 419.726 102.393C418.713 100.104 417.242 96.7742 417.248 96.1559C417.6 99.8926 420.096 105.828 420.688 108.144C421.129 109.783 421.455 111.451 421.666 113.135C421.699 113.738 423.025 115.813 428.215 115.705C433.405 115.596 434.554 114.655 437.515 113.099C440.477 111.543 444.176 110.656 446.179 109.178C448.56 107.426 449.643 106.301 450.16 103.512C450.677 100.722 450.809 99.4734 450.809 99.4734C450.809 99.4734 450.858 96.7169 450.984 94.1926C450.949 94.2632 450.909 94.3317 450.867 94.3978C450.827 95.7187 450.809 96.6988 450.809 96.6988Z" fill="#383137"/>
</g>
<path d="M446.212 73.51C446.512 74.5625 448.371 78.8299 449.381 80.1659C450.391 81.5019 451.426 91.9278 451.077 93.2577C450.728 94.5877 446.747 97.7513 444.134 99.1266C441.521 100.502 438.252 103.032 437.067 105.203C435.883 107.375 433.369 108.919 432.082 108.919C430.416 108.919 428.921 107.435 428.921 106.313C428.921 105.191 430.037 105.107 430.037 104.275C430.037 103.641 429.661 103.216 427.607 103.216C425.626 103.216 425.731 103.671 425.881 104.229C425.987 104.609 426.408 104.754 426.408 105.767C426.408 106.781 425.079 108.593 423.831 108.28C422.583 107.966 421.212 105.098 420.445 103.325C419.678 101.551 417.239 96.2584 417.248 95.4593C417.6 99.1989 420.096 105.134 420.688 107.45C421.129 109.089 421.456 110.757 421.666 112.441C421.699 113.045 423.025 115.12 428.215 115.011C433.405 114.902 434.554 113.962 437.515 112.405C440.477 110.849 444.176 109.959 446.179 108.485C448.56 106.733 449.643 105.608 450.16 102.818C450.677 100.028 450.809 98.7797 450.809 98.7797C450.809 98.7797 450.948 90.842 451.366 89.5753C451.784 88.3087 454.123 84.6354 454.123 84.6354C454.123 84.6354 456.487 77.6718 455.825 76.1911C455.164 74.7103 454.292 72.9701 451.54 71.4502C448.789 69.9302 445.697 71.6492 446.212 73.51Z" stroke="#302D30" stroke-linecap="round" stroke-linejoin="round"/>
<path d="M423.181 71.8423C424.784 73.7603 426.519 73.1481 426.844 71.9508C427.83 73.6789 428.648 73.317 429.884 72.4725C431.12 71.6281 430.912 71.2421 432.891 70.5484C434.869 69.8548 437.852 72.8586 440.447 74.9214C442.853 76.8305 448.891 78.6098 452.274 81.0044C455.657 83.3989 461.896 88.7973 465.685 92.9411C469.474 97.0849 471.149 107.637 471.48 109.766C471.81 111.896 474.237 124.2 474.237 124.2C474.237 124.2 474.399 109.48 471.083 100.568C467.766 91.6564 463.072 76.3148 459.536 71.5527C458.504 68.9953 458.679 67.0289 456.622 63.8925C454.565 60.756 449.3 56.1508 437.795 56.1508C426.29 56.1508 418.983 63.1355 418.25 64.9962C417.516 66.857 417.684 67.6381 416.554 69.0978C414.061 72.3187 411.881 74.4057 411.069 79.029C411.755 77.8226 411.625 73.8629 418.668 70.8651C420.929 69.9001 422.081 70.5273 423.181 71.8423Z" fill="white"/>
<mask id="mask3_1_958" style="mask-type:luminance" maskUnits="userSpaceOnUse" x="411" y="56" width="64" height="69">
<path d="M423.181 71.8422C424.784 73.7603 426.519 73.1481 426.844 71.9508C427.83 73.6789 428.648 73.3169 429.884 72.4725C431.12 71.6281 430.912 71.2421 432.891 70.5484C434.869 69.8548 437.852 72.8586 440.447 74.9214C442.853 76.8304 448.891 78.6098 452.274 81.0043C455.657 83.3989 461.896 88.7973 465.685 92.9411C469.474 97.0848 471.149 107.637 471.48 109.766C471.81 111.896 474.237 124.2 474.237 124.2C474.237 124.2 474.399 109.48 471.083 100.568C467.766 91.6563 463.072 76.3148 459.536 71.5527C458.504 68.9953 458.679 67.0289 456.622 63.8924C454.565 60.756 449.3 56.1508 437.795 56.1508C426.29 56.1508 418.983 63.1354 418.25 64.9962C417.516 66.857 417.684 67.6381 416.554 69.0978C414.061 72.3187 411.881 74.4057 411.069 79.0289C411.755 77.8226 411.625 73.8629 418.668 70.8651C420.929 69.9 422.081 70.5273 423.181 71.8422Z" fill="white"/>
</mask>
<g mask="url(#mask3_1_958)">
<path d="M465.568 71.5527C459.166 67.8613 450.969 65.0566 448.632 65.6416C448.431 65.6778 448.248 65.7847 448.118 65.9432C444.592 65.2693 441.028 64.8131 437.446 64.577C425.196 63.7567 419.552 65.8135 418.391 66.5102C417.23 67.2068 415.134 67.1134 415.531 70.6932C418.076 69.6488 420.762 68.9921 423.5 68.745C424.435 68.6726 425.361 68.9892 425.782 69.8306C425.982 70.2866 426.339 70.6557 426.787 70.8711C428.29 71.604 428.97 67.9367 433.065 67.8553C439.059 68.057 445.011 68.9413 450.806 70.4911C452.965 71.0762 452.851 74.1976 450.653 74.6077C449.353 74.8574 448.025 74.9314 446.705 74.8279C442.194 74.4147 457.317 80.4826 463.98 81.4628C470.644 82.4429 471.967 75.2471 465.568 71.5527Z" fill="#DFDEDE"/>
</g>
<path d="M423.181 71.8423C424.784 73.7603 426.519 73.1481 426.844 71.9508C427.83 73.6789 428.648 73.317 429.884 72.4725C431.12 71.6281 430.912 71.2421 432.891 70.5484C434.869 69.8548 437.852 72.8586 440.447 74.9214C442.853 76.8305 448.891 78.6098 452.274 81.0044C455.657 83.3989 461.896 88.7973 465.685 92.9411C469.474 97.0849 471.149 107.637 471.48 109.766C471.81 111.896 474.237 124.2 474.237 124.2C474.237 124.2 474.399 109.48 471.083 100.568C467.766 91.6564 463.072 76.3148 459.536 71.5527C458.504 68.9953 458.679 67.0289 456.622 63.8925C454.565 60.756 449.3 56.1508 437.795 56.1508C426.29 56.1508 418.983 63.1355 418.25 64.9962C417.516 66.857 417.684 67.6381 416.554 69.0978C414.061 72.3187 411.881 74.4057 411.069 79.029C411.755 77.8226 411.625 73.8629 418.668 70.8651C420.929 69.9001 422.081 70.5273 423.181 71.8423Z" stroke="#302D30" stroke-linecap="round" stroke-linejoin="round"/>
<path d="M454.899 62.4871C449.032 59.8452 434.56 58.7867 426.212 59.4713C417.865 60.1559 418.433 64.4263 418.433 64.4263C418.433 64.4263 434.475 64.1669 439.56 64.6283C451.122 65.6778 457.822 67.9789 459.166 67.8704C460.51 67.7618 459.894 64.7369 454.899 62.4871Z" fill="#423940" stroke="#302D30" stroke-linecap="round" stroke-linejoin="round"/>
<path d="M416.551 69.1039C416.151 65.515 417.227 65.126 418.391 64.4263C419.555 63.7266 425.196 61.6759 437.446 62.4932C449.697 63.3105 458.36 66.3866 459.467 67.3698C460.573 68.3529 462.224 70.7384 459.521 71.5587C453.753 68.7058 443.535 66.0971 433.059 65.7683C422.937 65.4426 416.551 69.1039 416.551 69.1039Z" fill="#423940"/>
<mask id="mask4_1_958" style="mask-type:luminance" maskUnits="userSpaceOnUse" x="416" y="62" width="45" height="10">
<path d="M416.551 69.1039C416.151 65.515 417.227 65.126 418.391 64.4263C419.555 63.7266 425.196 61.6759 437.446 62.4932C449.697 63.3104 458.36 66.3866 459.467 67.3698C460.573 68.3529 462.224 70.7384 459.521 71.5587C453.753 68.7057 443.535 66.097 433.059 65.7683C422.937 65.4426 416.551 69.1039 416.551 69.1039Z" fill="white"/>
</mask>
<g mask="url(#mask4_1_958)">
<path d="M458.805 69.128C452.932 66.4137 442.119 64.4052 432.073 64.0885C421.942 63.7688 416.551 67.0139 416.551 67.0139C416.551 66.9355 416.551 66.8691 416.53 66.7937C416.439 67.5595 416.446 68.3338 416.551 69.0978C416.551 69.0978 422.938 65.4426 433.065 65.7623C443.535 66.091 453.753 68.6997 459.527 71.5527C461.259 71.028 461.202 69.8608 460.645 68.8385C460.408 69.075 460.102 69.2303 459.772 69.2823C459.442 69.3343 459.103 69.2803 458.805 69.128Z" fill="#383137"/>
</g>
<path d="M416.551 69.1039C416.151 65.515 417.227 65.126 418.391 64.4263C419.555 63.7266 425.196 61.6759 437.446 62.4932C449.697 63.3105 458.36 66.3866 459.467 67.3698C460.573 68.3529 462.224 70.7384 459.521 71.5587C453.753 68.7058 443.535 66.0971 433.059 65.7683C422.937 65.4426 416.551 69.1039 416.551 69.1039Z" stroke="#302D30" stroke-linecap="round" stroke-linejoin="round"/>
<path d="M424.381 100.568C424.381 100.568 424.745 100.918 427.334 100.918C431.105 100.918 432.223 100.568 432.223 100.568" stroke="#302D30" stroke-linecap="round" stroke-linejoin="round"/>
<path d="M432.584 80.368C432.208 80.1085 431.917 79.7434 431.748 79.3185C431.748 79.3185 432.593 79.3185 435.54 79.1164C438.399 78.9264 440.267 79.0259 441.172 79.5507C441.999 80.0272 443.659 81.9121 443.923 82.4761C443.923 82.4761 442.261 79.8614 439.699 79.5356C436.992 79.1948 432.882 80.6063 432.584 80.368Z" fill="#423940"/>
<path d="M432.154 80.9139C431.553 80.4585 430.371 79.1225 431.553 78.64C432.566 78.5616 434.045 78.4982 435.089 78.4047C437.128 78.3263 440.565 77.8317 442.122 79.4452C442.525 79.8844 442.886 80.361 443.199 80.8687C443.475 81.3331 443.902 81.8759 444.161 82.3766C444.193 82.435 444.2 82.5037 444.182 82.5676C444.163 82.6315 444.12 82.6853 444.062 82.7173C444.004 82.7493 443.935 82.7568 443.871 82.7382C443.808 82.7195 443.754 82.6762 443.722 82.6179C443.149 81.794 442.362 81.144 441.446 80.739C439.641 79.8795 437.708 80.2534 435.789 80.552C434.908 80.6967 433.967 80.9289 433.083 81.0707C432.93 81.1073 432.772 81.1128 432.617 81.0869C432.462 81.061 432.314 81.0042 432.181 80.9199L432.154 80.9139ZM433.014 79.8252C432.929 79.7544 432.824 79.7112 432.713 79.7015C435.654 79.2401 439.353 77.7141 441.96 79.8613C442.784 80.5888 443.507 81.4235 444.11 82.3434L443.671 82.5877C443.377 82.1305 443.005 81.7284 442.573 81.3994C441.981 80.91 441.347 80.473 440.679 80.0936C439.96 79.8728 439.211 79.7709 438.46 79.792C436.229 79.7618 433.994 80.0061 431.724 80.0393L432.401 79.1496C432.553 79.4168 432.758 79.6505 433.002 79.8373L433.014 79.8252Z" fill="#302D30"/>
<path d="M421.927 79.1164C419.961 78.9807 418.478 78.9928 417.474 79.2009L417.606 79.5869C417.705 79.5608 417.805 79.5436 417.907 79.5357C420.523 79.1949 424.489 80.6063 424.778 80.3681C425.143 80.1043 425.424 79.7397 425.587 79.3186C425.587 79.3186 424.772 79.3155 421.927 79.1164Z" fill="#423940" stroke="#302D30" stroke-linecap="round" stroke-linejoin="round"/>
<path d="M441.28 84.3791C440.077 84.0473 439.305 82.1383 436.704 82.1383C433.444 82.1383 432.566 84.6354 432.566 84.6354C432.566 84.6354 433.116 85.1874 435.531 85.3351C437.945 85.4829 440.643 84.4907 440.643 84.4907" fill="white"/>
<path d="M436.114 84.8707C436.85 84.8707 437.446 84.2725 437.446 83.5347C437.446 82.7968 436.85 82.1986 436.114 82.1986C435.379 82.1986 434.782 82.7968 434.782 83.5347C434.782 84.2725 435.379 84.8707 436.114 84.8707Z" fill="#373035" stroke="#302D30" stroke-linecap="round" stroke-linejoin="round"/>
<path d="M441.181 84.7681C440.198 84.569 439.605 83.8633 438.83 83.423C438.022 82.9642 437.094 82.7647 436.171 82.8515C435.247 82.9384 434.372 83.3073 433.664 83.9086C433.368 84.1742 433.109 84.4785 432.894 84.8134C432.844 84.8869 432.771 84.9407 432.686 84.9652C432.601 84.9897 432.51 84.9834 432.429 84.9474C432.348 84.9114 432.283 84.848 432.244 84.7683C432.205 84.6886 432.196 84.5978 432.217 84.5118C432.888 81.9905 435.919 80.9229 438.231 81.6738C438.704 81.8312 439.147 82.0645 439.545 82.3645C440.324 82.9314 440.841 83.6915 441.398 83.9901C441.488 84.0286 441.561 84.0988 441.604 84.1876C441.647 84.2764 441.656 84.3776 441.63 84.4727C441.604 84.5677 441.544 84.6501 441.462 84.7044C441.38 84.7587 441.281 84.7813 441.184 84.7681H441.181Z" fill="#302D30"/>
<path d="M421.163 85.4678C422.552 85.3718 423.922 85.092 425.238 84.6354C425.238 84.6354 424.414 82.1383 421.365 82.1383C419.666 82.1383 419.059 82.832 418.737 83.8061C418.728 83.8061 418.902 85.6126 421.163 85.4678Z" fill="white"/>
<path d="M422.117 83.5317C422.101 83.7758 422.014 84.01 421.867 84.2054C421.72 84.4008 421.52 84.5488 421.29 84.6313C421.06 84.7138 420.812 84.7272 420.575 84.6698C420.337 84.6123 420.122 84.4865 419.955 84.3079C419.789 84.1294 419.678 83.9058 419.636 83.6647C419.594 83.4236 419.624 83.1756 419.721 82.9511C419.818 82.7266 419.978 82.5355 420.182 82.4012C420.386 82.267 420.625 82.1955 420.869 82.1956C421.21 82.2082 421.533 82.3557 421.767 82.6059C422.001 82.8562 422.126 83.1889 422.117 83.5317Z" fill="#373035" stroke="#302D30" stroke-linecap="round" stroke-linejoin="round"/>
<path d="M417.621 83.4803C419.001 80.5007 423.205 81.0857 424.946 83.4049C425.166 83.7487 425.975 84.6505 425.355 84.9461C425.277 84.9762 425.192 84.9805 425.111 84.9583C425.03 84.936 424.959 84.8884 424.907 84.8224C424.456 84.3403 423.941 83.9222 423.377 83.5799C422.093 82.853 420.315 82.4218 419.028 83.3295C418.776 83.5105 418.529 83.7578 418.232 84.0081C418.157 84.0638 418.065 84.0921 417.972 84.0883C417.878 84.0845 417.789 84.0487 417.719 83.9871C417.649 83.9255 417.602 83.8416 417.586 83.7494C417.569 83.6572 417.585 83.5623 417.63 83.4803H417.621Z" fill="#302D30"/>
<path d="M378.602 281.419C379.706 281.929 381.234 283.144 381.089 284.435C380.945 285.726 378.984 284.305 377.418 283.458C376.469 282.925 375.756 282.051 375.424 281.012L374.916 278.225L374.862 282.514L377.385 284.954C377.385 284.954 380.485 287.143 380.392 288.823C380.325 289.909 379.044 289.487 378.452 289.013C379.309 291.251 379.117 291.67 378.29 291.625C376.738 291.537 374.982 289.671 374.299 288.754C373.617 287.837 369.488 283.147 369.488 280.089C369.488 277.031 372.011 269.576 374.6 269.051C377.189 268.527 378.332 271.093 378.208 273.331C378.085 275.569 378.602 281.419 378.602 281.419Z" fill="#E49E5F"/>
<path d="M379.168 281.027C379.173 281.007 379.173 280.986 379.168 280.966C379.163 280.946 379.152 280.927 379.138 280.913L379.174 280.931C380.608 281.661 382.325 283.18 381.715 285.002C380.812 286.736 378.515 284.906 377.427 284.333C376.285 283.78 375.388 282.824 374.907 281.648C374.838 281.49 374.784 281.325 374.744 281.157C374.582 280.22 374.504 279.27 374.513 278.319L375.328 278.25L375.553 282.541L375.343 282.035L377.866 284.471C378.789 285.15 380.719 286.718 381.038 288.371C381.273 289.692 380.325 290.509 379.077 290.123C378.689 290.011 378.327 289.825 378.01 289.574L379.086 288.784C379.351 289.538 379.664 290.235 379.688 291.1C379.687 291.341 379.625 291.578 379.507 291.788C378.605 293.06 376.5 291.872 375.625 291.139C374.85 290.506 374.157 289.778 373.563 288.971C372.961 288.238 372.36 287.478 371.797 286.697C370.646 285.084 369.542 283.452 368.98 281.486C368.475 279.486 369.115 277.42 369.653 275.508C370.405 273.246 371.918 268.979 374.492 268.382C375.147 268.24 375.83 268.299 376.451 268.551C377.073 268.803 377.604 269.237 377.977 269.796C379.219 271.554 378.75 273.732 378.879 275.71C378.957 277.496 379.111 279.402 379.273 281.184V281.275V281.296C379.262 281.196 379.221 281.102 379.156 281.027H379.168ZM378.037 281.829C377.948 281.673 377.9 281.497 377.896 281.317C377.896 281.196 377.857 280.901 377.848 280.78C377.805 280.318 377.709 279.115 377.67 278.639C377.568 277.203 377.472 275.765 377.457 274.32C377.499 273.008 377.574 271.642 376.837 270.58C376.648 270.28 376.379 270.039 376.06 269.884C375.741 269.73 375.385 269.668 375.033 269.706C373.093 269.814 371.509 274.26 370.977 275.921C370.516 277.604 369.912 279.396 370.321 281.127C370.805 282.834 371.873 284.423 372.916 285.88C373.466 286.634 374.044 287.357 374.645 288.102C375.177 288.827 375.797 289.483 376.491 290.054C377.078 290.506 377.748 290.958 378.47 290.958C378.455 290.958 378.47 290.958 378.434 290.979C378.394 291.003 378.362 291.038 378.341 291.079C378.299 291.139 378.323 291.139 378.317 291.079C378.308 290.905 378.281 290.732 378.235 290.563C378.127 290.156 377.971 289.719 377.808 289.291C377.753 289.148 377.746 288.992 377.789 288.845C377.831 288.699 377.921 288.571 378.044 288.48C378.166 288.39 378.315 288.343 378.467 288.346C378.619 288.349 378.766 288.402 378.885 288.497C379.125 288.689 379.415 288.808 379.721 288.838C379.775 288.838 379.757 288.823 379.721 288.856C379.685 288.889 379.691 288.88 379.694 288.896C379.781 287.74 377.89 286.217 377.006 285.548L376.924 285.482C376.924 285.482 374.399 283.042 374.393 283.036C374.325 282.971 374.272 282.892 374.237 282.806C374.202 282.719 374.185 282.626 374.188 282.532L374.525 278.247V278.207C374.533 278.107 374.578 278.014 374.651 277.944C374.723 277.875 374.819 277.835 374.919 277.832C375.019 277.828 375.117 277.862 375.194 277.926C375.271 277.991 375.322 278.081 375.337 278.18C375.678 279.067 375.941 279.982 376.122 280.916L376.107 280.861C376.172 281.043 376.251 281.22 376.344 281.389C376.635 281.926 377.057 282.381 377.571 282.71L378.816 283.41C379.381 283.711 379.964 284.1 380.533 284.227C380.587 284.227 380.605 284.227 380.533 284.245C380.456 284.273 380.393 284.329 380.355 284.402C380.355 284.429 380.355 284.402 380.355 284.321C380.325 283.491 379.537 282.858 378.876 282.393C378.585 282.233 378.308 282.047 378.049 281.838L378.037 281.829Z" fill="#302D30"/>
<path d="M391.25 194.02C388.934 199.147 385.073 211.029 382.202 227.119C379.33 243.209 375.586 252.817 374.161 256.029C372.552 259.648 368.986 265.981 367.546 268.315C366.105 270.65 366.066 271.093 366.232 273.412C366.397 275.731 366.328 280.846 366.418 281.413C366.508 281.98 369.56 285.916 369.948 286.688C370.336 287.46 373.776 290.174 374.801 290.675C375.827 291.176 376.488 289.595 376.049 288.633C375.61 287.671 372.811 284.685 372.811 284.685L371.419 281.039L371.286 277.161C371.286 277.161 372.567 273.623 372.934 272.71C373.301 271.796 375.872 270.598 376.242 272.791C376.612 274.983 376.302 277.288 376.221 279.592C376.14 281.896 378.242 284.308 379.354 282.722C380.467 281.136 379.85 277.761 380.361 274.546C380.873 271.331 381.832 268.897 382.872 267.215C383.913 265.532 384.108 260.363 383.684 258.152C383.26 255.941 385.488 253.085 386.872 250.914C388.255 248.743 394.828 238.054 394.828 238.054L403.521 217.381L391.25 194.02Z" fill="#F5B87E"/>
<mask id="mask5_1_958" style="mask-type:luminance" maskUnits="userSpaceOnUse" x="366" y="194" width="38" height="97">
<path d="M391.25 194.02C388.935 199.147 385.074 211.029 382.202 227.119C379.33 243.208 375.586 252.817 374.161 256.029C372.552 259.648 368.986 265.981 367.546 268.315C366.105 270.65 366.066 271.093 366.232 273.412C366.397 275.731 366.328 280.846 366.418 281.413C366.508 281.98 369.56 285.916 369.948 286.688C370.336 287.46 373.776 290.174 374.802 290.675C375.827 291.175 376.489 289.595 376.05 288.633C375.611 287.671 372.811 284.685 372.811 284.685L371.419 281.039L371.286 277.161C371.286 277.161 372.567 273.623 372.934 272.71C373.301 271.796 375.872 270.598 376.242 272.791C376.612 274.983 376.302 277.288 376.221 279.592C376.14 281.896 378.242 284.308 379.354 282.722C380.467 281.136 379.85 277.761 380.362 274.546C380.873 271.331 381.832 268.897 382.872 267.215C383.913 265.532 384.108 260.363 383.684 258.152C383.26 255.941 385.488 253.085 386.872 250.914C388.255 248.743 394.828 238.054 394.828 238.054L403.521 217.381L391.25 194.02Z" fill="white"/>
</mask>
<g mask="url(#mask5_1_958)">
<path d="M368.457 264.702C371.406 265.034 374.218 266.132 376.614 267.887C379.011 269.643 380.909 271.995 382.121 274.712C383.642 278.141 389.145 265.526 383.669 260.839C378.193 256.153 374.708 254.355 370.354 256.394C366 258.433 368.457 264.702 368.457 264.702Z" fill="#E49E5F"/>
<path d="M380.043 279.474C378.539 280.602 377.872 281.443 377.481 279.01C377.09 276.576 376.401 271.6 375.226 269.772C374.05 267.944 372.985 269.561 371.031 273.693C369.076 277.824 368.757 280.3 370.234 282.831C371.71 285.361 373.731 284.64 373.042 288.232C372.354 291.824 371.377 292.201 374.594 291.875C377.812 291.549 376.699 292.702 378.596 289.438C380.494 286.175 380.043 279.474 380.043 279.474Z" fill="#E49E5F"/>
</g>
<path d="M391.25 194.02C388.934 199.147 385.073 211.029 382.202 227.119C379.33 243.209 375.586 252.817 374.161 256.029C372.552 259.648 368.986 265.981 367.546 268.315C366.105 270.65 366.066 271.093 366.232 273.412C366.397 275.731 366.328 280.846 366.418 281.413C366.508 281.98 369.56 285.916 369.948 286.688C370.336 287.46 373.776 290.174 374.801 290.675C375.827 291.176 376.488 289.595 376.049 288.633C375.61 287.671 372.811 284.685 372.811 284.685L371.419 281.039L371.286 277.161C371.286 277.161 372.567 273.623 372.934 272.71C373.301 271.796 375.872 270.598 376.242 272.791C376.612 274.983 376.302 277.288 376.221 279.592C376.14 281.896 378.242 284.308 379.354 282.722C380.467 281.136 379.85 277.761 380.361 274.546C380.873 271.331 381.832 268.897 382.872 267.215C383.913 265.532 384.108 260.363 383.684 258.152C383.26 255.941 385.488 253.085 386.872 250.914C388.255 248.743 394.828 238.054 394.828 238.054L403.521 217.381L391.25 194.02Z" stroke="#302D30" stroke-linecap="round" stroke-linejoin="round"/>
<path d="M377.863 289.414C376.786 287.907 375.558 286.514 374.197 285.258C374.111 285.187 374.049 285.091 374.017 284.984C373.623 283.585 373.048 281.642 372.697 280.249C372.767 279.394 372.892 278.543 373.069 277.704C373.069 277.664 373.085 277.625 373.113 277.597C373.142 277.569 373.18 277.553 373.22 277.553C373.26 277.553 373.298 277.569 373.326 277.597C373.354 277.625 373.37 277.664 373.37 277.704C373.418 278.117 373.457 278.53 373.484 278.94C373.511 279.35 373.536 279.764 373.551 280.177L373.529 280.026C374.038 281.338 374.702 283.256 375.18 284.598L374.997 284.323C376.533 285.566 377.887 287.019 379.02 288.639C379.116 288.793 379.148 288.978 379.109 289.154C379.07 289.331 378.964 289.486 378.814 289.585C378.663 289.685 378.48 289.721 378.303 289.687C378.125 289.653 377.969 289.551 377.866 289.402L377.863 289.414Z" fill="#302D30"/>
<path d="M375.442 272.513C375.219 271.464 375.252 269.766 374.008 269.428C373.969 269.419 373.936 269.395 373.915 269.361C373.894 269.327 373.887 269.286 373.896 269.247C374.197 268.843 374.877 268.946 375.267 269.193C375.629 269.434 375.928 269.757 376.14 270.137C376.507 270.82 376.737 271.569 376.816 272.342C376.827 272.432 376.821 272.524 376.797 272.612C376.772 272.7 376.731 272.782 376.675 272.854C376.62 272.926 376.55 272.986 376.471 273.031C376.392 273.076 376.305 273.105 376.215 273.117C376.125 273.128 376.033 273.121 375.945 273.097C375.858 273.073 375.776 273.032 375.704 272.976C375.632 272.92 375.572 272.85 375.527 272.771C375.482 272.691 375.453 272.604 375.442 272.513Z" fill="#302D30"/>
<path d="M496.173 421.053C496.173 421.053 478.39 435.647 467.607 440.297C456.823 444.947 446.6 449.317 429.649 451.383C412.699 453.449 392.747 454.981 393.731 446.784C394.714 438.587 454 427.95 465.649 425.07C477.298 422.19 496.173 421.053 496.173 421.053Z" fill="#C2C2C1" stroke="#302D30" stroke-linecap="round" stroke-linejoin="round"/>
<path d="M489.903 440.915L490.772 442.423C493.999 439.73 499.192 435.342 499.192 435.342L497.15 431.675C497.15 431.675 467.519 444.414 462.726 445.81C460.862 446.353 457.013 449.767 457.013 449.767L456.841 451.03C456.786 451.435 456.845 451.846 457.01 452.219C457.175 452.592 457.441 452.911 457.777 453.141C458.393 453.546 459.061 453.866 459.761 454.094C462.88 455.159 467.694 456.305 475.362 454.725C479.839 453.799 482.446 451.16 484.707 448.325C485.784 447.007 489.903 440.915 489.903 440.915Z" fill="#423940" stroke="#302D30" stroke-linecap="round" stroke-linejoin="round"/>
<path d="M370.88 460.018C371.181 462.843 373.524 464.758 381.991 467.108C390.459 469.457 397.552 470.775 403.076 469.092C408.6 467.409 402.776 463.86 394.518 462.204C386.261 460.548 370.88 460.018 370.88 460.018Z" fill="#373035" stroke="#302D30" stroke-linecap="round" stroke-linejoin="round"/>
<path d="M420.105 453.102L402.791 444.821C402.791 444.821 401.137 447.312 395.297 451.857C389.458 456.402 372.745 458.151 371.906 458.027C371.067 457.903 369.837 460.482 372.191 461.209C373.364 461.571 378.641 462.717 387.16 466.637C394.257 469.888 395.724 469.572 401.666 469.252C407.109 468.951 413.462 464.903 413.462 464.903L413.697 467.461C418.583 467.159 421.07 465.757 421.07 465.757C421.07 465.757 421.413 458.148 420.105 453.102Z" fill="#423940" stroke="#302D30" stroke-linecap="round" stroke-linejoin="round"/>
<path d="M420.105 450.325C421.413 455.373 421.007 462.442 421.007 462.442C421.007 462.442 411.553 465.895 404.511 466.287C396.476 466.737 395.297 467.584 387.154 463.854C378.635 459.951 373.376 458.727 372.185 458.425C370.995 458.124 373.536 454.182 379.748 453.298C384.421 452.641 389.455 453.6 395.291 449.061C401.128 444.522 402.785 442.028 402.785 442.028L420.105 450.325ZM496.955 431.129C496.681 430.616 496.353 429.941 495.932 429.066C494.712 426.457 492.625 420.974 489.831 417.25L474.76 425.996C474.76 425.996 475.743 427.015 472.607 434.555C469.471 442.094 465.691 442.818 461.307 445.502C455.84 448.847 457.151 450.201 457.151 450.201C457.151 450.201 458.032 450.949 460.393 451.649C463.349 452.523 467.694 453.552 475.362 451.968C483.029 450.385 483.82 445.165 488.177 441.159C491.245 438.343 494.742 435.203 496.546 433.59C496.875 433.282 497.093 432.874 497.167 432.429C497.241 431.984 497.166 431.527 496.955 431.129Z" fill="#5E595E"/>
<mask id="mask6_1_958" style="mask-type:luminance" maskUnits="userSpaceOnUse" x="371" y="417" width="127" height="50">
<path d="M420.105 450.325C421.413 455.373 421.007 462.442 421.007 462.442C421.007 462.442 411.553 465.895 404.511 466.287C396.476 466.737 395.297 467.584 387.154 463.854C378.636 459.951 373.376 458.727 372.185 458.425C370.995 458.124 373.536 454.182 379.748 453.298C384.421 452.641 389.455 453.6 395.291 449.061C401.128 444.522 402.785 442.028 402.785 442.028L420.105 450.325ZM496.955 431.129C496.681 430.616 496.354 429.941 495.933 429.066C494.712 426.457 492.625 420.974 489.831 417.25L474.76 425.996C474.76 425.996 475.744 427.015 472.607 434.555C469.471 442.094 465.691 442.818 461.307 445.502C455.84 448.847 457.151 450.201 457.151 450.201C457.151 450.201 458.032 450.949 460.393 451.649C463.349 452.523 467.694 453.552 475.362 451.968C483.03 450.385 483.82 445.165 488.177 441.159C491.245 438.343 494.742 435.203 496.546 433.59C496.875 433.282 497.093 432.874 497.167 432.429C497.241 431.984 497.167 431.527 496.955 431.129Z" fill="white"/>
</mask>
<g mask="url(#mask6_1_958)">
<path d="M394.714 446.461C402.643 446.651 417.612 456.558 421.777 457.421C425.942 458.283 442.381 448.75 447.454 448.642C452.526 448.533 462.221 444.269 467.573 442.182C472.926 440.095 475.993 435.815 481.854 431.192C487.714 426.569 501.186 426.864 501.186 426.864C501.186 426.864 507.431 420.899 496.627 418.016C485.823 415.133 509.614 403.896 470.057 415.332C430.5 426.768 412.557 431.807 406.411 435.351C400.265 438.895 394.714 446.461 394.714 446.461Z" fill="#4A454A"/>
</g>
<path d="M420.105 450.325C421.413 455.373 421.007 462.442 421.007 462.442C421.007 462.442 411.553 465.895 404.511 466.287C396.476 466.737 395.297 467.584 387.154 463.854C378.635 459.951 373.376 458.727 372.185 458.425C370.995 458.124 373.536 454.182 379.748 453.298C384.421 452.641 389.455 453.6 395.291 449.061C401.128 444.522 402.785 442.028 402.785 442.028L420.105 450.325ZM496.955 431.129C496.681 430.616 496.353 429.941 495.932 429.066C494.712 426.457 492.625 420.974 489.831 417.25L474.76 425.996C474.76 425.996 475.743 427.015 472.607 434.555C469.471 442.094 465.691 442.818 461.307 445.502C455.84 448.847 457.151 450.201 457.151 450.201C457.151 450.201 458.032 450.949 460.393 451.649C463.349 452.523 467.694 453.552 475.362 451.968C483.029 450.385 483.82 445.165 488.177 441.159C491.245 438.343 494.742 435.203 496.546 433.59C496.875 433.282 497.093 432.874 497.167 432.429C497.241 431.984 497.166 431.527 496.955 431.129Z" stroke="#302D30" stroke-linecap="round" stroke-linejoin="round"/>
<path d="M479.168 442.387C477.512 440.879 474.378 439.555 475.004 436.256C475.475 434.07 476.295 431.974 477.43 430.049" stroke="#302D30" stroke-linecap="round" stroke-linejoin="round"/>
<path d="M468.809 440.538C471.215 438.756 471.916 437.993 472.718 436.316C473.521 434.639 475.259 430.704 475.259 430.704" stroke="#302D30" stroke-linecap="round" stroke-linejoin="round"/>
<path d="M476.417 436.786C476.417 436.786 474.871 435.966 471.326 436.786" stroke="#302D30" stroke-linecap="round" stroke-linejoin="round"/>
<path d="M477.094 433.569C473.633 433.234 472.607 433.753 472.607 433.753" stroke="#302D30" stroke-linecap="round" stroke-linejoin="round"/>
<path d="M469.405 446.247C467.513 444.528 465.255 444.015 463.177 444.477" stroke="#302D30" stroke-linecap="round" stroke-linejoin="round"/>
<path d="M384.391 452.967C389.202 454.122 392.477 457.903 392.477 457.903" stroke="#302D30" stroke-linecap="round" stroke-linejoin="round"/>
<path d="M402.532 455.949C401.66 453.88 399.369 451.362 401.329 448.633C402.675 446.845 404.3 445.287 406.14 444.018" stroke="#302D30" stroke-linecap="round" stroke-linejoin="round"/>
<path d="M394.434 449.703C397.354 449.1 397.787 448.904 399.212 447.713C400.638 446.522 403.861 443.681 403.861 443.681" stroke="#302D30" stroke-linecap="round" stroke-linejoin="round"/>
<path d="M402.379 449.703C402.379 449.703 401.317 448.31 397.751 447.574" stroke="#302D30" stroke-linecap="round" stroke-linejoin="round"/>
<path d="M404.339 447.071C401.332 445.309 400.19 445.349 400.19 445.349" stroke="#302D30" stroke-linecap="round" stroke-linejoin="round"/>
<path d="M476.068 186.26C476.068 186.26 473.362 233.911 473.362 237.855C473.362 241.8 477.966 339.625 477.966 339.625C477.966 339.625 495.539 419.949 496.176 421.071C482.266 424.12 476.997 431.838 462.798 440.52C448.599 449.203 437.392 451.79 425.921 451.377C416.109 451.027 404.445 442.758 393.746 446.799C393.746 446.799 399.937 393.008 408.645 344.517C404.935 314.808 403.81 294.785 403.503 283.374L402.189 234.858C400.484 242.747 390.558 274.435 390.558 274.435L369.654 261.466L388.453 201.527C388.453 201.527 391.517 156.069 391.92 152.23C392.323 148.39 393.631 137.018 396.317 133.631C397.074 132.681 410.113 126.743 413.294 125.352C417.245 123.624 422.661 121.887 422.661 121.887L423.686 114.694C423.686 114.694 424.588 116.579 427.448 117.427C430.308 118.274 433.685 117.954 437.218 117.427C441.5 116.784 451.525 111.739 453.841 108.91C454.646 112.345 456.159 118.259 456.159 118.259C458.676 120.177 463.105 121.353 471.161 124.686C479.217 128.018 486.497 131.303 492.664 135.241" fill="white"/>
<mask id="mask7_1_958" style="mask-type:luminance" maskUnits="userSpaceOnUse" x="369" y="108" width="128" height="344">
<path d="M476.068 186.26C476.068 186.26 473.362 233.911 473.362 237.855C473.362 241.8 477.966 339.625 477.966 339.625C477.966 339.625 495.539 419.949 496.176 421.071C482.266 424.12 476.997 431.837 462.798 440.52C448.599 449.203 437.392 451.79 425.921 451.377C416.109 451.027 404.445 442.758 393.746 446.799C393.746 446.799 399.937 393.008 408.645 344.517C404.935 314.808 403.81 294.785 403.503 283.373L402.189 234.858C400.484 242.747 390.558 274.435 390.558 274.435L369.654 261.466L388.453 201.527C388.453 201.527 391.517 156.069 391.92 152.229C392.323 148.39 393.631 137.018 396.317 133.631C397.074 132.681 410.113 126.743 413.294 125.352C417.245 123.624 422.661 121.887 422.661 121.887L423.686 114.694C423.686 114.694 424.588 116.579 427.448 117.427C430.308 118.274 433.685 117.954 437.218 117.427C441.5 116.784 451.525 111.739 453.841 108.91C454.646 112.345 456.159 118.259 456.159 118.259C458.676 120.177 463.105 121.353 471.161 124.686C479.217 128.018 486.497 131.303 492.664 135.241" fill="white"/>
</mask>
<g mask="url(#mask7_1_958)">
<path d="M481.03 155.861C478.302 165.282 470.965 184.035 470.322 192.223C469.678 200.411 467.76 219.848 470.123 231.049C472.487 242.249 469.549 278.642 464.317 302.343C462.66 309.838 464.317 326.702 447.207 355.534C441.446 365.242 471.344 429.449 472.625 435.351C475.846 450.213 493.004 445.885 492.201 451.06C491.398 456.236 497.268 457.472 509.509 449.501C521.751 441.53 516.167 409.653 516.81 388.328C517.454 367.003 484.088 162.094 484.088 162.094L481.03 155.861Z" fill="#DFDEDE"/>
<path d="M466.912 167.803C466.912 172.228 466.966 181.908 468.644 187.066C470.322 192.223 465.905 190.187 458.637 188.875C451.369 187.563 444.708 185.859 444.708 185.859L466.912 167.803Z" fill="#DFDEDE"/>
<path d="M450.761 108.913C451.11 113.135 448.855 121.239 444.272 124.867C439.69 128.495 448.07 119.176 460.107 122.605C472.144 126.034 476.198 127.551 481.346 129.113C487.092 130.856 471.215 121.721 465.643 115.011C460.071 108.301 455.894 105.393 454.683 107.152C453.471 108.91 450.761 108.913 450.761 108.913Z" fill="#DFDEDE"/>
<path d="M422.207 120.409C421.846 122.873 423.389 125.925 425.893 126.649C428.398 127.373 416.635 123.908 408.588 125.355C401.889 126.562 404.378 123.962 408.588 121.893C412.798 119.824 422.207 120.409 422.207 120.409Z" fill="#DFDEDE"/>
<path d="M425.659 182.092C425.659 182.092 423.001 220.065 422.459 232.741C422.348 235.313 422.721 237.328 422.986 236.553C424.029 233.482 425.358 223.961 427.075 221.271C430.65 215.662 434.773 215.179 434.773 215.179L424.718 214.513L425.659 182.092Z" fill="#DFDEDE"/>
<path d="M397.438 140.049C398.139 145.016 398.322 191.921 397.438 200.332C396.554 208.743 397.712 225.602 398.04 230.388C398.367 235.174 388.974 264.111 384.83 266.21C380.686 268.309 369.663 261.473 369.663 261.473L394.966 283.371H403.503C403.503 283.371 402.126 232.873 401.729 221.612C401.332 210.351 400.256 169.519 399.811 163.105C399.366 156.69 397.444 140.046 397.444 140.046" fill="#DFDEDE"/>
<path d="M462.119 306.674C460.639 324.235 450.96 349.025 443.554 366.581C437.738 380.366 411.078 492.175 445.087 392.242C447.111 386.295 450.536 373.825 446.69 418.55C444.759 441.009 443.021 464.188 457.945 456.335C472.869 448.482 479.695 423.812 474.874 407.807C470.054 391.802 472.255 392.303 484.605 411.468C496.955 430.634 513.247 450.168 507.524 413.468C501.802 376.768 495.945 339.622 493.581 333.874C491.218 328.126 462.119 306.674 462.119 306.674Z" fill="#DFDEDE"/>
<path d="M399.257 288.615C404.396 301.656 409.881 299.472 414.521 296.809C419.161 294.146 414.951 307.968 412.049 324.712C409.147 341.456 405.894 360.434 405.894 360.434L399.257 339.553V288.615Z" fill="#DFDEDE"/>
<path d="M487.083 436.663C485.038 390.475 473.551 313.393 482.425 329.748C485.077 334.634 498.431 400.536 503.258 412.005C524.246 461.875 487.083 436.663 487.083 436.663Z" fill="#C2C2C1"/>
</g>
<path d="M476.068 186.26C476.068 186.26 473.362 233.911 473.362 237.855C473.362 241.8 477.966 339.625 477.966 339.625C477.966 339.625 495.539 419.949 496.176 421.071C482.266 424.12 476.997 431.837 462.798 440.52C448.599 449.203 437.392 451.79 425.921 451.377C416.109 451.027 404.445 442.758 393.746 446.799C393.746 446.799 399.937 393.008 408.645 344.517C404.935 314.808 403.81 294.785 403.503 283.374L402.189 234.858C400.484 242.747 390.558 274.435 390.558 274.435L369.654 261.466L388.453 201.527C388.453 201.527 391.517 156.069 391.92 152.23C392.323 148.39 393.631 137.018 396.317 133.631C397.074 132.681 410.113 126.743 413.294 125.352C417.245 123.624 422.661 121.887 422.661 121.887L423.686 114.694C423.686 114.694 424.588 116.579 427.448 117.427C430.308 118.274 433.685 117.954 437.218 117.427C441.5 116.784 451.525 111.739 453.841 108.91C454.646 112.345 456.159 118.259 456.159 118.259C458.676 120.177 463.105 121.353 471.161 124.686C479.217 128.018 486.497 131.303 492.664 135.241" stroke="#302D30" stroke-linecap="round" stroke-linejoin="round"/>
<path d="M437.221 117.433V130.199C437.221 130.199 434.698 191.134 434.863 214.516H425.093C424.928 191.134 427.451 130.199 427.451 130.199V117.433" stroke="#302D30" stroke-linecap="round" stroke-linejoin="round"/>
<path d="M437.837 72.7801C440.222 75.1928 452.854 75.3376 456.781 76.0976C459.044 76.5522 461.356 76.7094 463.658 76.565C463.658 76.565 474.15 99.5246 474.757 102.92C476.125 110.56 477.951 127.557 477.951 127.557L465.986 122.514C465.986 122.514 459.611 106.422 458.074 101.964C456.538 97.507 456.694 85.9443 455.494 84.4726C454.295 83.0008 439.723 75.796 437.837 72.7801Z" fill="white"/>
<mask id="mask8_1_958" style="mask-type:luminance" maskUnits="userSpaceOnUse" x="437" y="72" width="41" height="56">
<path d="M437.837 72.7801C440.222 75.1928 452.854 75.3376 456.781 76.0975C459.044 76.5522 461.356 76.7094 463.658 76.565C463.658 76.565 474.15 99.5246 474.757 102.92C476.125 110.56 477.951 127.557 477.951 127.557L465.986 122.514C465.986 122.514 459.611 106.422 458.074 101.964C456.538 97.507 456.694 85.9443 455.494 84.4726C454.295 83.0008 439.723 75.796 437.837 72.7801Z" fill="white"/>
</mask>
<g mask="url(#mask8_1_958)">
<path d="M469.02 87.9166C472.77 97.3381 472.758 110.641 470.343 115.017C467.928 119.393 460.42 107.713 459.782 103.858C459.145 100.004 462.068 85.8418 454.123 81.8428C446.179 77.8438 443.662 77.5241 444.651 79.0109C445.64 80.4977 446.323 82.5274 446.69 83.788C447.057 85.0486 448.795 105.004 450.764 113.482C452.734 121.96 459.554 140.305 469.919 138.453C480.284 136.601 489.937 141.026 488.803 122.439C487.669 103.852 469.02 87.9166 469.02 87.9166Z" fill="#DFDEDE"/>
</g>
<path d="M437.837 72.7801C440.222 75.1928 452.854 75.3376 456.781 76.0976C459.044 76.5522 461.356 76.7094 463.658 76.565C463.658 76.565 474.15 99.5246 474.757 102.92C476.125 110.56 477.951 127.557 477.951 127.557L465.986 122.514C465.986 122.514 459.611 106.422 458.074 101.964C456.538 97.507 456.694 85.9443 455.494 84.4726C454.295 83.0008 439.723 75.796 437.837 72.7801Z" stroke="#302D30" stroke-linecap="round" stroke-linejoin="round"/>
<path d="M451.137 91.5568C451.137 91.5568 453.218 87.033 455.046 87.1144" stroke="#302D30" stroke-linecap="round" stroke-linejoin="round"/>
<path d="M467.291 157.465H445.087V185.88H467.291V157.465Z" fill="white"/>
<mask id="mask9_1_958" style="mask-type:luminance" maskUnits="userSpaceOnUse" x="445" y="157" width="23" height="29">
<path d="M467.291 157.465H445.087V185.88H467.291V157.465Z" fill="white"/>
</mask>
<g mask="url(#mask9_1_958)">
<path d="M442.609 165.388H468.343C468.343 165.388 449.153 167.393 446.994 170.759C444.835 174.125 443.514 178.817 443.514 178.817L442.609 165.388Z" fill="#DFDEDE"/>
</g>
<path d="M467.291 157.465H445.087V185.88H467.291V157.465Z" stroke="#302D30" stroke-linecap="round" stroke-linejoin="round"/>
<path d="M445.087 165.388H467.288" stroke="#302D30" stroke-linecap="round" stroke-linejoin="round"/>
<path d="M467.291 158.828H468.352V161.775H467.291" stroke="#302D30" stroke-linecap="round" stroke-linejoin="round"/>
<path d="M427.595 126.649C421.563 125.672 422.664 121.893 422.664 121.893" stroke="#302D30" stroke-linecap="round" stroke-linejoin="round"/>
<path d="M437.221 126.649C443.256 125.672 451.955 123.121 456.165 118.262" stroke="#302D30" stroke-linecap="round" stroke-linejoin="round"/>
<path d="M437.221 126.649H427.598" stroke="#302D30" stroke-linecap="round" stroke-linejoin="round"/>
<path d="M426.973 81.7945C427.201 82.7777 427.559 83.99 427.256 85.0606C426.82 86.7977 426.095 89.1742 425.581 90.8963C425.434 91.3283 425.315 91.7695 425.226 92.2172C425.1 93.1551 426.167 94.1745 427.069 94.1775C427.093 94.1775 427.129 94.1775 427.138 94.1775C427.147 94.1775 427.138 94.1775 427.159 94.1775C427.49 93.9965 427.908 93.5201 428.395 93.3422C428.737 93.2025 429.11 93.1586 429.475 93.2155C430.248 93.3301 431.02 93.8187 431.796 93.7674C431.844 93.7674 431.838 93.7523 431.847 93.7674C432.028 93.4356 431.974 92.6696 431.877 92.2595C431.781 91.8493 431.48 91.605 431.153 91.2672C431.099 91.2083 431.067 91.1327 431.062 91.053C431.057 90.9733 431.08 90.8943 431.126 90.8291C431.172 90.764 431.238 90.7166 431.315 90.6948C431.392 90.673 431.473 90.6781 431.547 90.7093C432.121 90.9007 432.599 91.3069 432.882 91.8432C433.384 92.9048 433.405 94.8229 431.943 95.037C431.096 95.1275 430.326 94.8169 429.553 94.5816C428.621 94.2469 428.293 95.4351 427.34 95.5437C425.484 95.7518 423.578 93.9634 423.792 92.0785C423.878 91.5359 424.011 91.002 424.191 90.4831C424.685 88.8153 425.412 86.3665 425.857 84.7259C426.098 83.8211 425.779 83.0189 425.611 82.0478C425.578 81.8666 425.618 81.6797 425.722 81.5281C425.826 81.3765 425.986 81.2728 426.167 81.2396C426.348 81.2064 426.534 81.2465 426.685 81.3511C426.836 81.4557 426.94 81.6164 426.973 81.7975V81.7945Z" fill="#302D30"/>
<path d="M423.804 94.7083C423.085 93.4869 423.47 91.9127 424.179 90.7877C424.275 90.6278 424.43 90.5125 424.611 90.4672C424.791 90.422 424.982 90.4506 425.142 90.5465C425.301 90.6425 425.416 90.7981 425.461 90.9791C425.506 91.1601 425.478 91.3516 425.382 91.5116C424.682 92.3017 424.086 93.3391 424.456 94.4098C424.488 94.4936 424.487 94.5864 424.453 94.6695C424.42 94.7526 424.356 94.8199 424.275 94.858C424.194 94.8961 424.102 94.9022 424.017 94.875C423.931 94.8478 423.86 94.7894 423.816 94.7114L423.804 94.7083Z" fill="#302D30"/>
<path d="M427.803 98.8039C426.411 98.8039 423.87 98.5747 423.208 98.828C422.547 99.0813 421.741 102.562 421.81 106.003C421.602 102.097 420.977 98.819 422.685 97.9866C424.104 97.2929 425.776 96.9914 426.42 96.3581C426.48 96.3007 427.021 96.5149 427.662 96.4998C428.413 96.4787 429.279 96.2404 429.364 96.2947C430.389 96.9642 430.9 96.8767 432.476 97.3804C434.28 97.9594 435.314 98.4149 435.645 99.4463C435.931 100.351 437.2 104.974 437.2 104.974C437.2 104.974 435.726 100.773 434.472 99.5066C433.219 98.2399 429.616 98.8039 427.803 98.8039Z" fill="#423940" stroke="#302D30" stroke-linecap="round" stroke-linejoin="round"/>
<path d="M408.639 344.514C408.639 344.514 408.973 342.342 412.049 324.712C415.125 307.081 420.4 289.888 420.4 289.888" stroke="#302D30" stroke-linecap="round" stroke-linejoin="round"/>
<path d="M432.392 417.003L441.743 372.057L451.606 342.237" stroke="#302D30" stroke-linecap="round" stroke-linejoin="round"/>
<path d="M453.068 387.583L453.889 435.354" stroke="#302D30" stroke-linecap="round" stroke-linejoin="round"/>
<path d="M495.53 287.469L490.757 289.909C490.757 289.909 490.899 290.892 489.134 291.694C488.25 294.96 488.06 295.515 488.06 295.515H492.571C492.571 295.515 494.215 291.966 495.325 291.251C496.435 290.536 495.53 287.469 495.53 287.469Z" fill="#8B4A29"/>
<mask id="mask10_1_958" style="mask-type:luminance" maskUnits="userSpaceOnUse" x="488" y="287" width="8" height="9">
<path d="M495.53 287.469L490.757 289.909C490.757 289.909 490.899 290.892 489.134 291.694C488.25 294.96 488.06 295.515 488.06 295.515H492.571C492.571 295.515 494.215 291.966 495.325 291.251C496.435 290.536 495.53 287.469 495.53 287.469Z" fill="white"/>
</mask>
<g mask="url(#mask10_1_958)">
<path d="M487.224 292.276C492.056 292.973 493.969 290.415 494.252 293.754C494.534 297.093 501.399 296.538 501.577 291.489C501.754 286.441 505.931 280.976 496.516 284.097C487.101 287.219 487.224 292.276 487.224 292.276Z" fill="#804121"/>
</g>
<path d="M495.53 287.469L490.757 289.909C490.757 289.909 490.899 290.892 489.134 291.694C488.25 294.96 488.06 295.515 488.06 295.515H492.571C492.571 295.515 494.215 291.966 495.325 291.251C496.435 290.536 495.53 287.469 495.53 287.469Z" stroke="#302D30" stroke-linecap="round" stroke-linejoin="round"/>
<path d="M508.878 291.492L508.977 292.337L506.346 291.917L506 294.782H509.933L508.878 291.492Z" fill="#804121" stroke="#302D30" stroke-linecap="round" stroke-linejoin="round"/>
<path d="M509.933 294.782H506L507.088 299.46H511.265L509.933 294.782Z" stroke="#302D30" stroke-linecap="round" stroke-linejoin="round"/>
<path d="M509.067 284.134C509.067 281.878 508.998 280.276 508.655 275.792C508.312 271.307 507.966 263.559 507.966 263.559L496.044 264.163C495.466 266.479 493.909 268.635 492.384 271.298C490.86 273.961 489.239 276.917 488.944 280.711C488.649 284.504 487.275 288.006 486.686 289.83C486.097 291.655 487.573 293.247 490.045 291.679C492.574 290.075 492.949 286.365 493.052 284.441C493.106 283.301 493.421 282.189 493.972 281.19C493.972 281.19 495.632 287.762 495.731 288.304C495.83 288.847 495.042 291.212 494.895 291.999C494.849 292.225 494.736 292.432 494.569 292.591C494.402 292.75 494.19 292.854 493.963 292.889L493.274 294.698C493.274 294.698 497.057 296.179 497.598 296.179C498.037 296.127 498.457 295.976 498.828 295.735C498.828 295.735 500.449 296.227 501.384 295.932C501.663 295.837 501.917 295.682 502.129 295.478C502.341 295.273 502.506 295.025 502.611 294.749C502.611 294.749 504.824 295.051 505.561 294.402C506.445 294.255 507.771 292.876 508.165 292.43C508.559 291.984 508.92 290.756 509.034 289.375C509.148 287.994 509.061 286.323 509.067 284.134Z" fill="#F5B87E"/>
<mask id="mask11_1_958" style="mask-type:luminance" maskUnits="userSpaceOnUse" x="486" y="263" width="24" height="34">
<path d="M509.067 284.134C509.067 281.878 508.998 280.276 508.655 275.792C508.312 271.307 507.966 263.559 507.966 263.559L496.044 264.163C495.466 266.479 493.909 268.635 492.384 271.298C490.86 273.961 489.239 276.917 488.944 280.711C488.649 284.504 487.275 288.006 486.686 289.83C486.097 291.655 487.573 293.247 490.045 291.679C492.574 290.075 492.949 286.365 493.052 284.441C493.106 283.301 493.421 282.189 493.972 281.19C493.972 281.19 495.632 287.762 495.731 288.304C495.83 288.847 495.042 291.212 494.895 291.999C494.849 292.225 494.736 292.432 494.569 292.591C494.402 292.75 494.19 292.854 493.963 292.889L493.274 294.698C493.274 294.698 497.057 296.179 497.598 296.179C498.037 296.127 498.457 295.976 498.828 295.735C498.828 295.735 500.449 296.227 501.384 295.932C501.663 295.837 501.917 295.682 502.129 295.478C502.341 295.273 502.506 295.025 502.611 294.749C502.611 294.749 504.824 295.051 505.561 294.402C506.445 294.255 507.771 292.876 508.165 292.43C508.559 291.984 508.92 290.756 509.034 289.375C509.148 287.994 509.061 286.323 509.067 284.134Z" fill="white"/>
</mask>
<g mask="url(#mask11_1_958)">
<path d="M488.995 275.819C494.657 276.009 501.375 275.768 504.749 278.467C508.123 281.166 508.568 286.058 507.524 288.072C506.481 290.087 506.322 290.717 505.42 291.917C504.517 293.118 503.6 292.729 502.328 293.124C501.056 293.519 500.771 294.312 499.496 294.418C498.221 294.523 494.805 293.899 495.105 293.181C495.406 292.463 497.544 292.014 497.827 290.06C498.11 288.105 497.162 280.973 495.247 279.622C493.331 278.271 492.769 282.016 492.541 284.538C492.312 287.059 489.867 290.696 487.886 290.201C485.904 289.707 486.533 285.587 486.536 283.03C486.539 280.472 471.392 287.005 477.975 292.68C484.557 298.356 496.979 306.9 503.387 300.612C509.795 294.324 513.791 297.081 514.074 289.698C514.356 282.315 515.189 274.317 511.268 268.813C507.347 263.309 506.003 258.638 501.58 261.548C497.156 264.458 488.995 275.819 488.995 275.819Z" fill="#E49E5F"/>
</g>
<path d="M509.067 284.134C509.067 281.878 508.998 280.276 508.655 275.792C508.312 271.307 507.966 263.559 507.966 263.559L496.044 264.163C495.466 266.479 493.909 268.635 492.384 271.298C490.86 273.961 489.239 276.917 488.944 280.711C488.649 284.504 487.275 288.006 486.686 289.83C486.097 291.655 487.573 293.247 490.045 291.679C492.574 290.075 492.949 286.365 493.052 284.441C493.106 283.301 493.421 282.189 493.972 281.19C493.972 281.19 495.632 287.762 495.731 288.304C495.83 288.847 495.042 291.212 494.895 291.999C494.849 292.225 494.736 292.432 494.569 292.591C494.402 292.75 494.19 292.854 493.963 292.889L493.274 294.698C493.274 294.698 497.057 296.179 497.598 296.179C498.037 296.127 498.457 295.976 498.828 295.735C498.828 295.735 500.449 296.227 501.384 295.932C501.663 295.837 501.917 295.682 502.129 295.478C502.341 295.273 502.506 295.025 502.611 294.749C502.611 294.749 504.824 295.051 505.561 294.402C506.445 294.255 507.771 292.876 508.165 292.43C508.559 291.984 508.92 290.756 509.034 289.375C509.148 287.994 509.061 286.323 509.067 284.134Z" stroke="#302D30" stroke-linecap="round" stroke-linejoin="round"/>
<path d="M501.721 288.093C501.796 289.521 501.695 290.952 501.42 292.355C501.195 293.428 500.861 294.62 500.154 295.521C499.769 296.031 498.729 296.978 498.2 296.103C498.155 296.02 498.127 295.928 498.119 295.833C498.111 295.739 498.122 295.643 498.152 295.553C498.182 295.463 498.23 295.38 498.293 295.309C498.356 295.239 498.433 295.181 498.519 295.141C498.975 294.831 499.337 294.401 499.568 293.899C499.86 293.31 500.099 292.696 500.284 292.065C500.696 290.771 500.942 289.399 501.432 288.048C501.443 288.012 501.466 287.981 501.497 287.961C501.528 287.941 501.566 287.933 501.602 287.939C501.639 287.944 501.673 287.963 501.697 287.991C501.721 288.02 501.734 288.056 501.733 288.093H501.721Z" fill="#302D30"/>
<path d="M502.022 294.387C502.529 293.486 502.967 292.547 503.333 291.58C503.736 290.584 504.084 289.562 504.602 288.564C504.616 288.53 504.641 288.502 504.674 288.485C504.706 288.468 504.744 288.463 504.78 288.471C504.816 288.479 504.848 288.499 504.87 288.528C504.892 288.557 504.904 288.593 504.902 288.63C504.917 289.19 504.88 289.751 504.791 290.304C504.49 291.987 504.105 293.648 503.197 295.129C503.098 295.283 502.942 295.391 502.764 295.43C502.586 295.469 502.4 295.437 502.245 295.339C502.091 295.242 501.981 295.087 501.939 294.909C501.897 294.731 501.927 294.544 502.022 294.387Z" fill="#302D30"/>
<path d="M505.029 293.971C505.603 293.139 505.895 292.162 506.231 291.197C506.583 290.156 506.887 289.086 507.356 288.048C507.373 288.01 507.403 287.98 507.442 287.965C507.48 287.95 507.523 287.951 507.56 287.967C507.585 287.979 507.606 287.997 507.622 288.02C507.637 288.042 507.646 288.069 507.648 288.096C507.7 289.239 507.599 290.383 507.347 291.498C507.21 292.217 507.015 292.923 506.764 293.609C506.593 294.075 506.348 294.51 506.039 294.897C505.98 294.969 505.907 295.028 505.824 295.071C505.742 295.113 505.652 295.139 505.559 295.146C505.467 295.153 505.374 295.142 505.286 295.112C505.198 295.083 505.117 295.035 505.047 294.974C504.978 294.912 504.922 294.837 504.882 294.753C504.842 294.669 504.819 294.578 504.815 294.485C504.811 294.392 504.826 294.299 504.859 294.212C504.891 294.125 504.941 294.045 505.005 293.977L505.029 293.971Z" fill="#302D30"/>
<path d="M488.06 295.515L487.224 300.247H491.861L492.583 295.515" stroke="#302D30" stroke-linecap="round" stroke-linejoin="round"/>
<path d="M534.9 299.46L473.464 301.185L476.216 375.321L538.536 368.52L534.9 299.46Z" fill="#8B4A29"/>
<mask id="mask12_1_958" style="mask-type:luminance" maskUnits="userSpaceOnUse" x="473" y="299" width="66" height="77">
<path d="M534.9 299.457L473.464 301.182L476.216 375.321L538.536 368.517L534.9 299.457Z" fill="white"/>
</mask>
<g mask="url(#mask12_1_958)">
<path d="M536.136 297.88C533.604 315.194 527.181 335.879 511.806 344.281C496.432 352.684 509.274 349.553 521.342 347.014C533.409 344.475 544.892 354.433 513.166 362.437C481.439 370.441 464.506 380.785 471.904 381.177C479.301 381.569 526.793 377.664 537.694 370.245C548.594 362.826 548.399 353.142 548.982 337.39C549.565 321.639 536.136 297.88 536.136 297.88Z" fill="#804121"/>
</g>
<path d="M534.9 299.46L473.464 301.185L476.216 375.321L538.536 368.52L534.9 299.46Z" stroke="#302D30" stroke-linecap="round" stroke-linejoin="round"/>
<path d="M473.506 302.343L459.012 301.824L461.809 374.753L476.215 375.32L473.506 302.343Z" fill="#8B4A29"/>
<mask id="mask13_1_958" style="mask-type:luminance" maskUnits="userSpaceOnUse" x="459" y="301" width="18" height="75">
<path d="M473.506 302.343L459.013 301.824L461.806 374.754L476.216 375.321L473.506 302.343Z" fill="white"/>
</mask>
<g mask="url(#mask13_1_958)">
<path d="M473.506 302.343C473.657 309.141 475.187 362.865 472.427 369.838C469.666 376.81 461.806 374.754 461.806 374.754L483.98 379.615L473.506 302.343Z" fill="#814122"/>
</g>
<path d="M473.506 302.343L459.012 301.824L461.809 374.753L476.215 375.32L473.506 302.343Z" stroke="#302D30" stroke-linecap="round" stroke-linejoin="round"/>
<path d="M467.002 374.681L464.317 302.343" stroke="#302D30" stroke-linecap="round" stroke-linejoin="round"/>
<path d="M459.013 301.824L523.753 298.905L534.9 299.46L473.506 302.343L459.013 301.824Z" fill="#8B4A29" stroke="#302D30" stroke-linecap="round" stroke-linejoin="round"/>
<path d="M476.068 186.26C476.068 186.26 479.977 208.158 481.201 213.705C482.425 219.251 485.215 274.254 485.215 274.254L512.278 274.73L509.082 212.905C509.082 212.905 496.435 137.66 492.658 135.238C492.658 135.238 485.267 140.094 481.054 149.811C476.841 159.528 472.797 168.37 476.068 186.26Z" fill="white" stroke="#302D30" stroke-linecap="round" stroke-linejoin="round"/>
<path d="M396.32 133.643C396.32 133.643 400.388 152.691 400.265 180.355L402.192 234.864" stroke="#302D30" stroke-linecap="round" stroke-linejoin="round"/>
</g>
</g>
<defs>
<clipPath id="clip0_1_958">
<rect width="602" height="470" fill="white"/>
</clipPath>
<clipPath id="clip1_1_958">
<rect width="183" height="414" fill="white" transform="translate(366 56)"/>
</clipPath>
</defs>
</svg>
