<svg width="315" height="177" viewBox="0 0 315 177" fill="none" xmlns="http://www.w3.org/2000/svg">
<path d="M9.78995 41.1481C13.6331 32.0902 20.0926 19.7868 27.4862 13.3003C37.6308 4.40053 47.5524 0.564429 57.3857 0.308688C77.9212 -0.221391 93.0104 6.01402 96.9697 23.9856C101.756 45.7828 131.668 61.4997 148.703 37.1978C162.339 17.7774 196.48 5.33904 223.996 16.4275C242.702 23.9608 247.062 37.6965 250.02 50.0285C250.058 50.0284 250.096 50.0284 250.133 50.0284C259.861 50.0284 269.074 52.2313 277.301 56.1655C298.523 66.3144 313.183 87.9843 313.183 113.078C313.183 147.9 284.954 176.128 250.133 176.128C248.545 176.128 246.97 176.069 245.411 175.954C245.381 175.954 245.35 175.954 245.32 175.954C240.226 175.895 228.575 175.92 213.696 175.951C195.283 175.99 171.926 176.038 149.941 175.954C108.568 175.818 67.8926 175.681 67.8926 175.681C42.8391 170.721 26.0643 151.078 14.1211 129.755C-0.0572704 104.441 -2.62248 70.3862 9.78995 41.1481Z" fill="#FFF1BD"/>
<path d="M226.708 103.471L197.522 42.6949C188.931 24.809 171.353 16.4541 154.362 17.6256C116.319 56.3676 114.379 126.166 167.239 164.425H188.381C219.698 164.425 240.271 131.707 226.708 103.471Z" fill="#FF531D"/>
<path d="M154.362 17.6255C139.461 18.653 125.012 27.0079 117.478 42.6948L88.2922 103.471C74.7289 131.707 95.3023 164.425 126.619 164.425H167.239C155.252 150.725 145.645 132.762 140.288 112.082C130.791 75.4146 137.113 39.7202 154.362 17.6255Z" fill="#FF531D"/>
<path d="M215.074 138.696C220.888 129.458 221.535 118.067 216.81 108.225L187.621 47.4493C181.923 35.5809 170.663 28.4966 157.5 28.4966C153.594 28.4966 149.858 29.125 146.383 30.3126C117.547 67.19 119.017 131.725 158.773 153.444H188.381C199.288 153.444 209.266 147.93 215.074 138.696Z" fill="#F6E869"/>
<path d="M146.383 30.312C138.147 33.1265 131.386 39.1022 127.379 47.4488L98.1899 108.225C93.465 118.066 94.112 129.457 99.9262 138.696C105.734 147.929 115.712 153.443 126.619 153.443H158.773C134.279 117.405 128.305 66.2477 146.383 30.312Z" fill="#F6E869"/>
<path d="M218.817 107.263L189.628 46.4872C183.551 33.8289 171.54 26.272 157.501 26.272C154.1 26.272 150.819 26.7193 147.712 27.5712C145.246 28.9364 143.91 30.7229 144.837 33.3035C148.705 31.6213 152.982 30.7237 157.501 30.7237C169.786 30.7237 180.297 37.337 185.615 48.4143L214.804 109.19C224.171 128.702 209.925 151.219 188.381 151.219H157.179C155.776 152.872 156.842 154.354 160.207 155.671H188.381C213.263 155.671 229.578 129.677 218.817 107.263Z" fill="#EDF9FF"/>
<path d="M126.62 151.219C105.061 151.219 90.8361 128.689 100.197 109.19L129.386 48.4141C132.748 41.4112 138.187 36.1953 144.836 33.3036C145.721 31.357 146.68 29.4448 147.711 27.5713C137.991 30.2366 129.978 36.8954 125.373 46.487L96.184 107.263C85.4157 129.693 101.758 155.671 126.62 155.671H160.207C159.164 154.21 158.155 152.726 157.179 151.219H126.62Z" fill="#DAF5FD"/>
<path d="M157.528 114.925C163.205 114.925 167.812 119.528 167.812 125.205C167.812 130.886 163.205 135.489 157.528 135.489C151.85 135.489 147.244 130.886 147.244 125.205C147.244 119.528 151.85 114.925 157.528 114.925ZM172.629 64.0522L167.785 95.5264C167.007 100.59 162.65 104.326 157.528 104.326C152.405 104.326 148.048 100.59 147.271 95.5264L142.427 64.0522C141.006 54.7984 148.164 46.4526 157.528 46.4526C166.848 46.4529 174.056 54.7536 172.629 64.0522Z" fill="#64586D"/>
<path d="M8.76234 176.101H294.299C298.153 176.101 302.02 176.162 305.887 176.101H306.381C306.583 176.101 306.777 176.02 306.92 175.877C307.063 175.734 307.143 175.54 307.143 175.338C307.143 175.136 307.063 174.942 306.92 174.799C306.777 174.656 306.583 174.576 306.381 174.576H20.8439C16.9895 174.576 13.1229 174.515 9.25634 174.576H8.76234C8.56016 174.576 8.36625 174.656 8.22329 174.799C8.08032 174.942 8 175.136 8 175.338C8 175.54 8.08032 175.734 8.22329 175.877C8.36625 176.02 8.56016 176.101 8.76234 176.101Z" fill="#060905"/>
</svg>

