<svg width="660" height="554" viewBox="0 0 660 554" fill="none" xmlns="http://www.w3.org/2000/svg">
<g clip-path="url(#clip0_1_4893)">
<path d="M66.1191 173.85C77.0355 148.121 95.3835 113.174 116.385 94.7488C145.2 69.4692 173.382 58.5729 201.313 57.8464C259.644 56.3408 302.505 74.0523 313.751 125.1C318.846 148.306 311.507 164.631 311.362 188.391C311.217 212.152 303.323 239.492 318.899 257.428C340.811 282.681 378.985 285.164 412.157 281.004C445.329 276.844 479.556 268.206 511.513 277.993C559.826 292.798 597.049 355.852 588.219 405.632C579.388 455.412 554.255 507.067 508.438 528.384C462.621 549.702 386.364 552.171 334.673 552.779L277.834 549.847C188.76 538.383 118.695 497.439 78.4215 425.536C38.1483 353.633 30.8619 256.9 66.1191 173.85Z" fill="#DEE3FF"/>
<path d="M539.5 189.248C593.9 189.248 638 146.715 638 94.248C638 41.781 593.9 -0.751953 539.5 -0.751953C485.1 -0.751953 441 41.781 441 94.248C441 146.715 485.1 189.248 539.5 189.248Z" fill="#DEE3FF"/>
<path d="M151.061 519.971L112.042 515.758L106.485 515.163C105.851 515.084 105.865 516.075 106.485 516.154L145.517 520.354L151.061 520.961C151.695 521.027 151.695 520.037 151.061 519.971Z" fill="#888DFF"/>
<path d="M96.1617 383.324C96.1433 383.869 96.2881 384.407 96.5775 384.869C96.8669 385.331 97.2877 385.696 97.7859 385.916C98.2841 386.137 98.8368 386.204 99.3732 386.108C99.9095 386.012 100.405 385.758 100.796 385.378C101.187 384.999 101.455 384.511 101.567 383.977C101.679 383.443 101.628 382.889 101.422 382.384C101.217 381.879 100.865 381.447 100.412 381.144C99.9588 380.841 99.4258 380.681 98.8809 380.683C98.5276 380.672 98.1758 380.733 97.8463 380.861C97.5168 380.989 97.2163 381.182 96.9628 381.428C96.7092 381.674 96.5076 381.969 96.37 382.295C96.2324 382.621 96.1616 382.971 96.1617 383.324Z" fill="white"/>
<path d="M115.131 551.458C107.448 551.736 76.3885 558.564 76.8505 533.271C77.1145 520.354 73.3525 520.816 65.7889 515.758C58.2253 510.699 58.4101 507.463 59.0701 500.239C59.7301 493.014 52.4701 496.501 47.7313 487.031C41.9893 475.659 48.9061 467.22 60.0601 465.133C71.2141 463.046 70.8841 475.118 75.3061 478.71C79.7281 482.303 85.8661 474.589 94.3801 485.037C99.9373 491.865 91.3177 507.49 99.4885 505.997" stroke="#7189FF" stroke-miterlimit="10"/>
<path d="M100.545 528.926C89.6417 514.186 78.1665 499.909 66.1193 486.093C65.2745 485.129 63.8753 486.529 64.7201 487.493C76.6265 501.194 87.9961 515.335 98.8289 529.917C99.5813 530.934 101.297 529.917 100.545 528.926Z" fill="#7189FF"/>
<path d="M81.972 485.447L80.7708 503.502L80.5992 506.051L81.5892 505.06L65.0364 506.381C63.7164 506.487 63.7164 508.468 65.0364 508.362L81.5892 507.041C81.8497 507.035 82.0976 506.928 82.2818 506.744C82.4661 506.559 82.5725 506.311 82.5792 506.051L83.7804 487.996L83.952 485.447C84.0444 484.126 82.0644 484.126 81.972 485.447Z" fill="#7189FF"/>
<path d="M65.5778 401.881C51.7442 390.602 48.4178 355.76 68.1518 345.18C92.5322 332.091 118.048 352.339 121.269 373.154C123.737 389.215 112.517 400.428 141.729 412.209C170.94 423.991 166.426 438.625 160.42 466.559C154.414 494.493 174.161 484.258 189.46 507.86C201.617 526.562 184.523 545.634 176.907 552.766L117.163 552.475C115.218 551.341 113.364 550.056 111.619 548.632C92.321 532.783 99.9638 507.913 101.997 488.497C104.769 462.003 73.9862 476.874 61.961 449.931C49.9358 422.987 79.4246 413.16 65.5778 401.881Z" stroke="#7189FF" stroke-miterlimit="10"/>
<path d="M166.504 551.842C164.102 546.559 161.691 541.245 159.271 535.9C153.331 522.824 147.373 509.762 141.398 496.713C133.742 479.983 126.042 463.293 118.298 446.642C110.844 430.608 103.303 414.609 95.6731 398.646C90.2743 387.393 84.8887 376.113 78.9751 365.124C78.5263 364.244 78.0643 363.399 77.5891 362.588C76.9687 361.479 75.2659 362.47 75.8863 363.592C81.5227 373.683 86.4463 384.17 91.5151 394.578C99.0523 410.149 106.405 425.814 113.718 441.491C121.558 458.292 129.342 475.127 137.068 491.998C143.369 505.707 149.635 519.408 155.865 533.1L161.858 546.308C162.782 548.355 163.561 550.574 164.67 552.515C164.715 552.605 164.754 552.698 164.788 552.793C165.316 553.955 167.019 552.938 166.504 551.789V551.842Z" fill="#7189FF"/>
<path d="M111.039 433.356L76.349 431.52L71.399 431.256C70.7654 431.256 70.7654 432.207 71.399 432.246L106.089 434.043L111.039 434.307C111.672 434.307 111.672 433.356 111.039 433.316V433.356Z" fill="#7189FF"/>
<path d="M153.622 425.522L133.175 469.544L130.324 475.672C130.06 476.24 130.918 476.742 131.182 476.174L151.629 432.139L154.48 426.011C154.744 425.443 153.886 424.941 153.622 425.522Z" fill="#7189FF"/>
<path d="M97.5878 368.558C99.5282 371.292 102.868 372.335 105.125 370.883C107.382 369.43 107.58 366.035 105.64 363.301C103.699 360.567 100.36 359.524 98.1026 360.977C95.8454 362.43 95.6474 365.824 97.5878 368.558Z" fill="#7189FF"/>
<path d="M76.4017 450.763C76.3622 451.816 76.638 452.856 77.1936 453.75C77.7493 454.645 78.5595 455.353 79.5201 455.783C80.4808 456.214 81.5481 456.347 82.585 456.166C83.6219 455.985 84.5811 455.498 85.3395 454.768C86.0978 454.038 86.6207 453.097 86.841 452.067C87.0613 451.037 86.9689 449.965 86.5758 448.988C86.1826 448.011 85.5066 447.174 84.6346 446.584C83.7625 445.995 82.7342 445.679 81.6817 445.678C80.309 445.657 78.9836 446.18 77.9945 447.132C77.0054 448.085 76.4329 449.39 76.4017 450.763Z" fill="#7189FF"/>
<path d="M503.685 553.175C495.765 545.409 469.669 520.922 482.394 500.503C498.445 474.748 527.274 489.619 520.991 459.11C514.707 428.6 509.982 412.645 540.553 399.794C571.124 386.943 559.363 374.699 561.963 357.186C565.316 334.455 590.027 317.206 617.535 326.636C638.748 333.914 634.695 376.218 620.175 388.528C605.655 400.837 636.491 411.522 623.911 440.936C611.331 470.349 579.797 460.113 582.12 483.042C582.674 488.668 592.125 515.137 585.974 530.471C582.885 538.158 576.312 546.122 563.534 552.726" stroke="#7189FF" stroke-miterlimit="10"/>
<path d="M515.948 552.977L523.472 535.661C529.711 521.344 535.972 507.036 542.255 492.736C550.246 474.545 558.28 456.375 566.359 438.228C574.173 420.715 582.027 403.214 590.119 385.793C595.768 373.523 601.391 361.201 607.595 349.182C608.071 348.27 608.546 347.346 609.034 346.434C609.338 345.88 608.48 345.378 608.176 345.933C602.289 356.935 597.115 368.386 591.874 379.639C583.954 396.703 576.245 413.86 568.563 431.03C560.379 449.336 552.257 467.664 544.196 486.014C537.605 500.982 531.04 515.951 524.501 530.92L518.231 545.343C517.255 547.575 516.093 549.82 515.288 552.118C515.252 552.219 515.208 552.316 515.156 552.409C514.905 552.99 515.763 553.492 516.014 552.911L515.948 552.977Z" fill="#7189FF"/>
<path d="M572.656 423.911L608.903 421.904L614.183 421.613C614.817 421.613 614.817 420.596 614.183 420.623L577.95 422.63L572.67 422.921C572.036 422.921 572.036 423.951 572.67 423.911H572.656Z" fill="#7189FF"/>
<path d="M530.772 518.439L571.124 513.895L576.932 513.235C577.553 513.169 577.566 512.178 576.932 512.244L536.58 516.788L530.772 517.448C530.152 517.514 530.152 518.505 530.772 518.439Z" fill="#7189FF"/>
<path d="M527.234 414.837L535.458 433.328L548.578 462.808L551.601 469.57C551.852 470.151 552.71 469.649 552.459 469.081L544.222 450.591L531.102 421.111L528.079 414.335C527.828 413.754 526.97 414.256 527.234 414.837Z" fill="#7189FF"/>
<path d="M586.74 352.154C584.707 355.139 581.17 356.274 578.82 354.69C576.47 353.105 576.246 349.406 578.279 346.421C580.312 343.437 583.836 342.301 586.199 343.886C588.562 345.47 588.72 349.182 586.74 352.154Z" fill="#7189FF"/>
<path d="M588.219 368.281C588.219 368.845 588.052 369.396 587.739 369.866C587.425 370.335 586.98 370.7 586.459 370.916C585.938 371.132 585.365 371.189 584.812 371.079C584.259 370.969 583.75 370.697 583.352 370.298C582.953 369.899 582.681 369.391 582.571 368.837C582.461 368.284 582.518 367.71 582.734 367.189C582.949 366.668 583.315 366.222 583.784 365.909C584.253 365.595 584.804 365.428 585.368 365.428C585.742 365.428 586.113 365.502 586.459 365.645C586.805 365.788 587.119 365.998 587.384 366.263C587.649 366.528 587.859 366.843 588.002 367.189C588.145 367.535 588.219 367.906 588.219 368.281Z" fill="#7189FF"/>
<path d="M608.903 441.873C608.903 442.971 608.578 444.043 607.969 444.955C607.359 445.868 606.494 446.579 605.481 446.998C604.467 447.418 603.353 447.528 602.277 447.314C601.202 447.1 600.214 446.572 599.439 445.796C598.663 445.02 598.135 444.032 597.921 442.956C597.708 441.88 597.817 440.764 598.237 439.751C598.657 438.737 599.367 437.871 600.279 437.261C601.191 436.652 602.262 436.326 603.359 436.326C604.829 436.326 606.239 436.911 607.279 437.951C608.319 438.991 608.903 440.402 608.903 441.873Z" fill="#7189FF"/>
<path d="M54.8721 552.977H598.052" stroke="#161522" stroke-miterlimit="10" stroke-linecap="round"/>
<path d="M336.286 107.933H324.962V444.691H336.286V107.933Z" fill="#FFC9D5"/>
<path d="M449.013 509.268H212.234V523.607H449.013V509.268Z" fill="#FFC9D5"/>
<path d="M473.989 523.607H187.262V537.947H473.989V523.607Z" fill="#EAAAB8"/>
<path d="M497.878 537.942H163.387V552.282H497.878V537.942Z" fill="#FFC9D5"/>
<path d="M493.935 102.531H167.332V114.617H493.935V102.531Z" fill="#FFC9D5"/>
<path d="M415.706 339.081L492.092 109.105L568.493 339.081" stroke="#2C3C8D" stroke-width="2.41" stroke-miterlimit="10"/>
<path d="M492.105 395.471C536.165 395.471 571.886 369.61 571.886 337.72H412.31C412.31 369.68 448.031 395.471 492.105 395.471Z" fill="#FFC9D5"/>
<path d="M558.531 337.7C547.953 360.632 518.077 377.14 482.863 377.14C453.171 377.14 427.295 365.393 413.548 347.969C420.267 374.971 452.847 395.451 492.061 395.451C536.121 395.451 571.842 369.59 571.842 337.7H558.531Z" fill="#EAAAB8"/>
<path d="M492.093 119.187C497.663 119.187 502.178 114.672 502.178 109.102C502.178 103.532 497.663 99.0166 492.093 99.0166C486.523 99.0166 482.008 103.532 482.008 109.102C482.008 114.672 486.523 119.187 492.093 119.187Z" fill="#2C3C8D"/>
<path d="M92.3964 339.081L168.783 109.105L245.183 339.081" stroke="#2C3C8D" stroke-width="2.41" stroke-miterlimit="10"/>
<path d="M168.795 395.471C212.855 395.471 248.576 369.61 248.576 337.72H89C89 369.68 124.721 395.471 168.795 395.471Z" fill="#FFC9D5"/>
<path d="M235.221 337.7C224.643 360.632 194.767 377.14 159.553 377.14C129.861 377.14 103.985 365.393 90.2378 347.969C96.9566 374.971 129.537 395.451 168.751 395.451C212.811 395.451 248.532 369.59 248.532 337.7H235.221Z" fill="#EAAAB8"/>
<path d="M168.783 119.187C174.353 119.187 178.868 114.672 178.868 109.102C178.868 103.532 174.353 99.0166 168.783 99.0166C163.213 99.0166 158.698 103.532 158.698 109.102C158.698 114.672 163.213 119.187 168.783 119.187Z" fill="#2C3C8D"/>
<path d="M330.627 434.116C310.696 434.119 291.582 442.04 277.489 456.135C263.397 470.23 255.48 489.345 255.48 509.277H405.788C405.788 499.406 403.844 489.633 400.067 480.514C396.289 471.395 390.753 463.109 383.774 456.13C376.794 449.15 368.509 443.614 359.39 439.837C350.271 436.06 340.497 434.116 330.627 434.116Z" fill="#A6B5FF"/>
<path opacity="0.22" d="M307.725 479.233C321.253 470.598 328.29 457.443 323.444 449.85C318.597 442.256 303.701 443.1 290.173 451.735C276.646 460.37 269.608 473.525 274.455 481.119C279.302 488.712 294.198 487.868 307.725 479.233Z" fill="white"/>
<path d="M388.801 90H276.243C272.579 90 269.609 92.9703 269.609 96.6343V121.862C269.609 125.526 272.579 128.496 276.243 128.496H388.801C392.465 128.496 395.436 125.526 395.436 121.862V96.6343C395.436 92.9703 392.465 90 388.801 90Z" fill="#A6B5FF"/>
</g>
<defs>
<clipPath id="clip0_1_4893">
<rect width="660" height="554" fill="white"/>
</clipPath>
</defs>
</svg>
