<svg width="534" height="382" viewBox="0 0 534 382" fill="none" xmlns="http://www.w3.org/2000/svg">
<g clip-path="url(#clip0_3594_175582)">
<path d="M84.3294 379.297C84.3294 379.297 4.30018 361.79 0.218217 300.167C-4.47604 229.178 68.251 248.298 56.2432 197.391C42.58 139.382 69.8498 89.2132 120.874 84.9867C171.899 80.7601 214.816 122.501 245.601 73.9826C272.814 31.1665 340.949 3.74379 395.863 28.1904C465.37 59.1145 435.628 137.444 473.363 154.938C511.099 172.432 539.639 217.461 533.051 281.235C526.883 341.132 484.827 380.51 438.417 379.897C415.672 379.609 327.399 380.235 248.073 379.897C165.504 379.597 84.3294 379.297 84.3294 379.297Z" fill="#DEE3FF"/>
<path d="M80.9693 379.541C74.5466 379.777 48.5771 385.472 49.0053 364.341C49.2194 353.55 46.0722 353.946 39.7565 349.718C33.4408 345.49 33.5799 342.781 34.1366 336.744C34.6932 330.707 28.6665 333.629 24.663 325.686C19.8673 316.191 25.6371 309.094 34.9608 307.392C44.2846 305.69 44.0063 315.742 47.7208 318.739C51.4353 321.736 56.5414 315.292 63.66 324.027C68.3058 329.732 61.0908 342.749 67.9418 341.529" fill="white"/>
<path d="M80.9693 379.541C74.5466 379.777 48.5771 385.472 49.0053 364.341C49.2194 353.55 46.0722 353.946 39.7565 349.718C33.4408 345.49 33.5799 342.781 34.1366 336.744C34.6932 330.707 28.6665 333.629 24.663 325.686C19.8673 316.191 25.6371 309.094 34.9608 307.392C44.2846 305.69 44.0062 315.742 47.7208 318.739C51.4353 321.736 56.5414 315.292 63.66 324.027C68.3058 329.732 61.0908 342.749 67.9418 341.529" stroke="#7189FF" stroke-miterlimit="10"/>
<path d="M68.7537 360.725C59.6405 348.429 50.0491 336.504 39.9796 324.95C39.2945 324.169 38.1598 325.304 38.8449 326.085C48.8359 337.503 58.3416 349.321 67.3621 361.539C67.9722 362.363 69.3638 361.539 68.7537 360.725Z" fill="#7189FF"/>
<path d="M53.2766 324.392L52.2703 339.474L52.1312 341.615L52.934 340.813L39.1036 341.947C38.0332 342.033 38.0332 343.639 39.1036 343.553L52.9447 342.408C53.1559 342.402 53.357 342.316 53.5064 342.166C53.6558 342.017 53.7421 341.816 53.7476 341.605L54.7538 326.522L54.893 324.381C54.9679 323.311 53.3622 323.311 53.2873 324.381L53.2766 324.392Z" fill="#7189FF"/>
<path d="M39.5537 254.579C27.982 245.148 25.2095 216.042 41.6947 207.2C62.0335 196.271 83.4427 213.184 86.0975 230.579C88.1742 243.992 78.7862 253.369 103.225 263.196C127.664 273.023 123.874 285.248 118.854 308.605C113.833 331.963 130.34 323.399 143.175 343.117C153.333 358.746 139.053 374.685 132.684 380.583L82.7148 380.401C81.0901 379.451 79.5405 378.377 78.0797 377.19C61.9478 364.012 68.3278 343.17 70.0405 326.953C72.3634 304.794 46.5974 317.244 36.5672 294.7C26.5369 272.156 51.1147 263.999 39.5537 254.579Z" fill="white" stroke="#7189FF" stroke-miterlimit="10"/>
<path d="M123.894 379.878C121.896 375.447 119.887 371.018 117.867 366.594C112.872 355.654 107.876 344.717 102.881 333.784C96.4581 319.84 90.0354 305.924 83.6126 292.036C77.3611 278.613 71.0453 265.221 64.6654 251.862C60.1587 242.474 55.6735 233.064 50.7494 223.901L49.5933 221.76C49.0901 220.861 47.6985 221.664 48.2017 222.574C52.9117 230.988 57.0544 239.701 61.2506 248.415C67.5449 261.474 73.7215 274.566 79.7803 287.69C86.3601 301.685 92.8721 315.733 99.3163 329.834C104.583 341.31 109.832 352.792 115.063 364.282L120.073 375.318C120.843 377.01 121.496 378.84 122.406 380.467C122.445 380.539 122.477 380.614 122.502 380.692C122.931 381.634 124.312 380.82 123.894 379.878Z" fill="#7189FF"/>
<path d="M77.5544 280.848L48.4913 279.35L44.4557 279.125C43.9419 279.125 43.9419 279.906 44.4557 279.928L73.508 281.469L77.5972 281.694C78.111 281.694 78.111 280.913 77.5972 280.891L77.5544 280.848Z" fill="#7189FF"/>
<path d="M111.018 353.239L78.3798 349.728L73.7446 349.225C73.2308 349.172 73.2415 349.975 73.7446 350.028L106.383 353.55L111.018 354.042C111.521 354.096 111.521 353.293 111.018 353.239Z" fill="#7189FF"/>
<path d="M113.158 274.33L106.542 288.471L96.1052 311.037L93.6967 316.228C93.4826 316.699 94.1784 317.106 94.3925 316.635L100.965 302.494L111.445 279.929L113.864 274.737C114.078 274.266 113.393 273.859 113.168 274.33H113.158Z" fill="#7189FF"/>
<path d="M66.3037 226.733C67.9201 229.013 70.7461 229.881 72.6087 228.671C74.4713 227.461 74.664 224.625 73.0369 222.334C71.4098 220.043 68.5945 219.187 66.7319 220.407C64.8693 221.627 64.6873 224.453 66.3037 226.733Z" fill="#7189FF"/>
<path d="M65.1136 239.098C65.0858 239.554 65.1954 240.008 65.4284 240.401C65.6614 240.794 66.007 241.107 66.4204 241.301C66.8338 241.496 67.296 241.561 67.747 241.489C68.1981 241.418 68.6173 241.212 68.9502 240.9C69.2831 240.587 69.5145 240.182 69.6144 239.736C69.7142 239.29 69.678 238.825 69.5102 238.4C69.3425 237.975 69.0511 237.611 68.6737 237.354C68.2963 237.096 67.8504 236.958 67.3937 236.957C66.8093 236.946 66.2435 237.163 65.8174 237.563C65.3913 237.963 65.1387 238.514 65.1136 239.098Z" fill="white"/>
<path d="M53.0177 299.646C55.4652 299.646 57.4494 297.748 57.4494 295.407C57.4494 293.066 55.4652 291.168 53.0177 291.168C50.5701 291.168 48.5859 293.066 48.5859 295.407C48.5859 297.748 50.5701 299.646 53.0177 299.646Z" fill="#7189FF"/>
<path d="M144.856 379.843C144.984 380.132 128.991 370.08 129.398 354.665C129.805 339.251 146.879 344.924 150.272 337.806C153.666 330.687 146.59 324.189 152.467 315.893C159.735 305.606 167.453 317.349 168.459 303.412C169.284 291.326 180.984 297.128 185.587 289.881C190.19 282.634 199.578 278.106 207.157 285.599C215.217 293.521 211.513 302.427 206.589 309.749C201.665 317.071 206.311 319.907 203.646 327.947C200.98 335.986 185.715 335.943 185.587 344.26C185.458 352.578 191.624 363.454 184.656 371.268C180.669 375.848 175.476 379.216 169.669 380.988L144.856 379.843Z" fill="#7189FF"/>
<path d="M151.686 379.092C155.807 370.678 159.618 362.103 163.546 353.593C168.802 342.236 174.091 330.878 179.689 319.681C182.205 314.682 184.752 309.683 187.589 304.844C187.642 304.752 187.655 304.643 187.627 304.54C187.599 304.438 187.532 304.351 187.439 304.299C187.347 304.246 187.238 304.232 187.135 304.26C187.033 304.288 186.946 304.356 186.893 304.448C181.37 313.879 176.692 323.813 171.992 333.672C166.801 344.58 161.77 355.574 156.696 366.546C154.822 370.603 152.96 374.671 150.99 378.696C150.765 379.156 151.45 379.563 151.686 379.092Z" fill="white"/>
<path d="M191.506 324.834L177.697 326.269L175.706 326.472C175.192 326.526 175.192 327.329 175.706 327.275L189.515 325.841L191.506 325.637C192.02 325.637 192.02 324.781 191.506 324.834Z" fill="white"/>
<path d="M156.93 318.277L167.206 344.75" stroke="white" stroke-width="0.75" stroke-miterlimit="10" stroke-linecap="round"/>
<path d="M185.62 317.37C185.546 317.889 185.631 318.417 185.866 318.885C186.1 319.353 186.472 319.739 186.932 319.989C187.391 320.24 187.916 320.345 188.437 320.289C188.957 320.233 189.448 320.02 189.844 319.677C190.24 319.334 190.522 318.879 190.652 318.372C190.782 317.865 190.753 317.33 190.571 316.839C190.389 316.349 190.061 315.925 189.631 315.626C189.202 315.327 188.691 315.166 188.167 315.165C187.538 315.124 186.918 315.332 186.441 315.745C185.964 316.158 185.669 316.742 185.62 317.37Z" fill="white"/>
<path d="M176.431 304.688C176.683 305.125 177.059 305.477 177.511 305.7C177.963 305.923 178.471 306.007 178.97 305.941C179.47 305.875 179.939 305.662 180.318 305.33C180.697 304.998 180.968 304.561 181.099 304.074C181.229 303.587 181.212 303.072 181.05 302.595C180.888 302.118 180.588 301.7 180.188 301.393C179.788 301.086 179.306 300.905 178.803 300.873C178.3 300.84 177.799 300.957 177.362 301.209C177.072 301.376 176.817 301.598 176.613 301.863C176.409 302.128 176.259 302.432 176.172 302.755C176.086 303.078 176.064 303.416 176.108 303.747C176.153 304.079 176.262 304.399 176.431 304.688Z" fill="white"/>
<path d="M169.701 355.308C169.607 355.955 169.713 356.614 170.005 357.199C170.296 357.784 170.759 358.266 171.331 358.582C171.903 358.897 172.558 359.029 173.208 358.963C173.858 358.896 174.472 358.632 174.969 358.207C175.465 357.782 175.82 357.215 175.986 356.583C176.151 355.951 176.121 355.284 175.897 354.67C175.674 354.056 175.268 353.525 174.735 353.147C174.202 352.769 173.566 352.564 172.912 352.557C172.521 352.525 172.126 352.571 171.752 352.692C171.378 352.813 171.032 353.007 170.733 353.263C170.435 353.519 170.19 353.831 170.012 354.182C169.835 354.533 169.729 354.916 169.701 355.308Z" fill="white"/>
<path d="M186.098 297.771C186.098 297.996 186.164 298.215 186.289 298.402C186.414 298.588 186.591 298.734 186.798 298.82C187.005 298.906 187.234 298.928 187.454 298.884C187.674 298.841 187.876 298.732 188.035 298.574C188.193 298.415 188.301 298.213 188.345 297.993C188.389 297.773 188.367 297.545 188.281 297.337C188.195 297.13 188.049 296.953 187.863 296.828C187.676 296.703 187.457 296.637 187.232 296.637C186.932 296.64 186.645 296.76 186.433 296.972C186.221 297.184 186.1 297.471 186.098 297.771Z" fill="white"/>
<path d="M475.504 126.499C475.504 126.499 446.534 96.2366 476.786 74.3083C507.038 52.3801 541.197 92.3495 533.26 121.838C525.323 151.327 485.679 142.779 475.504 126.499Z" fill="#DEE3FF"/>
<path d="M89.0006 40.2027C89.0006 40.2027 88.4336 4.17163 123.58 3.02018C158.726 1.86872 177.606 50.3233 145.609 65.2086C131.047 71.9811 91.4792 77.0905 89.0006 40.2027Z" fill="#DEE3FF"/>
<path d="M283.979 34.9219H275.188V296.363H283.979V34.9219Z" fill="#FFC9D5"/>
<path d="M371.494 346.496H187.672V357.628H371.494V346.496Z" fill="#FFC9D5"/>
<path d="M390.884 357.629H168.285V368.761H390.884V357.629Z" fill="#EAAAB8"/>
<path d="M409.43 368.758H149.75V379.89H409.43V368.758Z" fill="#FFC9D5"/>
<path d="M404.378 58.289L156.836 3.39062L154.805 12.5505L402.347 67.4489L404.378 58.289Z" fill="#FFC9D5"/>
<path d="M94.668 186.372L153.981 7.83203L213.283 186.372" stroke="#2C3C8D" stroke-width="2.41" stroke-miterlimit="10"/>
<path d="M347.449 244.372L406.751 65.832L466.064 244.372" stroke="#2C3C8D" stroke-width="2.41" stroke-miterlimit="10"/>
<path d="M153.981 230.151C188.187 230.151 215.93 210.074 215.93 185.316H92C92 210.129 119.765 230.151 153.981 230.151Z" fill="#FFC9D5"/>
<path d="M205.596 185.301C197.373 203.103 174.19 215.92 146.841 215.92C123.8 215.92 103.701 206.8 93.0391 193.273C98.2443 214.236 123.538 230.135 153.981 230.135C188.187 230.135 215.93 210.058 215.93 185.301H205.596Z" fill="#EAAAB8"/>
<path d="M406.761 288.151C440.966 288.151 468.698 268.074 468.698 243.316H344.812C344.812 268.129 372.544 288.151 406.761 288.151Z" fill="#FFC9D5"/>
<path d="M458.33 243.301C450.118 261.103 426.924 273.92 399.586 273.92C376.534 273.92 356.446 264.8 345.773 251.273C350.99 272.236 376.283 288.135 406.727 288.135C440.932 288.135 468.664 268.058 468.664 243.301H458.33Z" fill="#EAAAB8"/>
<path d="M161.812 7.82967C161.812 9.37823 161.352 10.892 160.492 12.1796C159.632 13.4672 158.409 14.4707 156.978 15.0633C155.548 15.6559 153.973 15.811 152.455 15.5089C150.936 15.2068 149.541 14.4611 148.446 13.3661C147.351 12.2711 146.605 10.876 146.303 9.35715C146.001 7.83835 146.156 6.26407 146.748 4.83338C147.341 3.4027 148.345 2.17987 149.632 1.31954C150.92 0.459201 152.433 0 153.982 0C156.058 0.00289292 158.048 0.82873 159.515 2.29645C160.983 3.76417 161.809 5.754 161.812 7.82967Z" fill="#2C3C8D"/>
<path d="M406.752 73.6593C411.076 73.6593 414.581 70.1539 414.581 65.8297C414.581 61.5055 411.076 58 406.752 58C402.427 58 398.922 61.5055 398.922 65.8297C398.922 70.1539 402.427 73.6593 406.752 73.6593Z" fill="#2C3C8D"/>
<path d="M279.586 288.152C264.112 288.155 249.273 294.304 238.333 305.247C227.392 316.189 221.246 331.029 221.246 346.503H337.937C337.937 338.84 336.427 331.253 333.495 324.173C330.562 317.094 326.264 310.661 320.846 305.243C315.428 299.825 308.995 295.526 301.916 292.594C294.836 289.662 287.249 288.152 279.586 288.152Z" fill="#A6B5FF"/>
<path opacity="0.22" d="M261.806 323.179C272.309 316.475 277.772 306.262 274.009 300.367C270.246 294.472 258.682 295.127 248.18 301.831C237.678 308.534 232.214 318.748 235.977 324.643C239.74 330.538 251.304 329.882 261.806 323.179Z" fill="white"/>
<path d="M326.951 30.8447L241.653 11.8685C238.876 11.2508 236.124 13.0009 235.507 15.7776L231.253 34.8953C230.636 37.672 232.386 40.4237 235.163 41.0414L320.461 60.0176C323.238 60.6353 325.99 58.8852 326.607 56.1085L330.86 36.9907C331.478 34.2141 329.728 31.4624 326.951 30.8447Z" fill="#A6B5FF"/>
<path d="M403.864 104.373L416.916 103.881C425.582 103.547 432.988 111.357 433.362 121.232L434.129 141.465C434.129 142.026 434.129 142.596 434.129 143.157C434.294 143.758 434.393 144.374 434.424 144.996L434.887 157.311V157.99L435.349 170.305C435.424 172.456 434.644 174.55 433.181 176.129C431.718 177.708 429.69 178.645 427.539 178.734L422.365 178.931C420.214 179.005 418.12 178.226 416.541 176.763C414.962 175.3 414.025 173.272 413.936 171.121L413.523 160.223L405.978 160.508C397.303 160.832 389.896 153.023 389.523 143.147L388.755 122.924C388.401 113.049 395.188 104.708 403.864 104.373Z" fill="#F6C8A6"/>
<path d="M410.907 176.129C410.907 176.129 378.025 211.401 342.546 192.132C305.415 171.939 300.595 141.781 300.595 141.781L262.805 155.552C262.805 155.552 267.674 221.385 307.785 251.287C350.395 283.057 374.1 276.919 402.625 270.162C431.15 263.405 410.907 176.129 410.907 176.129Z" fill="#0A4DD0"/>
<path d="M356.169 214.764C356.169 215.154 356.054 215.534 355.838 215.858C355.622 216.181 355.314 216.433 354.955 216.582C354.595 216.731 354.2 216.77 353.818 216.694C353.436 216.618 353.086 216.431 352.811 216.156C352.535 215.88 352.348 215.53 352.272 215.148C352.196 214.767 352.235 214.371 352.384 214.011C352.533 213.652 352.785 213.345 353.109 213.128C353.432 212.912 353.813 212.797 354.202 212.797C354.724 212.797 355.224 213.004 355.593 213.373C355.962 213.742 356.169 214.243 356.169 214.764Z" fill="white"/>
<path d="M336.351 193.342C336.353 193.868 336.199 194.383 335.908 194.821C335.617 195.259 335.202 195.601 334.716 195.804C334.23 196.006 333.696 196.059 333.179 195.957C332.663 195.855 332.189 195.602 331.817 195.23C331.445 194.858 331.192 194.383 331.09 193.867C330.987 193.351 331.041 192.816 331.243 192.33C331.445 191.845 331.787 191.43 332.226 191.139C332.664 190.848 333.179 190.693 333.705 190.695C334.407 190.695 335.08 190.974 335.576 191.47C336.073 191.967 336.351 192.64 336.351 193.342Z" fill="white"/>
<path d="M389.767 209.549C391.657 209.549 393.19 208.017 393.19 206.126C393.19 204.236 391.657 202.703 389.767 202.703C387.876 202.703 386.344 204.236 386.344 206.126C386.344 208.017 387.876 209.549 389.767 209.549Z" fill="white"/>
<path d="M365.709 241.261C367.507 241.261 368.965 239.804 368.965 238.006C368.965 236.208 367.507 234.75 365.709 234.75C363.911 234.75 362.453 236.208 362.453 238.006C362.453 239.804 363.911 241.261 365.709 241.261Z" fill="white"/>
<path d="M314.386 242.172C314.386 242.633 314.249 243.084 313.993 243.467C313.737 243.85 313.372 244.149 312.946 244.326C312.52 244.502 312.052 244.548 311.599 244.458C311.147 244.368 310.732 244.146 310.406 243.82C310.079 243.494 309.857 243.079 309.767 242.626C309.677 242.174 309.724 241.705 309.9 241.279C310.077 240.853 310.375 240.489 310.759 240.233C311.142 239.977 311.593 239.84 312.054 239.84C312.673 239.84 313.266 240.086 313.703 240.523C314.14 240.96 314.386 241.553 314.386 242.172Z" fill="white"/>
<path d="M290.363 231.68C289.94 231.679 289.522 231.763 289.133 231.926C290.353 233.637 291.622 235.32 292.96 236.963C293.335 236.478 293.568 235.897 293.63 235.287C293.692 234.676 293.581 234.061 293.31 233.51C293.04 232.96 292.62 232.496 292.099 232.173C291.578 231.849 290.976 231.678 290.363 231.68Z" fill="white"/>
<path d="M370.055 197.659C370.047 198.171 370.153 198.678 370.365 199.144C370.577 199.609 370.891 200.022 371.283 200.351C371.674 200.68 372.135 200.918 372.63 201.047C373.125 201.176 373.643 201.193 374.145 201.097C374.648 201 375.123 200.793 375.535 200.49C375.948 200.187 376.287 199.796 376.53 199.345C376.772 198.895 376.911 198.396 376.936 197.884C376.961 197.373 376.872 196.863 376.675 196.391C374.5 196.931 372.292 197.328 370.065 197.581C370.065 197.581 370.055 197.63 370.055 197.659Z" fill="white"/>
<path d="M410.905 176.125C410.905 176.125 392.629 195.728 368.609 197.764" stroke="#0F110E" stroke-miterlimit="10" stroke-linecap="round"/>
<path d="M370.999 219.81C372.426 218.227 374.294 216.771 376.547 217.371C378.799 217.971 380.176 219.732 381.711 221.187C383.037 222.639 384.809 223.608 386.747 223.941C387.701 224.043 388.666 223.946 389.581 223.659C390.497 223.371 391.343 222.898 392.068 222.269C392.55 221.856 391.852 221.168 391.37 221.581C390.589 222.244 389.65 222.695 388.643 222.89C387.637 223.084 386.598 223.016 385.626 222.692C383.609 222.004 382.212 220.243 380.708 218.846C379.203 217.45 377.403 216.171 375.307 216.25C373.212 216.328 371.609 217.636 370.33 219.112C369.907 219.584 370.606 220.282 371.029 219.81H370.999Z" fill="white"/>
<path d="M343.438 238.607C344.74 237.802 345.761 236.613 346.36 235.204C346.959 233.795 347.107 232.235 346.782 230.738C346.409 229.047 345.513 227.493 345.258 225.771C345.041 224.365 345.258 222.653 346.576 221.837C347.117 221.502 346.576 220.656 346.084 220.991C345.536 221.358 345.083 221.85 344.761 222.426C344.44 223.002 344.26 223.646 344.235 224.306C344.211 225.907 344.547 227.494 345.218 228.948C345.921 230.487 346.127 232.205 345.809 233.866C345.387 235.464 344.365 236.838 342.956 237.702C342.843 237.769 342.76 237.878 342.727 238.005C342.694 238.132 342.713 238.268 342.779 238.381C342.846 238.495 342.954 238.577 343.082 238.61C343.209 238.643 343.344 238.625 343.458 238.558L343.438 238.607Z" fill="white"/>
<path d="M323.798 203.56C324.696 203.36 325.625 203.344 326.529 203.514C327.433 203.683 328.294 204.034 329.059 204.545C329.824 205.056 330.477 205.717 330.979 206.488C331.482 207.258 331.822 208.123 331.981 209.029C332.127 209.983 332.08 210.956 331.844 211.891C331.57 212.828 331.421 213.797 331.401 214.773C331.378 215.503 331.617 216.216 332.073 216.786C332.529 217.355 333.173 217.744 333.889 217.882C334.519 217.96 334.509 216.977 333.889 216.898C333.014 216.79 332.522 215.836 332.404 215.049C332.364 214.032 332.504 213.017 332.817 212.049C333.23 210.307 333.054 208.477 332.316 206.845C331.553 205.245 330.266 203.954 328.668 203.184C327.071 202.415 325.259 202.215 323.532 202.616C322.922 202.754 323.178 203.698 323.798 203.6V203.56Z" fill="white"/>
<path d="M289.44 225.378C291.093 224.961 292.552 223.985 293.568 222.615C294.584 221.246 295.096 219.567 295.017 217.864C294.889 215.739 293.611 214.175 292.509 212.454C291.342 210.63 290.698 208.52 290.65 206.355C290.573 203.939 291.228 201.556 292.529 199.519C292.873 198.988 292.017 198.536 291.683 199.027C290.321 201.148 289.609 203.621 289.635 206.141C289.661 208.662 290.424 211.119 291.83 213.211C292.457 214.074 293.025 214.978 293.532 215.916C293.883 216.709 294.056 217.569 294.037 218.436C294.019 219.303 293.809 220.156 293.424 220.932C293.035 221.802 292.45 222.57 291.714 223.176C290.979 223.782 290.113 224.209 289.184 224.424C288.565 224.552 288.82 225.506 289.44 225.408V225.378Z" fill="white"/>
<path d="M342.485 207.151C344.159 206.556 345.673 205.583 346.911 204.309C348.16 202.814 348.259 200.964 348.485 199.115C348.627 197.768 349.115 196.481 349.901 195.377L348.918 195.043C348.453 195.711 348.094 196.448 347.855 197.227C347.265 199.145 347.629 201.358 346.547 203.128C345.465 204.899 343.645 205.577 341.973 206.315C341.413 206.561 341.904 207.407 342.485 207.151Z" fill="white"/>
<path d="M309.584 231.214C307.909 231.64 306.336 232.399 304.961 233.447C304.338 233.982 303.849 234.656 303.535 235.414C303.219 236.428 303.014 237.474 302.925 238.532C302.598 240.84 301.595 243 300.043 244.739L300.741 245.418C301.818 244.295 302.64 242.953 303.151 241.483C303.498 240.544 303.749 239.572 303.899 238.581C303.956 237.476 304.202 236.388 304.627 235.365C305.659 233.506 307.951 232.768 309.85 232.158C310.45 231.972 310.194 231.017 309.584 231.214Z" fill="white"/>
<path d="M479.947 379.999L474.567 342.041L375.95 340.34L371.238 378.986L479.947 379.999Z" fill="#E55E7B"/>
<path d="M370.117 357.034C366.487 355.243 362.828 352.834 362.868 349.666C364.068 251.305 390.605 172.676 423.182 172.676C429.975 172.757 436.488 175.391 441.428 180.053C445.845 184.125 452.248 187.322 456.114 194.226C473.435 224.994 482.671 284.315 483.488 349.637C482.632 353.375 479.976 355.44 476.238 357.004C451.776 367.283 393.94 368.788 370.117 357.034Z" fill="#0A4DD0"/>
<path d="M363.238 334.873C366.769 243.535 392.255 172.676 423.179 172.676" stroke="#0F110E" stroke-miterlimit="10" stroke-linecap="round"/>
<path d="M275.778 103.882C275.778 103.882 276.82 94.3313 279.073 93.9477C282.506 93.3772 282.574 107.453 283.106 110.295C283.637 113.138 283.873 122.472 283.863 126.289C284.065 129.882 284.532 133.456 285.26 136.981L268.342 144.987C268.342 144.987 257.217 124.469 253.096 112.981C248.974 101.492 247.764 90.8296 250.381 89.6886C252.997 88.5476 252.781 92.3936 252.781 92.3936C252.781 92.3936 252.486 86.6296 254.099 85.9903C255.712 85.3509 257.109 89.6198 257.109 89.6198C257.109 89.6198 256.125 82.8722 258.427 82.0558C260.728 81.2394 262.361 89.6493 262.361 89.6493C262.361 89.6493 261.928 82.6263 264.23 82.5476C266.532 82.4689 269.148 93.3673 270.968 101.059C272.787 108.751 275.374 106.666 275.778 103.882Z" fill="#F6C8A6"/>
<path d="M252.298 90.94C252.632 94.7692 253.53 98.5279 254.964 102.094C255.141 102.527 255.859 102.33 255.672 101.897C254.262 98.3935 253.374 94.7018 253.036 90.94C253.036 90.4679 252.259 90.4679 252.298 90.94Z" fill="#EF8576"/>
<path d="M256.802 87.0775C257.373 91.1315 258.238 95.1387 259.388 99.0677C259.415 99.1616 259.477 99.2413 259.562 99.2893C259.647 99.3373 259.747 99.3496 259.841 99.3235C259.935 99.2974 260.015 99.2351 260.063 99.1502C260.11 99.0654 260.123 98.9649 260.097 98.871C258.946 94.9419 258.082 90.9347 257.51 86.8808C257.441 86.4185 256.733 86.6152 256.802 87.0775Z" fill="#EF8576"/>
<path d="M261.792 87.0346C262.71 90.8116 263.622 94.592 264.527 98.3756C264.559 98.463 264.624 98.535 264.707 98.5775C264.79 98.6199 264.886 98.6298 264.976 98.6052C265.066 98.5805 265.143 98.5231 265.193 98.4442C265.243 98.3654 265.261 98.2707 265.245 98.1789C264.327 94.4018 263.415 90.6215 262.51 86.8378C262.402 86.3755 261.684 86.5723 261.792 87.0346Z" fill="#EF8576"/>
<path d="M478.157 239.816C472.541 210.357 458.357 192.603 448.147 185.413C446.475 184.233 413.524 218.079 413.524 218.079C413.524 218.079 410.839 240.151 393.439 251.433L353.032 234.869L320.75 263.226C323.012 296.03 363.645 326.256 406.186 328.755C448.728 331.253 487.383 288.112 478.157 239.816Z" fill="#0A4DD0"/>
<path d="M352.962 267.613C351.319 270.564 347.365 270.859 344.719 272.531C343.368 273.301 342.351 274.545 341.867 276.023C341.638 276.717 341.595 277.459 341.741 278.175C341.888 278.891 342.22 279.557 342.703 280.105C343.352 280.794 344.385 279.751 343.745 279.062C343.371 278.576 343.157 277.985 343.134 277.371C343.111 276.758 343.28 276.152 343.618 275.639C344.412 274.431 345.579 273.516 346.942 273.033C349.598 271.853 352.716 271.125 354.241 268.38C354.703 267.525 353.424 266.816 352.962 267.613Z" fill="white"/>
<path d="M374.819 295.481C375.222 294.625 373.943 293.878 373.54 294.734C372.37 297.222 372.979 299.878 374.012 302.298C375.143 304.944 377.032 307.688 376.511 310.707C376.343 311.632 377.77 312.035 377.927 311.101C378.419 308.307 377.288 305.77 376.107 303.311C374.927 300.852 373.599 298.058 374.819 295.481Z" fill="white"/>
<path d="M421.273 259.016C415.106 258.947 415.234 267.151 412.961 270.996C411.638 273.384 409.425 275.151 406.804 275.914C405.528 276.261 404.184 276.277 402.901 275.96C401.617 275.644 400.435 275.005 399.466 274.105C398.788 273.446 397.745 274.478 398.424 275.147C402.27 278.895 408.378 278.098 412.047 274.537C413.971 272.554 415.329 270.092 415.981 267.406C416.719 264.701 417.693 260.442 421.273 260.521C421.472 260.521 421.664 260.442 421.805 260.301C421.946 260.159 422.025 259.968 422.025 259.769C422.025 259.569 421.946 259.378 421.805 259.236C421.664 259.095 421.472 259.016 421.273 259.016Z" fill="white"/>
<path d="M441.052 306.949C439.673 307.259 438.227 307.012 437.029 306.261C435.77 305.406 434.876 304.112 434.521 302.631C434.17 301.094 433.59 299.619 432.8 298.254C432.421 297.642 431.909 297.124 431.3 296.739C430.692 296.353 430.004 296.112 429.288 296.031C428.305 295.943 428.305 297.418 429.288 297.507C430.715 297.625 431.679 299.002 432.239 300.212C432.908 301.805 433.134 303.546 433.97 305.081C434.704 306.364 435.83 307.376 437.183 307.97C438.537 308.563 440.045 308.706 441.485 308.376C442.37 308.13 441.977 306.733 441.052 306.949Z" fill="white"/>
<path d="M464.353 248.681C465.14 248.159 464.402 246.881 463.605 247.412C460.448 249.497 459.966 253.412 458.796 256.717C458.107 258.64 457.008 260.391 455.574 261.847C454.141 263.303 452.407 264.428 450.494 265.146C449.609 265.481 449.992 266.907 450.887 266.573C454.69 265.173 457.8 262.352 459.563 258.704C461.078 255.517 461.146 250.805 464.353 248.681Z" fill="white"/>
<path d="M443.041 228.139C442.06 227.246 441.341 226.104 440.959 224.834C440.578 223.564 440.55 222.214 440.877 220.929C440.929 220.74 440.904 220.537 440.807 220.367C440.711 220.196 440.55 220.071 440.361 220.019C440.172 219.967 439.97 219.992 439.799 220.089C439.628 220.185 439.503 220.346 439.451 220.535C439.134 221.777 439.09 223.072 439.323 224.332C439.556 225.593 440.059 226.787 440.798 227.834C441.6 228.819 442.533 229.69 443.572 230.421C444.674 231.325 445.294 232.614 444.556 233.971C444.103 234.807 445.382 235.555 445.835 234.719C446.155 234.144 446.331 233.5 446.348 232.842C446.365 232.185 446.223 231.532 445.933 230.942C445.313 229.683 444.044 229.043 443.041 228.139Z" fill="white"/>
<path d="M370.714 244.498C371.991 245.715 373.064 247.13 373.891 248.688C374.284 249.676 374.4 250.752 374.227 251.8C374.054 252.849 373.598 253.83 372.908 254.639C372.308 255.357 373.341 256.409 373.96 255.681C375.213 254.228 375.855 252.345 375.751 250.429C375.589 248.682 374.876 247.032 373.714 245.717C372.731 244.508 371.58 243.426 370.714 242.127L368.59 241.262C369.095 242.461 369.815 243.557 370.714 244.498Z" fill="white"/>
<path d="M408.328 328.834C407.403 327.359 406.862 325.716 407.59 324.103C408.574 321.968 410.846 320.66 410.875 318.113C410.875 317.917 410.797 317.729 410.659 317.591C410.521 317.453 410.333 317.375 410.137 317.375C409.942 317.375 409.754 317.453 409.616 317.591C409.478 317.729 409.4 317.917 409.4 318.113C409.4 319.382 408.475 320.365 407.718 321.309C406.804 322.271 406.166 323.46 405.869 324.752C405.679 326.139 405.941 327.549 406.616 328.775L408.328 328.834Z" fill="white"/>
<path d="M467.649 289.949C466.099 289.401 464.819 288.28 464.072 286.815C463.325 285.351 463.169 283.656 463.636 282.08C463.931 281.175 462.505 280.791 462.22 281.696C461.773 283.239 461.804 284.881 462.31 286.405C462.816 287.929 463.772 289.265 465.053 290.234C465.682 290.709 466.387 291.075 467.138 291.316C467.913 291.496 468.666 291.763 469.381 292.113L470.079 290.863C469.305 290.471 468.49 290.164 467.649 289.949Z" fill="white"/>
<path d="M462.17 212.896C462.867 213.213 463.623 213.381 464.388 213.389C465.154 213.398 465.913 213.246 466.616 212.945C467.164 212.719 467.767 212.668 468.345 212.798C468.922 212.929 469.445 213.234 469.843 213.673C469.4 212.69 468.957 211.834 468.495 210.939L468.249 210.89C467.536 210.819 466.815 210.913 466.144 211.165C465.459 211.483 464.704 211.622 463.951 211.568C460.695 211.067 459.613 207.171 458.846 204.378C458.814 204.266 458.76 204.162 458.687 204.071C458.614 203.98 458.525 203.905 458.423 203.848C458.321 203.792 458.209 203.757 458.093 203.744C457.978 203.731 457.861 203.741 457.749 203.773C457.637 203.805 457.533 203.859 457.442 203.932C457.351 204.005 457.276 204.094 457.22 204.196C457.163 204.298 457.128 204.41 457.115 204.526C457.102 204.641 457.112 204.758 457.144 204.87C458 207.988 459.111 211.47 462.17 212.896Z" fill="white"/>
<path d="M384.83 276.829C384.83 277.607 384.599 278.368 384.167 279.015C383.734 279.662 383.12 280.166 382.401 280.464C381.682 280.762 380.891 280.84 380.128 280.688C379.365 280.536 378.664 280.161 378.113 279.611C377.563 279.061 377.188 278.36 377.037 277.597C376.885 276.833 376.963 276.042 377.26 275.323C377.558 274.604 378.063 273.99 378.71 273.558C379.357 273.125 380.117 272.895 380.895 272.895C381.939 272.895 382.94 273.309 383.677 274.047C384.415 274.785 384.83 275.785 384.83 276.829Z" fill="white"/>
<path d="M417.241 300.259C417.241 300.94 417.039 301.606 416.661 302.172C416.282 302.738 415.745 303.179 415.116 303.44C414.486 303.7 413.794 303.768 413.126 303.636C412.459 303.503 411.845 303.175 411.364 302.693C410.882 302.212 410.554 301.598 410.422 300.931C410.289 300.263 410.357 299.571 410.618 298.942C410.878 298.313 411.319 297.775 411.885 297.397C412.452 297.018 413.117 296.816 413.798 296.816C414.711 296.816 415.587 297.179 416.232 297.825C416.878 298.47 417.241 299.346 417.241 300.259Z" fill="white"/>
<path d="M344.473 252.45C346.76 252.45 348.614 250.596 348.614 248.309C348.614 246.022 346.76 244.168 344.473 244.168C342.186 244.168 340.332 246.022 340.332 248.309C340.332 250.596 342.186 252.45 344.473 252.45Z" fill="white"/>
<path d="M421.469 248.043C423.441 248.043 425.039 246.445 425.039 244.473C425.039 242.501 423.441 240.902 421.469 240.902C419.497 240.902 417.898 242.501 417.898 244.473C417.898 246.445 419.497 248.043 421.469 248.043Z" fill="white"/>
<path d="M445.924 277.397C445.924 278.286 445.66 279.156 445.166 279.895C444.672 280.634 443.97 281.21 443.149 281.55C442.328 281.891 441.424 281.98 440.552 281.806C439.68 281.633 438.879 281.205 438.25 280.576C437.622 279.947 437.193 279.146 437.02 278.274C436.847 277.402 436.936 276.499 437.276 275.677C437.616 274.856 438.192 274.154 438.931 273.66C439.671 273.166 440.54 272.902 441.429 272.902C442.621 272.902 443.764 273.376 444.607 274.219C445.45 275.062 445.924 276.205 445.924 277.397Z" fill="white"/>
<path d="M423.18 213.121C425.152 213.121 426.75 211.523 426.75 209.551C426.75 207.579 425.152 205.98 423.18 205.98C421.208 205.98 419.609 207.579 419.609 209.551C419.609 211.523 421.208 213.121 423.18 213.121Z" fill="white"/>
<path d="M478.628 255.165C477.973 255.136 477.318 255.239 476.703 255.47C476.088 255.7 475.527 256.053 475.052 256.507C474.578 256.961 474.2 257.506 473.942 258.109C473.684 258.713 473.551 259.363 473.551 260.019C473.551 260.676 473.684 261.325 473.942 261.929C474.2 262.533 474.578 263.078 475.052 263.531C475.527 263.985 476.088 264.338 476.703 264.569C477.318 264.799 477.973 264.903 478.628 264.873H478.766C479.224 261.69 479.474 258.48 479.514 255.263C479.223 255.201 478.926 255.168 478.628 255.165Z" fill="white"/>
<path d="M349.272 308.027C349.934 307.521 350.473 306.873 350.85 306.13C351.226 305.387 351.43 304.569 351.446 303.736C351.462 302.903 351.291 302.078 350.944 301.321C350.597 300.563 350.084 299.894 349.442 299.363C348.801 298.832 348.048 298.452 347.239 298.252C346.431 298.052 345.588 298.037 344.773 298.208C343.958 298.379 343.192 298.731 342.532 299.239C341.872 299.747 341.335 300.398 340.961 301.142C343.593 303.599 346.368 305.898 349.272 308.027Z" fill="white"/>
<path d="M453.941 190.262C463.069 199.665 473.515 215.265 478.196 239.816C487.383 288.111 448.728 331.243 406.186 328.783C363.645 326.324 323.012 296.059 320.75 263.255L353.032 234.898L405.281 256.311" stroke="#0F110E" stroke-miterlimit="10" stroke-linecap="round"/>
<path d="M413.523 218.078C413.523 218.078 411.683 240.347 393.438 251.432" stroke="#0F110E" stroke-miterlimit="10" stroke-linecap="round"/>
<path d="M314.906 209.564C314.906 209.564 312.211 200.348 314.148 199.128C317.099 197.289 322.549 210.263 324.132 212.682C325.716 215.102 329.503 223.64 330.958 227.161C332.519 230.409 334.321 233.536 336.349 236.515L323.798 250.394C323.798 250.394 305.67 235.64 297.437 226.659C289.204 217.679 284.03 208.246 286.007 206.191C287.984 204.135 289.263 207.764 289.263 207.764C289.263 207.764 286.784 202.551 288.024 201.341C289.263 200.132 292.194 203.545 292.194 203.545C292.194 203.545 288.732 197.643 290.512 196.059C292.293 194.476 297.044 201.577 297.044 201.577C297.044 201.577 293.945 195.243 296.06 194.299C298.175 193.354 304.716 202.453 309.348 208.787C313.981 215.122 315.594 212.289 314.906 209.564Z" fill="#F6C8A6"/>
<path d="M288.251 206.66C290.025 210.068 292.296 213.194 294.989 215.935C295.323 216.269 295.844 215.748 295.51 215.404C292.857 212.712 290.623 209.639 288.88 206.286C288.664 205.863 288.025 206.286 288.251 206.66Z" fill="#EF8576"/>
<path d="M290.914 201.28C293.009 204.83 295.359 208.222 297.947 211.43C298.252 211.804 298.764 211.273 298.468 210.909C295.933 207.746 293.632 204.403 291.583 200.906C291.534 200.822 291.453 200.762 291.359 200.738C291.265 200.714 291.165 200.728 291.082 200.778C290.998 200.827 290.938 200.908 290.914 201.002C290.89 201.096 290.904 201.196 290.954 201.28H290.914Z" fill="#EF8576"/>
<path d="M295.507 199.31C297.789 202.457 300.084 205.602 302.392 208.743C302.668 209.126 303.317 208.743 303.032 208.379L296.147 198.936C295.871 198.562 295.232 198.936 295.517 199.31H295.507Z" fill="#EF8576"/>
<path d="M322.056 267.72C319.601 262.694 317.437 257.531 315.574 252.257L340.44 227.273L354.869 235.978L322.056 267.72Z" fill="white" stroke="#0A4DD0" stroke-miterlimit="10"/>
<path d="M326.709 263.228L318.477 249.34" stroke="#0A4DD0" stroke-miterlimit="10"/>
<path d="M333.221 256.923L323.297 244.5" stroke="#0A4DD0" stroke-miterlimit="10"/>
<path d="M340.342 250.039L329.68 238.039" stroke="#0A4DD0" stroke-miterlimit="10"/>
<path d="M348.615 242.032L336.113 231.625" stroke="#0A4DD0" stroke-miterlimit="10"/>
<path d="M261.457 156.839C261.141 151.635 261.124 146.416 261.408 141.21L291.723 128.59L301.038 141.239L261.457 156.839Z" fill="white" stroke="#0A4DD0" stroke-miterlimit="10"/>
<path d="M267.062 154.626L264.938 139.734" stroke="#0A4DD0" stroke-miterlimit="10"/>
<path d="M274.92 151.526L270.809 137.293" stroke="#0A4DD0" stroke-miterlimit="10"/>
<path d="M283.508 148.146L278.609 134.012" stroke="#0A4DD0" stroke-miterlimit="10"/>
<path d="M293.492 144.211L286.449 130.785" stroke="#0A4DD0" stroke-miterlimit="10"/>
<path fill-rule="evenodd" clip-rule="evenodd" d="M391.842 151.769C390.931 150.078 390.255 148.205 389.871 146.209L399.136 146.441C398.54 149.086 395.364 152.13 391.842 151.769Z" fill="white"/>
<path d="M397.57 130.943C397.343 131.441 397.268 131.994 397.356 132.534C397.443 133.074 397.689 133.576 398.062 133.976C398.435 134.376 398.918 134.657 399.45 134.782C399.982 134.908 400.54 134.873 401.052 134.681C401.565 134.49 402.009 134.151 402.328 133.707C402.648 133.263 402.828 132.734 402.847 132.188C402.866 131.641 402.723 131.101 402.435 130.636C402.147 130.171 401.728 129.802 401.23 129.576C400.9 129.424 400.543 129.339 400.18 129.326C399.818 129.313 399.456 129.371 399.116 129.498C398.776 129.626 398.464 129.819 398.199 130.067C397.933 130.314 397.72 130.612 397.57 130.943Z" fill="#161522"/>
<path d="M389.554 128.73C388.659 131.878 387.695 135.163 385.452 137.583C385.377 137.646 385.324 137.733 385.305 137.829C385.305 137.967 385.433 138.065 385.541 138.144C386.811 138.982 388.158 139.697 389.564 140.278" fill="#F6C8A6"/>
<path d="M389.197 128.629C388.6 131.277 387.567 133.806 386.138 136.114C385.932 136.399 385.725 136.665 385.499 136.93C385.302 137.111 385.133 137.32 384.997 137.55C384.791 138.062 385.243 138.347 385.617 138.534C386.839 139.301 388.126 139.959 389.463 140.501C389.896 140.678 390.092 139.97 389.659 139.783C388.411 139.284 387.21 138.675 386.069 137.963C385.745 137.757 385.646 137.835 385.902 137.55C386.158 137.265 386.286 137.098 386.463 136.862C386.826 136.408 387.154 135.928 387.446 135.426C388.544 133.322 389.38 131.093 389.935 128.786C389.948 128.74 389.951 128.691 389.946 128.643C389.94 128.595 389.924 128.549 389.901 128.507C389.877 128.465 389.845 128.428 389.807 128.398C389.769 128.369 389.726 128.347 389.679 128.334C389.633 128.321 389.584 128.317 389.536 128.323C389.488 128.329 389.442 128.344 389.4 128.368C389.358 128.392 389.321 128.423 389.291 128.461C389.262 128.499 389.24 128.543 389.227 128.589L389.197 128.629Z" fill="#101010"/>
<path d="M399.025 125.957C400.747 127.049 402.449 128.151 404.141 129.283C404.672 129.637 405.124 128.791 404.642 128.437C402.95 127.302 401.245 126.194 399.527 125.111C398.986 124.767 398.494 125.623 399.025 125.957Z" fill="#161522"/>
<path d="M381.841 82.6087C389.631 78.9104 401.513 96.5465 401.513 96.5465C401.513 96.5465 393.91 84.9989 402.605 82.3038C411.3 79.6087 421.579 95.7301 421.579 95.7301C421.579 95.7301 455.513 100.648 453.841 132.124C453.841 132.124 453.349 150.045 434.818 155.73L434.199 136.442L431.543 134.602L429.703 140.878C429.703 140.878 422.385 142.471 417.625 130.884C406.702 128.331 396.554 123.186 388.038 115.884C368.493 99.2711 374.051 86.2973 381.841 82.6087Z" fill="#16004D"/>
<path d="M446.069 140.154C446.04 142.154 445.417 144.101 444.279 145.747C443.142 147.393 441.541 148.664 439.681 149.399C437.82 150.134 435.783 150.3 433.827 149.876C431.872 149.452 430.087 148.457 428.698 147.017C427.309 145.577 426.379 143.757 426.026 141.787C425.673 139.818 425.912 137.788 426.714 135.955C427.516 134.122 428.844 132.569 430.53 131.491C432.216 130.414 434.184 129.862 436.184 129.905C437.507 129.926 438.812 130.209 440.025 130.736C441.239 131.264 442.336 132.025 443.254 132.977C444.173 133.929 444.894 135.053 445.377 136.285C445.86 137.516 446.095 138.831 446.069 140.154Z" fill="#F6C8A6"/>
<path d="M430.885 141.159C430.806 139.192 431.721 136.811 433.718 135.956C434.828 135.536 436.03 135.42 437.2 135.621C437.662 135.68 437.662 134.943 437.2 134.884C436.212 134.683 435.19 134.731 434.225 135.023C433.26 135.314 432.383 135.841 431.672 136.556C430.815 137.618 430.297 138.913 430.187 140.274C430.167 140.569 430.167 140.864 430.187 141.159C430.187 141.631 430.944 141.641 430.924 141.159H430.885Z" fill="#EF8576"/>
<path d="M410.643 146.738C414.402 146.738 417.449 143.691 417.449 139.932C417.449 136.172 414.402 133.125 410.643 133.125C406.883 133.125 403.836 136.172 403.836 139.932C403.836 143.691 406.883 146.738 410.643 146.738Z" fill="#EF8576"/>
<path d="M441.045 182.79L408.153 182.465C407.507 182.506 406.871 182.29 406.383 181.865C405.895 181.439 405.595 180.839 405.547 180.193L405.704 168.282C405.767 167.637 406.08 167.042 406.577 166.626C407.074 166.211 407.714 166.007 408.36 166.059L441.262 166.383C441.906 166.345 442.54 166.562 443.026 166.988C443.511 167.413 443.811 168.012 443.859 168.655L443.711 180.567C443.646 181.213 443.331 181.807 442.832 182.223C442.334 182.639 441.692 182.842 441.045 182.79Z" fill="white"/>
<path d="M441.045 182.79L408.153 182.465C407.507 182.506 406.871 182.29 406.383 181.865C405.895 181.439 405.595 180.839 405.547 180.193L405.704 168.282C405.767 167.637 406.08 167.042 406.577 166.626C407.074 166.211 407.714 166.007 408.36 166.059L441.262 166.383C441.906 166.345 442.54 166.562 443.026 166.988C443.511 167.413 443.811 168.012 443.859 168.655L443.711 180.567C443.646 181.213 443.331 181.807 442.832 182.223C442.334 182.639 441.692 182.842 441.045 182.79Z" stroke="#0A4DD0" stroke-miterlimit="10"/>
<path d="M411.055 166.086V182.493" stroke="#0A4DD0" stroke-miterlimit="10"/>
<path d="M417.801 166.086V182.493" stroke="#0A4DD0" stroke-miterlimit="10"/>
<path d="M424.559 166.086V182.493" stroke="#0A4DD0" stroke-miterlimit="10"/>
<path d="M431.305 166.086V182.493" stroke="#0A4DD0" stroke-miterlimit="10"/>
<path d="M438.062 166.086V182.493" stroke="#0A4DD0" stroke-miterlimit="10"/>
<path d="M481.204 378.695H52.1299C46.3279 378.695 40.526 378.599 34.7348 378.695H33.9748C33.6199 378.695 33.2796 378.836 33.0286 379.087C32.7777 379.338 32.6367 379.678 32.6367 380.033C32.6367 380.388 32.7777 380.728 33.0286 380.979C33.2796 381.23 33.6199 381.371 33.9748 381.371H463.006C468.808 381.371 474.61 381.468 480.401 381.371H481.204C481.558 381.371 481.899 381.23 482.15 380.979C482.401 380.728 482.542 380.388 482.542 380.033C482.542 379.678 482.401 379.338 482.15 379.087C481.899 378.836 481.558 378.695 481.204 378.695Z" fill="#161522"/>
<path d="M153.785 161.361L170.122 161.641C170.207 161.643 170.291 161.661 170.369 161.695C170.447 161.729 170.517 161.779 170.576 161.841C170.635 161.902 170.68 161.975 170.711 162.054C170.741 162.134 170.755 162.219 170.752 162.304C170.571 165.608 169.429 168.787 167.467 171.452C165.505 174.116 162.808 176.151 159.707 177.305C156.606 178.46 153.236 178.684 150.009 177.951C146.782 177.218 143.839 175.56 141.542 173.179C139.244 170.798 137.69 167.798 137.072 164.547C136.454 161.297 136.798 157.936 138.062 154.878C139.325 151.82 141.454 149.197 144.187 147.331C146.919 145.465 150.137 144.436 153.445 144.372C153.527 144.371 153.608 144.386 153.684 144.416C153.76 144.447 153.829 144.493 153.887 144.55C153.945 144.608 153.99 144.677 154.021 144.753C154.051 144.829 154.066 144.91 154.065 144.992L153.785 161.361Z" fill="white"/>
<path d="M171.282 162.295C171.285 162.141 171.257 161.988 171.2 161.845C171.144 161.702 171.059 161.572 170.952 161.462C170.845 161.352 170.716 161.264 170.575 161.204C170.434 161.144 170.282 161.112 170.128 161.111L154.367 160.841L154.638 145.005C154.64 144.692 154.519 144.39 154.3 144.166C154.192 144.06 154.064 143.977 153.924 143.922C153.784 143.866 153.634 143.839 153.483 143.842C150.072 143.909 146.755 144.969 143.938 146.894C141.121 148.819 138.927 151.524 137.625 154.677C136.323 157.83 135.97 161.295 136.609 164.647C137.248 167.998 138.851 171.09 141.222 173.543C143.592 175.996 146.628 177.704 149.955 178.458C153.282 179.211 156.757 178.977 159.953 177.784C163.15 176.591 165.928 174.49 167.948 171.741C169.968 168.992 171.142 165.713 171.325 162.306L171.282 162.295ZM137.315 161.072C137.371 157.124 138.86 153.331 141.503 150.398C143.011 148.711 144.85 147.353 146.907 146.409C148.963 145.464 151.192 144.954 153.454 144.91L153.247 161.356C153.245 161.497 153.298 161.634 153.397 161.736C153.495 161.838 153.63 161.896 153.772 161.899L170.109 162.179L170.748 162.307L170.214 162.298C169.971 166.432 168.18 170.322 165.197 173.194C162.215 176.067 158.259 177.71 154.119 177.797C149.979 177.883 145.958 176.407 142.858 173.662C139.758 170.917 137.805 167.105 137.389 162.985C137.313 162.35 137.274 161.711 137.272 161.071L137.315 161.072Z" fill="#0A4DD0"/>
<path d="M158.132 139.921C162.708 140.19 167.016 142.166 170.205 145.459C173.394 148.751 175.232 153.12 175.356 157.702C175.355 157.801 175.335 157.899 175.297 157.99C175.258 158.081 175.202 158.164 175.131 158.233C175.061 158.303 174.977 158.357 174.885 158.394C174.793 158.431 174.694 158.449 174.595 158.447L157.788 158.159C157.691 158.159 157.596 158.14 157.507 158.102C157.419 158.065 157.338 158.01 157.271 157.941C157.204 157.873 157.15 157.791 157.115 157.702C157.079 157.612 157.062 157.517 157.063 157.42L157.351 140.645C157.354 140.546 157.376 140.448 157.418 140.358C157.459 140.268 157.517 140.187 157.59 140.119C157.663 140.052 157.748 140 157.841 139.966C157.934 139.932 158.033 139.917 158.132 139.921Z" fill="#A6B5FF"/>
<path d="M175.885 157.789L175.887 157.714C175.751 152.996 173.858 148.5 170.579 145.106C167.299 141.712 162.87 139.666 158.16 139.369C157.989 139.358 157.818 139.383 157.658 139.441C157.497 139.498 157.35 139.589 157.225 139.706C156.973 139.944 156.826 140.271 156.814 140.617L156.526 157.436C156.523 157.771 156.653 158.094 156.887 158.334C157.121 158.574 157.44 158.712 157.775 158.717L174.583 159.005C174.756 159.009 174.929 158.978 175.09 158.913C175.251 158.847 175.397 158.75 175.519 158.626C175.741 158.403 175.872 158.104 175.885 157.789ZM158.088 140.458C162.532 140.737 166.711 142.666 169.806 145.867C172.901 149.067 174.688 153.309 174.818 157.76C174.834 157.804 174.833 157.854 174.815 157.898C174.794 157.919 174.769 157.935 174.741 157.946C174.713 157.957 174.684 157.961 174.654 157.96L157.793 157.671C157.741 157.67 157.691 157.649 157.654 157.613C157.617 157.576 157.595 157.527 157.594 157.475L157.882 140.657C157.887 140.599 157.915 140.546 157.959 140.509C157.993 140.475 158.04 140.457 158.088 140.458Z" fill="#0A4DD0"/>
</g>
<defs>
<clipPath id="clip0_3594_175582">
<rect width="534" height="382" fill="white"/>
</clipPath>
</defs>
</svg>
