<svg width="534" height="382" viewBox="0 0 534 382" fill="none" xmlns="http://www.w3.org/2000/svg">
<g clip-path="url(#clip0_1_5198)">
<path d="M84.3294 379.297C84.3294 379.297 4.30018 361.79 0.218217 300.167C-4.47604 229.178 68.251 248.298 56.2432 197.391C42.58 139.382 69.8498 89.2132 120.874 84.9867C171.899 80.7601 214.816 122.501 245.601 73.9826C272.814 31.1665 340.949 3.74379 395.863 28.1904C465.37 59.1145 435.628 137.444 473.363 154.938C511.099 172.432 539.639 217.461 533.051 281.235C526.883 341.132 484.827 380.51 438.417 379.897C415.672 379.609 327.399 380.235 248.073 379.897C165.504 379.597 84.3294 379.297 84.3294 379.297Z" fill="#DEE3FF"/>
<path d="M80.9693 379.541C74.5466 379.777 48.5771 385.472 49.0053 364.341C49.2194 353.55 46.0722 353.946 39.7565 349.718C33.4408 345.49 33.5799 342.781 34.1366 336.744C34.6932 330.707 28.6665 333.629 24.663 325.686C19.8673 316.191 25.6371 309.094 34.9608 307.392C44.2846 305.69 44.0063 315.742 47.7208 318.739C51.4353 321.736 56.5414 315.292 63.66 324.027C68.3058 329.732 61.0908 342.749 67.9418 341.529" fill="white"/>
<path d="M80.9693 379.541C74.5466 379.777 48.5771 385.472 49.0053 364.341C49.2194 353.55 46.0722 353.946 39.7565 349.718C33.4408 345.49 33.5799 342.781 34.1366 336.744C34.6932 330.707 28.6665 333.629 24.663 325.686C19.8673 316.191 25.6371 309.094 34.9608 307.392C44.2846 305.69 44.0062 315.742 47.7208 318.739C51.4353 321.736 56.5414 315.292 63.66 324.027C68.3058 329.732 61.0908 342.749 67.9418 341.529" stroke="#7189FF" stroke-miterlimit="10"/>
<path d="M68.7537 360.725C59.6405 348.429 50.0491 336.504 39.9796 324.95C39.2945 324.169 38.1598 325.304 38.8449 326.085C48.8359 337.503 58.3416 349.321 67.3621 361.539C67.9722 362.363 69.3638 361.539 68.7537 360.725Z" fill="#7189FF"/>
<path d="M53.2766 324.392L52.2703 339.474L52.1312 341.615L52.934 340.813L39.1036 341.947C38.0332 342.033 38.0332 343.639 39.1036 343.553L52.9447 342.408C53.1559 342.402 53.357 342.316 53.5064 342.166C53.6558 342.017 53.7421 341.816 53.7476 341.605L54.7538 326.522L54.893 324.381C54.9679 323.311 53.3622 323.311 53.2873 324.381L53.2766 324.392Z" fill="#7189FF"/>
<path d="M39.5537 254.579C27.982 245.148 25.2095 216.042 41.6947 207.2C62.0335 196.271 83.4427 213.184 86.0975 230.579C88.1742 243.992 78.7862 253.369 103.225 263.196C127.664 273.023 123.874 285.248 118.854 308.605C113.833 331.963 130.34 323.399 143.175 343.117C153.333 358.746 139.053 374.685 132.684 380.583L82.7148 380.401C81.0901 379.451 79.5405 378.377 78.0797 377.19C61.9478 364.012 68.3278 343.17 70.0405 326.953C72.3634 304.794 46.5974 317.244 36.5672 294.7C26.5369 272.156 51.1147 263.999 39.5537 254.579Z" fill="white" stroke="#7189FF" stroke-miterlimit="10"/>
<path d="M123.894 379.878C121.896 375.447 119.887 371.018 117.867 366.594C112.872 355.654 107.876 344.717 102.881 333.784C96.4581 319.84 90.0354 305.924 83.6126 292.036C77.3611 278.613 71.0453 265.221 64.6654 251.862C60.1587 242.474 55.6735 233.064 50.7494 223.901L49.5933 221.76C49.0901 220.861 47.6985 221.664 48.2017 222.574C52.9117 230.988 57.0544 239.701 61.2506 248.415C67.5449 261.474 73.7215 274.566 79.7803 287.69C86.3601 301.685 92.8721 315.733 99.3163 329.834C104.583 341.31 109.832 352.792 115.063 364.282L120.073 375.318C120.843 377.01 121.496 378.84 122.406 380.467C122.445 380.539 122.477 380.614 122.502 380.692C122.931 381.634 124.312 380.82 123.894 379.878Z" fill="#7189FF"/>
<path d="M77.5544 280.848L48.4913 279.35L44.4557 279.125C43.9419 279.125 43.9419 279.906 44.4557 279.928L73.508 281.469L77.5972 281.694C78.111 281.694 78.111 280.913 77.5972 280.891L77.5544 280.848Z" fill="#7189FF"/>
<path d="M111.018 353.239L78.3798 349.728L73.7446 349.225C73.2308 349.172 73.2415 349.975 73.7446 350.028L106.383 353.55L111.018 354.042C111.521 354.096 111.521 353.293 111.018 353.239Z" fill="#7189FF"/>
<path d="M113.158 274.33L106.542 288.471L96.1052 311.037L93.6967 316.228C93.4826 316.699 94.1784 317.106 94.3925 316.635L100.965 302.494L111.445 279.929L113.864 274.737C114.078 274.266 113.393 273.859 113.168 274.33H113.158Z" fill="#7189FF"/>
<path d="M66.3037 226.733C67.9201 229.013 70.7461 229.881 72.6087 228.671C74.4713 227.461 74.664 224.625 73.0369 222.334C71.4098 220.043 68.5945 219.187 66.7319 220.407C64.8693 221.627 64.6873 224.453 66.3037 226.733Z" fill="#7189FF"/>
<path d="M65.1136 239.098C65.0858 239.554 65.1954 240.008 65.4284 240.401C65.6614 240.794 66.007 241.107 66.4204 241.301C66.8338 241.496 67.296 241.561 67.747 241.489C68.1981 241.418 68.6173 241.212 68.9502 240.9C69.2831 240.587 69.5145 240.182 69.6144 239.736C69.7142 239.29 69.678 238.825 69.5102 238.4C69.3425 237.975 69.0511 237.611 68.6737 237.354C68.2963 237.096 67.8504 236.958 67.3937 236.957C66.8093 236.946 66.2435 237.163 65.8174 237.563C65.3913 237.963 65.1387 238.514 65.1136 239.098Z" fill="white"/>
<path d="M53.0177 299.646C55.4652 299.646 57.4494 297.748 57.4494 295.407C57.4494 293.066 55.4652 291.168 53.0177 291.168C50.5701 291.168 48.5859 293.066 48.5859 295.407C48.5859 297.748 50.5701 299.646 53.0177 299.646Z" fill="#7189FF"/>
<path d="M144.856 379.843C144.984 380.132 128.991 370.08 129.398 354.665C129.805 339.251 146.879 344.924 150.272 337.806C153.666 330.687 146.59 324.189 152.467 315.893C159.735 305.606 167.453 317.349 168.459 303.412C169.284 291.326 180.984 297.128 185.587 289.881C190.19 282.634 199.578 278.106 207.157 285.599C215.217 293.521 211.513 302.427 206.589 309.749C201.665 317.071 206.311 319.907 203.646 327.947C200.98 335.986 185.715 335.943 185.587 344.26C185.458 352.578 191.624 363.454 184.656 371.268C180.669 375.848 175.476 379.216 169.669 380.988L144.856 379.843Z" fill="#7189FF"/>
<path d="M151.686 379.092C155.807 370.678 159.618 362.103 163.546 353.593C168.802 342.236 174.091 330.878 179.689 319.681C182.205 314.682 184.752 309.683 187.589 304.844C187.642 304.752 187.655 304.643 187.627 304.54C187.599 304.438 187.532 304.351 187.439 304.299C187.347 304.246 187.238 304.232 187.135 304.26C187.033 304.288 186.946 304.356 186.893 304.448C181.37 313.879 176.692 323.813 171.992 333.672C166.801 344.58 161.77 355.574 156.696 366.546C154.822 370.603 152.96 374.671 150.99 378.696C150.765 379.156 151.45 379.563 151.686 379.092Z" fill="white"/>
<path d="M191.506 324.834L177.697 326.269L175.706 326.472C175.192 326.526 175.192 327.329 175.706 327.275L189.515 325.841L191.506 325.637C192.02 325.637 192.02 324.781 191.506 324.834Z" fill="white"/>
<path d="M156.93 318.277L167.206 344.75" stroke="white" stroke-width="0.75" stroke-miterlimit="10" stroke-linecap="round"/>
<path d="M185.62 317.37C185.546 317.889 185.631 318.417 185.866 318.885C186.1 319.353 186.472 319.739 186.932 319.989C187.391 320.24 187.916 320.345 188.437 320.289C188.957 320.233 189.448 320.02 189.844 319.677C190.24 319.334 190.522 318.879 190.652 318.372C190.782 317.865 190.753 317.33 190.571 316.839C190.389 316.349 190.061 315.925 189.631 315.626C189.202 315.327 188.691 315.166 188.167 315.165C187.538 315.124 186.918 315.332 186.441 315.745C185.964 316.158 185.669 316.742 185.62 317.37Z" fill="white"/>
<path d="M176.431 304.688C176.683 305.125 177.059 305.477 177.511 305.7C177.963 305.923 178.471 306.007 178.97 305.941C179.47 305.875 179.939 305.662 180.318 305.33C180.697 304.998 180.968 304.561 181.099 304.074C181.229 303.587 181.212 303.072 181.05 302.595C180.888 302.118 180.588 301.7 180.188 301.393C179.788 301.086 179.306 300.905 178.803 300.873C178.3 300.84 177.799 300.957 177.362 301.209C177.072 301.376 176.817 301.598 176.613 301.863C176.409 302.128 176.259 302.432 176.172 302.755C176.086 303.078 176.064 303.416 176.108 303.747C176.153 304.079 176.262 304.399 176.431 304.688Z" fill="white"/>
<path d="M169.701 355.308C169.607 355.955 169.713 356.614 170.005 357.199C170.296 357.784 170.759 358.266 171.331 358.582C171.903 358.897 172.558 359.029 173.208 358.963C173.858 358.896 174.472 358.632 174.969 358.207C175.465 357.782 175.82 357.215 175.986 356.583C176.151 355.951 176.121 355.284 175.897 354.67C175.674 354.056 175.268 353.525 174.735 353.147C174.202 352.769 173.566 352.564 172.912 352.557C172.521 352.525 172.126 352.571 171.752 352.692C171.378 352.813 171.032 353.007 170.733 353.263C170.435 353.519 170.19 353.831 170.012 354.182C169.835 354.533 169.729 354.916 169.701 355.308Z" fill="white"/>
<path d="M186.098 297.771C186.098 297.996 186.164 298.215 186.289 298.402C186.414 298.588 186.591 298.734 186.798 298.82C187.005 298.906 187.234 298.928 187.454 298.884C187.674 298.841 187.876 298.732 188.035 298.574C188.193 298.415 188.301 298.213 188.345 297.993C188.389 297.773 188.367 297.545 188.281 297.337C188.195 297.13 188.049 296.953 187.863 296.828C187.676 296.703 187.457 296.637 187.232 296.637C186.932 296.64 186.645 296.76 186.433 296.972C186.221 297.184 186.1 297.471 186.098 297.771Z" fill="white"/>
<path d="M475.504 126.499C475.504 126.499 446.534 96.2366 476.786 74.3083C507.038 52.3801 541.197 92.3495 533.26 121.838C525.323 151.327 485.679 142.779 475.504 126.499Z" fill="#DEE3FF"/>
<path d="M89.0006 40.2027C89.0006 40.2027 88.4336 4.17163 123.58 3.02018C158.726 1.86872 177.606 50.3233 145.609 65.2086C131.047 71.9811 91.4792 77.0905 89.0006 40.2027Z" fill="#DEE3FF"/>
<path d="M283.979 34.9219H275.188V296.363H283.979V34.9219Z" fill="#FFC9D5"/>
<path d="M371.494 346.496H187.672V357.628H371.494V346.496Z" fill="#FFC9D5"/>
<path d="M390.884 357.629H168.285V368.761H390.884V357.629Z" fill="#EAAAB8"/>
<path d="M409.43 368.758H149.75V379.89H409.43V368.758Z" fill="#FFC9D5"/>
<path d="M404.378 58.289L156.836 3.39062L154.805 12.5505L402.347 67.4489L404.378 58.289Z" fill="#FFC9D5"/>
<path d="M94.668 186.372L153.981 7.83203L213.283 186.372" stroke="#2C3C8D" stroke-width="2.41" stroke-miterlimit="10"/>
<path d="M347.449 244.372L406.751 65.832L466.064 244.372" stroke="#2C3C8D" stroke-width="2.41" stroke-miterlimit="10"/>
<path d="M153.981 230.151C188.187 230.151 215.93 210.074 215.93 185.316H92C92 210.129 119.765 230.151 153.981 230.151Z" fill="#FFC9D5"/>
<path d="M205.596 185.301C197.373 203.103 174.19 215.92 146.841 215.92C123.8 215.92 103.701 206.8 93.0391 193.273C98.2443 214.236 123.538 230.135 153.981 230.135C188.187 230.135 215.93 210.058 215.93 185.301H205.596Z" fill="#EAAAB8"/>
<path d="M406.761 288.151C440.966 288.151 468.698 268.074 468.698 243.316H344.812C344.812 268.129 372.544 288.151 406.761 288.151Z" fill="#FFC9D5"/>
<path d="M458.33 243.301C450.118 261.103 426.924 273.92 399.586 273.92C376.534 273.92 356.446 264.8 345.773 251.273C350.99 272.236 376.283 288.135 406.727 288.135C440.932 288.135 468.664 268.058 468.664 243.301H458.33Z" fill="#EAAAB8"/>
<path d="M161.812 7.82967C161.812 9.37823 161.352 10.892 160.492 12.1796C159.632 13.4672 158.409 14.4707 156.978 15.0633C155.548 15.6559 153.973 15.811 152.455 15.5089C150.936 15.2068 149.541 14.4611 148.446 13.3661C147.351 12.2711 146.605 10.876 146.303 9.35715C146.001 7.83835 146.156 6.26407 146.748 4.83338C147.341 3.4027 148.345 2.17987 149.632 1.31954C150.92 0.459201 152.433 0 153.982 0C156.058 0.00289292 158.048 0.82873 159.515 2.29645C160.983 3.76417 161.809 5.754 161.812 7.82967Z" fill="#2C3C8D"/>
<path d="M406.752 73.6593C411.076 73.6593 414.581 70.1539 414.581 65.8297C414.581 61.5055 411.076 58 406.752 58C402.427 58 398.922 61.5055 398.922 65.8297C398.922 70.1539 402.427 73.6593 406.752 73.6593Z" fill="#2C3C8D"/>
<path d="M279.586 288.152C264.112 288.155 249.273 294.304 238.333 305.247C227.392 316.189 221.246 331.029 221.246 346.503H337.937C337.937 338.84 336.427 331.253 333.495 324.173C330.562 317.094 326.264 310.661 320.846 305.243C315.428 299.825 308.995 295.526 301.916 292.594C294.836 289.662 287.249 288.152 279.586 288.152Z" fill="#A6B5FF"/>
<path opacity="0.22" d="M261.806 323.179C272.309 316.475 277.772 306.262 274.009 300.367C270.246 294.472 258.682 295.127 248.18 301.831C237.678 308.534 232.214 318.748 235.977 324.643C239.74 330.538 251.304 329.882 261.806 323.179Z" fill="white"/>
<path d="M326.951 30.8447L241.653 11.8685C238.876 11.2508 236.124 13.0009 235.507 15.7776L231.253 34.8953C230.636 37.672 232.386 40.4237 235.163 41.0414L320.461 60.0176C323.238 60.6353 325.99 58.8852 326.607 56.1085L330.86 36.9907C331.478 34.2141 329.728 31.4624 326.951 30.8447Z" fill="#A6B5FF"/>
<path d="M153.785 161.361L170.122 161.641C170.207 161.643 170.291 161.661 170.369 161.695C170.447 161.729 170.517 161.779 170.576 161.841C170.635 161.902 170.68 161.975 170.711 162.054C170.741 162.134 170.755 162.219 170.752 162.304C170.571 165.608 169.429 168.787 167.467 171.452C165.505 174.116 162.808 176.151 159.707 177.305C156.606 178.46 153.236 178.684 150.009 177.951C146.782 177.218 143.839 175.56 141.542 173.179C139.244 170.798 137.69 167.798 137.072 164.547C136.454 161.297 136.798 157.936 138.062 154.878C139.325 151.82 141.454 149.197 144.187 147.331C146.919 145.465 150.137 144.436 153.445 144.372C153.527 144.371 153.608 144.386 153.684 144.416C153.76 144.447 153.829 144.493 153.887 144.55C153.945 144.608 153.99 144.677 154.021 144.753C154.051 144.829 154.066 144.91 154.065 144.992L153.785 161.361Z" fill="white"/>
<path d="M171.283 162.295C171.285 162.141 171.257 161.988 171.201 161.845C171.144 161.702 171.059 161.572 170.952 161.462C170.845 161.352 170.717 161.264 170.575 161.204C170.434 161.144 170.282 161.112 170.128 161.111L154.367 160.841L154.638 145.005C154.641 144.692 154.519 144.39 154.3 144.166C154.192 144.06 154.064 143.977 153.924 143.922C153.784 143.866 153.634 143.839 153.483 143.842C150.072 143.909 146.755 144.969 143.938 146.894C141.121 148.819 138.927 151.524 137.625 154.677C136.323 157.83 135.97 161.295 136.609 164.647C137.248 167.998 138.851 171.09 141.222 173.543C143.593 175.996 146.628 177.704 149.955 178.458C153.283 179.211 156.757 178.977 159.954 177.784C163.15 176.591 165.928 174.49 167.948 171.741C169.968 168.992 171.142 165.713 171.325 162.306L171.283 162.295ZM137.315 161.072C137.371 157.124 138.86 153.331 141.504 150.398C143.011 148.711 144.851 147.353 146.907 146.409C148.963 145.464 151.192 144.954 153.454 144.91L153.247 161.356C153.245 161.497 153.299 161.634 153.397 161.736C153.495 161.838 153.63 161.896 153.772 161.899L170.11 162.179L170.748 162.307L170.214 162.298C169.972 166.432 168.18 170.322 165.197 173.194C162.215 176.067 158.259 177.71 154.119 177.797C149.979 177.883 145.959 176.407 142.858 173.662C139.758 170.917 137.805 167.105 137.389 162.985C137.313 162.35 137.274 161.711 137.273 161.071L137.315 161.072Z" fill="#0A4DD0"/>
<path d="M158.132 139.921C162.708 140.19 167.016 142.166 170.205 145.459C173.394 148.751 175.232 153.12 175.356 157.702C175.355 157.801 175.335 157.899 175.297 157.99C175.258 158.081 175.202 158.164 175.131 158.233C175.061 158.303 174.977 158.357 174.885 158.394C174.793 158.431 174.694 158.449 174.595 158.447L157.788 158.159C157.691 158.159 157.596 158.14 157.507 158.102C157.419 158.065 157.338 158.01 157.271 157.941C157.204 157.873 157.15 157.791 157.115 157.702C157.079 157.612 157.062 157.517 157.063 157.42L157.351 140.645C157.354 140.546 157.376 140.448 157.418 140.358C157.459 140.268 157.517 140.187 157.59 140.119C157.663 140.052 157.748 140 157.841 139.966C157.934 139.932 158.033 139.917 158.132 139.921Z" fill="#A6B5FF"/>
<path d="M175.885 157.789L175.887 157.714C175.751 152.996 173.858 148.5 170.579 145.106C167.299 141.712 162.87 139.666 158.16 139.369C157.989 139.358 157.818 139.383 157.658 139.441C157.497 139.498 157.35 139.589 157.225 139.706C156.973 139.944 156.826 140.271 156.814 140.617L156.526 157.436C156.523 157.771 156.653 158.094 156.887 158.334C157.121 158.574 157.44 158.712 157.775 158.717L174.583 159.005C174.756 159.009 174.929 158.978 175.09 158.913C175.251 158.847 175.397 158.75 175.519 158.626C175.741 158.403 175.872 158.104 175.885 157.789ZM158.088 140.458C162.532 140.737 166.711 142.666 169.806 145.867C172.901 149.067 174.688 153.309 174.818 157.76C174.834 157.804 174.833 157.854 174.815 157.898C174.794 157.919 174.769 157.935 174.741 157.946C174.713 157.957 174.684 157.961 174.654 157.96L157.793 157.671C157.741 157.67 157.691 157.649 157.654 157.613C157.617 157.576 157.595 157.527 157.594 157.475L157.882 140.657C157.887 140.599 157.915 140.546 157.959 140.509C157.993 140.475 158.04 140.457 158.088 140.458Z" fill="#0A4DD0"/>
<g clip-path="url(#clip1_1_5198)">
<path d="M356.06 128.132C353.337 133.406 356.733 139.073 353.232 147.12C348.416 158.166 343.787 186.223 343.787 186.223L401.227 167.815V88.2389L366.713 79.5898C366.713 79.5898 366.216 98.0478 361.953 102.405C357.689 106.763 356.06 128.132 356.06 128.132Z" fill="#DFDEDE"/>
<mask id="mask0_1_5198" style="mask-type:luminance" maskUnits="userSpaceOnUse" x="343" y="79" width="59" height="108">
<path d="M356.06 128.132C353.337 133.406 356.733 139.073 353.232 147.12C348.416 158.166 343.787 186.223 343.787 186.223L401.227 167.815V88.2389L366.714 79.5898C366.714 79.5898 366.217 98.0478 361.953 102.405C357.689 106.763 356.06 128.132 356.06 128.132Z" fill="white"/>
</mask>
<g mask="url(#mask0_1_5198)">
<path d="M390.766 99.2298C383.785 83.8868 342.766 108.901 336.221 118.925C330.499 127.69 336.536 160.9 343.953 171.598C338.286 174.139 318.144 183.926 338.054 186.456C360.992 189.366 392.766 183.363 391.904 153.582C391.043 123.802 390.766 99.2298 390.766 99.2298ZM358.733 173.587C355.601 176.155 352.354 173.824 354.077 170.66C357.866 163.7 364.377 144.353 364.377 136.466C364.377 132.004 365.233 135.24 366.388 136.052C369.569 138.3 366.388 155.791 368.707 163.839C370.442 169.936 365.112 168.351 358.716 173.587H358.733Z" fill="#C2C2C1"/>
</g>
<path d="M356.06 128.132C353.337 133.406 356.733 139.073 353.232 147.12C348.416 158.166 343.787 186.223 343.787 186.223L401.227 167.815V88.2389L366.713 79.5898C366.713 79.5898 366.216 98.0478 361.953 102.405C357.689 106.763 356.06 128.132 356.06 128.132Z" stroke="#302D30" stroke-linecap="round" stroke-linejoin="round"/>
<path d="M446.118 128.132C448.841 133.406 445.439 139.073 448.946 147.12C453.762 158.166 458.391 186.223 458.391 186.223L400.951 167.815V88.2389L435.464 79.5898C435.464 79.5898 435.962 98.0478 440.225 102.405C444.489 106.763 446.118 128.132 446.118 128.132Z" fill="#DFDEDE"/>
<mask id="mask1_1_5198" style="mask-type:luminance" maskUnits="userSpaceOnUse" x="400" y="79" width="59" height="108">
<path d="M446.118 128.132C448.841 133.406 445.439 139.073 448.946 147.12C453.762 158.166 458.391 186.223 458.391 186.223L400.951 167.815V88.2389L435.464 79.5898C435.464 79.5898 435.962 98.0478 440.225 102.405C444.489 106.763 446.118 128.132 446.118 128.132Z" fill="white"/>
</mask>
<g mask="url(#mask1_1_5198)">
<path d="M410.252 153.582C409.39 183.363 441.181 189.366 464.102 186.456C484.012 183.926 463.87 174.139 458.203 171.598C465.642 160.906 471.679 127.69 465.935 118.925C459.39 108.901 418.371 83.8868 411.39 99.2298C411.412 99.2298 411.113 123.808 410.252 153.582ZM433.487 163.839C435.807 155.791 432.626 138.3 435.807 136.052C436.961 135.24 437.817 132.004 437.817 136.466C437.817 144.353 444.329 163.7 448.118 170.66C449.841 173.824 446.594 176.155 443.456 173.587C437.077 168.351 431.736 169.936 433.487 163.839Z" fill="#C2C2C1"/>
</g>
<path d="M446.118 128.132C448.841 133.406 445.439 139.073 448.946 147.12C453.762 158.166 458.391 186.223 458.391 186.223L400.951 167.815V88.2389L435.464 79.5898C435.464 79.5898 435.962 98.0478 440.225 102.405C444.489 106.763 446.118 128.132 446.118 128.132Z" stroke="#302D30" stroke-linecap="round" stroke-linejoin="round"/>
<path d="M476.838 534.06L406.695 311.481L481.433 196.916C477.302 193.967 472.985 191.286 468.509 188.891C449.322 178.491 427.892 183.948 427.196 178.629C426.5 173.311 425.976 139.653 425.976 139.653H376.467C376.467 139.653 375.915 173.344 375.247 178.629C374.578 183.915 353.121 178.491 333.934 188.891C314.747 199.291 298.924 212.834 294.748 238.135C291.467 258.018 286.077 301.783 286.574 310.835C287.071 319.887 286.872 324.272 286.872 324.272C286.872 324.272 280.985 341.234 280.686 367.352C280.388 393.471 280.885 441.565 280.885 441.565C280.885 441.565 277.693 465.254 277.019 469.391C276.345 473.527 276.98 485.358 277.715 486.689C277.927 487.073 278.236 487.395 278.611 487.622C278.986 487.85 279.414 487.976 279.852 487.987C279.852 487.987 280.957 492.532 282.57 493.907C284.183 495.283 284.901 495.316 284.901 495.316C284.901 495.316 290.042 500.651 295.394 503.992C300.746 507.334 305.424 507.262 305.424 507.262C305.424 507.262 308.859 504.324 305.595 501.474C302.331 498.624 299.52 492.085 298.465 491.654C299.36 485.407 298.636 481.674 298.636 481.674L299.829 473.24C299.829 473.24 304.093 469.645 304.888 469.683C305.684 469.722 306.788 471.771 306.347 474.847C305.905 477.924 304.789 484.662 306.799 488.655C308.81 492.648 311.334 492.063 311.687 488.683C312.041 485.303 314.244 476.819 314.664 472.147C315.084 467.474 314.62 458.162 311.759 453.136C308.898 448.11 303.176 440.146 301.912 435.192C300.647 430.238 299.879 428.299 301.232 416.38C302.585 404.461 308.611 394.84 311.511 381.988C314.41 369.136 316.89 353.268 317.586 342.515C318.282 331.762 323.661 323.819 324.827 309.598C325.992 295.376 327.671 280.419 327.671 280.419C327.671 280.419 333.746 304.058 332.355 324.913C330.963 345.768 327.268 387.368 326.572 391.56C325.876 395.752 325.44 446.238 325.44 446.238C323.424 480.746 322.247 591.456 322.496 610.598C322.745 629.741 326.914 721.269 326.423 748.995C326.108 766.536 328.743 763.852 327.848 771.756L369.674 778.538C370.226 777.356 370.729 773.628 371.132 772.777C375.793 762.963 374.026 742.616 374.761 720.043C375.495 697.471 367.89 620.413 369.856 606.672C371.822 592.93 396.284 474.831 401.211 474.118C406.137 474.836 430.61 592.985 432.565 606.672C434.52 620.358 426.926 697.465 427.66 720.043C428.395 742.621 426.628 762.963 431.295 772.777C431.698 773.628 432.184 777.356 432.747 778.538L474.579 771.756C473.678 763.852 476.313 766.536 475.998 748.995C475.512 721.269 479.682 629.736 479.925 610.598C480.052 601.022 479.815 568.535 479.301 534.137L476.838 534.06Z" fill="#F5B87E"/>
<mask id="mask2_1_5198" style="mask-type:luminance" maskUnits="userSpaceOnUse" x="276" y="139" width="206" height="640">
<path d="M476.838 534.06L406.695 311.481L481.433 196.916C477.302 193.967 472.985 191.286 468.509 188.891C449.322 178.491 427.892 183.948 427.196 178.629C426.501 173.311 425.976 139.653 425.976 139.653H376.467C376.467 139.653 375.915 173.344 375.247 178.629C374.578 183.915 353.121 178.491 333.934 188.891C314.747 199.291 298.924 212.834 294.748 238.135C291.467 258.018 286.077 301.783 286.574 310.835C287.071 319.887 286.872 324.272 286.872 324.272C286.872 324.272 280.985 341.234 280.686 367.352C280.388 393.471 280.885 441.565 280.885 441.565C280.885 441.565 277.693 465.254 277.019 469.391C276.345 473.527 276.98 485.358 277.715 486.689C277.927 487.073 278.236 487.395 278.611 487.622C278.986 487.85 279.414 487.976 279.852 487.987C279.852 487.987 280.957 492.532 282.57 493.907C284.183 495.283 284.901 495.316 284.901 495.316C284.901 495.316 290.043 500.651 295.394 503.992C300.746 507.334 305.424 507.262 305.424 507.262C305.424 507.262 308.86 504.324 305.595 501.474C302.331 498.624 299.52 492.085 298.465 491.654C299.36 485.407 298.636 481.674 298.636 481.674L299.829 473.24C299.829 473.24 304.093 469.645 304.888 469.683C305.684 469.722 306.788 471.771 306.347 474.847C305.905 477.924 304.789 484.662 306.799 488.655C308.81 492.648 311.334 492.063 311.687 488.683C312.041 485.303 314.244 476.819 314.664 472.147C315.084 467.474 314.62 458.162 311.759 453.136C308.898 448.11 303.176 440.146 301.912 435.192C300.647 430.238 299.879 428.299 301.232 416.38C302.585 404.461 308.611 394.84 311.511 381.988C314.41 369.136 316.89 353.268 317.586 342.515C318.282 331.762 323.661 323.819 324.827 309.598C325.992 295.376 327.671 280.419 327.671 280.419C327.671 280.419 333.746 304.058 332.355 324.913C330.963 345.768 327.268 387.368 326.572 391.56C325.876 395.752 325.44 446.238 325.44 446.238C323.424 480.746 322.247 591.456 322.496 610.598C322.745 629.741 326.914 721.269 326.423 748.995C326.108 766.536 328.743 763.852 327.848 771.756L369.674 778.538C370.226 777.356 370.729 773.628 371.132 772.777C375.793 762.963 374.026 742.616 374.761 720.043C375.495 697.471 367.89 620.413 369.856 606.672C371.822 592.93 396.284 474.831 401.211 474.118C406.137 474.836 430.61 592.985 432.565 606.672C434.52 620.358 426.926 697.465 427.66 720.043C428.395 742.621 426.628 762.963 431.295 772.777C431.698 773.628 432.184 777.356 432.747 778.538L474.579 771.756C473.678 763.852 476.313 766.536 475.998 748.995C475.512 721.269 479.682 629.736 479.925 610.598C480.052 601.022 479.815 568.535 479.301 534.137L476.838 534.06Z" fill="white"/>
</mask>
<g mask="url(#mask2_1_5198)">
<path d="M534.195 416.435C533.963 414.016 533.642 413.287 533.272 409.394C530.942 385.153 526.092 347.419 523.629 331.402C517.846 293.735 513.334 263.347 510.578 243.525C508.772 230.529 506.044 210.889 481.372 198.236C469.531 192.161 442.319 178.906 439.06 177.326C436.784 173.51 434.904 169.472 433.449 165.275C433.361 165.032 433.201 164.823 432.991 164.673C432.781 164.524 432.53 164.442 432.273 164.439C432.015 164.435 431.762 164.51 431.548 164.653C431.334 164.797 431.169 165.002 431.074 165.241C425.777 178.64 408.429 180.087 401.205 180.087C393.981 180.087 376.633 178.64 371.336 165.241C371.238 165.004 371.072 164.8 370.859 164.657C370.646 164.514 370.395 164.436 370.138 164.435C369.88 164.44 369.63 164.523 369.42 164.673C369.21 164.823 369.05 165.033 368.961 165.275C367.511 169.474 365.631 173.513 363.35 177.326C360.091 178.911 332.879 192.177 321.038 198.236C296.366 210.867 293.638 230.507 291.832 243.525C289.071 263.347 284.564 293.735 278.781 331.402C276.323 347.419 271.469 385.153 269.138 409.394C268.762 413.287 268.447 414.016 268.215 416.435C266.664 432.309 274.026 437.633 276.5 438.947L277.433 444.636C277.464 444.966 277.622 445.272 277.873 445.488C278.125 445.704 278.45 445.814 278.781 445.796C278.781 445.796 301.669 444.139 309.213 450.645C316.758 457.151 305.529 443.984 305.75 443.73C305.861 443.603 305.946 443.455 305.999 443.295C306.052 443.135 306.073 442.965 306.059 442.797L305.281 437.931C307.606 437.152 311.792 433.612 315.018 419.064C318.05 405.351 325.915 354.765 330.156 318.291C329.742 330.806 328.831 347.563 326.887 367.148C324.048 395.669 305.899 769.922 305.027 788.921C305.011 789.184 305.076 789.445 305.215 789.669C305.353 789.892 305.557 790.068 305.799 790.171C306.04 790.275 306.308 790.301 306.566 790.246C306.823 790.191 307.057 790.059 307.236 789.866C307.302 789.799 314.046 783.393 340.871 785.812C354.055 786.994 359.368 789.716 364.51 792.345C371.176 795.759 378.069 799.288 401.166 799.338V798.067L401.327 799.338H401.487C424.463 799.288 431.355 795.759 438.022 792.345C443.164 789.716 448.482 786.994 461.66 785.812C488.491 783.398 495.229 789.799 495.285 789.855C495.462 790.05 495.695 790.185 495.952 790.242C496.209 790.299 496.478 790.274 496.721 790.172C496.963 790.069 497.168 789.894 497.307 789.67C497.445 789.446 497.511 789.184 497.494 788.921C496.616 769.922 478.473 395.68 475.634 367.148C473.69 347.557 472.778 330.806 472.364 318.291C476.606 354.743 484.471 405.351 487.503 419.064C490.728 433.612 494.915 432.066 497.24 432.872L496.461 442.814C496.448 442.982 496.468 443.151 496.521 443.311C496.574 443.472 496.659 443.62 496.77 443.747C496.991 444.001 486.221 457.555 493.236 451.059C500.25 444.564 523.739 445.812 523.739 445.812C524.071 445.831 524.396 445.721 524.647 445.504C524.899 445.288 525.056 444.983 525.087 444.653L526.021 433.883C528.384 432.546 535.774 432.325 534.195 416.435Z" fill="#E49E5F"/>
</g>
<path d="M476.838 534.06L406.695 311.481L481.433 196.916C477.302 193.967 472.985 191.286 468.509 188.891C449.322 178.491 427.892 183.948 427.196 178.629C426.5 173.311 425.976 139.653 425.976 139.653H376.467C376.467 139.653 375.915 173.344 375.247 178.629C374.578 183.915 353.121 178.491 333.934 188.891C314.747 199.291 298.924 212.834 294.748 238.135C291.467 258.018 286.077 301.783 286.574 310.835C287.071 319.887 286.872 324.272 286.872 324.272C286.872 324.272 280.985 341.234 280.686 367.352C280.388 393.471 280.885 441.565 280.885 441.565C280.885 441.565 277.693 465.254 277.019 469.391C276.345 473.527 276.98 485.358 277.715 486.689C277.927 487.073 278.236 487.395 278.611 487.623C278.986 487.85 279.414 487.976 279.852 487.987C279.852 487.987 280.957 492.532 282.57 493.907C284.183 495.283 284.901 495.316 284.901 495.316C284.901 495.316 290.042 500.651 295.394 503.993C300.746 507.334 305.424 507.262 305.424 507.262C305.424 507.262 308.859 504.324 305.595 501.474C302.331 498.624 299.52 492.085 298.465 491.654C299.36 485.407 298.636 481.674 298.636 481.674L299.829 473.24C299.829 473.24 304.093 469.645 304.888 469.683C305.684 469.722 306.788 471.771 306.347 474.847C305.905 477.924 304.789 484.662 306.799 488.655C308.81 492.648 311.334 492.063 311.687 488.683C312.041 485.303 314.244 476.819 314.664 472.147C315.084 467.474 314.62 458.162 311.759 453.136C308.898 448.11 303.176 440.146 301.912 435.192C300.647 430.238 299.879 428.299 301.232 416.38C302.585 404.461 308.611 394.84 311.511 381.988C314.41 369.136 316.89 353.268 317.586 342.515C318.282 331.762 323.661 323.819 324.827 309.598C325.992 295.376 327.671 280.419 327.671 280.419C327.671 280.419 333.746 304.058 332.355 324.913C330.963 345.768 327.268 387.368 326.572 391.56C325.876 395.752 325.44 446.238 325.44 446.238C323.424 480.746 322.247 591.456 322.496 610.598C322.745 629.741 326.914 721.269 326.423 748.995C326.108 766.536 328.743 763.852 327.848 771.756L369.674 778.538C370.226 777.356 370.729 773.628 371.132 772.777C375.793 762.963 374.026 742.616 374.761 720.043C375.495 697.471 367.89 620.413 369.856 606.672C371.822 592.93 396.284 474.831 401.211 474.118C406.137 474.836 430.61 592.985 432.565 606.672C434.52 620.358 426.926 697.465 427.66 720.043C428.395 742.621 426.628 762.963 431.295 772.777C431.698 773.628 432.184 777.356 432.747 778.538L474.579 771.756C473.678 763.852 476.313 766.536 475.998 748.995C475.512 721.269 479.682 629.736 479.925 610.598C480.052 601.022 479.815 568.535 479.301 534.137L476.838 534.06Z" stroke="#302D30" stroke-linecap="round" stroke-linejoin="round"/>
<path d="M401.205 185.13L429.798 176.53L427.462 145.966H401.205H374.948L372.612 176.53L401.205 185.13Z" fill="#E49E5F" stroke="#302D30" stroke-linecap="round" stroke-linejoin="round"/>
<path d="M361.141 113.866C362.615 109.829 365.99 109.895 366.371 111.033C366.371 111.033 366.807 88.8632 371.701 82.6497C376.594 76.4363 401.205 77.7232 401.205 77.7232C401.205 77.7232 425.821 76.4363 430.709 82.6497C435.597 88.8632 436.039 111.033 436.039 111.033C436.42 109.895 439.794 109.829 441.269 113.866C443.152 119.03 440.949 126.171 436.464 130.783C431.979 135.395 432.095 133.153 432.046 130.363C432.046 130.363 424.893 164.728 401.2 164.728C377.506 164.728 370.353 130.363 370.353 130.363C370.309 133.153 370.425 135.395 365.935 130.783C361.445 126.171 359.257 119.03 361.141 113.866Z" fill="#F5B87E"/>
<mask id="mask3_1_5198" style="mask-type:luminance" maskUnits="userSpaceOnUse" x="360" y="77" width="82" height="88">
<path d="M361.141 113.866C362.615 109.829 365.99 109.895 366.371 111.033C366.371 111.033 366.807 88.8632 371.701 82.6497C376.594 76.4363 401.205 77.7232 401.205 77.7232C401.205 77.7232 425.821 76.4363 430.709 82.6497C435.597 88.8632 436.039 111.033 436.039 111.033C436.42 109.895 439.795 109.829 441.269 113.866C443.153 119.03 440.949 126.171 436.464 130.783C431.979 135.395 432.095 133.153 432.046 130.363C432.046 130.363 424.893 164.728 401.2 164.728C377.506 164.728 370.353 130.363 370.353 130.363C370.309 133.153 370.425 135.395 365.935 130.783C361.445 126.171 359.257 119.03 361.141 113.866Z" fill="white"/>
</mask>
<g mask="url(#mask3_1_5198)">
<path d="M407.209 128.132C404.69 129.198 404.204 131.031 401.205 131.031C398.206 131.031 397.72 129.198 395.201 128.132C395.201 128.132 395.075 134.207 401.205 134.207C407.336 134.207 407.209 128.132 407.209 128.132Z" fill="#E49E5F"/>
<path d="M371.303 113.325C371.038 117.373 372.872 123.819 376.44 129.22C380.008 134.622 379.925 137.754 379.925 140.46C379.925 143.166 376.732 146.806 373.297 139.648C369.862 132.49 369.867 119.599 366.343 116.661C362.82 113.723 362.698 114.767 364.72 113.347C366.741 111.928 371.303 113.325 371.303 113.325Z" fill="#E49E5F"/>
<path d="M431.107 113.325C431.372 117.373 429.544 123.819 425.97 129.22C422.397 134.622 422.485 137.753 422.485 140.46C422.485 143.166 426.688 146.535 430.096 139.399C433.504 132.263 431.549 122.377 435.067 119.439C438.585 116.501 439.673 114.766 437.652 113.325C435.63 111.883 431.107 113.325 431.107 113.325Z" fill="#E49E5F"/>
<path d="M457.153 163.198C455.215 156.664 455.441 145.723 456.226 140.04C457.093 133.705 454.105 104.615 453.978 103.383C453.94 103.046 453.771 102.738 453.508 102.525C453.244 102.312 452.907 102.211 452.569 102.246C452.525 102.246 451.465 102.345 448.107 101.848C446.599 97.1256 444.417 93.508 441.612 91.0778C439.402 77.6126 430.566 61.8057 401.205 61.8057C371.845 61.8057 363.002 77.5961 360.798 91.0778C357.993 93.508 355.828 97.1532 354.303 101.848C350.94 102.345 349.885 102.251 349.885 102.251C349.716 102.228 349.544 102.24 349.38 102.286C349.216 102.331 349.062 102.41 348.929 102.516C348.795 102.621 348.684 102.752 348.601 102.901C348.519 103.05 348.467 103.214 348.449 103.383C348.322 104.615 345.334 133.705 346.206 140.04C346.985 145.723 347.212 156.664 345.273 163.198C343.749 168.345 342.583 187.013 342.512 187.809C342.491 188.114 342.582 188.417 342.767 188.662C342.952 188.906 343.22 189.075 343.52 189.137C343.82 189.2 344.132 189.152 344.4 189.002C344.667 188.852 344.871 188.611 344.975 188.322C345.085 188.024 356.071 158.238 358.865 150.158C360.401 145.706 360.682 137.792 360.931 130.827C361.102 126.033 361.334 119.466 362.118 118.494C362.726 117.754 364.427 115.854 366.581 113.446C372.192 107.183 380.621 97.7773 383.338 93.6019C386.099 91.6799 388.16 90.7023 389.413 90.7023C391.623 90.7023 393.13 92.2709 394.467 93.6572C395.571 94.817 396.56 95.8167 397.875 95.8167C398.264 95.3071 398.765 94.8942 399.34 94.61C399.915 94.3258 400.547 94.178 401.188 94.178C401.83 94.178 402.462 94.3258 403.037 94.61C403.612 94.8942 404.113 95.3071 404.502 95.8167C405.817 95.8167 406.789 94.817 407.91 93.6572C409.247 92.2709 410.765 90.7023 412.964 90.7023C414.228 90.7023 416.277 91.6799 419.039 93.6019C421.751 97.7773 430.179 107.183 435.79 113.446C437.944 115.854 439.657 117.754 440.253 118.494C441.037 119.466 441.269 126.033 441.44 130.833C441.689 137.814 441.993 145.745 443.506 150.164C446.301 158.244 457.286 188.03 457.397 188.328C457.487 188.572 457.649 188.783 457.862 188.932C458.076 189.081 458.329 189.161 458.59 189.162C458.678 189.17 458.766 189.17 458.855 189.162C459.153 189.099 459.418 188.931 459.602 188.689C459.787 188.446 459.878 188.146 459.86 187.842C459.843 187.013 458.678 168.323 457.153 163.198Z" fill="#E49E5F"/>
</g>
<path d="M361.141 113.866C362.615 109.829 365.99 109.895 366.371 111.033C366.371 111.033 366.807 88.8632 371.701 82.6497C376.594 76.4363 401.205 77.7232 401.205 77.7232C401.205 77.7232 425.821 76.4363 430.709 82.6497C435.597 88.8632 436.039 111.033 436.039 111.033C436.42 109.895 439.794 109.829 441.269 113.866C443.152 119.03 440.949 126.171 436.464 130.783C431.979 135.395 432.095 133.153 432.046 130.363C432.046 130.363 424.893 164.728 401.2 164.728C377.506 164.728 370.353 130.363 370.353 130.363C370.309 133.153 370.425 135.395 365.935 130.783C361.445 126.171 359.257 119.03 361.141 113.866Z" stroke="#302D30" stroke-linecap="round" stroke-linejoin="round"/>
<path d="M405.629 144.127H396.974C396.165 144.128 395.389 144.451 394.816 145.023C394.244 145.596 393.922 146.372 393.92 147.181C393.92 147.992 394.242 148.769 394.814 149.343C395.387 149.917 396.164 150.24 396.974 150.241H405.629C406.441 150.241 407.219 149.919 407.793 149.345C408.366 148.771 408.689 147.993 408.689 147.181C408.687 146.371 408.364 145.594 407.791 145.021C407.217 144.449 406.44 144.127 405.629 144.127Z" fill="#E49E5F"/>
<path d="M369.922 122.869C368.188 118.931 366.476 116.362 364.747 115.401" stroke="#302D30" stroke-linecap="round" stroke-linejoin="round"/>
<path d="M432.493 122.869C434.227 118.931 435.939 116.362 437.668 115.401" stroke="#302D30" stroke-linecap="round" stroke-linejoin="round"/>
<path d="M392.202 140.62C392.202 140.62 394.296 141.26 401.227 141.26C408.158 141.26 410.208 140.62 410.208 140.62" stroke="#302D30" stroke-linecap="round" stroke-linejoin="round"/>
<path d="M406.17 128.132C404.088 129.016 403.69 130.529 401.2 130.529C398.709 130.529 398.316 129.016 396.229 128.132" stroke="#302D30" stroke-linecap="round" stroke-linejoin="round"/>
<path d="M395.566 100.544C395.997 103.135 396.831 107.095 396.836 108.945C396.836 111.265 396.218 114.026 395.688 116.589C395.445 117.754 393.97 116.037 392.926 115.484C390.452 114.164 387.955 115.319 383.995 114.407C380.267 113.54 378.03 113.071 377.086 111.06C378.743 104.83 385.685 105.239 380.521 104.134C375.357 103.03 385.249 100.854 388.579 101.45C391.91 102.047 395.566 100.544 395.566 100.544Z" fill="#E49E5F"/>
<path d="M377.08 111.071C379.289 110.469 380.709 106.968 385.486 106.968C391.473 106.968 393.086 111.546 393.086 111.546C393.086 111.546 392.075 112.552 387.64 112.822C383.205 113.093 378.224 111.276 378.224 111.276" fill="white"/>
<path d="M388.402 109.47C388.402 109.965 388.256 110.448 387.981 110.86C387.706 111.271 387.315 111.592 386.858 111.781C386.401 111.971 385.898 112.02 385.412 111.924C384.927 111.827 384.481 111.589 384.131 111.239C383.781 110.889 383.543 110.443 383.447 109.958C383.35 109.473 383.4 108.97 383.589 108.512C383.778 108.055 384.099 107.664 384.511 107.389C384.922 107.115 385.406 106.968 385.9 106.968C386.564 106.968 387.2 107.231 387.67 107.701C388.139 108.17 388.402 108.806 388.402 109.47Z" fill="#373035" stroke="#302D30" stroke-linecap="round" stroke-linejoin="round"/>
<path d="M376.882 110.359C377.903 109.807 378.853 108.42 380.284 107.382C381.016 106.835 381.831 106.408 382.697 106.117C386.939 104.742 392.512 106.703 393.743 111.315C393.767 111.402 393.772 111.494 393.76 111.584C393.747 111.674 393.717 111.76 393.67 111.838C393.624 111.916 393.563 111.985 393.49 112.039C393.417 112.093 393.334 112.132 393.246 112.154C393.089 112.192 392.923 112.175 392.776 112.105C392.629 112.036 392.511 111.919 392.44 111.773C392.06 111.196 391.605 110.672 391.087 110.216C389.787 109.112 388.18 108.434 386.483 108.274C384.786 108.114 383.081 108.48 381.598 109.321C380.996 109.68 380.394 110.122 379.737 110.602C379.129 110.994 376.854 112.679 376.423 111.188C376.395 111.017 376.426 110.843 376.51 110.692C376.595 110.542 376.727 110.424 376.887 110.359H376.882Z" fill="#302D30"/>
<path d="M406.844 100.544C406.413 103.135 405.585 107.095 405.574 108.945C405.574 111.265 406.198 114.026 406.728 116.589C406.966 117.754 408.44 116.037 409.49 115.484C411.964 114.164 414.46 115.319 418.42 114.407C422.154 113.54 424.385 113.071 425.33 111.06C423.673 104.83 416.73 105.239 421.894 104.134C427.058 103.03 417.167 100.854 413.836 101.45C410.506 102.047 406.844 100.544 406.844 100.544Z" fill="#E49E5F"/>
<path d="M425.313 111.071C423.104 110.469 421.684 106.968 416.907 106.968C410.92 106.968 409.307 111.546 409.307 111.546C409.307 111.546 410.318 112.552 414.758 112.822C419.199 113.093 424.148 111.276 424.148 111.276" fill="white"/>
<path d="M416.509 111.972C417.891 111.972 419.011 110.852 419.011 109.47C419.011 108.088 417.891 106.968 416.509 106.968C415.128 106.968 414.007 108.088 414.007 109.47C414.007 110.852 415.128 111.972 416.509 111.972Z" fill="#373035" stroke="#302D30" stroke-linecap="round" stroke-linejoin="round"/>
<path d="M425.136 111.789C423.33 111.425 422.242 110.133 420.823 109.321C419.339 108.48 417.634 108.114 415.936 108.273C414.238 108.432 412.63 109.108 411.329 110.21C410.784 110.695 410.309 111.253 409.915 111.867C409.821 111.995 409.686 112.087 409.532 112.128C409.379 112.169 409.216 112.156 409.071 112.091C408.926 112.027 408.807 111.915 408.735 111.773C408.662 111.632 408.64 111.47 408.672 111.315C409.904 106.703 415.471 104.742 419.718 106.117C420.585 106.408 421.4 106.835 422.132 107.382C423.562 108.42 424.512 109.818 425.534 110.359C425.706 110.426 425.847 110.554 425.93 110.719C426.013 110.884 426.031 111.073 425.983 111.251C425.934 111.429 425.821 111.582 425.666 111.682C425.51 111.781 425.324 111.82 425.142 111.789H425.136Z" fill="#302D30"/>
<path d="M424.761 139.67C419.53 142.36 417.691 145.16 416.476 148.783C415.261 152.406 411.329 153.372 407.855 153.372C404.381 153.372 403.337 150.059 404.458 148.093C405.579 146.126 403.414 145.226 401.144 145.226C398.874 145.226 396.726 146.121 397.858 148.093C398.99 150.064 397.935 153.372 394.461 153.372C390.987 153.372 387.033 152.406 385.84 148.783C384.647 145.16 382.808 142.36 377.583 139.67C372.358 136.98 370.834 130.071 369.851 125.829C370.524 136.284 370.259 150.158 379.405 155.549C386.834 159.923 391.948 163.419 393.213 164.557C394.478 165.694 399.41 166.109 401.128 166.109C402.845 166.109 407.755 165.694 409.042 164.557C410.329 163.419 415.427 159.923 422.85 155.549C431.996 150.158 431.731 136.284 432.405 125.829C431.516 130.071 429.997 136.975 424.761 139.67Z" fill="#423940"/>
<mask id="mask4_1_5198" style="mask-type:luminance" maskUnits="userSpaceOnUse" x="369" y="125" width="64" height="42">
<path d="M424.761 139.67C419.531 142.36 417.691 145.16 416.476 148.783C415.261 152.406 411.329 153.372 407.855 153.372C404.381 153.372 403.337 150.059 404.458 148.093C405.579 146.126 403.414 145.226 401.144 145.226C398.874 145.226 396.726 146.121 397.858 148.093C398.99 150.064 397.935 153.372 394.461 153.372C390.987 153.372 387.033 152.406 385.84 148.783C384.647 145.16 382.808 142.36 377.583 139.67C372.358 136.98 370.834 130.071 369.851 125.829C370.525 136.284 370.259 150.158 379.405 155.549C386.834 159.923 391.948 163.419 393.213 164.557C394.478 165.694 399.41 166.109 401.128 166.109C402.845 166.109 407.755 165.694 409.042 164.557C410.329 163.419 415.427 159.923 422.85 155.549C431.996 150.158 431.731 136.284 432.405 125.829C431.516 130.071 429.997 136.975 424.761 139.67Z" fill="white"/>
</mask>
<g mask="url(#mask4_1_5198)">
<path d="M398.339 145.9C398.034 146.068 397.803 146.343 397.691 146.672C397.579 147.001 397.593 147.36 397.731 147.678C398.138 147.176 398.353 146.546 398.339 145.9Z" fill="#383137"/>
<path d="M404.679 147.678C404.818 147.36 404.833 147 404.721 146.671C404.608 146.342 404.377 146.067 404.071 145.9C404.057 146.546 404.272 147.176 404.679 147.678Z" fill="#383137"/>
<path d="M422.933 152.13C415.504 155.814 410.39 158.758 409.125 159.719C407.86 160.68 402.928 161.022 401.211 161.022C399.493 161.022 394.583 160.674 393.296 159.719C392.009 158.763 386.911 155.814 379.488 152.13C370.342 147.59 370.607 135.909 369.933 127.1C370.607 137.555 370.342 151.401 379.488 156.819C386.917 161.193 392.031 164.689 393.296 165.827C394.561 166.965 399.493 167.379 401.211 167.379C402.928 167.379 407.838 166.965 409.125 165.827C410.412 164.689 415.51 161.193 422.933 156.819C432.079 151.429 431.814 137.555 432.488 127.1C431.814 135.909 432.079 147.59 422.933 152.13Z" fill="#383137"/>
</g>
<path d="M424.761 139.67C419.53 142.36 417.691 145.16 416.476 148.783C415.261 152.406 411.329 153.372 407.855 153.372C404.381 153.372 403.337 150.059 404.458 148.093C405.579 146.126 403.414 145.226 401.144 145.226C398.874 145.226 396.726 146.121 397.858 148.093C398.99 150.064 397.935 153.372 394.461 153.372C390.987 153.372 387.033 152.406 385.84 148.783C384.647 145.16 382.808 142.36 377.583 139.67C372.358 136.98 370.834 130.071 369.851 125.829C370.524 136.284 370.259 150.158 379.405 155.549C386.834 159.923 391.948 163.419 393.213 164.557C394.478 165.694 399.41 166.109 401.128 166.109C402.845 166.109 407.755 165.694 409.042 164.557C410.329 163.419 415.427 159.923 422.85 155.549C431.996 150.158 431.731 136.284 432.405 125.829C431.516 130.071 429.997 136.975 424.761 139.67Z" stroke="#302D30" stroke-linecap="round" stroke-linejoin="round"/>
<path d="M414.234 136.665C412.781 135.941 408.556 134.975 406.076 132.904C403.596 130.833 402.575 131.865 401.205 131.865C399.835 131.865 398.814 130.833 396.334 132.904C393.854 134.975 389.629 135.941 388.176 136.665C386.724 137.388 386.21 143.436 385.083 146.7C385.983 144.773 387.016 140.039 387.977 139.156C389.082 138.134 391.766 137.499 394.605 137.339C397.256 137.212 399.465 137.587 401.188 137.587C402.912 137.587 405.121 137.212 407.772 137.339C410.627 137.477 413.295 138.134 414.4 139.156C415.361 140.039 416.393 144.773 417.294 146.7C416.206 143.436 415.664 137.394 414.234 136.665Z" fill="#423940" stroke="#302D30" stroke-linecap="round" stroke-linejoin="round"/>
<path d="M394.196 103.632C394.889 103.158 395.425 102.489 395.737 101.71C395.737 101.71 394.18 101.71 388.767 101.34C383.52 100.992 380.085 101.169 378.428 102.13C376.909 103.008 373.855 106.454 373.369 107.493C373.369 107.493 376.423 102.699 381.129 102.108C386.099 101.495 393.649 104.063 394.196 103.632Z" fill="#423940"/>
<path d="M393.406 102.637C393.848 102.294 394.215 101.864 394.483 101.373L395.726 103.002C391.562 102.947 387.441 102.494 383.354 102.555C381.975 102.516 380.598 102.703 379.278 103.107C378.052 103.803 376.888 104.603 375.799 105.498C375.007 106.099 374.327 106.833 373.788 107.669L372.982 107.227C374.086 105.542 375.413 104.013 376.926 102.682C381.703 98.7492 388.524 101.538 393.914 102.389C393.732 102.419 393.56 102.497 393.417 102.615L393.406 102.637ZM394.986 104.626C394.743 104.782 394.471 104.886 394.186 104.934C393.901 104.981 393.61 104.97 393.329 104.902C391.672 104.648 389.966 104.217 388.358 103.957C384.835 103.405 381.289 102.726 377.975 104.3C376.29 105.038 374.842 106.229 373.794 107.741C373.728 107.834 373.63 107.899 373.519 107.924C373.407 107.95 373.291 107.933 373.191 107.878C373.091 107.822 373.015 107.732 372.978 107.624C372.94 107.517 372.944 107.399 372.988 107.293C373.457 106.393 374.23 105.393 374.749 104.532C375.326 103.604 375.99 102.733 376.732 101.931C379.582 98.9757 385.912 99.876 389.645 100.025C391.429 100.158 394.064 100.362 395.826 100.406C396.02 100.411 396.21 100.461 396.383 100.551C396.555 100.641 396.704 100.769 396.819 100.926C396.934 101.083 397.012 101.264 397.047 101.455C397.081 101.646 397.072 101.843 397.018 102.03C396.618 103.068 395.923 103.966 395.019 104.615L394.986 104.626Z" fill="#302D30"/>
<path d="M408.192 103.632C407.501 103.157 406.967 102.488 406.656 101.71C406.656 101.71 408.208 101.71 413.621 101.34C418.868 100.992 422.303 101.169 423.96 102.13C425.479 103.008 428.533 106.454 429.019 107.493C429.019 107.493 425.965 102.699 421.259 102.108C416.305 101.495 408.744 104.063 408.192 103.632Z" fill="#423940"/>
<path d="M407.424 104.626C406.319 103.798 404.143 101.351 406.319 100.467C408.181 100.324 410.903 100.208 412.82 100.037C416.559 99.893 422.877 98.9816 425.733 101.942C426.476 102.743 427.14 103.614 427.716 104.543C428.224 105.394 429.008 106.388 429.483 107.305C429.536 107.412 429.546 107.535 429.51 107.649C429.474 107.764 429.396 107.859 429.291 107.917C429.186 107.975 429.063 107.99 428.948 107.959C428.832 107.928 428.733 107.854 428.671 107.752C427.623 106.241 426.175 105.049 424.49 104.311C421.176 102.737 417.63 103.417 414.107 103.969C412.489 104.228 410.754 104.659 409.136 104.913C408.856 104.982 408.564 104.993 408.279 104.945C407.994 104.898 407.722 104.793 407.479 104.637L407.424 104.626ZM409.003 102.638C408.854 102.512 408.672 102.431 408.479 102.406C413.88 101.555 420.674 98.7662 425.462 102.699C426.975 104.03 428.301 105.559 429.406 107.244L428.599 107.686C428.061 106.85 427.381 106.116 426.589 105.515C425.5 104.62 424.336 103.82 423.109 103.124C421.79 102.72 420.413 102.533 419.033 102.572C414.935 102.511 410.832 102.964 406.662 103.019L407.904 101.39C408.173 101.88 408.54 102.311 408.981 102.654L409.003 102.638Z" fill="#302D30"/>
<path d="M366.371 101.196V111.033C366.371 111.033 369.922 115.683 369.922 125.266C369.922 102.765 370.513 104.085 374.054 98.2026C378.842 90.2549 380.278 83.9033 380.278 83.9033L366.371 101.196Z" fill="#383137" stroke="#302D30" stroke-linecap="round" stroke-linejoin="round"/>
<path d="M436.039 101.196V111.033C436.039 111.033 432.488 115.683 432.488 125.266C432.488 102.765 431.897 104.085 428.356 98.2026C423.573 90.2549 422.132 83.9033 422.132 83.9033L436.039 101.196Z" fill="#383137" stroke="#302D30" stroke-linecap="round" stroke-linejoin="round"/>
<path d="M474.286 373.626C469.906 329.535 470.751 287.466 470.751 287.466C470.492 271.113 481.135 244.591 488.033 224.354C490.822 216.12 492.948 207.676 494.39 199.103C472.944 189.438 432.261 173.471 432.488 173.564L428.34 157.448C423.457 169.798 412.583 172.46 401.205 172.46C389.828 172.46 378.953 169.798 374.07 157.448L369.922 173.564C370.149 173.471 330.786 188.957 309.346 198.623C302.79 201.577 298.3 216.799 294.732 238.129C289.717 267.898 268.95 449.805 268.95 449.805L315.2 451.893L331.659 287.466C331.659 287.466 332.504 329.513 328.124 373.626C325.241 402.622 324.992 402.583 306.269 782.625C306.269 782.625 312.836 775.66 340.932 778.206C371.386 780.968 360.445 791.644 400.995 791.727H401.415C441.965 791.644 431.024 780.94 461.478 778.206C489.574 775.677 496.141 782.625 496.141 782.625C477.418 402.583 477.169 402.622 474.286 373.626Z" fill="white"/>
<mask id="mask5_1_5198" style="mask-type:luminance" maskUnits="userSpaceOnUse" x="268" y="157" width="229" height="635">
<path d="M474.286 373.626C469.906 329.535 470.751 287.466 470.751 287.466C470.492 271.113 481.135 244.591 488.033 224.354C490.822 216.12 492.948 207.676 494.39 199.103C472.944 189.438 432.261 173.471 432.488 173.564L428.34 157.448C423.457 169.798 412.583 172.46 401.205 172.46C389.828 172.46 378.953 169.798 374.07 157.448L369.922 173.564C370.149 173.471 330.786 188.957 309.346 198.623C302.79 201.577 298.3 216.799 294.732 238.129C289.717 267.898 268.95 449.805 268.95 449.805L315.2 451.893L331.659 287.466C331.659 287.466 332.504 329.513 328.124 373.626C325.241 402.622 324.992 402.583 306.269 782.625C306.269 782.625 312.836 775.66 340.932 778.206C371.386 780.968 360.445 791.644 400.995 791.727H401.415C441.965 791.644 431.024 780.94 461.478 778.206C489.574 775.677 496.141 782.625 496.141 782.625C477.418 402.583 477.169 402.622 474.286 373.626Z" fill="white"/>
</mask>
<g mask="url(#mask5_1_5198)">
<path d="M280.648 468.96C280.648 468.96 300.415 472.782 304.176 457.748C307.937 442.714 327.743 292.266 326.241 271.588C324.738 250.909 323.987 241.029 326.346 252.71C329.61 268.904 343.158 312.939 340.153 324.592C337.149 336.246 324.689 449.546 316.316 579.758L293.588 467.557C293.588 467.557 300.216 466.662 294.56 463.652C288.905 460.642 280.648 468.96 280.648 468.96Z" fill="#DFDEDE"/>
<path d="M366.841 169.212C370.359 173.079 379.754 186.726 392.368 188.388C390.501 205.245 392.368 205.781 392.368 205.781C392.368 205.781 389.866 195.773 378.295 189.156C366.725 182.539 366.841 169.212 366.841 169.212Z" fill="#DFDEDE"/>
<path d="M410.042 170.157H392.368V349.297H401.205H410.042V188.388" fill="white"/>
<path d="M410.042 170.157H392.368V349.297H401.205H410.042V188.388" stroke="#302E30" stroke-linecap="round" stroke-linejoin="round"/>
<path d="M448.471 179.955C432.918 179.739 410.854 188.388 410.854 188.388C410.854 188.388 432.488 184.069 432.256 168.925C432.106 159.376 439.839 157.515 441.645 164.844C443.451 172.173 448.471 179.955 448.471 179.955Z" fill="#DFDEDE"/>
<path d="M419.873 296.867C426.302 296.867 433.808 300.733 442.639 301.987C451.47 303.24 462.566 305.439 463.798 293.597C465.029 281.756 460.655 244.829 460.655 244.829L419.873 296.867Z" fill="#DFDEDE"/>
<path d="M498.217 457.731C494.462 442.692 474.651 292.249 476.125 271.571C477.6 250.893 478.379 241.012 476.02 252.693C472.756 268.887 459.346 312.895 462.213 324.576C463.831 331.176 451.421 359.46 444.782 364.8C438.143 370.141 387.778 387.887 395.571 388.754C403.364 389.621 420.718 388.787 421.696 389.654C422.673 390.521 420.536 394.669 426.744 393.951C432.952 393.233 464.262 402.749 470.177 426.272C476.092 449.795 486.05 579.758 486.05 579.758L508.623 468.335C504.138 466.988 499.803 464.005 498.217 457.731Z" fill="#DFDEDE"/>
<path d="M377.936 356.659C378.594 362.801 384.222 372.035 388.839 380.116C393.456 388.196 391.374 391.952 398.04 392.819C404.707 393.686 418.857 389.648 429.389 396.862C439.922 404.075 449.449 404.511 458.54 409.852C467.631 415.193 475.357 415.927 478.064 406.383C480.77 396.839 482.427 394.934 476.545 380.817C470.663 366.7 484.371 354.577 457.386 352.705C430.4 350.832 377.936 356.659 377.936 356.659Z" fill="#DFDEDE"/>
</g>
<path d="M474.286 373.626C469.906 329.535 470.751 287.466 470.751 287.466C470.492 271.113 481.135 244.591 488.033 224.354C490.822 216.12 492.948 207.676 494.39 199.103C472.944 189.438 432.261 173.471 432.488 173.564L428.34 157.448C423.457 169.798 412.583 172.46 401.205 172.46C389.828 172.46 378.953 169.798 374.07 157.448L369.922 173.564C370.149 173.471 330.786 188.957 309.346 198.623C302.79 201.577 298.3 216.799 294.732 238.129C289.717 267.898 268.95 449.805 268.95 449.805L315.2 451.893L331.659 287.466C331.659 287.466 332.504 329.513 328.124 373.626C325.241 402.622 324.992 402.583 306.269 782.625C306.269 782.625 312.836 775.66 340.932 778.206C371.386 780.968 360.445 791.644 400.995 791.727H401.415C441.965 791.644 431.024 780.94 461.478 778.206C489.574 775.677 496.141 782.625 496.141 782.625C477.418 402.583 477.169 402.622 474.286 373.626Z" stroke="#302D30" stroke-linecap="round" stroke-linejoin="round"/>
<path d="M392.368 188.389C381.283 186.594 375.324 181.612 369.922 173.587" stroke="#302D30" stroke-linecap="round" stroke-linejoin="round"/>
<path d="M410.042 188.389C421.127 186.594 427.086 181.612 432.488 173.587" stroke="#302D30" stroke-linecap="round" stroke-linejoin="round"/>
<path d="M331.659 287.489C332.095 260.288 308.208 199.479 308.208 199.479" stroke="#302D30" stroke-linecap="round" stroke-linejoin="round"/>
<path d="M410.042 188.389H392.368" stroke="#302D30" stroke-linecap="round" stroke-linejoin="round"/>
<path d="M440.435 87.9354C438.778 77.2704 432.029 59.2764 401.222 59.2764C370.414 59.2764 363.626 77.2704 362.008 87.9354C356.203 92.6521 354.502 101.82 354.093 104.792H358.103C361.351 103.858 365.902 102.157 369.475 99.3019C375.733 94.3312 384.94 85.5992 389.463 85.5992C393.986 85.5992 395.964 90.7191 397.93 90.7191C399.896 90.7191 401.244 88.2116 401.244 88.2116C401.244 88.2116 402.591 90.7191 404.557 90.7191C406.524 90.7191 408.479 85.5992 413.019 85.5992C417.559 85.5992 426.749 94.3091 433.007 99.3019C436.586 102.157 441.131 103.858 444.379 104.792H448.388C447.958 101.82 446.24 92.6576 440.435 87.9354Z" fill="white"/>
<mask id="mask6_1_5198" style="mask-type:luminance" maskUnits="userSpaceOnUse" x="354" y="59" width="95" height="46">
<path d="M440.435 87.9354C438.778 77.2704 432.029 59.2764 401.222 59.2764C370.414 59.2764 363.626 77.2704 362.008 87.9354C356.203 92.6521 354.502 101.82 354.093 104.792H358.103C361.351 103.858 365.902 102.157 369.475 99.3019C375.733 94.3312 384.94 85.5992 389.463 85.5992C393.986 85.5992 395.964 90.7191 397.93 90.7191C399.896 90.7191 401.244 88.2116 401.244 88.2116C401.244 88.2116 402.591 90.7191 404.557 90.7191C406.524 90.7191 408.479 85.5992 413.019 85.5992C417.559 85.5992 426.749 94.3091 433.007 99.3019C436.586 102.157 441.131 103.858 444.379 104.792H448.388C447.958 101.82 446.24 92.6576 440.435 87.9354Z" fill="white"/>
</mask>
<g mask="url(#mask6_1_5198)">
<path d="M387.999 86.2012C388.9 85.8311 389.43 85.5991 389.43 85.5991C388.9 85.809 388.436 86.03 387.999 86.2012Z" fill="#DFDEDE"/>
<path d="M414.411 86.2012C413.974 86.0079 413.51 85.809 412.98 85.5991C412.98 85.5991 413.51 85.8311 414.411 86.2012Z" fill="#DFDEDE"/>
<path d="M446.593 102.434C446.593 102.434 446.196 93.7404 441.993 87.9853C442.037 83.8486 439.811 82.0149 438.127 80.6175C436.442 79.2202 426.385 72.0513 401.227 72.0513C376.07 72.0513 366.073 79.1871 364.328 80.6175C362.582 82.048 360.395 83.8486 360.461 87.9853C356.258 93.7404 355.861 102.434 355.861 102.434C355.861 102.434 368.282 96.0545 376.39 92.8346C383.807 89.8908 383.377 88.3057 388.044 86.2069C382.846 88.3664 365.068 95.4967 363.14 92.9948C362.983 92.7515 362.886 92.4749 362.855 92.1872C362.825 91.8995 362.862 91.6087 362.963 91.3379C368.045 87.2453 378.732 83.1527 392.628 81.91C393.969 81.797 395.317 82.0254 396.547 82.5739C397.776 83.1225 398.847 83.9732 399.659 85.047C400.388 86.008 401.001 86.7039 401.249 86.7039C401.498 86.7039 402.111 86.008 402.845 85.047C403.657 83.9725 404.727 83.1211 405.957 82.5724C407.186 82.0238 408.535 81.7959 409.876 81.91C423.772 83.1527 434.454 87.2453 439.535 91.3379C439.637 91.6087 439.674 91.8995 439.643 92.1872C439.612 92.4749 439.515 92.7515 439.358 92.9948C437.431 95.4967 419.652 88.3664 414.455 86.2069C419.122 88.3112 418.691 89.8963 426.108 92.8346C434.15 96.0545 446.593 102.434 446.593 102.434Z" fill="#DFDEDE"/>
</g>
<path d="M440.435 87.9354C438.778 77.2704 432.029 59.2764 401.222 59.2764C370.414 59.2764 363.626 77.2704 362.008 87.9354C356.203 92.6521 354.502 101.82 354.093 104.792H358.103C361.351 103.858 365.902 102.157 369.475 99.3019C375.733 94.3312 384.94 85.5992 389.463 85.5992C393.986 85.5992 395.964 90.7191 397.93 90.7191C399.896 90.7191 401.244 88.2116 401.244 88.2116C401.244 88.2116 402.591 90.7191 404.557 90.7191C406.524 90.7191 408.479 85.5992 413.019 85.5992C417.559 85.5992 426.749 94.3091 433.007 99.3019C436.586 102.157 441.131 103.858 444.379 104.792H448.388C447.958 101.82 446.24 92.6576 440.435 87.9354Z" stroke="#302D30" stroke-linecap="round" stroke-linejoin="round"/>
<path d="M382.41 88.8633C378.025 93.2817 366.007 97.1479 358.771 98.5563C351.536 99.9646 349.697 99.6996 349.697 99.6996C349.697 99.6996 346.588 129.795 347.449 136.052C348.311 142.31 348.416 153.218 346.477 159.746C344.975 164.816 343.787 184.048 343.787 184.048C343.787 184.048 354.833 154.068 357.672 145.905C360.511 137.742 358.932 116.567 361.141 113.872C363.35 111.176 378.947 94.3863 382.41 88.8633Z" fill="white"/>
<mask id="mask7_1_5198" style="mask-type:luminance" maskUnits="userSpaceOnUse" x="343" y="88" width="40" height="97">
<path d="M382.41 88.8633C378.025 93.2817 366.007 97.1479 358.771 98.5563C351.536 99.9646 349.697 99.6996 349.697 99.6996C349.697 99.6996 346.588 129.795 347.449 136.052C348.311 142.31 348.416 153.218 346.477 159.746C344.975 164.816 343.787 184.048 343.787 184.048C343.787 184.048 354.834 154.068 357.672 145.905C360.511 137.742 358.932 116.567 361.141 113.872C363.35 111.176 378.947 94.3863 382.41 88.8633Z" fill="white"/>
</mask>
<g mask="url(#mask7_1_5198)">
<path d="M359.534 130.529C358.528 142.382 351.371 154.118 345.952 158.194C340.534 162.27 325.313 175.575 336.508 180.988C347.703 186.4 357.496 192.78 360.467 173.587C363.438 154.394 359.534 130.529 359.534 130.529Z" fill="#DFDEDE"/>
</g>
<path d="M382.41 88.8633C378.025 93.2817 366.007 97.1479 358.771 98.5563C351.536 99.9646 349.697 99.6996 349.697 99.6996C349.697 99.6996 346.588 129.795 347.449 136.052C348.311 142.31 348.416 153.218 346.477 159.746C344.975 164.816 343.787 184.048 343.787 184.048C343.787 184.048 354.833 154.068 357.672 145.905C360.511 137.742 358.932 116.567 361.141 113.872C363.35 111.176 378.947 94.3863 382.41 88.8633Z" stroke="#302D30" stroke-linecap="round" stroke-linejoin="round"/>
<path d="M420 88.8633C424.385 93.2817 436.403 97.1479 443.639 98.5563C450.874 99.9646 452.713 99.6996 452.713 99.6996C452.713 99.6996 455.822 129.795 454.961 136.052C454.099 142.31 454 153.218 455.933 159.746C457.435 164.816 458.628 184.048 458.628 184.048C458.628 184.048 447.582 154.068 444.743 145.905C441.904 137.742 443.478 116.567 441.269 113.872C439.06 111.176 423.463 94.3863 420 88.8633Z" fill="white"/>
<mask id="mask8_1_5198" style="mask-type:luminance" maskUnits="userSpaceOnUse" x="420" y="88" width="39" height="97">
<path d="M420 88.8633C424.385 93.2817 436.403 97.1479 443.639 98.5563C450.874 99.9646 452.713 99.6996 452.713 99.6996C452.713 99.6996 455.822 129.795 454.961 136.052C454.099 142.31 454 153.218 455.933 159.746C457.435 164.816 458.628 184.048 458.628 184.048C458.628 184.048 447.582 154.068 444.743 145.905C441.904 137.742 443.478 116.567 441.269 113.872C439.06 111.176 423.463 94.3863 420 88.8633Z" fill="white"/>
</mask>
<g mask="url(#mask8_1_5198)">
<path d="M442.782 130.529C443.793 142.382 450.946 154.118 456.369 158.194C461.793 162.27 477.003 175.575 465.814 180.988C454.624 186.4 444.826 192.78 441.855 173.587C438.883 154.394 442.782 130.529 442.782 130.529Z" fill="#DFDEDE"/>
</g>
<path d="M420 88.8633C424.385 93.2817 436.403 97.1479 443.639 98.5563C450.874 99.9646 452.713 99.6996 452.713 99.6996C452.713 99.6996 455.822 129.795 454.961 136.052C454.099 142.31 454 153.218 455.933 159.746C457.435 164.816 458.628 184.048 458.628 184.048C458.628 184.048 447.582 154.068 444.743 145.905C441.904 137.742 443.478 116.567 441.269 113.872C439.06 111.176 423.463 94.3863 420 88.8633Z" stroke="#302D30" stroke-linecap="round" stroke-linejoin="round"/>
<path d="M401.205 64.0757C370.049 64.0757 363.648 74.3485 364.421 79.3579L401.205 74.6137L437.988 79.3579C438.773 74.3485 432.361 64.0757 401.205 64.0757Z" fill="#423940" stroke="#302D30" stroke-linecap="round" stroke-linejoin="round"/>
<path d="M437.298 79.0595C435.183 77.3252 425.269 70.7749 401.205 70.7749C377.141 70.7749 367.227 77.3197 365.112 79.0595C362.997 80.7992 360.876 82.6329 361.98 87.9295C368.183 82.8373 382.532 77.7229 401.194 77.7229C419.856 77.7229 434.216 82.8373 440.408 87.9295C441.534 82.6329 439.419 80.7882 437.298 79.0595Z" fill="#423940"/>
<mask id="mask9_1_5198" style="mask-type:luminance" maskUnits="userSpaceOnUse" x="361" y="70" width="80" height="18">
<path d="M437.298 79.0595C435.183 77.3252 425.269 70.7749 401.205 70.7749C377.141 70.7749 367.227 77.3197 365.112 79.0595C362.997 80.7992 360.876 82.6329 361.98 87.9295C368.183 82.8373 382.532 77.7229 401.194 77.7229C419.856 77.7229 434.216 82.8373 440.408 87.9295C441.534 82.6329 439.419 80.7882 437.298 79.0595Z" fill="white"/>
</mask>
<g mask="url(#mask9_1_5198)">
<path d="M440.435 83.9309C434.227 78.8331 419.878 73.7188 401.221 73.7188C382.565 73.7188 368.199 78.8331 362.008 83.9309C361.969 83.7541 361.947 83.5885 361.914 83.4228C361.608 84.9132 361.64 86.4532 362.008 87.9296C368.21 82.8373 382.559 77.723 401.221 77.723C419.884 77.723 434.244 82.8373 440.435 87.9296C440.799 86.4525 440.829 84.913 440.524 83.4228C440.496 83.5885 440.468 83.7541 440.435 83.9309Z" fill="#383137"/>
</g>
<path d="M437.298 79.0595C435.183 77.3252 425.269 70.7749 401.205 70.7749C377.141 70.7749 367.227 77.3197 365.112 79.0595C362.997 80.7992 360.876 82.6329 361.98 87.9295C368.183 82.8373 382.532 77.7229 401.194 77.7229C419.856 77.7229 434.216 82.8373 440.408 87.9295C441.534 82.6329 439.419 80.7882 437.298 79.0595Z" stroke="#302D30" stroke-linecap="round" stroke-linejoin="round"/>
<path d="M459.965 244.817H419.183V296.856H459.965V244.817Z" fill="white"/>
<mask id="mask10_1_5198" style="mask-type:luminance" maskUnits="userSpaceOnUse" x="419" y="244" width="41" height="53">
<path d="M459.965 244.817H419.182V296.856H459.965V244.817Z" fill="white"/>
</mask>
<g mask="url(#mask10_1_5198)">
<path d="M414.637 259.327H461.914C461.914 259.327 426.666 263 422.701 269.169C418.735 275.338 416.31 283.926 416.31 283.926L414.637 259.327Z" fill="#DFDEDE"/>
</g>
<path d="M459.965 244.817H419.183V296.856H459.965V244.817Z" stroke="#302D30" stroke-linecap="round" stroke-linejoin="round"/>
<path d="M419.183 259.327H459.959" stroke="#302D30" stroke-linecap="round" stroke-linejoin="round"/>
<path d="M459.959 247.314H461.914V252.71H459.959" stroke="#302D30" stroke-linecap="round" stroke-linejoin="round"/>
<path d="M475.667 364.955L395.798 387.495L360.66 263.491L440.612 240.835L475.667 364.955Z" fill="#F58969"/>
<mask id="mask11_1_5198" style="mask-type:luminance" maskUnits="userSpaceOnUse" x="360" y="240" width="116" height="148">
<path d="M475.672 364.955L395.804 387.5L360.66 263.491L440.612 240.835L475.672 364.955Z" fill="white"/>
</mask>
<g mask="url(#mask11_1_5198)">
<path d="M372.496 348.568C385.923 356.654 414.201 354.241 429.798 362.238C445.395 370.235 442.07 383.397 429.798 380.044C417.526 376.692 409.528 373.853 399.465 375.399C389.402 376.946 383.581 375.283 381.35 368.319C379.118 361.354 372.496 348.568 372.496 348.568Z" fill="#E8734F"/>
</g>
<path d="M475.667 364.955L395.798 387.495L360.66 263.491L440.612 240.835L475.667 364.955Z" stroke="#302D30" stroke-linecap="round" stroke-linejoin="round"/>
<path d="M437.028 297.027L393.125 309.448L385.923 284.026L429.881 271.571L437.028 297.027Z" fill="white" stroke="#302D30" stroke-linecap="round" stroke-linejoin="round"/>
<path d="M427.76 291.311L398.04 299.722" stroke="#302D30" stroke-linecap="round" stroke-linejoin="round"/>
<path d="M426.362 286.307L396.626 294.729" stroke="#302D30" stroke-linecap="round" stroke-linejoin="round"/>
<path d="M395.212 289.737L424.965 281.309" stroke="#302D30" stroke-linecap="round" stroke-linejoin="round"/>
<path d="M436.939 337.848C430.251 337.566 426.738 336.937 423.585 334.866C420.431 332.794 414.024 325.344 409.733 322.163C405.441 318.981 403.591 317.904 399.184 317.794C394.776 317.683 386.077 317.004 381.51 315.126C376.942 313.248 374.501 313.674 374.567 316.087C374.634 318.501 375.937 324.051 383.598 325.681C387.602 326.531 396.726 326.647 396.726 326.647C393.459 327.331 390.117 327.582 386.784 327.393C381.366 327.067 380.129 325.89 376.633 327.183C373.137 328.475 372.082 333.811 376.666 335.871C374.871 339.074 376.749 342.94 377.925 343.669C375.871 345.033 377.268 349.319 380.008 351.628C377.246 353.539 378.014 357.284 382.012 360.94C386.011 364.596 392.622 368.346 398.084 368.308C403.547 368.269 414.03 366.286 420.072 365.27C426.114 364.254 438.922 364.165 438.922 364.165L436.939 337.848Z" fill="#F5B87E"/>
<mask id="mask12_1_5198" style="mask-type:luminance" maskUnits="userSpaceOnUse" x="373" y="313" width="66" height="56">
<path d="M436.939 337.848C430.251 337.566 426.738 336.937 423.585 334.866C420.431 332.794 414.024 325.344 409.733 322.163C405.441 318.981 403.591 317.904 399.184 317.794C394.776 317.683 386.077 317.004 381.51 315.126C376.942 313.248 374.501 313.674 374.567 316.087C374.634 318.501 375.937 324.051 383.598 325.681C387.602 326.531 396.726 326.647 396.726 326.647C393.459 327.331 390.117 327.582 386.784 327.393C381.366 327.067 380.129 325.89 376.633 327.183C373.137 328.475 372.082 333.811 376.666 335.871C374.871 339.074 376.749 342.94 377.925 343.669C375.871 345.033 377.268 349.319 380.008 351.628C377.246 353.539 378.014 357.284 382.013 360.94C386.011 364.596 392.622 368.346 398.085 368.308C403.547 368.269 414.03 366.286 420.072 365.27C426.114 364.254 438.922 364.165 438.922 364.165L436.939 337.848Z" fill="white"/>
</mask>
<g mask="url(#mask12_1_5198)">
<path d="M421.745 331.193C421.309 341.582 418.984 357.599 413.516 360.194C408.048 362.79 396.201 364.381 388.552 360.194C380.902 356.008 375.423 351.971 373.639 354.716C371.855 357.461 382.946 374.919 399.25 376.648C415.554 378.376 425.805 380.398 430.853 370.572C435.901 360.747 421.745 331.193 421.745 331.193Z" fill="#E49E5F"/>
</g>
<path d="M436.939 337.848C430.251 337.566 426.738 336.937 423.585 334.866C420.431 332.794 414.024 325.344 409.733 322.163C405.441 318.981 403.591 317.904 399.184 317.794C394.776 317.683 386.077 317.004 381.51 315.126C376.942 313.248 374.501 313.674 374.567 316.087C374.634 318.501 375.937 324.051 383.598 325.681C387.602 326.531 396.726 326.647 396.726 326.647C393.459 327.331 390.117 327.582 386.784 327.393C381.366 327.067 380.129 325.89 376.633 327.183C373.137 328.475 372.082 333.811 376.666 335.871C374.871 339.074 376.749 342.94 377.925 343.669C375.871 345.033 377.268 349.319 380.008 351.628C377.246 353.539 378.014 357.284 382.012 360.94C386.011 364.596 392.622 368.346 398.084 368.308C403.547 368.269 414.03 366.286 420.072 365.27C426.114 364.254 438.922 364.165 438.922 364.165L436.939 337.848Z" stroke="#302D30" stroke-linecap="round" stroke-linejoin="round"/>
<path d="M377.042 334.661C379.627 335.484 382.184 336.318 384.443 337.914C385.315 339.079 380.61 338.124 380.212 338.058C378.894 337.818 377.591 337.497 376.313 337.097C375.99 337 375.718 336.779 375.558 336.482C375.398 336.185 375.363 335.837 375.459 335.514C375.556 335.191 375.777 334.92 376.074 334.76C376.37 334.6 376.719 334.564 377.042 334.661Z" fill="#302D30"/>
<path d="M378.671 342.647C380.958 344.337 383.211 346.005 384.929 348.347C384.961 348.397 384.977 348.455 384.975 348.514C384.974 348.573 384.954 348.63 384.92 348.678C384.885 348.725 384.837 348.762 384.781 348.782C384.726 348.801 384.665 348.804 384.608 348.789C382.482 348.181 380.742 347.016 378.925 345.906C377.97 345.205 375.948 344.404 376.931 342.94C377.128 342.676 377.418 342.499 377.742 342.444C378.066 342.39 378.399 342.463 378.671 342.647Z" fill="#302D30"/>
<path d="M380.841 350.673C382.813 352.401 384.757 354.119 386.099 356.444C386.42 357.842 382.609 355.185 382.278 354.964C381.203 354.244 380.173 353.458 379.196 352.611C378.939 352.391 378.779 352.079 378.753 351.741C378.727 351.404 378.835 351.07 379.055 350.813C379.275 350.556 379.587 350.397 379.924 350.371C380.262 350.344 380.595 350.453 380.853 350.673H380.841Z" fill="#302D30"/>
<path d="M494.39 199.125C499.051 201.125 502.967 217.854 512.064 259.327C521.635 302.898 529.428 335.882 524.54 351.639C523.48 355.052 519.956 360.691 512.075 363.481C480.803 374.554 423.584 389.671 423.584 389.671L421.729 332.43L479.478 324.201C479.478 324.201 473.783 297.347 470.735 287.489C469.47 276.387 475.153 250.998 482.792 227.332C490.22 204.417 494.39 199.125 494.39 199.125Z" fill="white"/>
<mask id="mask13_1_5198" style="mask-type:luminance" maskUnits="userSpaceOnUse" x="421" y="199" width="106" height="191">
<path d="M494.39 199.125C499.051 201.125 502.967 217.854 512.064 259.327C521.635 302.898 529.428 335.882 524.54 351.639C523.48 355.052 519.956 360.691 512.075 363.481C480.803 374.554 423.585 389.671 423.585 389.671L421.729 332.43L479.478 324.201C479.478 324.201 473.783 297.347 470.735 287.489C469.47 276.387 475.153 250.998 482.792 227.332C490.22 204.417 494.39 199.125 494.39 199.125Z" fill="white"/>
</mask>
<g mask="url(#mask13_1_5198)">
<path d="M473.413 244.818C473.264 251.28 474.86 286.578 477.28 294.735C479.699 302.893 476.02 311.917 493.473 316.562C510.926 321.207 519.431 330.155 512.478 330.199C505.524 330.243 503.553 331.127 505.508 335.882C507.463 340.637 509.374 348.69 500.863 341.145C492.352 333.601 476.893 330.828 461.903 329.834C446.914 328.84 454.64 324.913 459.948 311.144C465.256 297.375 473.413 244.818 473.413 244.818Z" fill="#DFDEDE"/>
<path d="M522.944 311.21C524.601 321.759 527.71 343.918 517.647 350.369C507.584 356.82 457.761 375.223 444.484 373.759C431.206 372.295 424.082 365.392 422.612 359.173C421.143 352.954 418.686 349.585 416.797 365.844C414.908 382.104 417.813 392.714 429.798 394.123C441.783 395.531 471.099 398.624 499.151 384.949C527.202 371.274 532.101 375.913 534.167 359.399C536.233 342.885 522.944 311.21 522.944 311.21Z" fill="#DFDEDE"/>
</g>
<path d="M494.39 199.125C499.051 201.125 502.967 217.854 512.064 259.327C521.635 302.898 529.428 335.882 524.54 351.639C523.48 355.052 519.956 360.691 512.075 363.481C480.803 374.554 423.584 389.671 423.584 389.671L421.729 332.43L479.478 324.201C479.478 324.201 473.783 297.347 470.735 287.489C469.47 276.387 475.153 250.998 482.792 227.332C490.22 204.417 494.39 199.125 494.39 199.125Z" stroke="#302D30" stroke-linecap="round" stroke-linejoin="round"/>
<path d="M479.323 323.024C492.645 320.456 508.54 319.848 519.089 329.85C519.161 329.929 519.203 330.031 519.206 330.138C519.21 330.245 519.175 330.349 519.109 330.432C519.042 330.516 518.948 330.572 518.843 330.592C518.738 330.612 518.629 330.594 518.537 330.541C515.787 328.624 512.775 327.114 509.595 326.056C503.227 323.941 496.456 323.808 489.8 324.327C486.442 324.593 483.073 325.001 479.676 325.377C479.364 325.422 479.047 325.342 478.794 325.153C478.542 324.965 478.374 324.684 478.329 324.372C478.283 324.06 478.364 323.742 478.552 323.49C478.741 323.237 479.022 323.069 479.334 323.024H479.323Z" fill="#302D30"/>
<path d="M479.572 323.013C491.264 323.212 503.26 329.237 507.872 340.433C507.926 340.537 507.937 340.658 507.901 340.77C507.866 340.882 507.788 340.975 507.684 341.029C507.58 341.083 507.459 341.094 507.347 341.059C507.235 341.023 507.142 340.945 507.087 340.841C502.64 333.804 495.617 328.785 487.519 326.857C484.848 326.174 482.131 325.683 479.389 325.388C479.088 325.347 478.813 325.192 478.622 324.955C478.431 324.719 478.337 324.418 478.36 324.114C478.384 323.811 478.522 323.528 478.747 323.323C478.972 323.118 479.267 323.007 479.572 323.013Z" fill="#302D30"/>
</g>
<path d="M481.204 378.695H52.1299C46.3279 378.695 40.526 378.599 34.7348 378.695H33.9748C33.6199 378.695 33.2796 378.836 33.0286 379.087C32.7777 379.338 32.6367 379.678 32.6367 380.033C32.6367 380.388 32.7777 380.728 33.0286 380.979C33.2796 381.23 33.6199 381.371 33.9748 381.371H463.006C468.808 381.371 474.61 381.468 480.401 381.371H481.204C481.558 381.371 481.899 381.23 482.15 380.979C482.401 380.728 482.542 380.388 482.542 380.033C482.542 379.678 482.401 379.338 482.15 379.087C481.899 378.836 481.558 378.695 481.204 378.695Z" fill="#161522"/>
</g>
<defs>
<clipPath id="clip0_1_5198">
<rect width="534" height="382" fill="white"/>
</clipPath>
<clipPath id="clip1_1_5198">
<rect width="266.41" height="759" fill="white" transform="translate(268 59)"/>
</clipPath>
</defs>
</svg>
