<svg width="534" height="382" viewBox="0 0 534 382" fill="none" xmlns="http://www.w3.org/2000/svg">
<g clip-path="url(#clip0_1_5427)">
<path d="M84.3294 379.297C84.3294 379.297 4.30018 361.79 0.218217 300.167C-4.47604 229.178 68.251 248.298 56.2432 197.391C42.58 139.382 69.8498 89.2132 120.874 84.9867C171.899 80.7601 214.816 122.501 245.601 73.9826C272.814 31.1665 340.949 3.74379 395.863 28.1904C465.37 59.1145 435.628 137.444 473.363 154.938C511.099 172.432 539.639 217.461 533.051 281.235C526.883 341.132 484.827 380.51 438.417 379.897C415.672 379.609 327.399 380.235 248.073 379.897C165.504 379.597 84.3294 379.297 84.3294 379.297Z" fill="#DEE3FF"/>
<path d="M408.88 189.059H420.043V238.479H408.88V189.059Z" fill="#0A4DD0"/>
<path d="M408.881 238.929H420.044C420.163 238.929 420.277 238.882 420.361 238.798C420.445 238.713 420.492 238.599 420.492 238.479V189.059C420.492 188.94 420.445 188.826 420.361 188.741C420.277 188.657 420.163 188.609 420.044 188.609H408.881C408.762 188.609 408.648 188.657 408.564 188.741C408.48 188.826 408.433 188.94 408.433 189.059V238.479C408.433 238.599 408.48 238.713 408.564 238.798C408.648 238.882 408.762 238.929 408.881 238.929ZM419.596 238.029H409.339V189.509H419.596V238.029Z" fill="#0A4DD0"/>
<path d="M393.006 207.148H404.109V238.478H393.006V207.148Z" fill="#0A4DD0"/>
<path d="M393.005 238.929H404.108C404.228 238.929 404.343 238.882 404.429 238.798C404.514 238.714 404.564 238.599 404.566 238.479V207.149C404.564 207.029 404.514 206.915 404.429 206.83C404.343 206.746 404.228 206.699 404.108 206.699H393.005C392.886 206.699 392.772 206.747 392.688 206.831C392.604 206.915 392.557 207.03 392.557 207.149V238.479C392.557 238.599 392.604 238.713 392.688 238.797C392.772 238.882 392.886 238.929 393.005 238.929ZM403.66 238.029H393.463V207.649H403.66V238.029Z" fill="#0A4DD0"/>
<path d="M377.283 220.781H388.406V238.471H377.283V220.781Z" fill="#0A4DD0"/>
<path d="M377.28 238.928H388.403C388.522 238.928 388.636 238.881 388.72 238.796C388.804 238.712 388.852 238.597 388.852 238.478V220.778C388.852 220.659 388.804 220.544 388.72 220.46C388.636 220.376 388.522 220.328 388.403 220.328H377.28C377.161 220.328 377.047 220.376 376.963 220.46C376.879 220.544 376.832 220.659 376.832 220.778V238.478C376.832 238.597 376.879 238.712 376.963 238.796C377.047 238.881 377.161 238.928 377.28 238.928ZM387.955 238.028H377.738V221.238H387.955V238.028Z" fill="#0A4DD0"/>
<path d="M409.908 189.059H421.031V237.359H409.908V189.059Z" fill="white"/>
<path d="M409.457 237.808H421.477V188.648H409.457V237.808ZM420.57 236.898H410.353V189.508H420.57V236.898Z" fill="#0A4DD0"/>
<path d="M394.033 207.148H405.156V237.358H394.033V207.148Z" fill="white"/>
<path d="M393.584 237.809H405.613V206.699H393.584V237.809ZM404.717 236.899H394.5V207.649H404.717V236.899Z" fill="#0A4DD0"/>
<path d="M378.306 220.781H389.43V237.351H378.306V220.781Z" fill="white"/>
<path d="M377.829 237.808H389.879V220.328H377.829V237.808ZM388.943 236.898H378.726V221.238H388.973L388.943 236.898Z" fill="#0A4DD0"/>
<path d="M421.03 237.352H409.906V189.052H421.03V237.352Z" fill="#A6B5FF"/>
<path d="M409.905 237.809H421.028C421.147 237.809 421.261 237.762 421.345 237.678C421.429 237.593 421.477 237.479 421.477 237.359V189.059C421.477 188.94 421.429 188.826 421.345 188.741C421.261 188.657 421.147 188.609 421.028 188.609H409.905C409.786 188.609 409.672 188.657 409.588 188.741C409.504 188.826 409.457 188.94 409.457 189.059V237.359C409.457 237.479 409.504 237.593 409.588 237.678C409.672 237.762 409.786 237.809 409.905 237.809ZM420.57 236.899H410.353V189.509H420.57V236.899Z" fill="#0A4DD0"/>
<path d="M427.403 180.34H438.566V238.47H427.403V180.34Z" fill="#0A4DD0"/>
<path d="M427.402 238.82H438.575C438.665 238.82 438.751 238.784 438.815 238.72C438.878 238.657 438.914 238.57 438.914 238.48V180.34C438.914 180.25 438.878 180.163 438.815 180.1C438.751 180.036 438.665 180 438.575 180H427.412C427.322 180 427.236 180.036 427.173 180.1C427.109 180.163 427.074 180.25 427.074 180.34V238.48C427.073 238.568 427.108 238.653 427.169 238.717C427.23 238.78 427.314 238.817 427.402 238.82ZM438.227 238.14H427.741V180.65H438.227V238.14Z" fill="#0A4DD0"/>
<path d="M428.427 180.488H439.551V237.358H428.427V180.488Z" fill="#FFB6C6"/>
<path d="M427.98 237.809H440V180.039H427.98V237.809ZM439.094 236.899H428.876V180.899H439.094V236.899Z" fill="#0A4DD0"/>
<path d="M405.155 237.352H394.031V207.142H405.155V237.352Z" fill="#FF7593"/>
<path d="M393.584 237.809H405.613V206.699H393.584V237.809ZM404.717 236.899H394.5V207.649H404.717V236.899Z" fill="#0A4DD0"/>
<path d="M378.306 220.781H389.43V237.351H378.306V220.781Z" fill="#FFB6C6"/>
<path d="M377.829 237.808H389.879V220.328H377.829V237.808ZM388.943 236.898H378.726V221.238H388.973L388.943 236.898Z" fill="#0A4DD0"/>
<path d="M361.447 231.301H372.57V238.551H361.447V231.301Z" fill="#0A4DD0"/>
<path d="M361.448 239.002H372.571C372.63 239.002 372.689 238.99 372.743 238.967C372.797 238.945 372.847 238.912 372.888 238.87C372.93 238.828 372.963 238.778 372.985 238.724C373.008 238.669 373.02 238.611 373.02 238.552V231.302C373.02 231.242 373.008 231.184 372.985 231.129C372.963 231.075 372.93 231.025 372.888 230.983C372.847 230.942 372.797 230.908 372.743 230.886C372.689 230.863 372.63 230.852 372.571 230.852H361.448C361.329 230.852 361.215 230.899 361.131 230.983C361.047 231.068 361 231.182 361 231.302V238.552C361 238.671 361.047 238.785 361.131 238.87C361.215 238.954 361.329 239.002 361.448 239.002ZM372.113 238.092H361.896V231.762H372.113V238.092Z" fill="#0A4DD0"/>
<path d="M362.474 231.301H373.598V238.051H362.474V231.301Z" fill="white"/>
<path d="M362.027 238.512H374.047V230.852H362.027V238.512ZM373.141 237.652H362.893V231.812H373.141V237.652Z" fill="#0A4DD0"/>
<path d="M362.474 231.301H373.598V238.051H362.474V231.301Z" fill="#A6B5FF"/>
<path d="M362.475 238.512H373.599C373.718 238.509 373.832 238.459 373.916 238.373C374 238.287 374.047 238.172 374.047 238.052V231.302C374.047 231.182 374 231.068 373.916 230.983C373.832 230.899 373.718 230.852 373.599 230.852H362.475C362.356 230.852 362.242 230.899 362.158 230.983C362.074 231.068 362.027 231.182 362.027 231.302V238.052C362.027 238.172 362.074 238.287 362.158 238.373C362.241 238.459 362.355 238.509 362.475 238.512ZM373.141 237.652H362.893V231.812H373.141V237.652Z" fill="#0A4DD0"/>
<path d="M374.172 206.232C380.833 199.409 387.431 192.527 394.055 185.674L403.978 175.384L407.033 172.196L415.397 179.607L417.773 156.892L394.412 161.929L402.326 168.218L398.96 171.616L388.907 181.81C382.217 188.617 375.501 195.395 368.848 202.231C365.3 205.878 364.775 207.215 366.771 209.308C368.932 211.573 370.815 209.671 374.172 206.232Z" fill="#A6B5FF"/>
<path fill-rule="evenodd" clip-rule="evenodd" d="M398.96 171.616L388.907 181.81C386.84 183.913 384.771 186.013 382.702 188.113C378.074 192.81 373.446 197.507 368.848 202.231C365.3 205.878 364.775 207.215 366.771 209.308C368.932 211.573 370.815 209.671 374.172 206.232C378.776 201.516 383.35 196.772 387.923 192.029C389.966 189.909 392.01 187.79 394.055 185.674L403.978 175.384L407.033 172.196L415.397 179.607L417.773 156.892L394.412 161.929L402.326 168.218L398.96 171.616ZM396.689 162.461L403.821 168.129L399.671 172.32L389.62 182.511C389.62 182.512 389.62 182.511 389.62 182.511C387.552 184.616 385.481 186.717 383.412 188.817C378.784 193.514 374.16 198.207 369.565 202.929C368.685 203.833 368.019 204.567 367.538 205.192C367.053 205.822 366.798 206.286 366.686 206.648C366.584 206.976 366.597 207.227 366.693 207.486C366.801 207.778 367.037 208.138 367.495 208.618C367.94 209.085 368.278 209.239 368.527 209.28C368.774 209.32 369.092 209.274 369.55 209.028C370.019 208.776 370.564 208.354 371.227 207.746C371.885 207.141 372.612 206.399 373.456 205.534C378.058 200.82 382.628 196.08 387.2 191.337C389.244 189.217 391.289 187.097 393.336 184.979L403.256 174.692L403.258 174.69L406.977 170.81L414.605 177.569L416.635 158.16L396.689 162.461Z" fill="#0A4DD0"/>
<path d="M455.898 379.541C462.321 379.777 488.29 385.472 487.862 364.341C487.648 353.55 490.795 353.946 497.111 349.718C503.426 345.49 503.287 342.781 502.731 336.744C502.174 330.707 508.201 333.629 512.204 325.686C517 316.191 511.23 309.094 501.906 307.392C492.583 305.69 492.861 315.742 489.146 318.739C485.432 321.736 480.326 315.292 473.207 324.027C468.561 329.732 475.776 342.749 468.925 341.529" fill="white"/>
<path d="M455.898 379.541C462.321 379.777 488.29 385.472 487.862 364.341C487.648 353.55 490.795 353.946 497.111 349.718C503.426 345.49 503.287 342.781 502.731 336.744C502.174 330.707 508.201 333.629 512.204 325.686C517 316.191 511.23 309.094 501.906 307.392C492.583 305.69 492.861 315.742 489.146 318.739C485.432 321.736 480.326 315.292 473.207 324.027C468.561 329.732 475.776 342.749 468.925 341.529" stroke="#7189FF" stroke-miterlimit="10"/>
<path d="M468.114 360.725C477.227 348.429 486.818 336.504 496.888 324.95C497.573 324.169 498.707 325.304 498.022 326.085C488.031 337.503 478.526 349.321 469.505 361.539C468.895 362.363 467.503 361.539 468.114 360.725Z" fill="#7189FF"/>
<path d="M483.591 324.392L484.597 339.474L484.736 341.615L483.933 340.813L497.764 341.947C498.834 342.033 498.834 343.639 497.764 343.553L483.922 342.408C483.711 342.402 483.51 342.316 483.361 342.166C483.211 342.017 483.125 341.816 483.12 341.605L482.113 326.522L481.974 324.381C481.899 323.311 483.505 323.311 483.58 324.381L483.591 324.392Z" fill="#7189FF"/>
<path d="M497.313 254.579C508.885 245.148 511.658 216.042 495.173 207.2C474.834 196.271 453.424 213.184 450.77 230.579C448.693 243.992 458.081 253.369 433.642 263.196C409.204 273.023 412.993 285.248 418.014 308.605C423.034 331.963 406.527 323.399 393.693 343.117C383.534 358.746 397.814 374.685 404.183 380.583L454.152 380.401C455.777 379.451 457.327 378.377 458.787 377.19C474.919 364.012 468.539 343.17 466.827 326.953C464.504 304.794 490.27 317.244 500.3 294.7C510.33 272.156 485.752 263.999 497.313 254.579Z" fill="white" stroke="#7189FF" stroke-miterlimit="10"/>
<path d="M412.973 379.878C414.971 375.447 416.98 371.018 419 366.594C423.995 355.654 428.991 344.717 433.986 333.784C440.409 319.84 446.832 305.924 453.255 292.036C459.506 278.613 465.822 265.221 472.202 251.862C476.708 242.474 481.194 233.064 486.118 223.901L487.274 221.76C487.777 220.861 489.169 221.664 488.666 222.574C483.955 230.988 479.813 239.701 475.617 248.415C469.322 261.474 463.146 274.566 457.087 287.69C450.507 301.685 443.995 315.733 437.551 329.834C432.284 341.31 427.035 352.792 421.804 364.282L416.795 375.318C416.024 377.01 415.371 378.84 414.461 380.467C414.423 380.539 414.39 380.614 414.365 380.692C413.937 381.634 412.556 380.82 412.973 379.878Z" fill="#7189FF"/>
<path d="M459.313 280.848L488.376 279.35L492.412 279.125C492.925 279.125 492.925 279.906 492.412 279.928L463.359 281.469L459.27 281.694C458.756 281.694 458.756 280.913 459.27 280.891L459.313 280.848Z" fill="#7189FF"/>
<path d="M425.849 353.239L458.487 349.728L463.123 349.225C463.636 349.172 463.626 349.975 463.123 350.028L430.484 353.55L425.849 354.042C425.346 354.096 425.346 353.293 425.849 353.239Z" fill="#7189FF"/>
<path d="M423.709 274.33L430.325 288.471L440.762 311.037L443.171 316.228C443.385 316.699 442.689 317.106 442.475 316.635L435.902 302.494L425.422 279.929L423.003 274.737C422.789 274.266 423.474 273.859 423.699 274.33H423.709Z" fill="#7189FF"/>
<path d="M470.564 226.733C468.947 229.013 466.121 229.881 464.258 228.671C462.396 227.461 462.203 224.625 463.83 222.334C465.457 220.043 468.273 219.187 470.135 220.407C471.998 221.627 472.18 224.453 470.564 226.733Z" fill="#7189FF"/>
<path d="M483.846 299.646C481.398 299.646 479.414 297.748 479.414 295.407C479.414 293.066 481.398 291.168 483.846 291.168C486.293 291.168 488.277 293.066 488.277 295.407C488.277 297.748 486.293 299.646 483.846 299.646Z" fill="#7189FF"/>
<path d="M392.011 379.843C391.883 380.132 407.876 370.08 407.469 354.665C407.062 339.251 389.988 344.924 386.595 337.806C383.202 330.687 390.277 324.189 384.4 315.893C377.132 305.606 369.414 317.349 368.408 303.412C367.583 291.326 355.883 297.128 351.28 289.881C346.677 282.634 337.289 278.106 329.711 285.599C321.65 293.521 325.354 302.427 330.278 309.749C335.202 317.071 330.556 319.907 333.222 327.947C335.887 335.986 351.152 335.943 351.28 344.26C351.409 352.578 345.243 363.454 352.212 371.268C356.198 375.848 361.391 379.216 367.198 380.988L392.011 379.843Z" fill="#7189FF"/>
<path d="M385.181 379.092C381.06 370.678 377.249 362.103 373.321 353.593C368.065 342.236 362.777 330.878 357.178 319.681C354.663 314.682 352.115 309.683 349.278 304.844C349.226 304.752 349.212 304.643 349.24 304.54C349.268 304.438 349.336 304.351 349.428 304.299C349.52 304.246 349.63 304.232 349.732 304.26C349.834 304.288 349.921 304.356 349.974 304.448C355.497 313.879 360.175 323.813 364.875 333.672C370.066 344.58 375.098 355.574 380.172 366.546C382.045 370.603 383.908 374.671 385.877 378.696C386.102 379.156 385.417 379.563 385.181 379.092Z" fill="white"/>
<path d="M345.361 324.834L359.17 326.269L361.162 326.472C361.675 326.526 361.675 327.329 361.162 327.275L347.353 325.841L345.361 325.637C344.848 325.637 344.848 324.781 345.361 324.834Z" fill="white"/>
<path d="M379.938 318.277L369.661 344.75" stroke="white" stroke-width="0.75" stroke-miterlimit="10" stroke-linecap="round"/>
<path d="M351.248 317.37C351.322 317.889 351.236 318.417 351.001 318.885C350.767 319.353 350.395 319.739 349.935 319.989C349.476 320.24 348.951 320.345 348.43 320.289C347.91 320.233 347.419 320.02 347.023 319.677C346.627 319.334 346.345 318.879 346.216 318.372C346.086 317.865 346.114 317.33 346.296 316.839C346.479 316.349 346.806 315.925 347.236 315.626C347.666 315.327 348.176 315.166 348.7 315.165C349.329 315.124 349.949 315.332 350.426 315.745C350.903 316.158 351.198 316.742 351.248 317.37Z" fill="white"/>
<path d="M360.432 304.688C360.18 305.125 359.805 305.477 359.353 305.7C358.901 305.923 358.393 306.007 357.893 305.941C357.393 305.875 356.924 305.662 356.546 305.33C356.167 304.998 355.895 304.561 355.765 304.074C355.634 303.587 355.651 303.072 355.813 302.595C355.976 302.118 356.276 301.7 356.676 301.393C357.076 301.086 357.558 300.905 358.06 300.873C358.563 300.84 359.065 300.957 359.501 301.209C359.792 301.376 360.046 301.598 360.251 301.863C360.455 302.128 360.604 302.432 360.691 302.755C360.778 303.078 360.799 303.416 360.755 303.747C360.711 304.079 360.601 304.399 360.432 304.688Z" fill="white"/>
<path d="M367.166 355.308C367.26 355.955 367.154 356.614 366.863 357.199C366.571 357.784 366.109 358.266 365.536 358.582C364.964 358.897 364.309 359.029 363.659 358.963C363.009 358.896 362.395 358.632 361.899 358.207C361.402 357.782 361.048 357.215 360.882 356.583C360.716 355.951 360.747 355.284 360.97 354.67C361.194 354.056 361.599 353.525 362.132 353.147C362.666 352.769 363.301 352.564 363.955 352.557C364.347 352.525 364.741 352.571 365.115 352.692C365.489 352.813 365.835 353.007 366.134 353.263C366.433 353.519 366.678 353.831 366.855 354.182C367.032 354.533 367.138 354.916 367.166 355.308Z" fill="white"/>
<path d="M475.504 129.499C475.504 129.499 446.534 99.2366 476.786 77.3083C507.038 55.3801 541.197 95.3495 533.26 124.838C525.323 154.327 485.679 145.779 475.504 129.499Z" fill="#DEE3FF"/>
<path d="M59.9065 53.8222C59.9065 53.8222 34.1726 44.6642 42.7506 19.2254C51.3286 -6.2134 90.779 -6.85447 92.7938 19.9784C93.7096 32.189 86.7597 61.8405 59.9065 53.8222Z" fill="#DEE3FF"/>
<path d="M281.979 33.9219H273.188V295.363H281.979V33.9219Z" fill="#FFC9D5"/>
<path d="M369.494 345.496H185.672V356.628H369.494V345.496Z" fill="#FFC9D5"/>
<path d="M388.884 356.629H166.285V367.761H388.884V356.629Z" fill="#EAAAB8"/>
<path d="M407.43 367.758H147.75V378.89H407.43V367.758Z" fill="#FFC9D5"/>
<path d="M402.378 57.289L154.836 2.39062L152.805 11.5505L400.347 66.4489L402.378 57.289Z" fill="#FFC9D5"/>
<path d="M92.668 185.372L151.981 6.83203L211.283 185.372" stroke="#2C3C8D" stroke-width="2.41" stroke-miterlimit="10"/>
<path d="M345.449 243.372L404.751 64.832L464.064 243.372" stroke="#2C3C8D" stroke-width="2.41" stroke-miterlimit="10"/>
<path d="M151.981 229.151C186.187 229.151 213.93 209.074 213.93 184.316H90C90 209.129 117.765 229.151 151.981 229.151Z" fill="#FFC9D5"/>
<path d="M203.596 184.301C195.373 202.103 172.19 214.92 144.841 214.92C121.8 214.92 101.701 205.8 91.0391 192.273C96.2443 213.236 121.538 229.135 151.981 229.135C186.187 229.135 213.93 209.058 213.93 184.301H203.596Z" fill="#EAAAB8"/>
<path d="M404.761 287.151C438.966 287.151 466.698 267.074 466.698 242.316H342.812C342.812 267.129 370.544 287.151 404.761 287.151Z" fill="#FFC9D5"/>
<path d="M456.33 242.301C448.118 260.103 424.924 272.92 397.586 272.92C374.534 272.92 354.446 263.8 343.773 250.273C348.99 271.236 374.283 287.135 404.727 287.135C438.932 287.135 466.664 267.058 466.664 242.301H456.33Z" fill="#EAAAB8"/>
<path d="M159.812 6.82967C159.812 8.37823 159.352 9.89201 158.492 11.1796C157.632 12.4672 156.409 13.4707 154.978 14.0633C153.548 14.6559 151.973 14.811 150.455 14.5089C148.936 14.2068 147.541 13.4611 146.446 12.3661C145.351 11.2711 144.605 9.87596 144.303 8.35715C144.001 6.83835 144.156 5.26407 144.748 3.83338C145.341 2.4027 146.345 1.17987 147.632 0.319535C148.92 -0.540799 150.433 -1 151.982 -1C154.058 -0.997107 156.048 -0.17127 157.515 1.29645C158.983 2.76417 159.809 4.754 159.812 6.82967Z" fill="#2C3C8D"/>
<path d="M404.752 72.6593C409.076 72.6593 412.581 69.1539 412.581 64.8297C412.581 60.5055 409.076 57 404.752 57C400.427 57 396.922 60.5055 396.922 64.8297C396.922 69.1539 400.427 72.6593 404.752 72.6593Z" fill="#2C3C8D"/>
<path d="M277.586 287.152C262.112 287.155 247.273 293.304 236.333 304.247C225.392 315.189 219.246 330.029 219.246 345.503H335.937C335.937 337.84 334.427 330.253 331.495 323.173C328.562 316.094 324.264 309.661 318.846 304.243C313.428 298.825 306.995 294.526 299.916 291.594C292.836 288.662 285.249 287.152 277.586 287.152Z" fill="#A6B5FF"/>
<path opacity="0.22" d="M259.806 322.179C270.309 315.475 275.772 305.262 272.009 299.367C268.246 293.472 256.682 294.127 246.18 300.831C235.678 307.534 230.214 317.748 233.977 323.643C237.74 329.538 249.304 328.882 259.806 322.179Z" fill="white"/>
<path d="M324.951 29.8447L239.653 10.8685C236.876 10.2508 234.124 12.0009 233.507 14.7776L229.253 33.8953C228.636 36.672 230.386 39.4237 233.163 40.0414L318.461 59.0176C321.238 59.6353 323.99 57.8852 324.607 55.1085L328.86 35.9907C329.478 33.2141 327.728 30.4624 324.951 29.8447Z" fill="#A6B5FF"/>
<g clip-path="url(#clip1_1_5427)">
<path d="M205.547 128.153C208.265 133.429 204.868 139.097 208.37 147.152C213.193 158.201 217.823 192.515 217.823 192.515L158.316 177.566L160.383 88.2201L194.929 79.5684C194.929 79.5684 195.431 98.0319 199.696 102.391C203.961 106.75 205.547 128.153 205.547 128.153Z" fill="#DFDEDE"/>
<mask id="mask0_1_5427" style="mask-type:luminance" maskUnits="userSpaceOnUse" x="158" y="79" width="60" height="114">
<path d="M205.547 128.153C208.265 133.429 204.868 139.097 208.37 147.152C213.193 158.201 217.823 192.515 217.823 192.515L158.316 177.566L160.383 88.2201L194.929 79.5684C194.929 79.5684 195.431 98.0319 199.696 102.391C203.961 106.75 205.547 128.153 205.547 128.153Z" fill="white"/>
</mask>
<g mask="url(#mask0_1_5427)">
<path d="M170.824 99.242C177.813 83.8944 218.845 108.916 225.392 118.943C231.115 127.711 225.077 160.931 217.657 171.632C223.326 174.174 243.48 183.963 223.563 186.494C200.614 189.405 168.836 183.4 169.697 153.616C170.559 123.832 170.824 99.242 170.824 99.242ZM202.868 173.621C206.006 176.19 209.254 173.859 207.531 170.693C203.735 163.732 197.221 144.384 197.221 136.495C197.221 132.026 196.365 135.263 195.216 136.075C192.034 138.324 195.216 155.821 192.896 163.87C191.155 169.969 196.498 168.384 202.884 173.621H202.868Z" fill="#C2C2C1"/>
</g>
<path d="M205.547 128.153C208.265 133.429 204.868 139.097 208.37 147.152C213.193 158.201 217.823 192.515 217.823 192.515L158.316 177.566L160.383 88.2201L194.929 79.5684C194.929 79.5684 195.431 98.0319 199.696 102.391C203.961 106.75 205.547 128.153 205.547 128.153Z" stroke="#302D30" stroke-linecap="round" stroke-linejoin="round"/>
<path d="M115.456 128.153C112.738 133.429 116.135 139.097 112.633 147.152C107.81 158.201 103.18 186.261 103.18 186.261L160.637 167.853V88.2201L126.113 79.5684C126.113 79.5684 125.61 98.0319 121.345 102.391C117.08 106.75 115.456 128.153 115.456 128.153Z" fill="#DFDEDE"/>
<mask id="mask1_1_5427" style="mask-type:luminance" maskUnits="userSpaceOnUse" x="103" y="79" width="58" height="108">
<path d="M115.456 128.153C112.738 133.429 116.135 139.097 112.633 147.152C107.81 158.201 103.18 186.261 103.18 186.261L160.637 167.853V88.2201L126.113 79.5684C126.113 79.5684 125.61 98.0319 121.345 102.391C117.08 106.75 115.456 128.153 115.456 128.153Z" fill="white"/>
</mask>
<g mask="url(#mask1_1_5427)">
<path d="M151.333 153.616C152.195 183.4 120.395 189.405 97.4674 186.494C77.5508 183.963 97.7049 174.174 103.373 171.632C95.9259 160.936 89.8874 127.711 95.611 118.943C102.163 108.916 143.195 83.8944 150.178 99.242C150.178 99.242 150.471 123.827 151.333 153.616ZM128.091 163.87C125.776 155.821 128.953 138.324 125.776 136.075C124.621 135.263 123.765 132.026 123.765 136.495C123.765 144.384 117.251 163.732 113.456 170.693C111.732 173.859 114.986 176.218 118.119 173.621C124.505 168.384 129.848 169.969 128.08 163.87H128.091Z" fill="#C2C2C1"/>
</g>
<path d="M115.456 128.153C112.738 133.429 116.135 139.097 112.633 147.152C107.81 158.201 103.18 186.261 103.18 186.261L160.637 167.853V88.2201L126.113 79.5684C126.113 79.5684 125.61 98.0319 121.345 102.391C117.08 106.75 115.456 128.153 115.456 128.153Z" stroke="#302D30" stroke-linecap="round" stroke-linejoin="round"/>
<path d="M155.294 186.438L126.699 177.836L129.881 136.164L155.294 147.263H155.3L182.205 148.478L183.901 177.836L155.3 186.438H155.294Z" fill="#E49E5F" stroke="#302E30" stroke-linecap="round" stroke-linejoin="round"/>
<path d="M233.458 200.04C237.927 208.725 246.165 334.815 246.165 334.815L220.911 339.036C220.911 339.036 217.685 309.993 217.188 301.805C216.69 293.617 220.696 261.348 225.977 244.47C231.259 227.592 232.463 210.217 233.458 200.04Z" fill="white"/>
<mask id="mask2_1_5427" style="mask-type:luminance" maskUnits="userSpaceOnUse" x="217" y="200" width="30" height="140">
<path d="M233.458 200.04C237.927 208.725 246.165 334.815 246.165 334.815L220.911 339.036C220.911 339.036 217.685 309.993 217.188 301.805C216.69 293.617 220.696 261.348 225.977 244.47C231.259 227.592 232.463 210.217 233.458 200.04Z" fill="white"/>
</mask>
<g mask="url(#mask2_1_5427)">
<path d="M233.154 202.99C227.276 224.951 229.441 301.799 231.629 311.208C233.817 320.617 245.341 322.368 240.386 323.639C235.43 324.909 238.347 329.511 240.386 330.125C242.424 330.738 243.33 342.688 227.872 342.831C212.414 342.975 211.536 335.688 211.536 288.187C211.536 240.685 233.154 202.99 233.154 202.99Z" fill="#DFDEDE"/>
</g>
<path d="M233.458 200.04C237.927 208.725 246.165 334.815 246.165 334.815L220.911 339.036C220.911 339.036 217.685 309.993 217.188 301.805C216.69 293.617 220.696 261.348 225.977 244.47C231.259 227.592 232.463 210.217 233.458 200.04Z" stroke="#302D30" stroke-linecap="round" stroke-linejoin="round"/>
<path d="M219.668 324.826C223.823 323.473 228.469 323.285 232.668 321.821C234.194 321.361 235.58 320.523 236.695 319.385C236.737 319.335 236.76 319.271 236.76 319.206C236.759 319.141 236.736 319.078 236.694 319.028C236.651 318.978 236.593 318.945 236.528 318.935C236.464 318.924 236.398 318.937 236.342 318.97C233.729 320.291 230.762 320.478 227.878 320.854C224.806 321.23 221.801 321.379 218.779 322.445C218.622 322.504 218.479 322.592 218.357 322.706C218.235 322.82 218.136 322.957 218.067 323.109C217.998 323.26 217.959 323.424 217.953 323.591C217.948 323.758 217.975 323.924 218.033 324.081C218.091 324.237 218.18 324.38 218.294 324.502C218.407 324.624 218.544 324.723 218.696 324.792C218.848 324.862 219.012 324.9 219.179 324.906C219.346 324.912 219.512 324.885 219.668 324.826Z" fill="#302D30"/>
<path d="M221.337 333.953C223.303 330.848 226.861 329.291 230.375 328.534C234.137 327.711 238.065 327.617 241.933 327.639C241.969 327.645 242.006 327.644 242.042 327.636C242.078 327.627 242.112 327.612 242.142 327.591C242.172 327.57 242.197 327.543 242.217 327.512C242.237 327.48 242.25 327.446 242.256 327.409C242.262 327.373 242.261 327.336 242.253 327.3C242.245 327.264 242.229 327.23 242.208 327.2C242.187 327.17 242.16 327.145 242.129 327.125C242.098 327.106 242.063 327.092 242.027 327.086C240.082 326.552 238.085 326.233 236.071 326.136C234.041 326.02 232.005 326.111 229.994 326.407C225.856 327.014 221.486 328.826 219.182 332.605C219.005 332.893 218.949 333.239 219.026 333.567C219.104 333.895 219.309 334.179 219.596 334.357C219.883 334.534 220.229 334.59 220.558 334.512C220.886 334.435 221.17 334.23 221.348 333.942L221.337 333.953Z" fill="#302D30"/>
<path d="M91.1692 370.256C94.9426 332.102 86.6611 284.888 86.6611 284.888C86.6611 284.888 48.9936 279.468 52.767 246.188C56.01 217.553 53.2477 206.509 56.441 202.99C60.4077 198.62 65.5015 196.316 76.5509 191.753C105.423 179.836 123.511 171.864 123.511 171.864L127.765 154.737C127.765 154.737 143.947 170.206 167.758 170.206C182.448 170.206 183.167 165.35 183.167 165.35L185.056 178.532C185.056 178.532 227.64 193.316 233.452 200.045C233.452 200.045 227.872 253.386 227.005 269.717C226.138 286.048 225.9 328.113 226.574 352.063C226.983 366.427 237.342 768.04 237.342 768.04C237.342 768.04 233.85 762.852 200.531 770.145C167.211 777.437 156.427 786.956 109.047 776.896C61.6674 766.835 51.9715 779.658 51.9715 779.658C51.9715 779.658 87.3958 408.415 91.1692 370.256Z" fill="white"/>
<mask id="mask3_1_5427" style="mask-type:luminance" maskUnits="userSpaceOnUse" x="51" y="154" width="187" height="628">
<path d="M91.1692 370.256C94.9426 332.103 86.6611 284.889 86.6611 284.889C86.6611 284.889 48.9936 279.469 52.767 246.188C56.01 217.554 53.2477 206.51 56.441 202.991C60.4077 198.621 65.5015 196.317 76.5509 191.753C105.423 179.837 123.511 171.864 123.511 171.864L127.765 154.738C127.765 154.738 143.947 170.207 167.758 170.207C182.448 170.207 183.167 165.351 183.167 165.351L185.056 178.533C185.056 178.533 227.64 193.317 233.452 200.046C233.452 200.046 227.872 253.387 227.005 269.718C226.138 286.049 225.9 328.114 226.574 352.063C226.983 366.428 237.342 768.04 237.342 768.04C237.342 768.04 233.85 762.853 200.531 770.145C167.211 777.438 156.427 786.957 109.047 776.896C61.6674 766.836 51.9715 779.659 51.9715 779.659C51.9715 779.659 87.3958 408.416 91.1692 370.256Z" fill="white"/>
</mask>
<g mask="url(#mask3_1_5427)">
<path d="M77.1365 240.751C82.1419 258.005 95.6221 292.363 96.8043 307.357C97.9866 322.351 101.511 357.964 97.1691 378.482C92.8266 399.001 89.4731 511.324 86.3682 539.942C83.849 563.145 76.5011 633.458 70.5841 660.684C64.6672 687.91 55.1149 772.045 56.6066 781.526C58.0983 791.006 47.3031 793.266 24.8121 778.67C2.32101 764.073 12.5748 705.666 11.3926 666.601C10.2103 627.536 71.5124 252.171 71.5124 252.171L77.1365 240.751Z" fill="#DFDEDE"/>
<path d="M103.069 262.629C103.069 270.734 102.97 288.468 99.8872 297.91C96.8044 307.352 104.926 303.634 118.273 301.253C131.621 298.871 143.864 295.728 143.864 295.728L103.069 262.629Z" fill="#DFDEDE"/>
<path d="M132.743 154.754C132.102 162.489 136.245 177.328 144.665 183.98C153.085 190.631 137.693 173.555 115.572 179.831C93.451 186.107 86.0091 188.897 76.5508 191.753C65.9931 194.952 95.1635 178.218 105.401 165.925C115.638 153.633 123.312 148.307 125.544 151.528C127.776 154.749 132.743 154.754 132.743 154.754Z" fill="#DFDEDE"/>
<path d="M185.205 175.809C185.874 180.322 183.034 185.908 178.437 187.239C173.841 188.571 188.857 182.748 203.641 185.405C215.95 187.615 214.11 186.676 206.37 182.88C198.63 179.085 185.205 175.809 185.205 175.809Z" fill="#DFDEDE"/>
<path d="M234.607 336.743C234.607 336.743 231.066 403.907 227.872 380.886C225.342 362.654 199.652 360.632 185.001 355.063C171.189 349.809 164.106 347.881 164.106 347.881L180.592 348.201L234.607 336.743Z" fill="#DFDEDE"/>
</g>
<path d="M91.1692 370.256C94.9426 332.102 86.6611 284.888 86.6611 284.888C86.6611 284.888 48.9936 279.468 52.767 246.188C56.01 217.553 53.2477 206.509 56.441 202.99C60.4077 198.62 65.5015 196.316 76.5509 191.753C105.423 179.836 123.511 171.864 123.511 171.864L127.765 154.737C127.765 154.737 143.947 170.206 167.758 170.206C182.448 170.206 183.167 165.35 183.167 165.35L185.056 178.532C185.056 178.532 227.64 193.316 233.452 200.045C233.452 200.045 227.872 253.386 227.005 269.717C226.138 286.048 225.9 328.113 226.574 352.063C226.983 366.427 237.342 768.04 237.342 768.04C237.342 768.04 233.85 762.852 200.531 770.145C167.211 777.437 156.427 786.956 109.047 776.896C61.6674 766.835 51.9715 779.658 51.9715 779.658C51.9715 779.658 87.3958 408.415 91.1692 370.256Z" stroke="#302D30" stroke-linecap="round" stroke-linejoin="round"/>
<path d="M272.987 363.538C272.435 377.704 270.893 388.057 267.672 388.786C264.451 389.515 247.016 375.162 247.016 375.162L249.225 336.489H272.982L272.987 363.538Z" fill="#DFDEDE"/>
<mask id="mask4_1_5427" style="mask-type:luminance" maskUnits="userSpaceOnUse" x="247" y="336" width="26" height="53">
<path d="M272.987 363.538C272.435 377.704 270.893 388.057 267.672 388.786C264.451 389.515 247.016 375.162 247.016 375.162L249.225 336.489H272.982L272.987 363.538Z" fill="white"/>
</mask>
<g mask="url(#mask4_1_5427)">
<path d="M275.28 378.875C272.446 372.654 269.236 369.798 263.993 370.256C258.75 370.715 261.954 387.322 263.993 391.405C266.032 395.488 246.496 384.411 249.562 373.046C252.629 361.682 262.142 353.925 270.788 357.074C279.435 360.223 282.136 371.588 279.766 374.499C278.466 376.145 276.958 377.616 275.28 378.875Z" fill="#C2C2C1"/>
</g>
<path d="M272.987 363.538C272.435 377.704 270.893 388.057 267.672 388.786C264.451 389.515 247.016 375.162 247.016 375.162L249.225 336.489H272.982L272.987 363.538Z" stroke="#302D30" stroke-linecap="round" stroke-linejoin="round"/>
<path d="M318.129 342.036C324.792 341.146 329.455 342.588 329.096 346.627C328.737 350.666 316.693 349.439 312.837 350.986C308.981 352.533 318.129 342.036 318.129 342.036Z" fill="#E49E5F" stroke="#302D30" stroke-linecap="round" stroke-linejoin="round"/>
<path d="M288.412 349.146L254.601 354.074L166.581 346.649C165.405 346.551 164.309 346.014 163.509 345.145C162.71 344.276 162.267 343.139 162.267 341.959V339.81L288.412 349.146Z" fill="#9B99A3"/>
<mask id="mask5_1_5427" style="mask-type:luminance" maskUnits="userSpaceOnUse" x="162" y="339" width="127" height="16">
<path d="M288.412 349.146L254.601 354.074L166.581 346.649C165.405 346.551 164.309 346.014 163.509 345.145C162.71 344.276 162.267 343.139 162.267 341.959V339.81L288.412 349.146Z" fill="white"/>
</mask>
<g mask="url(#mask5_1_5427)">
<path d="M179.509 331.401C183.852 340.693 213.287 352.234 234.27 358.704C255.253 365.173 193.896 372.753 168.913 364.886C143.93 357.019 141.521 349.572 152.09 341.782C162.659 333.992 179.509 331.401 179.509 331.401Z" fill="#818088"/>
</g>
<path d="M288.412 349.146L254.601 354.074L166.581 346.649C165.405 346.551 164.309 346.014 163.509 345.145C162.71 344.276 162.267 343.139 162.267 341.959V339.81L288.412 349.146Z" stroke="#302D30" stroke-linecap="round" stroke-linejoin="round"/>
<path d="M288.412 342.666L254.595 347.599L162.267 339.81L263.711 325.882L322.765 331.539L288.412 342.666Z" fill="#CBC9D6"/>
<mask id="mask6_1_5427" style="mask-type:luminance" maskUnits="userSpaceOnUse" x="162" y="325" width="161" height="23">
<path d="M288.412 342.671L254.601 347.599L162.267 339.81L263.717 325.882L322.765 331.545L288.412 342.671Z" fill="white"/>
</mask>
<g mask="url(#mask6_1_5427)">
<path d="M272.987 332.677C234.938 342.544 150.538 339.81 150.538 339.81L266.324 351.146L287.351 336.743L272.987 332.677Z" fill="#B2B0BB"/>
</g>
<path d="M288.412 342.666L254.595 347.599L162.267 339.81L263.711 325.882L322.765 331.539L288.412 342.666Z" stroke="#302D30" stroke-linecap="round" stroke-linejoin="round"/>
<path d="M304.82 343.042L281.368 346.461L217.326 341.058L287.688 331.396L328.648 335.324L304.82 343.042Z" fill="#5E595E"/>
<mask id="mask7_1_5427" style="mask-type:luminance" maskUnits="userSpaceOnUse" x="217" y="331" width="112" height="16">
<path d="M304.826 343.041L281.368 346.461L217.326 341.058L287.694 331.401L328.654 335.323L304.826 343.041Z" fill="white"/>
</mask>
<g mask="url(#mask7_1_5427)">
<path d="M279.147 335.743C241.098 345.61 150.538 339.809 150.538 339.809L266.324 351.146L287.351 336.743L279.147 335.743Z" fill="#4A454A"/>
</g>
<path d="M304.82 343.042L281.368 346.461L217.326 341.058L287.688 331.396L328.648 335.324L304.82 343.042Z" stroke="#302D30" stroke-linecap="round" stroke-linejoin="round"/>
<path d="M356.576 332.655L390.503 236.194C390.692 235.656 390.745 235.079 390.657 234.515C390.568 233.952 390.342 233.419 389.998 232.964C389.654 232.509 389.203 232.146 388.685 231.907C388.167 231.669 387.597 231.562 387.028 231.597L301.058 241.542C298.585 241.829 296.246 242.819 294.318 244.396C292.391 245.972 290.957 248.069 290.186 250.437L258.479 347.815C258.277 348.441 258.239 349.109 258.367 349.755C258.495 350.4 258.786 351.002 259.212 351.504C259.638 352.006 260.185 352.391 260.801 352.622C261.417 352.853 262.082 352.923 262.733 352.826L347.786 339.948C349.775 339.644 351.644 338.805 353.192 337.52C354.741 336.236 355.91 334.554 356.576 332.655Z" fill="#CBC9D6"/>
<mask id="mask8_1_5427" style="mask-type:luminance" maskUnits="userSpaceOnUse" x="258" y="231" width="133" height="122">
<path d="M356.576 332.655L390.503 236.194C390.692 235.656 390.745 235.079 390.657 234.515C390.568 233.952 390.342 233.419 389.998 232.964C389.654 232.509 389.203 232.146 388.685 231.907C388.167 231.669 387.597 231.562 387.028 231.597L301.058 241.542C298.585 241.829 296.246 242.819 294.318 244.396C292.391 245.972 290.957 248.069 290.186 250.437L258.479 347.815C258.277 348.441 258.239 349.109 258.367 349.755C258.495 350.4 258.786 351.002 259.212 351.504C259.638 352.006 260.185 352.391 260.801 352.622C261.417 352.853 262.082 352.923 262.733 352.826L347.786 339.948C349.775 339.644 351.644 338.805 353.192 337.52C354.741 336.236 355.91 334.554 356.576 332.655Z" fill="white"/>
</mask>
<g mask="url(#mask8_1_5427)">
<path d="M279.015 237.327C292.782 271.607 319.14 301.049 343.935 309.38C368.73 317.711 329.864 316.562 307.218 308.518C284.572 300.474 323.19 346.821 385.669 334.423C448.148 322.026 287.998 405.018 264.264 378.118C240.529 351.218 236.137 295.369 245.761 268.315C255.385 241.26 279.015 237.327 279.015 237.327Z" fill="#B2B0BB"/>
</g>
<path d="M356.576 332.655L390.503 236.194C390.692 235.656 390.745 235.079 390.657 234.515C390.568 233.952 390.342 233.419 389.998 232.964C389.654 232.509 389.203 232.146 388.685 231.907C388.167 231.669 387.597 231.562 387.028 231.597L301.058 241.542C298.585 241.829 296.246 242.819 294.318 244.396C292.391 245.972 290.957 248.069 290.186 250.437L258.479 347.815C258.277 348.441 258.239 349.109 258.367 349.755C258.495 350.4 258.786 351.002 259.212 351.504C259.638 352.006 260.185 352.391 260.801 352.622C261.417 352.853 262.082 352.923 262.733 352.826L347.786 339.948C349.775 339.644 351.644 338.805 353.192 337.52C354.741 336.236 355.91 334.554 356.576 332.655Z" stroke="#302D30" stroke-linecap="round" stroke-linejoin="round"/>
<path d="M252.026 357.074L255.645 353.732L261.65 353.483L290.683 349.323C291.973 348.01 292.956 346.427 293.561 344.688C294.666 341.649 297.655 339.716 299.561 341.329C301.058 342.583 299.561 346.942 299.561 346.942C299.561 346.942 302.926 340.13 305.594 336.473C308.726 332.169 311.671 334.042 311.671 334.042C311.671 334.042 311.461 334.362 312.682 331.092C314.295 326.766 319.312 328.246 320.041 329.987C325.643 327.269 327.223 332.865 324.842 338.948C323.555 342.207 322.732 345.141 321.047 349.146C319.594 352.61 315.373 358.588 314.163 359.262C310.014 361.549 305.042 365.091 289.18 366.781C279.711 367.798 274.888 367.886 269.065 366.129C262.526 365.656 256.017 364.828 249.568 363.649L252.026 357.074Z" fill="#F5B87E"/>
<mask id="mask9_1_5427" style="mask-type:luminance" maskUnits="userSpaceOnUse" x="249" y="328" width="77" height="40">
<path d="M252.026 357.074L255.645 353.732L261.65 353.483L290.683 349.323C291.973 348.01 292.956 346.427 293.561 344.688C294.666 341.649 297.655 339.716 299.561 341.329C301.058 342.583 299.561 346.942 299.561 346.942C299.561 346.942 302.926 340.13 305.594 336.473C308.726 332.169 311.671 334.042 311.671 334.042C311.671 334.042 311.461 334.362 312.682 331.092C314.295 326.766 319.312 328.246 320.041 329.987C325.643 327.269 327.223 332.865 324.842 338.948C323.555 342.207 322.732 345.141 321.047 349.146C319.594 352.61 315.373 358.588 314.163 359.262C310.014 361.549 305.042 365.091 289.18 366.781C279.711 367.798 274.888 367.886 269.065 366.129C262.526 365.656 256.017 364.828 249.568 363.649L252.026 357.074Z" fill="white"/>
</mask>
<g mask="url(#mask9_1_5427)">
<path d="M307.373 334.616C305.942 336.036 302.461 345.489 301.611 347.599C300.76 349.71 298.953 355.146 294.881 357.074C290.81 359.002 290.462 357.743 290.462 357.743C290.462 357.743 299.301 350.102 299.721 346.378C300.141 342.655 297.804 338.942 295.147 345.561C292.489 352.179 288.987 351.765 284.909 352.826C280.832 353.887 274.219 355.942 273.86 358.704C273.501 361.466 275.429 364.5 279.733 364.693C287.715 364.822 295.667 363.669 303.284 361.279C312.571 358.246 319.859 353.887 319.306 356.157C318.754 358.428 304.627 372.56 282.904 373.792C261.181 375.024 249.021 371.704 246.104 366.682C243.187 361.66 237.065 360.24 248.452 349.671C259.838 339.102 269.551 333.097 279.733 332.484C289.915 331.871 307.373 334.616 307.373 334.616Z" fill="#E49E5F"/>
</g>
<path d="M252.026 357.074L255.645 353.732L261.65 353.483L290.683 349.323C291.973 348.01 292.956 346.427 293.561 344.688C294.666 341.649 297.655 339.716 299.561 341.329C301.058 342.583 299.561 346.942 299.561 346.942C299.561 346.942 302.926 340.13 305.594 336.473C308.726 332.169 311.671 334.042 311.671 334.042C311.671 334.042 311.461 334.362 312.682 331.092C314.295 326.766 319.312 328.246 320.041 329.987C325.643 327.269 327.223 332.865 324.842 338.948C323.555 342.207 322.732 345.141 321.047 349.146C319.594 352.61 315.373 358.588 314.163 359.262C310.014 361.549 305.042 365.091 289.18 366.781C279.711 367.798 274.888 367.886 269.065 366.129C262.526 365.656 256.017 364.828 249.568 363.649L252.026 357.074Z" stroke="#302D30" stroke-linecap="round" stroke-linejoin="round"/>
<path d="M257.54 353.655C257.352 357.312 254.645 386.449 267.672 388.786L227.541 382.449L226.74 351.727C226.74 351.727 240.773 352.87 250.955 353.726C253.144 353.983 255.357 353.959 257.54 353.655Z" fill="white"/>
<mask id="mask10_1_5427" style="mask-type:luminance" maskUnits="userSpaceOnUse" x="226" y="351" width="42" height="38">
<path d="M257.54 353.655C257.352 357.312 254.645 386.449 267.672 388.786L227.541 382.449L226.74 351.727C226.74 351.727 240.773 352.87 250.955 353.726C253.144 353.983 255.357 353.959 257.54 353.655Z" fill="white"/>
</mask>
<g mask="url(#mask10_1_5427)">
<path d="M254.932 362.643C240.739 360.019 233.701 368.234 233.226 375.754C232.751 383.273 260.634 376.825 267.672 381.118C274.711 385.411 305.467 402.217 264.357 399.714C223.248 397.211 211.072 397.211 210 378.615C208.928 360.019 204.276 338.931 204.276 338.931L254.341 330.125L273.004 352.898L254.932 362.643Z" fill="#DFDEDE"/>
</g>
<path d="M257.54 353.655C257.352 357.312 254.645 386.449 267.672 388.786L227.541 382.449L226.74 351.727C226.74 351.727 240.773 352.87 250.955 353.726C253.144 353.983 255.357 353.959 257.54 353.655Z" stroke="#302D30" stroke-linecap="round" stroke-linejoin="round"/>
<path d="M319.035 330.755C319.128 330.98 319.166 331.224 319.146 331.467C318.953 332.945 318.582 334.393 318.041 335.782C317.057 338.344 316.318 340.993 315.831 343.693C315.074 347.356 313.141 350.439 311.185 353.638C311.148 353.701 311.137 353.776 311.154 353.847C311.172 353.919 311.217 353.98 311.279 354.019C311.333 354.051 311.396 354.063 311.459 354.054C311.521 354.045 311.578 354.015 311.621 353.969C313.925 351.665 316.107 348.947 317.262 345.798C317.639 344.752 317.951 343.684 318.196 342.599C319.024 339.572 320.61 336.478 321.411 333.412C321.737 332.069 321.997 330.428 321.041 329.185C320.939 329.054 320.813 328.944 320.668 328.862C320.524 328.779 320.365 328.726 320.2 328.706C320.035 328.685 319.868 328.698 319.708 328.742C319.548 328.786 319.398 328.862 319.268 328.965C319.005 329.175 318.835 329.48 318.792 329.814C318.75 330.148 318.839 330.485 319.041 330.755H319.035Z" fill="#302D30"/>
<path d="M310.754 334.931C310.975 335.318 310.887 336.395 310.754 336.998C310.108 340.119 308.583 343.075 307.207 345.937C306.279 347.986 305.472 350.091 304.594 352.014C304.146 353.119 303.417 353.726 302.826 354.588C302.235 355.45 301.55 356.334 300.616 356.798C300.56 356.83 300.517 356.88 300.494 356.941C300.471 357.001 300.47 357.068 300.491 357.129C300.512 357.19 300.553 357.242 300.609 357.275C300.664 357.309 300.729 357.322 300.793 357.312C301.393 357.188 301.958 356.936 302.45 356.572C303.368 355.947 304.135 355.03 304.953 354.362C306.301 353.003 306.859 351.423 307.715 349.843C309.196 346.826 311.03 343.981 312.201 340.832C312.975 338.622 314.362 335.246 312.566 333.125C312.326 332.906 312.012 332.788 311.687 332.793C311.362 332.798 311.052 332.927 310.819 333.153C310.586 333.379 310.448 333.685 310.433 334.009C310.418 334.334 310.527 334.652 310.737 334.898L310.754 334.931Z" fill="#302D30"/>
<path d="M298.439 346.362C297.064 348.936 295.909 351.726 294.329 354.097C293.613 355.209 292.551 356.055 291.307 356.505C289.998 357.141 288.627 357.754 287.274 358.422C287.214 358.45 287.167 358.498 287.139 358.558C287.112 358.618 287.107 358.685 287.124 358.748C287.142 358.812 287.183 358.866 287.237 358.903C287.292 358.939 287.358 358.955 287.423 358.947C290.561 358.594 294.235 357.997 296.08 355.406C298.009 352.936 299.301 350.218 300.699 347.505C300.854 347.206 300.883 346.857 300.78 346.536C300.678 346.215 300.452 345.948 300.152 345.793C299.852 345.638 299.504 345.609 299.183 345.712C298.861 345.814 298.594 346.04 298.439 346.34V346.362Z" fill="#302D30"/>
<path d="M279.379 349.218C275.783 350.097 272.081 352.356 270.772 356.014C270.468 356.677 269.755 360.284 270.855 360.135C270.941 360.124 271.022 360.089 271.089 360.033C271.155 359.977 271.205 359.903 271.23 359.82C271.536 358.78 271.98 357.786 272.551 356.865C274.291 354.13 277.307 352.826 280.153 351.472C280.419 351.347 280.63 351.127 280.745 350.855C280.86 350.583 280.871 350.278 280.775 349.999C280.679 349.72 280.484 349.486 280.226 349.342C279.969 349.198 279.667 349.154 279.379 349.218Z" fill="#302D30"/>
<path d="M158.316 170.339V193.725C158.316 193.725 162.952 296.971 162.642 339.799L174.299 338.141L179.487 337.252C179.796 294.424 176.266 193.72 176.266 193.72V170.339" stroke="#302D30" stroke-linecap="round" stroke-linejoin="round"/>
<path d="M82.8655 457.359L31.5964 458.464C31.5964 458.464 37.1984 348.522 38.1652 335.075C39.132 321.628 44.0766 280.231 47.85 246.95C51.093 218.321 53.2477 206.504 56.441 202.985C81.9153 230.371 90.5449 294.617 90.5449 294.617L82.8655 457.359Z" fill="white"/>
<mask id="mask11_1_5427" style="mask-type:luminance" maskUnits="userSpaceOnUse" x="31" y="202" width="60" height="257">
<path d="M82.8656 457.359L31.5964 458.464C31.5964 458.464 37.1984 348.522 38.1653 335.075C39.1321 321.628 44.0767 280.231 47.8501 246.95C51.0931 218.321 53.2477 206.504 56.441 202.985C81.9154 230.371 90.545 294.617 90.545 294.617L82.8656 457.359Z" fill="white"/>
</mask>
<g mask="url(#mask11_1_5427)">
<path d="M53.9438 208.128C45.7672 245.956 43.6512 308.999 43.2921 350.483C42.933 391.968 36.5298 437.912 40.7231 446.851C44.9163 455.79 72.2912 448.464 74.0149 445.309C76.5508 440.663 82.6445 265.243 85.5008 266.199C88.3571 267.154 104.031 386.819 102.075 414.261C100.119 441.702 55.0763 489.142 40.7507 480.971C26.4252 472.8 24.6572 457.425 18.221 419.161C11.7847 380.897 53.9438 208.128 53.9438 208.128Z" fill="#DFDEDE"/>
</g>
<path d="M82.8655 457.359L31.5964 458.464C31.5964 458.464 37.1984 348.522 38.1652 335.075C39.132 321.628 44.0766 280.231 47.85 246.95C51.093 218.321 53.2477 206.504 56.441 202.985C81.9153 230.371 90.5449 294.617 90.5449 294.617L82.8655 457.359Z" stroke="#302D30" stroke-linecap="round" stroke-linejoin="round"/>
<path d="M103.069 243.685H143.864V295.739H103.069V243.685Z" fill="white"/>
<mask id="mask12_1_5427" style="mask-type:luminance" maskUnits="userSpaceOnUse" x="103" y="243" width="41" height="53">
<path d="M103.069 243.685H143.864V295.739H103.069V243.685Z" fill="white"/>
</mask>
<g mask="url(#mask12_1_5427)">
<path d="M148.411 258.182H101.114C101.114 258.182 136.378 261.856 140.339 268.021C144.3 274.187 146.726 282.789 146.726 282.789L148.411 258.182Z" fill="#DFDEDE"/>
</g>
<path d="M103.069 243.685H143.864V295.739H103.069V243.685Z" stroke="#302D30" stroke-linecap="round" stroke-linejoin="round"/>
<path d="M143.864 258.199H103.069" stroke="#302D30" stroke-linecap="round" stroke-linejoin="round"/>
<path d="M103.069 246.183H101.114V251.575H103.069" stroke="#302D30" stroke-linecap="round" stroke-linejoin="round"/>
<path d="M175.996 187.239C187.084 185.444 185.062 178.527 185.062 178.527" stroke="#302D30" stroke-linecap="round" stroke-linejoin="round"/>
<path d="M158.316 187.239C147.228 185.444 131.245 180.77 123.511 171.87" stroke="#302D30" stroke-linecap="round" stroke-linejoin="round"/>
<path d="M158.316 187.239H175.995" stroke="#302D30" stroke-linecap="round" stroke-linejoin="round"/>
<path d="M200.453 113.882C198.978 109.844 195.597 109.91 195.216 111.054C195.216 111.054 194.785 88.8719 189.89 82.6566C184.995 76.4413 160.372 77.7286 160.372 77.7286C160.372 77.7286 135.754 76.4413 130.859 82.6566C125.964 88.8719 125.527 111.054 125.527 111.054C125.152 109.91 121.771 109.844 120.295 113.882C118.412 119.048 120.616 126.191 125.102 130.804C129.588 135.417 129.472 133.174 129.522 130.39C129.522 130.39 136.704 164.765 160.377 164.765C184.051 164.765 191.238 130.39 191.238 130.39C191.282 133.152 191.161 135.417 195.658 130.804C200.155 126.191 202.348 119.048 200.453 113.882Z" fill="#F5B87E"/>
<mask id="mask13_1_5427" style="mask-type:luminance" maskUnits="userSpaceOnUse" x="119" y="77" width="83" height="88">
<path d="M200.453 113.882C198.978 109.844 195.597 109.91 195.216 111.054C195.216 111.054 194.785 88.8719 189.89 82.6566C184.995 76.4413 160.372 77.7286 160.372 77.7286C160.372 77.7286 135.754 76.4413 130.859 82.6566C125.964 88.8719 125.527 111.054 125.527 111.054C125.152 109.91 121.771 109.844 120.295 113.882C118.412 119.048 120.616 126.191 125.102 130.804C129.588 135.417 129.472 133.174 129.522 130.39C129.522 130.39 136.704 164.765 160.377 164.765C184.051 164.765 191.238 130.39 191.238 130.39C191.282 133.152 191.161 135.417 195.658 130.804C200.155 126.191 202.348 119.048 200.453 113.882Z" fill="white"/>
</mask>
<g mask="url(#mask13_1_5427)">
<path d="M154.383 128.152C156.897 129.224 157.383 131.053 160.383 131.053C163.382 131.053 163.869 129.224 166.388 128.152C166.388 128.152 166.515 134.23 160.383 134.23C154.25 134.23 154.383 128.152 154.383 128.152Z" fill="#E49E5F"/>
<path d="M190.299 113.341C190.559 117.39 188.73 123.838 185.155 129.241C181.581 134.644 181.669 137.776 181.669 140.484C181.669 143.191 184.868 146.831 188.299 139.671C191.73 132.511 191.724 119.617 195.255 116.678C198.785 113.739 198.901 114.783 196.873 113.363C194.846 111.943 190.299 113.341 190.299 113.341Z" fill="#E49E5F"/>
<path d="M130.472 113.341C130.212 117.39 132.041 123.838 135.615 129.241C139.19 134.644 139.101 137.776 139.101 140.483C139.101 143.19 134.897 146.561 131.488 139.423C128.08 132.285 130.03 122.395 126.516 119.456C123.002 116.517 121.903 114.783 123.931 113.341C125.958 111.899 130.472 113.341 130.472 113.341Z" fill="#E49E5F"/>
<path d="M104.423 163.229C106.357 156.693 106.13 145.749 105.351 140.064C104.484 133.727 107.473 104.628 107.6 103.396C107.644 103.065 107.816 102.764 108.079 102.557C108.342 102.351 108.676 102.255 109.008 102.291C109.053 102.291 110.113 102.385 113.467 101.888C114.975 97.1645 117.157 93.5458 119.964 91.1149C122.174 77.6457 131.013 61.834 160.383 61.834C189.752 61.834 198.597 77.6291 200.807 91.1149C203.613 93.5458 205.779 97.1645 207.304 101.888C210.663 102.385 211.724 102.291 211.724 102.291C211.893 102.269 212.064 102.281 212.229 102.326C212.393 102.372 212.546 102.45 212.679 102.557C212.814 102.661 212.925 102.792 213.007 102.941C213.088 103.09 213.139 103.255 213.155 103.424C213.282 104.656 216.271 133.754 215.403 140.091C214.624 145.776 214.392 156.726 216.331 163.256C217.862 168.405 219.027 187.079 219.094 187.874C219.116 188.181 219.026 188.485 218.841 188.731C218.657 188.976 218.389 189.146 218.088 189.21C217.788 189.273 217.474 189.225 217.206 189.075C216.938 188.925 216.733 188.683 216.63 188.394C216.519 188.09 205.525 158.295 202.73 150.213C201.194 145.765 200.912 137.848 200.663 130.876C200.492 126.081 200.26 119.517 199.475 118.545C198.873 117.799 197.166 115.899 195.011 113.49C189.398 107.23 180.973 97.8218 178.255 93.6396C175.493 91.717 173.427 90.7391 172.178 90.7391C169.968 90.7391 168.46 92.3082 167.123 93.6949C166.018 94.8551 165.034 95.8605 163.714 95.8605C163.325 95.3499 162.824 94.9359 162.249 94.6509C161.674 94.366 161.041 94.2177 160.399 94.2177C159.757 94.2177 159.124 94.366 158.549 94.6509C157.974 94.9359 157.473 95.3499 157.084 95.8605C155.764 95.8605 154.797 94.8551 153.676 93.6949C152.339 92.3082 150.819 90.7391 148.621 90.7391C147.355 90.7391 145.306 91.717 142.543 93.6396C139.825 97.8218 131.4 107.23 125.787 113.49C123.627 115.899 121.92 117.799 121.323 118.545C120.539 119.517 120.301 126.086 120.135 130.882C119.887 137.865 119.583 145.798 118.069 150.218C115.273 158.301 104.257 188.095 104.169 188.399C104.078 188.643 103.916 188.853 103.702 189.001C103.489 189.149 103.235 189.228 102.976 189.228C102.888 189.229 102.801 189.22 102.716 189.2C102.417 189.138 102.15 188.971 101.964 188.729C101.779 188.486 101.687 188.185 101.705 187.88C101.727 187.051 102.893 168.378 104.423 163.229Z" fill="#E49E5F"/>
</g>
<path d="M200.453 113.882C198.978 109.844 195.597 109.91 195.216 111.054C195.216 111.054 194.785 88.8719 189.89 82.6566C184.995 76.4413 160.372 77.7286 160.372 77.7286C160.372 77.7286 135.754 76.4413 130.859 82.6566C125.964 88.8719 125.527 111.054 125.527 111.054C125.152 109.91 121.771 109.844 120.295 113.882C118.412 119.048 120.616 126.191 125.102 130.804C129.588 135.417 129.472 133.174 129.522 130.39C129.522 130.39 136.704 164.765 160.377 164.765C184.051 164.765 191.238 130.39 191.238 130.39C191.282 133.152 191.161 135.417 195.658 130.804C200.155 126.191 202.348 119.048 200.453 113.882Z" stroke="#302E30" stroke-linecap="round" stroke-linejoin="round"/>
<path d="M155.957 144.152H164.615C165.425 144.152 166.203 144.474 166.777 145.047C167.351 145.62 167.674 146.397 167.675 147.207C167.675 148.019 167.353 148.798 166.779 149.372C166.205 149.946 165.426 150.268 164.615 150.268H155.957C155.147 150.267 154.37 149.944 153.797 149.37C153.224 148.796 152.902 148.018 152.902 147.207C152.904 146.398 153.226 145.621 153.799 145.049C154.371 144.476 155.148 144.154 155.957 144.152Z" fill="#E49E5F"/>
<path d="M191.68 122.888C193.415 118.949 195.122 116.38 196.851 115.418" stroke="#302E30" stroke-linecap="round" stroke-linejoin="round"/>
<path d="M129.091 122.888C127.356 118.949 125.649 116.38 123.92 115.418" stroke="#302E30" stroke-linecap="round" stroke-linejoin="round"/>
<path d="M169.388 140.649C169.388 140.649 167.294 141.29 160.366 141.29C153.438 141.29 151.383 140.649 151.383 140.649" stroke="#302E30" stroke-linecap="round" stroke-linejoin="round"/>
<path d="M155.416 128.153C157.499 129.037 157.902 130.556 160.388 130.556C162.874 130.556 163.278 129.037 165.36 128.153" stroke="#302E30" stroke-linecap="round" stroke-linejoin="round"/>
<path d="M166.029 100.557C165.598 103.148 164.764 107.109 164.753 108.96C164.753 111.28 165.377 114.042 165.907 116.606C166.15 117.772 167.62 116.053 168.67 115.501C171.145 114.186 173.642 115.335 177.598 114.396C181.332 113.529 183.564 113.059 184.515 111.048C182.857 104.816 175.907 105.225 181.073 104.12C186.238 103.015 176.344 100.838 173.018 101.435C169.692 102.032 166.029 100.557 166.029 100.557Z" fill="#E49E5F"/>
<path d="M184.52 111.087C182.31 110.485 180.885 106.988 176.111 106.988C170.123 106.988 168.509 111.562 168.509 111.562C168.509 111.562 169.515 112.568 173.957 112.838C178.399 113.109 183.377 111.292 183.377 111.292" fill="white"/>
<path d="M173.194 109.485C173.193 109.98 173.339 110.465 173.614 110.877C173.888 111.29 174.279 111.611 174.737 111.802C175.194 111.992 175.698 112.042 176.184 111.945C176.67 111.849 177.116 111.61 177.467 111.26C177.817 110.91 178.056 110.463 178.152 109.977C178.248 109.491 178.198 108.988 178.008 108.53C177.818 108.073 177.496 107.682 177.084 107.407C176.672 107.133 176.187 106.987 175.692 106.988C175.029 106.988 174.394 107.251 173.926 107.719C173.458 108.187 173.194 108.823 173.194 109.485Z" fill="#373035" stroke="#302E30" stroke-linecap="round" stroke-linejoin="round"/>
<path d="M184.713 110.374C183.697 109.822 182.747 108.435 181.31 107.402C180.582 106.85 179.768 106.42 178.901 106.131C174.653 104.756 169.084 106.717 167.852 111.33C167.807 111.507 167.834 111.695 167.927 111.853C168.02 112.01 168.172 112.124 168.349 112.17C168.508 112.208 168.675 112.191 168.822 112.122C168.97 112.052 169.09 111.935 169.161 111.789C169.543 111.214 169.996 110.69 170.509 110.231C171.81 109.126 173.419 108.449 175.118 108.29C176.817 108.131 178.523 108.498 180.006 109.341C180.609 109.7 181.205 110.137 181.868 110.617C182.471 111.009 184.752 112.695 185.183 111.203C185.21 111.032 185.177 110.857 185.092 110.707C185.007 110.557 184.874 110.439 184.713 110.374Z" fill="#302E30"/>
<path d="M154.742 100.557C155.173 103.148 156.007 107.109 156.018 108.96C156.018 111.28 155.394 114.042 154.863 116.606C154.62 117.772 153.151 116.053 152.101 115.501C149.626 114.186 147.129 115.335 143.173 114.396C139.439 113.529 137.207 113.059 136.256 111.048C137.914 104.816 144.864 105.225 139.698 104.12C134.533 103.015 144.427 100.838 147.753 101.435C151.079 102.032 154.742 100.557 154.742 100.557Z" fill="#E49E5F"/>
<path d="M136.251 111.087C138.461 110.485 139.886 106.988 144.659 106.988C150.648 106.988 152.261 111.562 152.261 111.562C152.261 111.562 151.256 112.568 146.814 112.838C142.372 113.109 137.422 111.292 137.422 111.292" fill="white"/>
<path d="M147.576 109.485C147.578 109.98 147.432 110.465 147.157 110.877C146.883 111.289 146.492 111.611 146.035 111.801C145.578 111.991 145.075 112.042 144.589 111.946C144.103 111.85 143.657 111.612 143.306 111.262C142.955 110.912 142.717 110.466 142.62 109.981C142.523 109.495 142.572 108.992 142.761 108.534C142.95 108.076 143.271 107.685 143.683 107.41C144.094 107.135 144.578 106.988 145.074 106.988C145.737 106.988 146.372 107.251 146.841 107.719C147.311 108.187 147.575 108.822 147.576 109.485Z" fill="#373035" stroke="#302E30" stroke-linecap="round" stroke-linejoin="round"/>
<path d="M136.444 111.805C138.256 111.44 139.345 110.148 140.764 109.341C142.248 108.498 143.954 108.13 145.653 108.29C147.352 108.449 148.961 109.126 150.261 110.23C150.806 110.716 151.282 111.273 151.676 111.888C151.77 112.016 151.905 112.108 152.058 112.149C152.212 112.19 152.375 112.177 152.52 112.112C152.665 112.048 152.784 111.936 152.856 111.794C152.929 111.653 152.951 111.491 152.919 111.335C151.687 106.722 146.118 104.761 141.869 106.137C141.002 106.426 140.189 106.855 139.461 107.407C138.024 108.44 137.074 109.838 136.057 110.38C135.887 110.447 135.747 110.575 135.665 110.739C135.583 110.902 135.564 111.091 135.612 111.268C135.659 111.445 135.771 111.598 135.924 111.698C136.078 111.798 136.263 111.838 136.444 111.81V111.805Z" fill="#302E30"/>
<path d="M136.814 139.694C142.041 142.384 143.88 145.185 145.101 148.809C146.322 152.434 150.256 153.4 153.731 153.4C157.206 153.4 158.25 150.086 157.129 148.119C156.007 146.152 158.173 145.251 160.41 145.251C162.648 145.251 164.83 146.152 163.725 148.119C162.62 150.086 163.653 153.4 167.123 153.4C170.592 153.4 174.554 152.434 175.752 148.809C176.951 145.185 178.785 142.384 184.012 139.694C189.238 137.003 190.763 130.092 191.746 125.849C191.072 136.307 191.338 150.185 182.183 155.577C174.752 159.953 169.637 163.45 168.371 164.588C167.106 165.726 162.173 166.14 160.455 166.14C158.736 166.14 153.825 165.726 152.543 164.588C151.261 163.45 146.157 159.953 138.731 155.577C129.577 150.185 129.842 136.307 129.168 125.849C130.063 130.092 131.588 136.998 136.814 139.694Z" fill="#423940"/>
<mask id="mask14_1_5427" style="mask-type:luminance" maskUnits="userSpaceOnUse" x="129" y="125" width="63" height="42">
<path d="M136.814 139.694C142.041 142.385 143.88 145.186 145.101 148.81C146.322 152.434 150.256 153.401 153.731 153.401C157.206 153.401 158.25 150.086 157.129 148.119C156.007 146.152 158.173 145.252 160.41 145.252C162.648 145.252 164.83 146.152 163.725 148.119C162.62 150.086 163.653 153.401 167.123 153.401C170.592 153.401 174.554 152.434 175.752 148.81C176.951 145.186 178.785 142.385 184.012 139.694C189.238 137.004 190.763 130.092 191.746 125.849C191.072 136.307 191.338 150.185 182.183 155.578C174.752 159.953 169.637 163.45 168.371 164.588C167.106 165.726 162.173 166.141 160.455 166.141C158.736 166.141 153.825 165.726 152.543 164.588C151.261 163.45 146.157 159.953 138.731 155.578C129.577 150.185 129.842 136.307 129.168 125.849C130.063 130.092 131.588 136.998 136.814 139.694Z" fill="white"/>
</mask>
<g mask="url(#mask14_1_5427)">
<path d="M163.25 145.926C163.555 146.093 163.787 146.368 163.899 146.697C164.012 147.026 163.997 147.386 163.858 147.705C163.451 147.202 163.235 146.572 163.25 145.926Z" fill="#383137"/>
<path d="M156.908 147.688C156.771 147.368 156.758 147.009 156.872 146.681C156.985 146.352 157.216 146.077 157.521 145.909C157.536 146.556 157.318 147.188 156.908 147.688Z" fill="#383137"/>
<path d="M138.654 152.158C146.085 155.843 151.201 158.787 152.466 159.749C153.731 160.71 158.664 161.058 160.377 161.058C162.09 161.058 167.007 160.704 168.294 159.749C169.581 158.793 174.681 155.843 182.106 152.158C191.26 147.616 190.995 135.932 191.669 127.12C190.995 137.583 191.26 151.456 182.106 156.848C174.675 161.224 169.559 164.721 168.294 165.859C167.029 166.997 162.095 167.411 160.377 167.411C158.659 167.411 153.747 166.997 152.466 165.859C151.184 164.721 146.079 161.224 138.654 156.848C129.499 151.456 129.765 137.583 129.091 127.12C129.737 135.932 129.499 147.616 138.654 152.158Z" fill="#383137"/>
</g>
<path d="M136.814 139.694C142.041 142.384 143.88 145.185 145.101 148.809C146.322 152.434 150.256 153.4 153.731 153.4C157.206 153.4 158.25 150.086 157.129 148.119C156.007 146.152 158.173 145.251 160.41 145.251C162.648 145.251 164.83 146.152 163.725 148.119C162.62 150.086 163.653 153.4 167.123 153.4C170.592 153.4 174.554 152.434 175.752 148.809C176.951 145.185 178.785 142.384 184.012 139.694C189.238 137.003 190.763 130.092 191.746 125.849C191.072 136.307 191.338 150.185 182.183 155.577C174.752 159.953 169.637 163.45 168.371 164.588C167.106 165.726 162.173 166.14 160.455 166.14C158.736 166.14 153.825 165.726 152.543 164.588C151.261 163.45 146.157 159.953 138.731 155.577C129.577 150.185 129.842 136.307 129.168 125.849C130.063 130.092 131.588 136.998 136.814 139.694Z" stroke="#302E30" stroke-linecap="round" stroke-linejoin="round"/>
<path d="M147.35 136.689C148.803 135.965 153.029 134.998 155.51 132.926C157.99 130.854 159.018 131.887 160.383 131.887C161.747 131.887 162.78 130.854 165.261 132.926C167.742 134.998 171.968 135.965 173.421 136.689C174.874 137.412 175.388 143.462 176.515 146.727C175.614 144.799 174.576 140.064 173.614 139.18C172.509 138.158 169.83 137.523 166.985 137.363C164.338 137.235 162.128 137.611 160.399 137.611C158.67 137.611 156.466 137.235 153.819 137.363C150.958 137.501 148.295 138.158 147.19 139.18C146.228 140.064 145.19 144.799 144.289 146.727C145.383 143.462 145.919 137.401 147.35 136.689Z" fill="#423940" stroke="#302E30" stroke-linecap="round" stroke-linejoin="round"/>
<path d="M167.393 103.645C166.703 103.17 166.169 102.501 165.858 101.722C165.858 101.722 167.416 101.722 172.824 101.352C178.078 101.004 181.509 101.181 183.172 102.142C184.691 103.021 187.741 106.474 188.227 107.507C188.227 107.507 185.178 102.711 180.493 102.12C175.493 101.496 167.94 104.076 167.393 103.645Z" fill="#423940"/>
<path d="M168.184 102.651C167.736 102.307 167.361 101.879 167.079 101.391L165.836 103.015C170.007 102.96 174.123 102.507 178.211 102.568C179.591 102.529 180.968 102.716 182.288 103.12C183.518 103.815 184.684 104.615 185.774 105.512C186.565 106.114 187.245 106.849 187.785 107.684L188.592 107.242C187.484 105.557 186.155 104.027 184.642 102.695C179.868 98.7612 173.04 101.551 167.653 102.402H167.686C167.866 102.436 168.036 102.513 168.178 102.628L168.184 102.651ZM166.604 104.639C166.846 104.796 167.118 104.902 167.403 104.95C167.688 104.999 167.98 104.989 168.261 104.921C169.918 104.662 171.631 104.236 173.233 103.971C176.758 103.419 180.305 102.739 183.625 104.313C185.31 105.054 186.757 106.245 187.807 107.755C187.873 107.848 187.972 107.914 188.083 107.939C188.194 107.964 188.311 107.948 188.411 107.892C188.511 107.837 188.587 107.747 188.624 107.639C188.662 107.531 188.658 107.413 188.614 107.308C188.144 106.407 187.365 105.407 186.846 104.545C186.271 103.617 185.609 102.746 184.868 101.943C182.017 98.9877 175.686 99.8882 171.946 100.037C170.161 100.17 167.526 100.374 165.764 100.419C165.57 100.425 165.38 100.475 165.208 100.565C165.037 100.656 164.888 100.784 164.773 100.941C164.659 101.097 164.582 101.278 164.547 101.469C164.513 101.66 164.523 101.856 164.576 102.043C164.974 103.081 165.668 103.979 166.57 104.628L166.604 104.639Z" fill="#302E30"/>
<path d="M153.377 103.645C154.068 103.17 154.602 102.501 154.913 101.722C154.913 101.722 153.355 101.722 147.947 101.352C142.693 101.004 139.262 101.181 137.599 102.142C136.079 103.021 133.03 106.474 132.544 107.507C132.544 107.507 135.593 102.711 140.306 102.12C145.278 101.496 152.83 104.076 153.377 103.645Z" fill="#423940"/>
<path d="M154.167 104.639C155.272 103.811 157.443 101.363 155.272 100.479C153.41 100.336 150.692 100.22 148.775 100.048C145.029 99.9047 138.715 98.9931 135.853 101.954C135.113 102.757 134.45 103.628 133.875 104.556C133.361 105.407 132.582 106.407 132.107 107.319C132.063 107.424 132.06 107.542 132.097 107.65C132.135 107.758 132.211 107.848 132.31 107.903C132.41 107.959 132.527 107.975 132.638 107.95C132.75 107.925 132.848 107.859 132.914 107.766C133.964 106.256 135.412 105.065 137.096 104.324C140.411 102.75 143.963 103.429 147.488 103.982C149.107 104.247 150.836 104.673 152.46 104.932C152.741 105 153.033 105.01 153.318 104.961C153.603 104.913 153.875 104.807 154.118 104.65L154.167 104.639ZM152.587 102.65C152.736 102.525 152.919 102.446 153.112 102.424C147.709 101.579 140.908 98.7832 136.124 102.717C134.61 104.049 133.281 105.579 132.173 107.264L132.98 107.706C133.52 106.871 134.2 106.136 134.991 105.534C136.081 104.637 137.248 103.837 138.477 103.142C139.797 102.737 141.174 102.55 142.554 102.59C146.654 102.529 150.759 102.982 154.93 103.037L153.687 101.413C153.414 101.9 153.048 102.328 152.609 102.673L152.587 102.65Z" fill="#302E30"/>
<path d="M195.232 101.209V111.054C195.232 111.054 191.68 115.705 191.68 125.285C191.68 102.778 191.083 104.098 187.548 98.2142C182.758 90.2586 181.321 83.9053 181.321 83.9053L195.232 101.209Z" fill="#383137" stroke="#302E30" stroke-linecap="round" stroke-linejoin="round"/>
<path d="M125.538 101.209V111.054C125.538 111.054 129.091 115.705 129.091 125.285C129.091 102.778 129.687 104.098 133.223 98.2142C138.013 90.2586 139.45 83.9053 139.45 83.9053L125.538 101.209Z" fill="#383137" stroke="#302E30" stroke-linecap="round" stroke-linejoin="round"/>
<path d="M121.146 87.9441C122.804 77.2759 129.555 59.2764 160.372 59.2764C191.188 59.2764 197.978 77.2759 199.597 87.9441C205.409 92.6622 207.105 101.839 207.519 104.805H203.503C200.26 103.872 195.708 102.17 192.128 99.3139C185.874 94.3416 176.658 85.6126 172.134 85.6126C167.609 85.6126 165.631 90.7285 163.67 90.7285C161.709 90.7285 160.355 88.2204 160.355 88.2204C160.355 88.2204 159.007 90.7285 157.04 90.7285C155.073 90.7285 153.112 85.6126 148.576 85.6126C144.041 85.6126 134.836 94.3195 128.582 99.3139C125.002 102.17 120.45 103.872 117.207 104.805H113.191C113.633 101.833 115.334 92.6622 121.146 87.9441Z" fill="white"/>
<mask id="mask15_1_5427" style="mask-type:luminance" maskUnits="userSpaceOnUse" x="113" y="59" width="95" height="46">
<path d="M121.146 87.9441C122.804 77.2759 129.555 59.2764 160.372 59.2764C191.188 59.2764 197.978 77.2759 199.597 87.9441C205.409 92.6622 207.105 101.839 207.519 104.805H203.503C200.26 103.872 195.708 102.17 192.128 99.3139C185.874 94.3416 176.658 85.6126 172.134 85.6126C167.609 85.6126 165.631 90.7285 163.67 90.7285C161.709 90.7285 160.355 88.2204 160.355 88.2204C160.355 88.2204 159.007 90.7285 157.04 90.7285C155.073 90.7285 153.112 85.6126 148.576 85.6126C144.041 85.6126 134.836 94.3195 128.582 99.3139C125.002 102.17 120.45 103.872 117.207 104.805H113.191C113.633 101.833 115.334 92.6622 121.146 87.9441Z" fill="white"/>
</mask>
<g mask="url(#mask15_1_5427)">
<path d="M173.592 86.2095L172.161 85.6128C172.697 85.8117 173.161 86.0161 173.592 86.2095Z" fill="#DFDEDE"/>
<path d="M147.179 86.2095C147.61 86.0161 148.074 85.8172 148.609 85.6128L147.179 86.2095Z" fill="#DFDEDE"/>
<path d="M114.981 102.447C114.981 102.447 115.378 93.7506 119.588 87.9939C119.538 83.8559 121.765 82.0217 123.455 80.624C125.146 79.2262 135.207 72.0552 160.366 72.0552C185.526 72.0552 195.531 79.1931 197.282 80.624C199.033 82.0549 201.216 83.8559 201.149 87.9939C205.354 93.7506 205.757 102.447 205.757 102.447C205.757 102.447 193.326 96.0655 185.222 92.8446C177.802 89.8999 178.233 88.3143 173.559 86.2149C178.763 88.3751 196.542 95.513 198.47 93.0103C198.627 92.7671 198.725 92.4905 198.755 92.2027C198.786 91.9148 198.749 91.6238 198.647 91.3529C193.57 87.2591 182.879 83.1653 168.979 81.9222C167.637 81.8092 166.289 82.0377 165.059 82.5864C163.829 83.1351 162.758 83.9861 161.946 85.0602C161.217 86.0215 160.598 86.7176 160.349 86.7176C160.101 86.7176 159.488 86.0215 158.758 85.0602C157.946 83.9865 156.875 83.1358 155.645 82.5872C154.416 82.0385 153.067 81.8097 151.725 81.9222C137.825 83.1653 127.135 87.2591 122.052 91.3529C121.951 91.6242 121.915 91.9155 121.946 92.2033C121.978 92.4912 122.077 92.7676 122.235 93.0103C124.163 95.513 141.941 88.3751 147.145 86.2149C142.472 88.3198 142.902 89.9054 135.483 92.8446C127.406 96.0655 114.981 102.447 114.981 102.447Z" fill="#DFDEDE"/>
</g>
<path d="M121.146 87.9441C122.804 77.2759 129.555 59.2764 160.372 59.2764C191.188 59.2764 197.978 77.2759 199.597 87.9441C205.409 92.6622 207.105 101.839 207.519 104.805H203.503C200.26 103.872 195.708 102.17 192.128 99.3139C185.874 94.3416 176.658 85.6126 172.134 85.6126C167.609 85.6126 165.631 90.7285 163.67 90.7285C161.709 90.7285 160.355 88.2204 160.355 88.2204C160.355 88.2204 159.007 90.7285 157.04 90.7285C155.073 90.7285 153.112 85.6126 148.576 85.6126C144.041 85.6126 134.836 94.3195 128.582 99.3139C125.002 102.17 120.45 103.872 117.207 104.805H113.191C113.633 101.833 115.334 92.6622 121.146 87.9441Z" stroke="#302E30" stroke-linecap="round" stroke-linejoin="round"/>
<path d="M179.183 88.8774C183.57 93.2972 195.592 97.1645 202.829 98.5678C210.066 99.9711 211.906 99.7113 211.906 99.7113C211.906 99.7113 215.016 129.815 214.16 136.075C213.304 142.334 213.193 153.246 215.127 159.776C216.63 164.848 217.823 191.267 217.823 191.267C217.823 191.267 206.774 154.141 203.934 145.964C201.094 137.788 202.669 116.617 200.464 113.893C198.26 111.17 182.653 94.4021 179.183 88.8774Z" fill="white"/>
<mask id="mask16_1_5427" style="mask-type:luminance" maskUnits="userSpaceOnUse" x="179" y="88" width="39" height="104">
<path d="M179.183 88.8774C183.57 93.2972 195.592 97.1645 202.829 98.5678C210.066 99.9711 211.906 99.7113 211.906 99.7113C211.906 99.7113 215.017 129.815 214.16 136.075C213.304 142.334 213.193 153.246 215.127 159.776C216.63 164.848 217.823 191.267 217.823 191.267C217.823 191.267 206.774 154.141 203.934 145.964C201.094 137.788 202.669 116.617 200.464 113.893C198.26 111.17 182.653 94.4021 179.183 88.8774Z" fill="white"/>
</mask>
<g mask="url(#mask16_1_5427)">
<path d="M202.072 130.561C203.077 142.417 210.232 154.157 215.657 158.229C221.083 162.3 236.303 175.615 225.105 181.029C213.906 186.443 204.111 192.824 201.138 173.626C198.166 154.428 202.072 130.561 202.072 130.561Z" fill="#DFDEDE"/>
</g>
<path d="M179.183 88.8774C183.57 93.2972 195.592 97.1645 202.829 98.5678C210.066 99.9711 211.906 99.7113 211.906 99.7113C211.906 99.7113 215.016 129.815 214.16 136.075C213.304 142.334 213.193 153.246 215.127 159.776C216.63 164.848 217.823 191.267 217.823 191.267C217.823 191.267 206.774 154.141 203.934 145.964C201.094 137.788 202.669 116.617 200.464 113.893C198.26 111.17 182.653 94.4021 179.183 88.8774Z" stroke="#302E30" stroke-linecap="round" stroke-linejoin="round"/>
<path d="M141.588 88.8774C137.201 93.2972 125.179 97.1645 117.942 98.5678C110.704 99.9711 108.865 99.7113 108.865 99.7113C108.865 99.7113 105.754 129.815 106.611 136.075C107.467 142.334 107.577 153.246 105.644 159.776C104.136 164.848 103.18 180.615 103.18 180.615C103.18 180.615 114.014 154.097 116.837 145.953C119.66 137.81 118.102 116.606 120.306 113.882C122.511 111.159 138.118 94.4021 141.588 88.8774Z" fill="white"/>
<mask id="mask17_1_5427" style="mask-type:luminance" maskUnits="userSpaceOnUse" x="103" y="88" width="39" height="93">
<path d="M141.588 88.8774C137.201 93.2972 125.179 97.1645 117.942 98.5678C110.705 99.9711 108.865 99.7113 108.865 99.7113C108.865 99.7113 105.754 129.815 106.611 136.075C107.467 142.334 107.578 153.246 105.644 159.776C104.136 164.848 103.18 180.615 103.18 180.615C103.18 180.615 114.014 154.097 116.837 145.953C119.66 137.81 118.102 116.606 120.306 113.882C122.511 111.159 138.118 94.4021 141.588 88.8774Z" fill="white"/>
</mask>
<g mask="url(#mask17_1_5427)">
<path d="M118.793 130.561C117.787 142.417 110.633 154.157 105.207 158.229C99.7822 162.3 84.5616 175.615 95.7602 181.029C106.959 186.443 116.754 192.824 119.726 173.626C122.699 154.428 118.793 130.561 118.793 130.561Z" fill="#DFDEDE"/>
</g>
<path d="M141.588 88.8774C137.201 93.2972 125.179 97.1645 117.942 98.5678C110.704 99.9711 108.865 99.7113 108.865 99.7113C108.865 99.7113 105.754 129.815 106.611 136.075C107.467 142.334 107.577 153.246 105.644 159.776C104.136 164.848 103.18 180.615 103.18 180.615C103.18 180.615 114.014 154.097 116.837 145.953C119.66 137.81 118.102 116.606 120.306 113.882C122.511 111.159 138.118 94.4021 141.588 88.8774Z" stroke="#302E30" stroke-linecap="round" stroke-linejoin="round"/>
<path d="M160.383 64.0825C191.548 64.0825 197.951 74.353 197.177 79.3639L160.383 74.6182L123.594 79.3639C122.804 74.353 129.223 64.0825 160.383 64.0825Z" fill="#423940" stroke="#302E30" stroke-linecap="round" stroke-linejoin="round"/>
<path d="M124.279 79.0659C126.395 77.3311 136.317 70.7788 160.383 70.7788C184.448 70.7788 194.376 77.3256 196.492 79.0659C198.608 80.8061 200.729 82.6404 199.625 87.9441C193.42 82.8448 179.062 77.7289 160.399 77.7289C141.737 77.7289 127.367 82.8448 121.174 87.9441C120.041 82.6404 122.163 80.7951 124.279 79.0659Z" fill="#423940"/>
<mask id="mask18_1_5427" style="mask-type:luminance" maskUnits="userSpaceOnUse" x="120" y="70" width="80" height="18">
<path d="M124.279 79.0659C126.395 77.3311 136.317 70.7788 160.383 70.7788C184.448 70.7788 194.376 77.3256 196.492 79.0659C198.608 80.8061 200.73 82.6404 199.625 87.9441C193.42 82.8448 179.062 77.7289 160.399 77.7289C141.737 77.7289 127.367 82.8448 121.174 87.9441C120.041 82.6404 122.163 80.7951 124.279 79.0659Z" fill="white"/>
</mask>
<g mask="url(#mask18_1_5427)">
<path d="M121.146 83.9388C127.351 78.8395 141.704 73.7236 160.372 73.7236C179.04 73.7236 193.409 78.8395 199.597 83.9388C199.636 83.762 199.658 83.6017 199.686 83.4304C199.994 84.9227 199.964 86.4652 199.597 87.9442C193.393 82.8449 179.034 77.729 160.372 77.729C141.709 77.729 127.339 82.8449 121.146 87.9442C120.78 86.4652 120.749 84.9227 121.058 83.4304C121.086 83.6017 121.108 83.762 121.146 83.9388Z" fill="#383137"/>
</g>
<path d="M124.279 79.0659C126.395 77.3311 136.317 70.7788 160.383 70.7788C184.448 70.7788 194.376 77.3256 196.492 79.0659C198.608 80.8061 200.729 82.6404 199.625 87.9441C193.42 82.8448 179.062 77.7289 160.399 77.7289C141.737 77.7289 127.367 82.8448 121.174 87.9441C120.041 82.6404 122.163 80.7951 124.279 79.0659Z" stroke="#302E30" stroke-linecap="round" stroke-linejoin="round"/>
</g>
<path d="M473.204 378.695H44.1299C38.3279 378.695 32.526 378.599 26.7348 378.695H25.9748C25.6199 378.695 25.2796 378.836 25.0286 379.087C24.7777 379.338 24.6367 379.678 24.6367 380.033C24.6367 380.388 24.7777 380.728 25.0286 380.979C25.2796 381.23 25.6199 381.371 25.9748 381.371H455.006C460.808 381.371 466.61 381.468 472.401 381.371H473.204C473.558 381.371 473.899 381.23 474.15 380.979C474.401 380.728 474.542 380.388 474.542 380.033C474.542 379.678 474.401 379.338 474.15 379.087C473.899 378.836 473.558 378.695 473.204 378.695Z" fill="#161522"/>
</g>
<defs>
<clipPath id="clip0_1_5427">
<rect width="534" height="382" fill="white"/>
</clipPath>
<clipPath id="clip1_1_5427">
<rect width="389.939" height="759" fill="white" transform="matrix(-1 0 0 1 400 59)"/>
</clipPath>
</defs>
</svg>
