<svg width="534" height="382" viewBox="0 0 534 382" fill="none" xmlns="http://www.w3.org/2000/svg">
<g clip-path="url(#clip0_3594_169827)">
<path d="M84.3294 379.297C84.3294 379.297 4.30018 361.79 0.218217 300.167C-4.47604 229.178 68.251 248.298 56.2432 197.391C42.58 139.382 69.8498 89.2132 120.874 84.9867C171.899 80.7601 214.816 122.501 245.601 73.9826C272.814 31.1665 340.949 3.74379 395.863 28.1904C465.37 59.1145 435.628 137.444 473.363 154.938C511.099 172.432 539.639 217.461 533.051 281.235C526.883 341.132 484.827 380.51 438.417 379.897C415.672 379.609 327.399 380.235 248.073 379.897C165.504 379.597 84.3294 379.297 84.3294 379.297Z" fill="#DEE3FF"/>
<path d="M408.88 189.059H420.043V238.479H408.88V189.059Z" fill="#0A4DD0"/>
<path d="M408.881 238.929H420.044C420.163 238.929 420.277 238.882 420.361 238.798C420.445 238.713 420.492 238.599 420.492 238.479V189.059C420.492 188.94 420.445 188.826 420.361 188.741C420.277 188.657 420.163 188.609 420.044 188.609H408.881C408.762 188.609 408.648 188.657 408.564 188.741C408.48 188.826 408.433 188.94 408.433 189.059V238.479C408.433 238.599 408.48 238.713 408.564 238.798C408.648 238.882 408.762 238.929 408.881 238.929ZM419.596 238.029H409.339V189.509H419.596V238.029Z" fill="#0A4DD0"/>
<path d="M393.006 207.148H404.109V238.478H393.006V207.148Z" fill="#0A4DD0"/>
<path d="M393.005 238.929H404.108C404.228 238.929 404.343 238.882 404.429 238.798C404.514 238.714 404.564 238.599 404.566 238.479V207.149C404.564 207.029 404.514 206.915 404.429 206.83C404.343 206.746 404.228 206.699 404.108 206.699H393.005C392.886 206.699 392.772 206.747 392.688 206.831C392.604 206.915 392.557 207.03 392.557 207.149V238.479C392.557 238.599 392.604 238.713 392.688 238.797C392.772 238.882 392.886 238.929 393.005 238.929ZM403.66 238.029H393.463V207.649H403.66V238.029Z" fill="#0A4DD0"/>
<path d="M377.283 220.781H388.406V238.471H377.283V220.781Z" fill="#0A4DD0"/>
<path d="M377.28 238.928H388.403C388.522 238.928 388.636 238.881 388.72 238.796C388.804 238.712 388.852 238.597 388.852 238.478V220.778C388.852 220.659 388.804 220.544 388.72 220.46C388.636 220.376 388.522 220.328 388.403 220.328H377.28C377.161 220.328 377.047 220.376 376.963 220.46C376.879 220.544 376.832 220.659 376.832 220.778V238.478C376.832 238.597 376.879 238.712 376.963 238.796C377.047 238.881 377.161 238.928 377.28 238.928ZM387.955 238.028H377.738V221.238H387.955V238.028Z" fill="#0A4DD0"/>
<path d="M409.908 189.059H421.031V237.359H409.908V189.059Z" fill="white"/>
<path d="M409.457 237.808H421.477V188.648H409.457V237.808ZM420.57 236.898H410.353V189.508H420.57V236.898Z" fill="#0A4DD0"/>
<path d="M394.033 207.148H405.156V237.358H394.033V207.148Z" fill="white"/>
<path d="M393.584 237.809H405.613V206.699H393.584V237.809ZM404.717 236.899H394.5V207.649H404.717V236.899Z" fill="#0A4DD0"/>
<path d="M378.306 220.781H389.43V237.351H378.306V220.781Z" fill="white"/>
<path d="M377.829 237.808H389.879V220.328H377.829V237.808ZM388.943 236.898H378.726V221.238H388.973L388.943 236.898Z" fill="#0A4DD0"/>
<path d="M421.03 237.352H409.906V189.052H421.03V237.352Z" fill="#A6B5FF"/>
<path d="M409.905 237.809H421.028C421.147 237.809 421.261 237.762 421.345 237.678C421.429 237.593 421.477 237.479 421.477 237.359V189.059C421.477 188.94 421.429 188.826 421.345 188.741C421.261 188.657 421.147 188.609 421.028 188.609H409.905C409.786 188.609 409.672 188.657 409.588 188.741C409.504 188.826 409.457 188.94 409.457 189.059V237.359C409.457 237.479 409.504 237.593 409.588 237.678C409.672 237.762 409.786 237.809 409.905 237.809ZM420.57 236.899H410.353V189.509H420.57V236.899Z" fill="#0A4DD0"/>
<path d="M427.403 180.34H438.566V238.47H427.403V180.34Z" fill="#0A4DD0"/>
<path d="M427.402 238.82H438.575C438.665 238.82 438.751 238.784 438.815 238.72C438.878 238.657 438.914 238.57 438.914 238.48V180.34C438.914 180.25 438.878 180.163 438.815 180.1C438.751 180.036 438.665 180 438.575 180H427.412C427.322 180 427.236 180.036 427.173 180.1C427.109 180.163 427.074 180.25 427.074 180.34V238.48C427.073 238.568 427.108 238.653 427.169 238.717C427.23 238.78 427.314 238.817 427.402 238.82ZM438.227 238.14H427.741V180.65H438.227V238.14Z" fill="#0A4DD0"/>
<path d="M428.427 180.488H439.551V237.358H428.427V180.488Z" fill="#FFB6C6"/>
<path d="M427.98 237.809H440V180.039H427.98V237.809ZM439.094 236.899H428.876V180.899H439.094V236.899Z" fill="#0A4DD0"/>
<path d="M405.155 237.352H394.031V207.142H405.155V237.352Z" fill="#FF7593"/>
<path d="M393.584 237.809H405.613V206.699H393.584V237.809ZM404.717 236.899H394.5V207.649H404.717V236.899Z" fill="#0A4DD0"/>
<path d="M378.306 220.781H389.43V237.351H378.306V220.781Z" fill="#FFB6C6"/>
<path d="M377.829 237.808H389.879V220.328H377.829V237.808ZM388.943 236.898H378.726V221.238H388.973L388.943 236.898Z" fill="#0A4DD0"/>
<path d="M361.447 231.301H372.57V238.551H361.447V231.301Z" fill="#0A4DD0"/>
<path d="M361.448 239.002H372.571C372.63 239.002 372.689 238.99 372.743 238.967C372.797 238.945 372.847 238.912 372.888 238.87C372.93 238.828 372.963 238.778 372.985 238.724C373.008 238.669 373.02 238.611 373.02 238.552V231.302C373.02 231.242 373.008 231.184 372.985 231.129C372.963 231.075 372.93 231.025 372.888 230.983C372.847 230.942 372.797 230.908 372.743 230.886C372.689 230.863 372.63 230.852 372.571 230.852H361.448C361.329 230.852 361.215 230.899 361.131 230.983C361.047 231.068 361 231.182 361 231.302V238.552C361 238.671 361.047 238.785 361.131 238.87C361.215 238.954 361.329 239.002 361.448 239.002ZM372.113 238.092H361.896V231.762H372.113V238.092Z" fill="#0A4DD0"/>
<path d="M362.474 231.301H373.598V238.051H362.474V231.301Z" fill="white"/>
<path d="M362.027 238.512H374.047V230.852H362.027V238.512ZM373.141 237.652H362.893V231.812H373.141V237.652Z" fill="#0A4DD0"/>
<path d="M362.474 231.301H373.598V238.051H362.474V231.301Z" fill="#A6B5FF"/>
<path d="M362.475 238.512H373.599C373.718 238.509 373.832 238.459 373.916 238.373C374 238.287 374.047 238.172 374.047 238.052V231.302C374.047 231.182 374 231.068 373.916 230.983C373.832 230.899 373.718 230.852 373.599 230.852H362.475C362.356 230.852 362.242 230.899 362.158 230.983C362.074 231.068 362.027 231.182 362.027 231.302V238.052C362.027 238.172 362.074 238.287 362.158 238.373C362.241 238.459 362.355 238.509 362.475 238.512ZM373.141 237.652H362.893V231.812H373.141V237.652Z" fill="#0A4DD0"/>
<path d="M395.55 162.195L402.637 167.826L403.073 168.173L402.681 168.57L399.316 171.967L399.315 171.968L389.264 182.161C389.264 182.161 389.264 182.161 389.263 182.161C387.196 184.265 385.126 186.365 383.057 188.466C378.429 193.162 373.803 197.857 369.206 202.58C368.323 203.488 367.641 204.239 367.142 204.887C366.641 205.537 366.345 206.056 366.208 206.5C366.076 206.927 366.088 207.291 366.224 207.659C366.366 208.043 366.655 208.461 367.133 208.963C367.626 209.48 368.056 209.71 368.447 209.773C368.837 209.837 369.267 209.747 369.787 209.469C370.311 209.187 370.892 208.732 371.565 208.114C372.235 207.499 372.972 206.745 373.814 205.883C378.417 201.168 382.989 196.426 387.562 191.683C389.605 189.564 391.649 187.444 393.696 185.326L395.55 162.195ZM395.55 162.195L417.204 157.526L415.001 178.588L407.365 171.822L407.005 171.503L406.672 171.85L403.618 175.037L403.617 175.038L393.696 185.326L395.55 162.195Z" fill="#A6B5FF" stroke="#0A4DD0"/>
<path d="M455.898 379.541C462.321 379.777 488.29 385.472 487.862 364.341C487.648 353.55 490.795 353.946 497.111 349.718C503.426 345.49 503.287 342.781 502.731 336.744C502.174 330.707 508.201 333.629 512.204 325.686C517 316.191 511.23 309.094 501.906 307.392C492.583 305.69 492.861 315.742 489.146 318.739C485.432 321.736 480.326 315.292 473.207 324.027C468.561 329.732 475.776 342.749 468.925 341.529" fill="white"/>
<path d="M455.898 379.541C462.321 379.777 488.29 385.472 487.862 364.341C487.648 353.55 490.795 353.946 497.111 349.718C503.426 345.49 503.287 342.781 502.731 336.744C502.174 330.707 508.201 333.629 512.204 325.686C517 316.191 511.23 309.094 501.906 307.392C492.583 305.69 492.861 315.742 489.146 318.739C485.432 321.736 480.326 315.292 473.207 324.027C468.561 329.732 475.776 342.749 468.925 341.529" stroke="#7189FF" stroke-miterlimit="10"/>
<path d="M468.114 360.725C477.227 348.429 486.818 336.504 496.888 324.95C497.573 324.169 498.707 325.304 498.022 326.085C488.031 337.503 478.526 349.321 469.505 361.539C468.895 362.363 467.503 361.539 468.114 360.725Z" fill="#7189FF"/>
<path d="M483.591 324.392L484.597 339.474L484.736 341.615L483.933 340.813L497.764 341.947C498.834 342.033 498.834 343.639 497.764 343.553L483.922 342.408C483.711 342.402 483.51 342.316 483.361 342.166C483.211 342.017 483.125 341.816 483.12 341.605L482.113 326.522L481.974 324.381C481.899 323.311 483.505 323.311 483.58 324.381L483.591 324.392Z" fill="#7189FF"/>
<path d="M497.313 254.579C508.885 245.148 511.658 216.042 495.173 207.2C474.834 196.271 453.424 213.184 450.77 230.579C448.693 243.992 458.081 253.369 433.642 263.196C409.204 273.023 412.993 285.248 418.014 308.605C423.034 331.963 406.527 323.399 393.693 343.117C383.534 358.746 397.814 374.685 404.183 380.583L454.152 380.401C455.777 379.451 457.327 378.377 458.787 377.19C474.919 364.012 468.539 343.17 466.827 326.953C464.504 304.794 490.27 317.244 500.3 294.7C510.33 272.156 485.752 263.999 497.313 254.579Z" fill="white" stroke="#7189FF" stroke-miterlimit="10"/>
<path d="M412.973 379.878C414.971 375.447 416.98 371.018 419 366.594C423.995 355.654 428.991 344.717 433.986 333.784C440.409 319.84 446.832 305.924 453.255 292.036C459.506 278.613 465.822 265.221 472.202 251.862C476.708 242.474 481.194 233.064 486.118 223.901L487.274 221.76C487.777 220.861 489.169 221.664 488.666 222.574C483.955 230.988 479.813 239.701 475.617 248.415C469.322 261.474 463.146 274.566 457.087 287.69C450.507 301.685 443.995 315.733 437.551 329.834C432.284 341.31 427.035 352.792 421.804 364.282L416.795 375.318C416.024 377.01 415.371 378.84 414.461 380.467C414.423 380.539 414.39 380.614 414.365 380.692C413.937 381.634 412.556 380.82 412.973 379.878Z" fill="#7189FF"/>
<path d="M459.313 280.848L488.376 279.35L492.412 279.125C492.925 279.125 492.925 279.906 492.412 279.928L463.359 281.469L459.27 281.694C458.756 281.694 458.756 280.913 459.27 280.891L459.313 280.848Z" fill="#7189FF"/>
<path d="M425.849 353.239L458.487 349.728L463.123 349.225C463.636 349.172 463.626 349.975 463.123 350.028L430.484 353.55L425.849 354.042C425.346 354.096 425.346 353.293 425.849 353.239Z" fill="#7189FF"/>
<path d="M423.709 274.33L430.325 288.471L440.762 311.037L443.171 316.228C443.385 316.699 442.689 317.106 442.475 316.635L435.902 302.494L425.422 279.929L423.003 274.737C422.789 274.266 423.474 273.859 423.699 274.33H423.709Z" fill="#7189FF"/>
<path d="M470.564 226.733C468.947 229.013 466.121 229.881 464.258 228.671C462.396 227.461 462.203 224.625 463.83 222.334C465.457 220.043 468.273 219.187 470.135 220.407C471.998 221.627 472.18 224.453 470.564 226.733Z" fill="#7189FF"/>
<path d="M483.846 299.646C481.398 299.646 479.414 297.748 479.414 295.407C479.414 293.066 481.398 291.168 483.846 291.168C486.293 291.168 488.277 293.066 488.277 295.407C488.277 297.748 486.293 299.646 483.846 299.646Z" fill="#7189FF"/>
<path d="M392.011 379.843C391.883 380.132 407.876 370.08 407.469 354.665C407.062 339.251 389.988 344.924 386.595 337.806C383.202 330.687 390.277 324.189 384.4 315.893C377.132 305.606 369.414 317.349 368.408 303.412C367.583 291.326 355.883 297.128 351.28 289.881C346.677 282.634 337.289 278.106 329.711 285.599C321.65 293.521 325.354 302.427 330.278 309.749C335.202 317.071 330.556 319.907 333.222 327.947C335.887 335.986 351.152 335.943 351.28 344.26C351.409 352.578 345.243 363.454 352.212 371.268C356.198 375.848 361.391 379.216 367.198 380.988L392.011 379.843Z" fill="#7189FF"/>
<path d="M385.181 379.092C381.06 370.678 377.249 362.103 373.321 353.593C368.065 342.236 362.777 330.878 357.178 319.681C354.663 314.682 352.115 309.683 349.278 304.844C349.226 304.752 349.212 304.643 349.24 304.54C349.268 304.438 349.336 304.351 349.428 304.299C349.52 304.246 349.63 304.232 349.732 304.26C349.834 304.288 349.921 304.356 349.974 304.448C355.497 313.879 360.175 323.813 364.875 333.672C370.066 344.58 375.098 355.574 380.172 366.546C382.045 370.603 383.908 374.671 385.877 378.696C386.102 379.156 385.417 379.563 385.181 379.092Z" fill="white"/>
<path d="M345.361 324.834L359.17 326.269L361.162 326.472C361.675 326.526 361.675 327.329 361.162 327.275L347.353 325.841L345.361 325.637C344.848 325.637 344.848 324.781 345.361 324.834Z" fill="white"/>
<path d="M379.938 318.277L369.661 344.75" stroke="white" stroke-width="0.75" stroke-miterlimit="10" stroke-linecap="round"/>
<path d="M351.248 317.37C351.322 317.889 351.236 318.417 351.001 318.885C350.767 319.353 350.395 319.739 349.935 319.989C349.476 320.24 348.951 320.345 348.43 320.289C347.91 320.233 347.419 320.02 347.023 319.677C346.627 319.334 346.345 318.879 346.216 318.372C346.086 317.865 346.114 317.33 346.296 316.839C346.479 316.349 346.806 315.925 347.236 315.626C347.666 315.327 348.176 315.166 348.7 315.165C349.329 315.124 349.949 315.332 350.426 315.745C350.903 316.158 351.198 316.742 351.248 317.37Z" fill="white"/>
<path d="M360.432 304.688C360.18 305.125 359.805 305.477 359.353 305.7C358.901 305.923 358.393 306.007 357.893 305.941C357.393 305.875 356.924 305.662 356.546 305.33C356.167 304.998 355.895 304.561 355.765 304.074C355.634 303.587 355.651 303.072 355.813 302.595C355.976 302.118 356.276 301.7 356.676 301.393C357.076 301.086 357.558 300.905 358.06 300.873C358.563 300.84 359.065 300.957 359.501 301.209C359.792 301.376 360.046 301.598 360.251 301.863C360.455 302.128 360.604 302.432 360.691 302.755C360.778 303.078 360.799 303.416 360.755 303.747C360.711 304.079 360.601 304.399 360.432 304.688Z" fill="white"/>
<path d="M367.166 355.308C367.26 355.955 367.154 356.614 366.863 357.199C366.571 357.784 366.109 358.266 365.536 358.582C364.964 358.897 364.309 359.029 363.659 358.963C363.009 358.896 362.395 358.632 361.899 358.207C361.402 357.782 361.048 357.215 360.882 356.583C360.716 355.951 360.747 355.284 360.97 354.67C361.194 354.056 361.599 353.525 362.132 353.147C362.666 352.769 363.301 352.564 363.955 352.557C364.347 352.525 364.741 352.571 365.115 352.692C365.489 352.813 365.835 353.007 366.134 353.263C366.433 353.519 366.678 353.831 366.855 354.182C367.032 354.533 367.138 354.916 367.166 355.308Z" fill="white"/>
<path d="M473.204 378.695H44.1299C38.3279 378.695 32.526 378.599 26.7348 378.695H25.9748C25.6199 378.695 25.2796 378.836 25.0286 379.087C24.7777 379.338 24.6367 379.678 24.6367 380.033C24.6367 380.388 24.7777 380.728 25.0286 380.979C25.2796 381.23 25.6199 381.371 25.9748 381.371H455.006C460.808 381.371 466.61 381.468 472.401 381.371H473.204C473.558 381.371 473.899 381.23 474.15 380.979C474.401 380.728 474.542 380.388 474.542 380.033C474.542 379.678 474.401 379.338 474.15 379.087C473.899 378.836 473.558 378.695 473.204 378.695Z" fill="#161522"/>
<path d="M475.504 129.499C475.504 129.499 446.534 99.2366 476.786 77.3083C507.038 55.3801 541.197 95.3495 533.26 124.838C525.323 154.327 485.679 145.779 475.504 129.499Z" fill="#DEE3FF"/>
<path d="M59.9065 53.8222C59.9065 53.8222 34.1726 44.6642 42.7506 19.2254C51.3286 -6.2134 90.779 -6.85447 92.7938 19.9784C93.7096 32.189 86.7597 61.8405 59.9065 53.8222Z" fill="#DEE3FF"/>
<path d="M281.979 33.9219H273.188V295.363H281.979V33.9219Z" fill="#FFC9D5"/>
<path d="M369.494 345.496H185.672V356.628H369.494V345.496Z" fill="#FFC9D5"/>
<path d="M388.884 356.629H166.285V367.761H388.884V356.629Z" fill="#EAAAB8"/>
<path d="M407.43 367.758H147.75V378.89H407.43V367.758Z" fill="#FFC9D5"/>
<path d="M402.378 57.289L154.836 2.39062L152.805 11.5505L400.347 66.4489L402.378 57.289Z" fill="#FFC9D5"/>
<path d="M92.668 185.372L151.981 6.83203L211.283 185.372" stroke="#2C3C8D" stroke-width="2.41" stroke-miterlimit="10"/>
<path d="M345.449 243.372L404.751 64.832L464.064 243.372" stroke="#2C3C8D" stroke-width="2.41" stroke-miterlimit="10"/>
<path d="M151.981 229.151C186.187 229.151 213.93 209.074 213.93 184.316H90C90 209.129 117.765 229.151 151.981 229.151Z" fill="#FFC9D5"/>
<path d="M203.596 184.301C195.373 202.103 172.19 214.92 144.841 214.92C121.8 214.92 101.701 205.8 91.0391 192.273C96.2443 213.236 121.538 229.135 151.981 229.135C186.187 229.135 213.93 209.058 213.93 184.301H203.596Z" fill="#EAAAB8"/>
<path d="M404.761 287.151C438.966 287.151 466.698 267.074 466.698 242.316H342.812C342.812 267.129 370.544 287.151 404.761 287.151Z" fill="#FFC9D5"/>
<path d="M456.33 242.301C448.118 260.103 424.924 272.92 397.586 272.92C374.534 272.92 354.446 263.8 343.773 250.273C348.99 271.236 374.283 287.135 404.727 287.135C438.932 287.135 466.664 267.058 466.664 242.301H456.33Z" fill="#EAAAB8"/>
<path d="M159.812 6.82967C159.812 8.37823 159.352 9.89201 158.492 11.1796C157.632 12.4672 156.409 13.4707 154.978 14.0633C153.548 14.6559 151.973 14.811 150.455 14.5089C148.936 14.2068 147.541 13.4611 146.446 12.3661C145.351 11.2711 144.605 9.87596 144.303 8.35715C144.001 6.83835 144.156 5.26407 144.748 3.83338C145.341 2.4027 146.345 1.17987 147.632 0.319535C148.92 -0.540799 150.433 -1 151.982 -1C154.058 -0.997107 156.048 -0.17127 157.515 1.29645C158.983 2.76417 159.809 4.754 159.812 6.82967Z" fill="#2C3C8D"/>
<path d="M404.752 72.6593C409.076 72.6593 412.581 69.1539 412.581 64.8297C412.581 60.5055 409.076 57 404.752 57C400.427 57 396.922 60.5055 396.922 64.8297C396.922 69.1539 400.427 72.6593 404.752 72.6593Z" fill="#2C3C8D"/>
<path d="M277.586 287.152C262.112 287.155 247.273 293.304 236.333 304.247C225.392 315.189 219.246 330.029 219.246 345.503H335.937C335.937 337.84 334.427 330.253 331.495 323.173C328.562 316.094 324.264 309.661 318.846 304.243C313.428 298.825 306.995 294.526 299.916 291.594C292.836 288.662 285.249 287.152 277.586 287.152Z" fill="#A6B5FF"/>
<path opacity="0.22" d="M259.806 322.179C270.309 315.475 275.772 305.262 272.009 299.367C268.246 293.472 256.682 294.127 246.18 300.831C235.678 307.534 230.214 317.748 233.977 323.643C237.74 329.538 249.304 328.882 259.806 322.179Z" fill="white"/>
<path d="M324.951 29.8447L239.653 10.8685C236.876 10.2508 234.124 12.0009 233.507 14.7776L229.253 33.8953C228.636 36.672 230.386 39.4237 233.163 40.0414L318.461 59.0176C321.238 59.6353 323.99 57.8852 324.607 55.1085L328.86 35.9907C329.478 33.2141 327.728 30.4624 324.951 29.8447Z" fill="#A6B5FF"/>
<path d="M249.068 207.731C249.068 207.731 269.621 169.901 273.617 163.327C277.613 156.753 282.296 152.74 284.585 155.334C286.874 157.928 284.359 166.422 284.359 166.422C284.359 166.422 292.843 153.346 296.943 148.684C301.044 144.023 307.329 143.042 304.226 151.195C304.226 151.195 308.194 144.97 311.215 145.915C314.236 146.86 311.253 152.078 308.378 155.101C308.378 155.101 313.937 147.429 316.618 148.901C319.299 150.373 316.492 155.061 313.205 159.102C313.205 159.102 317.083 153.306 320.112 154.847C323.141 156.388 319.249 161.916 314.995 169.04C310.741 176.163 303.112 186.628 299.164 193.86C296.177 199.325 287.677 216.222 287.677 216.222L286.033 220.296L249.068 207.731Z" fill="#B86955"/>
<path d="M283.695 154.633C283.695 154.633 285.517 154.937 285.421 159.639C285.325 164.341 283.257 171.057 284.182 175.082C285.106 179.106 283.069 185.33 283.069 185.33" stroke="#903E3E" stroke-width="0.75" stroke-miterlimit="10" stroke-linecap="round"/>
<path d="M293.359 166.316L306.248 148.728" stroke="#903E3E" stroke-width="0.75" stroke-miterlimit="10" stroke-linecap="round"/>
<path d="M297.563 168.683L310.912 151.742" stroke="#903E3E" stroke-width="0.75" stroke-miterlimit="10" stroke-linecap="round"/>
<path d="M302.798 171.796L315.687 156.221" stroke="#903E3E" stroke-width="0.75" stroke-miterlimit="10" stroke-linecap="round"/>
<path d="M250.732 197.695L201.23 255.886L208.344 247.527L150.477 192.219C150.477 192.219 152.247 292.684 154.553 305.549C156.858 318.414 194.756 348.665 238.803 327.296C282.849 305.928 293.937 219.55 293.937 219.55L250.732 197.695Z" fill="#0A4DD0"/>
<path d="M238.483 212.077L289.891 240.652C292.795 228.18 293.916 219.555 293.916 219.555L250.732 197.701L238.483 212.077Z" stroke="#16004D" stroke-miterlimit="10" stroke-linecap="round"/>
<path d="M289.155 217.423L283.179 236.466" stroke="#16004D" stroke-miterlimit="10" stroke-linecap="round"/>
<path d="M282.489 213.773C282.238 213.994 274.658 232.101 274.658 232.101" stroke="#16004D" stroke-miterlimit="10" stroke-linecap="round"/>
<path d="M274.825 209.899L265.262 226.528" stroke="#16004D" stroke-miterlimit="10" stroke-linecap="round"/>
<path d="M266.669 205.774L256.952 221.885" stroke="#16004D" stroke-miterlimit="10" stroke-linecap="round"/>
<path d="M248.027 217.362L258.015 202.057" stroke="#16004D" stroke-miterlimit="10" stroke-linecap="round"/>
<path d="M293.917 219.559L250.712 197.704L201.21 255.916" stroke="#16004D" stroke-miterlimit="10" stroke-linecap="round"/>
<path d="M208.324 247.527L150.457 192.219" stroke="#16004D" stroke-miterlimit="10" stroke-linecap="round"/>
<path d="M130.45 181.112C130.45 181.112 171.76 185.159 189.256 240.773C206.753 296.388 215.977 379.873 215.977 379.873L53.0338 381.191C53.0338 381.191 43.807 194.113 130.45 181.112Z" fill="#0A4DD0" stroke="#16004D" stroke-miterlimit="10"/>
<path d="M173.266 342.808L233.019 359.085L256.766 380.173L147.468 377.943L173.266 342.808Z" fill="#B86955"/>
<path d="M217.926 362.883L240.169 365.062" stroke="#903E3E" stroke-width="0.75" stroke-miterlimit="10" stroke-linecap="round"/>
<path d="M219.367 371.75L247.547 372.921" stroke="#903E3E" stroke-width="0.75" stroke-miterlimit="10" stroke-linecap="round"/>
<path d="M187.619 331.965L99.4488 303.031L108.891 242.995L115.67 182.555C115.67 182.555 77.7775 190.266 40.7806 243.68C33.4363 254.509 26.7056 265.743 20.6204 277.327C-4.39181 325.274 -2.12302 346.972 9.0429 360.49C16.6599 369.745 28.1074 375.505 48.538 375.922L188.164 378.771L187.619 331.965Z" fill="#0A4DD0"/>
<path d="M74.8623 294.971L187.621 331.967L188.166 378.772L48.5398 375.923C12.1549 375.181 -3.83299 356.367 4.07345 320.231" stroke="#16004D" stroke-miterlimit="10" stroke-linecap="round"/>
<path d="M92.1645 300.641L111.275 252.983" stroke="#16004D" stroke-miterlimit="10" stroke-linecap="round"/>
<path d="M169.09 325.875L168.019 378.358" stroke="#16004D" stroke-miterlimit="10" stroke-linecap="round"/>
<path d="M168.887 335.875L186.899 338.05" stroke="#16004D" stroke-miterlimit="10" stroke-linecap="round"/>
<path d="M169.156 346.785L187.619 348.025" stroke="#16004D" stroke-miterlimit="10" stroke-linecap="round"/>
<path d="M168.469 356.477L187.703 357.136" stroke="#16004D" stroke-miterlimit="10" stroke-linecap="round"/>
<path d="M168.289 365.133L187.791 365.757" stroke="#16004D" stroke-miterlimit="10" stroke-linecap="round"/>
<path d="M168.148 372.098L188.086 372.504" stroke="#16004D" stroke-miterlimit="10" stroke-linecap="round"/>
<path d="M147.957 182.744C145.103 180.632 138.321 174.783 136.099 174.922C133.878 175.062 124.264 171.024 117.853 178.186C110.117 186.84 106.355 201.061 112.919 209.596C118.163 216.359 129.553 213.88 137.584 208.867C146.063 213.148 155.261 212.33 159.468 206.499C164.413 199.719 157.37 189.53 147.957 182.744Z" fill="white" stroke="#16004D" stroke-miterlimit="10"/>
<path d="M152.937 112.96L138.276 112.661C128.544 112.463 120.392 121.376 120.165 132.484L120.023 139.466C118.065 138.016 115.706 137.207 113.27 137.15C111.453 137.118 109.653 137.514 108.016 138.307C106.38 139.099 104.953 140.266 103.851 141.712C102.75 143.158 102.004 144.843 101.674 146.631C101.344 148.419 101.44 150.259 101.954 152.004C102.467 153.748 103.384 155.346 104.63 156.67C105.876 157.994 107.416 159.006 109.126 159.625C110.836 160.243 112.667 160.45 114.472 160.229C116.276 160.008 118.004 159.366 119.514 158.354L119.696 158.481L119.185 183.531C119.162 186.212 120.189 188.796 122.046 190.73C123.902 192.664 126.442 193.795 129.121 193.882L135.569 194.013C138.25 194.036 140.833 193.009 142.767 191.152C144.701 189.296 145.833 186.756 145.919 184.077L146.087 175.863L151.651 175.977C161.405 176.176 169.557 167.263 169.783 156.175L170.246 133.506C170.472 122.398 162.69 113.159 152.937 112.96Z" fill="#B86955"/>
<path d="M119.303 150.377C119.303 150.377 119.976 142.544 111.889 143.242" stroke="#903E3E" stroke-miterlimit="10" stroke-linecap="round"/>
<path d="M140.772 140.317C140.759 140.971 140.94 141.614 141.292 142.165C141.644 142.716 142.152 143.15 142.751 143.413C143.349 143.675 144.013 143.754 144.656 143.64C145.3 143.525 145.896 143.222 146.367 142.769C146.839 142.317 147.166 141.734 147.306 141.096C147.447 140.457 147.395 139.791 147.157 139.182C146.92 138.573 146.506 138.048 145.97 137.674C145.434 137.299 144.799 137.093 144.145 137.079C143.269 137.061 142.421 137.392 141.788 138C141.156 138.607 140.79 139.44 140.772 140.317Z" fill="black"/>
<path d="M162.404 140.223C162.388 140.785 162.54 141.339 162.84 141.814C163.14 142.289 163.575 142.665 164.089 142.892C164.603 143.12 165.174 143.189 165.727 143.092C166.281 142.995 166.793 142.735 167.199 142.345C167.604 141.956 167.885 141.455 168.005 140.906C168.125 140.356 168.079 139.784 167.872 139.261C167.666 138.738 167.309 138.288 166.846 137.969C166.383 137.649 165.836 137.475 165.274 137.468C164.529 137.458 163.811 137.741 163.274 138.257C162.737 138.772 162.424 139.479 162.404 140.223Z" fill="black"/>
<path d="M129.024 152.241C128.991 153.865 129.44 155.463 130.315 156.832C131.19 158.201 132.451 159.28 133.939 159.932C135.427 160.584 137.075 160.781 138.675 160.496C140.275 160.212 141.754 159.46 142.926 158.334C144.098 157.209 144.91 155.762 145.26 154.175C145.609 152.588 145.48 150.933 144.889 149.42C144.298 147.907 143.272 146.602 141.94 145.672C140.607 144.742 139.029 144.228 137.405 144.195C135.226 144.15 133.12 144.973 131.548 146.482C129.976 147.991 129.068 150.062 129.024 152.241Z" fill="#B25555"/>
<path d="M168.475 146.78C168.959 146.798 169.44 146.87 169.909 146.994L169.735 155.515C169.74 156.754 169.618 157.991 169.372 159.205C168.991 159.262 168.605 159.289 168.22 159.285C166.562 159.251 164.985 158.56 163.836 157.363C162.688 156.167 162.061 154.563 162.095 152.905C162.129 151.246 162.82 149.67 164.017 148.521C165.213 147.372 166.817 146.746 168.475 146.78Z" fill="#B25555"/>
<path d="M139.635 135.656C141.263 134.823 142.978 134.169 144.748 133.707C144.931 133.642 145.084 133.511 145.177 133.34C145.269 133.168 145.294 132.968 145.246 132.78C145.198 132.591 145.082 132.427 144.919 132.319C144.757 132.212 144.56 132.169 144.368 132.2C142.478 132.72 140.641 133.419 138.882 134.285C138.732 134.399 138.627 134.563 138.588 134.747C138.549 134.932 138.578 135.124 138.67 135.289C138.762 135.454 138.91 135.579 139.088 135.643C139.265 135.707 139.46 135.704 139.635 135.636L139.635 135.656Z" fill="#903E3E"/>
<path d="M162.443 135.381C164.269 135.353 166.094 135.48 167.899 135.76C168.097 135.809 168.305 135.781 168.483 135.681C168.66 135.582 168.793 135.419 168.855 135.225C168.91 135.03 168.887 134.821 168.791 134.643C168.695 134.465 168.533 134.331 168.34 134.269C166.4 133.963 164.438 133.82 162.474 133.841C162.271 133.843 162.076 133.923 161.931 134.066C161.786 134.209 161.703 134.403 161.699 134.606C161.694 134.808 161.771 135.003 161.91 135.148C162.05 135.293 162.241 135.377 162.443 135.381Z" fill="#903E3E"/>
<path d="M154.675 137.542C155.67 140.677 157.095 143.658 158.91 146.4L159.219 145.359C157.843 145.899 156.408 146.276 154.944 146.483C154.846 146.507 154.754 146.551 154.672 146.611C154.591 146.671 154.523 146.747 154.471 146.834C154.42 146.921 154.386 147.017 154.372 147.117C154.359 147.218 154.365 147.319 154.391 147.417C154.449 147.61 154.577 147.773 154.75 147.876C154.923 147.978 155.128 148.012 155.325 147.97C156.921 147.739 158.483 147.309 159.973 146.689C160.06 146.64 160.138 146.574 160.2 146.495C160.262 146.416 160.307 146.325 160.334 146.228C160.361 146.131 160.368 146.03 160.356 145.93C160.343 145.83 160.311 145.734 160.261 145.647C158.503 143.028 157.129 140.171 156.182 137.162C155.873 136.211 154.386 136.591 154.675 137.542Z" fill="#903E3E"/>
<path d="M113.922 105.056C126.055 93.3076 143.323 92.6945 159.163 102.652C175.003 112.609 174.352 128.392 173.341 130.631C173.113 131.307 172.704 131.908 172.158 132.367C171.613 132.827 170.952 133.128 170.247 133.239C167.405 133.249 164.576 132.845 161.85 132.04C149.093 129.048 141.229 117.795 141.229 117.795C141.229 117.795 142.275 119.87 137.714 129.001C134.307 135.895 125.903 140.017 121.637 141.717C120.655 140.425 119.414 139.352 117.994 138.566C116.574 137.78 115.006 137.299 113.39 137.152C110.486 137.217 107.68 138.211 105.383 139.988C102.267 133.618 102.732 115.88 113.922 105.056Z" fill="#0F0D1D"/>
<path d="M159.518 157.873C159.494 159.017 159.018 160.104 158.193 160.896C157.367 161.689 156.261 162.121 155.118 162.097C153.974 162.074 152.887 161.597 152.095 160.772C151.302 159.947 150.87 158.841 150.894 157.697C150.868 157.514 150.777 157.346 150.639 157.223C150.5 157.101 150.322 157.031 150.137 157.027C149.952 157.024 149.772 157.086 149.628 157.203C149.485 157.32 149.387 157.484 149.354 157.666C149.338 158.854 149.685 160.019 150.348 161.006C151.01 161.993 151.958 162.754 153.064 163.19C154.17 163.625 155.382 163.713 156.54 163.442C157.697 163.171 158.745 162.555 159.543 161.674C160.445 160.619 160.964 159.291 161.017 157.904C160.991 157.721 160.9 157.553 160.761 157.43C160.623 157.307 160.445 157.238 160.26 157.234C160.075 157.23 159.895 157.292 159.751 157.409C159.608 157.526 159.51 157.69 159.477 157.872L159.518 157.873Z" fill="#903E3E"/>
</g>
<defs>
<clipPath id="clip0_3594_169827">
<rect width="534" height="382" fill="white"/>
</clipPath>
</defs>
</svg>
