<svg width="534" height="382" viewBox="0 0 534 382" fill="none" xmlns="http://www.w3.org/2000/svg">
<g clip-path="url(#clip0_3594_175374)">
<path d="M19.0697 100.019C27.3726 80.4199 43.7935 55.8451 59.7568 41.8066C81.6578 22.5584 109.993 14.8904 130.755 10.4418C178.003 0.315296 230.643 12.0808 233.573 51.777C234.741 67.5423 223.605 93.5512 231.022 111.287C238.021 127.97 240.308 135.013 256.116 143.754C274.513 153.93 283.77 154.983 292.355 157.266C316.903 163.802 323.766 135.199 373.057 148.662C432.278 164.856 439.675 232.239 432.959 270.14C426.243 308.042 396.652 352.596 361.834 368.82C351.916 373.444 327.406 379.503 327.406 379.503L166.565 382C166.565 382 72.7319 370.761 25.6789 293.457C-6.94863 239.849 -7.73706 163.295 19.0697 100.019Z" fill="#DEE3FF"/>
<path d="M231.979 34.9219H223.188V296.363H231.979V34.9219Z" fill="#FFC9D5"/>
<path d="M319.494 346.496H135.672V357.628H319.494V346.496Z" fill="#FFC9D5"/>
<path d="M338.884 357.629H116.285V368.761H338.884V357.629Z" fill="#EAAAB8"/>
<path d="M357.43 368.758H97.75V379.89H357.43V368.758Z" fill="#FFC9D5"/>
<path d="M354.369 30.7285H100.812V40.111H354.369V30.7285Z" fill="#FFC9D5"/>
<path d="M293.637 214.372L352.939 35.832L412.252 214.372" stroke="#2C3C8D" stroke-width="2.41" stroke-miterlimit="10"/>
<path d="M352.948 258.151C387.154 258.151 414.886 238.074 414.886 213.316H291C291 238.129 318.732 258.151 352.948 258.151Z" fill="#FFC9D5"/>
<path d="M404.518 213.301C396.305 231.103 373.112 243.92 345.773 243.92C322.722 243.92 302.634 234.8 291.961 221.273C297.177 242.236 322.47 258.135 352.914 258.135C387.12 258.135 414.852 238.058 414.852 213.301H404.518Z" fill="#EAAAB8"/>
<path d="M352.939 43.6593C357.263 43.6593 360.769 40.1539 360.769 35.8297C360.769 31.5055 357.263 28 352.939 28C348.615 28 345.109 31.5055 345.109 35.8297C345.109 40.1539 348.615 43.6593 352.939 43.6593Z" fill="#2C3C8D"/>
<path d="M42.6367 214.372L101.939 35.832L161.252 214.372" stroke="#2C3C8D" stroke-width="2.41" stroke-miterlimit="10"/>
<path d="M101.948 258.151C136.154 258.151 163.886 238.074 163.886 213.316H40C40 238.129 67.7319 258.151 101.948 258.151Z" fill="#FFC9D5"/>
<path d="M153.518 213.301C145.305 231.103 122.112 243.92 94.7735 243.92C71.7219 243.92 51.6338 234.8 40.9609 221.273C46.1771 242.236 71.4704 258.135 101.914 258.135C136.12 258.135 163.852 238.058 163.852 213.301H153.518Z" fill="#EAAAB8"/>
<path d="M101.939 43.6593C106.263 43.6593 109.769 40.1539 109.769 35.8297C109.769 31.5055 106.263 28 101.939 28C97.6148 28 94.1094 31.5055 94.1094 35.8297C94.1094 40.1539 97.6148 43.6593 101.939 43.6593Z" fill="#2C3C8D"/>
<path d="M227.586 288.152C212.112 288.155 197.273 294.304 186.333 305.247C175.392 316.189 169.246 331.029 169.246 346.503H285.937C285.937 338.84 284.427 331.253 281.495 324.173C278.562 317.094 274.264 310.661 268.846 305.243C263.428 299.825 256.995 295.526 249.916 292.594C242.836 289.662 235.249 288.152 227.586 288.152Z" fill="#A6B5FF"/>
<path opacity="0.22" d="M209.806 323.179C220.309 316.475 225.772 306.262 222.009 300.367C218.246 294.472 206.682 295.127 196.18 301.831C185.678 308.534 180.214 318.748 183.977 324.643C187.74 330.538 199.304 329.882 209.806 323.179Z" fill="white"/>
<path d="M272.749 21L185.365 21C182.521 21 180.215 23.306 180.215 26.1505V45.7356C180.215 48.5802 182.521 50.8861 185.365 50.8861H272.749C275.594 50.8861 277.9 48.5802 277.9 45.7356V26.1505C277.9 23.306 275.594 21 272.749 21Z" fill="#A6B5FF"/>
<path d="M286.516 185.377C285.389 185.379 284.287 185.047 283.349 184.422C282.411 183.798 281.68 182.909 281.248 181.868C280.816 180.827 280.702 179.682 280.921 178.577C281.141 177.472 281.683 176.456 282.48 175.659C283.277 174.863 284.292 174.32 285.397 174.101C286.502 173.882 287.648 173.995 288.688 174.428C289.729 174.86 290.618 175.591 291.243 176.529C291.867 177.467 292.2 178.569 292.197 179.695C292.197 181.202 291.599 182.647 290.533 183.713C289.468 184.779 288.023 185.377 286.516 185.377ZM286.516 175.495C285.685 175.495 284.873 175.742 284.182 176.203C283.491 176.665 282.953 177.321 282.635 178.088C282.317 178.855 282.234 179.7 282.396 180.515C282.558 181.329 282.958 182.078 283.546 182.665C284.133 183.253 284.882 183.653 285.696 183.815C286.511 183.977 287.355 183.894 288.123 183.576C288.89 183.258 289.546 182.719 290.008 182.029C290.469 181.338 290.716 180.526 290.716 179.695C290.704 178.59 290.257 177.533 289.47 176.757C288.683 175.98 287.621 175.546 286.516 175.549V175.495Z" fill="#DCEAEF"/>
<path d="M7.05126 382.087H506.145C512.882 382.087 519.64 382.194 526.399 382.087H527.262C527.616 382.087 527.955 381.947 528.205 381.697C528.455 381.447 528.595 381.108 528.595 380.755C528.595 380.401 528.455 380.063 528.205 379.813C527.955 379.563 527.616 379.422 527.262 379.422H28.1688C21.4317 379.422 14.6732 379.316 7.91472 379.422H7.05126C6.69785 379.422 6.35893 379.563 6.10904 379.813C5.85914 380.063 5.71875 380.401 5.71875 380.755C5.71875 381.108 5.85914 381.447 6.10904 381.697C6.35893 381.947 6.69785 382.087 7.05126 382.087Z" fill="#060905"/>
<path d="M69.1525 378.646C62.9483 378.87 37.8652 384.381 38.2383 363.967C38.4515 353.541 35.4134 353.914 29.3052 349.832C23.197 345.749 23.3462 343.137 23.8792 337.306C24.4122 331.475 18.6025 334.289 14.7222 326.646C10.0851 317.468 15.671 310.656 24.6787 308.972C33.6865 307.287 33.42 317.031 36.9911 319.93C40.5622 322.83 45.5191 316.594 52.3949 325.036C56.8828 330.548 49.9217 343.158 56.5203 341.954" fill="white"/>
<path d="M69.1525 378.646C62.9483 378.87 37.8652 384.381 38.2383 363.967C38.4515 353.541 35.4134 353.914 29.3052 349.832C23.197 345.749 23.3462 343.137 23.8792 337.306C24.4122 331.475 18.6025 334.289 14.7222 326.646C10.0851 317.468 15.671 310.656 24.6787 308.972C33.6865 307.287 33.42 317.031 36.9911 319.93C40.5622 322.83 45.5191 316.594 52.3949 325.036C56.8828 330.548 49.9217 343.158 56.5203 341.954" stroke="#7189FF" stroke-miterlimit="10"/>
<path d="M57.377 360.458C48.5718 348.562 39.3047 337.027 29.5756 325.856C28.8933 325.077 27.7634 326.207 28.4456 326.986C38.061 338.044 47.2428 349.457 55.9912 361.226C56.5988 362.047 57.9846 361.226 57.377 360.426V360.458Z" fill="#7189FF"/>
<path d="M42.3748 325.366L41.4048 339.938L41.2662 341.996L42.0657 341.196L28.6979 342.262C27.6319 342.347 27.6319 343.946 28.6979 343.861L42.0657 342.795C42.276 342.79 42.4762 342.704 42.625 342.555C42.7738 342.406 42.8598 342.206 42.8652 341.996L43.8352 327.423L43.9738 325.366C44.0485 324.3 42.4494 324.3 42.3748 325.366Z" fill="#7189FF"/>
<path d="M29.1354 257.919C17.9637 248.816 15.2774 220.694 31.2142 212.156C50.9033 201.592 71.5092 217.934 74.1102 234.734C76.1037 247.696 67.0426 256.747 90.6333 266.256C114.224 275.764 110.578 287.576 105.728 310.122C100.878 332.668 116.825 324.406 129.18 343.456C138.998 358.55 125.193 373.944 119.042 379.7L70.7949 379.466C69.224 378.55 67.727 377.513 66.3177 376.363C50.7434 363.625 56.9049 343.498 58.5465 327.828C60.7852 306.444 35.9259 318.447 26.2146 296.701C16.5033 274.954 40.3178 267.023 29.1354 257.919Z" fill="white" stroke="#7189FF" stroke-miterlimit="10"/>
<path d="M110.645 378.952C108.705 374.688 106.758 370.399 104.803 366.085C100.006 355.532 95.1949 344.989 90.3695 334.457C84.1866 320.954 77.9683 307.483 71.7144 294.045C65.6879 281.103 59.5974 268.19 53.443 255.306C49.083 246.224 44.7337 237.12 39.958 228.251C39.5956 227.54 39.2225 226.858 38.8387 226.204C38.3377 225.308 36.9625 226.108 37.4636 227.014C42.0154 235.158 45.9916 243.622 50.0851 252.023C56.172 264.591 62.1096 277.234 68.0153 289.887C74.3474 303.447 80.6333 317.035 86.873 330.651C91.9472 341.716 97.0071 352.789 102.053 363.868L106.893 374.528C107.639 376.18 108.268 377.971 109.163 379.538C109.2 379.611 109.232 379.686 109.259 379.762C109.686 380.7 111.061 379.879 110.645 378.952Z" fill="#7189FF"/>
<path d="M65.8491 283.324L37.8344 281.842L33.8369 281.629C33.3252 281.629 33.3252 282.396 33.8369 282.428L61.8515 283.91L65.8491 284.123C66.3607 284.123 66.3607 283.356 65.8491 283.324Z" fill="#7189FF"/>
<path d="M98.1718 353.232L66.6607 349.831L62.1727 349.351C61.6611 349.287 61.6717 350.087 62.1727 350.151L93.6946 353.573L98.1718 354.063C98.6835 354.116 98.6835 353.317 98.1718 353.264V353.232Z" fill="#7189FF"/>
<path d="M100.239 276.991L83.7265 312.531L81.4346 317.477C81.2107 317.936 81.9037 318.341 82.1169 317.883L98.6293 282.342L100.932 277.396C101.145 276.937 100.452 276.532 100.239 276.991Z" fill="#7189FF"/>
<path d="M55.019 230.98C56.5861 233.187 59.283 234.018 61.1059 232.846C62.9288 231.673 63.0887 228.944 61.5217 226.737C59.9546 224.531 57.2577 223.689 55.4348 224.861C53.6119 226.034 53.42 228.848 55.019 230.98Z" fill="#7189FF"/>
<path d="M53.8372 242.942C53.8223 243.381 53.9392 243.815 54.173 244.188C54.4067 244.561 54.7465 244.856 55.1488 245.034C55.5511 245.212 55.9975 245.266 56.4307 245.188C56.8638 245.111 57.2639 244.906 57.5796 244.599C57.8953 244.293 58.1122 243.899 58.2024 243.468C58.2925 243.038 58.2519 242.59 58.0856 242.182C57.9194 241.775 57.6351 241.427 57.2694 241.182C56.9037 240.937 56.4732 240.808 56.0332 240.81C55.7479 240.801 55.4637 240.85 55.1976 240.953C54.9315 241.056 54.6889 241.212 54.4841 241.411C54.2793 241.61 54.1165 241.848 54.0054 242.111C53.8942 242.374 53.8371 242.656 53.8372 242.942Z" fill="white"/>
<path d="M425.859 207.456C425.859 207.456 436.536 183.447 449.869 206.073C449.869 206.128 438.528 218.133 425.859 207.456Z" fill="white"/>
<path d="M350.47 299.509L331.481 274.504C328.727 271.639 325.713 269.037 322.477 266.731C316.793 262.582 306.863 255.861 304.65 254.519C302.437 253.177 299.118 250.813 297.334 251.573C295.55 252.334 295.951 254.339 297.043 255.639C298.136 256.939 308.439 266.441 308.439 266.441C308.439 266.441 301.358 275.513 301.068 279.054C300.996 282.754 301.223 286.454 301.746 290.118C301.967 292.525 302.326 293.921 303.613 294.156C304.136 294.182 304.649 294.01 305.052 293.674C305.454 293.338 305.715 292.864 305.784 292.345C305.687 291.847 306.406 294.364 308.55 294.129C309.147 294.059 309.714 293.827 310.189 293.459C310.664 293.091 311.03 292.601 311.247 292.04C311.247 292.04 312.547 293.105 313.543 292.829C314.539 292.552 315.23 294.488 316.032 295.678L327.484 312.758L350.47 299.509Z" fill="#FFC8A5" stroke="black" stroke-miterlimit="10"/>
<path d="M314.07 292.914L327.416 312.83L350.471 299.511C350.471 299.511 335.935 279.458 331.109 274.174C326.282 268.891 312.023 259.169 303.739 253.996C295.454 248.824 294.97 253.166 297.017 255.683C299.064 258.2 308.413 266.485 308.413 266.485C308.413 266.485 300.862 276.166 301.097 281.491C301.332 286.815 301.374 294.325 304.098 294.325C306.823 294.325 305.301 284.976 305.481 280.771" stroke="black" stroke-miterlimit="10"/>
<path d="M328.937 274.977C328.937 274.977 316.131 265.683 313.254 265.766C310.377 265.849 310.612 269.127 313.254 271.769C315.895 274.41 320.847 278.891 320.847 278.891C319.563 280.767 318.971 283.031 319.173 285.295" stroke="black" stroke-miterlimit="10"/>
<path d="M310.085 274.09C310.085 274.09 311.136 287.035 311.136 290.811C311.136 295.222 306.696 295.43 305.742 291.046" stroke="black" stroke-miterlimit="10"/>
<path d="M315.287 273.742C315.287 273.742 316.076 286.079 315.647 289.937C315.218 293.796 311.913 294.252 311.18 290.809" stroke="black" stroke-miterlimit="10"/>
<path d="M389.222 339.242L364.826 308.691L350.47 290.712L316.613 312.19C316.613 312.19 344.938 375.961 348.81 378.962C352.683 381.964 412.429 376.75 414.227 373.43C416.025 370.111 419.344 248.668 419.344 248.668C419.344 248.668 416.329 243.993 412.042 246.399C407.755 248.806 388.42 255.209 364.895 308.636" fill="#0A4DD0"/>
<path d="M389.222 339.242L364.826 308.691L350.47 290.712L316.613 312.19C316.613 312.19 344.938 375.961 348.81 378.962C352.683 381.964 412.429 376.75 414.227 373.43C416.025 370.111 419.344 248.668 419.344 248.668C419.344 248.668 416.329 243.993 412.042 246.399C407.755 248.806 388.42 255.209 364.895 308.636" stroke="#060905" stroke-miterlimit="10"/>
<path d="M355.379 296.869L320.195 320.215C317.996 315.319 316.613 312.193 316.613 312.193L350.47 290.715L355.379 296.869Z" fill="white" stroke="#060905" stroke-miterlimit="10"/>
<path d="M364.62 330.157L368.548 321.444L369.101 320.2C369.21 320 369.24 319.766 369.183 319.545C369.127 319.324 368.989 319.133 368.797 319.01C368.596 318.898 368.359 318.869 368.138 318.928C367.916 318.988 367.725 319.131 367.607 319.328L363.693 328.041L363.126 329.286C363.017 329.486 362.987 329.72 363.044 329.941C363.1 330.162 363.238 330.353 363.43 330.475C363.631 330.587 363.868 330.616 364.09 330.557C364.312 330.498 364.502 330.354 364.62 330.157Z" fill="white"/>
<path d="M365.616 342.507L375.089 343.655L376.472 343.807C376.701 343.807 376.921 343.717 377.084 343.557C377.247 343.397 377.34 343.179 377.344 342.95C377.337 342.721 377.243 342.503 377.081 342.341C376.919 342.18 376.701 342.085 376.472 342.079L366.985 341.014L365.602 340.848C365.372 340.851 365.152 340.944 364.99 341.107C364.827 341.269 364.734 341.489 364.73 341.719C364.734 341.948 364.827 342.166 364.99 342.326C365.153 342.487 365.373 342.576 365.602 342.576L365.616 342.507Z" fill="white"/>
<path d="M349.087 337.477L357.385 332.844L358.575 332.18C359.557 331.64 358.685 330.147 357.704 330.686L349.405 335.361L348.216 336.025C347.234 336.564 348.105 338.058 349.087 337.518V337.477Z" fill="white"/>
<path d="M351.038 309.413L357.579 316.425L358.492 317.393C359.253 318.209 360.484 316.992 359.723 316.176L353.168 309.164L352.255 308.182C351.494 307.366 350.277 308.597 351.038 309.413Z" fill="white"/>
<path d="M361.756 357.487L361.355 347.945V346.562C361.355 345.455 359.571 345.441 359.626 346.562L360.027 356.104V357.487C360.027 358.608 361.811 358.608 361.756 357.487Z" fill="white"/>
<path d="M373.788 370.776L368.021 363.169L367.191 362.063C367.073 361.869 366.885 361.729 366.665 361.672C366.446 361.616 366.213 361.647 366.016 361.759C365.917 361.815 365.831 361.89 365.762 361.979C365.692 362.069 365.641 362.171 365.612 362.28C365.582 362.39 365.575 362.504 365.589 362.616C365.604 362.728 365.641 362.836 365.698 362.934L371.465 370.555L372.295 371.647C372.413 371.841 372.6 371.982 372.819 372.041C373.038 372.1 373.271 372.073 373.47 371.965C373.667 371.847 373.811 371.657 373.87 371.435C373.929 371.213 373.9 370.977 373.788 370.776Z" fill="white"/>
<path d="M360.679 367.331L352.146 363.016L350.943 362.393C349.961 361.895 349.09 363.389 350.071 363.887L358.619 368.243L359.808 368.852C360.804 369.364 361.675 367.87 360.679 367.358V367.331Z" fill="white"/>
<path d="M381.892 304.088L373.317 308.334L372.1 308.943C371.104 309.441 371.975 310.921 372.971 310.437L381.546 306.177L382.763 305.582C383.759 305.084 382.887 303.591 381.892 304.088Z" fill="white"/>
<path d="M379.9 284.807L376.747 293.866L376.291 295.152C375.931 296.203 377.674 296.659 377.964 295.608L381.118 286.577L381.56 285.291C381.934 284.24 380.26 283.783 379.9 284.834V284.807Z" fill="white"/>
<path d="M393.968 272.918L384.923 276.043L383.637 276.472C382.6 276.831 383.042 278.505 384.093 278.145L393.152 275.034L394.425 274.591C395.476 274.231 395.033 272.558 393.968 272.918Z" fill="white"/>
<path d="M371.062 377.497C371.062 376.501 371.062 375.506 371.062 374.524C371.062 298.582 397.852 237.023 430.892 237.023C463.933 237.023 490.708 298.582 490.708 374.524C490.708 375.506 490.708 376.501 490.708 377.497H371.062Z" fill="#0A4DD0" stroke="#060905" stroke-miterlimit="10"/>
<path d="M446.413 282.472L450.341 273.759L450.894 272.514C451.003 272.317 451.032 272.085 450.975 271.866C450.918 271.648 450.781 271.459 450.59 271.339C450.391 271.222 450.155 271.189 449.932 271.246C449.709 271.303 449.518 271.446 449.4 271.643L445.486 280.356L444.919 281.601C444.81 281.801 444.78 282.035 444.837 282.256C444.893 282.476 445.031 282.668 445.223 282.79C445.423 282.906 445.661 282.937 445.884 282.877C446.107 282.818 446.297 282.672 446.413 282.472Z" fill="white"/>
<path d="M433.176 263.027L438.708 270.799L439.497 271.92C439.619 272.112 439.811 272.25 440.031 272.306C440.252 272.363 440.486 272.333 440.686 272.224C440.783 272.167 440.868 272.091 440.936 272.001C441.004 271.911 441.054 271.808 441.082 271.699C441.11 271.59 441.117 271.476 441.101 271.364C441.085 271.253 441.048 271.145 440.99 271.048L435.458 263.276L434.656 262.155C434.541 261.959 434.353 261.816 434.133 261.757C433.913 261.697 433.679 261.726 433.481 261.837C433.284 261.955 433.14 262.146 433.081 262.368C433.021 262.59 433.051 262.826 433.162 263.027H433.176Z" fill="white"/>
<path d="M421.323 257.908L429.497 252.957L430.672 252.251C430.841 252.122 430.957 251.936 430.998 251.728C431.04 251.52 431.003 251.303 430.896 251.12C430.789 250.936 430.619 250.798 430.417 250.732C430.216 250.665 429.996 250.674 429.801 250.758L421.627 255.695L420.452 256.414C420.283 256.543 420.167 256.729 420.126 256.938C420.085 257.146 420.121 257.362 420.228 257.546C420.335 257.729 420.505 257.867 420.707 257.934C420.909 258.001 421.128 257.991 421.323 257.908Z" fill="white"/>
<path d="M421.682 278.658L427.684 271.217L428.542 270.152C428.698 269.988 428.784 269.77 428.784 269.544C428.784 269.317 428.698 269.1 428.542 268.935C428.379 268.776 428.161 268.687 427.933 268.688C427.706 268.688 427.488 268.776 427.325 268.935L421.309 276.39L420.465 277.441C420.309 277.605 420.223 277.823 420.223 278.049C420.223 278.276 420.309 278.493 420.465 278.658C420.545 278.738 420.64 278.802 420.744 278.845C420.848 278.889 420.96 278.911 421.074 278.911C421.187 278.911 421.299 278.889 421.403 278.845C421.508 278.802 421.602 278.738 421.682 278.658Z" fill="white"/>
<path d="M396.486 271.74L405.849 273.593L407.232 273.856C408.324 274.064 408.781 272.473 407.688 272.183L398.297 270.357L396.914 270.08C395.836 269.873 395.365 271.533 396.458 271.754L396.486 271.74Z" fill="white"/>
<path d="M455.149 290.489L464.512 292.328L465.895 292.605C466.988 292.812 467.444 291.222 466.352 290.931L456.989 289.078L455.606 288.815C454.527 288.608 454.057 290.198 455.149 290.489Z" fill="white"/>
<path d="M406.997 293.052L411.423 284.574L412.059 283.357C412.571 282.375 411.077 281.504 410.566 282.486L406.126 290.977L405.504 292.181C404.992 293.162 406.486 294.034 406.997 293.052Z" fill="white"/>
<path d="M421.115 303.036L417.076 294.351L416.509 293.12C416.38 292.951 416.194 292.835 415.986 292.794C415.777 292.753 415.561 292.789 415.378 292.896C415.194 293.003 415.056 293.173 414.989 293.375C414.923 293.577 414.932 293.796 415.015 293.991L419.054 302.677L419.635 303.907C419.75 304.104 419.939 304.246 420.16 304.303C420.38 304.36 420.614 304.327 420.81 304.212C421.007 304.096 421.149 303.907 421.206 303.687C421.263 303.466 421.23 303.232 421.115 303.036Z" fill="white"/>
<path d="M448.721 303.699L444.682 295.014L444.101 293.797C444.046 293.699 443.971 293.612 443.881 293.543C443.792 293.474 443.689 293.423 443.58 293.393C443.471 293.363 443.357 293.356 443.244 293.371C443.132 293.385 443.024 293.422 442.926 293.479C442.729 293.597 442.586 293.787 442.526 294.009C442.467 294.231 442.496 294.468 442.608 294.668L446.646 303.34L447.227 304.571C447.284 304.668 447.36 304.753 447.45 304.821C447.54 304.889 447.643 304.939 447.752 304.967C447.861 304.995 447.975 305.002 448.086 304.986C448.198 304.97 448.306 304.932 448.403 304.875C448.599 304.759 448.742 304.572 448.801 304.352C448.861 304.132 448.832 303.898 448.721 303.699Z" fill="white"/>
<path d="M395.669 296.284L391.686 287.613L391.105 286.382C390.99 286.186 390.802 286.043 390.582 285.983C390.363 285.924 390.128 285.953 389.93 286.064C389.733 286.182 389.589 286.372 389.53 286.594C389.471 286.816 389.5 287.052 389.612 287.253L393.65 295.939L394.231 297.156C394.287 297.254 394.362 297.34 394.451 297.41C394.541 297.479 394.643 297.53 394.753 297.56C394.862 297.589 394.976 297.597 395.088 297.582C395.2 297.567 395.309 297.531 395.407 297.474C395.604 297.356 395.747 297.165 395.806 296.943C395.866 296.721 395.836 296.485 395.725 296.284H395.669Z" fill="white"/>
<path d="M405.956 319.012L407.92 309.649L408.197 308.266C408.418 307.173 406.814 306.717 406.537 307.81L404.573 317.159L404.297 318.542C404.062 319.621 405.68 320.091 405.956 318.998V319.012Z" fill="white"/>
<path d="M437.146 317.254L434.684 308.016L434.338 306.633C434.262 306.43 434.112 306.264 433.919 306.165C433.726 306.067 433.503 306.044 433.294 306.101C433.085 306.158 432.905 306.291 432.789 306.473C432.672 306.656 432.628 306.876 432.665 307.089L435.127 316.328L435.472 317.711C435.549 317.913 435.699 318.08 435.892 318.178C436.085 318.277 436.307 318.3 436.516 318.243C436.725 318.186 436.906 318.053 437.022 317.87C437.138 317.687 437.183 317.468 437.146 317.254Z" fill="white"/>
<path d="M460.132 315.416L462.663 306.191L463.022 304.808C463.059 304.594 463.015 304.375 462.899 304.192C462.782 304.01 462.602 303.877 462.393 303.82C462.184 303.763 461.961 303.786 461.768 303.884C461.575 303.982 461.426 304.149 461.349 304.352L458.832 313.562L458.472 314.946C458.412 315.166 458.441 315.401 458.554 315.599C458.667 315.798 458.854 315.943 459.074 316.004C459.294 316.064 459.529 316.035 459.727 315.922C459.926 315.809 460.071 315.622 460.132 315.402V315.416Z" fill="white"/>
<path d="M448.098 332.414L450.615 323.189L450.988 321.875C451.033 321.659 450.994 321.435 450.879 321.246C450.764 321.058 450.583 320.92 450.371 320.861C450.158 320.801 449.931 320.824 449.735 320.925C449.539 321.026 449.389 321.198 449.315 321.405L446.784 330.63L446.424 331.944C446.38 332.16 446.419 332.384 446.533 332.573C446.648 332.761 446.83 332.899 447.042 332.959C447.254 333.018 447.481 332.995 447.677 332.894C447.873 332.793 448.023 332.622 448.098 332.414Z" fill="white"/>
<path d="M427.064 330.918L425.957 321.416L425.791 320.033C425.784 319.808 425.692 319.594 425.532 319.435C425.373 319.275 425.159 319.183 424.934 319.176C424.705 319.176 424.486 319.266 424.323 319.426C424.16 319.587 424.066 319.805 424.062 320.033L425.183 329.548L425.335 330.931C425.342 331.16 425.436 331.378 425.598 331.54C425.76 331.702 425.977 331.796 426.206 331.803C426.435 331.799 426.653 331.706 426.813 331.543C426.974 331.38 427.064 331.16 427.064 330.931V330.918Z" fill="white"/>
<path d="M438.943 345.578L437.836 336.076L437.67 334.693C437.663 334.468 437.571 334.254 437.411 334.095C437.252 333.935 437.038 333.843 436.813 333.836C436.584 333.836 436.364 333.926 436.201 334.086C436.038 334.247 435.945 334.465 435.941 334.693L437.062 344.195L437.214 345.578C437.224 345.804 437.32 346.018 437.481 346.177C437.643 346.336 437.858 346.429 438.085 346.435C438.312 346.435 438.531 346.345 438.691 346.184C438.852 346.023 438.943 345.805 438.943 345.578Z" fill="white"/>
<path d="M415.197 329.039L408.282 335.733L407.327 336.673C406.525 337.448 407.756 338.678 408.544 337.89L415.46 331.196L416.414 330.256C417.216 329.481 415.999 328.25 415.197 329.039Z" fill="white"/>
<path d="M391.397 314.349L384.482 321.057L383.527 321.984C383.394 322.15 383.326 322.361 383.337 322.574C383.348 322.787 383.437 322.989 383.588 323.141C383.738 323.293 383.939 323.385 384.152 323.398C384.365 323.412 384.576 323.346 384.744 323.215L391.659 316.507L392.614 315.58C393.416 314.792 392.185 313.575 391.397 314.349Z" fill="white"/>
<path d="M391.686 344.332L390.76 334.83L390.635 333.447C390.628 333.22 390.533 333.004 390.371 332.844C390.209 332.684 389.991 332.593 389.764 332.59C389.536 332.59 389.318 332.68 389.157 332.841C388.997 333.002 388.906 333.22 388.906 333.447L389.819 342.963L389.957 344.346C389.942 344.468 389.953 344.593 389.989 344.711C390.025 344.829 390.086 344.938 390.168 345.031C390.25 345.124 390.35 345.198 390.463 345.249C390.576 345.3 390.698 345.326 390.822 345.326C390.945 345.326 391.068 345.3 391.18 345.249C391.293 345.198 391.394 345.124 391.475 345.031C391.557 344.938 391.618 344.829 391.655 344.711C391.691 344.593 391.702 344.468 391.686 344.346V344.332Z" fill="white"/>
<path d="M403.467 357.402L402.541 347.887L402.416 346.504C402.409 346.275 402.315 346.058 402.153 345.896C401.991 345.734 401.774 345.64 401.545 345.633C401.316 345.636 401.098 345.73 400.938 345.893C400.777 346.056 400.687 346.275 400.688 346.504L401.6 356.005L401.739 357.389C401.765 357.599 401.868 357.792 402.027 357.933C402.186 358.073 402.391 358.15 402.603 358.15C402.815 358.15 403.02 358.073 403.179 357.933C403.338 357.792 403.441 357.599 403.467 357.389V357.402Z" fill="white"/>
<path d="M422.928 355.208L417.838 347.089L417.119 345.955C416.525 345.015 415.031 345.886 415.626 346.826L420.715 354.945L421.434 356.079C422.029 357.019 423.523 356.162 422.928 355.208Z" fill="white"/>
<path d="M376.818 357.058L381.81 348.912L382.53 347.737C383.111 346.796 381.617 345.925 381.036 346.865L376.043 355.011L375.324 356.187C375.241 356.382 375.231 356.601 375.298 356.803C375.365 357.005 375.503 357.175 375.686 357.282C375.87 357.389 376.086 357.425 376.294 357.384C376.503 357.343 376.689 357.227 376.818 357.058Z" fill="white"/>
<path d="M471.142 331.334L466.786 322.801L466.177 321.612C465.665 320.616 464.172 321.487 464.683 322.483L469.04 331.016L469.662 332.206C470.16 333.201 471.654 332.33 471.142 331.334Z" fill="white"/>
<path d="M407.354 254.738L412.886 262.496L413.688 263.589C413.737 263.702 413.809 263.804 413.9 263.888C413.991 263.972 414.098 264.035 414.216 264.074C414.333 264.112 414.457 264.126 414.58 264.113C414.703 264.1 414.822 264.061 414.928 263.999C415.035 263.937 415.127 263.853 415.199 263.752C415.271 263.651 415.32 263.537 415.344 263.415C415.368 263.294 415.366 263.169 415.338 263.049C415.31 262.929 415.257 262.816 415.182 262.718L409.65 254.959L408.847 253.866C408.732 253.67 408.544 253.527 408.325 253.468C408.105 253.408 407.871 253.437 407.672 253.548C407.475 253.666 407.332 253.857 407.272 254.079C407.213 254.3 407.242 254.537 407.354 254.738Z" fill="white"/>
<path d="M414.213 249.873L420.34 242.515L421.211 241.478C421.363 241.312 421.448 241.095 421.448 240.869C421.448 240.644 421.363 240.427 421.211 240.261C421.046 240.101 420.825 240.012 420.595 240.012C420.366 240.012 420.145 240.101 419.98 240.261L413.812 247.618L412.94 248.656C412.788 248.822 412.703 249.039 412.703 249.264C412.703 249.49 412.788 249.707 412.94 249.873C413.105 250.032 413.326 250.122 413.556 250.122C413.786 250.122 414.006 250.032 414.171 249.873H414.213Z" fill="white"/>
<path d="M430.587 294.101L435.013 285.623L435.649 284.419C436.161 283.437 434.667 282.566 434.155 283.548L429.73 292.026L429.094 293.229C428.582 294.225 430.075 295.096 430.587 294.101Z" fill="white"/>
<path d="M440.311 370.571L436.909 348.844L418.93 352.218C418.93 352.218 406.22 354.016 396.359 356.367C386.498 358.719 374.714 363.421 372.114 365.412C369.514 367.404 368.449 369.174 368.449 370.571C368.449 371.968 368.919 371.069 368.919 371.069C368.919 371.069 368.228 373.268 368.919 374.25C369.611 375.232 370.012 375.508 369.459 376.601C368.906 377.694 369.459 380.114 370.51 380.308C371.561 380.501 399.789 380.072 399.789 380.072L441.68 379.381L440.311 370.571Z" fill="#FFC8A5"/>
<path d="M394.56 362.937C394.56 362.937 369.665 374.181 368.476 370.613C366.872 365.578 382.154 360.848 393.37 357.253C404.587 353.657 428.61 350.974 428.61 350.974L436.908 348.844L441.707 379.422L373.192 380.556" stroke="black" stroke-miterlimit="10"/>
<path d="M397.688 367.648C397.688 367.648 375.435 375.172 372.393 375.808C369.35 376.444 367.511 373.72 370.401 371.286" stroke="black" stroke-miterlimit="10"/>
<path d="M400.881 372.695C400.881 372.695 376.871 380.15 372.556 380.509C368.241 380.869 367.992 377.135 370.399 375.876" stroke="black" stroke-miterlimit="10"/>
<path d="M533.543 341.384C533.543 341.384 531.842 321.067 524.802 308.537C517.763 296.007 506.671 280.282 499.175 273.45C491.679 266.618 483.394 258.112 471.293 251.432C459.192 244.752 452.622 243.134 448.985 240.506C445.347 237.878 436.648 237.546 438.695 241.17C440.742 244.794 452.152 264.17 454.89 270.864C457.629 277.557 473.769 317.112 473.769 317.112L476.88 324.732C476.88 324.732 478.665 327.913 477.295 328.632C475.926 329.352 427.797 342.67 427.797 342.67L436.717 381.091C436.717 381.091 461.875 383.94 470.767 383.041C479.66 382.142 507.805 381.215 518.689 372.474C529.574 363.734 534.732 352.089 533.543 341.384Z" fill="#0A4DD0"/>
<path d="M501.732 321.706L424.504 343.655L432.803 380.596C432.803 380.596 493.075 390.194 519.726 371.827C546.377 353.461 531.661 304.612 499.16 273.494C458.596 234.659 426.952 234.769 423.094 238.199" stroke="#060905" stroke-miterlimit="10"/>
<path d="M452.508 265.047L478.343 328.348" stroke="#060905" stroke-miterlimit="10"/>
<path d="M515.425 306.633L507.293 301.585L506.131 300.866C505.191 300.285 504.319 301.779 505.26 302.36L513.392 307.408L514.554 308.127C515.494 308.708 516.365 307.214 515.425 306.633Z" fill="white"/>
<path d="M493.323 311.766L489.174 320.368L488.579 321.613C488.467 321.81 488.436 322.043 488.493 322.262C488.549 322.482 488.69 322.671 488.883 322.788C489.082 322.901 489.318 322.933 489.539 322.876C489.761 322.819 489.952 322.679 490.073 322.484L494.222 313.868L494.816 312.637C494.925 312.436 494.952 312.2 494.893 311.979C494.834 311.758 494.693 311.568 494.498 311.448C494.4 311.391 494.292 311.354 494.18 311.339C494.068 311.325 493.954 311.332 493.844 311.362C493.735 311.391 493.633 311.442 493.543 311.512C493.454 311.581 493.379 311.667 493.323 311.766Z" fill="white"/>
<path d="M482.675 293.259L489.078 300.34L490.005 301.363C490.752 302.179 491.969 300.962 491.222 300.132L484.819 293.051L483.892 292.028C483.145 291.212 481.928 292.429 482.675 293.259Z" fill="white"/>
<path d="M508.73 316.228L511.8 325.287L512.243 326.573C512.589 327.625 514.262 327.168 513.902 326.117L510.832 317.044L510.403 315.772C510.044 314.721 508.37 315.163 508.73 316.228Z" fill="white"/>
<path d="M524.996 324.513L523.199 333.89L522.936 335.273C522.728 336.351 524.402 336.822 524.609 335.729L526.407 326.352L526.656 324.969C526.864 323.877 525.204 323.42 524.996 324.513Z" fill="white"/>
<path d="M521.591 343.115L525.906 351.663L526.514 352.866C527.012 353.862 528.506 352.99 528.008 351.994L523.693 343.447L523.07 342.272C522.573 341.276 521.079 342.147 521.577 343.143L521.591 343.115Z" fill="white"/>
<path d="M498.784 330.722L506.142 336.835L507.193 337.693C507.354 337.854 507.573 337.945 507.802 337.945C508.03 337.945 508.249 337.854 508.41 337.693C508.571 337.531 508.662 337.312 508.662 337.084C508.662 336.856 508.571 336.637 508.41 336.475L501.052 330.363L500.001 329.491C499.835 329.339 499.618 329.254 499.393 329.254C499.167 329.254 498.95 329.339 498.784 329.491C498.624 329.656 498.535 329.877 498.535 330.107C498.535 330.336 498.624 330.557 498.784 330.722Z" fill="white"/>
<path d="M505.399 356.93L510.931 349.102L511.706 347.996C511.823 347.797 511.856 347.561 511.799 347.338C511.742 347.115 511.599 346.924 511.402 346.806C511.2 346.698 510.965 346.671 510.744 346.73C510.523 346.789 510.333 346.93 510.212 347.124L504.68 354.952L503.892 356.059C503.781 356.257 503.752 356.492 503.811 356.711C503.871 356.931 504.014 357.119 504.21 357.234C504.408 357.343 504.64 357.372 504.858 357.316C505.077 357.259 505.265 357.121 505.386 356.93H505.399Z" fill="white"/>
<path d="M512.591 371.11L518.123 363.282L518.912 362.176C519.006 361.979 519.024 361.754 518.961 361.545C518.898 361.336 518.759 361.159 518.571 361.048C518.383 360.936 518.161 360.9 517.947 360.944C517.734 360.989 517.545 361.113 517.418 361.29L511.886 369.118L511.111 370.239C511.054 370.336 511.016 370.443 511.001 370.555C510.985 370.667 510.991 370.78 511.02 370.89C511.048 370.999 511.097 371.101 511.165 371.191C511.233 371.281 511.318 371.357 511.416 371.414C511.616 371.524 511.85 371.553 512.07 371.497C512.291 371.44 512.482 371.302 512.605 371.11H512.591Z" fill="white"/>
<path d="M489.325 367.072L498.867 366.698H500.25C501.357 366.698 501.371 364.928 500.25 364.969L490.708 365.343H489.325C488.204 365.343 488.204 367.113 489.325 367.072Z" fill="white"/>
<path d="M487.198 348.122L495.828 343.973L497.059 343.378C497.158 343.322 497.244 343.247 497.313 343.158C497.383 343.068 497.434 342.966 497.463 342.857C497.493 342.747 497.5 342.633 497.486 342.521C497.471 342.409 497.434 342.3 497.377 342.202C497.257 342.008 497.067 341.867 496.846 341.808C496.625 341.749 496.389 341.776 496.188 341.884L487.558 346.033L486.327 346.628C486.158 346.757 486.042 346.943 486.001 347.152C485.96 347.36 485.996 347.576 486.103 347.76C486.21 347.943 486.381 348.081 486.582 348.148C486.784 348.215 487.003 348.205 487.198 348.122Z" fill="white"/>
<path d="M472.787 334.293L482.122 336.478L483.505 336.783C484.584 337.032 485.054 335.4 483.962 335.109L474.64 332.938L473.285 332.592C472.192 332.343 471.736 333.975 472.814 334.252L472.787 334.293Z" fill="white"/>
<path d="M472.328 360.778L481.774 359.257L483.157 359.049C483.36 358.973 483.527 358.823 483.625 358.63C483.723 358.437 483.746 358.214 483.689 358.005C483.632 357.796 483.499 357.616 483.317 357.5C483.134 357.383 482.914 357.339 482.701 357.376L473.283 358.87L471.9 359.091C471.791 359.12 471.688 359.17 471.599 359.238C471.509 359.307 471.434 359.392 471.377 359.49C471.321 359.588 471.284 359.696 471.269 359.807C471.254 359.919 471.262 360.033 471.291 360.142C471.356 360.361 471.503 360.547 471.701 360.661C471.9 360.774 472.134 360.806 472.356 360.75L472.328 360.778Z" fill="white"/>
<path d="M461.83 342.562L470.433 346.711L471.664 347.305C472.659 347.789 473.531 346.296 472.535 345.812L463.933 341.663L462.702 341.068C461.706 340.584 460.835 342.078 461.83 342.562Z" fill="white"/>
<path d="M451.802 356.626L461.165 354.662L462.548 354.385C463.64 354.164 463.184 352.491 462.091 352.726L452.673 354.717L451.29 354.994C450.197 355.215 450.654 356.889 451.746 356.653L451.802 356.626Z" fill="white"/>
<path d="M444.849 348.857L451.266 341.776L452.179 340.766C452.926 339.937 451.709 338.72 450.962 339.535L444.545 346.617L443.632 347.64C442.885 348.47 444.102 349.687 444.849 348.857Z" fill="white"/>
<path d="M465.373 380.482L471.79 373.401L472.703 372.391C473.449 371.562 472.232 370.345 471.486 371.161L465.068 378.228L464.156 379.251C463.409 380.081 464.626 381.298 465.373 380.468V380.482Z" fill="white"/>
<path d="M449.357 367.167L458.056 371.164L459.287 371.731C459.487 371.84 459.721 371.87 459.942 371.813C460.163 371.757 460.354 371.618 460.476 371.426C460.592 371.226 460.623 370.989 460.563 370.766C460.504 370.543 460.358 370.353 460.158 370.237L451.459 366.24L450.242 365.673C450.042 365.564 449.808 365.534 449.587 365.591C449.367 365.647 449.175 365.785 449.053 365.977C448.94 366.176 448.908 366.412 448.965 366.633C449.022 366.855 449.162 367.046 449.357 367.167Z" fill="white"/>
<path d="M437.671 378.232L446.55 374.719L447.836 374.207C448.053 374.14 448.236 373.992 448.346 373.793C448.457 373.595 448.487 373.362 448.431 373.142C448.37 372.921 448.223 372.733 448.024 372.619C447.824 372.505 447.588 372.474 447.366 372.534L438.501 376.06L437.215 376.572C436.997 376.639 436.813 376.787 436.7 376.985C436.588 377.182 436.554 377.415 436.606 377.637C436.67 377.856 436.818 378.04 437.017 378.152C437.216 378.263 437.451 378.292 437.671 378.232Z" fill="white"/>
<path d="M436.369 363.118L442.303 355.58L443.132 354.529C443.288 354.365 443.375 354.147 443.375 353.92C443.375 353.694 443.288 353.476 443.132 353.312C443.053 353.232 442.958 353.168 442.853 353.124C442.749 353.081 442.637 353.059 442.524 353.059C442.411 353.059 442.299 353.081 442.194 353.124C442.09 353.168 441.995 353.232 441.915 353.312L435.941 360.836L435.111 361.887C434.954 362.053 434.867 362.273 434.867 362.502C434.867 362.731 434.954 362.951 435.111 363.118C435.275 363.273 435.493 363.36 435.719 363.36C435.946 363.36 436.164 363.273 436.328 363.118H436.369Z" fill="white"/>
<path d="M480.93 372.391L488.136 378.684L489.159 379.569C489.322 379.728 489.54 379.817 489.768 379.817C489.995 379.817 490.214 379.728 490.376 379.569C490.457 379.489 490.52 379.395 490.564 379.29C490.607 379.186 490.63 379.074 490.63 378.961C490.63 378.847 490.607 378.735 490.564 378.631C490.52 378.527 490.457 378.432 490.376 378.352L483.171 372.059L482.147 371.16C481.983 371.005 481.765 370.918 481.539 370.918C481.312 370.918 481.095 371.005 480.93 371.16C480.767 371.324 480.676 371.545 480.676 371.776C480.676 372.007 480.767 372.228 480.93 372.391Z" fill="white"/>
<path d="M478.468 269.565L484.885 276.646L485.798 277.669C486.545 278.499 487.776 277.268 487.029 276.452L480.612 269.357L479.699 268.348C478.938 267.518 477.721 268.735 478.468 269.565Z" fill="white"/>
<path d="M462.566 272.39L466.715 263.788L467.31 262.557C467.794 261.561 466.314 260.69 465.816 261.686L461.667 270.274L461.073 271.519C460.588 272.515 462.068 273.386 462.566 272.39Z" fill="white"/>
<path d="M455.374 249.419L463.99 253.568L465.235 254.163C465.43 254.247 465.649 254.256 465.851 254.189C466.053 254.122 466.223 253.984 466.33 253.801C466.437 253.617 466.473 253.401 466.432 253.193C466.391 252.984 466.275 252.798 466.106 252.669L457.49 248.52L456.245 247.926C456.05 247.842 455.831 247.833 455.629 247.9C455.427 247.966 455.257 248.104 455.15 248.288C455.043 248.471 455.007 248.687 455.048 248.896C455.089 249.104 455.205 249.29 455.374 249.419Z" fill="white"/>
<path d="M443.026 261.176L446.954 252.45L447.521 251.205C447.625 251.005 447.65 250.773 447.591 250.555C447.532 250.337 447.394 250.15 447.203 250.029C447.106 249.972 446.998 249.934 446.887 249.919C446.775 249.903 446.661 249.909 446.552 249.938C446.443 249.966 446.34 250.015 446.25 250.083C446.16 250.151 446.084 250.236 446.027 250.334L442.1 259.047L441.533 260.305C441.422 260.504 441.393 260.738 441.452 260.958C441.512 261.177 441.655 261.365 441.851 261.481C441.948 261.538 442.055 261.576 442.167 261.592C442.279 261.607 442.392 261.601 442.502 261.573C442.611 261.544 442.713 261.495 442.803 261.427C442.893 261.359 442.969 261.274 443.026 261.176Z" fill="white"/>
<path d="M477.584 315.287L481.733 306.629L482.314 305.412C482.389 305.314 482.442 305.201 482.47 305.08C482.498 304.96 482.5 304.835 482.476 304.714C482.452 304.593 482.403 304.478 482.331 304.377C482.259 304.277 482.167 304.193 482.061 304.13C481.954 304.068 481.835 304.029 481.712 304.016C481.589 304.004 481.465 304.017 481.348 304.056C481.231 304.095 481.123 304.158 481.032 304.241C480.941 304.325 480.869 304.427 480.82 304.54L476.671 313.198L476.09 314.415C475.983 314.615 475.956 314.848 476.015 315.066C476.074 315.285 476.215 315.473 476.408 315.591C476.506 315.648 476.613 315.686 476.725 315.702C476.836 315.717 476.95 315.711 477.059 315.683C477.169 315.654 477.271 315.605 477.361 315.537C477.451 315.469 477.527 315.384 477.584 315.287Z" fill="white"/>
<path d="M472.123 292.856L469.896 283.535L469.592 282.221C469.329 281.142 467.656 281.598 467.919 282.691L470.145 291.999L470.463 293.382C470.712 294.46 472.386 294.004 472.123 292.925V292.856Z" fill="white"/>
<path d="M498.881 290.476L496.654 281.168L496.336 279.854C496.087 278.776 494.414 279.232 494.676 280.311L496.903 289.632L497.221 290.946C497.47 292.025 499.144 291.569 498.881 290.476Z" fill="white"/>
<path d="M432.814 380.554L424.516 343.613L432.371 341.387L440.254 381.494C435.607 380.997 432.814 380.554 432.814 380.554Z" fill="white" stroke="#060905" stroke-miterlimit="10"/>
<path d="M381.561 215.671C382.335 203.929 390.108 204.4 390.108 204.4C390.108 204.4 387.867 200.486 391.851 194.483C396.318 187.734 404.159 187.057 407.783 187.153C410.549 180.141 413.924 175.204 417.312 175.08C428.086 174.678 440.007 197.083 448.983 196.918C457.959 196.752 488.662 225.671 464.197 233.153C437.532 241.313 402.154 234.052 402.154 234.052C393.386 232.627 380.842 226.583 381.561 215.671Z" fill="#060905"/>
<path d="M446.493 241.173C446.493 245.917 439.495 249.775 430.865 249.775C422.235 249.775 415.195 245.917 415.195 241.173C415.195 236.429 422.193 232.57 430.837 232.57C439.481 232.57 446.493 236.429 446.493 241.173Z" fill="white" stroke="#060905" stroke-width="0.75" stroke-miterlimit="10"/>
<path d="M412.899 168.25H425.831C434.419 168.25 441.473 176.313 441.473 185.994V206.02C441.473 206.579 441.445 207.138 441.39 207.694C441.534 208.296 441.608 208.914 441.611 209.533V234.594C441.607 236.725 440.76 238.768 439.254 240.276C437.748 241.785 435.707 242.636 433.575 242.643H428.444C426.312 242.636 424.269 241.785 422.761 240.277C421.253 238.769 420.403 236.726 420.395 234.594V223.806H412.927C404.338 223.806 397.313 215.798 397.313 206.02V185.994C397.285 176.313 404.311 168.25 412.899 168.25Z" fill="#FFC8A5" stroke="#060905" stroke-width="0.75" stroke-miterlimit="10"/>
<path d="M448.527 206.361C448.527 206.361 460.269 198.367 461.901 184.91C461.901 184.91 462.399 164.386 445.194 156.807C427.989 149.228 411.047 152.257 404.257 154.816C391.505 159.629 386.098 167.263 391.021 177.635C394.686 185.408 412.956 181.328 419.276 176.474C419.276 176.474 420.397 184.689 436.149 186.985L441.474 208.643L441.806 215.724L448.527 206.361Z" fill="#060905"/>
<path d="M423.149 192.576C423.152 193.154 422.983 193.72 422.664 194.201C422.345 194.683 421.89 195.059 421.357 195.282C420.824 195.505 420.237 195.565 419.67 195.454C419.103 195.343 418.582 195.066 418.172 194.659C417.763 194.251 417.483 193.731 417.37 193.165C417.256 192.598 417.313 192.011 417.533 191.477C417.754 190.943 418.128 190.486 418.608 190.165C419.088 189.844 419.653 189.672 420.231 189.672C421.001 189.676 421.739 189.982 422.285 190.526C422.831 191.069 423.142 191.806 423.149 192.576Z" fill="#060905"/>
<path d="M404.131 192.148C404.134 192.641 403.99 193.123 403.718 193.535C403.447 193.946 403.059 194.267 402.604 194.457C402.149 194.648 401.648 194.699 401.165 194.605C400.681 194.51 400.236 194.274 399.886 193.927C399.537 193.579 399.298 193.136 399.201 192.652C399.104 192.169 399.152 191.668 399.34 191.212C399.528 190.756 399.848 190.367 400.257 190.093C400.667 189.818 401.149 189.672 401.642 189.672C402.3 189.672 402.931 189.932 403.397 190.396C403.864 190.86 404.128 191.49 404.131 192.148Z" fill="#060905"/>
<path d="M405.602 205.507C405.602 205.507 407.234 210.25 410.668 210.573C414.102 210.896 416.828 207.093 417.012 204.105L405.602 205.507Z" fill="white"/>
<path d="M432.831 202.864C432.82 204.204 432.412 205.511 431.658 206.619C430.904 207.727 429.839 208.587 428.596 209.09C427.354 209.593 425.99 209.716 424.678 209.444C423.365 209.171 422.163 208.516 421.223 207.561C420.283 206.605 419.648 205.393 419.397 204.076C419.146 202.759 419.292 201.398 419.815 200.164C420.337 198.93 421.215 197.878 422.335 197.143C423.456 196.407 424.769 196.021 426.109 196.031C427 196.037 427.88 196.218 428.701 196.565C429.521 196.911 430.265 197.417 430.889 198.051C431.514 198.686 432.007 199.438 432.34 200.264C432.673 201.09 432.84 201.973 432.831 202.864Z" fill="#FF7593"/>
<path d="M399.14 198.004C398.735 198.001 398.331 198.047 397.937 198.142V205.168C397.905 206.192 397.979 207.216 398.158 208.225C398.473 208.285 398.792 208.317 399.113 208.321C400.481 208.332 401.797 207.8 402.772 206.84C403.748 205.88 404.302 204.572 404.313 203.204C404.324 201.836 403.791 200.52 402.831 199.544C401.871 198.569 400.564 198.015 399.195 198.004H399.14Z" fill="#FF7593"/>
<path d="M432.082 191.523C432.082 197.428 428.085 202.214 423.147 202.214C418.21 202.214 414.199 197.428 414.199 191.523C414.199 185.617 418.196 180.832 423.147 180.832C428.099 180.832 432.082 185.59 432.082 191.523Z" stroke="#6C46F1" stroke-width="0.75" stroke-miterlimit="10"/>
<path d="M408.724 190.47C408.724 196.002 405.155 200.497 400.757 200.497C396.359 200.497 392.777 196.016 392.777 190.47C392.777 184.924 396.346 180.457 400.757 180.457C405.169 180.457 408.724 184.938 408.724 190.47Z" stroke="#6C46F1" stroke-width="0.75" stroke-miterlimit="10"/>
<path d="M432.098 191.492L443.66 194.161" stroke="#6C46F1" stroke-width="0.75" stroke-miterlimit="10"/>
<path d="M411.603 199.6L406.859 196.709L411.008 189.684" stroke="#060905" stroke-miterlimit="10"/>
<path d="M413.896 193.21C412.993 192.693 411.972 192.415 410.932 192.403C409.891 192.391 408.864 192.645 407.949 193.141V192.006C408.06 191.91 410.48 189.738 414.519 192.006L413.896 193.21Z" fill="#6C46F1"/>
<path d="M485.952 205.724C488.483 217.092 480.502 227.008 468.332 231.821C444.613 241.184 438.14 215.834 444.032 199.791C449.924 183.747 467.986 181.95 471.333 194.521C471.333 194.521 482.964 192.073 485.952 205.724Z" fill="#060905"/>
<path d="M447.434 210.109C453.117 210.109 457.724 205.539 457.724 199.902C457.724 194.265 453.117 189.695 447.434 189.695C441.751 189.695 437.145 194.265 437.145 199.902C437.145 205.539 441.751 210.109 447.434 210.109Z" fill="#FFC8A5"/>
<path d="M442.441 201.201C442.427 200.98 442.427 200.758 442.441 200.537C442.441 200.44 442.441 200.33 442.441 200.233C442.441 200.136 442.441 200.122 442.441 200.053C442.441 199.984 442.441 200.053 442.441 199.956C442.441 199.859 442.538 199.389 442.621 199.113C442.761 198.473 443.034 197.869 443.423 197.342C443.423 197.342 443.575 197.135 443.506 197.218L443.686 197.01L444.101 196.596C444.218 196.493 444.343 196.401 444.474 196.319L445.041 196.001C445.254 195.911 445.471 195.833 445.691 195.766C445.936 195.695 446.186 195.644 446.438 195.614C447.113 195.53 447.796 195.53 448.471 195.614C448.554 195.626 448.639 195.621 448.719 195.598C448.8 195.575 448.875 195.535 448.938 195.481C449.002 195.426 449.053 195.359 449.088 195.282C449.123 195.206 449.141 195.123 449.141 195.04C449.141 194.956 449.123 194.873 449.088 194.797C449.053 194.721 449.002 194.653 448.938 194.598C448.875 194.544 448.8 194.504 448.719 194.481C448.639 194.458 448.554 194.453 448.471 194.466C447.432 194.281 446.364 194.357 445.362 194.688C444.36 195.019 443.456 195.593 442.732 196.36C441.861 197.493 441.35 198.862 441.266 200.288C441.245 200.592 441.245 200.897 441.266 201.201C441.266 201.934 442.455 201.934 442.413 201.201H442.441Z" fill="#060905"/>
<path d="M437.145 199.904C437.144 198.54 437.419 197.19 437.954 195.935C438.489 194.68 439.272 193.546 440.256 192.602" stroke="#060905" stroke-width="0.75" stroke-miterlimit="10"/>
<path d="M440.258 192.6C441.607 191.282 443.294 190.364 445.133 189.948C446.972 189.531 448.891 189.632 450.676 190.239C452.461 190.846 454.043 191.936 455.246 193.387C456.45 194.839 457.228 196.596 457.494 198.462C457.76 200.329 457.503 202.233 456.753 203.963C456.003 205.693 454.788 207.181 453.244 208.262C451.699 209.344 449.886 209.977 448.003 210.09C446.121 210.204 444.245 209.794 442.581 208.906C441.755 208.445 440.977 207.903 440.258 207.287" stroke="#060905" stroke-width="0.75" stroke-miterlimit="10"/>
<path d="M278.056 136.28C278.056 136.28 245.313 124.662 256.227 92.3898C267.142 60.1175 317.338 59.3043 319.901 93.345C321.066 108.836 312.223 146.452 278.056 136.28Z" fill="#DEE3FF"/>
<path d="M108.386 168.858C108.385 165.901 109.422 163.038 111.314 160.773C113.206 158.507 115.833 156.983 118.732 156.468L118.244 153.578C116.247 153.917 114.335 154.648 112.619 155.73C110.902 156.811 109.415 158.221 108.242 159.879C107.068 161.538 106.231 163.412 105.779 165.396C105.327 167.379 105.269 169.432 105.607 171.438L108.595 170.938C108.465 170.252 108.395 169.556 108.386 168.858Z" fill="#A6B5FF"/>
<path d="M105.607 171.899C105.5 171.9 105.397 171.862 105.317 171.792C105.236 171.722 105.183 171.625 105.169 171.519C104.465 167.35 105.439 163.071 107.875 159.622C110.312 156.174 114.013 153.838 118.165 153.129C118.284 153.114 118.405 153.144 118.503 153.215C118.6 153.285 118.668 153.39 118.692 153.509L119.18 156.389C119.19 156.447 119.189 156.507 119.176 156.565C119.162 156.623 119.138 156.677 119.104 156.726C119.069 156.774 119.026 156.815 118.976 156.846C118.926 156.878 118.87 156.899 118.812 156.909C116.009 157.409 113.473 158.887 111.651 161.083C109.829 163.279 108.838 166.051 108.853 168.909C108.853 169.579 108.913 170.249 109.033 170.909C109.043 170.969 109.041 171.03 109.027 171.089C109.013 171.148 108.988 171.203 108.953 171.253C108.918 171.302 108.874 171.344 108.822 171.376C108.771 171.408 108.714 171.429 108.654 171.439L105.667 171.939L105.607 171.899ZM117.876 154.109C114.135 154.865 110.823 157.024 108.614 160.148C106.404 163.271 105.464 167.123 105.985 170.919L108.057 170.569C107.617 167.313 108.421 164.011 110.307 161.326C112.194 158.642 115.022 156.774 118.224 156.099L117.876 154.109Z" fill="#0A4DD0"/>
<path d="M120.932 181.451C117.966 181.452 115.097 180.396 112.834 178.471C110.571 176.547 109.061 173.879 108.573 170.941L105.586 171.441C105.924 173.447 106.652 175.367 107.728 177.091C108.805 178.814 110.209 180.308 111.861 181.486C113.513 182.665 115.379 183.505 117.354 183.959C119.329 184.412 121.374 184.471 123.372 184.131L122.894 181.281C122.245 181.388 121.589 181.445 120.932 181.451Z" fill="#CFCFE2"/>
<path d="M120.785 184.81C117.039 184.801 113.417 183.462 110.56 181.03C107.702 178.598 105.793 175.229 105.17 171.52C105.157 171.461 105.157 171.401 105.169 171.342C105.181 171.283 105.205 171.227 105.239 171.178C105.274 171.129 105.319 171.088 105.37 171.057C105.422 171.027 105.479 171.007 105.539 171L108.526 170.49C108.645 170.471 108.767 170.5 108.865 170.57C108.915 170.605 108.957 170.65 108.989 170.701C109.022 170.753 109.044 170.81 109.054 170.87C109.519 173.711 110.978 176.292 113.168 178.149C115.359 180.006 118.137 181.017 121.004 181C121.645 180.993 122.284 180.936 122.916 180.83C123.033 180.813 123.153 180.841 123.249 180.91C123.346 180.979 123.412 181.083 123.434 181.2L123.912 184.05C123.932 184.169 123.905 184.292 123.836 184.391C123.767 184.49 123.662 184.558 123.544 184.58C122.632 184.735 121.709 184.812 120.785 184.81ZM106.136 171.81C106.878 175.572 109.026 178.906 112.139 181.126C115.253 183.347 119.095 184.286 122.876 183.75L122.548 181.75C122.013 181.827 121.474 181.867 120.934 181.87C117.936 181.878 115.028 180.84 112.707 178.934C110.386 177.028 108.796 174.372 108.208 171.42L106.136 171.81Z" fill="#0A4DD0"/>
<path d="M136.032 166.27C135.695 164.262 134.966 162.341 133.888 160.616C132.81 158.891 131.404 157.396 129.75 156.218C128.096 155.039 126.227 154.199 124.25 153.747C122.272 153.294 120.226 153.238 118.227 153.58L118.715 156.47C119.44 156.334 120.177 156.264 120.915 156.26C124.047 156.29 127.054 157.495 129.345 159.639C131.637 161.783 133.046 164.711 133.295 167.846C133.545 170.981 132.618 174.096 130.695 176.578C128.772 179.061 125.994 180.731 122.907 181.26L123.385 184.11C126.376 183.603 129.152 182.221 131.366 180.139C133.58 178.056 135.134 175.364 135.833 172.4C136.302 170.383 136.367 168.292 136.022 166.25L136.032 166.27Z" fill="#2C3C8D"/>
<path d="M123.024 184.651L122.397 180.901L122.845 180.831C125.838 180.338 128.537 178.734 130.407 176.336C132.277 173.939 133.181 170.923 132.941 167.887C132.7 164.852 131.332 162.017 129.108 159.947C126.884 157.877 123.966 156.722 120.933 156.711C120.222 156.716 119.512 156.783 118.812 156.911L118.364 156.991L117.727 153.211L118.165 153.131C122.316 152.438 126.572 153.422 130.003 155.869C133.434 158.316 135.762 162.026 136.478 166.191C136.655 167.254 136.728 168.333 136.697 169.411C136.658 170.458 136.518 171.5 136.279 172.521C135.563 175.573 133.965 178.345 131.687 180.49C129.409 182.636 126.552 184.058 123.473 184.581L123.024 184.651ZM123.433 181.651L123.771 183.601C126.585 183.039 129.178 181.676 131.241 179.674C133.303 177.672 134.748 175.115 135.403 172.311C135.626 171.349 135.756 170.368 135.791 169.381C135.823 168.376 135.753 167.371 135.582 166.381C134.928 162.528 132.807 159.082 129.668 156.771C126.529 154.461 122.618 153.467 118.762 154.001L119.101 156.001C119.707 155.906 120.32 155.859 120.933 155.861C124.182 155.813 127.33 156.994 129.752 159.168C132.174 161.343 133.693 164.353 134.008 167.6C134.323 170.847 133.41 174.095 131.451 176.698C129.492 179.301 126.63 181.069 123.433 181.651Z" fill="#0A4DD0"/>
<path d="M100.12 158.059H88.957V207.479H100.12V158.059Z" fill="#0A4DD0"/>
<path d="M100.119 207.929H88.956C88.8371 207.929 88.7231 207.882 88.6391 207.798C88.5551 207.713 88.5078 207.599 88.5078 207.479V158.059C88.5078 157.94 88.5551 157.826 88.6391 157.741C88.7231 157.657 88.8371 157.609 88.956 157.609H100.119C100.238 157.609 100.352 157.657 100.436 157.741C100.52 157.826 100.567 157.94 100.567 158.059V207.479C100.567 207.599 100.52 207.713 100.436 207.798C100.352 207.882 100.238 207.929 100.119 207.929ZM89.4041 207.029H99.6612V158.509H89.4041V207.029Z" fill="#0A4DD0"/>
<path d="M115.994 176.148H104.891V207.478H115.994V176.148Z" fill="#0A4DD0"/>
<path d="M115.995 207.929H104.892C104.772 207.929 104.657 207.882 104.571 207.798C104.486 207.714 104.436 207.599 104.434 207.479V176.149C104.436 176.029 104.486 175.915 104.571 175.83C104.657 175.746 104.772 175.699 104.892 175.699H115.995C116.114 175.699 116.228 175.747 116.312 175.831C116.396 175.915 116.443 176.03 116.443 176.149V207.479C116.443 207.599 116.396 207.713 116.312 207.797C116.228 207.882 116.114 207.929 115.995 207.929ZM105.34 207.029H115.537V176.649H105.34V207.029Z" fill="#0A4DD0"/>
<path d="M131.717 189.781H120.594V207.471H131.717V189.781Z" fill="#0A4DD0"/>
<path d="M131.72 207.928H120.597C120.478 207.928 120.364 207.881 120.28 207.796C120.196 207.712 120.148 207.597 120.148 207.478V189.778C120.148 189.659 120.196 189.544 120.28 189.46C120.364 189.376 120.478 189.328 120.597 189.328H131.72C131.839 189.328 131.953 189.376 132.037 189.46C132.121 189.544 132.168 189.659 132.168 189.778V207.478C132.168 207.597 132.121 207.712 132.037 207.796C131.953 207.881 131.839 207.928 131.72 207.928ZM121.045 207.028H131.262V190.238H121.045V207.028Z" fill="#0A4DD0"/>
<path d="M99.0923 158.059H87.9688V206.359H99.0923V158.059Z" fill="white"/>
<path d="M99.5432 206.808H87.5234V157.648H99.5432V206.808ZM88.4297 205.898H98.647V158.508H88.4297V205.898Z" fill="#0A4DD0"/>
<path d="M114.967 176.148H103.844V206.358H114.967V176.148Z" fill="white"/>
<path d="M115.416 206.809H103.387V175.699H115.416V206.809ZM104.283 205.899H114.5V176.649H104.283V205.899Z" fill="#0A4DD0"/>
<path d="M130.694 189.781H119.57V206.351H130.694V189.781Z" fill="white"/>
<path d="M131.171 206.808H119.121V189.328H131.171V206.808ZM120.057 205.898H130.274V190.238H120.027L120.057 205.898Z" fill="#0A4DD0"/>
<path d="M87.9702 206.352H99.0938V158.052H87.9702V206.352Z" fill="#A6B5FF"/>
<path d="M99.0951 206.809H87.9716C87.8527 206.809 87.7388 206.762 87.6547 206.678C87.5707 206.593 87.5234 206.479 87.5234 206.359V158.059C87.5234 157.94 87.5707 157.826 87.6547 157.741C87.7388 157.657 87.8527 157.609 87.9716 157.609H99.0951C99.2139 157.609 99.328 157.657 99.412 157.741C99.496 157.826 99.5432 157.94 99.5432 158.059V206.359C99.5432 206.479 99.496 206.593 99.412 206.678C99.328 206.762 99.2139 206.809 99.0951 206.809ZM88.4297 205.899H98.647V158.509H88.4297V205.899Z" fill="#0A4DD0"/>
<path d="M81.597 149.34H70.4336V207.47H81.597V149.34Z" fill="#0A4DD0"/>
<path d="M81.5978 207.82H70.4245C70.3348 207.82 70.2486 207.784 70.1851 207.72C70.1216 207.657 70.0859 207.57 70.0859 207.48V149.34C70.0859 149.25 70.1216 149.163 70.1851 149.1C70.2486 149.036 70.3348 149 70.4245 149H81.5879C81.6777 149 81.7639 149.036 81.8274 149.1C81.8909 149.163 81.9265 149.25 81.9265 149.34V207.48C81.9265 207.568 81.8922 207.653 81.8309 207.717C81.7695 207.78 81.6859 207.817 81.5978 207.82ZM70.7731 207.14H81.2593V149.65H70.7731V207.14Z" fill="#0A4DD0"/>
<path d="M80.5728 149.488H69.4492V206.358H80.5728V149.488Z" fill="#FFB6C6"/>
<path d="M81.0198 206.809H69V149.039H81.0198V206.809ZM69.9062 205.899H80.1235V149.899H69.9062V205.899Z" fill="#0A4DD0"/>
<path d="M103.845 206.352H114.969V176.142H103.845V206.352Z" fill="#FF7593"/>
<path d="M115.416 206.809H103.387V175.699H115.416V206.809ZM104.283 205.899H114.5V176.649H104.283V205.899Z" fill="#0A4DD0"/>
<path d="M130.694 189.781H119.57V206.351H130.694V189.781Z" fill="#FFB6C6"/>
<path d="M131.171 206.808H119.121V189.328H131.171V206.808ZM120.057 205.898H130.274V190.238H120.027L120.057 205.898Z" fill="#0A4DD0"/>
<path d="M147.553 200.301H136.43V207.551H147.553V200.301Z" fill="#0A4DD0"/>
<path d="M147.552 208.002H136.429C136.37 208.002 136.311 207.99 136.257 207.967C136.203 207.945 136.153 207.912 136.112 207.87C136.07 207.828 136.037 207.778 136.015 207.724C135.992 207.669 135.98 207.611 135.98 207.552V200.302C135.98 200.242 135.992 200.184 136.015 200.129C136.037 200.075 136.07 200.025 136.112 199.983C136.153 199.942 136.203 199.908 136.257 199.886C136.311 199.863 136.37 199.852 136.429 199.852H147.552C147.671 199.852 147.785 199.899 147.869 199.983C147.953 200.068 148 200.182 148 200.302V207.552C148 207.671 147.953 207.785 147.869 207.87C147.785 207.954 147.671 208.002 147.552 208.002ZM136.887 207.092H147.104V200.762H136.887V207.092Z" fill="#0A4DD0"/>
<path d="M146.526 200.301H135.402V207.051H146.526V200.301Z" fill="white"/>
<path d="M146.973 207.512H134.953V199.852H146.973V207.512ZM135.859 206.652H146.107V200.812H135.859V206.652Z" fill="#0A4DD0"/>
<path d="M146.526 200.301H135.402V207.051H146.526V200.301Z" fill="#A6B5FF"/>
<path d="M146.525 207.512H135.401C135.282 207.509 135.168 207.459 135.084 207.373C135 207.287 134.953 207.172 134.953 207.052V200.302C134.953 200.182 135 200.068 135.084 199.983C135.168 199.899 135.282 199.852 135.401 199.852H146.525C146.644 199.852 146.758 199.899 146.842 199.983C146.926 200.068 146.973 200.182 146.973 200.302V207.052C146.973 207.172 146.926 207.287 146.842 207.373C146.759 207.459 146.645 207.509 146.525 207.512ZM135.859 206.652H146.107V200.812H135.859V206.652Z" fill="#0A4DD0"/>
<path d="M480.05 19.918C480.05 19.918 532.872 49.9508 494.292 89.6459C455.712 129.341 392.1 88.2383 394.87 46.3164C397.64 4.39458 459.746 1.86721 480.05 19.918Z" fill="#DEE3FF"/>
<path d="M370.905 160.351L382.851 160.556C382.913 160.557 382.975 160.57 383.032 160.595C383.089 160.62 383.14 160.656 383.183 160.701C383.226 160.746 383.259 160.8 383.281 160.858C383.303 160.916 383.314 160.978 383.312 161.04C383.179 163.456 382.344 165.781 380.909 167.729C379.475 169.678 377.503 171.165 375.235 172.01C372.968 172.854 370.503 173.018 368.144 172.482C365.784 171.946 363.632 170.733 361.952 168.992C360.272 167.251 359.136 165.058 358.684 162.681C358.232 160.304 358.483 157.846 359.408 155.61C360.332 153.374 361.888 151.456 363.886 150.091C365.884 148.727 368.237 147.975 370.657 147.928C370.716 147.927 370.776 147.938 370.831 147.96C370.887 147.983 370.937 148.016 370.979 148.058C371.022 148.101 371.055 148.151 371.077 148.206C371.1 148.262 371.111 148.321 371.11 148.381L370.905 160.351Z" fill="white"/>
<path d="M383.696 161.033C383.697 160.921 383.677 160.809 383.636 160.705C383.594 160.6 383.532 160.505 383.454 160.424C383.375 160.344 383.282 160.28 383.178 160.236C383.075 160.191 382.964 160.168 382.851 160.167L371.326 159.97L371.525 148.39C371.526 148.161 371.438 147.941 371.277 147.777C371.199 147.7 371.105 147.639 371.003 147.598C370.9 147.558 370.79 147.538 370.68 147.54C368.186 147.589 365.76 148.364 363.7 149.772C361.641 151.179 360.036 153.157 359.084 155.463C358.132 157.769 357.874 160.302 358.341 162.753C358.809 165.203 359.981 167.464 361.714 169.258C363.448 171.052 365.667 172.301 368.1 172.852C370.533 173.403 373.074 173.231 375.412 172.359C377.749 171.487 379.78 169.951 381.257 167.941C382.734 165.93 383.593 163.533 383.727 161.042L383.696 161.033ZM358.858 160.139C358.899 157.252 359.987 154.479 361.92 152.334C363.023 151.1 364.368 150.107 365.871 149.417C367.375 148.726 369.005 148.353 370.659 148.321L370.508 160.347C370.506 160.45 370.545 160.55 370.617 160.624C370.689 160.699 370.788 160.742 370.891 160.744L382.838 160.948L383.305 161.042L382.914 161.035C382.737 164.058 381.427 166.903 379.246 169.003C377.065 171.104 374.173 172.305 371.145 172.369C368.118 172.432 365.178 171.353 362.911 169.345C360.644 167.338 359.216 164.551 358.912 161.538C358.856 161.074 358.827 160.606 358.827 160.139L358.858 160.139Z" fill="#0A4DD0"/>
<path d="M374.082 144.674C377.428 144.871 380.578 146.316 382.91 148.723C385.242 151.13 386.586 154.325 386.676 157.675C386.676 157.748 386.661 157.82 386.633 157.886C386.605 157.953 386.564 158.014 386.512 158.064C386.46 158.115 386.399 158.155 386.332 158.182C386.264 158.209 386.192 158.222 386.12 158.221L373.83 158.01C373.759 158.01 373.69 157.996 373.625 157.968C373.56 157.941 373.501 157.901 373.452 157.851C373.403 157.8 373.364 157.741 373.338 157.676C373.312 157.61 373.299 157.54 373.3 157.47L373.51 145.203C373.513 145.131 373.529 145.059 373.559 144.993C373.589 144.927 373.632 144.868 373.685 144.819C373.738 144.77 373.801 144.731 373.869 144.707C373.937 144.682 374.009 144.671 374.082 144.674Z" fill="#A6B5FF"/>
<path d="M387.062 157.74L387.063 157.685C386.964 154.236 385.58 150.948 383.182 148.466C380.784 145.985 377.545 144.489 374.101 144.271C373.976 144.264 373.851 144.281 373.734 144.324C373.616 144.366 373.508 144.432 373.417 144.518C373.233 144.691 373.125 144.931 373.117 145.184L372.906 157.482C372.904 157.727 372.999 157.963 373.17 158.139C373.341 158.314 373.575 158.415 373.82 158.419L386.11 158.63C386.237 158.633 386.363 158.61 386.481 158.562C386.598 158.514 386.705 158.443 386.794 158.353C386.957 158.189 387.053 157.971 387.062 157.74ZM374.048 145.067C377.298 145.271 380.354 146.682 382.617 149.022C384.88 151.363 386.187 154.465 386.282 157.719C386.294 157.752 386.293 157.788 386.28 157.82C386.264 157.836 386.246 157.848 386.226 157.855C386.205 157.863 386.184 157.866 386.162 157.865L373.833 157.654C373.795 157.654 373.758 157.638 373.731 157.612C373.704 157.585 373.688 157.549 373.687 157.511L373.897 145.213C373.902 145.171 373.922 145.132 373.954 145.105C373.979 145.08 374.013 145.067 374.048 145.067Z" fill="#0A4DD0"/>
<path d="M345.363 153.328H355.023V208.322H345.363V153.328Z" fill="white"/>
<path d="M345.359 208.708H355.027C355.131 208.708 355.23 208.667 355.304 208.594C355.377 208.521 355.418 208.421 355.418 208.318V153.324C355.416 153.221 355.374 153.123 355.301 153.05C355.229 152.977 355.13 152.936 355.027 152.934H345.359C345.257 152.936 345.158 152.977 345.086 153.05C345.013 153.123 344.971 153.221 344.969 153.324V208.318C344.969 208.421 345.01 208.521 345.083 208.594C345.157 208.667 345.256 208.708 345.359 208.708ZM354.637 207.927H345.75V153.715H354.637V207.927Z" fill="#0A4DD0"/>
<path d="M360.848 176.633H370.508V208.316H360.848V176.633Z" fill="#FFB6C5"/>
<path d="M360.449 208.706H370.898V176.242H360.449V208.706ZM370.117 207.925H361.23V177.023H370.117V207.925Z" fill="#0A4DD0"/>
<path d="M331.437 170.242H341.098V208.321H331.437V170.242Z" fill="#FFB6C5"/>
<path d="M331.039 208.707H341.449V169.848H331L331.039 208.707ZM340.707 207.926H331.82V170.629H340.668L340.707 207.926Z" fill="#0A4DD0"/>
</g>
<defs>
<clipPath id="clip0_3594_175374">
<rect width="534" height="382" fill="white"/>
</clipPath>
</defs>
</svg>
