<svg width="534" height="382" viewBox="0 0 534 382" fill="none" xmlns="http://www.w3.org/2000/svg">
<g clip-path="url(#clip0_1_4937)">
<path d="M19.0697 100.019C27.3726 80.4199 43.7935 55.8451 59.7568 41.8066C81.6578 22.5584 109.993 14.8904 130.755 10.4418C178.003 0.315296 230.643 12.0808 233.573 51.777C234.741 67.5423 223.605 93.5512 231.022 111.287C238.021 127.97 240.308 135.013 256.116 143.754C274.513 153.93 283.77 154.983 292.355 157.266C316.903 163.802 323.766 135.199 373.057 148.662C432.278 164.856 439.675 232.239 432.959 270.14C426.243 308.042 396.652 352.596 361.834 368.82C351.916 373.444 327.406 379.503 327.406 379.503L166.565 382C166.565 382 72.7319 370.761 25.6789 293.457C-6.94863 239.849 -7.73706 163.295 19.0697 100.019Z" fill="#DEE3FF"/>
<path d="M231.979 34.9219H223.188V296.363H231.979V34.9219Z" fill="#FFC9D5"/>
<path d="M319.494 346.496H135.672V357.628H319.494V346.496Z" fill="#FFC9D5"/>
<path d="M338.884 357.629H116.285V368.761H338.884V357.629Z" fill="#EAAAB8"/>
<path d="M357.43 368.758H97.75V379.89H357.43V368.758Z" fill="#FFC9D5"/>
<path d="M354.369 30.7285H100.812V40.111H354.369V30.7285Z" fill="#FFC9D5"/>
<path d="M293.637 214.372L352.939 35.832L412.252 214.372" stroke="#2C3C8D" stroke-width="2.41" stroke-miterlimit="10"/>
<path d="M352.948 258.151C387.154 258.151 414.886 238.074 414.886 213.316H291C291 238.129 318.732 258.151 352.948 258.151Z" fill="#FFC9D5"/>
<path d="M404.518 213.301C396.305 231.103 373.112 243.92 345.773 243.92C322.722 243.92 302.634 234.8 291.961 221.273C297.177 242.236 322.47 258.135 352.914 258.135C387.12 258.135 414.852 238.058 414.852 213.301H404.518Z" fill="#EAAAB8"/>
<path d="M352.939 43.6593C357.263 43.6593 360.769 40.1539 360.769 35.8297C360.769 31.5055 357.263 28 352.939 28C348.615 28 345.109 31.5055 345.109 35.8297C345.109 40.1539 348.615 43.6593 352.939 43.6593Z" fill="#2C3C8D"/>
<path d="M42.6367 214.372L101.939 35.832L161.252 214.372" stroke="#2C3C8D" stroke-width="2.41" stroke-miterlimit="10"/>
<path d="M101.948 258.151C136.154 258.151 163.886 238.074 163.886 213.316H40C40 238.129 67.7319 258.151 101.948 258.151Z" fill="#FFC9D5"/>
<path d="M153.518 213.301C145.305 231.103 122.112 243.92 94.7735 243.92C71.7219 243.92 51.6338 234.8 40.9609 221.273C46.1771 242.236 71.4704 258.135 101.914 258.135C136.12 258.135 163.852 238.058 163.852 213.301H153.518Z" fill="#EAAAB8"/>
<path d="M101.939 43.6593C106.263 43.6593 109.769 40.1539 109.769 35.8297C109.769 31.5055 106.263 28 101.939 28C97.6148 28 94.1094 31.5055 94.1094 35.8297C94.1094 40.1539 97.6148 43.6593 101.939 43.6593Z" fill="#2C3C8D"/>
<path d="M227.586 288.152C212.112 288.155 197.273 294.304 186.333 305.247C175.392 316.189 169.246 331.029 169.246 346.503H285.937C285.937 338.84 284.427 331.253 281.495 324.173C278.562 317.094 274.264 310.661 268.846 305.243C263.428 299.825 256.995 295.526 249.916 292.594C242.836 289.662 235.249 288.152 227.586 288.152Z" fill="#A6B5FF"/>
<path opacity="0.22" d="M209.806 323.179C220.309 316.475 225.772 306.262 222.009 300.367C218.246 294.472 206.682 295.127 196.18 301.831C185.678 308.534 180.214 318.748 183.977 324.643C187.74 330.538 199.304 329.882 209.806 323.179Z" fill="white"/>
<path d="M272.749 21L185.365 21C182.521 21 180.215 23.306 180.215 26.1505V45.7356C180.215 48.5802 182.521 50.8861 185.365 50.8861H272.749C275.594 50.8861 277.9 48.5802 277.9 45.7356V26.1505C277.9 23.306 275.594 21 272.749 21Z" fill="#A6B5FF"/>
<path d="M286.516 185.377C285.389 185.379 284.287 185.047 283.349 184.422C282.411 183.798 281.68 182.909 281.248 181.868C280.816 180.827 280.702 179.682 280.921 178.577C281.141 177.472 281.683 176.456 282.48 175.659C283.277 174.863 284.292 174.32 285.397 174.101C286.502 173.882 287.648 173.995 288.688 174.428C289.729 174.86 290.618 175.591 291.243 176.529C291.867 177.467 292.2 178.569 292.197 179.695C292.197 181.202 291.599 182.647 290.533 183.713C289.468 184.779 288.023 185.377 286.516 185.377ZM286.516 175.495C285.685 175.495 284.873 175.742 284.182 176.203C283.491 176.665 282.953 177.321 282.635 178.088C282.317 178.855 282.234 179.7 282.396 180.515C282.558 181.329 282.958 182.078 283.546 182.665C284.133 183.253 284.882 183.653 285.696 183.815C286.511 183.977 287.355 183.894 288.123 183.576C288.89 183.258 289.546 182.719 290.008 182.029C290.469 181.338 290.716 180.526 290.716 179.695C290.704 178.59 290.257 177.533 289.47 176.757C288.683 175.98 287.621 175.546 286.516 175.549V175.495Z" fill="#DCEAEF"/>
<path d="M69.1525 378.646C62.9483 378.87 37.8652 384.381 38.2383 363.967C38.4515 353.541 35.4134 353.914 29.3052 349.832C23.197 345.749 23.3462 343.137 23.8792 337.306C24.4122 331.475 18.6025 334.289 14.7222 326.646C10.0851 317.468 15.671 310.656 24.6787 308.972C33.6865 307.287 33.42 317.031 36.9911 319.93C40.5622 322.83 45.5191 316.594 52.3949 325.036C56.8828 330.548 49.9217 343.158 56.5203 341.954" fill="white"/>
<path d="M69.1525 378.646C62.9483 378.87 37.8652 384.381 38.2383 363.967C38.4515 353.541 35.4134 353.914 29.3052 349.832C23.197 345.749 23.3462 343.137 23.8792 337.306C24.4122 331.475 18.6025 334.289 14.7222 326.646C10.0851 317.468 15.671 310.656 24.6787 308.972C33.6865 307.287 33.42 317.031 36.9911 319.93C40.5622 322.83 45.5191 316.594 52.3949 325.036C56.8828 330.548 49.9217 343.158 56.5203 341.954" stroke="#7189FF" stroke-miterlimit="10"/>
<path d="M57.377 360.458C48.5718 348.562 39.3047 337.027 29.5756 325.856C28.8933 325.077 27.7634 326.207 28.4456 326.986C38.061 338.044 47.2428 349.457 55.9912 361.226C56.5988 362.047 57.9846 361.226 57.377 360.426V360.458Z" fill="#7189FF"/>
<path d="M42.3748 325.366L41.4048 339.938L41.2662 341.996L42.0657 341.196L28.6979 342.262C27.6319 342.347 27.6319 343.946 28.6979 343.861L42.0657 342.795C42.276 342.79 42.4762 342.704 42.625 342.555C42.7738 342.406 42.8598 342.206 42.8652 341.996L43.8352 327.423L43.9738 325.366C44.0485 324.3 42.4494 324.3 42.3748 325.366Z" fill="#7189FF"/>
<path d="M29.1354 257.919C17.9637 248.816 15.2774 220.694 31.2142 212.156C50.9033 201.592 71.5092 217.934 74.1102 234.734C76.1037 247.696 67.0426 256.747 90.6333 266.256C114.224 275.764 110.578 287.576 105.728 310.122C100.878 332.668 116.825 324.406 129.18 343.456C138.998 358.55 125.193 373.944 119.042 379.7L70.7949 379.466C69.224 378.55 67.727 377.513 66.3177 376.363C50.7434 363.625 56.9049 343.498 58.5465 327.828C60.7852 306.444 35.9259 318.447 26.2146 296.701C16.5033 274.954 40.3178 267.023 29.1354 257.919Z" fill="white" stroke="#7189FF" stroke-miterlimit="10"/>
<path d="M110.645 378.952C108.705 374.688 106.758 370.399 104.803 366.085C100.006 355.532 95.1949 344.989 90.3695 334.457C84.1866 320.954 77.9683 307.483 71.7144 294.045C65.6879 281.103 59.5974 268.19 53.443 255.306C49.083 246.224 44.7337 237.12 39.958 228.251C39.5956 227.54 39.2225 226.858 38.8387 226.204C38.3377 225.308 36.9625 226.108 37.4636 227.014C42.0154 235.158 45.9916 243.622 50.0851 252.023C56.172 264.591 62.1096 277.234 68.0153 289.887C74.3474 303.447 80.6333 317.035 86.873 330.651C91.9472 341.716 97.0071 352.789 102.053 363.868L106.893 374.528C107.639 376.18 108.268 377.971 109.163 379.538C109.2 379.611 109.232 379.686 109.259 379.762C109.686 380.7 111.061 379.879 110.645 378.952Z" fill="#7189FF"/>
<path d="M65.8491 283.324L37.8344 281.842L33.8369 281.629C33.3252 281.629 33.3252 282.396 33.8369 282.428L61.8515 283.91L65.8491 284.123C66.3607 284.123 66.3607 283.356 65.8491 283.324Z" fill="#7189FF"/>
<path d="M98.1718 353.232L66.6607 349.831L62.1727 349.351C61.6611 349.287 61.6717 350.087 62.1727 350.151L93.6946 353.573L98.1718 354.063C98.6835 354.116 98.6835 353.317 98.1718 353.264V353.232Z" fill="#7189FF"/>
<path d="M100.239 276.991L83.7265 312.531L81.4346 317.477C81.2107 317.936 81.9037 318.341 82.1169 317.883L98.6293 282.342L100.932 277.396C101.145 276.937 100.452 276.532 100.239 276.991Z" fill="#7189FF"/>
<path d="M55.019 230.98C56.5861 233.187 59.283 234.018 61.1059 232.846C62.9288 231.673 63.0887 228.944 61.5217 226.737C59.9546 224.531 57.2577 223.689 55.4348 224.861C53.6119 226.034 53.42 228.848 55.019 230.98Z" fill="#7189FF"/>
<path d="M53.8372 242.942C53.8223 243.381 53.9392 243.815 54.173 244.188C54.4067 244.561 54.7465 244.856 55.1488 245.034C55.5511 245.212 55.9975 245.266 56.4307 245.188C56.8638 245.111 57.2639 244.906 57.5796 244.599C57.8953 244.293 58.1122 243.899 58.2024 243.468C58.2925 243.038 58.2519 242.59 58.0856 242.182C57.9194 241.775 57.6351 241.427 57.2694 241.182C56.9037 240.937 56.4732 240.808 56.0332 240.81C55.7479 240.801 55.4637 240.85 55.1976 240.953C54.9315 241.056 54.6889 241.212 54.4841 241.411C54.2793 241.61 54.1165 241.848 54.0054 242.111C53.8942 242.374 53.8371 242.656 53.8372 242.942Z" fill="white"/>
<path d="M278.056 136.28C278.056 136.28 245.313 124.662 256.227 92.3898C267.142 60.1175 317.338 59.3043 319.901 93.345C321.066 108.836 312.223 146.452 278.056 136.28Z" fill="#DEE3FF"/>
<path d="M108.386 168.858C108.385 165.901 109.422 163.038 111.314 160.773C113.206 158.507 115.833 156.983 118.732 156.468L118.244 153.578C116.247 153.917 114.335 154.648 112.619 155.73C110.902 156.811 109.415 158.221 108.242 159.879C107.068 161.538 106.231 163.412 105.779 165.396C105.327 167.379 105.269 169.432 105.607 171.438L108.595 170.938C108.465 170.252 108.395 169.556 108.386 168.858Z" fill="#A6B5FF"/>
<path d="M105.607 171.899C105.5 171.9 105.397 171.862 105.317 171.792C105.236 171.722 105.183 171.625 105.169 171.519C104.465 167.35 105.439 163.071 107.875 159.622C110.312 156.174 114.013 153.838 118.165 153.129C118.284 153.114 118.405 153.144 118.503 153.215C118.6 153.285 118.668 153.39 118.692 153.509L119.18 156.389C119.19 156.447 119.189 156.507 119.176 156.565C119.162 156.623 119.138 156.677 119.104 156.726C119.069 156.774 119.026 156.815 118.976 156.846C118.926 156.878 118.87 156.899 118.812 156.909C116.009 157.409 113.473 158.887 111.651 161.083C109.829 163.279 108.838 166.051 108.853 168.909C108.853 169.579 108.913 170.249 109.033 170.909C109.043 170.969 109.041 171.03 109.027 171.089C109.013 171.148 108.988 171.203 108.953 171.253C108.918 171.302 108.874 171.344 108.822 171.376C108.771 171.408 108.714 171.429 108.654 171.439L105.667 171.939L105.607 171.899ZM117.876 154.109C114.135 154.865 110.823 157.024 108.614 160.148C106.404 163.271 105.464 167.123 105.985 170.919L108.057 170.569C107.617 167.313 108.421 164.011 110.307 161.326C112.194 158.642 115.022 156.774 118.224 156.099L117.876 154.109Z" fill="#0A4DD0"/>
<path d="M120.932 181.451C117.966 181.452 115.097 180.396 112.834 178.471C110.571 176.547 109.061 173.879 108.573 170.941L105.586 171.441C105.924 173.447 106.652 175.367 107.728 177.091C108.805 178.814 110.209 180.308 111.861 181.486C113.513 182.665 115.379 183.505 117.354 183.959C119.329 184.412 121.374 184.471 123.372 184.131L122.894 181.281C122.245 181.388 121.589 181.445 120.932 181.451Z" fill="#CFCFE2"/>
<path d="M120.785 184.81C117.039 184.801 113.417 183.462 110.56 181.03C107.702 178.598 105.793 175.229 105.17 171.52C105.157 171.461 105.157 171.401 105.169 171.342C105.181 171.283 105.205 171.227 105.239 171.178C105.274 171.129 105.319 171.088 105.37 171.057C105.422 171.027 105.479 171.007 105.539 171L108.526 170.49C108.645 170.471 108.767 170.5 108.865 170.57C108.915 170.605 108.957 170.65 108.989 170.701C109.022 170.753 109.044 170.81 109.054 170.87C109.519 173.711 110.978 176.292 113.168 178.149C115.359 180.006 118.137 181.017 121.004 181C121.645 180.993 122.284 180.936 122.916 180.83C123.033 180.813 123.153 180.841 123.249 180.91C123.346 180.979 123.412 181.083 123.434 181.2L123.912 184.05C123.932 184.169 123.905 184.292 123.836 184.391C123.767 184.49 123.662 184.558 123.544 184.58C122.632 184.735 121.709 184.812 120.785 184.81ZM106.136 171.81C106.878 175.572 109.026 178.906 112.139 181.126C115.253 183.347 119.095 184.286 122.876 183.75L122.548 181.75C122.013 181.827 121.474 181.867 120.934 181.87C117.936 181.878 115.028 180.84 112.707 178.934C110.386 177.028 108.796 174.372 108.208 171.42L106.136 171.81Z" fill="#0A4DD0"/>
<path d="M136.032 166.27C135.695 164.262 134.966 162.341 133.888 160.616C132.81 158.891 131.404 157.396 129.75 156.218C128.096 155.039 126.227 154.199 124.25 153.747C122.272 153.294 120.226 153.238 118.227 153.58L118.715 156.47C119.44 156.334 120.177 156.264 120.915 156.26C124.047 156.29 127.054 157.495 129.345 159.639C131.637 161.783 133.046 164.711 133.295 167.846C133.545 170.981 132.618 174.096 130.695 176.578C128.772 179.061 125.994 180.731 122.907 181.26L123.385 184.11C126.376 183.603 129.152 182.221 131.366 180.139C133.58 178.056 135.134 175.364 135.833 172.4C136.302 170.383 136.367 168.292 136.022 166.25L136.032 166.27Z" fill="#2C3C8D"/>
<path d="M123.024 184.651L122.397 180.901L122.845 180.831C125.838 180.338 128.537 178.734 130.407 176.336C132.277 173.939 133.181 170.923 132.941 167.887C132.7 164.852 131.332 162.017 129.108 159.947C126.884 157.877 123.966 156.722 120.933 156.711C120.222 156.716 119.512 156.783 118.812 156.911L118.364 156.991L117.727 153.211L118.165 153.131C122.316 152.438 126.572 153.422 130.003 155.869C133.434 158.316 135.762 162.026 136.478 166.191C136.655 167.254 136.728 168.333 136.697 169.411C136.658 170.458 136.518 171.5 136.279 172.521C135.563 175.573 133.965 178.345 131.687 180.49C129.409 182.636 126.552 184.058 123.473 184.581L123.024 184.651ZM123.433 181.651L123.771 183.601C126.585 183.039 129.178 181.676 131.241 179.674C133.303 177.672 134.748 175.115 135.403 172.311C135.626 171.349 135.756 170.368 135.791 169.381C135.823 168.376 135.753 167.371 135.582 166.381C134.928 162.528 132.807 159.082 129.668 156.771C126.529 154.461 122.618 153.467 118.762 154.001L119.101 156.001C119.707 155.906 120.32 155.859 120.933 155.861C124.182 155.813 127.33 156.994 129.752 159.168C132.174 161.343 133.693 164.353 134.008 167.6C134.323 170.847 133.41 174.095 131.451 176.698C129.492 179.301 126.63 181.069 123.433 181.651Z" fill="#0A4DD0"/>
<path d="M100.12 158.059H88.957V207.479H100.12V158.059Z" fill="#0A4DD0"/>
<path d="M100.119 207.929H88.956C88.8371 207.929 88.7231 207.882 88.6391 207.798C88.5551 207.713 88.5078 207.599 88.5078 207.479V158.059C88.5078 157.94 88.5551 157.826 88.6391 157.741C88.7231 157.657 88.8371 157.609 88.956 157.609H100.119C100.238 157.609 100.352 157.657 100.436 157.741C100.52 157.826 100.567 157.94 100.567 158.059V207.479C100.567 207.599 100.52 207.713 100.436 207.798C100.352 207.882 100.238 207.929 100.119 207.929ZM89.4041 207.029H99.6612V158.509H89.4041V207.029Z" fill="#0A4DD0"/>
<path d="M115.994 176.148H104.891V207.478H115.994V176.148Z" fill="#0A4DD0"/>
<path d="M115.995 207.929H104.892C104.772 207.929 104.657 207.882 104.571 207.798C104.486 207.714 104.436 207.599 104.434 207.479V176.149C104.436 176.029 104.486 175.915 104.571 175.83C104.657 175.746 104.772 175.699 104.892 175.699H115.995C116.114 175.699 116.228 175.747 116.312 175.831C116.396 175.915 116.443 176.03 116.443 176.149V207.479C116.443 207.599 116.396 207.713 116.312 207.797C116.228 207.882 116.114 207.929 115.995 207.929ZM105.34 207.029H115.537V176.649H105.34V207.029Z" fill="#0A4DD0"/>
<path d="M131.717 189.781H120.594V207.471H131.717V189.781Z" fill="#0A4DD0"/>
<path d="M131.72 207.928H120.597C120.478 207.928 120.364 207.881 120.28 207.796C120.196 207.712 120.148 207.597 120.148 207.478V189.778C120.148 189.659 120.196 189.544 120.28 189.46C120.364 189.376 120.478 189.328 120.597 189.328H131.72C131.839 189.328 131.953 189.376 132.037 189.46C132.121 189.544 132.168 189.659 132.168 189.778V207.478C132.168 207.597 132.121 207.712 132.037 207.796C131.953 207.881 131.839 207.928 131.72 207.928ZM121.045 207.028H131.262V190.238H121.045V207.028Z" fill="#0A4DD0"/>
<path d="M99.0923 158.059H87.9688V206.359H99.0923V158.059Z" fill="white"/>
<path d="M99.5432 206.808H87.5234V157.648H99.5432V206.808ZM88.4297 205.898H98.647V158.508H88.4297V205.898Z" fill="#0A4DD0"/>
<path d="M114.967 176.148H103.844V206.358H114.967V176.148Z" fill="white"/>
<path d="M115.416 206.809H103.387V175.699H115.416V206.809ZM104.283 205.899H114.5V176.649H104.283V205.899Z" fill="#0A4DD0"/>
<path d="M130.694 189.781H119.57V206.351H130.694V189.781Z" fill="white"/>
<path d="M131.171 206.808H119.121V189.328H131.171V206.808ZM120.057 205.898H130.274V190.238H120.027L120.057 205.898Z" fill="#0A4DD0"/>
<path d="M87.9702 206.352H99.0938V158.052H87.9702V206.352Z" fill="#A6B5FF"/>
<path d="M99.0951 206.809H87.9716C87.8527 206.809 87.7388 206.762 87.6547 206.678C87.5707 206.593 87.5234 206.479 87.5234 206.359V158.059C87.5234 157.94 87.5707 157.826 87.6547 157.741C87.7388 157.657 87.8527 157.609 87.9716 157.609H99.0951C99.2139 157.609 99.328 157.657 99.412 157.741C99.496 157.826 99.5432 157.94 99.5432 158.059V206.359C99.5432 206.479 99.496 206.593 99.412 206.678C99.328 206.762 99.2139 206.809 99.0951 206.809ZM88.4297 205.899H98.647V158.509H88.4297V205.899Z" fill="#0A4DD0"/>
<path d="M81.597 149.34H70.4336V207.47H81.597V149.34Z" fill="#0A4DD0"/>
<path d="M81.5978 207.82H70.4245C70.3348 207.82 70.2486 207.784 70.1851 207.72C70.1216 207.657 70.0859 207.57 70.0859 207.48V149.34C70.0859 149.25 70.1216 149.163 70.1851 149.1C70.2486 149.036 70.3348 149 70.4245 149H81.5879C81.6777 149 81.7639 149.036 81.8274 149.1C81.8909 149.163 81.9265 149.25 81.9265 149.34V207.48C81.9265 207.568 81.8922 207.653 81.8309 207.717C81.7695 207.78 81.6859 207.817 81.5978 207.82ZM70.7731 207.14H81.2593V149.65H70.7731V207.14Z" fill="#0A4DD0"/>
<path d="M80.5728 149.488H69.4492V206.358H80.5728V149.488Z" fill="#FFB6C6"/>
<path d="M81.0198 206.809H69V149.039H81.0198V206.809ZM69.9062 205.899H80.1235V149.899H69.9062V205.899Z" fill="#0A4DD0"/>
<path d="M103.845 206.352H114.969V176.142H103.845V206.352Z" fill="#FF7593"/>
<path d="M115.416 206.809H103.387V175.699H115.416V206.809ZM104.283 205.899H114.5V176.649H104.283V205.899Z" fill="#0A4DD0"/>
<path d="M130.694 189.781H119.57V206.351H130.694V189.781Z" fill="#FFB6C6"/>
<path d="M131.171 206.808H119.121V189.328H131.171V206.808ZM120.057 205.898H130.274V190.238H120.027L120.057 205.898Z" fill="#0A4DD0"/>
<path d="M147.553 200.301H136.43V207.551H147.553V200.301Z" fill="#0A4DD0"/>
<path d="M147.552 208.002H136.429C136.37 208.002 136.311 207.99 136.257 207.967C136.203 207.945 136.153 207.912 136.112 207.87C136.07 207.828 136.037 207.778 136.015 207.724C135.992 207.669 135.98 207.611 135.98 207.552V200.302C135.98 200.242 135.992 200.184 136.015 200.129C136.037 200.075 136.07 200.025 136.112 199.983C136.153 199.942 136.203 199.908 136.257 199.886C136.311 199.863 136.37 199.852 136.429 199.852H147.552C147.671 199.852 147.785 199.899 147.869 199.983C147.953 200.068 148 200.182 148 200.302V207.552C148 207.671 147.953 207.785 147.869 207.87C147.785 207.954 147.671 208.002 147.552 208.002ZM136.887 207.092H147.104V200.762H136.887V207.092Z" fill="#0A4DD0"/>
<path d="M146.526 200.301H135.402V207.051H146.526V200.301Z" fill="white"/>
<path d="M146.973 207.512H134.953V199.852H146.973V207.512ZM135.859 206.652H146.107V200.812H135.859V206.652Z" fill="#0A4DD0"/>
<path d="M146.526 200.301H135.402V207.051H146.526V200.301Z" fill="#A6B5FF"/>
<path d="M146.525 207.512H135.401C135.282 207.509 135.168 207.459 135.084 207.373C135 207.287 134.953 207.172 134.953 207.052V200.302C134.953 200.182 135 200.068 135.084 199.983C135.168 199.899 135.282 199.852 135.401 199.852H146.525C146.644 199.852 146.758 199.899 146.842 199.983C146.926 200.068 146.973 200.182 146.973 200.302V207.052C146.973 207.172 146.926 207.287 146.842 207.373C146.759 207.459 146.645 207.509 146.525 207.512ZM135.859 206.652H146.107V200.812H135.859V206.652Z" fill="#0A4DD0"/>
<path d="M480.05 19.918C480.05 19.918 532.872 49.9508 494.292 89.6459C455.712 129.341 392.1 88.2383 394.87 46.3164C397.64 4.39458 459.746 1.86721 480.05 19.918Z" fill="#DEE3FF"/>
<path d="M370.906 160.351L382.852 160.556C382.914 160.557 382.976 160.57 383.033 160.595C383.09 160.62 383.141 160.656 383.184 160.701C383.227 160.746 383.26 160.8 383.282 160.858C383.304 160.916 383.315 160.978 383.312 161.04C383.18 163.456 382.345 165.781 380.91 167.729C379.476 169.678 377.504 171.165 375.236 172.01C372.969 172.854 370.504 173.018 368.145 172.482C365.785 171.946 363.633 170.733 361.953 168.992C360.273 167.251 359.137 165.058 358.685 162.681C358.233 160.304 358.484 157.846 359.408 155.61C360.333 153.374 361.889 151.456 363.887 150.091C365.885 148.727 368.238 147.975 370.657 147.928C370.717 147.927 370.777 147.938 370.832 147.96C370.888 147.983 370.938 148.016 370.98 148.058C371.022 148.101 371.056 148.151 371.078 148.206C371.101 148.262 371.112 148.321 371.111 148.381L370.906 160.351Z" fill="white"/>
<path d="M383.697 161.033C383.698 160.921 383.678 160.809 383.637 160.705C383.595 160.6 383.533 160.505 383.455 160.424C383.376 160.344 383.283 160.28 383.179 160.236C383.076 160.191 382.965 160.168 382.852 160.167L371.327 159.97L371.526 148.39C371.527 148.161 371.439 147.941 371.278 147.777C371.2 147.7 371.106 147.639 371.004 147.598C370.901 147.558 370.791 147.538 370.681 147.54C368.187 147.589 365.761 148.364 363.701 149.772C361.642 151.179 360.037 153.157 359.085 155.463C358.133 157.769 357.875 160.302 358.342 162.753C358.81 165.203 359.982 167.464 361.715 169.258C363.449 171.052 365.668 172.301 368.101 172.852C370.534 173.403 373.075 173.231 375.412 172.359C377.75 171.487 379.781 169.951 381.258 167.941C382.735 165.93 383.594 163.533 383.728 161.042L383.697 161.033ZM358.859 160.139C358.9 157.252 359.988 154.479 361.921 152.334C363.024 151.1 364.369 150.107 365.872 149.417C367.376 148.726 369.006 148.353 370.66 148.321L370.508 160.347C370.507 160.45 370.546 160.55 370.618 160.624C370.69 160.699 370.789 160.742 370.892 160.744L382.839 160.948L383.306 161.042L382.915 161.035C382.738 164.058 381.428 166.903 379.247 169.003C377.066 171.104 374.174 172.305 371.146 172.369C368.119 172.432 365.179 171.353 362.912 169.345C360.645 167.338 359.217 164.551 358.913 161.538C358.857 161.074 358.828 160.606 358.827 160.139L358.859 160.139Z" fill="#0A4DD0"/>
<path d="M374.083 144.674C377.429 144.871 380.579 146.316 382.911 148.723C385.243 151.13 386.587 154.325 386.677 157.675C386.677 157.748 386.662 157.82 386.634 157.886C386.606 157.953 386.565 158.014 386.513 158.064C386.461 158.115 386.4 158.155 386.333 158.182C386.265 158.209 386.193 158.222 386.121 158.221L373.831 158.01C373.76 158.01 373.691 157.996 373.626 157.968C373.561 157.941 373.502 157.901 373.453 157.851C373.404 157.8 373.365 157.741 373.339 157.676C373.313 157.61 373.3 157.54 373.301 157.47L373.511 145.203C373.514 145.131 373.53 145.059 373.56 144.993C373.59 144.927 373.633 144.868 373.686 144.819C373.739 144.77 373.802 144.731 373.87 144.707C373.938 144.682 374.01 144.671 374.083 144.674Z" fill="#A6B5FF"/>
<path d="M387.063 157.74L387.064 157.685C386.965 154.236 385.581 150.948 383.183 148.466C380.785 145.985 377.546 144.489 374.102 144.271C373.977 144.264 373.852 144.281 373.735 144.324C373.617 144.366 373.509 144.432 373.418 144.518C373.234 144.691 373.126 144.931 373.118 145.184L372.907 157.482C372.905 157.727 373 157.963 373.171 158.139C373.342 158.314 373.576 158.415 373.821 158.419L386.111 158.63C386.238 158.633 386.364 158.61 386.482 158.562C386.599 158.514 386.706 158.443 386.795 158.353C386.958 158.189 387.054 157.971 387.063 157.74ZM374.049 145.067C377.299 145.271 380.355 146.682 382.618 149.022C384.881 151.363 386.188 154.465 386.283 157.719C386.295 157.752 386.294 157.788 386.281 157.82C386.265 157.836 386.247 157.848 386.227 157.855C386.206 157.863 386.185 157.866 386.163 157.865L373.834 157.654C373.796 157.654 373.759 157.638 373.732 157.612C373.705 157.585 373.689 157.549 373.688 157.511L373.898 145.213C373.903 145.171 373.923 145.132 373.955 145.105C373.98 145.08 374.014 145.067 374.049 145.067Z" fill="#0A4DD0"/>
<path d="M345.364 153.328H355.024V208.322H345.364V153.328Z" fill="white"/>
<path d="M345.36 208.708H355.028C355.132 208.708 355.231 208.667 355.305 208.594C355.378 208.521 355.419 208.421 355.419 208.318V153.324C355.417 153.221 355.375 153.123 355.302 153.05C355.23 152.977 355.131 152.936 355.028 152.934H345.36C345.258 152.936 345.159 152.977 345.087 153.05C345.014 153.123 344.972 153.221 344.97 153.324V208.318C344.97 208.421 345.011 208.521 345.084 208.594C345.158 208.667 345.257 208.708 345.36 208.708ZM354.638 207.927H345.751V153.715H354.638V207.927Z" fill="#0A4DD0"/>
<path d="M360.849 176.633H370.509V208.316H360.849V176.633Z" fill="#FFB6C5"/>
<path d="M360.45 208.706H370.899V176.242H360.45V208.706ZM370.118 207.925H361.231V177.023H370.118V207.925Z" fill="#0A4DD0"/>
<path d="M331.438 170.242H341.099V208.321H331.438V170.242Z" fill="#FFB6C5"/>
<path d="M331.04 208.707H341.45V169.848H331.001L331.04 208.707ZM340.708 207.926H331.821V170.629H340.669L340.708 207.926Z" fill="#0A4DD0"/>
<g clip-path="url(#clip1_1_4937)">
<path d="M355.249 128.127C352.526 133.401 355.93 139.068 352.421 147.12C347.588 158.167 342.955 186.218 342.955 186.218L400.522 167.815V88.2116L365.932 79.5625C365.932 79.5625 365.434 98.0205 361.155 102.378C356.876 106.736 355.249 128.127 355.249 128.127Z" fill="#DFDEDE"/>
<mask id="mask0_1_4937" style="mask-type:luminance" maskUnits="userSpaceOnUse" x="342" y="79" width="59" height="108">
<path d="M355.249 128.127C352.526 133.401 355.93 139.068 352.421 147.12C347.588 158.167 342.955 186.218 342.955 186.218L400.522 167.815V88.2116L365.932 79.5625C365.932 79.5625 365.434 98.0205 361.155 102.378C356.876 106.736 355.249 128.127 355.249 128.127Z" fill="white"/>
</mask>
<g mask="url(#mask0_1_4937)">
<path d="M390.038 99.2247C383.042 83.8872 341.931 108.896 335.372 118.92C329.637 127.685 335.682 160.895 343.121 171.593C337.442 174.134 317.255 183.926 337.21 186.45C360.198 189.361 392.042 183.357 391.179 153.583C390.315 123.808 390.038 99.2247 390.038 99.2247ZM357.934 173.582C354.795 176.15 351.54 173.819 353.267 170.654C357.065 163.701 363.591 144.354 363.591 136.467C363.591 132.004 364.449 135.235 365.606 136.047C368.788 138.3 365.606 155.786 367.925 163.833C369.669 169.931 364.316 168.346 357.917 173.598L357.934 173.582Z" fill="#C2C2C1"/>
</g>
<path d="M355.249 128.127C352.526 133.401 355.93 139.068 352.421 147.12C347.588 158.167 342.955 186.218 342.955 186.218L400.522 167.815V88.2116L365.932 79.5625C365.932 79.5625 365.434 98.0205 361.155 102.378C356.876 106.736 355.249 128.127 355.249 128.127Z" stroke="#302D30" stroke-linecap="round" stroke-linejoin="round"/>
<path d="M445.513 128.127C448.242 133.401 444.832 139.068 448.347 147.12C453.174 158.167 457.812 186.218 457.812 186.218L400.245 167.815V88.2116L434.835 79.5625C434.835 79.5625 435.334 98.0205 439.607 102.378C443.88 106.736 445.513 128.127 445.513 128.127Z" fill="#DFDEDE"/>
<mask id="mask1_1_4937" style="mask-type:luminance" maskUnits="userSpaceOnUse" x="400" y="79" width="58" height="108">
<path d="M445.513 128.127C448.242 133.401 444.832 139.068 448.347 147.12C453.174 158.167 457.812 186.218 457.812 186.218L400.245 167.815V88.2116L434.835 79.5625C434.835 79.5625 435.334 98.0205 439.607 102.378C443.88 106.736 445.513 128.127 445.513 128.127Z" fill="white"/>
</mask>
<g mask="url(#mask1_1_4937)">
<path d="M409.567 153.583C408.703 183.357 440.564 189.361 463.536 186.45C483.491 183.926 463.303 174.134 457.624 171.593C465.08 160.901 471.13 127.685 465.374 118.92C458.814 108.896 417.704 83.8872 410.707 99.2247C410.729 99.2247 410.43 123.802 409.567 153.583ZM432.854 163.833C435.179 155.786 431.99 138.3 435.179 136.047C436.335 135.235 437.193 132.004 437.193 136.467C437.193 144.354 443.72 163.701 447.517 170.654C449.244 173.819 445.989 176.177 442.845 173.582C436.452 168.346 431.094 169.931 432.854 163.833Z" fill="#C2C2C1"/>
</g>
<path d="M445.513 128.127C448.242 133.401 444.832 139.068 448.347 147.12C453.174 158.167 457.812 186.218 457.812 186.218L400.245 167.815V88.2116L434.835 79.5625C434.835 79.5625 435.334 98.0205 439.607 102.378C443.88 106.736 445.513 128.127 445.513 128.127Z" stroke="#302D30" stroke-linecap="round" stroke-linejoin="round"/>
<path d="M400.5 185.13L429.156 176.53L426.815 145.966H400.5H374.185L371.844 176.53L400.5 185.13Z" fill="#E49E5F" stroke="#302E30" stroke-linecap="round" stroke-linejoin="round"/>
<path d="M470.012 351.186C472.896 380.176 476.881 402.55 495.646 782.619C495.646 782.619 489.065 775.66 460.907 778.201C430.385 780.935 441.35 791.638 400.71 791.721H400.29C359.65 791.638 370.615 780.935 340.093 778.201C311.935 775.677 305.354 782.619 305.354 782.619C324.119 402.578 326.477 387.997 329.754 359.045C329.754 359.045 326.892 298.629 322.591 268.241C318.29 237.853 306.743 199.661 306.743 199.661C307.268 199.258 307.836 198.915 308.437 198.639C329.925 188.974 369.375 173.487 369.148 173.581L373.305 157.465C378.198 169.814 389.097 172.476 400.5 172.476C411.903 172.476 422.802 169.814 427.695 157.465L431.852 173.581C431.625 173.487 471.075 188.974 492.563 198.639C493.135 198.906 493.663 199.258 494.129 199.683L467.311 308.283L470.012 351.186Z" fill="white"/>
<mask id="mask2_1_4937" style="mask-type:luminance" maskUnits="userSpaceOnUse" x="305" y="157" width="191" height="635">
<path d="M470.012 351.186C472.896 380.176 476.881 402.55 495.646 782.619C495.646 782.619 489.065 775.66 460.907 778.201C430.385 780.935 441.35 791.638 400.71 791.721H400.29C359.65 791.638 370.615 780.935 340.093 778.201C311.935 775.677 305.354 782.619 305.354 782.619C324.119 402.578 326.477 387.997 329.754 359.045C329.754 359.045 326.892 298.629 322.591 268.241C318.29 237.853 306.743 199.661 306.743 199.661C307.268 199.258 307.836 198.915 308.437 198.639C329.925 188.974 369.375 173.487 369.148 173.581L373.305 157.465C378.198 169.814 389.097 172.476 400.5 172.476C411.903 172.476 422.802 169.814 427.695 157.465L431.852 173.581C431.625 173.487 471.075 188.974 492.563 198.639C493.135 198.906 493.663 199.258 494.129 199.683L467.311 308.283L470.012 351.186Z" fill="white"/>
</mask>
<g mask="url(#mask2_1_4937)">
<path d="M366.059 169.207C369.585 173.073 379.001 186.721 391.644 188.383C389.773 205.239 391.644 205.775 391.644 205.775C391.644 205.775 389.136 195.767 377.54 189.151C365.943 182.534 366.059 169.207 366.059 169.207Z" fill="#DFDEDE"/>
<path d="M447.871 179.955C432.284 179.739 410.17 188.383 410.17 188.383C410.17 188.383 431.852 184.07 431.619 168.92C431.47 159.37 439.214 157.515 441.029 164.844C442.845 172.173 447.871 179.955 447.871 179.955Z" fill="#DFDEDE"/>
<path d="M419.209 296.861C425.652 296.861 433.175 300.727 442.026 301.981C450.877 303.235 461.997 305.439 463.231 293.597C464.466 281.756 460.082 244.829 460.082 244.829L419.209 296.861Z" fill="#DFDEDE"/>
<path d="M320.321 379.298C320.726 377.454 321.152 375.703 321.617 374.051C325.807 359.089 332.687 351.959 347.549 348.093C364.034 343.802 396.52 339.256 404.878 337.367C413.237 335.478 428.763 338.085 450.024 341.184C471.285 344.282 479.123 354.29 483.087 365.734C487.05 377.177 483.856 432.226 485.81 442.714C487.764 453.202 484.503 506.229 479.976 485.468C472.187 449.773 474.479 373.599 459.384 369.545C444.29 365.491 428.049 350.214 410.613 355.124C393.177 360.034 376.217 367.159 357.585 368.832C338.953 370.506 334.89 384.297 321.141 477.084C318.03 498.049 320.321 379.298 320.321 379.298Z" fill="#DFDEDE"/>
<path d="M336.047 257.664C343.885 265.06 344.201 280.988 346.083 284.125C347.965 287.262 349.531 288.93 358.62 288.726C367.709 288.522 378.995 291.648 386.523 293.835C394.051 296.022 402.415 297.944 409.356 296.359C416.298 294.774 436.994 297.856 447.024 296.939C457.054 296.022 459.263 273.101 465.207 261.928C471.152 250.755 474.794 250.043 475.796 255.361C476.798 260.68 476.178 289.008 471.789 295.486C467.399 301.965 458.936 315.104 436.053 319.484C413.17 323.864 381.254 327.68 360.845 324.521C340.437 321.362 333.119 322.616 336.047 307.913C338.975 293.211 336.047 257.653 336.047 257.653" fill="#DFDEDE"/>
<path d="M409.356 170.157H391.644V349.297L400.5 340.819H409.356V188.388" stroke="#302E30" stroke-linecap="round" stroke-linejoin="round"/>
</g>
<path d="M470.012 351.186C472.896 380.176 476.881 402.55 495.646 782.619C495.646 782.619 489.065 775.66 460.907 778.201C430.385 780.935 441.35 791.638 400.71 791.721H400.29C359.65 791.638 370.615 780.935 340.093 778.201C311.935 775.677 305.354 782.619 305.354 782.619C324.119 402.578 326.477 387.997 329.754 359.045C329.754 359.045 326.892 298.629 322.591 268.241C318.29 237.853 306.743 199.661 306.743 199.661C307.268 199.258 307.836 198.915 308.437 198.639C329.925 188.974 369.375 173.487 369.148 173.581L373.305 157.465C378.198 169.814 389.097 172.476 400.5 172.476C411.903 172.476 422.802 169.814 427.695 157.465L431.852 173.581C431.625 173.487 471.075 188.974 492.563 198.639C493.135 198.906 493.663 199.258 494.129 199.683L467.311 308.283L470.012 351.186Z" stroke="#302E30" stroke-linecap="round" stroke-linejoin="round"/>
<path d="M459.39 244.817H418.517V296.856H459.39V244.817Z" fill="white"/>
<mask id="mask3_1_4937" style="mask-type:luminance" maskUnits="userSpaceOnUse" x="418" y="244" width="42" height="53">
<path d="M459.39 244.817H418.517V296.856H459.39V244.817Z" fill="white"/>
</mask>
<g mask="url(#mask3_1_4937)">
<path d="M413.956 259.327H461.344C461.344 259.327 426.018 262.994 422.043 269.163C418.069 275.333 415.656 283.921 415.656 283.921L413.956 259.327Z" fill="#DFDEDE"/>
<path d="M459.384 270.837C460.109 275.664 453.733 280.469 448.225 284.125C442.718 287.782 442.02 293.194 435.815 295.022C429.61 296.85 408.554 295.287 418.517 298.077C428.481 300.866 461.178 302.572 466.99 290.841C472.802 279.11 459.384 270.837 459.384 270.837Z" fill="#DFDEDE"/>
</g>
<path d="M459.39 244.817H418.517V296.856H459.39V244.817Z" stroke="#302E30" stroke-linecap="round" stroke-linejoin="round"/>
<path d="M459.384 259.327H418.517" stroke="#302E30" stroke-linecap="round" stroke-linejoin="round"/>
<path d="M459.384 247.314H461.344V252.71H459.384" stroke="#302E30" stroke-linecap="round" stroke-linejoin="round"/>
<path d="M339.584 286.031C342.188 275.914 342.753 265.382 341.245 255.046C340.776 251.59 339.932 248.196 338.726 244.922C338.695 244.857 338.692 244.783 338.716 244.715C338.741 244.647 338.791 244.591 338.856 244.561C338.922 244.53 338.996 244.526 339.064 244.551C339.132 244.575 339.188 244.625 339.219 244.69L339.872 245.872L340.426 247.087C343.398 254.107 344.256 261.828 344.3 269.395C344.243 275.222 343.483 281.02 342.036 286.666C341.994 286.827 341.921 286.979 341.82 287.113C341.72 287.246 341.594 287.359 341.45 287.444C341.305 287.528 341.146 287.584 340.98 287.607C340.814 287.631 340.646 287.621 340.484 287.58C340.322 287.538 340.169 287.465 340.036 287.364C339.902 287.264 339.789 287.138 339.704 286.994C339.619 286.851 339.563 286.691 339.54 286.526C339.516 286.361 339.526 286.192 339.568 286.031H339.584Z" fill="#302E30"/>
<path d="M464.637 269.467C464.864 262.176 465.274 253.102 465.44 245.767C465.512 243.138 465.617 240.498 465.639 237.875C465.638 237.838 465.644 237.801 465.657 237.767C465.67 237.732 465.691 237.701 465.717 237.674C465.742 237.648 465.774 237.627 465.808 237.613C465.842 237.599 465.879 237.593 465.916 237.593C465.979 237.592 466.041 237.614 466.09 237.655C466.139 237.695 466.171 237.752 466.182 237.814C466.442 239.14 466.613 240.449 466.735 241.774C467.161 245.729 467.289 249.711 467.333 253.682C467.427 258.824 467.377 264.435 467.173 269.555C467.161 269.892 467.015 270.211 466.768 270.441C466.521 270.67 466.193 270.793 465.855 270.781C465.517 270.77 465.198 270.625 464.968 270.378C464.737 270.132 464.614 269.804 464.626 269.467H464.637Z" fill="#302E30"/>
<path d="M305.354 331.966C309.168 342.426 308.742 348.535 311.194 353.683C313.646 358.83 317.46 359.935 323.587 358.029C329.715 356.124 347.013 359.785 356.55 358.907C366.087 358.029 380.523 354.362 394.55 350.695C408.576 347.027 425.077 341.587 425.077 341.587L423.018 326.227C423.018 326.227 357.098 317.39 350.959 316.076C347.184 315.274 343.466 314.226 339.828 312.939C339.828 312.939 338.366 296.165 338.981 293.205C339.595 290.245 338.981 273.14 338.981 273.14C338.981 273.14 318.821 246.044 315.821 243.056C312.821 240.068 299.071 226.487 298.523 234.357C297.975 242.227 300.118 260.774 298.623 273.14C297.129 285.506 301.54 321.5 305.354 331.966Z" fill="#F5B87E" stroke="#302E30" stroke-linecap="round" stroke-linejoin="round"/>
<path d="M496.952 216.76C499.499 226.928 501.048 247.899 501.187 269.782C501.325 291.664 500.445 310.729 496.903 320.649C493.36 330.568 493.581 333.026 491.367 338.731C489.153 344.437 487.011 346.21 482.649 345.911C478.287 345.613 474.9 346.591 459.766 346.867C444.633 347.143 431.846 346.187 409.395 334.495C386.944 322.803 376.311 323.504 371.135 321.328C365.96 319.152 357.325 318.953 349.697 317.595C342.07 316.236 338.975 315.352 338.975 315.352C338.975 315.352 340.331 308.587 341.422 303.969C342.512 299.352 341.344 293.183 341.344 293.183C341.344 293.183 350.024 293.602 357.225 293.796C363.458 293.956 368.119 296.458 374.218 297.11C380.861 297.817 401.491 302.252 412.119 303.61C422.746 304.969 442.352 303.886 452.98 303.61L463.602 303.34C463.602 303.34 465.34 275.603 465.34 272.747C465.34 269.892 496.952 216.76 496.952 216.76Z" fill="#F5B87E"/>
<mask id="mask4_1_4937" style="mask-type:luminance" maskUnits="userSpaceOnUse" x="338" y="216" width="164" height="131">
<path d="M496.952 216.76C499.499 226.928 501.048 247.899 501.187 269.782C501.325 291.664 500.445 310.729 496.903 320.649C493.36 330.568 493.581 333.026 491.367 338.731C489.153 344.437 487.011 346.21 482.649 345.911C478.287 345.613 474.9 346.591 459.766 346.867C444.633 347.143 431.846 346.187 409.395 334.495C386.944 322.803 376.311 323.504 371.135 321.328C365.96 319.152 357.325 318.953 349.697 317.595C342.07 316.236 338.975 315.352 338.975 315.352C338.975 315.352 340.331 308.587 341.422 303.969C342.512 299.352 341.344 293.183 341.344 293.183C341.344 293.183 350.024 293.602 357.225 293.796C363.458 293.956 368.119 296.458 374.218 297.11C380.861 297.817 401.491 302.252 412.119 303.61C422.746 304.969 442.352 303.886 452.98 303.61L463.602 303.34C463.602 303.34 465.34 275.603 465.34 272.747C465.34 269.892 496.952 216.76 496.952 216.76Z" fill="white"/>
</mask>
<g mask="url(#mask4_1_4937)">
<path d="M360.928 292.078C360.69 298.866 361.698 312.928 353.732 311.497C348.197 310.503 345.612 312.049 345.136 303.445C344.66 294.84 346.902 288.726 340.879 288.726C331.254 288.726 307.153 296.458 324.827 313.646C342.501 330.833 360.175 340.813 367.106 328.663C374.036 316.512 375.475 301.826 370.687 295.486C365.899 289.145 360.928 292.078 360.928 292.078Z" fill="#E49E5F"/>
</g>
<path d="M496.952 216.76C499.499 226.928 501.048 247.899 501.187 269.782C501.325 291.664 500.445 310.729 496.903 320.649C493.36 330.568 493.581 333.026 491.367 338.731C489.153 344.437 487.011 346.21 482.649 345.911C478.287 345.613 474.9 346.591 459.766 346.867C444.633 347.143 431.846 346.187 409.395 334.495C386.944 322.803 376.311 323.504 371.135 321.328C365.96 319.152 357.325 318.953 349.697 317.595C342.07 316.236 338.975 315.352 338.975 315.352C338.975 315.352 340.331 308.587 341.422 303.969C342.512 299.352 341.344 293.183 341.344 293.183C341.344 293.183 350.024 293.602 357.225 293.796C363.458 293.956 368.119 296.458 374.218 297.11C380.861 297.817 401.491 302.252 412.119 303.61C422.746 304.969 442.352 303.886 452.98 303.61L463.602 303.34C463.602 303.34 465.34 275.603 465.34 272.747C465.34 269.892 496.952 216.76 496.952 216.76Z" stroke="#302E30" stroke-linecap="round" stroke-linejoin="round"/>
<path d="M360.347 113.861C361.825 109.823 365.207 109.89 365.589 111.033C365.589 111.033 366.026 88.8578 370.93 82.6444C375.835 76.4309 400.5 77.7178 400.5 77.7178C400.5 77.7178 425.171 76.4309 430.069 82.6444C434.968 88.8578 435.411 111.033 435.411 111.033C435.793 109.89 439.175 109.823 440.653 113.861C442.54 119.025 440.332 126.166 435.837 130.778C431.343 135.39 431.459 133.153 431.409 130.364C431.409 130.364 424.241 164.728 400.494 164.728C376.748 164.728 369.58 130.364 369.58 130.364C369.536 133.125 369.652 135.395 365.152 130.778C360.651 126.16 358.46 119.025 360.347 113.861Z" fill="#F5B87E"/>
<mask id="mask5_1_4937" style="mask-type:luminance" maskUnits="userSpaceOnUse" x="359" y="77" width="83" height="88">
<path d="M360.347 113.861C361.825 109.823 365.207 109.89 365.589 111.033C365.589 111.033 366.026 88.8578 370.93 82.6444C375.835 76.4309 400.5 77.7178 400.5 77.7178C400.5 77.7178 425.171 76.4309 430.07 82.6444C434.968 88.8578 435.411 111.033 435.411 111.033C435.793 109.89 439.175 109.823 440.653 113.861C442.54 119.025 440.332 126.166 435.837 130.778C431.343 135.39 431.459 133.153 431.409 130.364C431.409 130.364 424.241 164.728 400.495 164.728C376.748 164.728 369.58 130.364 369.58 130.364C369.536 133.125 369.652 135.395 365.152 130.778C360.652 126.16 358.46 119.025 360.347 113.861Z" fill="white"/>
</mask>
<g mask="url(#mask5_1_4937)">
<path d="M406.517 128.126C403.993 129.198 403.506 131.026 400.5 131.026C397.494 131.026 397.007 129.198 394.483 128.126C394.483 128.126 394.356 134.202 400.5 134.202C406.644 134.202 406.517 128.126 406.517 128.126Z" fill="#E49E5F"/>
<path d="M370.532 113.325C370.266 117.368 372.098 123.819 375.68 129.215C379.261 134.611 379.173 137.748 379.173 140.454C379.173 143.161 375.973 146.8 372.53 139.642C369.087 132.484 369.093 119.599 365.561 116.661C362.03 113.723 361.908 114.767 363.934 113.347C365.96 111.928 370.532 113.325 370.532 113.325Z" fill="#E49E5F"/>
<path d="M430.468 113.325C430.734 117.368 428.896 123.819 425.32 129.215C421.744 134.611 421.827 137.748 421.827 140.454C421.827 143.16 426.04 146.529 429.455 139.394C432.87 132.258 430.911 122.372 434.437 119.433C437.963 116.495 439.059 114.766 437.033 113.325C435.007 111.883 430.468 113.325 430.468 113.325Z" fill="#E49E5F"/>
<path d="M456.572 163.192C454.629 156.664 454.856 145.718 455.637 140.034C456.511 133.699 453.517 104.609 453.39 103.378C453.352 103.041 453.182 102.733 452.918 102.521C452.653 102.309 452.316 102.21 451.978 102.246C451.934 102.246 450.871 102.34 447.506 101.842C445.994 97.1202 443.808 93.5026 440.996 91.0725C438.782 77.6128 429.926 61.8003 400.5 61.8003C371.074 61.8003 362.212 77.5962 360.004 91.0725C357.192 93.5026 355.022 97.1202 353.494 101.842C350.123 102.34 349.066 102.246 349.066 102.246C348.898 102.223 348.726 102.235 348.563 102.281C348.399 102.326 348.247 102.405 348.114 102.511C347.98 102.616 347.868 102.747 347.785 102.896C347.703 103.045 347.651 103.209 347.633 103.378C347.505 104.609 344.511 133.699 345.385 140.034C346.166 145.718 346.393 156.664 344.45 163.192C342.922 168.345 341.754 187.008 341.682 187.803C341.66 188.11 341.749 188.414 341.935 188.659C342.12 188.905 342.388 189.075 342.689 189.138C342.991 189.202 343.305 189.154 343.573 189.004C343.842 188.854 344.047 188.612 344.151 188.322C344.262 188.019 355.271 158.233 358.072 150.153C359.611 145.734 359.893 137.792 360.142 130.822C360.314 126.022 360.546 119.461 361.332 118.489C361.941 117.743 363.646 115.843 365.805 113.441C371.429 107.178 379.876 97.7719 382.593 93.591C385.361 91.669 387.431 90.6914 388.682 90.6914C390.896 90.6914 392.407 92.2599 393.747 93.6462C394.854 94.806 395.845 95.8112 397.162 95.8112C397.552 95.3017 398.055 94.8888 398.631 94.6045C399.207 94.3203 399.841 94.1725 400.483 94.1725C401.126 94.1725 401.76 94.3203 402.336 94.6045C402.912 94.8888 403.415 95.3017 403.805 95.8112C405.122 95.8112 406.096 94.806 407.22 93.6462C408.559 92.2599 410.081 90.6914 412.285 90.6914C413.552 90.6914 415.606 91.669 418.373 93.591C421.097 97.7719 429.544 107.178 435.167 113.435C437.326 115.843 439.042 117.743 439.64 118.489C440.426 119.461 440.658 126.028 440.83 130.822C441.079 137.803 441.384 145.734 442.9 150.153C445.701 158.233 456.711 188.019 456.822 188.322C456.913 188.565 457.076 188.775 457.29 188.923C457.503 189.071 457.757 189.15 458.017 189.151C458.105 189.161 458.195 189.161 458.283 189.151C458.581 189.088 458.847 188.92 459.032 188.678C459.217 188.435 459.309 188.135 459.29 187.831C459.268 187.008 458.1 168.345 456.572 163.192Z" fill="#E49E5F"/>
</g>
<path d="M360.347 113.861C361.825 109.823 365.207 109.89 365.589 111.033C365.589 111.033 366.026 88.8578 370.93 82.6444C375.835 76.4309 400.5 77.7178 400.5 77.7178C400.5 77.7178 425.171 76.4309 430.069 82.6444C434.968 88.8578 435.411 111.033 435.411 111.033C435.793 109.89 439.175 109.823 440.653 113.861C442.54 119.025 440.332 126.166 435.837 130.778C431.343 135.39 431.459 133.153 431.409 130.364C431.409 130.364 424.241 164.728 400.495 164.728C376.748 164.728 369.58 130.364 369.58 130.364C369.536 133.125 369.652 135.395 365.152 130.778C360.651 126.16 358.46 119.025 360.347 113.861Z" stroke="#302E30" stroke-linecap="round" stroke-linejoin="round"/>
<path d="M404.934 144.121H396.282C395.88 144.121 395.481 144.2 395.109 144.354C394.738 144.508 394.4 144.733 394.116 145.018C393.831 145.302 393.606 145.639 393.453 146.01C393.299 146.382 393.22 146.779 393.221 147.181C393.221 147.991 393.544 148.768 394.118 149.341C394.692 149.913 395.47 150.235 396.282 150.235H404.956C405.768 150.235 406.547 149.914 407.122 149.341C407.697 148.768 408.021 147.991 408.022 147.181C408.022 146.777 407.942 146.378 407.787 146.005C407.631 145.632 407.404 145.294 407.116 145.01C406.829 144.725 406.489 144.5 406.114 144.348C405.74 144.195 405.338 144.118 404.934 144.121Z" fill="#E49E5F"/>
<path d="M369.159 122.863C367.421 118.925 365.705 116.357 363.973 115.396" stroke="#302E30" stroke-linecap="round" stroke-linejoin="round"/>
<path d="M431.852 122.863C433.59 118.925 435.306 116.357 437.038 115.396" stroke="#302E30" stroke-linecap="round" stroke-linejoin="round"/>
<path d="M391.478 140.62C391.478 140.62 393.575 141.261 400.522 141.261C407.469 141.261 409.522 140.62 409.522 140.62" stroke="#302E30" stroke-linecap="round" stroke-linejoin="round"/>
<path d="M405.476 128.126C403.389 129.01 402.991 130.529 400.495 130.529C397.998 130.529 397.605 129.01 395.513 128.126" stroke="#302E30" stroke-linecap="round" stroke-linejoin="round"/>
<path d="M394.848 100.544C395.28 103.129 396.116 107.089 396.122 108.939C396.122 111.259 395.502 114.021 394.965 116.583C394.727 117.754 393.249 116.031 392.197 115.479C389.717 114.164 387.215 115.319 383.246 114.402C379.505 113.535 377.268 113.065 376.322 111.06C377.982 104.825 384.94 105.234 379.765 104.129C374.589 103.024 384.503 100.848 387.841 101.445C391.179 102.041 394.848 100.544 394.848 100.544Z" fill="#E49E5F"/>
<path d="M376.322 111.071C378.536 110.464 379.959 106.968 384.747 106.968C390.747 106.968 392.363 111.541 392.363 111.541C392.363 111.541 391.35 112.552 386.9 112.817C382.449 113.082 377.49 111.27 377.49 111.27" fill="white"/>
<path d="M387.669 109.47C387.669 109.965 387.522 110.448 387.247 110.86C386.971 111.271 386.579 111.592 386.121 111.781C385.663 111.971 385.159 112.02 384.672 111.924C384.186 111.827 383.739 111.589 383.389 111.239C383.038 110.889 382.799 110.443 382.702 109.958C382.606 109.472 382.655 108.969 382.845 108.512C383.035 108.055 383.356 107.664 383.769 107.389C384.181 107.115 384.666 106.968 385.162 106.968C385.491 106.967 385.817 107.031 386.122 107.157C386.427 107.282 386.703 107.466 386.936 107.699C387.169 107.931 387.354 108.208 387.48 108.511C387.606 108.815 387.67 109.141 387.669 109.47Z" fill="#373035" stroke="#302E30" stroke-linecap="round" stroke-linejoin="round"/>
<path d="M376.123 110.353C377.147 109.801 378.099 108.42 379.532 107.382C380.265 106.831 381.082 106.402 381.951 106.112C386.202 104.736 391.782 106.697 393.022 111.309C393.067 111.486 393.04 111.674 392.947 111.831C392.853 111.989 392.701 112.103 392.524 112.148C392.366 112.189 392.2 112.173 392.052 112.105C391.905 112.036 391.786 111.919 391.715 111.773C391.335 111.194 390.879 110.668 390.359 110.21C389.056 109.106 387.444 108.429 385.742 108.269C384.04 108.11 382.33 108.477 380.844 109.32C380.246 109.679 379.643 110.121 378.984 110.596C378.326 111.071 376.095 112.673 375.663 111.182C375.635 111.012 375.666 110.837 375.751 110.686C375.835 110.536 375.968 110.419 376.128 110.353H376.123Z" fill="#302E30"/>
<path d="M406.152 100.544C405.72 103.129 404.884 107.089 404.878 108.939C404.878 111.259 405.498 114.021 406.03 116.583C406.273 117.754 407.751 116.031 408.797 115.479C411.277 114.164 413.779 115.319 417.748 114.402C421.484 113.535 423.726 113.065 424.673 111.06C423.012 104.825 416.054 105.234 421.23 104.129C426.405 103.024 416.491 100.848 413.154 101.445C409.816 102.041 406.152 100.544 406.152 100.544Z" fill="#E49E5F"/>
<path d="M424.678 111.071C422.464 110.464 421.041 106.968 416.253 106.968C410.253 106.968 408.637 111.541 408.637 111.541C408.637 111.541 409.65 112.552 414.095 112.817C418.539 113.082 423.532 111.27 423.532 111.27" fill="white"/>
<path d="M413.331 109.47C413.331 109.965 413.478 110.448 413.753 110.86C414.029 111.271 414.421 111.592 414.879 111.781C415.337 111.971 415.841 112.02 416.328 111.924C416.814 111.827 417.261 111.589 417.611 111.239C417.962 110.889 418.201 110.443 418.298 109.958C418.394 109.472 418.345 108.969 418.155 108.512C417.965 108.055 417.644 107.664 417.231 107.389C416.819 107.115 416.334 106.968 415.838 106.968C415.509 106.967 415.182 107.031 414.878 107.157C414.573 107.282 414.297 107.466 414.064 107.699C413.831 107.931 413.646 108.208 413.52 108.511C413.394 108.815 413.33 109.141 413.331 109.47Z" fill="#373035" stroke="#302E30" stroke-linecap="round" stroke-linejoin="round"/>
<path d="M424.512 111.784C422.702 111.419 421.611 110.127 420.183 109.32C418.699 108.474 416.99 108.105 415.288 108.264C413.586 108.423 411.974 109.103 410.674 110.21C410.128 110.695 409.651 111.252 409.257 111.866C409.163 111.995 409.027 112.087 408.874 112.127C408.72 112.168 408.556 112.155 408.411 112.091C408.266 112.026 408.147 111.914 408.074 111.773C408.001 111.632 407.979 111.47 408.011 111.314C409.246 106.702 414.825 104.742 419.082 106.117C419.952 106.407 420.769 106.836 421.501 107.387C422.934 108.426 423.886 109.817 424.911 110.359C425.083 110.426 425.224 110.554 425.307 110.718C425.39 110.883 425.409 111.073 425.36 111.251C425.311 111.429 425.198 111.582 425.043 111.681C424.887 111.781 424.7 111.819 424.518 111.789L424.512 111.784Z" fill="#302E30"/>
<path d="M424.114 139.664C418.877 142.354 417.034 145.154 415.811 148.777C414.587 152.4 410.646 153.367 407.17 153.367C403.694 153.367 402.642 150.053 403.766 148.087C404.889 146.12 402.72 145.22 400.445 145.22C398.17 145.22 396.016 146.12 397.151 148.087C398.286 150.053 397.229 153.367 393.747 153.367C390.265 153.367 386.302 152.4 385.106 148.777C383.911 145.154 382.068 142.354 376.803 139.664C371.539 136.974 370.045 130.07 369.054 125.823C369.729 136.284 369.464 150.125 378.63 155.543C386.075 159.917 391.201 163.413 392.468 164.551C393.736 165.689 398.679 166.103 400.4 166.103C402.122 166.103 407.043 165.689 408.332 164.551C409.622 163.413 414.731 159.917 422.171 155.543C431.337 150.152 431.071 136.284 431.747 125.823C430.878 130.07 429.355 136.974 424.114 139.664Z" fill="#423940"/>
<mask id="mask6_1_4937" style="mask-type:luminance" maskUnits="userSpaceOnUse" x="369" y="125" width="63" height="42">
<path d="M424.114 139.664C418.877 142.354 417.034 145.154 415.811 148.777C414.587 152.4 410.646 153.367 407.17 153.367C403.694 153.367 402.642 150.053 403.766 148.087C404.89 146.12 402.72 145.22 400.445 145.22C398.17 145.22 396.016 146.12 397.151 148.087C398.286 150.053 397.229 153.367 393.747 153.367C390.265 153.367 386.302 152.4 385.106 148.777C383.911 145.154 382.068 142.354 376.804 139.664C371.539 136.974 370.045 130.07 369.054 125.823C369.729 136.284 369.464 150.125 378.63 155.543C386.075 159.917 391.201 163.413 392.468 164.551C393.736 165.689 398.679 166.103 400.4 166.103C402.122 166.103 407.043 165.689 408.332 164.551C409.622 163.413 414.731 159.917 422.171 155.543C431.337 150.152 431.071 136.284 431.747 125.823C430.878 130.07 429.355 136.974 424.114 139.664Z" fill="white"/>
</mask>
<g mask="url(#mask6_1_4937)">
<path d="M397.627 145.894C397.322 146.062 397.091 146.337 396.978 146.666C396.866 146.995 396.88 147.354 397.018 147.672C397.426 147.17 397.642 146.54 397.627 145.894Z" fill="#383137"/>
<path d="M403.982 147.672C404.12 147.354 404.134 146.995 404.022 146.666C403.909 146.337 403.678 146.062 403.373 145.894C403.358 146.54 403.574 147.17 403.982 147.672Z" fill="#383137"/>
<path d="M422.298 152.124C414.853 155.808 409.727 158.752 408.46 159.713C407.192 160.674 402.249 161.022 400.528 161.022C398.806 161.022 393.885 160.674 392.596 159.713C391.306 158.752 386.197 155.808 378.757 152.124C369.591 147.584 369.857 135.903 369.181 127.094C369.857 137.554 369.591 151.428 378.757 156.813C386.202 161.188 391.328 164.684 392.596 165.821C393.863 166.959 398.806 167.379 400.528 167.379C402.249 167.379 407.17 166.965 408.46 165.821C409.749 164.678 414.859 161.188 422.298 156.813C431.464 151.428 431.199 137.554 431.874 127.094C431.154 135.903 431.442 147.584 422.298 152.124Z" fill="#383137"/>
</g>
<path d="M424.114 139.664C418.877 142.354 417.034 145.154 415.811 148.777C414.587 152.4 410.646 153.367 407.17 153.367C403.694 153.367 402.642 150.053 403.766 148.087C404.889 146.12 402.72 145.22 400.445 145.22C398.17 145.22 396.016 146.12 397.151 148.087C398.286 150.053 397.229 153.367 393.747 153.367C390.265 153.367 386.302 152.4 385.106 148.777C383.911 145.154 382.068 142.354 376.803 139.664C371.539 136.974 370.045 130.07 369.054 125.823C369.729 136.284 369.464 150.125 378.63 155.543C386.075 159.917 391.201 163.413 392.468 164.551C393.736 165.689 398.679 166.103 400.4 166.103C402.122 166.103 407.043 165.689 408.332 164.551C409.622 163.413 414.731 159.917 422.171 155.543C431.337 150.152 431.071 136.284 431.747 125.823C430.878 130.07 429.355 136.974 424.114 139.664Z" stroke="#302E30" stroke-linecap="round" stroke-linejoin="round"/>
<path d="M413.558 136.66C412.102 135.936 407.867 134.97 405.382 132.899C402.897 130.827 401.873 131.866 400.5 131.866C399.127 131.866 398.103 130.827 395.618 132.899C393.133 134.97 388.898 135.936 387.442 136.66C385.987 137.383 385.466 143.431 384.342 146.695C385.245 144.768 386.28 140.034 387.243 139.151C388.35 138.129 391.04 137.494 393.885 137.334C396.542 137.207 398.756 137.582 400.483 137.582C402.21 137.582 404.425 137.207 407.081 137.334C409.943 137.472 412.617 138.129 413.724 139.151C414.687 140.034 415.722 144.768 416.624 146.695C415.528 143.431 414.991 137.378 413.558 136.66Z" fill="#423940" stroke="#302E30" stroke-linecap="round" stroke-linejoin="round"/>
<path d="M393.476 103.626C394.167 103.151 394.703 102.483 395.015 101.704C395.015 101.704 393.459 101.704 388.035 101.334C382.776 100.986 379.333 101.169 377.672 102.124C376.15 103.002 373.089 106.454 372.602 107.487C372.602 107.487 375.663 102.693 380.379 102.102C385.367 101.478 392.928 104.063 393.476 103.626Z" fill="#423940"/>
<path d="M392.684 102.632C393.125 102.29 393.493 101.861 393.764 101.373L395.009 103.002C390.83 102.942 386.706 102.494 382.61 102.549C381.227 102.511 379.848 102.697 378.525 103.102C377.296 103.797 376.129 104.598 375.038 105.493C374.244 106.094 373.562 106.828 373.023 107.664L372.215 107.222C373.323 105.538 374.652 104.009 376.167 102.677C380.955 98.7441 387.791 101.539 393.188 102.384C393.216 102.384 393.238 102.384 393.188 102.384C393.005 102.416 392.834 102.494 392.69 102.61L392.684 102.632ZM394.267 104.621C394.024 104.777 393.751 104.883 393.466 104.931C393.18 104.98 392.888 104.97 392.607 104.902C390.946 104.643 389.236 104.217 387.625 103.952C384.094 103.4 380.54 102.721 377.219 104.295C375.53 105.033 374.079 106.224 373.028 107.736C372.966 107.838 372.867 107.912 372.751 107.943C372.635 107.973 372.512 107.958 372.407 107.901C372.302 107.843 372.224 107.747 372.188 107.633C372.152 107.519 372.162 107.395 372.215 107.288C372.691 106.388 373.466 105.388 373.986 104.527C374.562 103.596 375.228 102.723 375.973 101.92C378.829 98.965 385.173 99.8708 388.915 100.014C390.703 100.147 393.343 100.351 395.109 100.396C395.307 100.4 395.501 100.451 395.676 100.543C395.852 100.636 396.003 100.767 396.119 100.928C396.235 101.088 396.312 101.273 396.344 101.468C396.376 101.663 396.362 101.863 396.304 102.052C395.901 103.088 395.205 103.984 394.301 104.632L394.267 104.621Z" fill="#302E30"/>
<path d="M407.524 103.626C406.83 103.153 406.293 102.484 405.98 101.704C405.98 101.704 407.541 101.704 412.965 101.334C418.224 100.986 421.667 101.169 423.328 102.124C424.85 103.002 427.911 106.454 428.398 107.487C428.398 107.487 425.337 102.693 420.621 102.102C415.656 101.478 408.072 104.063 407.524 103.626Z" fill="#423940"/>
<path d="M406.733 104.62C405.626 103.792 403.445 101.345 405.626 100.461C407.491 100.318 410.22 100.202 412.141 100.031C415.888 99.8869 422.22 98.9811 425.082 101.936C425.826 102.74 426.491 103.613 427.069 104.543C427.579 105.393 428.359 106.388 428.835 107.304C428.879 107.41 428.883 107.528 428.845 107.635C428.808 107.743 428.732 107.833 428.632 107.889C428.532 107.944 428.415 107.961 428.303 107.935C428.192 107.91 428.093 107.845 428.027 107.752C426.974 106.242 425.524 105.051 423.837 104.311C420.516 102.737 416.962 103.416 413.43 103.968C411.809 104.234 410.07 104.659 408.449 104.918C408.167 104.986 407.875 104.996 407.589 104.947C407.304 104.899 407.031 104.793 406.788 104.637L406.733 104.62ZM408.316 102.632C408.166 102.507 407.983 102.429 407.79 102.405C413.203 101.56 420.017 98.7657 424.816 102.698C426.331 104.03 427.66 105.559 428.769 107.244L427.96 107.685C427.421 106.85 426.739 106.115 425.946 105.515C424.854 104.619 423.688 103.819 422.458 103.123C421.136 102.719 419.756 102.533 418.373 102.571C414.266 102.516 410.153 102.963 405.974 103.024L407.22 101.395C407.491 101.883 407.858 102.311 408.299 102.654L408.316 102.632Z" fill="#302E30"/>
<path d="M365.589 101.191V111.033C365.589 111.033 369.148 115.683 369.148 125.266C369.148 102.765 369.74 104.079 373.289 98.2026C378.088 90.255 379.527 83.8979 379.527 83.8979L365.589 101.191Z" fill="#383137" stroke="#302E30" stroke-linecap="round" stroke-linejoin="round"/>
<path d="M435.411 101.191V111.033C435.411 111.033 431.852 115.683 431.852 125.266C431.852 102.765 431.26 104.079 427.711 98.2026C422.912 90.255 421.473 83.8979 421.473 83.8979L435.411 101.191Z" fill="#383137" stroke="#302E30" stroke-linecap="round" stroke-linejoin="round"/>
<path d="M505.217 240.642C504.464 220.82 499.681 204.648 494.146 199.683C494.146 199.683 468.479 246.336 465.075 274.885L460.392 303.489C460.392 303.489 449.98 304.853 429.173 302.832C406.639 300.622 363.652 293.205 363.652 293.205L360.115 332.894C360.115 332.894 386.817 339.985 414.842 346.966C435.14 352.014 455.316 357.156 472.509 357.405C480.402 357.521 485.406 358.399 488.793 355.135C492.784 351.269 494.882 340.19 496.543 331.761C499.537 316.175 506.268 268.29 505.217 240.642Z" fill="white"/>
<mask id="mask7_1_4937" style="mask-type:luminance" maskUnits="userSpaceOnUse" x="360" y="199" width="146" height="159">
<path d="M505.217 240.642C504.464 220.82 499.681 204.648 494.146 199.683C494.146 199.683 468.479 246.336 465.075 274.885L460.392 303.489C460.392 303.489 449.98 304.853 429.173 302.832C406.639 300.622 363.652 293.205 363.652 293.205L360.115 332.894C360.115 332.894 386.817 339.985 414.842 346.966C435.14 352.014 455.316 357.156 472.509 357.405C480.402 357.521 485.406 358.399 488.793 355.135C492.784 351.269 494.882 340.19 496.543 331.761C499.537 316.175 506.268 268.29 505.217 240.642Z" fill="white"/>
</mask>
<g mask="url(#mask7_1_4937)">
<path d="M477.767 233.688C478.957 239.952 480.883 254.742 474.23 262.999C467.577 271.256 463.818 273.725 470.012 275.415C476.206 277.105 489.137 267.771 490.338 272.322C491.539 276.873 494.821 279.729 497.235 283.921C499.648 288.113 496.759 292.034 495.02 293.619C493.282 295.204 487.171 296.088 487.564 301.445C487.957 306.803 483.075 306.847 475.785 305.124C470.853 303.958 458.626 301.81 455.499 299.081C452.371 296.353 436.186 295.166 437.027 284.125C437.869 273.084 477.767 233.688 477.767 233.688Z" fill="#DFDEDE"/>
<path d="M442.861 303.632C457.192 303.875 474.235 298.512 480.634 308.355C487.033 318.197 486.845 329.508 485.81 332.844C484.775 336.18 488.959 336.765 488.959 327.707C488.959 318.65 485.14 319.842 488.959 314.358C492.779 308.874 488.804 309.741 485.81 304.715C482.815 299.689 471.473 296.983 461.344 297.568C451.214 298.153 442.861 303.632 442.861 303.632Z" fill="#DFDEDE"/>
<path d="M495.032 339.069C490.681 347.635 496.576 354.042 470.012 351.186C443.448 348.331 404.021 333.512 381.663 328.713C359.306 323.913 348.623 320.428 348.623 320.428C348.623 320.428 355.199 339.698 359.666 341.416C364.133 343.133 440.105 374.101 465.91 370.318C491.716 366.535 499.648 353.329 501.198 351.843C502.748 350.358 495.032 339.069 495.032 339.069Z" fill="#DFDEDE"/>
</g>
<path d="M505.217 240.642C504.464 220.82 499.681 204.648 494.146 199.683C494.146 199.683 468.479 246.336 465.075 274.885L460.392 303.489C460.392 303.489 449.98 304.853 429.173 302.832C406.639 300.622 363.652 293.205 363.652 293.205L360.115 332.894C360.115 332.894 386.817 339.985 414.842 346.966C435.14 352.014 455.316 357.156 472.509 357.405C480.402 357.521 485.406 358.399 488.793 355.135C492.784 351.269 494.882 340.19 496.543 331.761C499.537 316.175 506.268 268.29 505.217 240.642Z" stroke="#302E30" stroke-linecap="round" stroke-linejoin="round"/>
<path d="M438.954 303.599C443.039 296.939 446.853 291.261 448.624 289.361C450.395 287.461 454.757 285.688 457.89 283.109C461.023 280.53 465.241 276.586 468.512 275.769C470.914 275.167 479.583 273.322 484.011 272.383C484.719 272.229 485.459 272.357 486.073 272.742C486.686 273.126 487.124 273.735 487.293 274.438C487.389 274.803 487.408 275.184 487.35 275.557C487.292 275.93 487.158 276.287 486.956 276.607C486.754 276.926 486.489 277.201 486.177 277.414C485.864 277.627 485.512 277.774 485.14 277.845L480.645 278.757L491.544 276.873C492.217 276.755 492.91 276.89 493.489 277.251C494.069 277.612 494.494 278.174 494.683 278.828C494.788 279.188 494.818 279.564 494.772 279.935C494.727 280.307 494.606 280.665 494.418 280.988C494.23 281.311 493.977 281.593 493.677 281.816C493.376 282.039 493.033 282.199 492.668 282.286L485.821 283.943L490.83 282.75C491.287 282.64 491.761 282.626 492.223 282.708C492.686 282.789 493.126 282.965 493.517 283.224C493.909 283.483 494.242 283.82 494.497 284.214C494.752 284.607 494.922 285.049 494.998 285.511C495.135 286.335 494.964 287.18 494.518 287.886C494.072 288.592 493.383 289.111 492.579 289.344L483.098 292.106L485.45 291.421C486.1 291.231 486.797 291.273 487.42 291.539C488.043 291.805 488.554 292.279 488.865 292.879C489.216 293.539 489.299 294.308 489.098 295.027C488.897 295.746 488.428 296.361 487.786 296.745L482.804 299.739L477.49 305.173C477.49 305.173 474.169 302.66 460.364 303.516C447.284 304.317 438.954 303.599 438.954 303.599Z" fill="#F5B87E"/>
<mask id="mask8_1_4937" style="mask-type:luminance" maskUnits="userSpaceOnUse" x="438" y="272" width="58" height="34">
<path d="M438.954 303.599C443.039 296.939 446.853 291.261 448.624 289.361C450.395 287.461 454.757 285.688 457.89 283.109C461.023 280.53 465.241 276.586 468.512 275.769C470.914 275.167 479.583 273.322 484.011 272.383C484.719 272.229 485.459 272.357 486.073 272.742C486.686 273.126 487.125 273.735 487.293 274.438C487.389 274.803 487.408 275.184 487.35 275.557C487.292 275.93 487.158 276.287 486.956 276.607C486.754 276.926 486.489 277.201 486.177 277.414C485.864 277.627 485.512 277.774 485.14 277.845L480.645 278.757L491.544 276.873C492.217 276.755 492.91 276.89 493.489 277.251C494.069 277.612 494.494 278.174 494.683 278.828C494.788 279.188 494.818 279.564 494.773 279.935C494.727 280.307 494.606 280.665 494.418 280.988C494.23 281.311 493.977 281.593 493.677 281.816C493.376 282.039 493.033 282.199 492.668 282.286L485.821 283.943L490.83 282.75C491.287 282.64 491.761 282.626 492.224 282.708C492.686 282.789 493.126 282.965 493.517 283.224C493.909 283.483 494.242 283.82 494.497 284.214C494.752 284.607 494.922 285.049 494.998 285.511C495.135 286.335 494.964 287.18 494.518 287.886C494.072 288.592 493.383 289.111 492.579 289.344L483.098 292.106L485.45 291.421C486.101 291.231 486.797 291.273 487.42 291.539C488.043 291.805 488.554 292.279 488.865 292.879C489.216 293.539 489.299 294.308 489.098 295.027C488.897 295.746 488.428 296.361 487.786 296.745L482.804 299.739L477.49 305.173C477.49 305.173 474.169 302.66 460.364 303.516C447.284 304.317 438.954 303.599 438.954 303.599Z" fill="white"/>
</mask>
<g mask="url(#mask8_1_4937)">
<path d="M486.635 273.25C487.282 274.437 485.998 275.017 478.022 277.022C470.045 279.027 462.656 286.892 462.656 286.892C462.656 286.892 470.139 281.314 483.64 278.64C497.141 275.967 490.941 280.297 490.941 280.297C490.941 280.297 486.031 282.252 481.398 282.446C471.512 282.855 468.551 290.471 465.899 292.862C472.361 288.501 479.622 285.455 487.266 283.898C495.873 282.153 494.677 286.533 491.317 287.455C486.79 288.703 484.93 289.432 479.417 291.321C473.903 293.21 470.007 299.578 470.007 299.578C470.007 299.578 484.166 292.343 486.026 292.045C487.885 291.747 487.011 295.425 481.841 297.214C476.671 299.004 474.706 300.943 473.771 301.119C472.835 301.296 463.525 300.876 457.973 301.544C452.421 302.213 434.797 298.866 434.797 298.866C434.797 298.866 449.41 323.615 463.907 321.223C478.404 318.832 507.763 284.727 505.753 277.945C503.744 271.162 486.629 273.217 486.629 273.217" fill="#E49E5F"/>
</g>
<path d="M438.954 303.599C443.039 296.939 446.853 291.261 448.624 289.361C450.395 287.461 454.757 285.688 457.89 283.109C461.023 280.53 465.241 276.586 468.512 275.769C470.914 275.167 479.583 273.322 484.011 272.383C484.719 272.229 485.459 272.357 486.073 272.742C486.686 273.126 487.124 273.735 487.293 274.438C487.389 274.803 487.408 275.184 487.35 275.557C487.292 275.93 487.158 276.287 486.956 276.607C486.754 276.926 486.489 277.201 486.177 277.414C485.864 277.627 485.512 277.774 485.14 277.845L480.645 278.757L491.544 276.873C492.217 276.755 492.91 276.89 493.489 277.251C494.069 277.612 494.494 278.174 494.683 278.828C494.788 279.188 494.818 279.564 494.772 279.935C494.727 280.307 494.606 280.665 494.418 280.988C494.23 281.311 493.977 281.593 493.677 281.816C493.376 282.039 493.033 282.199 492.668 282.286L485.821 283.943L490.83 282.75C491.287 282.64 491.761 282.626 492.223 282.708C492.686 282.789 493.126 282.965 493.517 283.224C493.909 283.483 494.242 283.82 494.497 284.214C494.752 284.607 494.922 285.049 494.998 285.511C495.135 286.335 494.964 287.18 494.518 287.886C494.072 288.592 493.383 289.111 492.579 289.344L483.098 292.106L485.45 291.421C486.1 291.231 486.797 291.273 487.42 291.539C488.043 291.805 488.554 292.279 488.865 292.879C489.216 293.539 489.299 294.308 489.098 295.027C488.897 295.746 488.428 296.361 487.786 296.745L482.804 299.739L477.49 305.173C477.49 305.173 474.169 302.66 460.364 303.516C447.284 304.317 438.954 303.599 438.954 303.599Z" stroke="#302E30" stroke-linecap="round" stroke-linejoin="round"/>
<path d="M459.213 289.284C460.622 287.811 462.098 286.416 463.641 285.097C466.06 283.12 468.451 280.977 471.512 279.895C474.44 278.994 477.369 278.238 480.341 277.52C480.67 277.441 481.017 277.495 481.305 277.671C481.594 277.847 481.8 278.131 481.88 278.459C481.959 278.787 481.904 279.133 481.728 279.421C481.551 279.709 481.268 279.915 480.939 279.994L475.071 281.403C473.162 281.883 471.396 282.165 469.652 283.203C467.953 284.131 466.303 285.274 464.637 286.39C462.971 287.505 461.316 288.649 459.562 289.704C459.504 289.737 459.437 289.749 459.372 289.737C459.307 289.724 459.248 289.69 459.207 289.638C459.165 289.587 459.144 289.522 459.146 289.456C459.148 289.39 459.174 289.327 459.218 289.278L459.213 289.284Z" fill="#302E30"/>
<path d="M486.125 285.163C481.957 286.268 477.695 287.052 473.826 288.958C471.916 289.897 470.2 291.283 468.407 292.454C466.613 293.625 464.737 294.856 462.822 295.972C462.764 296.005 462.696 296.017 462.631 296.004C462.565 295.991 462.506 295.956 462.465 295.903C462.424 295.851 462.404 295.785 462.407 295.719C462.41 295.652 462.438 295.589 462.484 295.541C464.084 294.017 465.739 292.559 467.433 291.123C469.984 288.914 472.702 286.787 475.891 285.556C479.025 284.39 482.233 283.43 485.494 282.684C485.822 282.6 486.169 282.65 486.46 282.822C486.75 282.994 486.96 283.274 487.044 283.6C487.128 283.927 487.078 284.274 486.906 284.564C486.733 284.854 486.453 285.063 486.125 285.147V285.163Z" fill="#302E30"/>
<path d="M483.562 293.255C478.52 295.37 473.643 298.557 468.673 300.86C468.614 300.89 468.546 300.898 468.482 300.883C468.418 300.867 468.361 300.829 468.322 300.776C468.284 300.723 468.265 300.657 468.271 300.592C468.276 300.526 468.305 300.464 468.351 300.418C471.468 297.47 474.941 294.923 478.691 292.835C479.951 292.099 481.261 291.451 482.61 290.896C482.766 290.834 482.932 290.803 483.099 290.804C483.266 290.806 483.432 290.84 483.586 290.906C483.739 290.971 483.879 291.066 483.996 291.185C484.113 291.305 484.206 291.446 484.268 291.6C484.331 291.755 484.362 291.921 484.36 292.088C484.359 292.255 484.324 292.42 484.259 292.573C484.193 292.727 484.098 292.866 483.979 292.983C483.859 293.1 483.718 293.192 483.562 293.255Z" fill="#302E30"/>
<path d="M414.598 346.922C414.598 346.922 411.593 347.624 399.365 350.877C379.698 356.102 354.297 360.509 344.726 360.873C330.888 361.426 316.258 362.884 313.236 359.045C310.214 355.207 305.487 338.82 302.166 320.384C297.621 295.47 295.341 262.099 295.8 237.163C296.165 217.423 300.931 204.068 306.76 199.645C306.76 199.645 331.896 238.179 338.997 267.578C340.016 271.82 342.972 315.596 342.972 315.596C342.972 315.596 351.502 316.093 361.471 317.694L360.114 332.866L414.598 346.922Z" fill="white"/>
<mask id="mask9_1_4937" style="mask-type:luminance" maskUnits="userSpaceOnUse" x="295" y="199" width="120" height="163">
<path d="M414.598 346.922C414.598 346.922 411.593 347.624 399.365 350.877C379.698 356.102 354.297 360.509 344.727 360.873C330.888 361.426 316.258 362.884 313.236 359.045C310.214 355.207 305.487 338.82 302.166 320.384C297.621 295.47 295.341 262.099 295.8 237.163C296.165 217.423 300.931 204.068 306.76 199.645C306.76 199.645 331.896 238.179 338.997 267.578C340.016 271.82 342.972 315.596 342.972 315.596C342.972 315.596 351.502 316.093 361.471 317.694L360.114 332.866L414.598 346.922Z" fill="white"/>
</mask>
<g mask="url(#mask9_1_4937)">
<path d="M334.619 253.682C329.311 246.502 329.792 259.862 331.724 270.842C333.656 281.822 341.046 308.366 335.737 315.938C330.429 323.51 319.458 338.881 327.932 332.159C336.9 325.051 341.394 325.277 339.003 332.501C336.612 339.726 341.538 337.323 350.024 327.685C357.596 319.091 352.98 334.91 360.12 338.35C367.261 341.791 385.881 341.057 386.916 346.928C387.952 352.799 332.931 359.31 312.34 357.604C291.748 355.897 319.336 378.26 378.298 370.351C437.26 362.442 465.684 349.479 438.716 311.923C411.748 274.366 334.619 253.682 334.619 253.682Z" fill="#DFDEDE"/>
</g>
<path d="M414.598 346.922C414.598 346.922 411.593 347.624 399.365 350.877C379.698 356.102 354.297 360.509 344.726 360.873C330.888 361.426 316.258 362.884 313.236 359.045C310.214 355.207 305.487 338.82 302.166 320.384C297.621 295.47 295.341 262.099 295.8 237.163C296.165 217.423 300.931 204.068 306.76 199.645C306.76 199.645 331.896 238.179 338.997 267.578C340.016 271.82 342.972 315.596 342.972 315.596C342.972 315.596 351.502 316.093 361.471 317.694L360.114 332.866L414.598 346.922Z" stroke="#302E30" stroke-linecap="round" stroke-linejoin="round"/>
<path d="M391.644 188.383C380.534 186.593 374.562 181.606 369.148 173.581" stroke="#302E30" stroke-linecap="round" stroke-linejoin="round"/>
<path d="M409.357 188.383C420.466 186.593 426.438 181.606 431.852 173.581" stroke="#302E30" stroke-linecap="round" stroke-linejoin="round"/>
<path d="M409.357 188.383H391.644" stroke="#302E30" stroke-linecap="round" stroke-linejoin="round"/>
<path d="M439.817 87.93C438.156 77.265 431.387 59.2764 400.517 59.2764C369.646 59.2764 362.838 77.265 361.216 87.93C355.398 92.6467 353.694 101.82 353.284 104.792H357.303C360.557 103.853 365.113 102.152 368.7 99.2964C374.971 94.3256 384.199 85.5992 388.732 85.5992C393.265 85.5992 395.247 90.7136 397.212 90.7136C399.177 90.7136 400.533 88.2116 400.533 88.2116C400.533 88.2116 401.884 90.7136 403.854 90.7136C405.825 90.7136 407.784 85.5992 412.334 85.5992C416.884 85.5992 426.095 94.3035 432.367 99.2964C435.948 102.152 440.509 103.853 443.764 104.792H447.76C447.34 101.798 445.635 92.6467 439.817 87.93Z" fill="white"/>
<mask id="mask10_1_4937" style="mask-type:luminance" maskUnits="userSpaceOnUse" x="353" y="59" width="95" height="46">
<path d="M439.817 87.93C438.157 77.265 431.387 59.2764 400.517 59.2764C369.646 59.2764 362.838 77.265 361.216 87.93C355.398 92.6467 353.694 101.82 353.284 104.792H357.303C360.557 103.853 365.113 102.152 368.7 99.2964C374.971 94.3256 384.199 85.5992 388.732 85.5992C393.265 85.5992 395.247 90.7136 397.212 90.7136C399.177 90.7136 400.533 88.2116 400.533 88.2116C400.533 88.2116 401.884 90.7136 403.854 90.7136C405.825 90.7136 407.784 85.5992 412.334 85.5992C416.884 85.5992 426.095 94.3035 432.367 99.2964C435.948 102.152 440.509 103.853 443.764 104.792H447.76C447.34 101.798 445.635 92.6467 439.817 87.93Z" fill="white"/>
</mask>
<g mask="url(#mask10_1_4937)">
<path d="M387.265 86.2024L388.699 85.5996C388.167 85.7821 387.702 86.0033 387.265 86.2024Z" fill="#DFDEDE"/>
<path d="M413.735 86.2024C413.298 86.0033 412.833 85.8042 412.301 85.5996L413.735 86.2024Z" fill="#DFDEDE"/>
<path d="M445.989 102.428C445.989 102.428 445.59 93.7404 441.378 87.9799C441.422 83.8486 439.192 82.0095 437.503 80.6122C435.815 79.2148 425.735 72.0459 400.522 72.0459C375.309 72.0459 365.29 79.1817 363.541 80.6122C361.792 82.0426 359.6 83.8486 359.666 87.9799C355.454 93.7404 355.055 102.428 355.055 102.428C355.055 102.428 367.504 96.0546 375.63 92.8291C383.064 89.8854 382.632 88.3058 387.309 86.2015C382.101 88.3555 364.283 95.4912 362.351 92.9893C362.195 92.7455 362.098 92.4691 362.067 92.1816C362.037 91.8941 362.073 91.6035 362.174 91.3324C367.266 87.2398 377.971 83.1472 391.904 81.9045C393.248 81.7931 394.599 82.0222 395.83 82.5706C397.062 83.1191 398.135 83.969 398.95 85.0416C399.681 86.0026 400.295 86.6985 400.544 86.6985C400.793 86.6985 401.408 85.9971 402.138 85.0416C402.953 83.969 404.026 83.1191 405.258 82.5706C406.49 82.0222 407.841 81.7931 409.185 81.9045C423.117 83.1472 433.822 87.2398 438.915 91.3324C439.016 91.6035 439.052 91.8941 439.021 92.1816C438.991 92.4691 438.893 92.7455 438.738 92.9893C436.806 95.4912 418.988 88.3555 413.779 86.2015C418.457 88.3058 418.025 89.8854 425.459 92.8291C433.54 96.0546 445.989 102.428 445.989 102.428Z" fill="#DFDEDE"/>
</g>
<path d="M439.817 87.93C438.156 77.265 431.387 59.2764 400.517 59.2764C369.646 59.2764 362.838 77.265 361.216 87.93C355.398 92.6467 353.694 101.82 353.284 104.792H357.303C360.557 103.853 365.113 102.152 368.7 99.2964C374.971 94.3256 384.199 85.5992 388.732 85.5992C393.265 85.5992 395.247 90.7136 397.212 90.7136C399.177 90.7136 400.533 88.2116 400.533 88.2116C400.533 88.2116 401.884 90.7136 403.854 90.7136C405.825 90.7136 407.784 85.5992 412.334 85.5992C416.884 85.5992 426.095 94.3035 432.367 99.2964C435.948 102.152 440.509 103.853 443.764 104.792H447.76C447.34 101.798 445.635 92.6467 439.817 87.93Z" stroke="#302E30" stroke-linecap="round" stroke-linejoin="round"/>
<path d="M381.663 88.8633C377.268 93.2817 365.224 97.1478 357.972 98.5507C350.721 99.9536 348.878 99.694 348.878 99.694C348.878 99.694 345.762 129.789 346.625 136.047C347.489 142.304 347.588 153.212 345.651 159.741C344.145 164.811 342.955 184.07 342.955 184.07C342.955 184.07 354.026 154.085 356.871 145.922C359.716 137.759 358.133 116.583 360.347 113.888C362.561 111.193 378.193 94.3863 381.663 88.8633Z" fill="white"/>
<mask id="mask11_1_4937" style="mask-type:luminance" maskUnits="userSpaceOnUse" x="342" y="88" width="40" height="97">
<path d="M381.664 88.8633C377.268 93.2817 365.224 97.1478 357.972 98.5507C350.721 99.9536 348.878 99.694 348.878 99.694C348.878 99.694 345.762 129.789 346.625 136.047C347.489 142.304 347.588 153.212 345.651 159.741C344.145 164.811 342.955 184.07 342.955 184.07C342.955 184.07 354.026 154.085 356.871 145.922C359.716 137.759 358.133 116.583 360.347 113.888C362.561 111.193 378.193 94.3863 381.664 88.8633Z" fill="white"/>
</mask>
<g mask="url(#mask11_1_4937)">
<path d="M358.736 130.518C357.729 142.371 350.555 154.107 345.125 158.178C339.695 162.248 324.44 175.559 335.66 180.971C346.88 186.384 356.694 192.763 359.666 173.57C362.639 154.378 358.736 130.518 358.736 130.518Z" fill="#DFDEDE"/>
</g>
<path d="M381.663 88.8633C377.268 93.2817 365.224 97.1478 357.972 98.5507C350.721 99.9536 348.878 99.694 348.878 99.694C348.878 99.694 345.762 129.789 346.625 136.047C347.489 142.304 347.588 153.212 345.651 159.741C344.145 164.811 342.955 184.07 342.955 184.07C342.955 184.07 354.026 154.085 356.871 145.922C359.716 137.759 358.133 116.583 360.347 113.888C362.561 111.193 378.193 94.3863 381.663 88.8633Z" stroke="#302E30" stroke-linecap="round" stroke-linejoin="round"/>
<path d="M419.337 88.8633C423.732 93.2817 435.776 97.1478 443.028 98.5507C450.279 99.9536 452.122 99.694 452.122 99.694C452.122 99.694 455.238 129.789 454.375 136.047C453.511 142.304 453.412 153.212 455.349 159.741C456.855 164.811 458.045 184.07 458.045 184.07C458.045 184.07 446.974 154.085 444.129 145.922C441.284 137.759 442.867 116.583 440.653 113.888C438.439 111.193 422.807 94.3863 419.337 88.8633Z" fill="white"/>
<mask id="mask12_1_4937" style="mask-type:luminance" maskUnits="userSpaceOnUse" x="419" y="88" width="40" height="97">
<path d="M419.337 88.8633C423.732 93.2817 435.776 97.1478 443.028 98.5507C450.279 99.9536 452.122 99.694 452.122 99.694C452.122 99.694 455.238 129.789 454.375 136.047C453.511 142.304 453.412 153.212 455.349 159.741C456.855 164.811 458.045 184.07 458.045 184.07C458.045 184.07 446.974 154.085 444.129 145.922C441.284 137.759 442.867 116.583 440.653 113.888C438.439 111.193 422.807 94.3863 419.337 88.8633Z" fill="white"/>
</mask>
<g mask="url(#mask12_1_4937)">
<path d="M442.17 130.518C443.183 142.371 450.351 154.107 455.786 158.178C461.222 162.248 476.466 175.559 465.252 180.971C454.037 186.384 444.218 192.763 441.24 173.57C438.262 154.378 442.17 130.518 442.17 130.518Z" fill="#DFDEDE"/>
</g>
<path d="M419.337 88.8633C423.732 93.2817 435.776 97.1478 443.028 98.5507C450.279 99.9536 452.122 99.694 452.122 99.694C452.122 99.694 455.238 129.789 454.375 136.047C453.511 142.304 453.412 153.212 455.349 159.741C456.855 164.811 458.045 184.07 458.045 184.07C458.045 184.07 446.974 154.085 444.129 145.922C441.284 137.759 442.867 116.583 440.653 113.888C438.439 111.193 422.807 94.3863 419.337 88.8633Z" stroke="#302E30" stroke-linecap="round" stroke-linejoin="round"/>
<path d="M400.5 64.0757C369.276 64.0757 362.86 74.3485 363.635 79.3524L400.5 74.6137L437.365 79.3524C438.151 74.3485 431.708 64.0757 400.5 64.0757Z" fill="#423940" stroke="#302E30" stroke-linecap="round" stroke-linejoin="round"/>
<path d="M436.69 79.0541C434.57 77.3199 424.634 70.7695 400.517 70.7695C376.399 70.7695 366.464 77.3143 364.344 79.0541C362.224 80.7939 360.098 82.6275 361.2 87.9297C367.421 82.8319 381.802 77.7175 400.5 77.7175C419.198 77.7175 433.596 82.8319 439.801 87.9297C440.919 82.6275 438.799 80.8104 436.69 79.0541Z" fill="#423940"/>
<mask id="mask13_1_4937" style="mask-type:luminance" maskUnits="userSpaceOnUse" x="360" y="70" width="81" height="18">
<path d="M436.69 79.0541C434.57 77.3199 424.634 70.7695 400.517 70.7695C376.399 70.7695 366.464 77.3143 364.344 79.0541C362.224 80.7939 360.098 82.6275 361.2 87.9297C367.421 82.8319 381.802 77.7175 400.5 77.7175C419.198 77.7175 433.596 82.8319 439.801 87.9297C440.919 82.6275 438.799 80.8104 436.69 79.0541Z" fill="white"/>
</mask>
<g mask="url(#mask13_1_4937)">
<path d="M439.811 83.9255C433.595 78.8277 419.215 73.7134 400.511 73.7134C381.807 73.7134 367.415 78.8277 361.21 83.9255C361.177 83.7488 361.15 83.5886 361.122 83.4174C360.816 84.9094 360.846 86.4508 361.21 87.9297C367.432 82.8319 381.813 77.7176 400.511 77.7176C419.209 77.7176 433.606 82.8319 439.811 87.9297C440.18 86.4515 440.213 84.9096 439.906 83.4174C439.872 83.572 439.85 83.7488 439.811 83.9255Z" fill="#383137"/>
</g>
<path d="M436.69 79.0541C434.57 77.3199 424.634 70.7695 400.517 70.7695C376.399 70.7695 366.464 77.3143 364.344 79.0541C362.224 80.7939 360.098 82.6275 361.2 87.9297C367.421 82.8319 381.802 77.7175 400.5 77.7175C419.198 77.7175 433.596 82.8319 439.801 87.9297C440.919 82.6275 438.799 80.8104 436.69 79.0541Z" stroke="#302E30" stroke-linecap="round" stroke-linejoin="round"/>
<path d="M343.143 316.882C339.699 317.401 336.499 318.965 333.977 321.362C331.407 323.906 329.33 326.902 327.849 330.199C327.82 330.256 327.77 330.301 327.711 330.326C327.651 330.351 327.584 330.354 327.522 330.335C327.46 330.316 327.407 330.276 327.372 330.222C327.337 330.167 327.321 330.103 327.329 330.038C327.651 328.152 328.261 326.327 329.139 324.626C330.022 322.896 331.14 321.296 332.46 319.87C335.162 316.906 338.81 314.967 342.784 314.386C342.949 314.362 343.118 314.37 343.281 314.411C343.443 314.452 343.596 314.524 343.73 314.624C343.865 314.724 343.978 314.849 344.064 314.993C344.15 315.136 344.207 315.295 344.231 315.46C344.256 315.626 344.247 315.794 344.206 315.956C344.165 316.118 344.093 316.271 343.993 316.405C343.893 316.539 343.767 316.652 343.623 316.738C343.479 316.824 343.32 316.88 343.155 316.905L343.143 316.882Z" fill="#302E30"/>
<path d="M347.605 317.009C344.527 319.042 342.623 322.604 341.837 326.172C341.555 327.443 341.393 328.737 341.356 330.038C341.368 330.112 341.351 330.187 341.308 330.247C341.265 330.308 341.199 330.349 341.126 330.361C341.052 330.374 340.977 330.357 340.916 330.314C340.856 330.271 340.814 330.205 340.802 330.132C338.964 324.758 341.466 317.932 346.243 314.844C346.53 314.666 346.876 314.609 347.205 314.686C347.534 314.763 347.819 314.967 347.998 315.253C348.176 315.539 348.233 315.885 348.157 316.213C348.08 316.541 347.875 316.826 347.588 317.004L347.605 317.009Z" fill="#302E30"/>
<path d="M475.149 303.467C479.577 304.4 485.633 306.228 488.112 310.321C488.13 310.352 488.141 310.387 488.145 310.423C488.149 310.458 488.145 310.495 488.135 310.529C488.125 310.564 488.108 310.596 488.085 310.623C488.062 310.651 488.034 310.674 488.002 310.691C487.947 310.719 487.885 310.729 487.824 310.719C487.763 310.709 487.707 310.68 487.664 310.636C483.839 307.99 479.156 306.919 474.662 305.963C474.497 305.931 474.341 305.867 474.201 305.775C474.062 305.683 473.942 305.564 473.849 305.426C473.755 305.287 473.69 305.132 473.656 304.968C473.623 304.804 473.622 304.636 473.654 304.472C473.686 304.308 473.75 304.152 473.843 304.013C473.935 303.874 474.054 303.754 474.193 303.661C474.332 303.567 474.487 303.502 474.652 303.469C474.816 303.436 474.985 303.435 475.149 303.467Z" fill="#302E30"/>
<path d="M470.211 302.186C484.376 304.296 487.636 315.496 486.607 328.144C486.496 329.718 486.308 331.287 486.081 332.85C486.07 332.921 486.031 332.985 485.973 333.029C485.915 333.072 485.843 333.091 485.771 333.082C485.707 333.071 485.649 333.039 485.607 332.991C485.564 332.943 485.54 332.881 485.539 332.817C485.472 329.674 485.417 326.548 485.129 323.466C484.642 317.606 483.109 311.183 478.038 307.742C475.549 306.137 472.738 305.094 469.802 304.688C469.486 304.615 469.209 304.424 469.029 304.156C468.848 303.887 468.776 303.559 468.828 303.24C468.88 302.92 469.052 302.633 469.309 302.435C469.566 302.237 469.888 302.144 470.211 302.175V302.186Z" fill="#302E30"/>
</g>
<path d="M7.05126 382.087H506.145C512.882 382.087 519.64 382.194 526.399 382.087H527.262C527.616 382.087 527.955 381.947 528.205 381.697C528.455 381.447 528.595 381.108 528.595 380.755C528.595 380.401 528.455 380.063 528.205 379.813C527.955 379.563 527.616 379.422 527.262 379.422H28.1688C21.4317 379.422 14.6732 379.316 7.91472 379.422H7.05126C6.69785 379.422 6.35893 379.563 6.10904 379.813C5.85914 380.063 5.71875 380.401 5.71875 380.755C5.71875 381.108 5.85914 381.447 6.10904 381.697C6.35893 381.947 6.69785 382.087 7.05126 382.087Z" fill="#060905"/>
</g>
<defs>
<clipPath id="clip0_1_4937">
<rect width="534" height="382" fill="white"/>
</clipPath>
<clipPath id="clip1_1_4937">
<rect width="267" height="759" fill="white" transform="translate(267 59)"/>
</clipPath>
</defs>
</svg>
