<svg width="588" height="500" viewBox="0 0 588 500" fill="none" xmlns="http://www.w3.org/2000/svg">
<g clip-path="url(#clip0_1119_86633)">
<path d="M718.688 0H-31.3125V500H718.688V0Z" fill="white"/>
<path d="M109.959 454.256C109.959 454.256 25.5663 437.63 21.2575 378.631C16.3098 310.832 84.4167 310.087 73.9693 260.935C59.3874 192.371 87.8831 151.517 151.788 154.332C205.671 156.711 251.131 198.822 279.956 162.62C311.046 123.546 369.2 94.666 426.753 118.875C484.306 143.083 456.459 221.735 496.254 238.448C536.049 255.161 560.778 299.245 553.836 360.255C547.329 417.464 512.908 455.484 463.962 454.904C439.979 454.623 366.246 455.223 282.589 454.904C195.524 454.546 109.959 454.256 109.959 454.256Z" fill="#DEE3FF"/>
<path d="M204.826 98.3001C204.826 98.3001 188.716 67.2501 216.216 52.3001C245.816 36.2101 268.506 66.1101 261.516 90.7301C254.526 115.35 213.406 114.24 204.826 98.3001Z" fill="#DEE3FF"/>
<path d="M420.837 454.76C412.587 455.34 379.267 455.87 385.167 427.65C388.167 413.24 380.507 411.65 373.097 404.38C365.687 397.11 366.577 393.53 368.847 385.58C371.117 377.63 360.907 380.34 358.927 368.37C356.947 356.4 364.427 346.37 377.347 346.44C390.267 346.51 387.347 359.91 391.587 364.87C395.827 369.83 402.327 365.26 406.637 377.06C410.947 388.86 404.637 395.91 412.937 400.52C414.595 401.481 416.147 402.614 417.567 403.9" stroke="#7189FF" stroke-miterlimit="10"/>
<path d="M406.967 422.66C400.574 409.66 393.824 396.847 386.717 384.22C384.304 379.953 381.864 375.703 379.397 371.47C379.347 371.385 379.281 371.31 379.202 371.25C379.123 371.191 379.034 371.147 378.938 371.122C378.842 371.097 378.743 371.091 378.645 371.104C378.547 371.118 378.452 371.15 378.367 371.2C378.282 371.25 378.207 371.316 378.147 371.395C378.087 371.474 378.044 371.563 378.019 371.659C377.994 371.755 377.988 371.854 378.001 371.952C378.015 372.05 378.047 372.145 378.097 372.23C386.097 385.83 393.667 399.65 400.807 413.69C402.447 416.917 404.07 420.16 405.677 423.42C406.097 424.29 407.397 423.53 406.967 422.66Z" fill="#7189FF"/>
<path d="M373.966 395.63L390.436 397.34L392.806 397.59C393.806 397.69 393.806 396.19 392.806 396.09L376.336 394.38L373.966 394.13C372.966 394.03 373.016 395.53 373.966 395.63Z" fill="#7189FF"/>
<path d="M380.548 386.08C380.629 386.659 380.532 387.249 380.269 387.771C380.007 388.293 379.591 388.722 379.078 389.001C378.564 389.28 377.978 389.396 377.397 389.333C376.816 389.27 376.268 389.032 375.826 388.649C375.385 388.266 375.07 387.758 374.926 387.192C374.781 386.625 374.812 386.029 375.016 385.481C375.219 384.933 375.585 384.46 376.064 384.126C376.544 383.792 377.114 383.612 377.698 383.61C378.403 383.561 379.099 383.793 379.634 384.256C380.168 384.719 380.497 385.375 380.548 386.08Z" stroke="#7189FF" stroke-miterlimit="10"/>
<path d="M386.896 363.89C386.611 364.377 386.187 364.768 385.679 365.014C385.171 365.26 384.601 365.349 384.042 365.271C383.483 365.192 382.96 364.95 382.539 364.574C382.118 364.197 381.818 363.705 381.678 363.158C381.537 362.611 381.562 362.035 381.749 361.503C381.937 360.97 382.278 360.505 382.73 360.167C383.182 359.829 383.724 359.632 384.288 359.602C384.852 359.573 385.411 359.711 385.896 360C386.543 360.385 387.011 361.01 387.198 361.739C387.385 362.468 387.277 363.241 386.896 363.89Z" stroke="#7189FF" stroke-miterlimit="10"/>
<path d="M398.367 428.5C398.473 429.225 398.355 429.965 398.028 430.62C397.702 431.276 397.183 431.816 396.541 432.168C395.899 432.52 395.164 432.667 394.436 432.59C393.707 432.513 393.02 432.215 392.466 431.736C391.912 431.257 391.518 430.619 391.337 429.91C391.155 429.2 391.195 428.452 391.451 427.766C391.707 427.08 392.166 426.488 392.768 426.071C393.369 425.653 394.084 425.43 394.817 425.43C395.693 425.372 396.557 425.662 397.222 426.237C397.886 426.811 398.298 427.624 398.367 428.5Z" stroke="#7189FF" stroke-miterlimit="10"/>
<path d="M381.816 356.59C381.832 356.766 381.811 356.943 381.754 357.109C381.698 357.276 381.607 357.43 381.488 357.56C381.369 357.69 381.225 357.794 381.063 357.865C380.902 357.936 380.728 357.973 380.551 357.973C380.375 357.973 380.201 357.936 380.039 357.865C379.878 357.794 379.733 357.69 379.614 357.56C379.495 357.43 379.405 357.276 379.348 357.109C379.292 356.943 379.271 356.766 379.286 356.59C379.314 356.274 379.46 355.98 379.694 355.766C379.928 355.551 380.234 355.433 380.551 355.433C380.869 355.433 381.174 355.551 381.409 355.766C381.643 355.98 381.788 356.274 381.816 356.59Z" stroke="#7189FF" stroke-miterlimit="10"/>
<path d="M469.378 452.02C462.548 447.15 461.868 416.25 489.868 410.02C504.168 406.83 501.868 399.67 504.768 390.46C507.668 381.25 511.278 380.58 519.468 379.33C527.658 378.08 521.468 366.92 531.218 360.46C540.968 354 553.978 353.51 558.838 367.63C562.948 379.58 551.298 384.85 548.918 390.41C546.538 395.97 553.458 403.48 545.028 411.86C536.598 420.24 527.578 413.93 527.468 422.81C527.358 431.69 523.468 447.87 514.858 451.2C504.268 455.29 474.768 455.86 469.378 452.02Z" stroke="#7189FF" stroke-miterlimit="10"/>
<path d="M478.896 455.5C482.696 450.97 486.636 446.56 490.436 442.03C499.85 430.85 509.04 419.487 518.006 407.94C524.493 399.58 530.866 391.13 537.126 382.59C537.696 381.81 536.396 381.06 535.836 381.83C525.31 396.277 514.426 410.42 503.186 424.26C496.18 432.927 489.036 441.497 481.756 449.97C480.456 451.48 479.116 452.97 477.836 454.48C477.216 455.22 478.276 456.28 478.896 455.54V455.5Z" fill="#7189FF"/>
<path d="M488.407 410.36C487.777 405.19 486.957 400.12 486.487 395.36C484.597 376.22 510.987 384.78 521.487 360.2C531.987 335.62 506.267 326.7 518.367 316.42C530.467 306.14 533.847 270.81 516.127 264.73C493.127 256.85 472.487 271.26 469.677 290.24C467.517 304.88 477.327 315.1 451.787 325.83C426.247 336.56 430.187 349.89 435.437 375.38C440.687 400.87 423.437 391.52 410.007 413.03C399.377 430.03 414.317 447.47 421.007 453.95L472.707 454.84" stroke="#7189FF" stroke-miterlimit="10"/>
<path d="M431.527 454L437.867 439.42C443.081 427.473 448.297 415.553 453.517 403.66C460.184 388.48 466.897 373.317 473.657 358.17C480.177 343.55 486.771 328.963 493.437 314.41C498.167 304.13 502.877 293.82 508.067 283.77L509.267 281.49C509.727 280.64 508.427 279.88 507.977 280.73C503.027 289.97 498.677 299.55 494.267 309.05C487.677 323.26 481.267 337.54 474.847 351.83C468.021 367.11 461.241 382.407 454.507 397.72C448.994 410.22 443.511 422.733 438.057 435.26C435.487 441.16 432.757 447.03 430.337 453C430.337 453.09 430.267 453.17 430.237 453.25C429.857 454.12 431.147 454.89 431.527 454Z" fill="#7189FF"/>
<path d="M478.627 346.37L508.997 344.69L513.297 344.45C514.297 344.39 514.297 342.89 513.297 342.95L482.927 344.63L478.627 344.87C477.627 344.92 477.627 346.42 478.627 346.37Z" fill="#7189FF"/>
<path d="M443.628 425.32L467.628 422.62L471.008 422.24C472.008 422.13 472.008 420.63 471.008 420.74L447.058 423.43L443.668 423.82C442.668 423.92 442.668 425.42 443.668 425.32H443.628Z" fill="#7189FF"/>
<path d="M440.377 338.62L447.257 354.08L458.257 378.71L460.767 384.34C461.167 385.22 462.457 384.46 462.067 383.58L455.177 368.12L444.177 343.5L441.687 337.86C441.297 336.98 440.007 337.75 440.397 338.62H440.377Z" fill="#7189FF"/>
<path d="M490.396 286.1C488.696 288.59 485.746 289.53 483.806 288.21C481.866 286.89 481.656 283.79 483.346 281.3C485.036 278.81 487.996 277.87 489.936 279.19C491.876 280.51 492.086 283.61 490.396 286.1Z" stroke="#7189FF" stroke-miterlimit="10"/>
<path d="M491.686 299.56C491.686 300.031 491.546 300.491 491.285 300.882C491.023 301.274 490.651 301.579 490.217 301.759C489.782 301.939 489.303 301.986 488.842 301.894C488.38 301.803 487.956 301.576 487.623 301.243C487.29 300.91 487.063 300.486 486.972 300.025C486.88 299.563 486.927 299.084 487.107 298.649C487.287 298.214 487.592 297.843 487.984 297.581C488.375 297.32 488.835 297.18 489.306 297.18C489.937 297.18 490.542 297.431 490.989 297.877C491.435 298.324 491.686 298.929 491.686 299.56Z" stroke="#7189FF" stroke-miterlimit="10"/>
<path d="M508.916 361.03C508.916 361.946 508.645 362.841 508.136 363.602C507.627 364.364 506.904 364.957 506.058 365.307C505.212 365.658 504.281 365.75 503.383 365.571C502.485 365.392 501.66 364.951 501.012 364.304C500.365 363.656 499.924 362.831 499.745 361.933C499.567 361.035 499.658 360.104 500.009 359.258C500.359 358.412 500.953 357.689 501.714 357.18C502.475 356.671 503.371 356.4 504.286 356.4C505.514 356.4 506.692 356.888 507.56 357.756C508.428 358.624 508.916 359.802 508.916 361.03Z" stroke="#7189FF" stroke-miterlimit="10"/>
<path d="M297.078 455.01C298.398 450.26 298.438 445.01 299.028 440.5C300.298 430.8 314.338 438.79 323.368 428.19C332.398 417.59 318.788 409.52 326.978 406.19C335.168 402.86 340.728 387.63 332.058 380.42C321.338 371.5 306.308 377.42 302.358 386.34C299.358 393.23 303.678 399.67 287.748 401.34C271.818 403.01 272.438 410.1 272.298 423.4C272.158 436.7 263.448 429.63 253.128 438.31C247.278 443.22 248.888 450.09 251.378 455.13" stroke="#7189FF" stroke-miterlimit="10"/>
<path d="M265.586 455.96C273.399 446.927 281.239 437.927 289.106 428.96C298.106 418.74 307.056 408.53 316.236 398.5C319.516 394.91 322.786 391.3 326.236 387.91C326.936 387.24 325.876 386.18 325.176 386.85C317.746 394.05 310.956 401.98 304.076 409.7C294.743 420.167 285.476 430.707 276.276 441.32C272.336 445.84 268.406 450.367 264.486 454.9C263.856 455.62 264.916 456.69 265.546 455.96H265.586Z" fill="#7189FF"/>
<path d="M300.458 415.58L317.988 419.08L320.518 419.59C321.458 419.78 321.858 418.33 320.918 418.14L303.388 414.64L300.858 414.13C299.918 413.94 299.518 415.39 300.458 415.58Z" fill="#7189FF"/>
<path d="M279.347 406.05L284.597 428.24L285.357 431.47C285.577 432.41 287.027 432.01 286.807 431.07L281.557 408.88L280.787 405.65C280.567 404.71 279.117 405.11 279.347 406.05Z" fill="#7189FF"/>
<path d="M314.686 387.23C314.13 387.7 313.431 387.967 312.703 387.985C311.976 388.003 311.264 387.772 310.686 387.33C309.736 386.4 310.006 384.85 311.276 383.86C311.832 383.391 312.532 383.126 313.26 383.11C313.987 383.094 314.699 383.327 315.276 383.77C316.256 384.7 315.986 386.25 314.686 387.23Z" stroke="#7189FF" stroke-miterlimit="10"/>
<path d="M316.077 426.78C316.021 427.34 315.796 427.87 315.431 428.299C315.066 428.727 314.578 429.034 314.034 429.177C313.49 429.321 312.914 429.294 312.385 429.101C311.856 428.909 311.399 428.559 311.075 428.099C310.75 427.639 310.574 427.09 310.57 426.527C310.566 425.964 310.735 425.414 311.053 424.949C311.371 424.485 311.823 424.128 312.35 423.928C312.876 423.728 313.451 423.694 313.997 423.83C314.663 423.947 315.256 424.323 315.645 424.876C316.035 425.429 316.19 426.113 316.077 426.78Z" stroke="#7189FF" stroke-miterlimit="10"/>
<path d="M54.5169 454.07C49.0169 455.51 24.1269 459.64 24.5169 439.81C24.7169 429.69 21.7669 430.06 15.8369 426.09C9.90691 422.12 10.0469 419.58 10.5669 413.92C11.0869 408.26 5.43692 411 1.67692 403.55C-2.82308 394.63 2.59691 387.98 11.3369 386.38C20.0769 384.78 19.8269 394.21 23.3369 397.03C26.8469 399.85 31.6169 393.79 38.3369 402.03C42.6969 407.38 35.9269 419.59 42.3369 418.45" stroke="#7189FF" stroke-miterlimit="10"/>
<path d="M43.0481 436.42C34.5081 424.873 25.5081 413.683 16.0481 402.85C15.4081 402.12 14.3481 403.19 14.9781 403.91C24.3114 414.65 33.2348 425.74 41.7481 437.18C42.3081 437.94 43.6181 437.18 43.0381 436.42H43.0481Z" fill="#7189FF"/>
<path d="M28.536 402.33L27.586 416.5L27.456 418.5L28.206 417.75L15.206 418.83C14.256 418.91 14.206 420.41 15.206 420.33L28.206 419.25C28.4041 419.248 28.5934 419.168 28.7334 419.028C28.8735 418.887 28.9534 418.698 28.956 418.5L29.906 404.35L30.036 402.35C30.096 401.35 28.596 401.35 28.536 402.35V402.33Z" fill="#7189FF"/>
<path d="M15.688 336.82C4.838 327.98 2.238 300.67 17.688 292.38C36.808 282.12 56.828 297.99 59.348 314.31C61.288 326.9 52.488 335.69 75.398 344.92C98.308 354.15 94.768 365.6 90.058 387.52C85.348 409.44 100.838 401.4 112.868 419.9C122.408 434.56 109.008 449.51 103.028 455.09L56.168 454.86C54.6479 453.971 53.1971 452.968 51.828 451.86C36.688 439.5 42.688 419.93 44.258 404.71C45.958 388.24 22.258 395.6 12.858 374.47C3.458 353.34 26.508 345.67 15.688 336.82Z" stroke="#7189FF" stroke-miterlimit="10"/>
<path d="M94.787 454.39L89.1169 441.89C84.4503 431.643 79.7836 421.397 75.1169 411.15C69.1169 398.09 63.0969 385.05 57.0569 372.03C51.1769 359.41 45.2769 346.81 39.2469 334.27C35.0169 325.46 30.7969 316.61 26.1569 308C25.807 307.34 25.4469 306.69 25.0769 306C24.6069 305.15 23.317 305.91 23.787 306.75C28.207 314.67 32.1069 322.89 36.0569 331.05C41.9569 343.26 47.7269 355.54 53.4669 367.83C59.5936 380.97 65.6803 394.13 71.7269 407.31C76.6803 418.09 81.6136 428.883 86.5269 439.69C88.0869 443.13 89.6503 446.573 91.2169 450.02C91.947 451.62 92.567 453.35 93.427 454.89L93.517 455.1C93.917 455.98 95.207 455.22 94.817 454.35L94.787 454.39Z" fill="#7189FF"/>
<path d="M51.3068 361.14L24.0468 359.69L20.2168 359.49C19.2168 359.44 19.2168 360.94 20.2168 360.99L47.4768 362.43L51.3068 362.64C52.3068 362.69 52.3068 361.19 51.3068 361.14Z" fill="#7189FF"/>
<path d="M82.6866 429.03L52.1166 425.73L47.7266 425.25C46.7266 425.15 46.7266 426.65 47.7266 426.75L78.2966 430.05L82.6866 430.5C83.6866 430.6 83.6866 429.1 82.6866 429V429.03Z" fill="#7189FF"/>
<path d="M84.3959 355.17L78.2059 368.5L68.3959 389.61L66.1259 394.5C65.7159 395.37 67.0159 396.13 67.4159 395.26L73.6059 381.94L83.4159 360.83L85.6859 355.94C86.0959 355.07 84.7959 354.31 84.3959 355.19V355.17Z" fill="#7189FF"/>
<path d="M49.6864 335.5C51.2064 337.64 53.8564 338.45 55.5964 337.31C57.3364 336.17 57.5264 333.51 56.0064 331.37C54.4864 329.23 51.8364 328.42 50.0964 329.56C48.3564 330.7 48.1464 333.3 49.6864 335.5Z" stroke="#7189FF" stroke-miterlimit="10"/>
<path d="M39.6882 322.28C39.6601 322.708 39.7614 323.135 39.9788 323.505C40.1963 323.874 40.5198 324.17 40.9076 324.354C41.2953 324.538 41.7293 324.601 42.1532 324.534C42.5771 324.468 42.9714 324.276 43.2848 323.983C43.5982 323.691 43.8164 323.31 43.911 322.892C44.0055 322.473 43.9721 322.036 43.8151 321.637C43.6581 321.237 43.3847 320.895 43.0304 320.653C42.6761 320.411 42.2572 320.281 41.8282 320.28C41.2812 320.269 40.7516 320.472 40.3519 320.845C39.9523 321.219 39.7141 321.734 39.6882 322.28Z" stroke="#7189FF" stroke-miterlimit="10"/>
<path d="M47.1067 315.18C47.0767 315.894 47.261 316.6 47.6357 317.208C48.0105 317.816 48.5586 318.298 49.2095 318.592C49.8605 318.887 50.5845 318.979 51.2886 318.858C51.9926 318.738 52.6444 318.409 53.1602 317.915C53.676 317.421 54.0322 316.784 54.1829 316.085C54.3336 315.387 54.272 314.66 54.0061 313.997C53.7401 313.334 53.2818 312.766 52.6903 312.365C52.0988 311.965 51.401 311.751 50.6867 311.75C50.2262 311.739 49.7681 311.82 49.3388 311.986C48.9094 312.153 48.5172 312.403 48.1846 312.722C47.852 313.04 47.5856 313.422 47.4006 313.843C47.2157 314.265 47.1158 314.719 47.1067 315.18Z" stroke="#7189FF" stroke-miterlimit="10"/>
<path d="M24.1359 375.14C24.104 375.969 24.3206 376.788 24.7579 377.493C25.1952 378.198 25.8332 378.756 26.5899 379.096C27.3467 379.435 28.1877 379.541 29.0049 379.399C29.8221 379.257 30.5782 378.874 31.1761 378.299C31.774 377.724 32.1864 376.983 32.3603 376.172C32.5343 375.361 32.4618 374.517 32.1522 373.747C31.8426 372.978 31.31 372.318 30.6228 371.854C29.9357 371.389 29.1254 371.141 28.2959 371.14C27.7597 371.128 27.2265 371.222 26.7268 371.417C26.2272 371.612 25.7709 371.904 25.3844 372.275C24.9978 372.647 24.6885 373.092 24.4742 373.583C24.26 374.075 24.145 374.604 24.1359 375.14Z" stroke="#7189FF" stroke-miterlimit="10"/>
<path d="M122.136 454.93C123.079 454.379 123.978 453.758 124.826 453.07C134.176 445.43 130.456 433.35 129.486 423.94C128.436 413.76 143.066 418.31 148.896 405.25C154.726 392.19 140.456 387.45 147.166 381.98C153.876 376.51 155.476 359.64 145.926 354.51C134.106 348.18 121.736 357.98 120.176 368.07C118.976 375.85 124.416 381.28 110.256 386.99C105.396 388.99 102.456 391.07 100.816 393.55" stroke="#7189FF" stroke-miterlimit="10"/>
<path d="M114.497 421.97C122.237 405.16 129.937 388.31 138.177 371.73C139.537 368.99 140.917 366.25 142.407 363.57C142.877 362.73 141.577 361.97 141.107 362.81C137.997 368.39 135.277 374.19 132.507 379.95C128.38 388.537 124.32 397.157 120.327 405.81C117.94 410.943 115.563 416.08 113.197 421.22C112.797 422.09 114.097 422.85 114.497 421.97Z" fill="#7189FF"/>
<path d="M125.137 398.22L141.927 397.33L144.347 397.2C145.347 397.15 145.347 395.65 144.347 395.7L127.547 396.59L125.137 396.72C124.137 396.72 124.137 398.27 125.137 398.22Z" fill="#7189FF"/>
<path d="M114.757 439.21L125.757 438.02L127.337 437.85C128.337 437.75 128.337 436.25 127.337 436.35L116.337 437.54L114.757 437.71C113.807 437.81 113.757 439.31 114.757 439.21Z" fill="#7189FF"/>
<path d="M103.686 393.93L113.576 415.22L114.976 418.22C115.386 419.09 116.676 418.33 116.266 417.46L106.376 396.17L104.976 393.17C104.576 392.29 103.276 393.05 103.686 393.92V393.93Z" fill="#7189FF"/>
<path d="M131.687 365.84C130.747 367.16 129.107 367.67 128.027 366.96C126.947 366.25 126.837 364.62 127.777 363.29C128.136 362.679 128.711 362.225 129.389 362.017C130.067 361.81 130.798 361.864 131.437 362.17C132.477 362.87 132.597 364.5 131.687 365.84Z" stroke="#7189FF" stroke-miterlimit="10"/>
<path d="M141.927 405.66C141.949 406.172 141.817 406.68 141.548 407.116C141.279 407.553 140.886 407.9 140.419 408.111C139.952 408.323 139.432 408.39 138.926 408.303C138.421 408.217 137.952 407.981 137.582 407.627C137.211 407.272 136.956 406.814 136.847 406.313C136.739 405.812 136.783 405.29 136.974 404.814C137.164 404.338 137.493 403.929 137.918 403.642C138.343 403.354 138.844 403.2 139.357 403.2C140.023 403.187 140.668 403.438 141.15 403.899C141.632 404.36 141.911 404.993 141.927 405.66Z" stroke="#7189FF" stroke-miterlimit="10"/>
<path d="M470.427 288.64H228.427C226.621 288.64 224.889 287.922 223.612 286.645C222.335 285.368 221.617 283.636 221.617 281.83V73.1899C221.617 71.3838 222.335 69.6516 223.612 68.3745C224.889 67.0974 226.621 66.3799 228.427 66.3799H514.187C515.993 66.3799 517.725 67.0974 519.003 68.3745C520.28 69.6516 520.997 71.3838 520.997 73.1899V266.58" stroke="#F2718D" stroke-miterlimit="10"/>
<path d="M521 71.3127V86H222V71.3127C222 68.3806 224.509 66 227.611 66H515.389C518.499 66 521 68.3806 521 71.3127Z" fill="white" stroke="#E54985" stroke-miterlimit="10"/>
<path fill-rule="evenodd" clip-rule="evenodd" d="M499.346 40.5799C500.667 41.2715 501.892 42.1357 502.986 43.1499L506.876 41.7599L510.536 47.5299L507.626 50.4999C508.07 51.9236 508.326 53.3996 508.386 54.8899L512.116 56.6599L510.616 63.3199H506.496C505.804 64.6418 504.94 65.8659 503.926 66.9599L505.316 70.8499L499.546 74.4999L496.616 71.5899C495.192 72.0347 493.716 72.2903 492.226 72.3499L490.456 76.0799L483.786 74.5799V70.4599C482.462 69.766 481.235 68.902 480.136 67.8899L476.246 69.2799L472.596 63.4999L475.506 60.5699C475.061 59.1463 474.805 57.6703 474.746 56.1799L471.016 54.4099L472.516 47.7499H476.686C477.377 46.428 478.241 45.204 479.256 44.1099L477.866 40.2099L483.586 36.4999L486.516 39.4099C487.939 38.9651 489.415 38.7096 490.906 38.6499L492.676 34.9199L499.336 36.4199V40.5399L499.346 40.5799ZM493.476 48.4299C492.061 48.1107 490.583 48.2184 489.23 48.7393C487.876 49.2602 486.707 50.1709 485.872 51.3562C485.036 52.5415 484.571 53.9481 484.535 55.398C484.499 56.8479 484.893 58.2759 485.669 59.5013C486.445 60.7266 487.567 61.6943 488.893 62.2818C490.219 62.8693 491.689 63.0503 493.118 62.8018C494.547 62.5532 495.87 61.8864 496.92 60.8857C497.97 59.8849 498.699 58.5953 499.016 57.1799C499.439 55.2851 499.094 53.2996 498.055 51.6591C497.017 50.0186 495.37 48.8573 493.476 48.4299Z" fill="#F2718D"/>
<path fill-rule="evenodd" clip-rule="evenodd" d="M43.5975 210.91C44.8114 211.54 45.9349 212.33 46.9375 213.26L50.4975 211.99L53.8475 217.28L51.1775 219.96C51.5902 221.256 51.8257 222.601 51.8775 223.96L55.2975 225.58L53.9275 231.69H50.1475C49.5118 232.897 48.7218 234.017 47.7975 235.02L49.0675 238.59L43.7775 241.94L41.0975 239.27C39.7996 239.673 38.4553 239.909 37.0975 239.97L35.4775 243.38L29.3675 242.01V238.23C28.1567 237.6 27.0366 236.81 26.0375 235.88L22.4675 237.15L19.1175 231.86L21.7875 229.18C21.3778 227.884 21.1424 226.538 21.0875 225.18L17.6875 223.57L19.0575 217.46H22.8375C23.4636 216.244 24.2544 215.12 25.1875 214.12L23.9175 210.56L29.1975 207.21L31.8875 209.88C33.1827 209.466 34.5285 209.23 35.8875 209.18L37.5075 205.76L43.6075 207.13V210.91H43.5975ZM38.2175 218.1C36.9219 217.809 35.5691 217.909 34.3303 218.387C33.0915 218.865 32.0225 219.7 31.2585 220.786C30.4945 221.872 30.07 223.161 30.0386 224.488C30.0072 225.816 30.3705 227.123 31.0823 228.244C31.7941 229.365 32.8225 230.249 34.0373 230.785C35.2521 231.322 36.5987 231.485 37.9066 231.256C39.2145 231.026 40.4249 230.414 41.3845 229.496C42.3442 228.578 43.0099 227.396 43.2975 226.1C43.6822 224.366 43.3635 222.55 42.4112 221.05C41.4589 219.55 39.9508 218.489 38.2175 218.1Z" fill="#F2718D"/>
<path fill-rule="evenodd" clip-rule="evenodd" d="M165.297 78.5599C166.975 79.4373 168.528 80.5335 169.917 81.8199L174.857 80.0599L179.487 87.3799L175.797 91.0899C176.372 92.8949 176.709 94.7676 176.797 96.6599L181.527 98.8999L179.627 107.36H174.397C173.52 109.037 172.424 110.591 171.137 111.98L172.897 116.91L165.577 121.55L161.867 117.86C160.063 118.44 158.19 118.776 156.297 118.86L154.047 123.59L145.597 121.7V116.46C143.918 115.59 142.364 114.496 140.977 113.21L136.037 114.97L131.407 107.65L135.097 103.93C134.521 102.129 134.185 100.259 134.097 98.3699L129.367 96.1199L131.267 87.6699H136.507C137.378 85.9906 138.471 84.4366 139.757 83.0499L137.997 78.1099L145.317 73.4699L149.037 77.1699C150.839 76.5938 152.708 76.2576 154.597 76.1699L156.847 71.4399L165.297 73.3399V78.5699V78.5599ZM157.847 88.4999C156.053 88.0897 154.177 88.2212 152.458 88.8777C150.738 89.5342 149.252 90.6861 148.187 92.1877C147.123 93.6894 146.528 95.473 146.478 97.313C146.428 99.1529 146.925 100.966 147.906 102.524C148.887 104.081 150.309 105.312 151.99 106.061C153.671 106.81 155.537 107.043 157.351 106.731C159.165 106.419 160.846 105.576 162.18 104.309C163.514 103.041 164.443 101.406 164.847 99.6099C165.385 97.2089 164.951 94.6925 163.64 92.6106C162.328 90.5288 160.245 89.0509 157.847 88.4999Z" stroke="#EC4E70" stroke-miterlimit="10"/>
<path fill-rule="evenodd" clip-rule="evenodd" d="M391.207 282.14C392.317 282.724 393.345 283.45 394.267 284.3L397.527 283.13L400.597 287.98L398.147 290.43C398.531 291.625 398.749 292.866 398.797 294.12L401.927 295.6L400.687 301.2H397.227C396.646 302.308 395.919 303.333 395.067 304.25L396.227 307.52L391.387 310.59L388.927 308.14C387.736 308.523 386.498 308.742 385.247 308.79L383.757 311.92L378.167 310.66V307.2C377.058 306.616 376.029 305.89 375.107 305.04L371.847 306.2L368.777 301.36L371.217 298.9C370.842 297.707 370.627 296.47 370.577 295.22L367.447 293.73L368.707 288.14H372.167C372.751 287.03 373.477 286.002 374.327 285.08L373.157 281.82L378.007 278.75L380.457 281.19C381.654 280.815 382.894 280.599 384.147 280.55L385.627 277.42L391.227 278.68V282.14H391.207ZM386.277 288.73C385.091 288.463 383.851 288.554 382.716 288.991C381.581 289.428 380.601 290.192 379.901 291.187C379.2 292.181 378.81 293.36 378.779 294.576C378.749 295.792 379.08 296.99 379.73 298.018C380.38 299.046 381.321 299.858 382.433 300.351C383.544 300.845 384.778 300.997 385.976 300.79C387.175 300.582 388.285 300.024 389.166 299.186C390.047 298.347 390.66 297.267 390.927 296.08C391.106 295.292 391.127 294.476 390.99 293.68C390.853 292.884 390.56 292.122 390.128 291.44C389.696 290.757 389.134 290.166 388.473 289.701C387.812 289.236 387.066 288.906 386.277 288.73Z" fill="#EC4E70"/>
<path d="M5.74632 456.29H563.106C570.636 456.29 578.166 456.41 585.696 456.29H586.696C587.028 456.29 587.346 456.158 587.58 455.924C587.815 455.689 587.946 455.371 587.946 455.04C587.946 454.708 587.815 454.39 587.58 454.156C587.346 453.922 587.028 453.79 586.696 453.79H29.3363C21.8063 453.79 14.2663 453.68 6.73633 453.79H5.73633C5.40481 453.79 5.08687 453.922 4.85245 454.156C4.61803 454.39 4.48633 454.708 4.48633 455.04C4.48633 455.371 4.61803 455.689 4.85245 455.924C5.08687 456.158 5.40481 456.29 5.73633 456.29H5.74632Z" fill="#0F0D1D"/>
<path d="M261.207 139.5H482.167C487.978 139.5 492.688 144.21 492.688 150.02V156.98C492.688 162.79 487.978 167.5 482.167 167.5H261.207C255.397 167.5 250.688 162.79 250.688 156.98V150.02C250.688 144.21 255.397 139.5 261.207 139.5Z" fill="white" stroke="#F2718D"/>
<path d="M482.167 192H261.207C255.121 192 250.188 196.934 250.188 203.02V233.98C250.188 240.066 255.121 245 261.207 245H482.167C488.254 245 493.188 240.066 493.188 233.98V203.02C493.188 196.934 488.254 192 482.167 192Z" stroke="#F2718D" stroke-miterlimit="10"/>
<path d="M262.535 101.083V103.991H258.589V115.98H254.96V103.991H251.013V101.083H262.535ZM271.635 104.012C272.993 104.012 274.082 104.464 274.903 105.37C275.723 106.261 276.134 107.492 276.134 109.062V115.98H272.526V109.55C272.526 108.758 272.321 108.143 271.911 107.704C271.501 107.265 270.949 107.046 270.256 107.046C269.562 107.046 269.011 107.265 268.601 107.704C268.19 108.143 267.985 108.758 267.985 109.55V115.98H264.357V100.277H267.985V105.731C268.353 105.207 268.855 104.79 269.492 104.479C270.128 104.167 270.843 104.012 271.635 104.012ZM289.817 109.868C289.817 110.208 289.795 110.562 289.753 110.929H281.541C281.597 111.665 281.831 112.231 282.241 112.627C282.666 113.009 283.182 113.2 283.79 113.2C284.696 113.2 285.325 112.818 285.679 112.054H289.541C289.343 112.832 288.982 113.532 288.459 114.155C287.949 114.777 287.306 115.265 286.528 115.619C285.749 115.973 284.879 116.149 283.918 116.149C282.758 116.149 281.725 115.902 280.819 115.407C279.914 114.912 279.207 114.204 278.697 113.285C278.188 112.365 277.934 111.29 277.934 110.059C277.934 108.829 278.181 107.754 278.676 106.834C279.186 105.915 279.893 105.207 280.798 104.712C281.704 104.217 282.743 103.969 283.918 103.969C285.063 103.969 286.082 104.21 286.973 104.691C287.864 105.172 288.558 105.858 289.053 106.749C289.562 107.64 289.817 108.68 289.817 109.868ZM286.103 108.914C286.103 108.291 285.891 107.796 285.467 107.428C285.042 107.06 284.512 106.876 283.875 106.876C283.267 106.876 282.75 107.053 282.326 107.407C281.916 107.761 281.661 108.263 281.562 108.914H286.103ZM305.501 113.348H299.941L299.05 115.98H295.252L300.641 101.083H304.843L310.233 115.98H306.392L305.501 113.348ZM304.567 110.547L302.721 105.094L300.896 110.547H304.567ZM315.502 100.277V115.98H311.873V100.277H315.502ZM329.293 109.868C329.293 110.208 329.272 110.562 329.229 110.929H321.017C321.074 111.665 321.307 112.231 321.717 112.627C322.142 113.009 322.658 113.2 323.266 113.2C324.172 113.2 324.801 112.818 325.155 112.054H329.017C328.819 112.832 328.458 113.532 327.935 114.155C327.425 114.777 326.782 115.265 326.004 115.619C325.226 115.973 324.356 116.149 323.394 116.149C322.234 116.149 321.201 115.902 320.296 115.407C319.39 114.912 318.683 114.204 318.174 113.285C317.664 112.365 317.41 111.29 317.41 110.059C317.41 108.829 317.657 107.754 318.152 106.834C318.662 105.915 319.369 105.207 320.274 104.712C321.18 104.217 322.22 103.969 323.394 103.969C324.54 103.969 325.558 104.21 326.449 104.691C327.341 105.172 328.034 105.858 328.529 106.749C329.038 107.64 329.293 108.68 329.293 109.868ZM325.579 108.914C325.579 108.291 325.367 107.796 324.943 107.428C324.518 107.06 323.988 106.876 323.351 106.876C322.743 106.876 322.227 107.053 321.802 107.407C321.392 107.761 321.137 108.263 321.038 108.914H325.579ZM334.836 106.113C335.26 105.462 335.79 104.953 336.427 104.585C337.064 104.203 337.771 104.012 338.549 104.012V107.853H337.552C336.646 107.853 335.967 108.051 335.515 108.447C335.062 108.829 334.836 109.508 334.836 110.484V115.98H331.207V104.139H334.836V106.113ZM346.883 112.903V115.98H345.037C343.721 115.98 342.695 115.661 341.96 115.025C341.224 114.374 340.856 113.32 340.856 111.863V107.152H339.413V104.139H340.856V101.253H344.485V104.139H346.862V107.152H344.485V111.906C344.485 112.259 344.57 112.514 344.74 112.669C344.909 112.825 345.192 112.903 345.588 112.903H346.883ZM353.721 116.149C352.688 116.149 351.769 115.973 350.962 115.619C350.156 115.265 349.519 114.784 349.052 114.176C348.586 113.554 348.324 112.86 348.267 112.097H351.853C351.896 112.507 352.087 112.839 352.426 113.094C352.766 113.348 353.183 113.476 353.678 113.476C354.131 113.476 354.478 113.391 354.718 113.221C354.973 113.037 355.1 112.804 355.1 112.521C355.1 112.181 354.923 111.934 354.57 111.778C354.216 111.608 353.643 111.425 352.851 111.227C352.002 111.028 351.295 110.823 350.729 110.611C350.163 110.385 349.675 110.038 349.265 109.571C348.854 109.09 348.649 108.447 348.649 107.64C348.649 106.961 348.833 106.346 349.201 105.794C349.583 105.228 350.135 104.783 350.856 104.457C351.592 104.132 352.462 103.969 353.466 103.969C354.952 103.969 356.119 104.337 356.967 105.073C357.83 105.808 358.326 106.785 358.453 108.001H355.1C355.044 107.591 354.86 107.265 354.548 107.025C354.251 106.785 353.855 106.664 353.36 106.664C352.936 106.664 352.61 106.749 352.384 106.919C352.158 107.075 352.044 107.294 352.044 107.577C352.044 107.916 352.221 108.171 352.575 108.341C352.943 108.51 353.509 108.68 354.273 108.85C355.15 109.076 355.864 109.303 356.416 109.529C356.967 109.741 357.448 110.095 357.859 110.59C358.283 111.071 358.502 111.722 358.516 112.542C358.516 113.235 358.318 113.858 357.922 114.409C357.54 114.947 356.982 115.371 356.246 115.683C355.524 115.994 354.683 116.149 353.721 116.149Z" fill="#29333D"/>
<path d="M126.955 371.048C126.955 371.048 125.308 396.03 125.357 413.655C125.377 422.409 124.914 431.154 132.603 435.008C142.707 440.08 152.988 443.369 152.988 443.369C149.521 432.092 149.475 418.153 149.517 406.305C149.414 400.032 149.887 381.278 149.887 381.278L126.955 371.048Z" fill="white"/>
<path d="M157.645 429.584L157.734 430.492C153.647 428.894 149.598 427.052 147.535 425.378C143.593 422.161 144.093 412.142 144.116 411.713L146.412 379.804L147.19 380.096L144.928 411.781C144.951 411.869 144.414 421.811 148.043 424.758C149.959 426.308 153.78 428.038 157.645 429.584Z" fill="#E54985"/>
<path d="M130.286 372.577L131.071 372.867L128.576 413.86C128.594 413.924 129.085 420.233 129.313 422.244C129.493 423.818 133.307 430.16 134.842 432.606L162.14 445.407L162.235 446.339L134.393 433.279L134.285 433.231L134.257 433.126C133.689 432.233 128.785 424.397 128.548 422.319C128.31 420.242 127.814 413.978 127.815 413.883L130.286 372.577Z" fill="#E54985"/>
<path d="M139.89 413.243C140.046 405.777 141.684 387.157 142.564 377.589L143.343 377.89C142.469 387.508 140.851 405.881 140.689 413.262C140.602 416.129 141.155 418.98 142.306 421.607C143.458 424.234 145.18 426.571 147.347 428.45L160.085 434.447L160.17 435.374L146.92 429.143C144.632 427.189 142.812 424.746 141.595 421.994C140.378 419.241 139.795 416.251 139.89 413.243Z" fill="#E54985"/>
<path d="M133.473 412.157L133.486 411.851C133.702 406.217 135.59 385.052 136.457 375.661L137.244 375.959C136.337 385.457 134.47 406.313 134.288 411.879L134.271 412.202C133.801 420.883 135.875 427.433 140.119 430.646C142.682 432.549 152.322 437.287 159.708 440.764L159.795 441.699C152.339 438.189 142.34 433.332 139.634 431.286C135.176 427.914 132.984 421.12 133.473 412.157Z" fill="#E54985"/>
<path d="M165.192 314.726C165.192 314.726 186.163 323.065 186.864 334.739C187.564 346.413 170.735 389.583 170.735 389.583L122.909 385.088L141.087 312.875C141.087 312.875 162.467 313.309 165.192 314.726Z" fill="#F2718D"/>
<path d="M173.544 382.228V380.56V369.637H158.033V384.83H172.594C172.469 385.172 172.344 385.489 172.227 385.789H158.058V388.424L157.057 388.332V385.789H141.529V386.873L140.537 386.781V385.789H130.027L122.967 385.13L123.042 384.83H124.017V380.961L125.009 376.983V384.83H140.504V369.637H126.826L127.068 368.678H140.504V359.547V353.451H130.919L131.16 352.492H140.504V346.747V337.299H134.953L135.195 336.34H140.504V327.459V321.139H139.012L139.254 320.18H140.504V315.218L141.096 312.875H141.504V320.171H157.016V313.559L158.016 313.634V320.171H173.536V318.921L174.536 319.538V320.171H175.528C175.995 320.48 176.47 320.805 176.937 321.13H174.536V336.332H186.889C186.889 336.64 186.889 336.957 186.83 337.291H174.536V352.484H183.521C183.43 352.801 183.338 353.126 183.238 353.443H174.536V354.552V368.636H178.379L178.054 369.595H174.536V379.51L173.544 382.228ZM141.496 336.365H157.016V328.86V321.139H141.496V336.365ZM141.496 345.721V352.526H157.016V337.299H141.496V345.688V345.721ZM143.996 353.485H141.496V368.678H157.016V353.451L143.996 353.485ZM157.024 369.637H141.496V384.83H157.024V369.637ZM173.536 353.485H158.024V368.678H173.536V353.485ZM173.536 337.332H158.016V348.598V352.526H173.536V337.332ZM173.536 327.276V321.172H158.016V326.692V336.357H173.536V327.276Z" fill="white"/>
<path d="M165.333 314.217C169.969 316.067 174.341 318.52 178.336 321.513C181.341 323.611 183.876 326.312 185.779 329.444C187.114 331.886 187.659 334.683 187.338 337.449C186.738 343.936 184.746 350.349 182.862 356.553C180.678 363.741 178.236 370.837 175.677 377.9C174.277 381.777 172.993 385.772 171.326 389.574L171.26 389.749C171.229 389.859 171.164 389.955 171.073 390.024C170.983 390.094 170.873 390.132 170.759 390.133L154.598 388.615L128.842 386.197L122.933 385.638C122.853 385.637 122.775 385.618 122.704 385.582C122.633 385.546 122.571 385.494 122.522 385.431C122.474 385.367 122.441 385.294 122.426 385.215C122.41 385.137 122.413 385.057 122.433 384.979L124.25 377.791L128.576 360.58L133.818 339.617L138.344 321.605L139.836 315.685C140.02 314.721 140.26 313.769 140.553 312.833V312.708C140.587 312.598 140.654 312.502 140.745 312.433C140.836 312.364 140.947 312.326 141.062 312.324C147.788 312.466 154.581 312.633 161.274 313.4C162.7 313.444 164.108 313.726 165.442 314.234C166.042 314.526 165.517 315.426 164.917 315.134C163.809 314.719 162.64 314.488 161.458 314.451C159.515 314.217 157.565 314.075 155.623 313.95C151.664 313.692 147.696 313.542 143.729 313.425L141.07 313.35L141.57 312.975L139.77 320.138L135.444 337.349L130.176 358.287L125.667 376.307L124.183 382.228L123.708 384.104C123.672 384.436 123.591 384.761 123.466 385.071C123.463 385.113 123.463 385.155 123.466 385.196L122.966 384.537L139.128 386.055L164.883 388.482L170.793 389.032L170.284 389.416C174.046 379.732 177.522 369.914 180.712 359.963C182.914 353.51 184.657 346.908 185.929 340.209C186.329 337.816 186.688 335.272 186.071 332.887C185.171 329.402 182.662 326.533 180.02 324.207C175.583 320.396 170.536 317.36 165.092 315.226C164.442 314.976 164.708 313.975 165.333 314.217Z" fill="white"/>
<path d="M93.1257 353.275H100.561V414.106H93.1257V353.275Z" fill="#AAA7AB"/>
<path d="M94.6937 381.576H98.9946C100.969 381.576 102.57 383.178 102.57 385.153V429.949C102.57 431.925 100.969 433.526 98.9946 433.526H94.6937C92.7189 433.526 91.1179 431.925 91.1179 429.949V385.153C91.1179 383.178 92.7189 381.576 94.6937 381.576Z" fill="#010101"/>
<path d="M67.4959 429.184H69.3213H124.358H128.684V435.429V442.467H124.358V435.429H69.3213V442.467H64.9954V435.429V429.184H67.4959Z" fill="#010101"/>
<path d="M58.9451 446.059C58.9451 447.709 59.434 449.321 60.3499 450.692C61.2657 452.063 62.5675 453.132 64.0905 453.763C65.6135 454.395 67.2894 454.56 68.9063 454.238C70.5231 453.916 72.0083 453.122 73.174 451.956C74.3396 450.79 75.1335 449.304 75.4551 447.686C75.7767 446.069 75.6116 444.392 74.9808 442.868C74.3499 441.345 73.2816 440.042 71.9109 439.126C70.5402 438.21 68.9287 437.721 67.2802 437.721C65.0696 437.721 62.9495 438.599 61.3864 440.163C59.8233 441.727 58.9451 443.848 58.9451 446.059Z" fill="#AAA7AB"/>
<path d="M64.1045 446.059C64.1045 446.693 64.2923 447.312 64.6439 447.838C64.9956 448.365 65.4955 448.775 66.0804 449.018C66.6652 449.26 67.3087 449.324 67.9296 449.2C68.5505 449.076 69.1207 448.772 69.5684 448.324C70.016 447.876 70.3209 447.305 70.4444 446.684C70.5679 446.063 70.5045 445.419 70.2622 444.834C70.02 444.249 69.6097 443.749 69.0834 443.397C68.557 443.045 67.9382 442.857 67.3052 442.857C66.4563 442.857 65.6422 443.195 65.042 443.795C64.4417 444.396 64.1045 445.21 64.1045 446.059Z" fill="#010101"/>
<path d="M118.305 447.317C117.632 442.747 120.788 438.496 125.356 437.822C129.924 437.148 134.173 440.306 134.847 444.876C135.52 449.446 132.364 453.697 127.796 454.371C123.228 455.045 118.979 451.887 118.305 447.317Z" fill="#AAA7AB"/>
<path d="M123.416 446.059C123.414 446.695 123.601 447.317 123.953 447.846C124.305 448.375 124.806 448.788 125.393 449.032C125.98 449.276 126.626 449.341 127.249 449.217C127.872 449.093 128.445 448.787 128.894 448.338C129.343 447.888 129.649 447.316 129.773 446.692C129.896 446.069 129.832 445.422 129.588 444.835C129.344 444.248 128.932 443.747 128.403 443.395C127.874 443.043 127.252 442.856 126.617 442.857C125.768 442.857 124.954 443.195 124.353 443.795C123.753 444.396 123.416 445.21 123.416 446.059Z" fill="#010101"/>
<path d="M43.5905 350.882C39.873 343.377 38.2727 338.374 37.4059 319.904C36.3473 297.222 34.847 265.035 44.8158 249.466C54.7845 233.898 88.3414 241.069 91.267 254.044C95.5179 272.932 101.269 319.92 121.982 324.69C142.694 329.46 154.489 334.154 153.897 350.232C153.163 370.937 55.8514 375.748 43.5905 350.882Z" fill="#AAA7AB"/>
<path d="M158 392.648C158 392.648 164.805 416.791 170.669 433.291C173.573 441.483 175.567 444.142 183.5 444C193.915 443.8 209 441.5 209 441.5L202.458 433.291C200.746 433.485 199.732 428.989 198.019 428.795C194.966 428.104 193.597 425.116 192.848 423.609C191.47 420.701 190.239 417.701 189.16 414.626C187.019 408.799 181.206 391 181.206 391L158 392.648Z" fill="white"/>
<path d="M207.55 432.176L208 432.968C203.624 433.193 199.173 433.168 196.606 432.484C191.697 431.167 188.046 421.819 187.896 421.419L176.919 391.4L177.752 391.35L188.629 421.127C188.629 421.219 192.272 430.492 196.789 431.701C199.215 432.334 203.382 432.368 207.55 432.176Z" fill="#E54985"/>
<path d="M183.394 425.363C180.485 418.484 174.359 400.831 171.242 391.741L172.075 391.691C175.209 400.864 181.244 418.25 184.136 425.046C185.232 427.701 186.907 430.077 189.039 432.001C191.17 433.926 193.704 435.35 196.455 436.17L210.542 436.412L211 437.246L196.364 436.996C193.468 436.155 190.798 434.673 188.553 432.659C186.308 430.645 184.545 428.152 183.394 425.363Z" fill="#E54985"/>
<path d="M176.984 426.59L176.868 426.306C174.734 421.103 167.824 400.99 164.773 392.068L165.607 392.018C168.691 401.04 175.501 420.853 177.618 425.998L177.734 426.298C180.852 434.42 185.436 439.54 190.62 440.732C193.754 441.449 204.465 441.783 212.625 441.941L213.092 442.775C204.848 442.625 193.738 442.292 190.437 441.533C184.986 440.265 180.202 434.962 176.984 426.59Z" fill="#E54985"/>
<path d="M171.893 426.59L171.776 426.306C169.642 421.103 162.732 400.99 159.682 392.068L160.515 392.018C163.599 401.04 170.409 420.853 172.526 425.998L172.643 426.298C175.76 434.42 180.344 439.54 185.529 440.732C188.663 441.449 199.373 441.783 207.533 441.941L208 442.775C199.757 442.625 188.646 442.292 185.345 441.533C179.894 440.265 175.11 434.962 171.893 426.59Z" fill="#E54985"/>
<path d="M188.754 393.817C188.754 393.817 156.872 319.861 152.913 319.319C148.954 318.777 54.0343 321.079 53.7759 322.43C53.5175 323.781 53.1425 353.466 69.6125 355.785C86.0826 358.103 127.75 358.053 127.75 358.053L147.22 396.861L188.754 393.817Z" fill="#F2718D"/>
<path d="M185.929 391.141V387.38L184.929 385.104V394.093L185.938 394.018L185.929 391.141Z" fill="#A0E1E3"/>
<path d="M169.45 395.21L168.442 395.285V383.21H152.93V396.419L151.922 396.494V383.21H140.361L139.878 382.243H151.922V367.058H136.41V375.339L135.402 373.337V367.058H132.251L131.776 366.099H135.402V357.219V350.898H119.89V357.961H118.89V353.133V350.89H103.378V357.719H102.378V350.915H86.8582V357.127L85.858 357.077V350.881H70.3381V355.884L69.5963 355.784C69.5111 355.763 69.4249 355.746 69.3379 355.734V350.923H61.0028C60.7361 350.614 60.4944 350.289 60.2444 349.964H69.3296V334.737H54.5932C54.5348 334.421 54.4848 334.104 54.4348 333.787H69.3296V321.27L70.3298 321.229V333.779H85.8413V320.637H86.8499V333.779H102.361V320.136H103.37V333.779H118.882V319.711H119.882V326.541V333.779H135.402V319.378H136.402V333.779H151.922V319.244C152.388 319.244 152.755 319.244 152.897 319.303V333.779H161.482L161.957 334.737H152.922V342.426V349.931H168.425V348.338L169.609 350.89H169.425V366.091H176.527C176.668 366.408 176.819 366.725 176.96 367.05H169.459V382.243H183.72C183.862 382.568 184.003 382.885 184.137 383.202H169.442V384.311L169.45 395.21ZM85.8497 334.737H70.3298V349.939H85.8497V334.737ZM102.37 345.736V334.746H86.8582V349.939H102.37V345.736ZM118.882 334.746H103.37V349.939H118.882V334.746ZM135.402 334.746H119.89V349.939H135.402V334.746ZM136.41 334.871V349.939H151.922V334.746H136.402V334.863L136.41 334.871ZM151.922 358.62V350.898H136.41V366.091H151.922V358.62ZM168.425 367.058H152.914V378.324V382.243H168.425V367.058ZM168.425 357.002V350.898H152.922V356.418V366.083H168.425V357.002Z" fill="white"/>
<path d="M53.8105 322.381H53.7605C53.6469 324.189 53.6636 326.003 53.8105 327.809V322.381Z" fill="#6040DA"/>
<path d="M95.0779 356.961C105.969 357.339 116.863 357.52 127.76 357.503C127.886 357.519 128.003 357.581 128.088 357.677C128.172 357.773 128.219 357.896 128.219 358.024C128.219 358.152 128.172 358.276 128.088 358.372C128.003 358.468 127.886 358.529 127.76 358.546C116.869 358.546 105.975 358.365 95.0779 358.004C94.9511 357.987 94.8345 357.926 94.75 357.83C94.6655 357.734 94.6188 357.61 94.6188 357.482C94.6188 357.354 94.6655 357.231 94.75 357.135C94.8345 357.039 94.9511 356.977 95.0779 356.961Z" fill="white"/>
<path d="M120.674 342.819L129.793 360.989L144.321 389.949L147.655 396.57L147.205 396.312L161.241 395.294L183.62 393.626L188.763 393.251L188.321 394.035C187.271 391.606 186.215 389.182 185.154 386.764C182.598 380.91 180.017 375.073 177.411 369.252C174.21 362.098 170.962 354.965 167.667 347.855C164.75 341.61 161.833 335.347 158.624 329.243C157.532 327.134 156.415 325.024 155.19 322.981C154.604 321.825 153.839 320.77 152.922 319.854L152.764 319.779C152.106 319.67 152.381 318.661 153.039 318.77C153.948 318.928 154.706 320.279 155.14 320.955C156.298 322.689 157.298 324.524 158.282 326.358C161.399 332.195 164.241 338.132 167.05 344.095C170.418 351.26 173.716 358.459 176.944 365.692C179.722 371.879 182.476 378.08 185.204 384.295C186.104 386.347 186.996 388.406 187.896 390.466C188.313 391.425 188.83 392.392 189.163 393.393L189.213 393.518C189.258 393.597 189.282 393.687 189.281 393.778C189.281 393.87 189.257 393.959 189.211 394.038C189.166 394.117 189.101 394.183 189.022 394.23C188.944 394.276 188.854 394.301 188.763 394.302L174.735 395.328L152.356 396.995L147.205 397.371C147.113 397.375 147.022 397.353 146.942 397.307C146.862 397.261 146.797 397.194 146.754 397.112L137.586 378.925L123.058 349.965L119.724 343.344C119.424 342.744 120.324 342.218 120.624 342.819H120.674Z" fill="white"/>
<path d="M160.449 250.392C160.449 250.392 162.224 242.729 159.982 241.903C157.481 240.986 155.289 249.85 154.222 251.526C152.424 254.434 150.818 257.456 149.413 260.573C148.446 263.017 146.079 268.078 146.079 268.078L155.456 278.135C155.456 278.135 168.959 268.47 173.876 261.641C179.253 254.136 182.945 247.698 181.561 246.306C180.178 244.913 178.227 247.773 178.227 247.773C178.227 247.773 180.62 244.296 179.486 243.196C178.194 241.953 176.152 244.863 176.152 244.863C176.152 244.863 178.452 241.203 177.161 240.16C175.418 238.734 172.793 243.554 172.793 243.554C172.793 243.554 174.827 239.743 173.368 239.11C171.909 238.476 167.459 244.38 163.958 248.532C160.924 252.176 160.449 251.818 160.449 250.392Z" fill="#DE9C80"/>
<path d="M178.953 247.056C177.761 249.429 176.224 251.612 174.393 253.535C174.085 253.852 173.56 253.368 173.901 253.052C175.691 251.171 177.191 249.036 178.352 246.714C178.552 246.314 179.144 246.664 178.953 247.056Z" fill="#9E6050"/>
<path d="M177.061 243.404C175.651 245.881 174.06 248.25 172.301 250.492C172.026 250.842 171.543 250.35 171.818 250.008C173.531 247.807 175.086 245.485 176.469 243.062C176.515 242.985 176.589 242.93 176.676 242.907C176.763 242.885 176.855 242.897 176.933 242.942C177.01 242.987 177.067 243.061 177.091 243.147C177.115 243.233 177.104 243.326 177.061 243.404Z" fill="#9E6050"/>
<path d="M173.876 242.096L169.242 248.676C168.983 249.034 168.408 248.676 168.642 248.325L173.284 241.754C173.534 241.396 174.118 241.754 173.876 242.096Z" fill="#9E6050"/>
<path d="M161.548 258.406C161.844 257.13 161.911 255.812 161.749 254.512C161.557 253.37 160.84 252.552 160.465 251.493C160.203 250.466 160.151 249.397 160.315 248.35C160.398 247.216 160.498 246.082 160.565 244.947C160.565 244.514 161.273 244.506 161.248 244.947C161.182 246.082 161.082 247.216 160.998 248.35C160.774 249.581 160.937 250.851 161.465 251.985C162.05 252.924 162.407 253.986 162.507 255.087C162.562 256.263 162.461 257.441 162.207 258.59C162.132 259.032 161.465 258.84 161.548 258.406Z" fill="#9E6050"/>
<path d="M106.704 235.558C109.446 237.101 121.807 241.203 136.852 275.409L146.02 263.909L167.691 277.652C167.691 277.652 149.571 318.436 147.12 320.363C144.67 322.289 106.462 318.937 105.295 316.769C104.128 314.601 102.044 237.009 102.044 237.009C102.044 237.009 103.962 234.024 106.704 235.558Z" fill="#0A4DD0"/>
<path d="M140.511 270.83L163.941 286.007C165.35 282.871 167.684 277.668 167.684 277.668L146.012 263.926L140.511 270.83Z" fill="#7BA7FE"/>
<path d="M137.01 289.125L134.51 283.546L134.151 282.712C134.085 282.592 134.067 282.451 134.103 282.319C134.139 282.186 134.225 282.073 134.343 282.003C134.402 281.969 134.466 281.946 134.534 281.937C134.601 281.927 134.67 281.931 134.735 281.948C134.801 281.965 134.863 281.995 134.917 282.036C134.972 282.077 135.017 282.128 135.052 282.187L137.552 287.766L137.911 288.599C137.976 288.719 137.994 288.858 137.96 288.99C137.925 289.122 137.842 289.236 137.727 289.308C137.608 289.378 137.465 289.399 137.331 289.364C137.197 289.33 137.081 289.244 137.01 289.125Z" fill="#FBF8FF"/>
<path d="M136.353 297.015L130.285 297.699L129.41 297.799C129.336 297.808 129.261 297.802 129.19 297.78C129.118 297.758 129.053 297.721 128.997 297.672C128.941 297.623 128.896 297.562 128.865 297.494C128.835 297.426 128.819 297.352 128.819 297.278C128.819 297.203 128.835 297.129 128.865 297.061C128.896 296.993 128.941 296.933 128.997 296.884C129.053 296.834 129.118 296.797 129.19 296.776C129.261 296.754 129.336 296.747 129.41 296.756L135.478 296.064L136.311 295.973C136.448 295.973 136.58 296.027 136.677 296.124C136.774 296.221 136.828 296.353 136.828 296.49C136.824 296.626 136.769 296.756 136.673 296.854C136.577 296.951 136.448 297.009 136.311 297.015H136.353Z" fill="#FBF8FF"/>
<path d="M146.93 293.754L141.587 290.794L140.82 290.369C140.237 290.043 140.762 289.143 141.346 289.468L146.697 292.437L147.455 292.854C148.047 293.179 147.522 294.079 146.93 293.754Z" fill="#FBF8FF"/>
<path d="M157.498 286.932L157.564 293.044V293.92C157.548 294.047 157.487 294.163 157.391 294.248C157.295 294.332 157.171 294.379 157.044 294.379C156.916 294.379 156.792 294.332 156.696 294.248C156.6 294.163 156.539 294.047 156.523 293.92L156.456 287.816V286.932C156.472 286.805 156.534 286.688 156.63 286.604C156.726 286.519 156.849 286.473 156.977 286.473C157.105 286.473 157.228 286.519 157.324 286.604C157.42 286.688 157.482 286.805 157.498 286.932Z" fill="#FBF8FF"/>
<path d="M145.646 275.842L141.479 280.328L140.895 280.954C140.437 281.446 139.703 280.704 140.154 280.212L144.321 275.734L144.905 275.108C145.363 274.616 146.096 275.35 145.638 275.842H145.646Z" fill="#FBF8FF"/>
<path d="M152.748 284.89L146.647 285.232L145.771 285.282C145.096 285.282 145.105 284.281 145.771 284.24L151.864 283.898L152.748 283.848C153.415 283.848 153.415 284.857 152.748 284.89Z" fill="#FBF8FF"/>
<path d="M138.845 306.578L139.104 300.474L139.145 299.598C139.145 298.923 140.212 298.923 140.187 299.598L139.929 305.702L139.887 306.578C139.887 307.245 138.82 307.253 138.845 306.578Z" fill="#FBF8FF"/>
<path d="M151.956 304.595L152.215 298.483L152.257 297.607C152.257 296.94 153.323 296.932 153.298 297.607L153.04 303.711L152.998 304.595C152.998 305.262 151.931 305.262 151.956 304.595Z" fill="#FBF8FF"/>
<path d="M131.15 315.135L134.835 310.265L135.368 309.565C135.439 309.448 135.553 309.364 135.685 309.329C135.817 309.295 135.958 309.314 136.076 309.381C136.136 309.415 136.188 309.46 136.23 309.514C136.271 309.568 136.302 309.63 136.32 309.696C136.338 309.762 136.342 309.83 136.333 309.898C136.325 309.966 136.302 310.031 136.268 310.09L132.584 314.96L132.051 315.66C131.978 315.778 131.863 315.863 131.73 315.898C131.597 315.934 131.455 315.917 131.334 315.852C131.216 315.78 131.132 315.664 131.098 315.531C131.063 315.397 131.082 315.255 131.15 315.135Z" fill="#FBF8FF"/>
<path d="M139.52 312.933L144.98 310.148L145.747 309.756C146.338 309.456 146.872 310.356 146.272 310.656L140.812 313.441L140.046 313.833C139.445 314.134 138.92 313.233 139.52 312.933Z" fill="#FBF8FF"/>
<path d="M125.917 272.49L131.401 275.208L132.176 275.592C132.777 275.892 132.251 276.793 131.651 276.492L126.167 273.774L125.392 273.39C124.792 273.09 125.317 272.19 125.917 272.49Z" fill="#FBF8FF"/>
<path d="M127.185 260.141L129.202 265.919L129.485 266.753C129.71 267.387 128.702 267.662 128.485 267.028L126.468 261.25L126.184 260.416C125.959 259.782 126.968 259.507 127.185 260.141Z" fill="#FBF8FF"/>
<path d="M118.208 252.553L124.001 254.562L124.834 254.846C125.468 255.063 125.192 256.072 124.559 255.855L118.724 253.862L117.891 253.578C117.266 253.362 117.533 252.353 118.166 252.569L118.208 252.553Z" fill="#FBF8FF"/>
<path d="M161.725 284.564L161.05 284.131L165.367 276.176L166.051 276.609L161.725 284.564Z" fill="#7BA7FE"/>
<path d="M158.582 271.873L159.266 272.306L154.665 279.995L153.99 279.561L158.582 271.873Z" fill="#7BA7FE"/>
<path d="M162.75 274.516L158.241 282.312L157.566 281.87L162.067 274.082L162.75 274.516Z" fill="#7BA7FE"/>
<path d="M155.439 269.881L150.488 277.286L149.813 276.852L154.764 269.447L155.439 269.881Z" fill="#7BA7FE"/>
<path d="M148.963 265.77L143.778 272.949L143.103 272.507L148.288 265.336L148.963 265.77Z" fill="#7BA7FE"/>
<path d="M151.331 267.27L152.006 267.695L147.313 275.233L146.638 274.799L151.331 267.27Z" fill="#7BA7FE"/>
<path d="M106.971 235.108C109.528 236.424 111.953 237.982 114.214 239.761C119.748 244.398 124.066 250.443 127.792 256.564C131.363 262.543 134.54 268.749 137.302 275.142C137.577 275.751 136.677 276.285 136.402 275.668C132.109 265.928 127.183 256.197 120.507 247.841C117.406 243.956 113.839 240.262 109.563 237.685C108.546 237.076 107.471 236.584 106.437 236.017C105.854 235.692 106.379 234.791 106.971 235.117V235.108Z" fill="#EADFFF"/>
<path d="M120.915 294.587L131.392 281.454L139.644 271.122L145.478 263.859C145.895 263.334 146.629 264.076 146.212 264.593L137.21 275.867C133.443 280.565 129.678 285.237 125.916 289.884L121.582 295.313C121.165 295.838 120.432 295.096 120.848 294.579L120.915 294.587Z" fill="#EADFFF"/>
<path d="M112.264 315.217H148.922V318.869H112.264V315.217Z" fill="#010101"/>
<path d="M217.578 318.869H147.956C145.852 318.869 144.146 317.163 144.146 315.058V270.796C144.146 268.692 145.852 266.986 147.956 266.986H217.578C219.682 266.986 221.388 268.692 221.388 270.796V315.058C221.388 317.163 219.682 318.869 217.578 318.869Z" fill="#010101"/>
<path d="M188.754 292.92C188.756 294.252 188.362 295.554 187.624 296.662C186.885 297.77 185.835 298.634 184.605 299.144C183.376 299.654 182.023 299.788 180.717 299.529C179.412 299.27 178.212 298.629 177.271 297.687C176.33 296.745 175.689 295.545 175.43 294.239C175.171 292.933 175.305 291.579 175.815 290.35C176.325 289.12 177.188 288.069 178.296 287.33C179.403 286.591 180.705 286.198 182.036 286.199C183.818 286.199 185.526 286.907 186.786 288.168C188.046 289.428 188.754 291.138 188.754 292.92Z" stroke="white" stroke-miterlimit="10"/>
<path d="M132.869 319.42C132.869 318.787 132.869 318.153 132.869 317.511C132.869 268.938 115.749 229.562 94.6196 229.562C73.4902 229.562 56.3699 268.938 56.3699 317.511C56.3699 318.153 56.3699 318.787 56.3699 319.42H132.869Z" fill="#0A4DD0"/>
<path d="M132.343 319.42C132.502 302.117 130.676 284.589 125.675 267.962C123.759 261.312 121.147 254.884 117.882 248.783C115.321 243.855 111.919 239.414 107.83 235.657C104.496 232.781 100.512 230.554 96.1025 230.162C91.8715 229.889 87.6737 231.065 84.2001 233.498C79.8242 236.416 76.3901 240.619 73.5812 245.013C70.0974 250.613 67.2831 256.602 65.1962 262.858C59.6783 278.777 57.3445 295.805 56.9444 312.607C56.8861 314.883 56.8777 317.16 56.8944 319.436L56.3776 318.911H129.726C130.72 318.853 131.716 318.853 132.71 318.911C132.754 318.915 132.799 318.915 132.843 318.911C132.97 318.927 133.087 318.989 133.171 319.085C133.256 319.181 133.303 319.304 133.303 319.432C133.303 319.56 133.256 319.684 133.171 319.78C133.087 319.876 132.97 319.937 132.843 319.953H59.4949C58.5012 320.012 57.5048 320.012 56.511 319.953H56.3776C56.2398 319.953 56.1075 319.899 56.0093 319.803C55.911 319.706 55.8547 319.574 55.8525 319.436C55.6942 301.75 57.6195 283.788 62.8123 266.828C64.775 260.149 67.458 253.704 70.814 247.607C73.5395 242.754 76.8819 238.067 81.1744 234.482C84.5187 231.517 88.6893 229.646 93.1269 229.12C97.4181 228.838 101.681 229.991 105.246 232.397C109.655 235.249 113.156 239.351 116.032 243.696C119.651 249.344 122.576 255.408 124.742 261.758C130.468 277.868 132.868 295.179 133.31 312.232C133.377 314.633 133.396 317.035 133.369 319.436C133.341 319.553 133.274 319.656 133.18 319.729C133.085 319.803 132.969 319.842 132.849 319.84C132.73 319.838 132.615 319.795 132.523 319.719C132.431 319.642 132.367 319.537 132.343 319.42Z" fill="#EADFFF"/>
<path d="M84.7167 258.622L82.2162 253.043L81.8578 252.209C81.7918 252.089 81.774 251.948 81.808 251.815C81.8421 251.681 81.9254 251.566 82.0411 251.492C82.1616 251.423 82.3048 251.404 82.4392 251.44C82.5736 251.476 82.6882 251.564 82.7579 251.684L85.2584 257.254L85.6169 258.088C85.6838 258.208 85.7012 258.349 85.6654 258.482C85.6295 258.614 85.5433 258.727 85.4251 258.797C85.3666 258.831 85.3018 258.854 85.2345 258.864C85.1672 258.873 85.0987 258.869 85.0329 258.852C84.967 258.835 84.9052 258.805 84.851 258.764C84.7967 258.723 84.7511 258.672 84.7167 258.613V258.622Z" fill="#FBF8FF"/>
<path d="M93.1346 246.223L89.5922 251.226L89.0755 251.943C88.9978 252.045 88.8856 252.115 88.76 252.139C88.6344 252.164 88.5041 252.142 88.3935 252.078C88.2829 252.013 88.1997 251.911 88.1595 251.789C88.1194 251.667 88.1249 251.535 88.1753 251.418L91.726 246.414L92.2345 245.706C92.3072 245.588 92.4217 245.503 92.5549 245.468C92.6881 245.432 92.8298 245.448 92.9513 245.514C93.0703 245.585 93.1563 245.7 93.1906 245.835C93.225 245.969 93.2049 246.111 93.1346 246.231V246.223Z" fill="#FBF8FF"/>
<path d="M100.745 242.888L95.5189 239.727L94.7688 239.269C94.6505 239.199 94.5647 239.085 94.5303 238.952C94.4959 238.819 94.5157 238.678 94.5854 238.56C94.655 238.441 94.7688 238.356 94.9017 238.321C95.0345 238.287 95.1756 238.307 95.2939 238.376L100.52 241.537L101.27 241.987C101.372 242.065 101.442 242.177 101.467 242.303C101.491 242.428 101.47 242.559 101.405 242.669C101.341 242.78 101.238 242.863 101.116 242.903C100.995 242.943 100.863 242.938 100.745 242.888Z" fill="#FBF8FF"/>
<path d="M100.52 256.137L96.677 251.376L96.1353 250.7C96.0409 250.6 95.9884 250.467 95.9884 250.329C95.9884 250.191 96.0409 250.058 96.1353 249.958C96.2333 249.862 96.365 249.809 96.502 249.809C96.639 249.809 96.7707 249.862 96.8687 249.958L100.711 254.728L101.261 255.403C101.353 255.503 101.404 255.634 101.404 255.77C101.404 255.906 101.353 256.037 101.261 256.137C101.162 256.233 101.029 256.287 100.89 256.287C100.752 256.287 100.619 256.233 100.52 256.137Z" fill="#FBF8FF"/>
<path d="M116.597 251.726L110.613 252.91L109.779 253.085C109.129 253.21 108.846 252.251 109.504 252.076L115.489 250.892L116.322 250.725C116.981 250.592 117.256 251.559 116.597 251.726Z" fill="#FBF8FF"/>
<path d="M79.0901 263.735L73.1055 264.919L72.272 265.085C71.6135 265.219 71.3385 264.21 71.9969 264.085L77.9482 262.901L78.7817 262.726C79.4318 262.601 79.7152 263.601 79.0568 263.735H79.0901Z" fill="#FBF8FF"/>
<path d="M109.921 265.402L107.087 259.974L106.687 259.207C106.37 258.615 107.271 258.081 107.587 258.681L110.413 264.102L110.821 264.877C111.13 265.469 110.23 265.994 109.921 265.402Z" fill="#FBF8FF"/>
<path d="M100.911 271.807L103.495 266.253L103.853 265.469C103.883 265.401 103.926 265.339 103.981 265.289C104.036 265.238 104.101 265.2 104.171 265.177C104.242 265.154 104.317 265.145 104.391 265.153C104.465 265.161 104.536 265.184 104.601 265.222C104.665 265.259 104.721 265.31 104.764 265.371C104.807 265.432 104.837 265.501 104.851 265.574C104.866 265.647 104.865 265.722 104.848 265.795C104.831 265.867 104.799 265.935 104.754 265.995L102.178 271.548L101.811 272.332C101.734 272.434 101.621 272.504 101.496 272.529C101.37 272.553 101.24 272.531 101.129 272.467C101.019 272.402 100.936 272.3 100.895 272.178C100.855 272.056 100.861 271.924 100.911 271.807Z" fill="#FBF8FF"/>
<path d="M83.2421 272.232L85.826 266.678L86.1927 265.894C86.2264 265.835 86.2715 265.783 86.3255 265.741C86.3794 265.699 86.4411 265.669 86.507 265.651C86.5729 265.633 86.6416 265.628 86.7093 265.637C86.7769 265.646 86.8421 265.668 86.9012 265.703C87.0199 265.774 87.1063 265.888 87.142 266.022C87.1778 266.156 87.1602 266.299 87.0928 266.42L84.509 271.973L84.1423 272.757C84.0646 272.859 83.9524 272.929 83.8268 272.954C83.7012 272.978 83.5709 272.957 83.4603 272.892C83.3497 272.828 83.2665 272.725 83.2263 272.603C83.1861 272.482 83.1917 272.35 83.2421 272.232Z" fill="#FBF8FF"/>
<path d="M117.165 267.487L119.749 261.933L120.107 261.149C120.18 261.032 120.295 260.947 120.429 260.913C120.562 260.879 120.704 260.898 120.824 260.966C120.941 261.037 121.025 261.151 121.059 261.283C121.094 261.415 121.075 261.556 121.007 261.675L118.424 267.228L118.065 268.012C118.036 268.081 117.992 268.142 117.938 268.192C117.883 268.243 117.818 268.281 117.747 268.304C117.676 268.328 117.602 268.336 117.528 268.328C117.454 268.32 117.382 268.297 117.318 268.259C117.253 268.222 117.198 268.171 117.155 268.11C117.111 268.05 117.082 267.981 117.067 267.908C117.053 267.835 117.054 267.759 117.071 267.687C117.088 267.614 117.12 267.546 117.165 267.487Z" fill="#FBF8FF"/>
<path d="M110.58 281.995L109.33 276.008L109.155 275.174C109.013 274.515 109.989 274.24 110.155 274.899L111.406 280.886L111.589 281.72C111.722 282.379 110.755 282.654 110.58 281.995Z" fill="#FBF8FF"/>
<path d="M90.6418 280.887L92.2171 274.975L92.4422 274.141C92.4787 274.008 92.5663 273.896 92.6859 273.828C92.8055 273.76 92.9472 273.742 93.0798 273.778C93.2124 273.815 93.3252 273.903 93.3932 274.022C93.4612 274.142 93.4788 274.284 93.4424 274.416L91.8754 280.328L91.6504 281.162C91.6041 281.284 91.514 281.385 91.3977 281.444C91.2813 281.503 91.1471 281.517 91.0212 281.483C90.8952 281.449 90.7866 281.368 90.7164 281.258C90.6463 281.148 90.6197 281.016 90.6418 280.887Z" fill="#FBF8FF"/>
<path d="M75.9061 279.704L74.2891 273.8L74.0558 272.966C74.0336 272.837 74.0603 272.705 74.1304 272.595C74.2005 272.485 74.3091 272.404 74.4351 272.37C74.561 272.336 74.6953 272.35 74.8116 272.409C74.9279 272.468 75.018 272.569 75.0643 272.691L76.7396 278.578L76.9647 279.412C77.0023 279.544 76.9856 279.687 76.9184 279.807C76.8512 279.927 76.7389 280.016 76.6063 280.054C76.4737 280.091 76.3315 280.075 76.2112 280.007C76.0908 279.94 76.0021 279.828 75.9645 279.695L75.9061 279.704Z" fill="#FBF8FF"/>
<path d="M83.6414 290.567L82.0244 284.672L81.7993 283.838C81.7629 283.705 81.7806 283.564 81.8486 283.444C81.9166 283.324 82.0293 283.237 82.1619 283.2C82.2946 283.164 82.4363 283.181 82.5558 283.249C82.6754 283.317 82.7631 283.43 82.7996 283.563L84.4166 289.467L84.6416 290.301C84.6781 290.433 84.6604 290.575 84.5924 290.695C84.5244 290.814 84.4116 290.902 84.279 290.939C84.1464 290.975 84.0047 290.957 83.8851 290.889C83.7655 290.821 83.6779 290.709 83.6414 290.576V290.567Z" fill="#FBF8FF"/>
<path d="M97.0949 289.625L97.8034 283.546L97.9034 282.712C97.9097 282.576 97.9672 282.447 98.0646 282.351C98.162 282.255 98.292 282.199 98.4285 282.195C98.5649 282.197 98.6951 282.253 98.7916 282.349C98.888 282.446 98.9432 282.576 98.9453 282.712L98.2368 288.791L98.1368 289.625C98.1305 289.762 98.073 289.891 97.9756 289.987C97.8782 290.083 97.7482 290.138 97.6117 290.142C97.4746 290.142 97.3432 290.088 97.2463 289.991C97.1494 289.894 97.0949 289.762 97.0949 289.625Z" fill="#FBF8FF"/>
<path d="M89.4928 298.999L90.2013 292.92L90.3097 292.086C90.3137 291.949 90.3692 291.819 90.465 291.722C90.5609 291.624 90.69 291.567 90.8264 291.561C90.9657 291.561 91.0992 291.616 91.1977 291.714C91.2962 291.813 91.3516 291.947 91.3516 292.086L90.6347 298.165L90.5347 298.999C90.5306 299.135 90.4752 299.265 90.3793 299.363C90.2835 299.46 90.1544 299.518 90.0179 299.524C89.8787 299.524 89.7451 299.469 89.6466 299.37C89.5481 299.272 89.4928 299.138 89.4928 298.999Z" fill="#FBF8FF"/>
<path d="M104.595 288.443L108.979 292.729L109.596 293.329C110.071 293.796 109.338 294.538 108.854 294.063L104.479 289.777L103.862 289.176C103.378 288.709 104.12 287.976 104.595 288.443Z" fill="#FBF8FF"/>
<path d="M119.848 279.053L124.249 283.339L124.866 283.94C125.35 284.407 124.608 285.141 124.133 284.674L119.748 280.388L119.132 279.787C118.657 279.32 119.39 278.578 119.873 279.053H119.848Z" fill="#FBF8FF"/>
<path d="M119.707 298.206L120.291 292.127L120.374 291.251C120.378 291.114 120.435 290.984 120.533 290.888C120.631 290.791 120.762 290.736 120.899 290.734C121.036 290.734 121.168 290.789 121.265 290.886C121.362 290.983 121.416 291.114 121.416 291.251L120.833 297.33L120.749 298.164C120.745 298.302 120.688 298.433 120.591 298.531C120.493 298.629 120.362 298.685 120.224 298.69C120.086 298.687 119.955 298.631 119.858 298.533C119.761 298.434 119.707 298.302 119.707 298.164V298.206Z" fill="#FBF8FF"/>
<path d="M112.181 306.562L112.765 300.483L112.857 299.608C112.873 299.481 112.934 299.364 113.03 299.28C113.126 299.195 113.25 299.148 113.377 299.148C113.505 299.148 113.629 299.195 113.725 299.28C113.821 299.364 113.882 299.481 113.898 299.608L113.307 305.687L113.223 306.562C113.219 306.7 113.162 306.831 113.065 306.929C112.967 307.027 112.836 307.083 112.698 307.088C112.56 307.085 112.429 307.029 112.332 306.931C112.236 306.832 112.181 306.7 112.181 306.562Z" fill="#FBF8FF"/>
<path d="M99.7279 305.178L102.987 299.983L103.445 299.257C103.795 298.69 104.704 299.216 104.346 299.783L101.087 304.978L100.628 305.703C100.278 306.27 99.3695 305.745 99.7279 305.178Z" fill="#FBF8FF"/>
<path d="M129.21 306.329L126.018 301.117L125.559 300.367C125.209 299.8 126.109 299.274 126.459 299.841L129.652 305.053L130.11 305.804C130.16 305.921 130.166 306.053 130.126 306.175C130.086 306.297 130.002 306.399 129.892 306.464C129.781 306.528 129.651 306.55 129.525 306.526C129.4 306.501 129.288 306.431 129.21 306.329Z" fill="#FBF8FF"/>
<path d="M68.8961 289.909L71.6883 284.447L72.08 283.68C72.3884 283.088 73.2803 283.613 72.9802 284.205L70.188 289.667L69.7962 290.434C69.4961 291.026 68.596 290.501 68.8961 289.909Z" fill="#FBF8FF"/>
<path d="M109.631 240.877L106.046 245.839L105.538 246.548C105.462 246.655 105.348 246.729 105.219 246.756C105.09 246.783 104.956 246.761 104.843 246.694C104.73 246.627 104.646 246.52 104.608 246.394C104.57 246.268 104.581 246.132 104.638 246.014L108.222 241.052L108.73 240.352C108.76 240.284 108.803 240.222 108.858 240.172C108.913 240.121 108.978 240.083 109.048 240.06C109.119 240.036 109.194 240.028 109.268 240.036C109.342 240.044 109.413 240.067 109.478 240.105C109.542 240.142 109.598 240.193 109.641 240.254C109.684 240.314 109.714 240.384 109.728 240.457C109.743 240.53 109.742 240.605 109.725 240.677C109.708 240.75 109.676 240.818 109.631 240.877Z" fill="#FBF8FF"/>
<path d="M105.295 237.76L101.377 233.057L100.819 232.39C100.727 232.29 100.676 232.159 100.676 232.023C100.676 231.887 100.727 231.756 100.819 231.656C100.918 231.56 101.051 231.506 101.19 231.506C101.328 231.506 101.461 231.56 101.561 231.656L105.487 236.359L106.037 237.026C106.129 237.126 106.18 237.257 106.18 237.393C106.18 237.529 106.129 237.66 106.037 237.76C105.937 237.856 105.804 237.91 105.666 237.91C105.527 237.91 105.394 237.856 105.295 237.76Z" fill="#FBF8FF"/>
<path d="M94.8263 266.061L92.0007 260.641L91.5922 259.865C91.2839 259.273 92.1841 258.748 92.4924 259.34L95.3263 264.768L95.7265 265.536C96.0432 266.128 95.143 266.661 94.8263 266.061Z" fill="#FBF8FF"/>
<path d="M93.6095 302.367C93.6095 302.367 109.505 303.46 115.014 305.953C120.523 308.446 132.651 313.458 133.443 316.66C134.235 319.862 128.884 320.079 124.833 319.995C120.782 319.912 90.0005 319.995 90.0005 319.995L93.6095 302.367Z" fill="#DE9C80"/>
<path d="M130.7 317.403L121.107 313.167C118.556 311.923 115.944 310.81 113.28 309.832C112.863 309.69 113.038 308.998 113.463 309.164C116.089 309.998 118.614 311.324 121.14 312.433L131.05 316.811C131.459 316.986 131.109 317.587 130.7 317.403Z" fill="#9E6050"/>
<path d="M125.167 318.437L112.973 313.767C112.564 313.617 112.739 312.933 113.156 313.109L125.35 317.762C125.767 317.92 125.584 318.595 125.167 318.429V318.437Z" fill="#9E6050"/>
<path d="M28.9797 296.322C28.9797 296.322 30.0633 283.33 34.5642 275.308C39.0652 267.287 46.1583 257.238 50.9509 252.894C55.7436 248.55 61.0447 243.088 68.7797 238.81C76.5146 234.532 80.7154 233.473 83.0409 231.83C85.3664 230.188 90.9259 229.929 89.6173 232.247C88.3087 234.566 81.0155 246.932 79.2401 251.226L67.171 280.812L65.1872 285.69C65.1872 285.69 64.037 287.725 64.9205 288.192C65.804 288.659 96.5938 297.173 96.5938 297.173L90.9092 321.722C90.9092 321.722 74.8226 323.54 69.1464 322.964C63.4702 322.389 45.4665 321.805 38.4984 316.21C31.5302 310.615 28.2212 303.168 28.9797 296.322Z" fill="#0A4DD0"/>
<path d="M40.5818 274.116L45.7745 270.889L46.5164 270.43C47.0831 270.072 47.6083 270.972 47.0415 271.331L41.8404 274.558L41.1069 275.016C40.9892 275.067 40.8572 275.072 40.7356 275.032C40.6141 274.992 40.5114 274.909 40.4469 274.798C40.3824 274.688 40.3605 274.557 40.3853 274.432C40.4102 274.306 40.48 274.194 40.5818 274.116Z" fill="#FBF8FF"/>
<path d="M54.6684 277.385L57.319 282.914L57.7023 283.698C57.9941 284.298 57.0939 284.832 56.8022 284.223L54.1517 278.719L53.7682 277.927C53.4765 277.327 54.3767 276.801 54.6684 277.402V277.385Z" fill="#FBF8FF"/>
<path d="M61.4783 265.51L57.3858 270.038L56.794 270.688C56.3439 271.189 55.6104 270.455 56.0605 269.955L60.153 265.402L60.7448 264.751C61.1949 264.251 61.9284 264.985 61.4783 265.485V265.51Z" fill="#FBF8FF"/>
<path d="M44.8076 280.22L42.8405 286.016L42.5654 286.85C42.3487 287.475 41.3485 287.208 41.5652 286.566L43.524 280.729L43.8073 279.895C44.0157 279.261 45.0243 279.528 44.8076 280.17V280.22Z" fill="#FBF8FF"/>
<path d="M34.4146 285.531L35.5565 291.535L35.7232 292.369C35.8482 293.019 34.8897 293.302 34.723 292.644L33.5728 286.648L33.406 285.814C33.281 285.156 34.2895 284.872 34.4146 285.531Z" fill="#FBF8FF"/>
<path d="M36.59 297.414L33.8311 302.875L33.4477 303.651C33.1393 304.251 32.2391 303.726 32.5475 303.126L35.2981 297.655L35.6898 296.888C35.9899 296.288 36.8901 296.813 36.59 297.414Z" fill="#FBF8FF"/>
<path d="M51.1755 289.475L46.4745 293.386L45.8077 293.936C45.7082 294.032 45.5752 294.086 45.4368 294.086C45.2983 294.086 45.1653 294.032 45.0658 293.936C44.9701 293.838 44.9165 293.706 44.9165 293.569C44.9165 293.432 44.9701 293.3 45.0658 293.202L49.7752 289.292L50.442 288.741C50.54 288.645 50.6717 288.592 50.8087 288.592C50.9458 288.592 51.0774 288.645 51.1755 288.741C51.2238 288.789 51.2622 288.846 51.2884 288.909C51.3147 288.972 51.3281 289.04 51.3281 289.108C51.3281 289.176 51.3147 289.244 51.2884 289.307C51.2622 289.37 51.2238 289.427 51.1755 289.475Z" fill="#FBF8FF"/>
<path d="M46.9999 306.261L43.4742 301.258L42.974 300.549C42.9289 300.49 42.8968 300.422 42.8799 300.349C42.8631 300.277 42.8618 300.202 42.8763 300.128C42.8907 300.055 42.9205 299.986 42.9637 299.926C43.0069 299.865 43.0625 299.814 43.1268 299.777C43.1911 299.739 43.2627 299.716 43.3367 299.708C43.4107 299.7 43.4856 299.708 43.5563 299.732C43.627 299.755 43.6918 299.793 43.7466 299.844C43.8015 299.894 43.845 299.955 43.8742 300.024L47.3999 305.027L47.9001 305.736C47.9453 305.795 47.9773 305.863 47.9942 305.936C48.0111 306.008 48.0123 306.084 47.9978 306.157C47.9834 306.23 47.9536 306.299 47.9104 306.36C47.8672 306.42 47.8116 306.471 47.7473 306.508C47.683 306.546 47.6114 306.569 47.5374 306.577C47.4634 306.585 47.3885 306.577 47.3178 306.553C47.2472 306.53 47.1823 306.492 47.1275 306.442C47.0727 306.391 47.0291 306.33 46.9999 306.261Z" fill="#FBF8FF"/>
<path d="M42.4068 315.317L38.8811 310.314L38.381 309.605C38.3307 309.487 38.3251 309.355 38.3653 309.233C38.4055 309.112 38.4887 309.009 38.5992 308.945C38.7098 308.88 38.8401 308.858 38.9657 308.883C39.0913 308.908 39.2035 308.978 39.2812 309.08L42.8069 314.083L43.2987 314.792C43.3689 314.911 43.3891 315.054 43.3547 315.188C43.3204 315.322 43.2343 315.438 43.1153 315.509C42.9961 315.574 42.8564 315.592 42.7247 315.558C42.593 315.524 42.4793 315.44 42.4068 315.325V315.317Z" fill="#FBF8FF"/>
<path d="M57.2518 312.716L51.1506 312.474H50.2671C49.6003 312.474 49.6003 311.407 50.2671 311.432L56.3683 311.674H57.2518C57.9187 311.674 57.9187 312.741 57.2518 312.716Z" fill="#FBF8FF"/>
<path d="M58.6278 300.6L53.11 297.973L52.3182 297.598C51.7097 297.306 52.2432 296.414 52.8433 296.697L58.3611 299.324L59.153 299.699C59.7531 299.991 59.228 300.892 58.6278 300.6Z" fill="#FBF8FF"/>
<path d="M67.8128 291.752L61.8449 293.145L61.0114 293.345C60.3529 293.495 60.0779 292.511 60.728 292.336L66.6959 290.943L67.5294 290.752C68.1796 290.602 68.4546 291.585 67.8045 291.752H67.8128Z" fill="#FBF8FF"/>
<path d="M68.121 308.696L62.0864 307.72L61.2529 307.587C61.1308 307.541 61.0303 307.45 60.9711 307.334C60.9118 307.218 60.898 307.083 60.9324 306.957C60.9667 306.831 61.0468 306.723 61.1569 306.653C61.267 306.582 61.3993 306.556 61.528 306.578L67.5709 307.554L68.4044 307.687C68.5362 307.726 68.6476 307.815 68.7146 307.935C68.7816 308.055 68.7989 308.196 68.7628 308.329C68.7239 308.461 68.6353 308.573 68.5157 308.642C68.3961 308.71 68.2546 308.73 68.121 308.696Z" fill="#FBF8FF"/>
<path d="M74.8151 297.089L69.3139 299.757L68.5305 300.141C67.9303 300.433 67.3969 299.532 68.0053 299.24L73.4981 296.572L74.29 296.188C74.8901 295.897 75.4152 296.789 74.8151 297.089Z" fill="#FBF8FF"/>
<path d="M81.25 306.045L75.2654 304.786L74.4319 304.611C73.7735 304.469 74.0485 303.469 74.707 303.602L80.6916 304.861L81.5251 305.036C82.1835 305.178 81.9085 306.179 81.25 306.045Z" fill="#FBF8FF"/>
<path d="M85.7077 301.083L81.6069 296.547L81.0151 295.896C80.5733 295.404 81.3068 294.662 81.7569 295.162L85.8577 299.69L86.4412 300.341C86.8913 300.841 86.1578 301.575 85.7077 301.083Z" fill="#FBF8FF"/>
<path d="M72.5725 321.313L68.48 316.785L67.8882 316.135C67.4381 315.635 68.1716 314.892 68.6217 315.393L72.7225 319.929L73.3143 320.579C73.7644 321.071 73.0309 321.813 72.5725 321.313Z" fill="#FBF8FF"/>
<path d="M82.782 312.749L77.2225 315.308L76.439 315.667C76.3186 315.733 76.1776 315.751 76.0445 315.717C75.9114 315.683 75.7962 315.599 75.7222 315.484C75.6527 315.363 75.6339 315.22 75.6698 315.085C75.7057 314.951 75.7935 314.836 75.9139 314.766L81.4734 312.206L82.2569 311.848C82.3774 311.782 82.5184 311.764 82.6515 311.798C82.7846 311.832 82.8997 311.916 82.9737 312.031C83.041 312.152 83.0587 312.295 83.0229 312.429C82.9871 312.563 82.9008 312.677 82.782 312.749Z" fill="#FBF8FF"/>
<path d="M62.5696 316.136L57.9602 320.163L57.3101 320.73C56.8017 321.172 56.0682 320.438 56.5683 319.996L61.1776 315.96L61.8361 315.393C62.3362 314.951 63.078 315.694 62.5696 316.136Z" fill="#FBF8FF"/>
<path d="M64.1619 250.393L60.0694 254.921L59.4776 255.571C59.0275 256.072 58.294 255.338 58.7441 254.838L62.8367 250.31L63.4285 249.651C63.8786 249.159 64.612 249.893 64.1619 250.393Z" fill="#FBF8FF"/>
<path d="M74.39 252.169L71.7145 246.666L71.3311 245.882C71.0394 245.282 71.9396 244.748 72.2313 245.357L74.9068 250.852L75.2902 251.644C75.582 252.244 74.6818 252.77 74.39 252.169Z" fill="#FBF8FF"/>
<path d="M78.9394 237.459L73.43 240.102L72.6381 240.478C72.038 240.769 71.5045 239.869 72.113 239.585L77.6225 236.942L78.456 236.558C79.0561 236.275 79.5812 237.175 78.9811 237.459H78.9394Z" fill="#FBF8FF"/>
<path d="M86.8833 244.989L84.3828 239.419L84.016 238.585C83.9528 238.463 83.9374 238.322 83.9728 238.189C84.0083 238.056 84.0921 237.942 84.2078 237.868C84.3275 237.801 84.4687 237.783 84.6011 237.819C84.7335 237.855 84.8466 237.941 84.9162 238.059L87.4167 243.63L87.7751 244.463C87.8411 244.584 87.8589 244.725 87.8249 244.858C87.7909 244.991 87.7075 245.107 87.5918 245.181C87.4721 245.247 87.3309 245.265 87.1985 245.229C87.0661 245.193 86.9529 245.107 86.8833 244.989Z" fill="#FBF8FF"/>
<path d="M64.7788 279.578L62.1615 274.041L61.7948 273.257C61.5114 272.657 62.4033 272.131 62.695 272.732L65.3122 278.269L65.6789 279.052C65.9706 279.653 65.0705 280.186 64.7788 279.578Z" fill="#FBF8FF"/>
<path d="M68.2795 265.285L69.7048 259.323L69.9048 258.489C70.0549 257.83 71.0634 258.105 70.9051 258.764L69.4797 264.726L69.2797 265.56C69.1297 266.21 68.1211 265.935 68.2795 265.285Z" fill="#FBF8FF"/>
<path d="M51.1678 263.734L52.5681 257.805L52.7681 256.971C52.9182 256.321 53.9267 256.596 53.7683 257.246L52.343 263.208L52.143 264.042C51.993 264.693 50.9844 264.418 51.1428 263.767L51.1678 263.734Z" fill="#FBF8FF"/>
<path d="M93.4107 321.38L98.7285 297.748L87.4845 294.588L81.65 322.639C84.6506 322.281 93.4107 321.38 93.4107 321.38Z" fill="#7BA7FE"/>
<path d="M85.6582 303.376L85.8249 302.584L97.1855 304.469L97.0022 305.252L85.6582 303.376Z" fill="white"/>
<path d="M97.9949 300.874L86.6259 298.731L86.7842 297.947L98.1699 300.082L97.9949 300.874Z" fill="white"/>
<path d="M84.692 308.088L96.0527 309.497L95.8694 310.289L84.5253 308.872L84.692 308.088Z" fill="white"/>
<path d="M82.5247 318.527L93.9688 318.744L93.7937 319.545L82.3663 319.328L82.5247 318.527Z" fill="white"/>
<path d="M83.4415 314.101L83.6082 313.309L94.9355 314.459L94.7522 315.252L83.4415 314.101Z" fill="white"/>
<path d="M57.1031 285.414L71.1811 289.408L93.6441 295.787L98.8368 297.255C98.9589 297.301 99.0593 297.391 99.1186 297.508C99.1778 297.624 99.1916 297.758 99.1573 297.884C99.1229 298.01 99.0429 298.119 98.9328 298.189C98.8227 298.26 98.6904 298.286 98.5617 298.264L84.4838 294.27L62.0208 287.916L56.828 286.44C56.706 286.393 56.6055 286.303 56.5463 286.187C56.487 286.071 56.4732 285.936 56.5075 285.81C56.5419 285.684 56.6219 285.576 56.732 285.505C56.8422 285.435 56.9745 285.409 57.1031 285.431V285.414Z" fill="#EADFFF"/>
<path d="M81.2906 247.623L75.6977 261.323L66.8042 283.138L64.7705 288.141C64.5204 288.75 63.5119 288.483 63.7702 287.866L69.3547 274.165L78.2566 252.351L80.282 247.348C80.5321 246.739 81.5406 247.006 81.2906 247.623Z" fill="#EADFFF"/>
<path d="M106.113 185.566H97.8526C92.3598 185.566 87.8505 190.686 87.8505 196.94V209.757C87.8505 210.116 87.8505 210.474 87.8505 210.824C87.7613 211.21 87.7138 211.604 87.7088 212V228.035C87.7132 229.4 88.2576 230.707 89.2229 231.672C90.1882 232.636 91.4959 233.178 92.8599 233.18H96.1356C97.4981 233.176 98.8036 232.633 99.7671 231.669C100.731 230.705 101.274 229.399 101.278 228.035V221.131H106.054C111.547 221.131 116.056 216.011 116.056 209.757V196.94C116.098 190.686 111.605 185.566 106.113 185.566Z" fill="#DE9C80"/>
<path d="M83.333 209.949C83.333 209.949 75.8315 204.829 74.7813 196.231C74.7813 196.231 74.4645 183.106 85.4668 178.253C96.4691 173.4 107.296 175.343 111.639 177.011C119.799 180.088 123.25 184.924 120.099 191.603C117.765 196.607 106.079 193.963 102.037 190.87C102.037 190.87 101.32 196.115 91.2513 197.541L87.809 211.4L87.5923 215.936L83.333 209.949Z" fill="#0F0D1D"/>
<path d="M85.4669 175.169C77.4157 175.169 70.8889 168.639 70.8889 160.584C70.8889 152.53 77.4157 146 85.4669 146C93.5181 146 100.045 152.53 100.045 160.584C100.045 168.639 93.5181 175.169 85.4669 175.169Z" fill="#0F0D1D"/>
<path d="M99.5697 201.127C99.5697 201.495 99.6787 201.854 99.8829 202.16C100.087 202.466 100.377 202.704 100.717 202.845C101.057 202.986 101.43 203.023 101.791 202.951C102.152 202.879 102.483 202.702 102.743 202.442C103.003 202.182 103.18 201.851 103.251 201.49C103.323 201.129 103.286 200.755 103.146 200.415C103.005 200.076 102.767 199.785 102.461 199.581C102.155 199.377 101.796 199.268 101.428 199.268C100.935 199.268 100.463 199.463 100.114 199.812C99.7655 200.161 99.5697 200.634 99.5697 201.127Z" fill="#010101"/>
<path d="M111.748 200.86C111.748 201.175 111.841 201.483 112.016 201.745C112.191 202.007 112.44 202.211 112.73 202.332C113.021 202.452 113.341 202.484 113.65 202.422C113.959 202.361 114.243 202.209 114.465 201.986C114.688 201.764 114.84 201.48 114.901 201.171C114.962 200.862 114.931 200.542 114.81 200.251C114.69 199.96 114.486 199.711 114.224 199.536C113.962 199.361 113.655 199.268 113.34 199.268C112.917 199.268 112.512 199.435 112.214 199.734C111.915 200.033 111.748 200.438 111.748 200.86Z" fill="#010101"/>
<path d="M109.98 208.482C109.98 208.482 109.047 211.209 107.063 211.392C105.079 211.576 103.537 209.391 103.429 207.681L109.98 208.482Z" fill="#FAFAFA"/>
<path d="M93.3688 207.715C93.3754 208.573 93.6361 209.409 94.1178 210.119C94.5995 210.828 95.2807 211.378 96.0751 211.701C96.8696 212.023 97.7417 212.102 98.5811 211.928C99.4206 211.754 100.19 211.335 100.791 210.724C101.393 210.113 101.799 209.337 101.96 208.495C102.121 207.653 102.028 206.782 101.694 205.992C101.36 205.202 100.8 204.529 100.083 204.058C99.3667 203.587 98.5268 203.339 97.6697 203.346C96.5208 203.357 95.4232 203.823 94.6171 204.642C93.811 205.461 93.3621 206.566 93.3688 207.715Z" fill="#D97D79"/>
<path d="M115.29 204.604C115.549 204.604 115.806 204.635 116.057 204.695L116.099 209.19C116.119 209.846 116.072 210.503 115.957 211.149C115.756 211.182 115.553 211.201 115.349 211.208C114.553 211.102 113.822 210.712 113.29 210.11C112.759 209.508 112.462 208.734 112.455 207.931C112.448 207.128 112.731 206.349 113.252 205.738C113.773 205.126 114.497 204.724 115.29 204.604Z" fill="#D97D79"/>
<path d="M93.8431 200.443C93.8431 204.221 96.4103 207.281 99.5693 207.281C102.728 207.281 105.287 204.221 105.287 200.443C105.287 196.666 102.728 193.606 99.5693 193.606C96.4103 193.606 93.8431 196.666 93.8431 200.443Z" stroke="#459D91" stroke-width="0.75" stroke-miterlimit="10"/>
<path d="M108.789 199.793C108.789 203.329 111.065 206.197 113.882 206.197C116.699 206.197 118.975 203.329 118.975 199.793C118.975 196.258 116.699 193.381 113.882 193.381C111.065 193.381 108.789 196.249 108.789 199.793Z" stroke="#459D91" stroke-width="0.75" stroke-miterlimit="10"/>
<path d="M93.8438 200.443L86.4506 202.144" stroke="#459D91" stroke-width="0.75" stroke-miterlimit="10"/>
<path d="M107.446 198.158C107.907 200.146 108.794 202.009 110.046 203.62C110.081 203.658 110.108 203.702 110.124 203.751C110.139 203.8 110.144 203.852 110.138 203.903C110.132 203.954 110.114 204.002 110.087 204.046C110.059 204.089 110.023 204.126 109.98 204.154L107.254 205.822C107.176 205.855 107.088 205.859 107.007 205.832C106.926 205.805 106.857 205.75 106.814 205.676C106.771 205.602 106.757 205.515 106.773 205.432C106.79 205.348 106.836 205.273 106.904 205.221L109.63 203.553L109.563 204.095C108.23 202.399 107.28 200.433 106.779 198.333C106.679 197.9 107.346 197.716 107.446 198.15V198.158Z" fill="#9E6050"/>
<path d="M105.479 201.536C106.059 201.212 106.714 201.041 107.379 201.041C108.044 201.041 108.698 201.212 109.279 201.536V200.81C109.204 200.744 107.662 199.351 105.112 200.769L105.479 201.536Z" fill="#459D91"/>
<path d="M114.498 198.276C113.59 197.993 112.681 197.701 111.781 197.392C111.597 197.336 111.441 197.211 111.347 197.044C111.252 196.876 111.226 196.678 111.272 196.492C111.325 196.307 111.448 196.15 111.615 196.055C111.781 195.96 111.979 195.934 112.164 195.983C113.064 196.292 113.973 196.583 114.882 196.867C115.066 196.92 115.223 197.042 115.318 197.209C115.413 197.376 115.439 197.574 115.39 197.759C115.337 197.944 115.215 198.102 115.048 198.198C114.882 198.294 114.685 198.323 114.498 198.276Z" fill="#FAFAFA"/>
<path d="M101.87 196.974C100.346 197.574 98.7902 198.092 97.2103 198.525C97.0308 198.555 96.8464 198.518 96.693 198.419C96.5396 198.321 96.4282 198.17 96.3804 197.994C96.3326 197.818 96.3518 197.631 96.4343 197.469C96.5169 197.306 96.6568 197.18 96.8269 197.116C98.4051 196.681 99.9602 196.166 101.486 195.573C101.578 195.546 101.674 195.539 101.769 195.55C101.864 195.561 101.956 195.592 102.039 195.639C102.122 195.686 102.195 195.75 102.253 195.826C102.312 195.902 102.354 195.989 102.378 196.082C102.425 196.267 102.398 196.464 102.303 196.63C102.208 196.796 102.053 196.919 101.87 196.974Z" fill="#FAFAFA"/>
<path d="M77.4568 205.822C77.4469 207.126 77.8242 208.402 78.5408 209.491C79.2574 210.58 80.2809 211.431 81.4817 211.936C82.6825 212.442 84.0063 212.579 85.2852 212.331C86.5642 212.083 87.7407 211.46 88.6654 210.542C89.5901 209.624 90.2215 208.452 90.4793 207.174C90.7371 205.897 90.6099 204.571 90.1136 203.366C89.6174 202.161 88.7745 201.131 87.692 200.405C86.6095 199.68 85.336 199.293 84.0332 199.293C83.1729 199.29 82.3203 199.456 81.5242 199.782C80.7281 200.109 80.004 200.589 79.3934 201.195C78.7827 201.801 78.2974 202.522 77.9651 203.316C77.6328 204.11 77.4601 204.962 77.4568 205.822Z" fill="#DE9C80"/>
<path d="M87.2496 206.681C87.258 206.542 87.258 206.403 87.2496 206.264C87.2538 206.197 87.2538 206.13 87.2496 206.064C87.2496 206.064 87.2496 205.989 87.2496 205.955C87.2496 205.922 87.2496 205.955 87.2496 205.88C87.2496 205.805 87.183 205.522 87.1413 205.347C87.0996 205.172 87.083 205.163 87.058 205.072C87.0422 205.017 87.0227 204.965 86.9996 204.913C86.9996 204.913 86.9329 204.755 86.9996 204.813C86.9021 204.601 86.7879 204.398 86.6579 204.204L86.4912 203.996C86.4079 203.899 86.3158 203.809 86.2161 203.729C86.0342 203.575 85.8324 203.446 85.616 203.345C84.9152 203.067 84.1534 202.977 83.4072 203.087C83.3166 203.087 83.2296 203.051 83.1656 202.987C83.1015 202.923 83.0655 202.836 83.0655 202.745C83.0655 202.654 83.1015 202.567 83.1656 202.503C83.2296 202.439 83.3166 202.403 83.4072 202.403C84.0675 202.283 84.7474 202.33 85.385 202.54C86.0226 202.749 86.5977 203.115 87.058 203.604C87.6162 204.323 87.9419 205.196 87.9915 206.106C88.008 206.297 88.008 206.489 87.9915 206.681C87.9915 207.123 87.2747 207.131 87.308 206.681H87.2496Z" fill="#9E6050"/>
<path d="M82.7978 223.355L106.78 223.879C108.014 223.906 108.992 224.928 108.965 226.162L108.76 235.557C108.733 236.791 107.711 237.77 106.478 237.743L82.4954 237.219C81.262 237.192 80.284 236.17 80.3109 234.936L80.5158 225.541C80.5427 224.307 81.5644 223.329 82.7978 223.355Z" fill="#7BA7FE"/>
<path d="M84.5332 223.357L84.3832 237.233" stroke="white" stroke-miterlimit="10"/>
<path d="M89.5684 223.416L89.4183 237.283" stroke="white" stroke-miterlimit="10"/>
<path d="M94.5859 223.558L94.4359 237.434" stroke="white" stroke-miterlimit="10"/>
<path d="M99.5605 223.676L99.4189 237.543" stroke="white" stroke-miterlimit="10"/>
<path d="M104.404 223.801L104.254 237.676" stroke="white" stroke-miterlimit="10"/>
<path d="M9.75099 328.385H241.249C242.509 328.385 243.717 327.884 244.608 326.993C245.499 326.102 246 324.893 246 323.632C246 322.371 245.499 321.162 244.608 320.271C243.717 319.38 242.509 318.879 241.249 318.879H9.75099C8.49095 318.879 7.28252 319.38 6.39153 320.271C5.50055 321.162 5 322.371 5 323.632C5 324.893 5.50055 326.102 6.39153 326.993C7.28252 327.884 8.49095 328.385 9.75099 328.385Z" fill="#AAA7AB"/>
<path d="M241.25 328.902H19.1455C16.1449 328.902 13.1442 328.952 10.1436 328.902H9.75189C9.62508 328.886 9.50848 328.824 9.42397 328.728C9.33945 328.632 9.29282 328.508 9.29282 328.381C9.29282 328.253 9.33945 328.129 9.42397 328.033C9.50848 327.937 9.62508 327.875 9.75189 327.859H231.856C234.849 327.859 237.858 327.859 240.858 327.859C240.983 327.859 241.117 327.859 241.25 327.859C241.377 327.875 241.493 327.937 241.578 328.033C241.662 328.129 241.709 328.253 241.709 328.381C241.709 328.508 241.662 328.632 241.578 328.728C241.493 328.824 241.377 328.886 241.25 328.902Z" fill="#010101"/>
<path d="M233.463 442.262L168.143 447.899L162.373 411.344L193.893 409.912L199.403 424.322L233.463 442.262Z" fill="#130047"/>
<path d="M212.34 427.903L209.475 435.774L209.062 436.88C208.771 437.676 209.978 438.25 210.268 437.444L213.133 429.573L213.546 428.467C213.837 427.671 212.63 427.096 212.34 427.903Z" fill="white"/>
<path d="M206.061 425.255L203.185 433.127L202.783 434.233C202.492 435.029 203.699 435.603 203.989 434.796L206.854 426.925L207.256 425.82C207.558 425.023 206.351 424.449 206.061 425.255Z" fill="white"/>
<path d="M193.627 445.881L128.307 451.518L122.537 414.963L154.057 413.531L159.567 427.941L193.627 445.881Z" fill="#130047"/>
<path d="M172.504 431.522L169.639 439.393L169.226 440.499C168.935 441.295 170.142 441.87 170.432 441.063L173.298 433.192L173.71 432.086C174.001 431.29 172.795 430.715 172.504 431.522Z" fill="white"/>
<path d="M166.225 428.874L163.349 436.746L162.947 437.852C162.656 438.648 163.863 439.222 164.153 438.415L167.018 430.545L167.42 429.439C167.722 428.642 166.515 428.068 166.225 428.874Z" fill="white"/>
<path d="M141.085 450.408C141.922 448.557 142.221 446.507 141.948 444.494C141.482 441.487 139.844 438.787 137.393 436.985C134.942 435.182 131.876 434.424 128.867 434.876C128.411 434.918 126.396 435.325 125.968 435.439L126.21 436.219C126.658 436.092 128.491 435.68 128.967 435.626C131.774 435.207 134.633 435.915 136.921 437.595C139.208 439.275 140.738 441.792 141.177 444.596C141.442 446.614 141.1 448.666 140.195 450.489L141.085 450.408Z" fill="#EFEFEF"/>
<path d="M153.736 413.865L158.913 427.403L191.467 444.205" stroke="white" stroke-width="0.75" stroke-miterlimit="10" stroke-linecap="round"/>
</g>
<defs>
<clipPath id="clip0_1119_86633">
<rect width="588" height="500" fill="white"/>
</clipPath>
</defs>
</svg>
