<svg width="602" height="500" viewBox="0 0 602 500" fill="none" xmlns="http://www.w3.org/2000/svg">
<g clip-path="url(#clip0_1_5958)">
<path d="M494.375 454.191C494.375 454.191 586.05 436.121 590.719 372C596.104 298.313 522.118 297.504 533.466 244.083C549.304 169.524 518.332 125.122 448.922 128.181C390.396 130.767 341.019 176.535 309.711 137.19C275.941 94.7224 212.778 63.3345 150.266 89.6453C87.754 115.956 118 201.437 74.7763 219.601C31.5523 237.766 4.75556 285.72 12.254 352.028C19.3213 414.204 56.719 455.526 109.881 454.895C135.931 454.59 216.006 455.242 306.882 454.895C401.438 454.506 494.375 454.191 494.375 454.191Z" fill="#DEE3FF"/>
<rect x="81.5" y="62.5" width="298" height="221" rx="11.5" stroke="#E54985"/>
<path d="M30.6893 186.547C30.6893 186.547 14.5793 155.497 42.0793 140.547C71.6793 124.457 94.3693 154.357 87.3793 178.977C80.3893 203.597 39.2693 202.487 30.6893 186.547Z" fill="#DEE3FF"/>
<path d="M435.15 454.76C426.9 455.34 393.58 455.87 399.48 427.65C402.48 413.24 394.82 411.65 387.41 404.38C380 397.11 380.89 393.53 383.16 385.58C385.43 377.63 375.22 380.34 373.24 368.37C371.26 356.4 378.74 346.37 391.66 346.44C404.58 346.51 401.66 359.91 405.9 364.87C410.14 369.83 416.64 365.26 420.95 377.06C425.26 388.86 418.95 395.91 427.25 400.52C428.908 401.481 430.46 402.614 431.88 403.9" stroke="#7189FF" stroke-miterlimit="10"/>
<path d="M421.28 422.66C414.887 409.66 408.137 396.847 401.03 384.22C398.617 379.953 396.177 375.703 393.71 371.47C393.66 371.385 393.594 371.31 393.515 371.25C393.436 371.191 393.347 371.147 393.251 371.122C393.155 371.097 393.056 371.091 392.958 371.104C392.86 371.118 392.765 371.15 392.68 371.2C392.595 371.25 392.52 371.316 392.46 371.395C392.4 371.474 392.357 371.563 392.332 371.659C392.307 371.755 392.301 371.854 392.314 371.952C392.328 372.05 392.36 372.145 392.41 372.23C400.41 385.83 407.98 399.65 415.12 413.69C416.76 416.917 418.383 420.16 419.99 423.42C420.41 424.29 421.71 423.53 421.28 422.66Z" fill="#7189FF"/>
<path d="M388.28 395.63L404.75 397.34L407.12 397.59C408.12 397.69 408.12 396.19 407.12 396.09L390.65 394.38L388.28 394.13C387.28 394.03 387.33 395.53 388.28 395.63Z" fill="#7189FF"/>
<path d="M394.86 386.08C394.941 386.659 394.844 387.249 394.581 387.771C394.319 388.293 393.903 388.722 393.39 389.001C392.876 389.28 392.29 389.396 391.709 389.333C391.128 389.27 390.58 389.032 390.138 388.649C389.697 388.266 389.382 387.758 389.238 387.192C389.093 386.625 389.124 386.029 389.328 385.481C389.531 384.933 389.897 384.46 390.376 384.126C390.856 383.792 391.426 383.612 392.01 383.61C392.715 383.561 393.411 383.793 393.946 384.256C394.48 384.719 394.809 385.375 394.86 386.08Z" stroke="#7189FF" stroke-miterlimit="10"/>
<path d="M401.21 363.89C400.924 364.377 400.501 364.768 399.992 365.014C399.484 365.26 398.915 365.349 398.355 365.271C397.796 365.193 397.273 364.95 396.852 364.574C396.431 364.198 396.132 363.705 395.991 363.158C395.851 362.611 395.876 362.035 396.063 361.503C396.25 360.97 396.591 360.505 397.043 360.167C397.495 359.829 398.038 359.632 398.601 359.603C399.165 359.573 399.725 359.711 400.21 360C400.856 360.385 401.324 361.01 401.512 361.739C401.699 362.468 401.591 363.241 401.21 363.89Z" stroke="#7189FF" stroke-miterlimit="10"/>
<path d="M412.68 428.5C412.786 429.225 412.668 429.965 412.342 430.62C412.015 431.276 411.496 431.816 410.854 432.168C410.212 432.52 409.477 432.667 408.749 432.59C408.021 432.513 407.334 432.215 406.78 431.736C406.226 431.257 405.831 430.619 405.65 429.91C405.468 429.2 405.508 428.452 405.764 427.766C406.02 427.08 406.479 426.488 407.081 426.071C407.683 425.653 408.398 425.43 409.13 425.43C410.007 425.372 410.871 425.662 411.535 426.237C412.2 426.811 412.611 427.624 412.68 428.5Z" stroke="#7189FF" stroke-miterlimit="10"/>
<path d="M396.13 356.59C396.146 356.766 396.125 356.943 396.068 357.109C396.012 357.276 395.921 357.43 395.802 357.56C395.683 357.69 395.538 357.794 395.377 357.865C395.216 357.936 395.041 357.973 394.865 357.973C394.689 357.973 394.514 357.936 394.353 357.865C394.192 357.794 394.047 357.69 393.928 357.56C393.809 357.43 393.718 357.276 393.662 357.109C393.605 356.943 393.584 356.766 393.6 356.59C393.628 356.274 393.774 355.98 394.008 355.766C394.242 355.551 394.548 355.433 394.865 355.433C395.182 355.433 395.488 355.551 395.722 355.766C395.956 355.98 396.102 356.274 396.13 356.59Z" stroke="#7189FF" stroke-miterlimit="10"/>
<path d="M483.69 452.02C476.86 447.15 476.18 416.25 504.18 410.02C518.48 406.83 516.18 399.67 519.08 390.46C521.98 381.25 525.59 380.58 533.78 379.33C541.97 378.08 535.78 366.92 545.53 360.46C555.28 354 568.29 353.51 573.15 367.63C577.26 379.58 565.61 384.85 563.23 390.41C560.85 395.97 567.77 403.48 559.34 411.86C550.91 420.24 541.89 413.93 541.78 422.81C541.67 431.69 537.78 447.87 529.17 451.2C518.58 455.29 489.08 455.86 483.69 452.02Z" stroke="#7189FF" stroke-miterlimit="10"/>
<path d="M493.21 455.5C497.01 450.97 500.95 446.56 504.75 442.03C514.163 430.85 523.353 419.486 532.32 407.94C538.807 399.58 545.18 391.13 551.44 382.59C552.01 381.81 550.71 381.06 550.15 381.83C539.623 396.276 528.74 410.42 517.5 424.26C510.493 432.926 503.35 441.496 496.07 449.97C494.77 451.48 493.43 452.97 492.15 454.48C491.53 455.22 492.59 456.28 493.21 455.54V455.5Z" fill="#7189FF"/>
<path d="M502.72 410.36C502.09 405.19 501.27 400.12 500.8 395.36C498.91 376.22 525.3 384.78 535.8 360.2C546.3 335.62 520.58 326.7 532.68 316.42C544.78 306.14 548.16 270.81 530.44 264.73C507.44 256.85 486.8 271.26 483.99 290.24C481.83 304.88 491.64 315.1 466.1 325.83C440.56 336.56 444.5 349.89 449.75 375.38C455 400.87 437.75 391.52 424.32 413.03C413.69 430.03 428.63 447.47 435.32 453.95L487.02 454.84" stroke="#7189FF" stroke-miterlimit="10"/>
<path d="M445.84 454L452.18 439.42C457.393 427.473 462.61 415.553 467.83 403.66C474.497 388.48 481.21 373.317 487.97 358.17C494.49 343.55 501.083 328.963 507.75 314.41C512.48 304.13 517.19 293.82 522.38 283.77L523.58 281.49C524.04 280.64 522.74 279.88 522.29 280.73C517.34 289.97 512.99 299.55 508.58 309.05C501.99 323.26 495.58 337.54 489.16 351.83C482.333 367.11 475.553 382.407 468.82 397.72C463.307 410.22 457.823 422.733 452.37 435.26C449.8 441.16 447.07 447.03 444.65 453C444.65 453.09 444.58 453.17 444.55 453.25C444.17 454.12 445.46 454.89 445.84 454Z" fill="#7189FF"/>
<path d="M492.94 346.37L523.31 344.69L527.61 344.45C528.61 344.39 528.61 342.89 527.61 342.95L497.24 344.63L492.94 344.87C491.94 344.92 491.94 346.42 492.94 346.37Z" fill="#7189FF"/>
<path d="M457.94 425.32L481.94 422.62L485.32 422.24C486.32 422.13 486.32 420.63 485.32 420.74L461.37 423.43L457.98 423.82C456.98 423.92 456.98 425.42 457.98 425.32H457.94Z" fill="#7189FF"/>
<path d="M454.69 338.62L461.57 354.08L472.57 378.71L475.08 384.34C475.48 385.22 476.77 384.46 476.38 383.58L469.49 368.12L458.49 343.5L456 337.86C455.61 336.98 454.32 337.75 454.71 338.62H454.69Z" fill="#7189FF"/>
<path d="M504.71 286.1C503.01 288.59 500.06 289.53 498.12 288.21C496.18 286.89 495.97 283.79 497.66 281.3C499.35 278.81 502.31 277.87 504.25 279.19C506.19 280.51 506.4 283.61 504.71 286.1Z" stroke="#7189FF" stroke-miterlimit="10"/>
<path d="M506 299.56C506 300.03 505.86 300.491 505.599 300.882C505.337 301.273 504.966 301.578 504.531 301.759C504.096 301.939 503.617 301.986 503.156 301.894C502.694 301.802 502.27 301.575 501.937 301.243C501.604 300.91 501.378 300.486 501.286 300.024C501.194 299.562 501.241 299.084 501.421 298.649C501.601 298.214 501.906 297.842 502.298 297.581C502.689 297.319 503.149 297.18 503.62 297.18C504.251 297.18 504.857 297.43 505.303 297.877C505.749 298.323 506 298.928 506 299.56Z" stroke="#7189FF" stroke-miterlimit="10"/>
<path d="M523.23 361.03C523.23 361.946 522.958 362.841 522.45 363.602C521.941 364.364 521.218 364.957 520.372 365.307C519.526 365.658 518.595 365.75 517.697 365.571C516.799 365.392 515.974 364.951 515.326 364.304C514.679 363.656 514.238 362.831 514.059 361.933C513.88 361.035 513.972 360.104 514.322 359.258C514.673 358.412 515.266 357.689 516.028 357.18C516.789 356.671 517.684 356.4 518.6 356.4C519.828 356.4 521.006 356.888 521.874 357.756C522.742 358.624 523.23 359.802 523.23 361.03Z" stroke="#7189FF" stroke-miterlimit="10"/>
<path d="M311.39 455.01C312.71 450.26 312.75 445.01 313.34 440.5C314.61 430.8 328.65 438.79 337.68 428.19C346.71 417.59 333.1 409.52 341.29 406.19C349.48 402.86 355.04 387.63 346.37 380.42C335.65 371.5 320.62 377.42 316.67 386.34C313.67 393.23 317.99 399.67 302.06 401.34C286.13 403.01 286.75 410.1 286.61 423.4C286.47 436.7 277.76 429.63 267.44 438.31C261.59 443.22 263.2 450.09 265.69 455.13" stroke="#7189FF" stroke-miterlimit="10"/>
<path d="M279.9 455.96C287.713 446.927 295.553 437.927 303.42 428.96C312.42 418.74 321.37 408.53 330.55 398.5C333.83 394.91 337.1 391.3 340.55 387.91C341.25 387.24 340.19 386.18 339.49 386.85C332.06 394.05 325.27 401.98 318.39 409.7C309.057 420.167 299.79 430.707 290.59 441.32C286.65 445.84 282.72 450.367 278.8 454.9C278.17 455.62 279.23 456.69 279.86 455.96H279.9Z" fill="#7189FF"/>
<path d="M314.77 415.58L332.3 419.08L334.83 419.59C335.77 419.78 336.17 418.33 335.23 418.14L317.7 414.64L315.17 414.13C314.23 413.94 313.83 415.39 314.77 415.58Z" fill="#7189FF"/>
<path d="M293.66 406.05L298.91 428.24L299.67 431.47C299.89 432.41 301.34 432.01 301.12 431.07L295.87 408.88L295.1 405.65C294.88 404.71 293.43 405.11 293.66 406.05Z" fill="#7189FF"/>
<path d="M329 387.23C328.445 387.701 327.745 387.967 327.018 387.985C326.29 388.004 325.578 387.772 325 387.33C324.05 386.4 324.32 384.85 325.59 383.86C326.146 383.391 326.846 383.127 327.574 383.11C328.302 383.094 329.013 383.327 329.59 383.77C330.57 384.7 330.3 386.25 329 387.23Z" stroke="#7189FF" stroke-miterlimit="10"/>
<path d="M330.39 426.78C330.334 427.34 330.109 427.87 329.744 428.298C329.379 428.727 328.891 429.033 328.347 429.177C327.802 429.32 327.227 429.294 326.698 429.101C326.169 428.909 325.712 428.559 325.388 428.099C325.063 427.638 324.887 427.09 324.883 426.527C324.879 425.964 325.048 425.414 325.366 424.949C325.684 424.484 326.136 424.128 326.663 423.928C327.189 423.728 327.764 423.694 328.31 423.83C328.976 423.947 329.569 424.323 329.958 424.876C330.348 425.429 330.503 426.113 330.39 426.78Z" stroke="#7189FF" stroke-miterlimit="10"/>
<path d="M144.83 453.98C139.33 455.42 114.44 459.55 114.83 439.73C115.03 429.6 112.08 429.97 106.15 426C100.22 422.03 100.36 419.5 100.88 413.83C101.4 408.16 95.7599 410.91 91.9999 403.5C87.4999 394.59 92.9199 387.94 101.66 386.34C110.4 384.74 110.15 394.17 113.66 396.98C117.17 399.79 121.94 393.74 128.66 401.98C133.02 407.33 126.25 419.54 132.66 418.41" stroke="#7189FF" stroke-miterlimit="10"/>
<path d="M133.36 436.33C124.82 424.79 115.82 413.6 106.36 402.76C105.72 402.04 104.66 403.1 105.29 403.83C114.623 414.557 123.547 425.643 132.06 437.09C132.62 437.86 133.93 437.09 133.35 436.33H133.36Z" fill="#7189FF"/>
<path d="M118.85 402.24L117.85 416.4L117.72 418.4L118.47 417.65L105.47 418.72C104.52 418.8 104.47 420.3 105.47 420.22L118.47 419.15C118.666 419.143 118.853 419.061 118.992 418.922C119.131 418.783 119.212 418.597 119.22 418.4L120.22 404.24L120.35 402.24C120.41 401.24 118.91 401.24 118.85 402.24Z" fill="#7189FF"/>
<path d="M106 336.74C95.15 327.89 92.55 300.58 108 292.29C127.12 282.03 147.14 297.9 149.66 314.22C151.6 326.81 142.8 335.6 165.71 344.83C188.62 354.06 185.08 365.52 180.37 387.43C175.66 409.34 191.15 401.31 203.18 419.81C212.72 434.47 199.32 449.42 193.34 455L146.48 454.77C144.958 453.884 143.507 452.881 142.14 451.77C127.01 439.4 133.02 419.85 134.59 404.63C136.29 388.17 112.59 395.53 103.19 374.4C93.79 353.27 116.82 345.58 106 336.74Z" stroke="#7189FF" stroke-miterlimit="10"/>
<path d="M185.1 454.3L179.43 441.8C174.763 431.553 170.097 421.307 165.43 411.06C159.43 398.013 153.41 384.973 147.37 371.94C141.49 359.33 135.59 346.73 129.56 334.18C125.33 325.37 121.11 316.53 116.47 307.92C116.12 307.26 115.76 306.6 115.39 305.92C114.92 305.08 113.63 305.83 114.1 306.68C118.52 314.59 122.42 322.81 126.37 330.97C132.27 343.18 138.04 355.46 143.78 367.76C149.893 380.92 155.967 394.087 162 407.26C166.947 418.047 171.88 428.84 176.8 439.64C178.36 443.093 179.923 446.537 181.49 449.97C182.22 451.57 182.84 453.31 183.7 454.85C183.7 454.91 183.76 454.99 183.79 455.06C184.19 455.94 185.48 455.17 185.09 454.3H185.1Z" fill="#7189FF"/>
<path d="M141.62 361.05L114.36 359.6L110.53 359.4C109.53 359.4 109.53 360.85 110.53 360.9L137.79 362.35L141.62 362.55C142.62 362.6 142.62 361.1 141.62 361.05Z" fill="#7189FF"/>
<path d="M173 428.94L142.43 425.64L138.04 425.17C137.04 425.07 137.09 426.57 138.04 426.67L168.61 429.97L173 430.44C174 430.54 173.95 429.04 173 428.94Z" fill="#7189FF"/>
<path d="M174.71 355.08L168.52 368.4L158.71 389.5L156.44 394.38C156.03 395.25 157.33 396.02 157.73 395.14L163.92 381.82L173.73 360.71L176 355.83C176.41 354.96 175.11 354.2 174.71 355.07V355.08Z" fill="#7189FF"/>
<path d="M140 335.36C141.52 337.5 144.17 338.31 145.91 337.17C147.65 336.03 147.84 333.38 146.32 331.24C144.8 329.1 142.15 328.24 140.41 329.42C138.67 330.6 138.46 333.22 140 335.36Z" stroke="#7189FF" stroke-miterlimit="10"/>
<path d="M130 322.2C129.982 322.627 130.092 323.049 130.316 323.412C130.54 323.776 130.868 324.064 131.257 324.24C131.646 324.416 132.079 324.471 132.5 324.399C132.92 324.327 133.31 324.131 133.618 323.835C133.927 323.54 134.14 323.159 134.23 322.742C134.32 322.324 134.283 321.89 134.124 321.493C133.965 321.097 133.691 320.757 133.338 320.518C132.984 320.279 132.567 320.15 132.14 320.15C131.865 320.143 131.591 320.191 131.334 320.291C131.077 320.39 130.843 320.54 130.644 320.73C130.445 320.921 130.286 321.149 130.175 321.401C130.065 321.653 130.005 321.925 130 322.2Z" stroke="#7189FF" stroke-miterlimit="10"/>
<path d="M137.42 315.09C137.39 315.804 137.574 316.51 137.949 317.118C138.324 317.726 138.872 318.208 139.523 318.502C140.174 318.796 140.898 318.889 141.602 318.768C142.306 318.648 142.958 318.319 143.474 317.825C143.989 317.331 144.346 316.694 144.496 315.995C144.647 315.297 144.586 314.57 144.32 313.907C144.054 313.244 143.595 312.676 143.004 312.275C142.412 311.875 141.714 311.661 141 311.66C140.071 311.641 139.172 311.992 138.501 312.635C137.83 313.278 137.441 314.161 137.42 315.09Z" stroke="#7189FF" stroke-miterlimit="10"/>
<path d="M114.45 375.05C114.418 375.879 114.635 376.698 115.072 377.403C115.509 378.108 116.147 378.666 116.904 379.005C117.661 379.345 118.502 379.45 119.319 379.308C120.136 379.166 120.892 378.783 121.49 378.209C122.088 377.634 122.501 376.893 122.675 376.082C122.848 375.271 122.776 374.427 122.466 373.657C122.157 372.888 121.624 372.228 120.937 371.764C120.25 371.299 119.44 371.05 118.61 371.05C118.074 371.038 117.541 371.132 117.041 371.327C116.541 371.522 116.085 371.813 115.699 372.185C115.312 372.557 115.003 373.001 114.788 373.493C114.574 373.984 114.459 374.514 114.45 375.05Z" stroke="#7189FF" stroke-miterlimit="10"/>
<path d="M212.45 454.85C213.393 454.296 214.292 453.671 215.14 452.98C224.49 445.34 220.77 433.26 219.8 423.85C218.75 413.68 233.38 418.22 239.21 405.17C245.04 392.12 230.77 387.36 237.48 381.9C244.19 376.44 245.79 359.55 236.24 354.43C224.42 348.09 212.05 357.9 210.49 367.98C209.29 375.76 214.73 381.2 200.57 386.9C195.71 388.9 192.77 390.98 191.13 393.47" stroke="#7189FF" stroke-miterlimit="10"/>
<path d="M204.81 421.89C212.55 405.07 220.25 388.22 228.49 371.65C229.85 368.9 231.23 366.16 232.72 363.48C233.19 362.64 231.89 361.88 231.42 362.73C228.31 368.3 225.59 374.11 222.82 379.86C218.693 388.453 214.633 397.076 210.64 405.73C208.253 410.856 205.877 415.99 203.51 421.13C203.11 422 204.41 422.77 204.81 421.89Z" fill="#7189FF"/>
<path d="M215.45 398.14L232.24 397.25L234.66 397.12C235.66 397.12 235.66 395.57 234.66 395.62L217.86 396.51L215.45 396.64C214.45 396.69 214.45 398.19 215.45 398.14Z" fill="#7189FF"/>
<path d="M205.07 439.12L216.07 437.93L217.65 437.76C218.65 437.66 218.65 436.16 217.65 436.26L206.65 437.45L205.07 437.62C204.12 437.72 204.07 439.22 205.07 439.12Z" fill="#7189FF"/>
<path d="M194 393.85L203.89 415.14L205.29 418.14C205.7 419.02 206.99 418.26 206.58 417.39L196.69 396.1L195.29 393.1C194.89 392.23 193.59 392.99 194 393.86V393.85Z" fill="#7189FF"/>
<path d="M222 365.75C221.643 366.363 221.068 366.819 220.39 367.028C219.712 367.238 218.981 367.185 218.34 366.88C217.26 366.17 217.15 364.53 218.09 363.21C218.447 362.597 219.022 362.141 219.7 361.932C220.378 361.722 221.109 361.775 221.75 362.08C222.79 362.79 222.91 364.43 222 365.75Z" stroke="#7189FF" stroke-miterlimit="10"/>
<path d="M232.24 405.58C232.262 406.093 232.13 406.6 231.861 407.037C231.593 407.473 231.199 407.82 230.732 408.031C230.265 408.243 229.745 408.31 229.239 408.223C228.734 408.137 228.266 407.901 227.895 407.547C227.525 407.192 227.269 406.735 227.16 406.233C227.052 405.732 227.096 405.21 227.287 404.734C227.478 404.258 227.807 403.85 228.231 403.562C228.656 403.275 229.157 403.121 229.67 403.12C230.337 403.107 230.981 403.358 231.463 403.819C231.945 404.28 232.224 404.914 232.24 405.58Z" stroke="#7189FF" stroke-miterlimit="10"/>
<path fill-rule="evenodd" clip-rule="evenodd" d="M405.52 282.14C406.63 282.724 407.658 283.45 408.58 284.3L411.84 283.13L414.91 287.98L412.46 290.43C412.843 291.625 413.062 292.866 413.11 294.12L416.24 295.6L415 301.2H411.54C410.958 302.308 410.232 303.333 409.38 304.25L410.54 307.52L405.7 310.59L403.24 308.14C402.049 308.523 400.811 308.742 399.56 308.79L398.07 311.92L392.48 310.66V307.2C391.37 306.616 390.342 305.89 389.42 305.04L386.16 306.2L383.09 301.36L385.53 298.9C385.155 297.707 384.939 296.47 384.89 295.22L381.76 293.73L383.02 288.14H386.48C387.064 287.03 387.79 286.002 388.64 285.08L387.47 281.82L392.32 278.75L394.77 281.19C395.966 280.815 397.207 280.599 398.46 280.55L399.94 277.42L405.54 278.68V282.14H405.52ZM400.59 288.73C399.403 288.463 398.164 288.554 397.029 288.991C395.894 289.428 394.914 290.192 394.213 291.187C393.513 292.181 393.122 293.36 393.092 294.576C393.062 295.792 393.392 296.99 394.043 298.018C394.693 299.046 395.634 299.858 396.745 300.351C397.857 300.845 399.09 300.997 400.289 300.79C401.487 300.582 402.598 300.024 403.479 299.186C404.36 298.347 404.973 297.267 405.24 296.08C405.419 295.292 405.44 294.476 405.303 293.68C405.166 292.884 404.873 292.122 404.441 291.44C404.009 290.757 403.446 290.166 402.785 289.701C402.125 289.236 401.379 288.906 400.59 288.73Z" stroke="#EC4E70" stroke-miterlimit="10"/>
<path d="M20.06 456.29H577.42C584.95 456.29 592.48 456.41 600.01 456.29H601.01C601.342 456.29 601.659 456.158 601.894 455.924C602.128 455.69 602.26 455.372 602.26 455.04C602.26 454.709 602.128 454.391 601.894 454.156C601.659 453.922 601.342 453.79 601.01 453.79H43.65C36.12 453.79 28.58 453.68 21.05 453.79H20.05C19.7185 453.79 19.4006 453.922 19.1662 454.156C18.9317 454.391 18.8 454.709 18.8 455.04C18.8 455.372 18.9317 455.69 19.1662 455.924C19.4006 456.158 19.7185 456.29 20.05 456.29H20.06Z" fill="#0F0D1D"/>
<path d="M120.52 150.5H341.48C347.29 150.5 352 155.21 352 161.02V167.98C352 173.79 347.29 178.5 341.48 178.5H120.52C114.71 178.5 110 173.79 110 167.98V161.02C110 155.21 114.71 150.5 120.52 150.5Z" fill="white" stroke="#F2718D"/>
<path d="M341.48 203H120.52C114.434 203 109.5 207.934 109.5 214.02V244.98C109.5 251.066 114.434 256 120.52 256H341.48C347.566 256 352.5 251.066 352.5 244.98V214.02C352.5 207.934 347.566 203 341.48 203Z" stroke="#F2718D" stroke-miterlimit="10"/>
<path fill-rule="evenodd" clip-rule="evenodd" d="M52.79 287.89C54.4676 288.767 56.0212 289.864 57.41 291.15L62.34 289.39L66.98 296.71L63.29 300.42C63.8653 302.225 64.2015 304.098 64.29 305.99L69.0201 308.24L67.12 316.69H61.8801C61.0097 318.369 59.9165 319.923 58.6301 321.31L60.39 326.24L53 330.89L49.28 327.2C47.4787 327.776 45.6093 328.112 43.72 328.2L41.47 332.92L33.0201 331.03V325.79C31.3407 324.92 29.7866 323.826 28.4 322.54L23.4601 324.3L18.8201 316.98L22.5201 313.26C21.944 311.459 21.6077 309.589 21.5201 307.7L16.79 305.45L18.69 297H24C24.8774 295.322 25.9736 293.769 27.26 292.38L25.5 287.44L32.8201 282.8L36.53 286.5C38.335 285.925 40.2077 285.589 42.1001 285.5L44.3501 280.77L52.8 282.67V287.9L52.79 287.89ZM45.34 297.84C43.5457 297.43 41.67 297.561 39.9505 298.218C38.2309 298.874 36.7448 300.026 35.6803 301.528C34.6159 303.029 34.021 304.813 33.9709 306.653C33.9208 308.493 34.4178 310.306 35.399 311.864C36.3802 313.421 37.8014 314.652 39.4827 315.401C41.164 316.15 43.0298 316.384 44.8438 316.072C46.6578 315.76 48.3384 314.916 49.6728 313.649C51.0073 312.381 51.9355 310.746 52.34 308.95C52.8782 306.549 52.4441 304.033 51.1324 301.951C49.8207 299.869 47.7382 298.391 45.34 297.84Z" stroke="#EC4E70" stroke-miterlimit="10"/>
<path d="M122.032 101.083V103.99H118.085V115.979H114.456V103.99H110.509V101.083H122.032ZM131.131 104.012C132.489 104.012 133.578 104.464 134.399 105.37C135.219 106.261 135.63 107.492 135.63 109.062V115.979H132.022V109.55C132.022 108.758 131.817 108.142 131.407 107.704C130.997 107.265 130.445 107.046 129.752 107.046C129.059 107.046 128.507 107.265 128.097 107.704C127.686 108.142 127.481 108.758 127.481 109.55V115.979H123.853V100.277H127.481V105.73C127.849 105.207 128.351 104.79 128.988 104.478C129.624 104.167 130.339 104.012 131.131 104.012ZM149.313 109.868C149.313 110.208 149.291 110.561 149.249 110.929H141.037C141.094 111.665 141.327 112.231 141.737 112.627C142.162 113.009 142.678 113.2 143.286 113.2C144.192 113.2 144.821 112.818 145.175 112.054H149.037C148.839 112.832 148.478 113.532 147.955 114.155C147.445 114.777 146.802 115.265 146.024 115.619C145.246 115.972 144.376 116.149 143.414 116.149C142.254 116.149 141.221 115.902 140.316 115.407C139.41 114.911 138.703 114.204 138.194 113.285C137.684 112.365 137.43 111.29 137.43 110.059C137.43 108.828 137.677 107.753 138.172 106.834C138.682 105.914 139.389 105.207 140.294 104.712C141.2 104.217 142.239 103.969 143.414 103.969C144.559 103.969 145.578 104.21 146.469 104.691C147.36 105.172 148.054 105.858 148.549 106.749C149.058 107.64 149.313 108.68 149.313 109.868ZM145.599 108.913C145.599 108.291 145.387 107.796 144.963 107.428C144.538 107.06 144.008 106.876 143.371 106.876C142.763 106.876 142.247 107.053 141.822 107.407C141.412 107.76 141.157 108.263 141.058 108.913H145.599ZM164.997 113.348H159.437L158.546 115.979H154.748L160.137 101.083H164.339L169.729 115.979H165.888L164.997 113.348ZM164.063 110.547L162.217 105.094L160.392 110.547H164.063ZM174.998 100.277V115.979H171.369V100.277H174.998ZM188.789 109.868C188.789 110.208 188.768 110.561 188.725 110.929H180.513C180.57 111.665 180.803 112.231 181.213 112.627C181.638 113.009 182.154 113.2 182.762 113.2C183.668 113.2 184.297 112.818 184.651 112.054H188.513C188.315 112.832 187.954 113.532 187.431 114.155C186.922 114.777 186.278 115.265 185.5 115.619C184.722 115.972 183.852 116.149 182.89 116.149C181.73 116.149 180.697 115.902 179.792 115.407C178.886 114.911 178.179 114.204 177.67 113.285C177.16 112.365 176.906 111.29 176.906 110.059C176.906 108.828 177.153 107.753 177.649 106.834C178.158 105.914 178.865 105.207 179.77 104.712C180.676 104.217 181.716 103.969 182.89 103.969C184.036 103.969 185.054 104.21 185.945 104.691C186.837 105.172 187.53 105.858 188.025 106.749C188.534 107.64 188.789 108.68 188.789 109.868ZM185.075 108.913C185.075 108.291 184.863 107.796 184.439 107.428C184.014 107.06 183.484 106.876 182.847 106.876C182.239 106.876 181.723 107.053 181.298 107.407C180.888 107.76 180.633 108.263 180.534 108.913H185.075ZM194.332 106.112C194.756 105.462 195.287 104.952 195.923 104.584C196.56 104.203 197.267 104.012 198.045 104.012V107.852H197.048C196.142 107.852 195.463 108.05 195.011 108.446C194.558 108.828 194.332 109.507 194.332 110.484V115.979H190.703V104.139H194.332V106.112ZM206.379 112.903V115.979H204.533C203.217 115.979 202.191 115.661 201.456 115.025C200.72 114.374 200.352 113.32 200.352 111.863V107.152H198.91V104.139H200.352V101.253H203.981V104.139H206.358V107.152H203.981V111.905C203.981 112.259 204.066 112.514 204.236 112.669C204.405 112.825 204.688 112.903 205.084 112.903H206.379ZM213.217 116.149C212.184 116.149 211.265 115.972 210.458 115.619C209.652 115.265 209.015 114.784 208.549 114.176C208.082 113.553 207.82 112.86 207.763 112.096H211.35C211.392 112.507 211.583 112.839 211.923 113.094C212.262 113.348 212.679 113.476 213.174 113.476C213.627 113.476 213.974 113.391 214.214 113.221C214.469 113.037 214.596 112.804 214.596 112.521C214.596 112.181 214.419 111.934 214.066 111.778C213.712 111.608 213.139 111.424 212.347 111.226C211.498 111.028 210.791 110.823 210.225 110.611C209.659 110.385 209.171 110.038 208.761 109.571C208.351 109.09 208.145 108.446 208.145 107.64C208.145 106.961 208.329 106.346 208.697 105.794C209.079 105.228 209.631 104.783 210.352 104.457C211.088 104.132 211.958 103.969 212.962 103.969C214.448 103.969 215.615 104.337 216.464 105.073C217.326 105.808 217.822 106.784 217.949 108.001H214.596C214.54 107.591 214.356 107.265 214.044 107.025C213.747 106.784 213.351 106.664 212.856 106.664C212.432 106.664 212.106 106.749 211.88 106.919C211.654 107.074 211.541 107.294 211.541 107.576C211.541 107.916 211.717 108.171 212.071 108.34C212.439 108.51 213.005 108.68 213.769 108.85C214.646 109.076 215.36 109.302 215.912 109.529C216.464 109.741 216.945 110.095 217.355 110.59C217.779 111.071 217.998 111.721 218.013 112.542C218.013 113.235 217.815 113.858 217.418 114.409C217.036 114.947 216.478 115.371 215.742 115.682C215.021 115.994 214.179 116.149 213.217 116.149Z" fill="#29333D"/>
<path d="M81.5 74C81.5 67.6487 86.6487 62.5 93 62.5H368C374.351 62.5 379.5 67.6487 379.5 74V86.5H81.5V74Z" fill="white" stroke="#E54985"/>
<path fill-rule="evenodd" clip-rule="evenodd" d="M118.91 38.9098C120.124 39.5394 121.247 40.3298 122.25 41.2598L125.81 39.9898L129.16 45.2798L126.49 47.9598C126.903 49.2554 127.138 50.601 127.19 51.9598L130.61 53.5798L129.24 59.6898H125.46C124.824 60.8969 124.034 62.0163 123.11 63.0198L124.38 66.5898L119.09 69.9398L116.41 67.2698C115.112 67.6731 113.768 67.9084 112.41 67.9698L110.79 71.3798L104.68 70.0098V66.2298C103.469 65.6 102.349 64.8095 101.35 63.8798L97.78 65.1498L94.43 59.8598L97.1 57.1798C96.6903 55.8834 96.4549 54.5382 96.4 53.1798L93 51.5698L94.37 45.4598H98.15C98.7761 44.2437 99.5669 43.1198 100.5 42.1198L99.23 38.5598L104.51 35.2098L107.2 37.8798C108.495 37.4654 109.841 37.2298 111.2 37.1798L112.82 33.7598L118.92 35.1298V38.9098H118.91ZM113.53 46.0998C112.234 45.8087 110.882 45.9086 109.643 46.3868C108.404 46.865 107.335 47.7 106.571 48.7861C105.807 49.8722 105.382 51.1606 105.351 52.4881C105.32 53.8156 105.683 55.1226 106.395 56.2435C107.107 57.3645 108.135 58.2491 109.35 58.7853C110.565 59.3214 111.911 59.4851 113.219 59.2556C114.527 59.0261 115.737 58.4136 116.697 57.4958C117.657 56.578 118.322 55.3961 118.61 54.0998C118.995 52.3655 118.676 50.5493 117.724 49.0497C116.771 47.55 115.263 46.4892 113.53 46.0998Z" fill="#F2718D"/>
<g clip-path="url(#clip1_1_5958)">
<path d="M488.331 439.772C478.375 441.528 473.149 440.5 446.787 440.5C421.667 440.5 403.646 437.441 398.099 436.058C392.552 434.675 385.671 433.329 385.671 433.329C385.671 433.329 404.965 423.042 426.618 422.779C448.271 422.516 483.919 432.903 484.711 433.255C485.504 433.607 488.331 439.772 488.331 439.772Z" fill="#DFDEDE"/>
<mask id="mask0_1_5958" style="mask-type:luminance" maskUnits="userSpaceOnUse" x="385" y="422" width="104" height="19">
<path d="M488.331 439.772C478.375 441.528 473.149 440.5 446.787 440.5C421.667 440.5 403.646 437.441 398.099 436.058C392.552 434.675 385.671 433.329 385.671 433.329C385.671 433.329 404.965 423.042 426.618 422.779C448.271 422.516 483.919 432.903 484.711 433.255C485.504 433.607 488.331 439.772 488.331 439.772Z" fill="white"/>
</mask>
<g mask="url(#mask0_1_5958)">
<path d="M467.326 214.375C465.426 195.151 469.131 171.442 469.734 167.774C472.99 167.137 490.54 162.878 488.594 145.652C487.962 140.09 487.622 134.499 487.575 128.901C487.505 124.663 487.471 122.54 486.382 121.337C484.026 118.743 480.856 117.36 474.991 114.937C460.748 109.059 451.126 104.87 449.314 104.069L447.038 94.9267C447.009 94.8065 446.949 94.6961 446.864 94.6067C446.778 94.5172 446.671 94.452 446.552 94.4175C446.433 94.383 446.308 94.3805 446.188 94.4103C446.068 94.4401 445.958 94.5011 445.869 94.587C445.78 94.6697 436.966 102.946 424.207 102.946C417.05 102.946 416.374 100.859 416.371 100.859C416.349 100.69 416.266 100.535 416.137 100.422C416.009 100.309 415.844 100.247 415.673 100.247C415.503 100.247 415.339 100.31 415.211 100.422C415.083 100.535 415.001 100.69 414.979 100.859L413.997 107.734C410.747 108.876 390.401 116.118 387.295 119.713C387.232 119.785 387.185 119.87 387.156 119.962C387.127 120.053 387.117 120.15 387.127 120.245C387.158 120.551 390.223 149.875 390.698 158.797C391.184 167.927 391.31 191.339 390.936 204.342C390.71 212.2 385.028 432.493 384.97 434.718C384.966 434.865 385.008 435.009 385.09 435.131C385.172 435.253 385.29 435.346 385.428 435.397C385.565 435.448 385.716 435.455 385.857 435.417C385.999 435.378 386.125 435.297 386.218 435.183C386.362 435.06 389.22 432.934 405.913 436.587C409.98 437.478 413.373 438.423 416.653 439.31C423.503 441.195 429.197 442.762 437.152 442.762C442.418 442.762 448.663 442.073 456.875 440.314C482.147 434.944 487.725 441.538 487.777 441.587C487.869 441.71 487.999 441.799 488.146 441.841C488.294 441.883 488.451 441.876 488.594 441.821C488.737 441.765 488.859 441.665 488.939 441.534C489.02 441.403 489.055 441.25 489.041 441.097C488.836 439.05 469.395 235.278 467.326 214.375Z" fill="#C2C2C1"/>
</g>
<path d="M488.331 439.772C478.375 441.528 473.149 440.5 446.787 440.5C421.667 440.5 403.646 437.441 398.099 436.058C392.552 434.675 385.671 433.329 385.671 433.329C385.671 433.329 404.965 423.042 426.618 422.779C448.271 422.516 483.919 432.903 484.711 433.255C485.504 433.607 488.331 439.772 488.331 439.772Z" stroke="#302D30" stroke-linecap="round" stroke-linejoin="round"/>
<path d="M414.547 440.093C414.547 440.093 414.817 443.404 414.746 444.331C414.676 445.258 405.188 446.167 405.188 446.167L404.998 443.413C404.998 443.413 401.29 444.817 398.371 447.112C392.582 451.674 391.64 453.418 380.203 453.418C368.766 453.418 367.175 450.548 367.258 448.725L367.625 446.971L411.313 439.206L414.547 440.072" fill="#423940"/>
<path d="M414.547 440.093C414.547 440.093 414.817 443.404 414.746 444.331C414.676 445.258 405.188 446.167 405.188 446.167L404.998 443.413C404.998 443.413 401.29 444.817 398.371 447.112C392.582 451.674 391.64 453.418 380.203 453.418C368.766 453.418 367.175 450.548 367.258 448.725L367.625 446.971L411.313 439.206L414.547 440.072" stroke="#302D30" stroke-linecap="round" stroke-linejoin="round"/>
<path d="M482.123 451.901C481.863 455.899 476.643 459.391 468.984 460.746C463.67 461.688 456.559 455.814 456.648 452.944V450.677L482.123 449.633V451.901Z" fill="#423940" stroke="#302D30" stroke-linecap="round" stroke-linejoin="round"/>
<path d="M414.554 432.775C414.554 432.775 414.554 435.758 414.554 439.662C414.554 442.174 404.68 440.739 398.374 444.557C392.068 448.376 391.643 450.863 380.206 450.863C368.769 450.863 366.771 448.024 367.845 446.543C369.158 444.732 372.367 443.055 377.596 440.65C382.825 438.245 385.597 435.097 389.835 430.618L414.554 432.775ZM476.817 436.477C476.383 433.172 469.389 430.826 469.389 430.826L459.644 433.683C459.644 437.254 459.95 440.216 459.644 442.302C459.338 444.389 456.734 447.256 456.648 450.126C456.563 452.996 463.667 458.858 468.985 457.931C476.588 456.606 481.863 453.082 482.123 449.083C482.383 445.084 477.255 439.781 476.817 436.477Z" fill="#5E595E"/>
<mask id="mask1_1_5958" style="mask-type:luminance" maskUnits="userSpaceOnUse" x="367" y="430" width="116" height="29">
<path d="M414.554 432.775C414.554 432.775 414.554 435.758 414.554 439.662C414.554 442.174 404.68 440.739 398.374 444.557C392.068 448.376 391.643 450.863 380.206 450.863C368.769 450.863 366.771 448.024 367.845 446.543C369.158 444.732 372.367 443.055 377.596 440.65C382.825 438.245 385.597 435.097 389.835 430.618L414.554 432.775ZM476.817 436.477C476.383 433.172 469.389 430.826 469.389 430.826L459.644 433.683C459.644 437.254 459.95 440.216 459.644 442.302C459.338 444.389 456.734 447.256 456.648 450.126C456.563 452.996 463.667 458.858 468.985 457.931C476.588 456.606 481.863 453.082 482.123 449.083C482.383 445.084 477.255 439.781 476.817 436.477Z" fill="white"/>
</mask>
<g mask="url(#mask1_1_5958)">
<path d="M467.326 214.375C465.426 195.151 469.131 171.442 469.734 167.774C472.99 167.137 490.54 162.878 488.594 145.652C487.962 140.09 487.622 134.499 487.575 128.901C487.505 124.663 487.471 122.54 486.382 121.337C484.026 118.743 480.856 117.36 474.991 114.937C460.748 109.059 451.126 104.87 449.314 104.069L447.038 94.9267C447.009 94.8065 446.949 94.6961 446.864 94.6067C446.778 94.5172 446.671 94.452 446.552 94.4175C446.433 94.383 446.308 94.3805 446.188 94.4103C446.068 94.4401 445.958 94.5011 445.869 94.587C445.78 94.6697 436.966 102.946 424.207 102.946C417.05 102.946 416.374 100.859 416.371 100.859C416.349 100.69 416.266 100.535 416.137 100.422C416.009 100.309 415.844 100.247 415.673 100.247C415.503 100.247 415.339 100.31 415.211 100.422C415.083 100.535 415.001 100.69 414.979 100.859L413.997 107.734C410.747 108.876 390.401 116.118 387.295 119.713C387.232 119.785 387.185 119.87 387.156 119.962C387.127 120.053 387.117 120.15 387.127 120.245C387.158 120.551 390.223 149.875 390.698 158.797C391.184 167.927 391.31 191.339 390.936 204.342C390.71 212.2 385.028 432.493 384.97 434.718C384.966 434.865 385.008 435.009 385.09 435.131C385.172 435.253 385.29 435.346 385.428 435.397C385.565 435.448 385.716 435.455 385.857 435.417C385.999 435.378 386.125 435.297 386.218 435.183C386.362 435.06 389.22 432.934 405.913 436.587C409.98 437.478 413.373 438.423 416.653 439.31C423.503 441.195 429.197 442.762 437.152 442.762C442.418 442.762 448.663 442.073 456.875 440.314C482.147 434.944 487.725 441.538 487.777 441.587C487.869 441.71 487.999 441.799 488.146 441.841C488.294 441.883 488.451 441.876 488.594 441.821C488.737 441.765 488.859 441.665 488.939 441.534C489.02 441.403 489.055 441.25 489.041 441.097C488.836 439.05 469.395 235.278 467.326 214.375Z" fill="#4A454A"/>
</g>
<path d="M414.554 432.775C414.554 432.775 414.554 435.758 414.554 439.662C414.554 442.174 404.68 440.739 398.374 444.557C392.068 448.376 391.643 450.863 380.206 450.863C368.769 450.863 366.771 448.024 367.845 446.543C369.158 444.732 372.367 443.055 377.596 440.65C382.825 438.245 385.597 435.097 389.835 430.618L414.554 432.775ZM476.817 436.477C476.383 433.172 469.389 430.826 469.389 430.826L459.644 433.683C459.644 437.254 459.95 440.216 459.644 442.302C459.338 444.389 456.734 447.256 456.648 450.126C456.563 452.996 463.667 458.858 468.985 457.931C476.588 456.606 481.863 453.082 482.123 449.083C482.383 445.084 477.255 439.781 476.817 436.477Z" stroke="#302D30" stroke-linecap="round" stroke-linejoin="round"/>
<path d="M391.548 443.223C390.483 441.21 387.938 438.866 389.676 435.935C390.879 434.012 392.385 432.295 394.134 430.85" stroke="#302D30" stroke-linecap="round" stroke-linejoin="round"/>
<path d="M382.271 437.882C385.178 437.01 386.121 436.526 387.473 435.195C388.825 433.864 391.836 430.713 391.836 430.713" stroke="#302D30" stroke-linecap="round" stroke-linejoin="round"/>
<path d="M390.845 436.93C390.845 436.93 389.648 435.614 385.968 435.183" stroke="#302D30" stroke-linecap="round" stroke-linejoin="round"/>
<path d="M392.604 434.093C389.403 432.564 388.244 432.717 388.244 432.717" stroke="#302D30" stroke-linecap="round" stroke-linejoin="round"/>
<path d="M381.286 444.252C380.437 443.393 379.4 442.744 378.256 442.357C377.113 441.97 375.895 441.855 374.699 442.021" stroke="#302D30" stroke-linecap="round" stroke-linejoin="round"/>
<path d="M461.752 450.505C463.505 448.538 469.958 448.107 474.296 449.872" stroke="#302D30" stroke-linecap="round" stroke-linejoin="round"/>
<path d="M458.747 444.582C463.786 441.728 466.476 436.346 466.142 431.563" stroke="#302D30" stroke-linecap="round" stroke-linejoin="round"/>
<path d="M477.288 443.967C471.87 440.06 469.398 437.866 469.492 432.157" stroke="#302D30" stroke-linecap="round" stroke-linejoin="round"/>
<path d="M473.124 438.025C469.606 435.883 464.557 436.189 462.911 438.025" stroke="#302D30" stroke-linecap="round" stroke-linejoin="round"/>
<path d="M473.124 434.681C469.606 432.539 464.557 432.845 462.911 434.681" stroke="#302D30" stroke-linecap="round" stroke-linejoin="round"/>
<path d="M417.148 109.194C414.046 107.912 412.213 107.664 410.512 101.471C408.676 94.7643 406.697 85.9433 405.546 78.8297C404.166 70.2872 402.829 66.2117 402.829 63.3602C402.829 59.9089 408.863 53.5234 413.584 53.5693C418.305 53.6152 447.601 50.0171 449.357 60.374C451.113 70.7308 462.728 102.435 461.739 107.566C460.751 112.697 417.148 109.194 417.148 109.194Z" fill="#DFDEDE"/>
<mask id="mask2_1_5958" style="mask-type:luminance" maskUnits="userSpaceOnUse" x="402" y="53" width="60" height="58">
<path d="M417.148 109.194C414.046 107.912 412.213 107.664 410.512 101.471C408.676 94.7643 406.697 85.9433 405.546 78.8297C404.166 70.2872 402.829 66.2117 402.829 63.3602C402.829 59.9089 408.863 53.5234 413.584 53.5693C418.305 53.6152 447.601 50.0171 449.357 60.374C451.113 70.7308 462.728 102.435 461.739 107.566C460.751 112.697 417.148 109.194 417.148 109.194Z" fill="white"/>
</mask>
<g mask="url(#mask2_1_5958)">
<path d="M402.817 66.5756C405.938 63.0815 408.076 67.4751 407.874 69.776C407.672 72.0768 407.223 79.8911 408.324 83.2139C409.426 86.5367 411.28 91.9737 411.139 95.0516C410.998 98.1296 407.382 104.775 410.751 108.251C414.119 111.727 446.906 112.923 451.643 109.273C456.379 105.623 450.52 101.523 448.714 97.2607C446.909 92.9986 445.881 87.7116 446.591 85.579C447.301 83.4464 448.17 86.8426 449.828 91.8145C451.486 96.7865 453.142 104.665 456.14 108.23C459.139 111.794 466.237 121.166 464.744 103.178C463.251 85.1904 457.639 64.3513 452.827 58.59C448.014 52.8287 439.71 52.5686 430.721 48.6737C421.732 44.7787 400.348 47.1439 398.61 53.0245C396.872 58.9051 402.817 66.5756 402.817 66.5756Z" fill="#C2C2C1"/>
</g>
<path d="M417.148 109.194C414.046 107.912 412.213 107.664 410.512 101.471C408.676 94.7643 406.697 85.9433 405.546 78.8297C404.166 70.2872 402.829 66.2117 402.829 63.3602C402.829 59.9089 408.863 53.5234 413.584 53.5693C418.305 53.6152 447.601 50.0171 449.357 60.374C451.113 70.7308 462.728 102.435 461.739 107.566C460.751 112.697 417.148 109.194 417.148 109.194Z" stroke="#302D30" stroke-linecap="round" stroke-linejoin="round"/>
<path d="M415.906 98.7147C416.31 100.942 415.906 104.926 415.906 104.926C415.906 104.926 434.937 105.128 439.465 103.913C443.993 102.698 446.937 98.6779 446.062 94.4924C445.378 91.0486 444.895 87.568 444.615 84.0682C444.48 82.3823 444.495 76.1743 444.495 76.1743C444.495 76.1743 442.081 86.3782 434.631 90.5546C427.181 94.731 415.906 98.7147 415.906 98.7147Z" fill="#E49E5F" stroke="#302D30" stroke-linecap="round" stroke-linejoin="round"/>
<path d="M403.429 87.4978C402.361 89.5845 401.826 90.6523 401.397 91.2703C400.969 91.8884 401.18 92.3014 401.544 93.4916C401.908 94.6818 402.753 96.383 404.537 95.8567C406.32 95.3305 405.378 96.386 406.957 95.2203C408.535 94.0546 409.582 93.819 410.628 94.535C411.675 95.2509 411.427 96.282 409.71 97.8485C407.804 99.4912 405.756 100.962 403.591 102.245C402.159 103.056 401.896 104.13 400.421 104.895C398.947 105.66 398.558 105.146 396.9 106.036C395.241 106.926 391.603 112.587 389.186 118.336C386.769 124.085 380.488 139.634 379.037 143.608C377.587 147.583 373.53 154.541 373.53 154.541C373.53 154.541 356.038 142.302 358.103 138.86C360.169 135.418 367.809 127.845 370.14 124.587C372.472 121.328 379.013 112.822 381.201 109.689C383.388 106.556 387.354 99.3692 388.238 97.2733C389.122 95.1775 390.777 90.6706 391.215 88.5136C391.652 86.3565 392.099 85.2 393.115 84.6462C394.131 84.0924 396.049 83.4836 397.808 82.3239C399.568 81.1643 400.801 79.5703 401.636 78.9767C402.471 78.3831 403.016 78.3005 403.42 78.4076C404.423 76.8594 406.553 74.1761 407.553 74.0752C408.554 73.9742 408.973 76.1588 408.471 77.2725C407.969 78.3862 406.385 81.3143 406.023 82.4739C405.662 83.6335 403.429 87.4978 403.429 87.4978Z" fill="#F5B87E"/>
<mask id="mask3_1_5958" style="mask-type:luminance" maskUnits="userSpaceOnUse" x="357" y="74" width="55" height="81">
<path d="M403.429 87.4978C402.361 89.5845 401.826 90.6523 401.397 91.2703C400.969 91.8884 401.18 92.3014 401.544 93.4916C401.908 94.6818 402.753 96.383 404.537 95.8567C406.32 95.3305 405.378 96.386 406.957 95.2203C408.535 94.0546 409.582 93.819 410.628 94.535C411.675 95.2509 411.427 96.282 409.71 97.8485C407.804 99.4912 405.756 100.962 403.591 102.245C402.159 103.056 401.896 104.13 400.421 104.895C398.947 105.66 398.558 105.146 396.9 106.036C395.241 106.926 391.603 112.587 389.186 118.336C386.769 124.085 380.488 139.634 379.037 143.608C377.587 147.583 373.53 154.541 373.53 154.541C373.53 154.541 356.038 142.302 358.103 138.86C360.169 135.418 367.809 127.845 370.14 124.587C372.472 121.328 379.013 112.822 381.201 109.689C383.388 106.556 387.354 99.3692 388.238 97.2733C389.122 95.1775 390.777 90.6706 391.215 88.5136C391.652 86.3565 392.099 85.2 393.115 84.6462C394.131 84.0924 396.049 83.4836 397.808 82.3239C399.568 81.1643 400.801 79.5703 401.636 78.9767C402.471 78.3831 403.016 78.3005 403.42 78.4076C404.423 76.8594 406.553 74.1761 407.553 74.0752C408.554 73.9742 408.973 76.1588 408.471 77.2725C407.969 78.3862 406.385 81.3143 406.023 82.4739C405.662 83.6335 403.429 87.4978 403.429 87.4978Z" fill="white"/>
</mask>
<g mask="url(#mask3_1_5958)">
<path d="M400.96 76.4649C403.866 73.2584 412.718 71.7439 412.804 75.1339C412.889 78.524 407.55 86.8676 409.316 90.2088C411.081 93.5499 407.657 95.9578 406.883 99.4703C406.109 102.983 403.879 105.415 401.74 103.169C400.238 101.591 399.782 99.8741 400.238 96.0802C400.693 92.2862 395.168 92.1027 396.006 88.2169C396.845 84.3312 396.783 80.8738 397.995 79.6499C399.207 78.4261 400.96 76.4649 400.96 76.4649Z" fill="#E49E5F"/>
</g>
<path d="M403.429 87.4978C402.361 89.5845 401.826 90.6523 401.397 91.2703C400.969 91.8884 401.18 92.3014 401.544 93.4916C401.908 94.6818 402.753 96.383 404.537 95.8567C406.32 95.3305 405.378 96.386 406.957 95.2203C408.535 94.0546 409.582 93.819 410.628 94.535C411.675 95.2509 411.427 96.282 409.71 97.8485C407.804 99.4912 405.756 100.962 403.591 102.245C402.159 103.056 401.896 104.13 400.421 104.895C398.947 105.66 398.558 105.146 396.9 106.036C395.241 106.926 391.603 112.587 389.186 118.336C386.769 124.085 380.488 139.634 379.037 143.608C377.587 147.583 373.53 154.541 373.53 154.541C373.53 154.541 356.038 142.302 358.103 138.86C360.169 135.418 367.809 127.845 370.14 124.587C372.472 121.328 379.013 112.822 381.201 109.689C383.388 106.556 387.354 99.3692 388.238 97.2733C389.122 95.1775 390.777 90.6706 391.215 88.5136C391.652 86.3565 392.099 85.2 393.115 84.6462C394.131 84.0924 396.049 83.4836 397.808 82.3239C399.568 81.1643 400.801 79.5703 401.636 78.9767C402.471 78.3831 403.016 78.3005 403.42 78.4076C404.423 76.8594 406.553 74.1761 407.553 74.0752C408.554 73.9742 408.973 76.1588 408.471 77.2725C407.969 78.3862 406.385 81.3143 406.023 82.4739C405.662 83.6335 403.429 87.4978 403.429 87.4978Z" stroke="#302D30" stroke-linecap="round" stroke-linejoin="round"/>
<path d="M409.515 73.8213L402.936 86.7758C402.736 87.177 402.632 87.6188 402.63 88.067L402.477 101.223C402.475 101.493 402.577 101.752 402.763 101.947C402.949 102.142 403.203 102.256 403.472 102.267C403.681 102.274 403.887 102.218 404.064 102.105C404.24 101.993 404.378 101.829 404.46 101.636L412.14 83.4286L409.515 73.8213Z" fill="#5E595E"/>
<mask id="mask4_1_5958" style="mask-type:luminance" maskUnits="userSpaceOnUse" x="402" y="73" width="11" height="30">
<path d="M409.515 73.8213L402.936 86.7758C402.736 87.177 402.632 87.6188 402.63 88.067L402.477 101.223C402.475 101.493 402.577 101.752 402.763 101.947C402.949 102.142 403.203 102.256 403.472 102.267C403.681 102.274 403.887 102.218 404.064 102.105C404.24 101.993 404.378 101.829 404.46 101.636L412.14 83.4286L409.515 73.8213Z" fill="white"/>
</mask>
<g mask="url(#mask4_1_5958)">
<path d="M411.335 89.0002C409.316 89.1777 409.043 89.3766 408.15 90.729C407.257 92.0813 405.5 91.4786 404.714 91.6621C403.928 91.8457 401.584 92.2588 401.394 91.2644C401.205 90.27 402.422 85.3593 404.172 84.3313C405.923 83.3032 409.42 82.3058 411.335 82.4434C413.25 82.5811 414.058 82.4618 413.477 84.9432C413.111 86.4525 412.375 87.8468 411.335 89.0002Z" fill="#4A454A"/>
</g>
<path d="M409.515 73.8213L402.936 86.7758C402.736 87.177 402.632 87.6188 402.63 88.067L402.477 101.223C402.475 101.493 402.577 101.752 402.763 101.947C402.949 102.142 403.203 102.256 403.472 102.267C403.681 102.274 403.887 102.218 404.064 102.105C404.24 101.993 404.378 101.829 404.46 101.636L412.14 83.4286L409.515 73.8213Z" stroke="#302D30" stroke-linecap="round" stroke-linejoin="round"/>
<path d="M412.127 83.4438L410.123 76.064L404.347 87.4428L404.175 102.028C404.294 101.925 404.388 101.796 404.451 101.652L412.127 83.4438Z" fill="#96C8EB"/>
<mask id="mask5_1_5958" style="mask-type:luminance" maskUnits="userSpaceOnUse" x="404" y="76" width="9" height="27">
<path d="M412.127 83.4438L410.123 76.064L404.347 87.4428L404.175 102.028C404.294 101.925 404.388 101.796 404.451 101.652L412.127 83.4438Z" fill="white"/>
</mask>
<g mask="url(#mask5_1_5958)">
<path d="M411.335 89.0002C409.316 89.1777 409.043 89.3766 408.15 90.729C407.257 92.0813 405.5 91.4786 404.714 91.6621C403.928 91.8457 401.584 92.2588 401.394 91.2644C401.205 90.27 402.422 85.3593 404.172 84.3313C405.923 83.3032 409.42 82.3058 411.335 82.4434C413.25 82.5811 414.058 82.4618 413.477 84.9432C413.111 86.4525 412.375 87.8468 411.335 89.0002Z" fill="#70B0DF"/>
</g>
<path d="M412.127 83.4438L410.123 76.064L404.347 87.4428L404.175 102.028C404.294 101.925 404.388 101.796 404.451 101.652L412.127 83.4438Z" stroke="#302D30" stroke-linecap="round" stroke-linejoin="round"/>
<path d="M396.811 101.324C397.512 99.721 397.153 98.3167 397.019 96.3768C396.884 94.437 396.792 92.1637 397.521 89.7803C398.156 88.8183 398.66 87.776 399.02 86.6808C399.666 86.4582 400.243 86.0687 400.69 85.5518C400.978 86.072 402.398 86.2219 402.398 86.2219C402.833 86.9756 403.214 87.7599 403.536 88.5686C404.032 89.8414 405.626 89.8965 406.085 89.4039C406.813 89.872 407.599 89.6609 407.666 88.792C407.734 87.923 407.783 85.4723 407.783 85.4723C407.783 85.4723 409.23 85.7599 409.781 85.5427C410.331 85.3254 410.249 84.7777 409.857 83.4009C409.465 82.0241 409.019 80.4728 408.41 80.1271C406.947 79.2949 403.429 78.4045 403.429 78.4045L403.208 78.3709C402.829 78.3403 402.34 78.4718 401.645 78.9828C400.81 79.5947 399.58 81.1704 397.818 82.33C396.055 83.4896 394.146 84.1016 393.124 84.6523C392.102 85.203 391.661 86.3657 391.224 88.5197C390.786 90.6737 389.134 95.1866 388.247 97.2794C388.097 97.6374 387.855 98.1453 387.549 98.7511" fill="#F5B87E"/>
<mask id="mask6_1_5958" style="mask-type:luminance" maskUnits="userSpaceOnUse" x="387" y="78" width="24" height="24">
<path d="M396.811 101.324C397.512 99.721 397.153 98.3167 397.019 96.3768C396.884 94.437 396.792 92.1637 397.521 89.7803C398.156 88.8183 398.66 87.776 399.02 86.6808C399.666 86.4582 400.243 86.0687 400.69 85.5518C400.978 86.072 402.398 86.2219 402.398 86.2219C402.833 86.9756 403.214 87.7599 403.536 88.5686C404.032 89.8414 405.626 89.8965 406.085 89.4039C406.813 89.872 407.599 89.6609 407.666 88.792C407.734 87.923 407.783 85.4723 407.783 85.4723C407.783 85.4723 409.23 85.7599 409.781 85.5427C410.331 85.3254 410.249 84.7777 409.857 83.4009C409.465 82.0241 409.019 80.4728 408.41 80.1271C406.947 79.2949 403.429 78.4045 403.429 78.4045L403.208 78.3709C402.829 78.3403 402.34 78.4718 401.645 78.9828C400.81 79.5947 399.58 81.1704 397.818 82.33C396.055 83.4896 394.146 84.1016 393.124 84.6523C392.102 85.203 391.661 86.3657 391.224 88.5197C390.786 90.6737 389.134 95.1866 388.247 97.2794C388.097 97.6374 387.855 98.1453 387.549 98.7511" fill="white"/>
</mask>
<g mask="url(#mask6_1_5958)">
<path d="M409.668 82.9451C409.362 84.0344 407.679 82.4373 406.773 81.6907C405.867 80.9442 406.195 82.0609 406.195 82.0609C406.195 82.0609 407.189 84.94 406.195 85.3929C405.2 85.8457 405.411 84.8115 405.411 84.8115C405.411 84.8115 405.207 87.2592 404.188 86.1853C403.169 85.1114 400.128 84.221 398.374 85.2154C396.621 86.2098 395.927 87.9691 396.067 89.8446C396.208 91.7202 396.838 97.6283 397.291 98.3382C397.744 99.048 407.755 95.5294 409.75 92.8308C411.745 90.1322 412.259 89.5326 412.134 87.4459C412.008 85.3592 409.686 82.936 409.686 82.936" fill="#E49E5F"/>
</g>
<path d="M396.811 101.324C397.512 99.721 397.153 98.3166 397.019 96.3768C396.884 94.437 396.792 92.1637 397.521 89.7803C398.156 88.8183 398.66 87.776 399.02 86.6808C399.666 86.4582 400.243 86.0687 400.69 85.5518C400.978 86.072 402.398 86.2219 402.398 86.2219C402.833 86.9756 403.214 87.7599 403.536 88.5686C404.032 89.8414 405.626 89.8965 406.085 89.4039C406.813 89.872 407.599 89.6609 407.666 88.792C407.734 87.923 407.783 85.4723 407.783 85.4723C407.783 85.4723 409.23 85.7599 409.781 85.5427C410.331 85.3254 410.249 84.7777 409.857 83.4009C409.465 82.0241 409.019 80.4728 408.41 80.1271C406.947 79.2949 403.429 78.4045 403.429 78.4045L403.208 78.3709C402.829 78.3403 402.34 78.4718 401.645 78.9828C400.81 79.5947 399.58 81.1704 397.818 82.33C396.055 83.4896 394.146 84.1016 393.124 84.6523C392.102 85.203 391.661 86.3657 391.224 88.5197C390.786 90.6737 389.134 95.1866 388.247 97.2794C388.097 97.6374 387.855 98.1453 387.549 98.7511" stroke="#302D30" stroke-linecap="round" stroke-linejoin="round"/>
<path d="M407.783 85.4632C407.758 84.5648 407.469 83.6934 406.954 82.9574C406.648 82.4556 406.072 82.0089 404.919 81.0206C403.765 80.0324 403.046 79.2919 401.807 79.8243C400.917 80.2285 400.057 80.6968 399.234 81.2256" stroke="#302D30" stroke-linecap="round" stroke-linejoin="round"/>
<path d="M406.085 89.404C406.391 88.5688 405.999 86.9563 405.763 86.0017C405.528 85.0471 405.577 84.5025 403.989 83.3949C402.401 82.2873 401.321 81.0971 400.121 81.4949C398.922 81.8926 397.285 82.6514 397.285 82.6514" stroke="#302D30" stroke-linecap="round" stroke-linejoin="round"/>
<path d="M400.406 86.1946C400.152 86.0794 399.933 85.8968 399.775 85.6665C399.617 85.4362 399.525 85.167 399.509 84.8881C399.509 84.6862 399.592 84.1355 399.929 84.2946C400.433 84.5149 400.574 84.7352 400.975 84.9065L401.125 85.0411C401.244 85.1502 401.321 85.2974 401.342 85.4572C401.364 85.617 401.329 85.7793 401.244 85.9162C401.159 86.053 401.028 86.1558 400.875 86.2066C400.722 86.2574 400.556 86.2532 400.406 86.1946Z" fill="#302D30"/>
<path d="M398.916 87.3752C398.364 87.2747 397.848 87.0334 397.417 86.6746C396.986 86.3852 396.636 85.9902 396.401 85.5272C396.389 85.4998 396.384 85.4698 396.387 85.4401C396.39 85.4103 396.4 85.3818 396.417 85.3571C396.434 85.3323 396.457 85.3123 396.483 85.2987C396.51 85.2851 396.539 85.2785 396.569 85.2794C397.527 85.3436 398.292 85.8148 399.164 85.9923C399.338 86.0343 399.49 86.1414 399.588 86.2916C399.686 86.4419 399.723 86.6239 399.692 86.8006C399.66 86.9772 399.562 87.1351 399.418 87.2419C399.274 87.3487 399.094 87.3964 398.916 87.3752Z" fill="#302D30"/>
<path d="M397.264 90.438C396.194 89.9246 395.232 89.2111 394.43 88.336C394.176 87.8496 395.312 88.1188 395.48 88.1616C396.289 88.4247 397.075 88.7553 397.83 89.1499C397.996 89.228 398.125 89.3678 398.189 89.5397C398.254 89.7116 398.249 89.9019 398.175 90.0699C398.101 90.238 397.964 90.3706 397.794 90.4393C397.624 90.5081 397.434 90.5076 397.264 90.438Z" fill="#302D30"/>
<path d="M410.735 55.4972C409.903 59.799 409.016 62.8005 409.469 64.8597C409.921 66.9188 410.041 67.9468 410.041 67.9468C410.041 67.9468 408.817 70.3945 408.642 75.0697C408.468 79.7448 410.34 84.7748 412.24 88.6147C414.141 92.4545 414.076 97.0623 414.076 97.0623C416.758 98.0703 419.626 98.4878 422.484 98.2862C427.095 97.9129 432.887 94.8227 435.139 93.9782C437.391 93.1338 440.383 92.6687 441.564 89.3C442.745 85.9314 443.639 80.4057 443.639 80.4057C443.639 80.4057 445.915 82.5474 447.763 79.2093C449.17 76.676 450.446 75.6479 450.333 72.1202C450.186 67.4573 446.717 68.8311 446.717 68.8311C446.717 68.8311 447.708 62.5251 443.366 58.2172C439.025 53.9092 432.159 49.8858 424.657 50.7302C417.154 51.5747 410.824 55.029 410.735 55.4972Z" fill="#F5B87E"/>
<mask id="mask7_1_5958" style="mask-type:luminance" maskUnits="userSpaceOnUse" x="408" y="50" width="43" height="49">
<path d="M410.735 55.4972C409.903 59.799 409.016 62.8005 409.469 64.8597C409.921 66.9188 410.041 67.9468 410.041 67.9468C410.041 67.9468 408.817 70.3945 408.642 75.0697C408.468 79.7448 410.34 84.7748 412.241 88.6147C414.141 92.4545 414.076 97.0623 414.076 97.0623C416.758 98.0703 419.626 98.4878 422.484 98.2862C427.095 97.9129 432.887 94.8227 435.139 93.9782C437.391 93.1338 440.383 92.6687 441.564 89.3C442.745 85.9314 443.639 80.4057 443.639 80.4057C443.639 80.4057 445.915 82.5474 447.763 79.2093C449.17 76.676 450.446 75.6479 450.333 72.1202C450.186 67.4573 446.717 68.8311 446.717 68.8311C446.717 68.8311 447.708 62.5251 443.366 58.2172C439.025 53.9092 432.159 49.8858 424.657 50.7302C417.154 51.5747 410.824 55.029 410.735 55.4972Z" fill="white"/>
</mask>
<g mask="url(#mask7_1_5958)">
<path d="M468.342 89.5874C467.715 86.0933 457.431 63.6356 456.994 62.681C456.933 62.5482 456.832 62.4375 456.705 62.3641C456.579 62.2907 456.433 62.2582 456.287 62.271C456.287 62.271 455.944 62.3047 455.369 62.3169C454.658 60.6458 453.785 59.0482 452.762 57.5469C452.459 56.7486 452.21 55.9309 452.016 55.0992C451.606 53.5113 451.181 51.8713 449.764 49.7234C448.142 47.2757 442.978 41.5542 430.02 41.5542C418.234 41.5542 410.374 48.7046 409.487 50.9779C409.273 51.5341 409.089 52.1008 408.933 52.676C408.756 53.5097 408.389 54.2917 407.862 54.9615C407.486 55.448 407.116 55.907 406.755 56.3537C404.674 58.9421 402.878 61.1787 402.144 65.3459C402.113 65.51 402.142 65.6795 402.225 65.8243C402.308 65.9691 402.44 66.0796 402.597 66.1363C402.754 66.1929 402.926 66.1918 403.082 66.1334C403.239 66.0749 403.369 65.9628 403.45 65.8171C403.623 65.475 403.76 65.1162 403.86 64.7462C404.396 63.042 405.292 60.1904 410.845 57.8315C412.785 57.0115 413.639 57.4551 414.627 58.63C415.615 59.8049 416.784 60.3128 417.873 60.0711C418.264 59.988 418.625 59.8021 418.92 59.5326C419.201 59.856 419.575 60.0855 419.991 60.1904C420.841 60.3863 421.606 59.9273 422.383 59.398C422.734 59.1571 423.066 58.8891 423.375 58.5964C423.8 58.2047 424.081 57.9447 425.265 57.5286C426.297 57.1614 428.083 58.4464 429.549 59.6091C430.831 61.4755 435.57 64.2934 441.616 67.7692C443.349 68.763 444.901 70.0438 446.206 71.557C446.668 72.1292 447.515 76.2597 447.76 79.2061C448.066 82.9572 449.18 86.589 450.003 88.9755C451.554 93.4609 457.997 109.689 458.062 109.854C458.097 109.941 458.148 110.02 458.214 110.087C458.28 110.154 458.358 110.207 458.444 110.243L470.621 115.362C470.734 115.409 470.858 115.427 470.98 115.412C471.101 115.397 471.217 115.351 471.315 115.278C471.414 115.204 471.491 115.107 471.54 114.994C471.589 114.882 471.608 114.759 471.594 114.637C471.579 114.459 469.719 97.2886 468.342 89.5874Z" fill="#E49E5F"/>
<path d="M435.414 60.7719C435.139 62.9718 436.681 65.5297 436.791 66.521C436.901 67.5123 435.671 68.4516 434.074 67.0778C432.477 65.7041 430.335 65.6459 428.08 65.6459C425.825 65.6459 423.185 64.5475 423.02 65.9213C422.854 67.2951 422.295 71.9733 421.937 74.2282C421.631 76.113 421.937 75.8682 423.041 76.5841C424.146 77.3001 423.922 77.6642 424.143 74.473C424.363 71.2818 424.066 71.4134 427.695 71.4776C431.324 71.5419 435.121 71.4225 436.222 73.1818C437.323 74.9411 438.584 77.8019 438.091 79.0655C437.599 80.3291 434.613 82.6973 432.804 84.4015C430.996 86.1057 431.767 91.8823 434.9 89.7926C438.033 87.7029 444.636 79.451 444.801 70.9819C444.966 62.5129 444.966 58.8291 442.436 58.7189C439.906 58.6088 435.414 60.7719 435.414 60.7719Z" fill="#E49E5F"/>
<path d="M410.316 65.8202C411.913 65.398 413.587 63.7397 415.15 64.0579C416.714 64.3761 418.289 65.3735 418.709 66.8635C419.128 68.3536 418.629 69.758 418.286 71.3184C417.944 72.8788 417.604 74.9226 417.604 74.9226C417.604 74.9226 417.519 71.3918 414.927 71.2113C412.335 71.0308 409.979 71.6243 409.346 72.7411C408.713 73.8579 409.466 79.356 410.631 81.0541C411.797 82.7522 412.039 85.5029 412.112 86.5615C412.185 87.6201 408.912 87.6354 408.269 81.3785C407.627 75.1215 406.259 70.3852 407.152 68.5096C408.046 66.6341 410.316 65.8202 410.316 65.8202Z" fill="#E49E5F"/>
<path d="M417.093 87.6907C418.788 87.1363 420.615 87.1363 422.31 87.6907C423.916 88.1588 425.391 90.7289 420.036 90.7289C414.682 90.7289 416.224 87.9446 417.093 87.6907Z" fill="#E49E5F"/>
</g>
<path d="M410.735 55.4972C409.903 59.799 409.016 62.8005 409.469 64.8597C409.921 66.9188 410.041 67.9468 410.041 67.9468C410.041 67.9468 408.817 70.3945 408.642 75.0697C408.468 79.7448 410.34 84.7748 412.24 88.6147C414.141 92.4545 414.076 97.0623 414.076 97.0623C416.758 98.0703 419.626 98.4878 422.484 98.2862C427.095 97.9129 432.887 94.8227 435.139 93.9782C437.391 93.1338 440.383 92.6687 441.564 89.3C442.745 85.9314 443.639 80.4057 443.639 80.4057C443.639 80.4057 445.915 82.5474 447.763 79.2093C449.17 76.676 450.446 75.6479 450.333 72.1202C450.186 67.4573 446.717 68.8311 446.717 68.8311C446.717 68.8311 447.708 62.5251 443.366 58.2172C439.025 53.9092 432.159 49.8858 424.657 50.7302C417.154 51.5747 410.824 55.029 410.735 55.4972Z" stroke="#302D30" stroke-linecap="round" stroke-linejoin="round"/>
<path d="M438.59 57.7644C438.896 58.8322 440.787 63.1616 441.815 64.5201C442.843 65.8785 443.896 76.4526 443.541 77.8019C443.186 79.1512 439.135 82.3608 436.476 83.756C433.817 85.1512 430.488 87.7151 429.283 89.9181C428.077 92.121 425.522 93.6876 424.21 93.6876C422.518 93.6876 420.997 92.1822 420.997 91.0471C420.997 89.912 422.132 89.8233 422.132 88.9788C422.132 88.3332 421.75 87.9049 419.66 87.9049C417.644 87.9049 417.751 88.3669 417.904 88.9298C418.008 89.3153 418.439 89.4653 418.439 90.4933C418.439 91.5213 417.084 93.3571 415.817 93.042C414.551 92.7268 413.152 89.811 412.372 88.015C411.592 86.219 409.111 80.8463 409.12 80.0355C409.478 83.8264 412.017 89.8477 412.62 92.1975C413.069 93.8613 413.401 95.5543 413.614 97.2643C413.648 97.8762 414.994 99.9812 420.275 99.8711C425.556 99.761 426.728 98.8063 429.742 97.2276C432.755 95.6488 436.519 94.7462 438.557 93.25C440.977 91.4693 442.081 90.3281 442.607 87.501C443.134 84.6739 443.268 83.4041 443.268 83.4041C443.268 83.4041 443.409 75.3481 443.834 74.0631C444.26 72.778 446.64 69.0544 446.64 69.0544C446.64 69.0544 449.045 61.9867 448.372 60.4874C447.699 58.9882 446.812 57.2228 444.012 55.6808C441.212 54.1387 438.067 55.8766 438.59 57.7644Z" fill="#423940"/>
<mask id="mask8_1_5958" style="mask-type:luminance" maskUnits="userSpaceOnUse" x="409" y="55" width="40" height="45">
<path d="M438.59 57.7644C438.896 58.8322 440.787 63.1616 441.815 64.5201C442.843 65.8785 443.896 76.4526 443.541 77.8019C443.186 79.1512 439.135 82.3608 436.476 83.756C433.817 85.1512 430.488 87.7151 429.283 89.9181C428.077 92.121 425.523 93.6876 424.21 93.6876C422.518 93.6876 420.997 92.1822 420.997 91.0471C420.997 89.912 422.132 89.8233 422.132 88.9788C422.132 88.3332 421.75 87.9049 419.66 87.9049C417.644 87.9049 417.751 88.3669 417.904 88.9298C418.008 89.3153 418.439 89.4653 418.439 90.4933C418.439 91.5213 417.084 93.3571 415.817 93.042C414.551 92.7268 413.152 89.811 412.372 88.015C411.592 86.219 409.111 80.8463 409.12 80.0355C409.478 83.8264 412.017 89.8477 412.62 92.1975C413.069 93.8613 413.401 95.5543 413.614 97.2643C413.648 97.8762 414.994 99.9812 420.275 99.8711C425.556 99.761 426.728 98.8063 429.742 97.2276C432.756 95.6488 436.519 94.7462 438.557 93.25C440.977 91.4693 442.081 90.3281 442.607 87.501C443.134 84.6739 443.268 83.4041 443.268 83.4041C443.268 83.4041 443.409 75.3481 443.834 74.0631C444.26 72.778 446.64 69.0544 446.64 69.0544C446.64 69.0544 449.045 61.9867 448.372 60.4874C447.699 58.9882 446.812 57.2228 444.012 55.6808C441.212 54.1387 438.067 55.8766 438.59 57.7644Z" fill="white"/>
</mask>
<g mask="url(#mask8_1_5958)">
<path d="M448.277 60.2671C447.847 62.2847 447.3 64.2758 446.64 66.2303C446.64 66.2303 444.26 69.957 443.834 71.242C443.701 71.816 443.618 72.4006 443.587 72.9891C443.64 73.6476 443.626 74.31 443.544 74.9656C443.562 75.2715 443.577 75.5439 443.587 75.807C443.619 75.2176 443.702 74.632 443.834 74.0569C444.26 72.7718 446.64 69.0483 446.64 69.0483C446.64 69.0483 449.045 61.9805 448.372 60.4813C448.341 60.414 448.308 60.3436 448.277 60.2671Z" fill="#383137"/>
<path d="M468.342 89.5874C467.715 86.0933 457.431 63.6356 456.994 62.681C456.933 62.5482 456.832 62.4375 456.705 62.3641C456.579 62.2907 456.433 62.2582 456.287 62.271C456.287 62.271 455.944 62.3047 455.369 62.3169C454.658 60.6458 453.785 59.0482 452.762 57.5469C452.459 56.7486 452.21 55.9309 452.016 55.0992C451.606 53.5113 451.181 51.8713 449.764 49.7234C448.142 47.2757 442.978 41.5542 430.02 41.5542C418.234 41.5542 410.374 48.7046 409.487 50.9779C409.273 51.5341 409.089 52.1008 408.933 52.676C408.756 53.5097 408.389 54.2917 407.862 54.9615C407.486 55.448 407.116 55.907 406.755 56.3537C404.674 58.9421 402.878 61.1787 402.144 65.3459C402.113 65.51 402.142 65.6795 402.225 65.8243C402.308 65.9691 402.44 66.0796 402.597 66.1363C402.754 66.1929 402.926 66.1918 403.082 66.1334C403.239 66.0749 403.369 65.9628 403.45 65.8171C403.623 65.475 403.76 65.1162 403.86 64.7462C404.396 63.042 405.292 60.1904 410.845 57.8315C412.785 57.0115 413.639 57.4551 414.627 58.63C415.615 59.8049 416.784 60.3128 417.873 60.0711C418.264 59.988 418.625 59.8021 418.92 59.5326C419.201 59.856 419.575 60.0855 419.991 60.1904C420.841 60.3863 421.606 59.9273 422.383 59.398C422.734 59.1571 423.066 58.8891 423.375 58.5964C423.8 58.2047 424.081 57.9447 425.265 57.5286C426.297 57.1614 428.083 58.4464 429.549 59.6091C430.831 61.4755 435.57 64.2934 441.616 67.7692C443.349 68.763 444.901 70.0438 446.206 71.557C446.668 72.1292 447.515 76.2597 447.76 79.2061C448.066 82.9572 449.18 86.589 450.003 88.9755C451.554 93.4609 457.997 109.689 458.062 109.854C458.097 109.941 458.148 110.02 458.214 110.087C458.28 110.154 458.358 110.207 458.444 110.243L470.621 115.362C470.734 115.409 470.858 115.427 470.98 115.412C471.101 115.397 471.217 115.351 471.315 115.278C471.414 115.204 471.491 115.107 471.54 114.994C471.589 114.882 471.608 114.759 471.594 114.637C471.579 114.459 469.719 97.2886 468.342 89.5874Z" fill="#383137"/>
<path d="M443.268 81.2895C443.268 81.2895 443.134 82.5562 442.607 85.3864C442.081 88.2165 440.977 89.3639 438.557 91.1354C436.519 92.6346 432.728 93.5495 429.742 95.113C426.756 96.6764 425.559 97.6463 420.278 97.7565C414.997 97.8666 413.648 95.7738 413.611 95.1497C413.401 93.4405 413.07 91.7483 412.62 90.086C412.436 89.367 412.069 88.3022 411.641 87.0692C410.607 84.7469 409.114 81.369 409.12 80.7388C409.478 84.5297 412.017 90.5541 412.62 92.9008C413.07 94.5642 413.401 96.2574 413.611 97.9676C413.648 98.5795 414.994 100.685 420.278 100.574C425.562 100.464 426.728 99.5096 429.742 97.9309C432.755 96.3521 436.519 95.4495 438.557 93.9533C440.977 92.1726 442.081 91.0314 442.607 88.2043C443.134 85.3772 443.268 84.1074 443.268 84.1074C443.268 84.1074 443.317 81.3109 443.446 78.75C443.412 78.8143 443.369 78.8846 443.326 78.9581C443.287 80.2982 443.268 81.2895 443.268 81.2895Z" fill="#383137"/>
</g>
<path d="M438.59 57.7644C438.896 58.8322 440.787 63.1616 441.815 64.5201C442.843 65.8785 443.896 76.4526 443.541 77.8019C443.186 79.1512 439.135 82.3608 436.476 83.756C433.817 85.1512 430.488 87.7151 429.283 89.9181C428.077 92.121 425.522 93.6876 424.21 93.6876C422.518 93.6876 420.997 92.1822 420.997 91.0471C420.997 89.912 422.132 89.8233 422.132 88.9788C422.132 88.3332 421.75 87.9049 419.66 87.9049C417.644 87.9049 417.751 88.3669 417.904 88.9298C418.008 89.3153 418.439 89.4653 418.439 90.4933C418.439 91.5213 417.084 93.3571 415.817 93.042C414.551 92.7268 413.152 89.811 412.372 88.015C411.592 86.219 409.111 80.8463 409.12 80.0355C409.478 83.8264 412.017 89.8477 412.62 92.1975C413.069 93.8613 413.401 95.5543 413.614 97.2643C413.648 97.8762 414.994 99.9812 420.275 99.8711C425.556 99.761 426.728 98.8063 429.742 97.2276C432.755 95.6488 436.519 94.7462 438.557 93.25C440.977 91.4693 442.081 90.3281 442.607 87.501C443.134 84.6739 443.268 83.4041 443.268 83.4041C443.268 83.4041 443.409 75.3481 443.834 74.0631C444.26 72.778 446.64 69.0544 446.64 69.0544C446.64 69.0544 449.045 61.9867 448.372 60.4874C447.699 58.9882 446.812 57.2228 444.012 55.6808C441.212 54.1387 438.067 55.8766 438.59 57.7644Z" stroke="#302D30" stroke-linecap="round" stroke-linejoin="round"/>
<path d="M419.859 83.4286C418.443 83.4286 415.857 83.196 415.184 83.453C414.511 83.7101 413.691 87.2409 413.761 90.7288C413.55 86.7666 412.914 83.4408 414.649 82.5963C416.096 81.8957 417.797 81.5867 418.452 80.9472C418.513 80.886 419.064 81.1032 419.715 81.0879C420.48 81.0696 421.361 80.8279 421.447 80.8799C422.49 81.5591 423.011 81.4734 424.614 81.9844C426.45 82.5719 427.52 83.0369 427.839 84.0803C428.114 84.9982 429.421 89.6886 429.421 89.6886C429.421 89.6886 427.918 85.4234 426.642 84.1415C425.366 82.8595 421.704 83.4286 419.859 83.4286Z" fill="#423940" stroke="#302D30" stroke-linecap="round" stroke-linejoin="round"/>
<path d="M415.156 56.0752C416.787 58.018 418.553 57.397 418.883 56.1823C419.887 57.9385 420.719 57.5713 421.976 56.7116C423.234 55.8518 423.023 55.4663 425.021 54.7626C427.019 54.0589 430.066 57.1032 432.71 59.1991C435.157 61.1358 441.301 62.9379 444.74 65.3673C448.179 67.7966 454.531 73.2765 458.389 77.4773C462.247 81.6782 463.948 92.39 464.285 94.5501C464.622 96.7102 467.091 109.194 467.091 109.194C467.091 109.194 467.256 94.2595 463.881 85.2152C460.506 76.1709 455.73 60.6126 452.132 55.7815C451.083 53.1838 451.26 51.192 449.167 48.0069C447.075 44.8218 441.717 40.1528 430.011 40.1528C418.305 40.1528 410.87 47.2389 410.123 49.1298C409.377 51.0207 409.551 51.807 408.401 53.2879C405.864 56.5555 403.646 58.6728 402.82 63.3632C403.517 62.1394 403.386 58.1221 410.552 55.0808C412.865 54.1048 414.037 54.7412 415.156 56.0752Z" fill="white"/>
<mask id="mask9_1_5958" style="mask-type:luminance" maskUnits="userSpaceOnUse" x="402" y="40" width="66" height="70">
<path d="M415.156 56.0752C416.787 58.018 418.553 57.397 418.883 56.1823C419.887 57.9385 420.719 57.5713 421.976 56.7116C423.234 55.8518 423.023 55.4663 425.021 54.7626C427.019 54.0589 430.066 57.1032 432.71 59.1991C435.157 61.1358 441.301 62.9379 444.74 65.3673C448.179 67.7966 454.531 73.2765 458.389 77.4773C462.247 81.6782 463.948 92.39 464.285 94.5501C464.622 96.7102 467.091 109.194 467.091 109.194C467.091 109.194 467.256 94.2595 463.881 85.2152C460.506 76.1709 455.73 60.6126 452.132 55.7815C451.083 53.1838 451.26 51.192 449.167 48.0069C447.075 44.8218 441.717 40.1528 430.011 40.1528C418.305 40.1528 410.87 47.2389 410.123 49.1298C409.377 51.0207 409.551 51.807 408.401 53.2879C405.864 56.5555 403.646 58.6728 402.82 63.3632C403.518 62.1394 403.386 58.1221 410.552 55.0808C412.865 54.1048 414.037 54.7412 415.156 56.0752Z" fill="white"/>
</mask>
<g mask="url(#mask9_1_5958)">
<path d="M458.282 55.7815C451.771 52.0335 443.431 49.188 441.053 49.7846C440.848 49.8205 440.662 49.9291 440.53 50.0906C436.942 49.4084 433.316 48.9456 429.671 48.7046C417.206 47.8754 411.463 49.959 410.279 50.6658C409.095 51.3726 406.966 51.2777 407.373 54.9126C409.961 53.8512 412.694 53.1839 415.481 52.933C416.432 52.8626 417.375 53.1808 417.803 54.0375C418.005 54.5003 418.368 54.8742 418.825 55.09C420.355 55.8335 421.046 52.113 425.214 52.0304C431.306 52.235 437.356 53.1311 443.247 54.7015C445.447 55.295 445.331 58.4617 443.094 58.8809C441.771 59.133 440.42 59.2071 439.077 59.1012C434.487 58.682 449.874 64.838 456.654 65.8324C463.434 66.8268 464.796 59.5265 458.282 55.7815Z" fill="#DFDEDE"/>
</g>
<path d="M415.156 56.0752C416.787 58.018 418.553 57.397 418.883 56.1823C419.887 57.9385 420.719 57.5713 421.976 56.7116C423.234 55.8518 423.023 55.4663 425.021 54.7626C427.019 54.0589 430.066 57.1032 432.71 59.1991C435.157 61.1358 441.301 62.9379 444.74 65.3673C448.179 67.7966 454.531 73.2765 458.389 77.4773C462.247 81.6782 463.948 92.39 464.285 94.5501C464.622 96.7102 467.091 109.194 467.091 109.194C467.091 109.194 467.256 94.2595 463.881 85.2152C460.506 76.1709 455.73 60.6126 452.132 55.7815C451.083 53.1838 451.26 51.192 449.167 48.0069C447.075 44.8218 441.717 40.1528 430.011 40.1528C418.305 40.1528 410.87 47.2389 410.123 49.1298C409.377 51.0207 409.551 51.807 408.401 53.2879C405.864 56.5555 403.646 58.6728 402.82 63.3632C403.517 62.1394 403.386 58.1221 410.552 55.0808C412.865 54.1048 414.037 54.7412 415.156 56.0752Z" stroke="#302D30" stroke-linecap="round" stroke-linejoin="round"/>
<path d="M447.429 46.5841C441.46 43.9008 426.734 42.8299 418.241 43.5245C409.747 44.219 410.322 48.5515 410.322 48.5515C410.322 48.5515 426.648 48.2853 431.822 48.7534C443.583 49.8212 450.4 52.1526 451.771 52.0425C453.142 51.9323 452.512 48.8666 447.429 46.5841Z" fill="#423940" stroke="#302D30" stroke-linecap="round" stroke-linejoin="round"/>
<path d="M408.41 53.2882C408.003 49.6472 409.098 49.2525 410.279 48.5457C411.461 47.839 417.206 45.7523 429.671 46.5845C442.136 47.4167 450.951 50.5315 452.077 51.532C453.203 52.5325 454.883 54.9465 452.132 55.7818C446.264 52.8874 435.867 50.2408 425.207 49.9042C414.909 49.583 408.41 53.2882 408.41 53.2882Z" fill="#423940"/>
<mask id="mask10_1_5958" style="mask-type:luminance" maskUnits="userSpaceOnUse" x="408" y="46" width="46" height="10">
<path d="M408.41 53.2882C408.003 49.6472 409.098 49.2525 410.279 48.5457C411.461 47.839 417.206 45.7523 429.671 46.5845C442.136 47.4167 450.951 50.5315 452.077 51.532C453.203 52.5325 454.883 54.9465 452.132 55.7818C446.264 52.8874 435.867 50.2408 425.207 49.9042C414.909 49.583 408.41 53.2882 408.41 53.2882Z" fill="white"/>
</mask>
<g mask="url(#mask10_1_5958)">
<path d="M451.401 53.3216C445.425 50.568 434.426 48.5303 424.204 48.209C413.896 47.8847 408.41 51.1768 408.41 51.1768C408.41 51.0973 408.41 51.0269 408.388 50.9504C408.296 51.7274 408.303 52.5129 408.41 53.288C408.41 53.288 414.909 49.5828 425.213 49.904C435.867 50.2406 446.264 52.8872 452.138 55.7816C453.901 55.2462 453.842 54.0621 453.276 53.0279C453.034 53.2674 452.723 53.4245 452.386 53.4772C452.049 53.5299 451.705 53.4755 451.401 53.3216Z" fill="#383137"/>
</g>
<path d="M408.41 53.2882C408.003 49.6472 409.098 49.2525 410.279 48.5457C411.461 47.839 417.206 45.7523 429.671 46.5845C442.136 47.4167 450.951 50.5315 452.077 51.532C453.203 52.5325 454.883 54.9465 452.132 55.7818C446.264 52.8874 435.867 50.2408 425.207 49.9042C414.909 49.583 408.41 53.2882 408.41 53.2882Z" stroke="#302D30" stroke-linecap="round" stroke-linejoin="round"/>
<path d="M416.377 85.2153C416.377 85.2153 416.747 85.5703 419.379 85.5703C423.219 85.5703 424.357 85.2153 424.357 85.2153" stroke="#302D30" stroke-linecap="round" stroke-linejoin="round"/>
<path d="M424.724 64.7247C424.342 64.4615 424.046 64.091 423.873 63.66C423.873 63.66 424.733 63.66 427.732 63.455C430.638 63.2622 432.541 63.3601 433.462 63.8925C434.304 64.379 435.993 66.2882 436.262 66.8634C436.262 66.8634 434.57 64.2076 431.963 63.8802C429.209 63.5345 425.027 64.9634 424.724 64.7247Z" fill="#423940"/>
<path d="M424.286 65.2759C423.674 64.817 422.472 63.4615 423.674 62.972C424.705 62.8925 426.214 62.8282 427.276 62.7333C429.347 62.6538 432.847 62.149 434.429 63.7889C434.841 64.2326 435.209 64.7152 435.528 65.23C435.809 65.7012 436.243 66.2519 436.506 66.7598C436.536 66.8192 436.541 66.8876 436.521 66.9508C436.502 67.0139 436.458 67.0671 436.4 67.099C436.342 67.131 436.274 67.1393 436.21 67.1223C436.146 67.1053 436.091 67.0642 436.057 67.0077C435.477 66.1689 434.675 65.5087 433.741 65.1015C431.905 64.2295 429.941 64.6058 427.989 64.9118C427.092 65.0556 426.134 65.2943 425.235 65.435C425.079 65.473 424.918 65.479 424.76 65.4527C424.602 65.4264 424.452 65.3684 424.317 65.282L424.286 65.2759ZM425.161 64.1714C425.078 64.1036 424.977 64.0602 424.871 64.0459C427.863 63.5747 431.626 62.0296 434.279 64.2081C435.117 64.9463 435.853 65.7932 436.467 66.7262L436.017 66.9709C435.719 66.5081 435.342 66.1011 434.903 65.7685C434.301 65.2716 433.656 64.8283 432.976 64.4437C432.245 64.2197 431.482 64.1164 430.718 64.1377C428.447 64.1041 426.174 64.355 423.864 64.3856L424.553 63.483C424.702 63.7537 424.905 63.9911 425.149 64.1805L425.161 64.1714Z" fill="#302D30"/>
<path d="M413.881 63.4551C411.877 63.3174 410.371 63.3266 409.346 63.5377L409.481 63.9293C409.581 63.9056 409.684 63.8893 409.787 63.8803C412.446 63.5346 416.484 64.9635 416.778 64.7248C417.15 64.4578 417.435 64.0876 417.598 63.6601C417.598 63.6601 416.775 63.6539 413.881 63.4551Z" fill="#423940" stroke="#302D30" stroke-linecap="round" stroke-linejoin="round"/>
<path d="M433.579 68.7943C432.355 68.4577 431.565 66.521 428.922 66.521C425.605 66.521 424.712 69.0544 424.712 69.0544C424.712 69.0544 425.269 69.6143 427.728 69.7612C430.188 69.908 432.945 68.9044 432.945 68.9044" fill="white"/>
<path d="M428.313 69.2899C429.061 69.2899 429.668 68.6831 429.668 67.9345C429.668 67.1859 429.061 66.5791 428.313 66.5791C427.564 66.5791 426.957 67.1859 426.957 67.9345C426.957 68.6831 427.564 69.2899 428.313 69.2899Z" fill="#373035" stroke="#302D30" stroke-linecap="round" stroke-linejoin="round"/>
<path d="M433.471 69.1887C432.471 68.9868 431.865 68.2708 431.079 67.8241C430.257 67.357 429.312 67.1538 428.371 67.2419C427.431 67.33 426.54 67.7052 425.819 68.3167C425.518 68.5855 425.256 68.8944 425.039 69.2346C424.988 69.3075 424.913 69.3604 424.827 69.3842C424.741 69.408 424.649 69.4013 424.568 69.3652C424.486 69.3292 424.42 69.2659 424.38 69.1863C424.339 69.1067 424.328 69.0157 424.348 68.9286C425.03 66.3738 428.114 65.2877 430.467 66.0495C430.947 66.2097 431.398 66.4474 431.801 66.7532C432.596 67.3285 433.123 68.0995 433.686 68.3993C433.78 68.4367 433.857 68.5074 433.903 68.5982C433.948 68.6889 433.959 68.7932 433.932 68.8912C433.906 68.9892 433.844 69.074 433.759 69.1295C433.674 69.1849 433.572 69.2071 433.471 69.1918V69.1887Z" fill="#302D30"/>
<path d="M413.103 69.8958C414.516 69.8005 415.909 69.5176 417.246 69.0544C417.246 69.0544 416.411 66.521 413.308 66.521C411.58 66.521 410.962 67.2216 410.631 68.213C410.631 68.2221 410.803 70.0579 413.103 69.8958Z" fill="white"/>
<path d="M414.073 67.9347C414.057 68.1822 413.968 68.4194 413.818 68.6172C413.668 68.815 413.464 68.9648 413.23 69.048C412.997 69.1312 412.744 69.1444 412.503 69.0858C412.262 69.0272 412.043 68.8994 411.874 68.7181C411.704 68.5369 411.591 68.3101 411.549 68.0656C411.507 67.8211 411.537 67.5696 411.636 67.3421C411.735 67.1145 411.898 66.9207 412.105 66.7847C412.313 66.6486 412.556 66.5761 412.804 66.5762C413.152 66.5881 413.482 66.7379 413.72 66.9927C413.958 67.2474 414.085 67.5862 414.073 67.9347Z" fill="#373035" stroke="#302D30" stroke-linecap="round" stroke-linejoin="round"/>
<path d="M409.499 67.8795C410.903 64.8566 415.181 65.4532 416.952 67.803C417.176 68.1549 417.999 69.0666 417.365 69.3665C417.287 69.3974 417.2 69.4018 417.118 69.3792C417.037 69.3566 416.964 69.3081 416.913 69.241C416.453 68.7511 415.928 68.3269 415.352 67.9805C414.046 67.2431 412.241 66.8086 410.931 67.7296C410.671 67.9131 410.423 68.164 410.117 68.418C410.041 68.4757 409.947 68.5052 409.851 68.5016C409.755 68.4979 409.664 68.4614 409.592 68.3981C409.52 68.3349 409.472 68.2487 409.456 68.1542C409.44 68.0597 409.458 67.9627 409.505 67.8795H409.499Z" fill="#302D30"/>
<path d="M395.397 111.21L392.693 160.369C392.693 160.369 380.001 164.209 375.081 165.05C371.618 165.644 362.843 166.935 357.029 164.252C353.18 162.483 355.337 150.618 357.605 146.705C359.872 142.792 374.739 126.028 380.093 119.829C385.447 113.63 390.921 112.648 391.827 112.146C392.732 111.644 395.397 111.21 395.397 111.21Z" fill="white"/>
<mask id="mask11_1_5958" style="mask-type:luminance" maskUnits="userSpaceOnUse" x="354" y="111" width="42" height="55">
<path d="M395.397 111.21L392.693 160.369C392.693 160.369 380.001 164.209 375.081 165.05C371.618 165.644 362.843 166.935 357.029 164.252C353.18 162.483 355.337 150.618 357.605 146.705C359.872 142.792 374.739 126.028 380.093 119.829C385.447 113.63 390.921 112.648 391.827 112.146C392.732 111.644 395.397 111.21 395.397 111.21Z" fill="white"/>
</mask>
<g mask="url(#mask11_1_5958)">
<path d="M399.234 147.772L394.981 123.366L376.226 139.444L370.743 159.733C375.387 157.193 375.638 157.545 376.226 159.733C376.813 161.92 379.744 158.903 381.081 156.205C382.418 153.506 381.427 156.07 384.603 154.54C387.779 153.011 385.141 160.543 381.687 161.884C378.233 163.224 364.103 166.473 357.938 163.257C351.773 160.042 344.742 155.351 344.742 155.351C344.742 155.351 351.391 173.935 371.59 173.271C391.79 172.608 400.235 169.083 402.465 161.884C404.696 154.684 399.234 147.772 399.234 147.772Z" fill="#DFDEDE"/>
</g>
<path d="M395.397 111.21L392.693 160.369C392.693 160.369 380.001 164.209 375.081 165.05C371.618 165.644 362.843 166.935 357.029 164.252C353.18 162.483 355.337 150.618 357.605 146.705C359.872 142.792 374.739 126.028 380.093 119.829C385.447 113.63 390.921 112.648 391.827 112.146C392.732 111.644 395.397 111.21 395.397 111.21Z" stroke="#302D30" stroke-linecap="round" stroke-linejoin="round"/>
<path d="M466.626 213.038C464.536 191.905 469.122 165.757 469.122 165.757C469.122 165.757 489.983 162.756 487.896 144.34C486.097 128.485 487.627 122.366 485.859 120.42C483.662 117.999 480.844 116.724 474.721 114.196C458.732 107.594 448.714 103.182 448.714 103.182L446.355 93.6968C446.355 93.6968 437.397 102.264 424.207 102.264C416.074 102.264 415.674 99.5743 415.674 99.5743L414.63 106.875C414.63 106.875 395.966 111.727 392.745 115.442C392.745 115.442 390.909 148.314 391.398 157.359C391.888 166.403 392.01 189.699 391.637 202.966C391.411 210.921 385.671 433.335 385.671 433.335C385.671 433.335 387.604 430.462 406.06 434.501C424.516 438.539 430.482 443.814 456.722 438.24C482.961 432.665 488.331 439.769 488.331 439.769C488.331 439.769 468.718 234.168 466.626 213.038Z" fill="white"/>
<mask id="mask12_1_5958" style="mask-type:luminance" maskUnits="userSpaceOnUse" x="385" y="93" width="104" height="348">
<path d="M466.626 213.038C464.536 191.905 469.122 165.757 469.122 165.757C469.122 165.757 489.983 162.756 487.896 144.34C486.097 128.485 487.627 122.366 485.859 120.42C483.662 117.999 480.844 116.724 474.721 114.196C458.732 107.594 448.714 103.182 448.714 103.182L446.356 93.6968C446.356 93.6968 437.397 102.264 424.207 102.264C416.074 102.264 415.674 99.5743 415.674 99.5743L414.63 106.875C414.63 106.875 395.966 111.727 392.745 115.442C392.745 115.442 390.909 148.314 391.398 157.359C391.888 166.403 392.01 189.699 391.637 202.966C391.411 210.921 385.671 433.335 385.671 433.335C385.671 433.335 387.604 430.462 406.06 434.501C424.516 438.539 430.482 443.814 456.722 438.24C482.961 432.665 488.331 439.769 488.331 439.769C488.331 439.769 468.718 234.168 466.626 213.038Z" fill="white"/>
</mask>
<g mask="url(#mask12_1_5958)">
<path d="M420.893 300.504C424.39 306.623 427.756 346.864 432.566 355.654C437.376 364.444 456.027 417.324 457.994 420.824C459.962 424.324 448.51 405.832 436.999 383.573C425.489 361.314 428.292 374.253 423.537 349.125C418.782 323.996 420.893 300.504 420.893 300.504Z" fill="#DFDEDE"/>
<path d="M474.412 141.314C471.637 150.872 464.172 169.897 463.517 178.204C462.862 186.511 460.91 206.23 463.315 217.594C465.72 228.957 467.577 291.16 469.3 307.009C470.695 319.859 474.761 358.799 478.041 373.877C481.321 388.955 486.608 435.55 485.782 440.8C484.956 446.051 490.934 447.305 503.39 439.219C515.846 431.132 510.164 398.792 510.819 377.157C511.474 355.522 477.524 147.638 477.524 147.638L474.412 141.314Z" fill="#DFDEDE"/>
<path d="M420.119 440.451C420.119 440.451 414.444 377.374 411.384 359.236C408.324 341.099 402.205 316.187 407.012 325.366C411.818 334.545 431.051 410.372 433.236 417.155C435.42 423.939 434.325 395.738 434.325 393.336C434.325 390.934 444.388 410.381 452.906 423.057C461.424 435.733 465.359 441.681 458.147 441.984C450.936 442.287 420.119 440.451 420.119 440.451Z" fill="#DFDEDE"/>
<path d="M460.032 153.43C460.032 157.919 460.087 167.74 461.794 172.972C463.502 178.204 459.007 176.139 451.612 174.808C444.217 173.477 437.44 171.748 437.44 171.748L460.032 153.43Z" fill="#DFDEDE"/>
<path d="M443.602 93.6875C443.957 97.971 441.662 106.192 436.999 109.873C432.336 113.554 440.863 104.099 453.111 107.578C465.359 111.057 469.486 112.587 474.718 114.181C480.565 115.949 464.41 106.682 458.741 99.8741C453.071 93.0664 448.822 90.1169 447.589 91.9037C446.356 93.6905 443.602 93.6875 443.602 93.6875Z" fill="#DFDEDE"/>
<path d="M414.551 105.348C414.18 107.848 415.75 110.944 418.299 111.678C420.847 112.413 408.878 108.897 400.69 110.366C393.874 111.59 396.407 108.952 400.69 106.853C404.974 104.754 414.551 105.348 414.551 105.348Z" fill="#DFDEDE"/>
<path d="M418.06 167.927C418.06 167.927 415.358 206.451 414.805 219.31C414.691 221.92 415.071 223.964 415.34 223.178C416.402 220.063 417.754 210.404 419.501 207.675C423.142 201.984 427.334 201.494 427.334 201.494L417.102 200.818L418.06 167.927Z" fill="#DFDEDE"/>
<path d="M409.12 110.365C398.861 112.596 406.195 119.456 401.74 126.86C398.898 131.587 393.418 140.292 393.577 144.324C393.736 148.357 397.083 169.062 390.887 180.786C384.692 192.511 374.944 186.327 379.261 167.403C383.578 148.479 382.474 134.631 385.662 126.863C388.85 119.095 392.292 110.831 396.48 109.977C400.669 109.123 412.207 109.695 409.12 110.365Z" fill="#DFDEDE"/>
</g>
<path d="M466.626 213.038C464.536 191.905 469.122 165.757 469.122 165.757C469.122 165.757 489.983 162.756 487.896 144.34C486.097 128.485 487.627 122.366 485.859 120.42C483.662 117.999 480.844 116.724 474.721 114.196C458.732 107.594 448.714 103.182 448.714 103.182L446.355 93.6968C446.355 93.6968 437.397 102.264 424.207 102.264C416.074 102.264 415.674 99.5743 415.674 99.5743L414.63 106.875C414.63 106.875 395.966 111.727 392.745 115.442C392.745 115.442 390.909 148.314 391.398 157.359C391.888 166.403 392.01 189.699 391.637 202.966C391.411 210.921 385.671 433.335 385.671 433.335C385.671 433.335 387.604 430.462 406.06 434.501C424.516 438.539 430.482 443.814 456.722 438.239C482.961 432.665 488.331 439.769 488.331 439.769C488.331 439.769 468.718 234.168 466.626 213.038Z" stroke="#302D30" stroke-linecap="round" stroke-linejoin="round"/>
<path d="M420.618 294.592L429.846 344.018L439.077 387.553" stroke="#302D30" stroke-linecap="round" stroke-linejoin="round"/>
<path d="M429.436 102.325V115.276C429.436 115.276 426.869 177.099 427.037 200.817H417.096C416.928 177.099 419.495 115.276 419.495 115.276V102.325" stroke="#302D30" stroke-linecap="round" stroke-linejoin="round"/>
<path d="M430.066 57.0269C432.495 59.4746 445.349 59.6184 449.342 60.3925C451.644 60.8537 453.996 61.0132 456.339 60.8667C456.339 60.8667 467.014 84.1628 467.632 87.6049C469.024 95.3549 470.882 112.602 470.882 112.602L458.704 107.483C458.704 107.483 452.218 91.1571 450.657 86.635C449.097 82.1128 449.253 70.3822 448.029 68.8891C446.805 67.396 431.988 60.0865 430.066 57.0269Z" fill="white"/>
<mask id="mask13_1_5958" style="mask-type:luminance" maskUnits="userSpaceOnUse" x="430" y="57" width="41" height="56">
<path d="M430.066 57.0269C432.495 59.4746 445.349 59.6184 449.342 60.3925C451.644 60.8537 453.996 61.0132 456.339 60.8667C456.339 60.8667 467.014 84.1628 467.632 87.6049C469.024 95.3549 470.882 112.602 470.882 112.602L458.704 107.483C458.704 107.483 452.218 91.1571 450.657 86.635C449.097 82.1128 449.253 70.3822 448.029 68.8891C446.805 67.396 431.988 60.0865 430.066 57.0269Z" fill="white"/>
</mask>
<g mask="url(#mask13_1_5958)">
<path d="M461.798 72.3832C465.61 81.9415 465.601 95.4376 463.144 99.8741C460.687 104.311 453.062 92.4636 452.395 88.5534C451.728 84.6432 454.724 70.2752 446.64 66.2181C438.557 62.161 435.996 61.8397 436.999 63.3451C438.003 64.8504 438.703 66.9126 439.077 68.1946C439.45 69.4766 441.218 89.7191 443.222 98.3198C445.227 106.92 452.163 125.529 462.709 123.654C473.256 121.778 483.08 126.263 481.924 107.404C480.767 88.5442 461.798 72.3832 461.798 72.3832Z" fill="#DFDEDE"/>
</g>
<path d="M430.066 57.0269C432.495 59.4746 445.349 59.6184 449.342 60.3925C451.644 60.8537 453.996 61.0132 456.339 60.8667C456.339 60.8667 467.014 84.1628 467.632 87.6049C469.024 95.3549 470.882 112.602 470.882 112.602L458.704 107.483C458.704 107.483 452.218 91.1571 450.657 86.635C449.097 82.1128 449.253 70.3822 448.029 68.8891C446.805 67.396 431.988 60.0865 430.066 57.0269Z" stroke="#302D30" stroke-linecap="round" stroke-linejoin="round"/>
<path d="M491.051 262.607C490.766 257.886 490.83 251.399 490.996 249.652L479.568 247.352C479.394 250.041 478.708 251.913 476.753 254.248C474.798 256.583 472.776 258.054 471.726 260.306C470.677 262.558 471.136 264.84 470.319 268.325C469.941 269.914 469.736 271.539 469.707 273.172C469.691 275.044 469.422 275.62 469.48 276.293C469.526 276.794 471.668 277.287 472.809 274.72C473.95 272.153 474.07 269.907 474.605 268.72C474.971 267.926 475.391 267.157 475.86 266.419C475.86 266.419 477.365 279.245 477.347 280.068C477.328 280.891 476.53 286.799 476.487 288.357C476.444 289.914 477.145 293.228 479.323 291.028C479.577 292.328 481.043 291.377 481.645 290.456C482.233 290.906 483.218 289.676 484.977 287.375C486.737 285.074 487.578 282.764 488.493 282.271C489.408 281.779 491.641 275.057 491.797 273.72C491.953 272.382 491.332 267.328 491.051 262.607Z" fill="#F5B87E"/>
<mask id="mask14_1_5958" style="mask-type:luminance" maskUnits="userSpaceOnUse" x="469" y="247" width="23" height="45">
<path d="M491.051 262.607C490.766 257.886 490.831 251.399 490.996 249.652L479.568 247.352C479.394 250.041 478.708 251.913 476.753 254.248C474.798 256.583 472.776 258.054 471.726 260.306C470.677 262.558 471.136 264.84 470.319 268.325C469.941 269.914 469.736 271.539 469.707 273.172C469.691 275.044 469.422 275.62 469.48 276.293C469.526 276.794 471.668 277.287 472.809 274.72C473.95 272.153 474.07 269.907 474.605 268.72C474.971 267.926 475.391 267.157 475.86 266.419C475.86 266.419 477.365 279.245 477.347 280.068C477.328 280.891 476.53 286.799 476.487 288.357C476.444 289.914 477.145 293.228 479.323 291.028C479.577 292.328 481.043 291.377 481.645 290.456C482.233 290.906 483.218 289.676 484.977 287.375C486.737 285.074 487.578 282.764 488.493 282.271C489.408 281.779 491.641 275.057 491.797 273.72C491.953 272.382 491.332 267.328 491.051 262.607Z" fill="white"/>
</mask>
<g mask="url(#mask14_1_5958)">
<path d="M495.077 260.71C494.288 254.857 494.132 251.745 487.382 252.342C480.633 252.939 470.664 254.224 469.942 256.258C469.22 258.293 471.39 262.512 471.39 262.512C476.729 263.192 486.045 262.904 487.912 264.761C489.778 266.618 491.213 274.821 491.045 277.431C490.876 280.041 490.916 282.966 493.847 277.373C496.778 271.78 495.077 260.71 495.077 260.71Z" fill="#E49E5F"/>
<path d="M491.271 265.688C491.632 269.889 489.129 276.36 488.331 278.037C487.532 279.713 485.335 282.932 483.209 283.902C481.082 284.872 480.492 284.382 479.335 286.298C478.179 288.213 476.416 288.439 476.826 284.915C477.236 281.39 477.821 269.051 477.582 266.419C477.343 263.788 476.104 261.322 474.109 265.688C472.115 270.054 473.96 274.322 469.486 275.76C465.013 277.198 468.568 299.35 480.914 296.477C493.26 293.604 501.172 288.932 499.615 280.191C498.057 271.449 491.271 265.688 491.271 265.688Z" fill="#E49E5F"/>
</g>
<path d="M491.051 262.607C490.766 257.886 490.83 251.399 490.996 249.652L479.568 247.352C479.394 250.041 478.708 251.913 476.753 254.248C474.798 256.583 472.776 258.054 471.726 260.306C470.677 262.558 471.136 264.84 470.319 268.325C469.941 269.914 469.736 271.539 469.707 273.172C469.691 275.044 469.422 275.62 469.48 276.293C469.526 276.794 471.668 277.287 472.809 274.72C473.95 272.153 474.07 269.907 474.605 268.72C474.971 267.926 475.391 267.157 475.86 266.419C475.86 266.419 477.365 279.245 477.347 280.068C477.328 280.891 476.53 286.799 476.487 288.357C476.444 289.914 477.145 293.228 479.323 291.028C479.577 292.328 481.043 291.377 481.645 290.456C482.233 290.906 483.218 289.676 484.977 287.375C486.737 285.074 487.578 282.764 488.493 282.271C489.408 281.779 491.641 275.057 491.797 273.72C491.953 272.382 491.332 267.328 491.051 262.607Z" stroke="#302D30" stroke-linecap="round" stroke-linejoin="round"/>
<path d="M482.64 274.221C482.098 277.082 482.169 279.839 482.077 282.758C481.728 285.738 480.853 288.415 480.005 291.239C479.949 291.417 479.825 291.566 479.66 291.652C479.494 291.738 479.301 291.755 479.123 291.699C478.945 291.643 478.796 291.519 478.71 291.353C478.623 291.188 478.606 290.995 478.662 290.817C479.085 289.458 479.501 288.088 479.905 286.72C480.317 285.385 480.651 284.027 480.905 282.654C481.125 279.808 481.254 276.84 482.349 274.139C482.36 274.098 482.387 274.064 482.423 274.043C482.46 274.022 482.503 274.016 482.543 274.027C482.584 274.038 482.619 274.065 482.64 274.101C482.66 274.137 482.666 274.181 482.655 274.221H482.64Z" fill="#302D30"/>
<path d="M481.046 290.11C482.548 287.357 484.069 284.533 485.152 281.568C485.837 279.203 486.134 276.733 486.682 274.326C486.686 274.285 486.706 274.248 486.738 274.222C486.77 274.197 486.811 274.185 486.851 274.189C486.892 274.194 486.929 274.214 486.955 274.246C486.98 274.278 486.992 274.319 486.988 274.359C486.877 277.235 486.835 280.197 485.886 282.948C484.911 285.667 483.699 288.295 482.263 290.802C482.167 290.954 482.015 291.064 481.84 291.108C481.665 291.152 481.48 291.127 481.323 291.038C481.165 290.949 481.048 290.803 480.996 290.631C480.943 290.458 480.959 290.272 481.04 290.11H481.046Z" fill="#302D30"/>
<path d="M487.238 282.599C487.694 281.375 488.092 280.065 488.484 278.792C488.856 277.479 489.297 276.186 489.806 274.919C489.815 274.881 489.84 274.847 489.873 274.826C489.907 274.805 489.947 274.797 489.986 274.805C490.025 274.812 490.059 274.834 490.083 274.866C490.106 274.898 490.116 274.938 490.112 274.977C490.112 277.07 489.689 279.086 489.194 281.096C489.025 281.778 488.814 282.449 488.56 283.103C488.493 283.277 488.358 283.417 488.187 283.493C488.016 283.568 487.822 283.572 487.648 283.504C487.474 283.436 487.334 283.302 487.259 283.131C487.184 282.96 487.18 282.767 487.248 282.592L487.238 282.599Z" fill="#302D30"/>
<path d="M475.205 266.199C475.511 265.22 476.735 264.002 476.689 265.893C476.689 266.536 476.383 267.316 475.609 267.043C475.45 266.977 475.321 266.855 475.246 266.7C475.172 266.545 475.157 266.367 475.205 266.202V266.199Z" fill="#302D30"/>
<path d="M471.227 261.285L499.618 261.897C499.618 261.897 496.515 201.011 495.983 193.563C495.451 186.116 492.706 163.193 490.616 144.759C488.82 128.904 487.627 122.36 485.859 120.414C471.751 135.577 466.971 171.158 466.971 171.158L471.227 261.285Z" fill="white"/>
<mask id="mask15_1_5958" style="mask-type:luminance" maskUnits="userSpaceOnUse" x="466" y="120" width="34" height="142">
<path d="M471.227 261.285L499.618 261.897C499.618 261.897 496.515 201.011 495.983 193.563C495.451 186.116 492.706 163.193 490.616 144.759C488.82 128.904 487.627 122.36 485.859 120.414C471.751 135.577 466.971 171.158 466.971 171.158L471.227 261.285Z" fill="white"/>
</mask>
<g mask="url(#mask15_1_5958)">
<path d="M487.242 123.247C491.77 144.196 492.942 179.109 493.14 202.084C493.339 225.059 496.885 250.503 494.566 255.453C492.247 260.404 477.08 256.35 476.129 254.603C474.721 252.027 471.347 154.877 469.768 155.406C468.189 155.936 459.506 222.207 460.589 237.405C461.672 252.602 478.98 282.862 494.551 274.35C502.555 269.968 503.464 261.307 507.028 240.116C510.593 218.925 487.242 123.247 487.242 123.247Z" fill="#DFDEDE"/>
</g>
<path d="M471.227 261.285L499.618 261.897C499.618 261.897 496.515 201.011 495.983 193.563C495.451 186.116 492.706 163.193 490.616 144.759C488.82 128.904 487.627 122.36 485.859 120.414C471.751 135.577 466.971 171.158 466.971 171.158L471.227 261.285Z" stroke="#302D30" stroke-linecap="round" stroke-linejoin="round"/>
<path d="M443.602 76.0733C443.602 76.0733 445.716 71.4839 447.579 71.5695" stroke="#302D30" stroke-linecap="round" stroke-linejoin="round"/>
<path d="M460.035 142.938H437.443V171.766H460.035V142.938Z" fill="white"/>
<mask id="mask16_1_5958" style="mask-type:luminance" maskUnits="userSpaceOnUse" x="437" y="142" width="24" height="30">
<path d="M460.035 142.938H437.443V171.766H460.035V142.938Z" fill="white"/>
</mask>
<g mask="url(#mask16_1_5958)">
<path d="M434.925 150.976H461.118C461.118 150.976 441.589 153.011 439.395 156.428C437.201 159.846 435.861 164.601 435.861 164.601L434.925 150.976Z" fill="#DFDEDE"/>
</g>
<path d="M460.035 142.938H437.443V171.766H460.035V142.938Z" stroke="#302D30" stroke-linecap="round" stroke-linejoin="round"/>
<path d="M437.443 150.976H460.035" stroke="#302D30" stroke-linecap="round" stroke-linejoin="round"/>
<path d="M460.035 144.321H461.118V147.311H460.035" stroke="#302D30" stroke-linecap="round" stroke-linejoin="round"/>
<path d="M419.269 420.392L414.551 373.999" stroke="#302D30" stroke-linecap="round" stroke-linejoin="round"/>
<path d="M419.645 111.669C413.507 110.674 414.627 106.844 414.627 106.844" stroke="#302D30" stroke-linecap="round" stroke-linejoin="round"/>
<path d="M429.436 111.669C435.573 110.675 444.428 108.086 448.711 103.16" stroke="#302D30" stroke-linecap="round" stroke-linejoin="round"/>
<path d="M429.436 111.669H419.645" stroke="#302D30" stroke-linecap="round" stroke-linejoin="round"/>
<path d="M419.015 66.1723C419.247 67.1667 419.608 68.3997 419.299 69.4859C418.859 71.2452 418.121 73.6562 417.598 75.4063C417.447 75.8431 417.326 76.2898 417.237 76.7433C417.108 77.6949 418.195 78.7321 419.112 78.7321C419.136 78.7353 419.16 78.7353 419.183 78.7321C419.183 78.7321 419.183 78.7321 419.204 78.7321C419.541 78.5485 419.966 78.0651 420.462 77.8815C420.81 77.7433 421.189 77.699 421.56 77.753C422.346 77.8693 423.133 78.3649 423.922 78.316C423.971 78.316 423.965 78.2976 423.974 78.316C424.158 77.9764 424.103 77.2023 424.002 76.7862C423.901 76.3701 423.601 76.1222 423.267 75.7765C423.211 75.7173 423.177 75.6403 423.171 75.5588C423.165 75.4772 423.188 75.3961 423.235 75.3294C423.283 75.2628 423.352 75.2148 423.431 75.1936C423.51 75.1725 423.594 75.1795 423.668 75.2135C424.252 75.4064 424.739 75.8175 425.027 76.3609C425.538 77.4409 425.559 79.3869 424.072 79.6041C423.206 79.6959 422.426 79.3777 421.625 79.1421C420.679 78.8025 420.346 80.008 419.376 80.1151C417.488 80.3292 415.548 78.5118 415.765 76.5995C415.853 76.0491 415.989 75.5075 416.172 74.981C416.674 73.289 417.414 70.8076 417.867 69.1432C418.112 68.2253 417.785 67.4115 417.616 66.4262C417.583 66.2425 417.623 66.0528 417.729 65.899C417.836 65.7453 417.999 65.6399 418.182 65.6063C418.366 65.5726 418.556 65.6133 418.71 65.7195C418.863 65.8256 418.969 65.9885 419.002 66.1723H419.015Z" fill="#302D30"/>
<path d="M415.787 79.2735C415.059 78.0496 415.45 76.4341 416.172 75.2959C416.27 75.1336 416.428 75.0168 416.612 74.9712C416.796 74.9256 416.991 74.9549 417.153 75.0527C417.315 75.1505 417.432 75.3087 417.478 75.4926C417.523 75.6765 417.494 75.871 417.396 76.0333C416.683 76.8319 416.077 77.8691 416.454 78.9736C416.481 79.0581 416.477 79.1497 416.441 79.2312C416.406 79.3127 416.342 79.3785 416.262 79.4161C416.181 79.4537 416.09 79.4606 416.004 79.4354C415.919 79.4103 415.846 79.3549 415.799 79.2796L415.787 79.2735Z" fill="#302D30"/>
<path d="M378.034 158.295C378.466 155.735 378.641 153.139 378.557 150.545C378.557 150.364 378.626 150.189 378.751 150.058C378.876 149.927 379.046 149.849 379.227 149.84C379.408 149.831 379.585 149.893 379.722 150.012C379.859 150.13 379.945 150.297 379.961 150.478C380.035 153.188 379.723 156.037 378.318 158.402C378.299 158.431 378.27 158.453 378.236 158.464C378.203 158.475 378.167 158.474 378.134 158.462C378.101 158.449 378.073 158.426 378.055 158.396C378.037 158.365 378.029 158.33 378.034 158.295Z" fill="#302D30"/>
<path d="M374.166 156.496L403.49 119.168L388.525 93.1611C388.525 93.1611 371.863 113.756 361.344 128.258C355.882 135.791 352.416 140.191 348.98 148.424C345.271 157.297 347.174 158.959 353.095 163.01C359.015 167.061 366.983 167.241 375.081 165.06" fill="white"/>
<mask id="mask17_1_5958" style="mask-type:luminance" maskUnits="userSpaceOnUse" x="347" y="93" width="57" height="74">
<path d="M374.166 156.496L403.49 119.168L388.525 93.1611C388.525 93.1611 371.863 113.756 361.344 128.258C355.882 135.791 352.416 140.191 348.98 148.424C345.271 157.297 347.174 158.959 353.095 163.01C359.015 167.061 366.983 167.241 375.081 165.06" fill="white"/>
</mask>
<g mask="url(#mask17_1_5958)">
<path d="M402.817 114.3C399.366 119.777 385.955 140.43 377.575 147.773C369.458 154.874 357.638 158.007 363.501 158.356C369.363 158.705 364.005 160.375 360.989 160.877C357.972 161.379 351.277 159.959 344.411 156.477C337.546 152.996 340.223 170.09 360.153 169.753C380.084 169.417 388.66 159.705 381.69 161.884C374.72 164.062 371.875 163.894 368.693 163.894C365.511 163.894 373.986 158.533 383.312 146.644C392.637 134.754 405.369 120.41 405.369 120.41L402.817 114.3Z" fill="#DFDEDE"/>
</g>
<path d="M374.166 156.496L403.49 119.168L388.525 93.1611C388.525 93.1611 371.863 113.756 361.344 128.258C355.882 135.791 352.416 140.191 348.98 148.424C345.271 157.297 347.174 158.959 353.095 163.01C359.015 167.061 366.983 167.241 375.081 165.06" stroke="#302D30" stroke-linecap="round" stroke-linejoin="round"/>
<path d="M364.287 163.107C366.118 162.209 367.859 161.14 369.488 159.913C371.091 158.69 372.555 157.296 373.854 155.755C373.912 155.68 373.984 155.618 374.066 155.572C374.148 155.525 374.238 155.496 374.332 155.485C374.425 155.474 374.52 155.482 374.61 155.509C374.701 155.535 374.785 155.58 374.858 155.639C374.93 155.699 374.991 155.773 375.035 155.856C375.079 155.939 375.105 156.03 375.113 156.124C375.121 156.218 375.111 156.312 375.081 156.402C375.052 156.492 375.005 156.574 374.944 156.645C374.266 157.474 373.518 158.244 372.71 158.946C371.121 160.363 369.33 161.535 367.396 162.425C366.431 162.864 365.419 163.19 364.379 163.395C364.343 163.401 364.305 163.395 364.274 163.376C364.242 163.357 364.218 163.327 364.207 163.292C364.195 163.257 364.197 163.219 364.211 163.185C364.225 163.151 364.251 163.124 364.284 163.107H364.287Z" fill="#302D30"/>
<path d="M381.993 147.133C384.273 148.302 384.11 151.894 383.312 153.92C383.301 153.956 383.278 153.987 383.247 154.007C383.215 154.028 383.177 154.036 383.14 154.031C383.103 154.026 383.069 154.007 383.044 153.979C383.02 153.951 383.006 153.914 383.006 153.877C382.939 153.317 382.896 152.763 382.844 152.225C382.685 150.909 382.584 149.131 381.372 148.403C381.289 148.363 381.214 148.307 381.152 148.238C381.091 148.169 381.043 148.088 381.013 148.001C380.982 147.913 380.969 147.821 380.974 147.729C380.98 147.636 381.003 147.546 381.043 147.462C381.083 147.379 381.139 147.304 381.208 147.243C381.277 147.181 381.358 147.134 381.445 147.103C381.533 147.072 381.625 147.059 381.718 147.065C381.81 147.07 381.901 147.093 381.984 147.133H381.993Z" fill="#302D30"/>
<path d="M378.034 152.693C374.613 155.446 369.944 156.621 365.627 156.621C365.587 156.626 365.546 156.614 365.514 156.588C365.482 156.563 365.462 156.526 365.457 156.485C365.453 156.444 365.465 156.404 365.49 156.372C365.516 156.34 365.553 156.32 365.593 156.315C366.64 156.052 367.674 155.792 368.699 155.51C370.733 154.991 372.704 154.247 374.573 153.292C375.479 152.812 376.336 152.246 377.134 151.603C377.278 151.484 377.463 151.427 377.649 151.444C377.835 151.461 378.006 151.551 378.126 151.695C378.245 151.839 378.302 152.024 378.285 152.21C378.268 152.396 378.178 152.567 378.034 152.686V152.693Z" fill="#302D30"/>
</g>
</g>
<defs>
<clipPath id="clip0_1_5958">
<rect width="602" height="500" fill="white"/>
</clipPath>
<clipPath id="clip1_1_5958">
<rect width="170.541" height="421" fill="white" transform="translate(341 40)"/>
</clipPath>
</defs>
</svg>
