<svg width="602" height="500" viewBox="0 0 602 500" fill="none" xmlns="http://www.w3.org/2000/svg">
<g clip-path="url(#clip0_2306_129468)">
<path d="M494.375 454.191C494.375 454.191 586.05 436.121 590.719 372C596.104 298.313 522.118 297.504 533.466 244.083C549.304 169.524 518.332 125.122 448.922 128.181C390.396 130.767 341.019 176.535 309.711 137.19C275.941 94.7224 212.778 63.3345 150.266 89.6453C87.754 115.956 118 201.437 74.7763 219.601C31.5523 237.766 4.75556 285.72 12.254 352.028C19.3213 414.204 56.719 455.526 109.881 454.895C135.931 454.59 216.006 455.242 306.882 454.895C401.438 454.506 494.375 454.191 494.375 454.191Z" fill="#DEE3FF"/>
<rect x="81.5" y="62.5" width="298" height="221" rx="11.5" stroke="#E54985"/>
<path d="M30.6893 186.547C30.6893 186.547 14.5793 155.497 42.0793 140.547C71.6793 124.457 94.3693 154.357 87.3793 178.977C80.3893 203.597 39.2693 202.487 30.6893 186.547Z" fill="#DEE3FF"/>
<path d="M435.149 454.76C426.899 455.34 393.579 455.87 399.479 427.65C402.479 413.24 394.819 411.65 387.409 404.38C379.999 397.11 380.889 393.53 383.159 385.58C385.429 377.63 375.219 380.34 373.239 368.37C371.259 356.4 378.739 346.37 391.659 346.44C404.579 346.51 401.659 359.91 405.899 364.87C410.139 369.83 416.639 365.26 420.949 377.06C425.259 388.86 418.949 395.91 427.249 400.52C428.907 401.481 430.459 402.614 431.879 403.9" stroke="#7189FF" stroke-miterlimit="10"/>
<path d="M421.28 422.66C414.886 409.66 408.136 396.847 401.03 384.22C398.616 379.953 396.176 375.703 393.71 371.47C393.66 371.385 393.593 371.31 393.515 371.25C393.436 371.191 393.346 371.147 393.25 371.122C393.155 371.097 393.055 371.091 392.957 371.104C392.859 371.118 392.765 371.15 392.68 371.2C392.594 371.25 392.52 371.316 392.46 371.395C392.4 371.474 392.356 371.563 392.331 371.659C392.306 371.755 392.3 371.854 392.314 371.952C392.327 372.05 392.36 372.145 392.41 372.23C400.41 385.83 407.98 399.65 415.12 413.69C416.76 416.917 418.383 420.16 419.99 423.42C420.41 424.29 421.71 423.53 421.28 422.66Z" fill="#7189FF"/>
<path d="M388.28 395.63L404.75 397.34L407.12 397.59C408.12 397.69 408.12 396.19 407.12 396.09L390.65 394.38L388.28 394.13C387.28 394.03 387.33 395.53 388.28 395.63Z" fill="#7189FF"/>
<path d="M394.86 386.08C394.942 386.659 394.845 387.249 394.582 387.771C394.319 388.293 393.903 388.722 393.39 389.001C392.877 389.28 392.29 389.396 391.709 389.333C391.128 389.27 390.58 389.032 390.139 388.649C389.697 388.266 389.383 387.758 389.238 387.192C389.093 386.625 389.125 386.029 389.328 385.481C389.532 384.933 389.897 384.46 390.377 384.126C390.856 383.792 391.426 383.612 392.01 383.61C392.716 383.561 393.412 383.793 393.946 384.256C394.48 384.719 394.809 385.375 394.86 386.08Z" stroke="#7189FF" stroke-miterlimit="10"/>
<path d="M401.211 363.89C400.925 364.377 400.502 364.768 399.993 365.014C399.485 365.26 398.916 365.349 398.356 365.271C397.797 365.193 397.274 364.95 396.853 364.574C396.432 364.198 396.133 363.705 395.992 363.158C395.852 362.611 395.877 362.035 396.064 361.503C396.251 360.97 396.592 360.505 397.044 360.167C397.496 359.829 398.039 359.632 398.602 359.603C399.166 359.573 399.726 359.711 400.211 360C400.857 360.385 401.325 361.01 401.513 361.739C401.7 362.468 401.591 363.241 401.211 363.89Z" stroke="#7189FF" stroke-miterlimit="10"/>
<path d="M412.679 428.5C412.785 429.225 412.667 429.965 412.341 430.62C412.014 431.276 411.495 431.816 410.853 432.168C410.211 432.52 409.477 432.667 408.748 432.59C408.02 432.513 407.333 432.215 406.779 431.736C406.225 431.257 405.831 430.619 405.649 429.91C405.468 429.2 405.507 428.452 405.763 427.766C406.019 427.08 406.479 426.488 407.08 426.071C407.682 425.653 408.397 425.43 409.129 425.43C410.006 425.372 410.87 425.662 411.534 426.237C412.199 426.811 412.61 427.624 412.679 428.5Z" stroke="#7189FF" stroke-miterlimit="10"/>
<path d="M396.131 356.59C396.146 356.766 396.125 356.943 396.069 357.109C396.012 357.276 395.922 357.43 395.803 357.56C395.684 357.69 395.539 357.794 395.378 357.865C395.216 357.936 395.042 357.973 394.866 357.973C394.689 357.973 394.515 357.936 394.354 357.865C394.192 357.794 394.048 357.69 393.929 357.56C393.81 357.43 393.719 357.276 393.663 357.109C393.606 356.943 393.585 356.766 393.601 356.59C393.629 356.274 393.774 355.98 394.008 355.766C394.243 355.551 394.548 355.433 394.866 355.433C395.183 355.433 395.489 355.551 395.723 355.766C395.957 355.98 396.103 356.274 396.131 356.59Z" stroke="#7189FF" stroke-miterlimit="10"/>
<path d="M483.691 452.02C476.861 447.15 476.181 416.25 504.181 410.02C518.481 406.83 516.181 399.67 519.081 390.46C521.981 381.25 525.591 380.58 533.781 379.33C541.971 378.08 535.781 366.92 545.531 360.46C555.281 354 568.291 353.51 573.151 367.63C577.261 379.58 565.611 384.85 563.231 390.41C560.851 395.97 567.771 403.48 559.341 411.86C550.911 420.24 541.891 413.93 541.781 422.81C541.671 431.69 537.781 447.87 529.171 451.2C518.581 455.29 489.081 455.86 483.691 452.02Z" stroke="#7189FF" stroke-miterlimit="10"/>
<path d="M493.209 455.5C497.009 450.97 500.949 446.56 504.749 442.03C514.162 430.85 523.352 419.487 532.319 407.94C538.806 399.58 545.179 391.13 551.439 382.59C552.009 381.81 550.709 381.06 550.149 381.83C539.622 396.277 528.739 410.42 517.499 424.26C510.492 432.927 503.349 441.497 496.069 449.97C494.769 451.48 493.429 452.97 492.149 454.48C491.529 455.22 492.589 456.28 493.209 455.54V455.5Z" fill="#7189FF"/>
<path d="M502.72 410.36C502.09 405.19 501.27 400.12 500.8 395.36C498.91 376.22 525.3 384.78 535.8 360.2C546.3 335.62 520.58 326.7 532.68 316.42C544.78 306.14 548.16 270.81 530.44 264.73C507.44 256.85 486.8 271.26 483.99 290.24C481.83 304.88 491.64 315.1 466.1 325.83C440.56 336.56 444.5 349.89 449.75 375.38C455 400.87 437.75 391.52 424.32 413.03C413.69 430.03 428.63 447.47 435.32 453.95L487.02 454.84" stroke="#7189FF" stroke-miterlimit="10"/>
<path d="M445.84 454L452.18 439.42C457.393 427.473 462.61 415.553 467.83 403.66C474.496 388.48 481.21 373.317 487.97 358.17C494.49 343.55 501.083 328.963 507.75 314.41C512.48 304.13 517.19 293.82 522.38 283.77L523.58 281.49C524.04 280.64 522.74 279.88 522.29 280.73C517.34 289.97 512.99 299.55 508.58 309.05C501.99 323.26 495.58 337.54 489.16 351.83C482.333 367.11 475.553 382.407 468.82 397.72C463.306 410.22 457.823 422.733 452.37 435.26C449.8 441.16 447.07 447.03 444.65 453C444.65 453.09 444.58 453.17 444.55 453.25C444.17 454.12 445.46 454.89 445.84 454Z" fill="#7189FF"/>
<path d="M492.939 346.37L523.309 344.69L527.609 344.45C528.609 344.39 528.609 342.89 527.609 342.95L497.239 344.63L492.939 344.87C491.939 344.92 491.939 346.42 492.939 346.37Z" fill="#7189FF"/>
<path d="M457.94 425.32L481.94 422.62L485.32 422.24C486.32 422.13 486.32 420.63 485.32 420.74L461.37 423.43L457.98 423.82C456.98 423.92 456.98 425.42 457.98 425.32H457.94Z" fill="#7189FF"/>
<path d="M454.689 338.62L461.569 354.08L472.569 378.71L475.079 384.34C475.479 385.22 476.769 384.46 476.379 383.58L469.489 368.12L458.489 343.5L455.999 337.86C455.609 336.98 454.319 337.75 454.709 338.62H454.689Z" fill="#7189FF"/>
<path d="M504.71 286.1C503.01 288.59 500.06 289.53 498.12 288.21C496.18 286.89 495.97 283.79 497.66 281.3C499.35 278.81 502.31 277.87 504.25 279.19C506.19 280.51 506.4 283.61 504.71 286.1Z" stroke="#7189FF" stroke-miterlimit="10"/>
<path d="M506 299.56C506 300.031 505.861 300.491 505.599 300.882C505.338 301.274 504.966 301.579 504.531 301.759C504.096 301.939 503.618 301.986 503.156 301.894C502.694 301.802 502.27 301.576 501.937 301.243C501.604 300.91 501.378 300.486 501.286 300.024C501.194 299.563 501.241 299.084 501.421 298.649C501.602 298.214 501.907 297.843 502.298 297.581C502.689 297.32 503.15 297.18 503.62 297.18C504.251 297.18 504.857 297.431 505.303 297.877C505.75 298.323 506 298.929 506 299.56Z" stroke="#7189FF" stroke-miterlimit="10"/>
<path d="M523.231 361.03C523.231 361.946 522.959 362.841 522.45 363.602C521.942 364.364 521.219 364.957 520.373 365.307C519.527 365.658 518.596 365.75 517.697 365.571C516.799 365.392 515.974 364.951 515.327 364.304C514.679 363.656 514.238 362.831 514.06 361.933C513.881 361.035 513.973 360.104 514.323 359.258C514.674 358.412 515.267 357.689 516.028 357.18C516.79 356.671 517.685 356.4 518.601 356.4C519.829 356.4 521.006 356.888 521.875 357.756C522.743 358.624 523.231 359.802 523.231 361.03Z" stroke="#7189FF" stroke-miterlimit="10"/>
<path d="M311.39 455.01C312.71 450.26 312.75 445.01 313.34 440.5C314.61 430.8 328.65 438.79 337.68 428.19C346.71 417.59 333.1 409.52 341.29 406.19C349.48 402.86 355.04 387.63 346.37 380.42C335.65 371.5 320.62 377.42 316.67 386.34C313.67 393.23 317.99 399.67 302.06 401.34C286.13 403.01 286.75 410.1 286.61 423.4C286.47 436.7 277.76 429.63 267.44 438.31C261.59 443.22 263.2 450.09 265.69 455.13" stroke="#7189FF" stroke-miterlimit="10"/>
<path d="M279.9 455.96C287.714 446.927 295.554 437.927 303.421 428.96C312.421 418.74 321.37 408.53 330.55 398.5C333.83 394.91 337.1 391.3 340.55 387.91C341.25 387.24 340.19 386.18 339.49 386.85C332.06 394.05 325.271 401.98 318.391 409.7C309.057 420.167 299.79 430.707 290.59 441.32C286.65 445.84 282.72 450.367 278.8 454.9C278.17 455.62 279.23 456.69 279.86 455.96H279.9Z" fill="#7189FF"/>
<path d="M314.77 415.58L332.3 419.08L334.83 419.59C335.77 419.78 336.17 418.33 335.23 418.14L317.7 414.64L315.17 414.13C314.23 413.94 313.83 415.39 314.77 415.58Z" fill="#7189FF"/>
<path d="M293.659 406.05L298.909 428.24L299.669 431.47C299.889 432.41 301.339 432.01 301.119 431.07L295.869 408.88L295.099 405.65C294.879 404.71 293.429 405.11 293.659 406.05Z" fill="#7189FF"/>
<path d="M329 387.23C328.445 387.7 327.745 387.967 327.018 387.985C326.29 388.003 325.578 387.772 325 387.33C324.05 386.4 324.32 384.85 325.59 383.86C326.147 383.391 326.847 383.126 327.574 383.11C328.302 383.094 329.013 383.327 329.59 383.77C330.57 384.7 330.3 386.25 329 387.23Z" stroke="#7189FF" stroke-miterlimit="10"/>
<path d="M330.389 426.78C330.334 427.34 330.109 427.87 329.743 428.299C329.378 428.727 328.891 429.034 328.346 429.177C327.802 429.321 327.227 429.294 326.698 429.101C326.169 428.909 325.712 428.559 325.387 428.099C325.063 427.639 324.887 427.09 324.883 426.527C324.879 425.964 325.047 425.414 325.365 424.949C325.683 424.485 326.136 424.128 326.662 423.928C327.188 423.728 327.763 423.694 328.309 423.83C328.975 423.947 329.568 424.323 329.958 424.876C330.347 425.429 330.503 426.113 330.389 426.78Z" stroke="#7189FF" stroke-miterlimit="10"/>
<path d="M144.829 453.98C139.329 455.42 114.439 459.55 114.829 439.73C115.029 429.6 112.079 429.97 106.149 426C100.219 422.03 100.359 419.5 100.879 413.83C101.399 408.16 95.7592 410.91 91.9992 403.5C87.4992 394.59 92.9192 387.94 101.659 386.34C110.399 384.74 110.149 394.17 113.659 396.98C117.169 399.79 121.939 393.74 128.659 401.98C133.019 407.33 126.249 419.54 132.659 418.41" stroke="#7189FF" stroke-miterlimit="10"/>
<path d="M133.361 436.33C124.821 424.79 115.821 413.6 106.361 402.76C105.721 402.04 104.661 403.1 105.291 403.83C114.624 414.557 123.547 425.643 132.061 437.09C132.621 437.86 133.931 437.09 133.351 436.33H133.361Z" fill="#7189FF"/>
<path d="M118.85 402.24L117.85 416.4L117.72 418.4L118.47 417.65L105.47 418.72C104.52 418.8 104.47 420.3 105.47 420.22L118.47 419.15C118.666 419.143 118.853 419.061 118.992 418.922C119.131 418.783 119.212 418.597 119.22 418.4L120.22 404.24L120.35 402.24C120.41 401.24 118.91 401.24 118.85 402.24Z" fill="#7189FF"/>
<path d="M106.001 336.74C95.1505 327.89 92.5505 300.58 108.001 292.29C127.121 282.03 147.141 297.9 149.661 314.22C151.601 326.81 142.8 335.6 165.71 344.83C188.62 354.06 185.08 365.52 180.37 387.43C175.66 409.34 191.15 401.31 203.18 419.81C212.72 434.47 199.32 449.42 193.34 455L146.481 454.77C144.958 453.884 143.507 452.881 142.141 451.77C127.011 439.4 133.02 419.85 134.59 404.63C136.29 388.17 112.591 395.53 103.191 374.4C93.7905 353.27 116.821 345.58 106.001 336.74Z" stroke="#7189FF" stroke-miterlimit="10"/>
<path d="M185.099 454.3L179.429 441.8C174.763 431.553 170.096 421.307 165.429 411.06C159.429 398.013 153.409 384.973 147.369 371.94C141.489 359.33 135.589 346.73 129.559 334.18C125.329 325.37 121.109 316.53 116.469 307.92C116.119 307.26 115.759 306.6 115.389 305.92C114.919 305.08 113.629 305.83 114.099 306.68C118.519 314.59 122.419 322.81 126.369 330.97C132.269 343.18 138.039 355.46 143.779 367.76C149.893 380.92 155.966 394.087 161.999 407.26C166.946 418.047 171.879 428.84 176.799 439.64C178.359 443.093 179.923 446.537 181.489 449.97C182.219 451.57 182.839 453.31 183.699 454.85C183.699 454.91 183.759 454.99 183.789 455.06C184.189 455.94 185.479 455.17 185.089 454.3H185.099Z" fill="#7189FF"/>
<path d="M141.619 361.05L114.359 359.6L110.529 359.4C109.529 359.4 109.529 360.85 110.529 360.9L137.789 362.35L141.619 362.55C142.619 362.6 142.619 361.1 141.619 361.05Z" fill="#7189FF"/>
<path d="M173 428.94L142.43 425.64L138.04 425.17C137.04 425.07 137.09 426.57 138.04 426.67L168.61 429.97L173 430.44C174 430.54 173.95 429.04 173 428.94Z" fill="#7189FF"/>
<path d="M174.71 355.08L168.52 368.4L158.71 389.5L156.44 394.38C156.03 395.25 157.33 396.02 157.73 395.14L163.92 381.82L173.73 360.71L176 355.83C176.41 354.96 175.11 354.2 174.71 355.07V355.08Z" fill="#7189FF"/>
<path d="M140.001 335.36C141.521 337.5 144.171 338.31 145.911 337.17C147.651 336.03 147.841 333.38 146.321 331.24C144.801 329.1 142.151 328.24 140.411 329.42C138.671 330.6 138.461 333.22 140.001 335.36Z" stroke="#7189FF" stroke-miterlimit="10"/>
<path d="M130 322.2C129.982 322.627 130.092 323.049 130.316 323.412C130.54 323.776 130.868 324.064 131.257 324.24C131.646 324.416 132.079 324.471 132.5 324.399C132.92 324.327 133.31 324.131 133.618 323.835C133.927 323.54 134.14 323.159 134.23 322.742C134.32 322.324 134.283 321.89 134.124 321.493C133.965 321.097 133.691 320.757 133.338 320.518C132.984 320.279 132.567 320.15 132.14 320.15C131.865 320.143 131.591 320.191 131.334 320.291C131.077 320.39 130.843 320.54 130.644 320.73C130.445 320.921 130.286 321.149 130.175 321.401C130.065 321.653 130.005 321.925 130 322.2Z" stroke="#7189FF" stroke-miterlimit="10"/>
<path d="M137.421 315.09C137.391 315.804 137.575 316.51 137.95 317.118C138.325 317.726 138.873 318.208 139.524 318.502C140.175 318.796 140.899 318.889 141.603 318.768C142.307 318.648 142.959 318.319 143.475 317.825C143.99 317.331 144.347 316.694 144.497 315.995C144.648 315.297 144.586 314.57 144.32 313.907C144.055 313.244 143.596 312.676 143.005 312.275C142.413 311.875 141.715 311.661 141.001 311.66C140.072 311.641 139.173 311.992 138.502 312.635C137.831 313.278 137.442 314.161 137.421 315.09Z" stroke="#7189FF" stroke-miterlimit="10"/>
<path d="M114.45 375.05C114.418 375.879 114.635 376.698 115.072 377.403C115.51 378.108 116.148 378.666 116.904 379.005C117.661 379.345 118.502 379.45 119.319 379.308C120.137 379.166 120.893 378.783 121.491 378.209C122.088 377.634 122.501 376.893 122.675 376.082C122.849 375.271 122.776 374.427 122.467 373.657C122.157 372.888 121.624 372.228 120.937 371.764C120.25 371.299 119.44 371.05 118.61 371.05C118.074 371.038 117.541 371.132 117.041 371.327C116.542 371.522 116.085 371.813 115.699 372.185C115.312 372.557 115.003 373.001 114.789 373.493C114.574 373.984 114.459 374.514 114.45 375.05Z" stroke="#7189FF" stroke-miterlimit="10"/>
<path d="M212.449 454.85C213.392 454.296 214.291 453.671 215.139 452.98C224.489 445.34 220.769 433.26 219.799 423.85C218.749 413.68 233.379 418.22 239.209 405.17C245.039 392.12 230.769 387.36 237.479 381.9C244.189 376.44 245.789 359.55 236.239 354.43C224.419 348.09 212.049 357.9 210.489 367.98C209.289 375.76 214.729 381.2 200.569 386.9C195.709 388.9 192.769 390.98 191.129 393.47" stroke="#7189FF" stroke-miterlimit="10"/>
<path d="M204.809 421.89C212.549 405.07 220.249 388.22 228.489 371.65C229.849 368.9 231.229 366.16 232.719 363.48C233.189 362.64 231.889 361.88 231.419 362.73C228.309 368.3 225.589 374.11 222.819 379.86C218.692 388.453 214.632 397.076 210.639 405.73C208.252 410.856 205.876 415.99 203.509 421.13C203.109 422 204.409 422.77 204.809 421.89Z" fill="#7189FF"/>
<path d="M215.449 398.14L232.239 397.25L234.659 397.12C235.659 397.12 235.659 395.57 234.659 395.62L217.859 396.51L215.449 396.64C214.449 396.69 214.449 398.19 215.449 398.14Z" fill="#7189FF"/>
<path d="M205.069 439.12L216.069 437.93L217.649 437.76C218.649 437.66 218.649 436.16 217.649 436.26L206.649 437.45L205.069 437.62C204.119 437.72 204.069 439.22 205.069 439.12Z" fill="#7189FF"/>
<path d="M194.001 393.85L203.891 415.14L205.291 418.14C205.701 419.02 206.991 418.26 206.581 417.39L196.691 396.1L195.291 393.1C194.891 392.23 193.591 392.99 194.001 393.86V393.85Z" fill="#7189FF"/>
<path d="M222 365.75C221.642 366.363 221.068 366.819 220.39 367.028C219.712 367.238 218.98 367.185 218.34 366.88C217.26 366.17 217.15 364.53 218.09 363.21C218.447 362.597 219.022 362.141 219.699 361.932C220.377 361.722 221.109 361.775 221.75 362.08C222.79 362.79 222.91 364.43 222 365.75Z" stroke="#7189FF" stroke-miterlimit="10"/>
<path d="M232.239 405.58C232.261 406.093 232.129 406.6 231.861 407.037C231.592 407.473 231.199 407.82 230.731 408.031C230.264 408.243 229.744 408.31 229.239 408.223C228.733 408.137 228.265 407.901 227.894 407.547C227.524 407.192 227.268 406.735 227.16 406.233C227.051 405.732 227.095 405.21 227.286 404.734C227.477 404.258 227.806 403.85 228.231 403.562C228.655 403.275 229.156 403.121 229.669 403.12C230.336 403.107 230.981 403.358 231.462 403.819C231.944 404.28 232.223 404.914 232.239 405.58Z" stroke="#7189FF" stroke-miterlimit="10"/>
<path fill-rule="evenodd" clip-rule="evenodd" d="M405.52 282.14C406.629 282.724 407.658 283.45 408.58 284.3L411.84 283.13L414.91 287.98L412.46 290.43C412.843 291.625 413.062 292.866 413.11 294.12L416.24 295.6L415 301.2H411.54C410.958 302.308 410.232 303.333 409.38 304.25L410.54 307.52L405.7 310.59L403.24 308.14C402.048 308.523 400.81 308.742 399.56 308.79L398.07 311.92L392.48 310.66V307.2C391.37 306.616 390.342 305.89 389.42 305.04L386.16 306.2L383.09 301.36L385.53 298.9C385.154 297.707 384.939 296.47 384.89 295.22L381.76 293.73L383.02 288.14H386.48C387.064 287.03 387.79 286.002 388.64 285.08L387.47 281.82L392.32 278.75L394.77 281.19C395.966 280.815 397.207 280.599 398.46 280.55L399.94 277.42L405.54 278.68V282.14H405.52ZM400.59 288.73C399.403 288.463 398.164 288.554 397.029 288.991C395.894 289.428 394.914 290.192 394.213 291.187C393.512 292.181 393.122 293.36 393.092 294.576C393.061 295.792 393.392 296.99 394.043 298.018C394.693 299.046 395.633 299.858 396.745 300.351C397.857 300.845 399.09 300.997 400.289 300.79C401.487 300.582 402.597 300.024 403.479 299.186C404.36 298.347 404.973 297.267 405.24 296.08C405.418 295.292 405.44 294.476 405.303 293.68C405.165 292.884 404.872 292.122 404.44 291.44C404.008 290.757 403.446 290.166 402.785 289.701C402.124 289.236 401.378 288.906 400.59 288.73Z" stroke="#EC4E70" stroke-miterlimit="10"/>
<path d="M20.0608 456.29H577.421C584.951 456.29 592.481 456.41 600.011 456.29H601.011C601.342 456.29 601.66 456.158 601.895 455.924C602.129 455.69 602.261 455.372 602.261 455.04C602.261 454.709 602.129 454.391 601.895 454.156C601.66 453.922 601.342 453.79 601.011 453.79H43.6508C36.1208 453.79 28.5808 453.68 21.0508 453.79H20.0508C19.7193 453.79 19.4013 453.922 19.1669 454.156C18.9325 454.391 18.8008 454.709 18.8008 455.04C18.8008 455.372 18.9325 455.69 19.1669 455.924C19.4013 456.158 19.7193 456.29 20.0508 456.29H20.0608Z" fill="#0F0D1D"/>
<path d="M120.52 150.5H341.48C347.29 150.5 352 155.21 352 161.02V167.98C352 173.79 347.29 178.5 341.48 178.5H120.52C114.71 178.5 110 173.79 110 167.98V161.02C110 155.21 114.71 150.5 120.52 150.5Z" fill="white" stroke="#F2718D"/>
<path d="M341.48 203H120.52C114.434 203 109.5 207.934 109.5 214.02V244.98C109.5 251.066 114.434 256 120.52 256H341.48C347.566 256 352.5 251.066 352.5 244.98V214.02C352.5 207.934 347.566 203 341.48 203Z" stroke="#F2718D" stroke-miterlimit="10"/>
<path fill-rule="evenodd" clip-rule="evenodd" d="M52.7891 287.89C54.4666 288.767 56.0202 289.864 57.4091 291.15L62.3391 289.39L66.9791 296.71L63.2891 300.42C63.8643 302.225 64.2005 304.098 64.2891 305.99L69.0191 308.24L67.1191 316.69H61.8791C61.0087 318.369 59.9155 319.923 58.6291 321.31L60.3891 326.24L52.9991 330.89L49.2791 327.2C47.4777 327.776 45.6083 328.112 43.7191 328.2L41.4691 332.92L33.0191 331.03V325.79C31.3397 324.92 29.7857 323.826 28.3991 322.54L23.4591 324.3L18.8191 316.98L22.5191 313.26C21.943 311.459 21.6068 309.589 21.5191 307.7L16.7891 305.45L18.6891 297H23.9991C24.8764 295.322 25.9726 293.769 27.2591 292.38L25.4991 287.44L32.8191 282.8L36.5291 286.5C38.3341 285.925 40.2067 285.589 42.0991 285.5L44.3491 280.77L52.7991 282.67V287.9L52.7891 287.89ZM45.3391 297.84C43.5447 297.43 41.669 297.561 39.9495 298.218C38.2299 298.874 36.7438 300.026 35.6794 301.528C34.6149 303.029 34.02 304.813 33.9699 306.653C33.9198 308.493 34.4168 310.306 35.398 311.864C36.3792 313.421 37.8004 314.652 39.4818 315.401C41.1631 316.15 43.0288 316.384 44.8428 316.072C46.6568 315.76 48.3374 314.916 49.6719 313.649C51.0063 312.381 51.9345 310.746 52.3391 308.95C52.8773 306.549 52.4431 304.033 51.1314 301.951C49.8197 299.869 47.7372 298.391 45.3391 297.84Z" stroke="#EC4E70" stroke-miterlimit="10"/>
<path d="M122.032 101.083V103.991H118.085V115.98H114.456V103.991H110.509V101.083H122.032ZM131.131 104.012C132.489 104.012 133.578 104.464 134.399 105.37C135.219 106.261 135.63 107.492 135.63 109.062V115.98H132.022V109.55C132.022 108.758 131.817 108.143 131.407 107.704C130.997 107.265 130.445 107.046 129.752 107.046C129.059 107.046 128.507 107.265 128.097 107.704C127.686 108.143 127.481 108.758 127.481 109.55V115.98H123.853V100.277H127.481V105.731C127.849 105.207 128.351 104.79 128.988 104.479C129.624 104.167 130.339 104.012 131.131 104.012ZM149.313 109.868C149.313 110.208 149.291 110.562 149.249 110.929H141.037C141.094 111.665 141.327 112.231 141.737 112.627C142.162 113.009 142.678 113.2 143.286 113.2C144.192 113.2 144.821 112.818 145.175 112.054H149.037C148.839 112.832 148.478 113.532 147.955 114.155C147.445 114.777 146.802 115.265 146.024 115.619C145.246 115.973 144.376 116.149 143.414 116.149C142.254 116.149 141.221 115.902 140.316 115.407C139.41 114.912 138.703 114.204 138.194 113.285C137.684 112.365 137.43 111.29 137.43 110.059C137.43 108.829 137.677 107.754 138.172 106.834C138.682 105.915 139.389 105.207 140.294 104.712C141.2 104.217 142.239 103.969 143.414 103.969C144.559 103.969 145.578 104.21 146.469 104.691C147.36 105.172 148.054 105.858 148.549 106.749C149.058 107.64 149.313 108.68 149.313 109.868ZM145.599 108.914C145.599 108.291 145.387 107.796 144.963 107.428C144.538 107.06 144.008 106.876 143.371 106.876C142.763 106.876 142.247 107.053 141.822 107.407C141.412 107.761 141.157 108.263 141.058 108.914H145.599ZM164.997 113.348H159.437L158.546 115.98H154.748L160.137 101.083H164.339L169.729 115.98H165.888L164.997 113.348ZM164.063 110.547L162.217 105.094L160.392 110.547H164.063ZM174.998 100.277V115.98H171.369V100.277H174.998ZM188.789 109.868C188.789 110.208 188.768 110.562 188.725 110.929H180.513C180.57 111.665 180.803 112.231 181.213 112.627C181.638 113.009 182.154 113.2 182.762 113.2C183.668 113.2 184.297 112.818 184.651 112.054H188.513C188.315 112.832 187.954 113.532 187.431 114.155C186.922 114.777 186.278 115.265 185.5 115.619C184.722 115.973 183.852 116.149 182.89 116.149C181.73 116.149 180.697 115.902 179.792 115.407C178.886 114.912 178.179 114.204 177.67 113.285C177.16 112.365 176.906 111.29 176.906 110.059C176.906 108.829 177.153 107.754 177.649 106.834C178.158 105.915 178.865 105.207 179.77 104.712C180.676 104.217 181.716 103.969 182.89 103.969C184.036 103.969 185.054 104.21 185.945 104.691C186.837 105.172 187.53 105.858 188.025 106.749C188.534 107.64 188.789 108.68 188.789 109.868ZM185.075 108.914C185.075 108.291 184.863 107.796 184.439 107.428C184.014 107.06 183.484 106.876 182.847 106.876C182.239 106.876 181.723 107.053 181.298 107.407C180.888 107.761 180.633 108.263 180.534 108.914H185.075ZM194.332 106.113C194.756 105.462 195.287 104.953 195.923 104.585C196.56 104.203 197.267 104.012 198.045 104.012V107.853H197.048C196.142 107.853 195.463 108.051 195.011 108.447C194.558 108.829 194.332 109.508 194.332 110.484V115.98H190.703V104.139H194.332V106.113ZM206.379 112.903V115.98H204.533C203.217 115.98 202.191 115.661 201.456 115.025C200.72 114.374 200.352 113.32 200.352 111.863V107.152H198.91V104.139H200.352V101.253H203.981V104.139H206.358V107.152H203.981V111.906C203.981 112.259 204.066 112.514 204.236 112.669C204.405 112.825 204.688 112.903 205.084 112.903H206.379ZM213.217 116.149C212.184 116.149 211.265 115.973 210.458 115.619C209.652 115.265 209.015 114.784 208.549 114.176C208.082 113.554 207.82 112.86 207.763 112.097H211.35C211.392 112.507 211.583 112.839 211.923 113.094C212.262 113.348 212.679 113.476 213.174 113.476C213.627 113.476 213.974 113.391 214.214 113.221C214.469 113.037 214.596 112.804 214.596 112.521C214.596 112.181 214.419 111.934 214.066 111.778C213.712 111.608 213.139 111.425 212.347 111.227C211.498 111.028 210.791 110.823 210.225 110.611C209.659 110.385 209.171 110.038 208.761 109.571C208.351 109.09 208.145 108.447 208.145 107.64C208.145 106.961 208.329 106.346 208.697 105.794C209.079 105.228 209.631 104.783 210.352 104.457C211.088 104.132 211.958 103.969 212.962 103.969C214.448 103.969 215.615 104.337 216.464 105.073C217.326 105.808 217.822 106.785 217.949 108.001H214.596C214.54 107.591 214.356 107.265 214.044 107.025C213.747 106.785 213.351 106.664 212.856 106.664C212.432 106.664 212.106 106.749 211.88 106.919C211.654 107.075 211.541 107.294 211.541 107.577C211.541 107.916 211.717 108.171 212.071 108.341C212.439 108.51 213.005 108.68 213.769 108.85C214.646 109.076 215.36 109.303 215.912 109.529C216.464 109.741 216.945 110.095 217.355 110.59C217.779 111.071 217.998 111.722 218.013 112.542C218.013 113.235 217.815 113.858 217.418 114.409C217.036 114.947 216.478 115.371 215.742 115.683C215.021 115.994 214.179 116.149 213.217 116.149Z" fill="#29333D"/>
<path d="M81.5 74C81.5 67.6487 86.6487 62.5 93 62.5H368C374.351 62.5 379.5 67.6487 379.5 74V86.5H81.5V74Z" fill="white" stroke="#E54985"/>
<path fill-rule="evenodd" clip-rule="evenodd" d="M118.91 38.91C120.124 39.5396 121.247 40.3301 122.25 41.26L125.81 39.99L129.16 45.28L126.49 47.96C126.903 49.2557 127.138 50.6012 127.19 51.96L130.61 53.58L129.24 59.69H125.46C124.824 60.8972 124.034 62.0166 123.11 63.02L124.38 66.59L119.09 69.94L116.41 67.27C115.112 67.6734 113.768 67.9086 112.41 67.97L110.79 71.38L104.68 70.01V66.23C103.469 65.6002 102.349 64.8098 101.35 63.88L97.78 65.15L94.43 59.86L97.1 57.18C96.6903 55.8836 96.4549 54.5385 96.4 53.18L93 51.57L94.37 45.46H98.15C98.7761 44.244 99.5669 43.12 100.5 42.12L99.23 38.56L104.51 35.21L107.2 37.88C108.495 37.4656 109.841 37.2301 111.2 37.18L112.82 33.76L118.92 35.13V38.91H118.91ZM113.53 46.1C112.234 45.809 110.882 45.9089 109.643 46.3871C108.404 46.8653 107.335 47.7003 106.571 48.7864C105.807 49.8725 105.382 51.1608 105.351 52.4883C105.32 53.8158 105.683 55.1228 106.395 56.2438C107.107 57.3647 108.135 58.2493 109.35 58.7855C110.565 59.3217 111.911 59.4854 113.219 59.2558C114.527 59.0263 115.737 58.4139 116.697 57.4961C117.657 56.5783 118.322 55.3964 118.61 54.1C118.995 52.3657 118.676 50.5496 117.724 49.0499C116.771 47.5502 115.263 46.4894 113.53 46.1Z" fill="#F2718D"/>
</g>
<g clip-path="url(#clip1_2306_129468)">
<path d="M463.072 144.739C463.072 144.739 514.311 160.196 521.915 182.901C527.66 200.076 503.272 225.435 483.409 239.352L474.858 232.435L463.072 144.739Z" fill="#E55E7B"/>
<path d="M502.644 216.528C500.346 214.1 501.46 209.327 503.047 205.975C503.343 205.371 503.663 204.707 504.018 204.02C504.551 202.954 505.131 201.794 505.7 200.574L506.494 201.308C509.091 203.984 512.049 206.284 515.282 208.142L515.839 207.301C512.783 205.809 509.917 203.179 507.169 200.574L506.138 199.614C508.756 193.81 510.876 186.917 506.944 182.262C504.989 179.893 501.021 178.531 496.011 178.424H495.928C491.854 178.342 486.713 180.509 481.537 182.558C481.278 180.552 481.637 178.515 482.568 176.719C485.671 171.27 488.348 163.287 486.891 158.668C486.694 157.939 486.343 157.261 485.861 156.681C485.378 156.1 484.776 155.631 484.096 155.304C480.684 153.681 471.884 156.998 465.145 160.042L465.287 161.084C472.275 157.922 480.684 154.795 483.693 156.204C484.246 156.477 484.735 156.864 485.127 157.339C485.519 157.815 485.805 158.369 485.967 158.964C487.329 163.311 484.723 170.951 481.727 176.221C481.208 177.002 480.854 177.881 480.687 178.804C480.52 179.727 480.543 180.674 480.756 181.587C476.48 183.388 472.521 185.864 469.03 188.919L469.195 190.103C472.719 186.923 476.745 184.349 481.111 182.487C481.362 183.189 481.864 183.773 482.52 184.128C483.176 184.482 483.94 184.581 484.664 184.406L485.15 186.55C484.429 186.348 483.757 186.002 483.173 185.534C482.589 185.066 482.105 184.485 481.75 183.826C486.796 181.836 492.008 179.325 495.964 179.396H496.047C500.785 179.502 504.468 180.77 506.245 182.878C509.739 187.035 507.856 193.396 505.416 198.88C500.24 194.142 494.756 190.281 488.206 195.575C484.889 198.252 483.184 201.284 483.124 204.613C483.006 212.596 492.174 220.449 498.866 226.181L499.245 226.513L499.979 225.826L499.517 225.423C493.346 220.129 484.013 212.134 484.119 204.624C484.119 201.616 485.742 198.833 488.857 196.333C494.922 191.453 499.896 195.149 505.013 199.816C504.397 201.13 503.829 202.386 503.201 203.523L502.23 205.489C500.465 209.137 499.351 214.373 501.993 217.168C503.245 218.364 504.904 219.041 506.636 219.063L507.524 218.092C506.647 218.182 505.76 218.09 504.92 217.821C504.08 217.552 503.305 217.112 502.644 216.528Z" fill="#0A4DD0"/>
<path d="M496.983 159.13C495.723 160.471 494.748 162.053 494.117 163.781C493.485 165.51 493.211 167.348 493.311 169.186C493.364 170.253 493.742 171.278 494.394 172.125C495.046 172.972 495.941 173.599 496.959 173.923C501.034 175.487 507.927 174.385 514.406 171.708C514.145 171.448 513.873 171.175 513.601 170.927C507.477 173.39 501.034 174.409 497.326 172.988C496.489 172.734 495.749 172.228 495.209 171.539C494.669 170.851 494.353 170.012 494.306 169.138C494.218 167.4 494.489 165.662 495.1 164.032C495.711 162.402 496.65 160.915 497.859 159.663L496.983 159.13Z" fill="#0A4DD0"/>
<path d="M463.072 144.739C463.072 144.739 514.311 160.196 521.915 182.901C527.66 200.076 503.272 225.435 483.409 239.352L474.858 232.435L463.072 144.739Z" stroke="#0F110E" stroke-miterlimit="10"/>
<path d="M455.705 441.135L456.641 312.599L482.402 309.401L481.265 437.961L455.705 441.135Z" fill="#FFC8A5" stroke="#0F110E" stroke-miterlimit="10"/>
<path d="M455.705 441.135L481.265 437.961L481.692 388.842L456.072 390.488L455.705 441.135Z" fill="white" stroke="#0A4DD0" stroke-miterlimit="10"/>
<path d="M456.014 397.844L481.621 396.991L481.692 388.842L456.073 390.488L456.014 397.844Z" stroke="#0A4DD0" stroke-miterlimit="10"/>
<path d="M460.313 397.654L460.254 440.567" stroke="#0A4DD0" stroke-miterlimit="10"/>
<path d="M465.559 397.476V439.915" stroke="#0A4DD0" stroke-miterlimit="10"/>
<path d="M471.577 397.275L470.736 439.264" stroke="#0A4DD0" stroke-miterlimit="10"/>
<path d="M477.12 397.547L476.682 438.529" stroke="#0A4DD0" stroke-miterlimit="10"/>
<path d="M447.2 448.029C447.2 448.029 426.306 441.514 428.249 436.385C430.191 431.257 446.3 446.513 446.3 446.513C446.3 446.513 436.255 432.027 439.193 429.681C442.13 427.336 446.264 438.482 447.2 448.029Z" stroke="white" stroke-width="2" stroke-miterlimit="10"/>
<path d="M432.584 454.01L447.2 448.029" stroke="white" stroke-miterlimit="10"/>
<path d="M436.48 455.394L486.606 455.098L487.305 419.742H449.557L447.413 444.426L436.48 455.394Z" fill="#13004D"/>
<path d="M436.48 455.394L447.413 444.426L449.557 419.742" stroke="#F5FFF0" stroke-miterlimit="10"/>
<path d="M486.608 455.1L486.667 452.103C485.482 444.523 481.467 438.908 476.504 438.766C470.416 438.6 465.394 444.606 465.11 454.768C465.104 454.871 465.104 454.974 465.11 455.076L486.608 455.1Z" fill="white"/>
<path d="M411.383 437.736L428.131 310.301H454.082L437.133 437.736H411.383Z" fill="#FFC8A5" stroke="#0F110E" stroke-miterlimit="10"/>
<path d="M411.383 437.736H437.133L443.612 389.043L417.98 387.527L411.383 437.736Z" fill="white" stroke="#0A4DD0" stroke-miterlimit="10"/>
<path d="M417.021 394.823L442.546 397.121L443.612 389.043L417.981 387.527L417.021 394.823Z" stroke="#0A4DD0" stroke-miterlimit="10"/>
<path d="M421.309 395.155L415.967 437.736" stroke="#0A4DD0" stroke-miterlimit="10"/>
<path d="M426.532 395.629L421.309 437.736" stroke="#0A4DD0" stroke-miterlimit="10"/>
<path d="M432.525 396.162L426.531 437.736" stroke="#0A4DD0" stroke-miterlimit="10"/>
<path d="M437.998 397.121L432.525 437.736" stroke="#0A4DD0" stroke-miterlimit="10"/>
<path d="M402.097 443.54C402.097 443.54 382.162 434.49 384.733 429.646C387.303 424.802 401.398 441.917 401.398 441.917C401.398 441.917 393.225 426.318 396.399 424.34C399.574 422.362 402.345 433.993 402.097 443.54Z" stroke="white" stroke-width="2" stroke-miterlimit="10"/>
<path d="M386.854 447.673L402.097 443.528" stroke="white" stroke-width="2" stroke-miterlimit="10"/>
<path d="M389.826 455.396H440.331L445.377 420.395L405.994 418.986L402.76 439.998L389.826 455.396Z" fill="#13004D"/>
<path d="M440.331 455.396L440.757 452.435C440.544 444.76 437.204 438.707 432.312 437.949C426.295 437.037 420.183 444.44 418.644 454.531C418.644 454.839 418.573 455.135 418.537 455.432L440.331 455.396Z" fill="white"/>
<path d="M485.363 222.829C485.363 222.829 498.12 329.548 498.783 352.373L466.886 353.19L464.043 285.83L461.248 221.373L485.363 222.829Z" fill="#0A4DD0" stroke="#0F110E" stroke-miterlimit="10"/>
<path d="M425.408 217.428L397.49 351.484L462.303 353.178L472.004 267.495L477.594 215.059L425.408 217.428Z" fill="#0A4DD0"/>
<path d="M419.082 248.994C419.082 248.994 434.136 246.08 434.042 228.467" stroke="#0F110E" stroke-miterlimit="10"/>
<path d="M425.408 217.428L397.49 351.484L462.303 353.178L472.004 267.495H477.346" stroke="#0F110E" stroke-miterlimit="10"/>
<path d="M469.799 147.356C466.826 145.212 464.173 146.243 460.442 146.243C439.276 146.243 421.888 182.961 419.922 229.829H489.52C486.547 191.548 483.657 157.377 469.799 147.356Z" fill="#E55E7B"/>
<path d="M488.265 214.361C486.342 213.41 484.728 211.935 483.608 210.105C482.489 208.275 481.911 206.165 481.94 204.02C481.967 199.355 483.305 194.791 485.802 190.849C485.719 190.293 485.648 189.724 485.577 189.179C482.506 193.502 480.851 198.67 480.839 203.973C480.673 208.877 483.492 213.247 488.408 215.687C488.337 215.237 488.337 214.799 488.265 214.361Z" fill="#0A4DD0"/>
<path d="M456.001 201.722C458.567 198.229 461.604 195.107 465.027 192.448C471.522 187.11 477.571 181.252 483.113 174.93C483.019 174.492 482.912 174.054 482.817 173.615C477.175 180.111 470.989 186.114 464.328 191.56C460.661 194.417 457.426 197.787 454.722 201.568C454.426 201.568 454.118 201.568 453.81 201.568C446.395 201.817 438.246 209.658 431.46 223.078C430.277 225.456 428.902 227.734 427.35 229.889H428.735C430.118 227.876 431.36 225.77 432.455 223.587C439.064 210.558 446.857 202.919 453.846 202.682H453.988C448.871 210.416 447.059 218.79 449.582 225.506C450.179 227.076 451.005 228.549 452.033 229.877H453.455C452.242 228.477 451.287 226.873 450.636 225.139C448.16 218.589 450.067 210.357 455.267 202.765C459.318 203.215 462.926 206.125 466.093 211.494C469.877 218.041 474.288 224.206 479.264 229.9H480.768C475.554 224.077 470.961 217.725 467.064 210.949C463.854 205.477 460.147 202.409 456.001 201.722Z" fill="#0A4DD0"/>
<path d="M421.889 209.007C421.806 209.575 421.735 210.191 421.652 210.724C426.096 206.795 430.797 203.166 435.724 199.863C439.182 197.423 442.416 195.125 444.939 192.981C446.311 193.908 447.926 194.411 449.582 194.426H450.008C455.989 194.107 462.528 187.32 469.445 174.291C471.767 169.811 475.64 166.329 480.342 164.495L479.986 163.441C475.012 165.361 470.913 169.035 468.462 173.77C463.842 182.463 456.878 192.922 449.949 193.289C448.493 193.349 447.054 192.961 445.827 192.176C448.279 189.949 449.89 187.841 450.091 185.792C450.147 185.09 450.047 184.385 449.797 183.728C449.547 183.07 449.154 182.476 448.646 181.99C446.384 179.621 443.186 179.739 439.573 181.243C439.542 178.638 439.861 176.041 440.521 173.521C445.377 170.323 450.884 166.165 456.949 161.593C461.841 157.91 466.993 154.013 472.347 150.282C472.359 150.09 472.319 149.899 472.232 149.728C472.144 149.557 472.012 149.413 471.849 149.311C466.661 152.982 461.106 157.093 456.321 160.705C450.825 164.851 445.661 168.748 441.018 171.863C443.221 164.128 447.663 155.517 451.868 148.375C451.216 148.695 450.577 149.05 449.937 149.441C448.942 151.17 447.947 152.994 446.976 154.783C443.834 160.495 441.354 166.547 439.585 172.822C436.582 174.891 433.351 176.608 429.955 177.939C434.433 172.787 437.145 167.883 437.891 163.927C438.04 163.146 438.111 162.353 438.104 161.558C437.666 162.209 437.24 162.873 436.825 163.56V163.749C435.823 167.867 433.863 171.69 431.104 174.907L430.216 177.062C429.92 177.809 429.624 178.567 429.339 179.336C432.855 178.159 436.192 176.501 439.253 174.409C438.697 176.815 438.466 179.285 438.566 181.753C434.551 183.672 430.097 187.047 425.845 190.352C425.845 190.553 425.739 190.766 425.679 190.968C425.585 191.359 425.478 191.738 425.383 192.152L425.49 192.069C429.872 188.658 434.551 184.963 438.673 182.961C438.875 184.912 439.536 186.787 440.603 188.433C441.582 189.91 442.78 191.228 444.157 192.342C441.705 194.403 438.566 196.618 435.214 198.987C430.586 202.07 426.137 205.416 421.889 209.007ZM441.456 187.77C440.423 186.162 439.808 184.322 439.668 182.416C443.008 180.959 445.898 180.722 447.829 182.771C448.238 183.135 448.558 183.588 448.763 184.095C448.969 184.603 449.054 185.151 449.013 185.697C448.835 187.486 447.284 189.44 444.927 191.548C443.573 190.485 442.401 189.209 441.456 187.77Z" fill="#0A4DD0"/>
<path d="M489.52 229.877C486.547 191.548 483.598 157.377 469.799 147.404C466.826 145.26 464.173 146.29 460.442 146.29C439.276 146.29 421.888 183.008 419.922 229.877H489.52Z" stroke="#0F110E" stroke-miterlimit="10"/>
<path d="M362.43 105.237C362.43 105.237 358.723 95.7618 358.675 94.5773C358.628 93.3929 359.765 91.8294 360.097 91.2846C360.642 90.3852 361.303 89.5609 362.063 88.8328C362.641 88.4028 363.162 87.9014 363.614 87.3404C363.614 87.3404 364.064 86.9732 363.614 86.0138C363.164 85.0544 361.624 80.897 362.264 78.836C362.904 76.7751 364.941 77.6516 365.817 80.1981C367.084 83.5396 368.523 86.8131 370.129 90.0054C370.839 91.4149 371.645 90.9766 371.657 90.3725C371.669 89.7685 371.432 84.3319 371.432 82.9224C371.432 81.5129 373.256 81.6432 374.215 84.1068C375.175 86.5705 385.61 117.627 385.61 117.627L368.707 121.5L362.43 105.237Z" fill="#FFC8A5"/>
<path d="M363.97 87.21C363.58 87.3101 363.215 87.4929 362.901 87.7459C362.587 87.9989 362.332 88.3164 362.151 88.6767C361.97 89.0371 361.869 89.432 361.854 89.8349C361.838 90.2377 361.91 90.6391 362.063 91.012C362.532 92.8128 363.275 94.5307 364.266 96.1052" stroke="#FF8576" stroke-miterlimit="10"/>
<path d="M361.862 89.2354C361.203 89.5996 360.687 90.1757 360.397 90.8701C360.107 91.5645 360.06 92.3365 360.263 93.0611C360.737 94.582 361.34 96.0599 362.063 97.4791" stroke="#FF8576" stroke-miterlimit="10"/>
<path d="M359.718 91.9242C359.718 91.9242 357.894 92.1374 358.901 95.5486C359.908 98.9598 368.708 121.5 368.708 121.5L385.61 117.331C385.61 117.331 375.673 87.9681 374.784 85.4571C373.896 82.9461 372.131 80.7193 371.515 82.5433C370.899 84.3674 372.297 91.0358 371.326 91.1424C370.354 91.249 369.442 88.5367 368.483 86.4046C367.524 84.2726 365.392 78.0306 363.745 77.6634C361.791 77.237 360.701 80.743 366.683 94.1154" stroke="#FF8576" stroke-miterlimit="10"/>
<path d="M433.414 197.589C424.461 195.219 415.74 192.048 407.356 188.113C393.238 181.504 380.114 174.824 377.449 170.441C374.104 164.906 371.762 158.823 370.532 152.473C369.253 145.366 367.334 125.645 367.334 125.645L388.168 118.633C388.168 118.633 395.275 130.632 399.539 135.63C403.803 140.629 405.935 142.654 408.02 142.737L447.331 145.414C447.331 145.414 462.362 146.006 461.178 148.742C459.993 151.478 433.414 197.589 433.414 197.589Z" fill="#E55E7B"/>
<path d="M438.589 182.89C438.746 184.219 439.101 185.516 439.643 186.739C439.88 186.337 440.117 185.922 440.354 185.496C440.005 184.487 439.774 183.442 439.667 182.38C440.64 181.939 441.662 181.613 442.711 181.409L443.422 180.166C442.093 180.323 440.796 180.679 439.572 181.22C439.541 178.615 439.86 176.017 440.52 173.497C443.99 171.211 447.792 168.439 451.879 165.384C452.352 164.554 452.814 163.749 453.265 162.944C448.894 166.236 444.748 169.304 440.97 171.839C443.434 163.192 448.704 153.421 453.312 145.876L452.056 145.745C450.374 148.529 448.61 151.585 446.928 154.759C443.785 160.471 441.306 166.523 439.537 172.798C436.534 174.867 433.303 176.584 429.907 177.915C434.384 172.763 437.097 167.859 437.843 163.903C438.192 162.554 438.207 161.141 437.887 159.785C437.568 158.429 436.922 157.172 436.007 156.121C434.928 154.922 433.538 154.045 431.992 153.586C434.411 150.888 436.539 147.942 438.34 144.798L437.156 144.715C435.296 147.775 433.159 150.657 430.772 153.326C427.858 152.911 424.554 153.788 420.763 154.806C414.415 156.512 406.55 158.644 396.198 155.991L395.985 155.92C397.818 154.018 399.53 152.005 401.113 149.891C403.038 147.286 405.216 144.878 407.616 142.701C407.203 142.617 406.804 142.474 406.431 142.275C404.15 144.39 402.072 146.713 400.225 149.216C398.556 151.444 396.744 153.56 394.8 155.553C393.377 155.153 392.068 154.422 390.981 153.419C389.894 152.417 389.06 151.171 388.546 149.784C386.414 143.578 390.702 134.505 394.338 128.405L393.651 127.339C389.837 133.593 385.147 143.294 387.492 150.152C388.021 151.618 388.878 152.944 389.996 154.03C391.115 155.116 392.466 155.932 393.947 156.417C388.822 161.458 383.135 165.893 376.998 169.636C377.14 169.896 377.294 170.181 377.448 170.418C377.602 170.654 377.531 170.536 377.555 170.583C383.92 166.702 389.807 162.086 395.096 156.832C395.357 156.915 395.618 157.01 395.89 157.081C406.491 159.829 414.557 157.661 421.036 155.896C424.471 154.972 427.372 154.191 429.895 154.368C423.772 161.664 417.009 169.896 420.787 176.719C421.165 177.466 421.706 178.12 422.37 178.63C423.034 179.141 423.805 179.495 424.625 179.668C425.288 179.794 425.965 179.83 426.638 179.775C422.54 183.821 418.071 187.473 413.289 190.683L414.628 191.24C419.65 187.839 424.293 183.908 428.474 179.514C432.279 178.38 435.878 176.645 439.134 174.374C438.578 176.78 438.347 179.25 438.447 181.717C434.1 183.79 429.232 187.58 424.684 191.122C423.499 192.022 422.386 192.922 421.249 193.775L422.504 194.225C423.44 193.514 424.388 192.768 425.371 192.01C429.789 188.622 434.467 184.974 438.589 182.89ZM427.929 178.472C426.935 178.707 425.904 178.739 424.897 178.567C424.236 178.432 423.614 178.148 423.079 177.738C422.543 177.328 422.108 176.801 421.806 176.198C418.335 169.944 425.098 161.889 431.056 154.783L431.222 154.581C432.774 154.927 434.176 155.756 435.225 156.95C436.026 157.869 436.587 158.972 436.858 160.16C437.129 161.349 437.101 162.586 436.777 163.761C435.853 168.463 432.549 173.568 427.929 178.507V178.472Z" fill="#0A4DD0"/>
<path d="M405.935 184.311C405.366 175.878 404.75 167.172 400.617 164.803C398.947 163.856 396.826 164.022 394.327 165.289C389.729 167.717 385.534 170.841 381.891 174.551C382.199 174.764 382.495 174.978 382.826 175.191C386.352 171.638 390.398 168.643 394.825 166.308C397.004 165.206 398.722 165.04 400.06 165.798C403.708 167.871 404.3 176.66 404.798 184.406C404.798 185.282 404.916 186.147 404.975 186.988L406.16 187.545C406.089 186.443 406.006 185.377 405.935 184.311Z" fill="#0A4DD0"/>
<path d="M368.554 137.194C372.96 136.211 376.964 135.926 379.356 137.194C379.911 137.462 380.39 137.865 380.75 138.366C381.11 138.866 381.339 139.449 381.417 140.06C381.95 143.199 376.892 146.729 370.2 150.329C370.2 150.744 370.319 151.135 370.378 151.514C377.911 147.51 383.17 143.767 382.519 139.882C382.411 139.098 382.113 138.353 381.65 137.711C381.188 137.068 380.575 136.549 379.865 136.199C377.26 134.86 373.031 135.133 368.436 136.128C368.483 136.459 368.518 136.827 368.554 137.194Z" fill="#0A4DD0"/>
<path d="M398.213 142.109L459.674 146.278" stroke="#0F110E" stroke-miterlimit="10"/>
<path d="M431.957 197.589C431.957 197.589 388.903 182.949 378.255 171.365C367.606 159.781 367.145 119.948 367.145 119.948L385.894 115.495C385.894 115.495 397.455 135.63 406.101 142.642" stroke="#0F110E" stroke-miterlimit="10"/>
<path d="M385.894 115.495L367.145 119.948C367.145 119.948 367.145 123.667 367.559 129.163L390.833 123.513C387.896 118.93 385.894 115.495 385.894 115.495Z" fill="#0A4DD0" stroke="#0F110E" stroke-miterlimit="10"/>
<path d="M369.82 119.309L371.573 127.789" stroke="#0F110E" stroke-miterlimit="10"/>
<path d="M373.268 118.598L375.506 127.221" stroke="#0F110E" stroke-miterlimit="10"/>
<path d="M376.904 117.627L379.901 126.155" stroke="#0F110E" stroke-miterlimit="10"/>
<path d="M380.303 116.821L383.631 125.255" stroke="#0F110E" stroke-miterlimit="10"/>
<path d="M383.336 116.099L386.925 124.461" stroke="#0F110E" stroke-miterlimit="10"/>
<path d="M453.277 147.581H466.721V123.632H453.277V147.581Z" fill="#FFC8A5"/>
<path d="M480.161 109.909C480.378 110.633 480.805 111.276 481.388 111.757C481.972 112.238 482.685 112.534 483.437 112.609C484.189 112.684 484.946 112.533 485.613 112.177C486.279 111.82 486.825 111.274 487.18 110.607C487.536 109.939 487.685 109.182 487.608 108.43C487.532 107.678 487.234 106.965 486.752 106.383C486.271 105.8 485.627 105.374 484.902 105.159C484.178 104.943 483.405 104.947 482.684 105.171C481.724 105.469 480.92 106.134 480.448 107.021C479.975 107.909 479.872 108.946 480.161 109.909Z" fill="#B86955"/>
<path d="M485.487 105.162C489.348 113.548 499.617 117.006 508.418 113.003C517.218 108.999 521.234 98.8722 517.372 90.4982C513.511 82.1241 503.254 78.6537 494.453 82.669C485.653 86.6842 481.578 96.7876 485.487 105.162Z" fill="#B86955"/>
<path d="M442.837 120L436 116.848L445 110L442.837 120Z" fill="#FFC8A5"/>
<path d="M468.202 125.029C468.13 125.373 468.036 125.716 467.941 126.036C467.944 126.434 467.905 126.831 467.822 127.221L468.202 125.053L452.97 133.143V133.072L448.409 132.065C443.162 130.881 439.952 125.065 441.303 119.095L444.003 106.86C445.33 100.938 450.707 96.9462 455.954 98.1188L463.843 99.8599C469.09 101.044 472.3 106.86 470.949 112.83L468.202 125.029Z" fill="white"/>
<path d="M454.58 133.392L448.421 132.029C443.174 130.845 439.964 125.029 441.314 119.06L444.015 106.824C445.342 100.902 450.719 96.9105 455.966 98.0831L463.854 99.8243C469.102 101.009 472.311 106.824 470.961 112.794L468.261 125.029C468.178 125.373 468.083 125.716 467.988 126.036C467.992 126.434 467.952 126.831 467.87 127.221" fill="#FFC8A5"/>
<path d="M451.832 114.76C451.81 115.115 451.684 115.456 451.468 115.74C451.253 116.023 450.959 116.236 450.623 116.352C450.286 116.469 449.923 116.483 449.579 116.392C449.235 116.302 448.925 116.112 448.689 115.846C448.452 115.58 448.3 115.25 448.251 114.898C448.203 114.545 448.259 114.186 448.414 113.866C448.569 113.546 448.816 113.279 449.123 113.098C449.43 112.918 449.783 112.833 450.138 112.853C450.375 112.865 450.607 112.924 450.821 113.027C451.035 113.13 451.227 113.274 451.385 113.452C451.542 113.629 451.663 113.836 451.74 114.061C451.817 114.286 451.848 114.523 451.832 114.76Z" fill="black"/>
<path d="M460.431 122.779C460.373 123.813 460.01 124.806 459.388 125.633C458.766 126.461 457.912 127.085 456.935 127.427C455.958 127.77 454.902 127.815 453.899 127.557C452.897 127.299 451.993 126.749 451.303 125.978C450.612 125.206 450.166 124.248 450.021 123.223C449.875 122.198 450.037 121.152 450.485 120.219C450.934 119.286 451.649 118.507 452.54 117.98C453.431 117.453 454.458 117.202 455.492 117.259C456.878 117.339 458.176 117.964 459.102 118.999C460.027 120.033 460.505 121.393 460.431 122.779Z" fill="#ED80A5"/>
<path d="M441.196 125.539C441.728 125.864 442.337 126.044 442.96 126.06C443.679 126.07 444.392 125.933 445.056 125.659C445.72 125.384 446.321 124.976 446.822 124.461C447.236 124.07 446.608 123.442 446.194 123.833C445.769 124.271 445.258 124.615 444.694 124.846C444.129 125.076 443.523 125.187 442.913 125.172C442.585 125.132 442.263 125.053 441.954 124.935C441.859 124.935 442.037 124.935 441.954 124.935H441.871H441.764L441.658 124.875C441.172 124.556 440.734 125.326 441.207 125.634L441.196 125.539Z" fill="#FF8576"/>
<path d="M467.337 122.388L466.152 118.598C457.376 115.78 449.795 110.105 444.619 102.477C435.546 89.4486 440.9 82.5788 446.147 81.5838C451.394 80.5889 455.753 93.0137 455.753 93.0137C455.753 93.0137 453.005 84.9121 458.631 84.6634C464.257 84.4147 467.893 95.6669 467.893 95.6669C467.893 95.6669 487.437 103.958 481.503 122.53C481.503 122.53 478.364 133.403 466.377 133.877" fill="#B86955"/>
<path d="M475.828 123.549C475.689 124.729 475.203 125.841 474.431 126.744C473.659 127.647 472.635 128.3 471.491 128.62C470.347 128.94 469.134 128.913 468.005 128.542C466.876 128.171 465.883 127.473 465.152 126.537C464.421 125.6 463.985 124.468 463.899 123.283C463.812 122.098 464.081 120.914 464.669 119.882C465.257 118.849 466.139 118.015 467.202 117.485C468.265 116.955 469.462 116.753 470.64 116.904C471.419 116.995 472.173 117.239 472.856 117.624C473.54 118.008 474.141 118.524 474.623 119.142C475.106 119.76 475.461 120.468 475.668 121.225C475.875 121.981 475.929 122.771 475.828 123.549Z" fill="#FFC8A5"/>
<path d="M467.016 123.158C467.016 123.158 467.016 123.087 467.016 123.051C467.016 123.016 467.016 123.193 467.016 123.051C467.021 122.996 467.021 122.941 467.016 122.885C467.076 122.591 467.159 122.302 467.265 122.021C467.265 122.104 467.324 121.891 467.265 122.021V121.914L467.407 121.642C467.456 121.558 467.511 121.479 467.573 121.405V121.334L467.68 121.204L467.893 120.99C467.893 120.99 468.035 120.884 467.976 120.919L468.059 120.86L468.343 120.694H468.402L468.604 120.623L469.03 120.517H469.433C469.8 120.507 470.167 120.55 470.522 120.647C471.138 120.789 471.399 119.853 470.783 119.711C470.162 119.512 469.502 119.473 468.862 119.597C468.222 119.721 467.624 120.005 467.123 120.422C466.512 121.008 466.098 121.77 465.939 122.601C465.89 122.811 465.858 123.025 465.844 123.241C465.844 123.37 465.895 123.493 465.986 123.584C466.077 123.675 466.201 123.726 466.329 123.726C466.458 123.726 466.582 123.675 466.673 123.584C466.764 123.493 466.815 123.37 466.815 123.241L467.016 123.158Z" fill="#FF8576"/>
<path d="M454.068 149.61L467.404 149.403C469.294 149.374 470.802 147.818 470.773 145.927L470.726 142.872C470.696 140.982 469.14 139.473 467.25 139.502L453.914 139.71C452.024 139.739 450.516 141.295 450.545 143.185L450.593 146.241C450.622 148.131 452.178 149.64 454.068 149.61Z" fill="#0A4DD0" stroke="#0F110E" stroke-miterlimit="10"/>
<path d="M460.175 139.571L459.678 139.579L459.833 149.48L460.331 149.472L460.175 139.571Z" fill="#0F110E"/>
<path d="M464.174 139.527L464.672 139.515L464.281 149.429H463.783L464.174 139.527Z" fill="#0F110E"/>
<path d="M455.787 139.657L456.285 139.646L455.882 149.559H455.385L455.787 139.657Z" fill="#0F110E"/>
<path d="M452.222 149.145L452.08 140.19C452.24 140.092 452.406 140.005 452.578 139.93L452.72 149.405C452.546 149.333 452.38 149.246 452.222 149.145Z" fill="#0F110E"/>
<path d="M468.533 149.216C468.37 149.265 468.204 149.301 468.035 149.322L468.462 139.634C468.628 139.689 468.791 139.756 468.947 139.835L468.533 149.216Z" fill="#0F110E"/>
</g>
<defs>
<clipPath id="clip0_2306_129468">
<rect width="602" height="500" fill="white"/>
</clipPath>
<clipPath id="clip1_2306_129468">
<rect width="166" height="379" fill="white" transform="translate(358 77)"/>
</clipPath>
</defs>
</svg>
