<svg width="24" height="24" viewBox="0 0 24 24" fill="none" xmlns="http://www.w3.org/2000/svg">
<path d="M14.2492 23.9998L10.9492 23.5498V5.17505H14.2492V23.9998Z" fill="#B0BDC6"/>
<path d="M16.6125 5.17505H14.25V23.9998L16.6125 21.7123V5.17505Z" fill="#7D8B91"/>
<path d="M6.44992 3.1875C5.73743 3.1875 5.06244 3.2625 4.46244 3.45C1.61248 4.23749 0 6.71246 0 10.0499V16.4248L13.3873 18.7123V10.9499C13.3873 6.89995 10.5374 3.1875 6.44992 3.1875Z" fill="#697277"/>
<path d="M13.3873 18.7122L0 16.4247L13.3873 10.3123V18.7122Z" fill="#94989B"/>
<path d="M16.4998 12.9752L12.2624 9.82524L14.3624 5.36279C14.5124 5.51279 14.6624 5.73779 14.7374 6.00029L16.4998 12.2627C16.5373 12.5252 16.5373 12.7877 16.4998 12.9752ZM2.9625 6.60028L8.99992 10.5752L5.81246 16.8377C5.54997 16.6877 5.32497 16.4252 5.24997 16.0502L2.85 7.53777C2.775 7.16277 2.8125 6.86277 2.9625 6.60028Z" fill="#B0BDC6"/>
<path d="M11.287 11.9994L12.262 9.82446L16.4995 12.9744C16.4245 13.1619 16.3495 13.3119 16.1995 13.3494L6.5996 16.8744C6.3371 16.9869 6.07461 16.9119 5.84961 16.7994L8.99957 10.5745L11.287 11.9994Z" fill="#CAD5DD"/>
<path d="M3.56288 6.18754L13.8753 5.17505C14.0253 5.17505 14.2128 5.25005 14.3628 5.36255L12.2628 9.82499L11.2878 12L9.00032 10.575L2.96289 6.60003C3.07539 6.37503 3.30039 6.22504 3.56288 6.18754Z" fill="#DFE9EF"/>
<path d="M17.5502 0C14.7753 0 6.18787 2.88746 4.46289 3.44996C5.06288 3.29996 5.73788 3.18746 6.45037 3.18746C10.5378 3.18746 13.3878 6.89992 13.3878 10.9499V18.7123L24.0002 12.3373V6.37492C24.0002 2.36247 21.6002 0 17.5502 0Z" fill="#333333"/>
<path d="M13.9492 2.39983V13.3497L14.9992 12.8622V5.84979L19.1992 4.23731V0.599854L13.9492 2.39983Z" fill="#ED4C5C"/>
</svg>
