<svg width="702" height="421" viewBox="0 0 702 421" fill="none" xmlns="http://www.w3.org/2000/svg">
<path d="M116.48 418.789C116.48 418.789 14.1647 398.498 8.95144 326.841C2.94764 244.352 85.5199 243.449 72.8519 183.659C55.1707 100.217 89.7426 50.5064 167.192 53.9268C232.513 56.8255 287.608 108.09 322.55 64.0173C360.314 16.4736 430.758 -18.6525 500.523 10.7964C570.287 40.2454 560.01 135.925 608.261 156.236C656.511 176.547 708.754 230.199 700.319 304.384C692.444 374.044 628.414 420.234 569.086 419.531C540.008 419.19 427.156 419.923 325.742 419.531C220.225 419.18 116.48 418.789 116.48 418.789Z" fill="#DEE3FF"/>
<path d="M631.765 134.039C631.765 134.039 608.14 96.4751 638.189 75.2711C668.238 54.067 701.229 93.9275 693.074 122.895C684.918 151.863 641.491 150.228 631.765 134.039Z" fill="#DEE3FF"/>
<path d="M27.5934 168.793C27.5934 168.793 11.5832 156.757 23.1305 140.779C34.6778 124.8 62.4154 132.965 57.9826 152.223C55.9613 161.01 44.6442 180.258 27.5934 168.793Z" fill="#DEE3FF"/>
<path d="M559.24 419.09C550.834 419.682 516.883 420.223 522.887 391.406C525.959 376.682 518.154 375.057 510.599 367.634C503.044 360.212 503.945 356.551 506.256 348.426C508.568 340.302 498.171 343.08 496.16 330.843C494.149 318.606 501.763 308.385 514.932 308.446C528.1 308.506 525.148 322.217 529.441 327.272C533.734 332.328 540.378 327.674 544.771 339.72C549.163 351.766 542.769 358.978 551.185 363.692C552.876 364.673 554.459 365.829 555.908 367.143" stroke="#7189FF" stroke-miterlimit="10"/>
<path d="M545.102 386.311C538.591 373.037 531.713 359.958 524.469 347.072C522.02 342.699 519.529 338.353 516.994 334.033C516.887 333.874 516.724 333.762 516.537 333.72C516.351 333.677 516.155 333.708 515.991 333.805C515.826 333.903 515.704 334.059 515.651 334.243C515.598 334.427 515.616 334.625 515.703 334.795C523.815 348.677 531.523 362.79 538.828 377.133C540.509 380.436 542.176 383.753 543.831 387.083C544.261 387.956 545.552 387.194 545.132 386.321L545.102 386.311Z" fill="#7189FF"/>
<path d="M511.479 358.688L528.26 360.433L530.681 360.684C531.682 360.784 531.682 359.28 530.681 359.18L513.89 357.434L511.479 357.184C510.478 357.083 510.478 358.588 511.479 358.688Z" fill="#7189FF"/>
<path d="M518.194 348.968C518.278 349.56 518.179 350.164 517.911 350.699C517.643 351.234 517.218 351.674 516.694 351.96C516.169 352.246 515.57 352.365 514.977 352.301C514.383 352.237 513.823 351.992 513.372 351.601C512.921 351.209 512.599 350.688 512.451 350.109C512.303 349.529 512.335 348.918 512.543 348.356C512.75 347.795 513.124 347.311 513.613 346.969C514.103 346.626 514.685 346.442 515.282 346.44C516.002 346.39 516.713 346.628 517.258 347.102C517.804 347.575 518.14 348.246 518.194 348.968Z" stroke="#7189FF" stroke-miterlimit="10"/>
<path d="M524.657 326.27C524.366 326.763 523.935 327.158 523.42 327.407C522.905 327.655 522.328 327.746 521.762 327.667C521.196 327.588 520.665 327.343 520.237 326.963C519.809 326.583 519.503 326.085 519.357 325.531C519.21 324.977 519.23 324.392 519.414 323.849C519.598 323.307 519.938 322.831 520.391 322.481C520.844 322.132 521.39 321.924 521.96 321.884C522.531 321.844 523.1 321.974 523.597 322.258C523.932 322.449 524.225 322.705 524.461 323.011C524.696 323.317 524.868 323.667 524.967 324.041C525.065 324.414 525.089 324.804 525.036 325.186C524.983 325.569 524.854 325.937 524.657 326.27Z" stroke="#7189FF" stroke-miterlimit="10"/>
<path d="M536.345 392.299C536.452 393.037 536.33 393.791 535.997 394.458C535.664 395.125 535.136 395.675 534.483 396.033C533.83 396.391 533.083 396.54 532.343 396.461C531.603 396.382 530.905 396.078 530.342 395.59C529.779 395.102 529.378 394.453 529.193 393.731C529.008 393.008 529.047 392.246 529.306 391.546C529.566 390.847 530.032 390.244 530.642 389.817C531.253 389.39 531.979 389.161 532.723 389.16C533.617 389.101 534.498 389.398 535.176 389.985C535.854 390.573 536.274 391.404 536.345 392.299Z" stroke="#7189FF" stroke-miterlimit="10"/>
<path d="M519.473 318.817C519.473 319.073 519.397 319.323 519.255 319.536C519.113 319.748 518.912 319.914 518.676 320.012C518.441 320.11 518.181 320.135 517.931 320.086C517.681 320.036 517.451 319.912 517.27 319.732C517.09 319.551 516.967 319.32 516.917 319.069C516.868 318.818 516.893 318.558 516.991 318.322C517.088 318.086 517.254 317.884 517.466 317.741C517.678 317.599 517.927 317.523 518.183 317.523C518.525 317.523 518.853 317.66 519.095 317.902C519.337 318.145 519.473 318.474 519.473 318.817Z" stroke="#7189FF" stroke-miterlimit="10"/>
<path d="M608.701 416.291C601.697 411.276 601.057 379.761 629.585 373.372C644.154 370.112 641.822 362.8 644.764 353.401C647.706 344.003 651.398 343.301 659.774 342.027C668.149 340.753 661.845 329.349 671.781 322.759C681.718 316.169 694.966 315.647 699.919 330.071C704.112 342.288 692.234 347.664 689.813 353.341C687.391 359.018 694.436 366.692 685.81 375.258C677.185 383.823 668.029 377.374 667.919 386.441C667.809 395.509 663.786 412.029 655.061 415.429C644.254 419.642 614.195 420.183 608.701 416.291Z" stroke="#7189FF" stroke-miterlimit="10"/>
<path d="M618.387 419.882C622.239 415.278 626.232 410.794 630.094 406.201C639.694 394.793 649.06 383.181 658.192 371.365C664.823 362.813 671.334 354.16 677.725 345.407C678.305 344.625 676.994 343.872 676.434 344.655C665.7 359.366 654.6 373.813 643.133 387.996C635.995 396.829 628.733 405.559 621.349 414.185C620.018 415.729 618.637 417.254 617.346 418.819C616.736 419.551 617.787 420.624 618.407 419.882H618.387Z" fill="#7189FF"/>
<path d="M628.093 373.743C627.443 368.457 626.612 363.281 626.092 358.477C624.161 338.918 651.108 347.664 661.764 322.558C672.421 297.452 646.255 288.345 658.582 277.843C670.91 267.341 674.362 231.252 656.291 225.044C632.876 217.019 611.833 231.714 608.971 251.122C606.76 266.068 616.766 276.509 590.739 287.472C564.713 298.435 568.726 312.046 574.079 338.075C579.432 364.104 561.831 354.565 548.162 376.541C537.426 393.934 552.605 411.688 559.44 418.318L612.123 419.22" stroke="#7189FF" stroke-miterlimit="10"/>
<path d="M570.128 418.318C572.263 413.363 574.407 408.411 576.562 403.463C581.865 391.279 587.185 379.099 592.522 366.923C599.326 351.409 606.171 335.905 613.055 320.412C619.726 305.44 626.467 290.492 633.278 275.567C638.081 265.135 642.854 254.653 648.117 244.473C648.518 243.69 648.928 242.908 649.338 242.135C649.748 241.363 648.508 240.521 648.047 241.373C643.044 250.792 638.591 260.541 634.108 270.23C627.394 284.754 620.83 299.318 614.306 313.963C607.341 329.576 600.424 345.214 593.553 360.874C587.929 373.666 582.329 386.475 576.752 399.3C574.14 405.319 571.389 411.246 568.937 417.305C568.937 417.385 568.867 417.475 568.827 417.556C568.447 418.438 569.738 419.201 570.128 418.318Z" fill="#7189FF"/>
<path d="M618.127 308.365L649.047 306.65L653.45 306.399C654.45 306.349 654.45 304.845 653.45 304.895L622.53 306.61L618.127 306.861C617.127 306.911 617.127 308.415 618.127 308.365Z" fill="#7189FF"/>
<path d="M582.455 388.999L606.891 386.251L610.313 385.86C611.264 385.76 611.314 384.245 610.313 384.355L585.887 387.084L582.465 387.465C581.465 387.575 581.465 389.08 582.465 388.969L582.455 388.999Z" fill="#7189FF"/>
<path d="M579.162 300.462L586.167 316.26L597.304 341.336L599.896 347.143C600.286 348.026 601.577 347.264 601.186 346.391L594.182 330.583L583.035 305.508L580.453 299.69C580.063 298.807 578.772 299.57 579.162 300.452V300.462Z" fill="#7189FF"/>
<path d="M630.113 246.82C628.392 249.358 625.38 250.321 623.399 248.967C621.418 247.613 621.208 244.463 622.939 241.945C624.67 239.428 627.672 238.435 629.653 239.789C631.634 241.143 631.845 244.273 630.113 246.82Z" stroke="#7189FF" stroke-miterlimit="10"/>
<path d="M631.387 260.571C631.387 261.053 631.244 261.525 630.977 261.926C630.71 262.326 630.33 262.639 629.885 262.823C629.441 263.008 628.952 263.056 628.481 262.962C628.009 262.868 627.576 262.636 627.236 262.295C626.896 261.954 626.664 261.52 626.57 261.047C626.476 260.574 626.525 260.084 626.709 259.639C626.893 259.193 627.204 258.813 627.604 258.545C628.004 258.277 628.474 258.134 628.955 258.134C629.275 258.133 629.591 258.195 629.887 258.317C630.183 258.439 630.451 258.618 630.677 258.845C630.903 259.072 631.082 259.341 631.204 259.637C631.326 259.933 631.388 260.251 631.387 260.571Z" stroke="#7189FF" stroke-miterlimit="10"/>
<path d="M648.997 323.351C648.999 324.288 648.723 325.204 648.206 325.984C647.688 326.764 646.951 327.372 646.088 327.732C645.225 328.092 644.275 328.187 643.358 328.006C642.442 327.824 641.599 327.374 640.938 326.712C640.276 326.051 639.825 325.207 639.642 324.288C639.459 323.37 639.552 322.417 639.909 321.552C640.267 320.686 640.872 319.946 641.649 319.425C642.426 318.905 643.339 318.627 644.274 318.627C645.525 318.627 646.724 319.124 647.61 320.01C648.495 320.895 648.994 322.097 648.997 323.351Z" stroke="#7189FF" stroke-miterlimit="10"/>
<path d="M56.4316 418.257C50.828 419.732 25.462 423.954 25.8722 403.703C26.0824 393.362 23.0704 393.733 17.0266 389.661C10.9828 385.589 11.0929 383.071 11.6532 377.253C12.2136 371.436 6.42991 374.244 2.64752 366.651C-1.93539 357.554 3.58811 350.763 12.4937 349.128C21.3994 347.493 21.1492 357.153 24.6915 359.991C28.2337 362.83 33.1268 356.691 39.9311 365.067C44.3739 370.533 37.4796 383.001 44.0137 381.837" stroke="#7189FF" stroke-miterlimit="10"/>
<path d="M44.7339 400.244C36.0618 388.448 26.8926 377.02 17.2265 365.96C16.5961 365.228 15.5354 366.291 16.1658 367.023C25.6919 377.983 34.781 389.307 43.4331 400.996C44.0035 401.768 45.3043 400.996 44.7339 400.244Z" fill="#7189FF"/>
<path d="M29.9755 365.408L28.9748 379.872L28.8447 381.878L29.5952 381.126L16.3568 382.229C15.4062 382.309 15.3562 383.814 16.3568 383.734L29.5952 382.63C29.7927 382.625 29.9806 382.544 30.1203 382.404C30.2599 382.264 30.3406 382.076 30.3457 381.878L31.3463 367.424L31.4864 365.418C31.5465 364.415 30.0455 364.465 29.9855 365.418L29.9755 365.408Z" fill="#7189FF"/>
<path d="M16.826 298.506C5.81908 289.479 3.12737 261.574 18.8773 253.099C38.3697 242.627 58.7626 258.836 61.3342 275.506C63.3355 288.365 54.3298 297.342 77.6846 306.771C101.039 316.199 97.4271 327.905 92.634 350.282C87.841 372.66 103.641 364.465 115.869 383.382C125.585 398.358 111.936 413.624 105.862 419.321L58.1222 419.07C56.5717 418.158 55.0932 417.129 53.6994 415.991C38.2796 403.353 44.4035 383.392 46.0045 367.845C47.7356 351.025 23.6103 358.547 13.9842 336.962C4.35815 315.377 27.8931 307.533 16.826 298.506Z" stroke="#7189FF" stroke-miterlimit="10"/>
<path d="M97.4473 418.589C95.5261 414.336 93.6015 410.08 91.6736 405.82C86.924 395.335 82.1543 384.86 77.3646 374.395C71.2607 361.022 65.1201 347.695 58.9429 334.415C52.9791 321.562 46.9486 308.74 40.8514 295.948C36.5287 286.921 32.226 277.894 27.503 269.087C27.1328 268.415 26.7725 267.733 26.3923 267.081C25.922 266.239 24.6312 267.001 25.1015 267.843C29.6043 275.928 33.5868 284.333 37.6094 292.668C43.6132 305.153 49.5303 317.687 55.3606 330.272C61.6179 343.693 67.8218 357.137 73.9724 370.604C79.0089 381.597 84.0121 392.594 88.9819 403.594L93.805 414.166C94.5454 415.811 95.1758 417.586 96.0564 419.181C96.0939 419.252 96.1273 419.326 96.1565 419.401C96.5567 420.284 97.8475 419.522 97.4473 418.639V418.589Z" fill="#7189FF"/>
<path d="M53.119 323.351L25.4015 321.886L21.479 321.676C20.4784 321.676 20.4784 323.13 21.479 323.18L49.2366 324.655L53.119 324.896C54.1197 324.946 54.1197 323.441 53.119 323.391V323.351Z" fill="#7189FF"/>
<path d="M85.1389 392.7L53.8791 389.32L49.5063 388.849C48.5057 388.738 48.5057 390.243 49.5063 390.353L80.7761 393.723L85.1389 394.205C86.1395 394.305 86.0895 392.8 85.1389 392.7Z" fill="#7189FF"/>
<path d="M86.8914 317.252L80.5874 330.843L70.5811 352.398L68.2596 357.413C67.8594 358.286 69.1502 359.048 69.5604 358.175L75.8644 344.584L85.8708 323.019L88.1922 318.004C88.6025 317.131 87.3017 316.369 86.9014 317.252H86.8914Z" fill="#7189FF"/>
<path d="M42.4027 271.825C43.9537 274.012 46.6554 274.834 48.4065 273.681C50.1577 272.527 50.4078 269.799 48.8168 267.612C47.2258 265.426 44.5741 264.603 42.813 265.757C41.0519 266.91 40.8618 269.638 42.4027 271.825Z" stroke="#7189FF" stroke-miterlimit="10"/>
<path d="M41.2714 283.651C41.2534 284.087 41.3659 284.519 41.5944 284.89C41.823 285.261 42.157 285.555 42.5537 285.735C42.9504 285.914 43.3915 285.971 43.8204 285.897C44.2493 285.823 44.6464 285.622 44.9605 285.32C45.2747 285.018 45.4916 284.629 45.5833 284.203C45.675 283.776 45.6374 283.332 45.4753 282.927C45.3132 282.522 45.0339 282.175 44.6735 281.931C44.3131 281.686 43.888 281.555 43.4528 281.555C42.8865 281.544 42.3391 281.759 41.9302 282.152C41.5214 282.545 41.2845 283.084 41.2714 283.651Z" stroke="#7189FF" stroke-miterlimit="10"/>
<path d="M25.4819 337.645C25.448 338.49 25.6671 339.327 26.1111 340.046C26.5551 340.766 27.2037 341.336 27.9735 341.684C28.7433 342.031 29.5992 342.14 30.4311 341.996C31.2631 341.852 32.0331 341.462 32.6422 340.876C33.2512 340.29 33.6716 339.535 33.8492 338.708C34.0268 337.88 33.9535 337.019 33.6387 336.233C33.324 335.448 32.7821 334.775 32.0829 334.301C31.3836 333.827 30.5589 333.573 29.7146 333.572C29.1697 333.56 28.6279 333.656 28.12 333.855C27.6122 334.053 27.1484 334.35 26.7552 334.728C26.362 335.106 26.0471 335.559 25.8286 336.059C25.6102 336.56 25.4923 337.098 25.4819 337.645Z" stroke="#7189FF" stroke-miterlimit="10"/>
<path d="M196.069 343.953C202.903 338.376 204.544 321.134 194.798 315.868C182.79 309.388 170.152 319.409 168.561 329.71C167.34 337.664 172.884 343.211 158.455 349.038C144.026 354.866 146.257 362.078 149.219 375.929C152.181 389.781 142.435 384.686 134.86 396.371C128.856 405.619 137.291 415.058 141.054 418.578L170.562 418.438C171.526 417.878 172.443 417.241 173.304 416.532C182.83 408.728 179.048 396.391 178.057 386.782C176.986 376.381 191.896 381.035 197.83 367.725C203.763 354.414 189.204 349.58 196.069 343.953Z" stroke="#7189FF" stroke-miterlimit="10"/>
<path d="M147.289 418.83C151.398 409.715 155.537 400.615 159.707 391.527C167.131 375.298 174.586 359.079 182.291 342.98C185.163 336.962 187.985 330.944 191.207 325.177C191.306 325.004 191.333 324.798 191.281 324.606C191.23 324.413 191.104 324.248 190.931 324.149C190.759 324.049 190.554 324.022 190.362 324.074C190.169 324.125 190.005 324.251 189.906 324.424C187.134 329.44 184.682 334.585 182.201 339.731C178.469 347.454 174.836 355.217 171.194 362.991C164.169 378.077 157.228 393.199 150.371 408.358C148.91 411.588 147.446 414.824 145.978 418.067C145.578 418.94 146.879 419.712 147.269 418.83H147.289Z" fill="#7189FF"/>
<path d="M173.616 360.573L190.737 359.661L193.198 359.53C194.199 359.53 194.199 357.975 193.198 358.026L176.077 358.928L173.616 359.069C172.615 359.119 172.615 360.623 173.616 360.573Z" fill="#7189FF"/>
<path d="M153.843 403.423L173.095 401.347L175.867 401.046C176.868 400.945 176.868 399.441 175.867 399.541L156.615 401.617L153.843 401.918C152.893 402.029 152.843 403.533 153.843 403.423Z" fill="#7189FF"/>
<path d="M151.722 356.19L161.808 377.936L163.189 381.065C163.599 381.938 164.89 381.176 164.49 380.303L154.403 358.557L152.982 355.488C152.572 354.605 151.281 355.368 151.681 356.24L151.722 356.19Z" fill="#7189FF"/>
<path d="M180.259 327.503C179.897 328.129 179.313 328.596 178.623 328.81C177.933 329.023 177.188 328.969 176.537 328.657C175.436 327.935 175.326 326.26 176.287 324.905C176.649 324.279 177.234 323.814 177.924 323.601C178.614 323.389 179.359 323.447 180.009 323.762C181.11 324.474 181.2 326.159 180.259 327.503Z" stroke="#7189FF" stroke-miterlimit="10"/>
<path d="M190.725 368.186C190.747 368.71 190.612 369.229 190.337 369.676C190.063 370.123 189.661 370.477 189.183 370.692C188.706 370.908 188.175 370.975 187.659 370.886C187.144 370.797 186.666 370.554 186.289 370.191C185.911 369.827 185.651 369.358 185.542 368.845C185.433 368.332 185.479 367.797 185.676 367.311C185.872 366.824 186.209 366.408 186.644 366.115C187.078 365.823 187.59 365.667 188.114 365.668C188.45 365.662 188.785 365.722 189.098 365.845C189.411 365.968 189.697 366.151 189.94 366.385C190.182 366.619 190.377 366.898 190.511 367.207C190.646 367.516 190.719 367.849 190.725 368.186Z" stroke="#7189FF" stroke-miterlimit="10"/>
<path d="M352.758 48.0596H271.797C262.921 48.0596 255.727 55.2717 255.727 64.1682V152.736C255.727 161.632 262.921 168.845 271.797 168.845H352.758C361.633 168.845 368.828 161.632 368.828 152.736V64.1682C368.828 55.2717 361.633 48.0596 352.758 48.0596Z" fill="white"/>
<path opacity="0.39" d="M352.758 48.0596H271.797C262.921 48.0596 255.727 55.2717 255.727 64.1682V152.736C255.727 161.632 262.921 168.845 271.797 168.845H352.758C361.633 168.845 368.828 161.632 368.828 152.736V64.1682C368.828 55.2717 361.633 48.0596 352.758 48.0596Z" fill="#FFBDD6"/>
<path d="M342.992 48.0898H252.155C247.139 48.0898 242.328 50.0851 238.778 53.6375C235.229 57.19 233.231 62.0092 233.223 67.0371V74.2489H325.091V67.0371C325.091 62.1832 326.947 57.514 330.277 53.9897C333.607 50.4654 338.157 48.3541 342.992 48.0898Z" fill="#FFD7E6"/>
<path d="M339.531 88.1008H277.372C277.106 88.1008 276.852 87.9951 276.664 87.807C276.477 87.6189 276.371 87.3638 276.371 87.0978C276.371 86.8317 276.477 86.5766 276.664 86.3885C276.852 86.2004 277.106 86.0947 277.372 86.0947H339.531C339.796 86.0947 340.051 86.2004 340.239 86.3885C340.426 86.5766 340.532 86.8317 340.532 87.0978C340.532 87.3638 340.426 87.6189 340.239 87.807C340.051 87.9951 339.796 88.1008 339.531 88.1008Z" fill="white"/>
<path d="M339.531 114.329H277.372C277.106 114.329 276.852 114.224 276.664 114.036C276.477 113.847 276.371 113.592 276.371 113.326C276.371 113.06 276.477 112.805 276.664 112.617C276.852 112.429 277.106 112.323 277.372 112.323H339.531C339.796 112.323 340.051 112.429 340.239 112.617C340.426 112.805 340.532 113.06 340.532 113.326C340.532 113.592 340.426 113.847 340.239 114.036C340.051 114.224 339.796 114.329 339.531 114.329Z" fill="white"/>
<path d="M310.393 101.23H277.372C277.106 101.23 276.852 101.124 276.664 100.936C276.477 100.748 276.371 100.493 276.371 100.227C276.371 99.9606 276.477 99.7055 276.664 99.5174C276.852 99.3293 277.106 99.2236 277.372 99.2236H310.393C310.658 99.2236 310.913 99.3293 311.1 99.5174C311.288 99.7055 311.393 99.9606 311.393 100.227C311.393 100.493 311.288 100.748 311.1 100.936C310.913 101.124 310.658 101.23 310.393 101.23Z" fill="white"/>
<path d="M346.415 101.23H318.397C318.132 101.23 317.877 101.124 317.69 100.936C317.502 100.748 317.396 100.493 317.396 100.227C317.396 99.9606 317.502 99.7055 317.69 99.5174C317.877 99.3293 318.132 99.2236 318.397 99.2236H346.415C346.68 99.2236 346.935 99.3293 347.122 99.5174C347.31 99.7055 347.415 99.9606 347.415 100.227C347.415 100.493 347.31 100.748 347.122 100.936C346.935 101.124 346.68 101.23 346.415 101.23Z" fill="white"/>
<g opacity="0.81">
<path d="M535.426 210.08H512.321C512.056 210.08 511.801 209.974 511.613 209.786C511.426 209.598 511.32 209.343 511.32 209.077C511.32 208.81 511.426 208.555 511.613 208.367C511.801 208.179 512.056 208.073 512.321 208.073H535.426C535.691 208.073 535.945 208.179 536.133 208.367C536.321 208.555 536.426 208.81 536.426 209.077C536.426 209.343 536.321 209.598 536.133 209.786C535.945 209.974 535.691 210.08 535.426 210.08Z" fill="#FFB5D0"/>
<path d="M535.426 234.153H512.321C512.056 234.153 511.801 234.047 511.613 233.859C511.426 233.671 511.32 233.416 511.32 233.15C511.32 232.884 511.426 232.629 511.613 232.441C511.801 232.252 512.056 232.147 512.321 232.147H535.426C535.691 232.147 535.945 232.252 536.133 232.441C536.321 232.629 536.426 232.884 536.426 233.15C536.426 233.416 536.321 233.671 536.133 233.859C535.945 234.047 535.691 234.153 535.426 234.153Z" fill="#FFB5D0"/>
<path d="M553.076 258.466H409.985C409.265 258.463 408.575 258.174 408.067 257.663C407.559 257.152 407.273 256.459 407.273 255.737V181.082C407.276 180.362 407.563 179.672 408.071 179.163C408.579 178.653 409.267 178.366 409.985 178.364H553.076C553.795 178.364 554.485 178.65 554.993 179.16C555.502 179.669 555.787 180.361 555.787 181.082V255.737C555.789 256.095 555.72 256.45 555.584 256.781C555.448 257.112 555.249 257.412 554.997 257.666C554.745 257.919 554.445 258.12 554.116 258.258C553.786 258.395 553.433 258.466 553.076 258.466ZM409.985 180.37C409.797 180.37 409.616 180.445 409.483 180.578C409.35 180.712 409.275 180.893 409.275 181.082V255.737C409.273 255.832 409.291 255.925 409.326 256.013C409.361 256.1 409.413 256.18 409.479 256.247C409.545 256.315 409.624 256.368 409.711 256.404C409.798 256.441 409.891 256.46 409.985 256.459H553.076C553.17 256.46 553.263 256.441 553.35 256.404C553.437 256.368 553.516 256.315 553.582 256.247C553.648 256.18 553.7 256.1 553.735 256.013C553.77 255.925 553.787 255.832 553.786 255.737V181.082C553.786 180.893 553.711 180.712 553.578 180.578C553.445 180.445 553.264 180.37 553.076 180.37H409.985Z" fill="white"/>
<path opacity="0.66" d="M553.076 258.466H409.985C409.265 258.463 408.575 258.174 408.067 257.663C407.559 257.152 407.273 256.459 407.273 255.737V181.082C407.276 180.362 407.563 179.672 408.071 179.163C408.579 178.653 409.267 178.366 409.985 178.364H553.076C553.795 178.364 554.485 178.65 554.993 179.16C555.502 179.669 555.787 180.361 555.787 181.082V255.737C555.789 256.095 555.72 256.45 555.584 256.781C555.448 257.112 555.249 257.412 554.997 257.666C554.745 257.919 554.445 258.12 554.116 258.258C553.786 258.395 553.433 258.466 553.076 258.466ZM409.985 180.37C409.797 180.37 409.616 180.445 409.483 180.578C409.35 180.712 409.275 180.893 409.275 181.082V255.737C409.273 255.832 409.291 255.925 409.326 256.013C409.361 256.1 409.413 256.18 409.479 256.247C409.545 256.315 409.624 256.368 409.711 256.404C409.798 256.441 409.891 256.46 409.985 256.459H553.076C553.17 256.46 553.263 256.441 553.35 256.404C553.437 256.368 553.516 256.315 553.582 256.247C553.648 256.18 553.7 256.1 553.735 256.013C553.77 255.925 553.787 255.832 553.786 255.737V181.082C553.786 180.893 553.711 180.712 553.578 180.578C553.445 180.445 553.264 180.37 553.076 180.37H409.985Z" fill="white"/>
<path d="M461.077 191.694H424.834C424.155 191.694 423.604 192.246 423.604 192.927V242.066C423.604 242.747 424.155 243.3 424.834 243.3H461.077C461.757 243.3 462.308 242.747 462.308 242.066V192.927C462.308 192.246 461.757 191.694 461.077 191.694Z" fill="white"/>
<path d="M535.424 198.394H471.883C471.618 198.394 471.364 198.288 471.176 198.1C470.988 197.912 470.883 197.657 470.883 197.391C470.883 197.125 470.988 196.87 471.176 196.682C471.364 196.494 471.618 196.388 471.883 196.388H535.424C535.689 196.388 535.944 196.494 536.131 196.682C536.319 196.87 536.424 197.125 536.424 197.391C536.424 197.657 536.319 197.912 536.131 198.1C535.944 198.288 535.689 198.394 535.424 198.394Z" fill="#FFB5D0"/>
<path d="M535.424 221.765H471.883C471.618 221.765 471.364 221.659 471.176 221.471C470.988 221.283 470.883 221.028 470.883 220.762C470.883 220.496 470.988 220.241 471.176 220.053C471.364 219.865 471.618 219.759 471.883 219.759H535.424C535.689 219.759 535.944 219.865 536.131 220.053C536.319 220.241 536.424 220.496 536.424 220.762C536.424 221.028 536.319 221.283 536.131 221.471C535.944 221.659 535.689 221.765 535.424 221.765Z" fill="#FFB5D0"/>
<path d="M506.135 210.08H471.883C471.618 210.08 471.364 209.974 471.176 209.786C470.988 209.598 470.883 209.343 470.883 209.077C470.883 208.81 470.988 208.555 471.176 208.367C471.364 208.179 471.618 208.073 471.883 208.073H506.135C506.4 208.073 506.655 208.179 506.843 208.367C507.03 208.555 507.136 208.81 507.136 209.077C507.136 209.343 507.03 209.598 506.843 209.786C506.655 209.974 506.4 210.08 506.135 210.08Z" fill="#FFB5D0"/>
<path d="M506.135 234.153H471.883C471.618 234.153 471.364 234.047 471.176 233.859C470.988 233.671 470.883 233.416 470.883 233.15C470.883 232.884 470.988 232.629 471.176 232.441C471.364 232.252 471.618 232.147 471.883 232.147H506.135C506.4 232.147 506.655 232.252 506.843 232.441C507.03 232.629 507.136 232.884 507.136 233.15C507.136 233.416 507.03 233.671 506.843 233.859C506.655 234.047 506.4 234.153 506.135 234.153Z" fill="#FFB5D0"/>
<path d="M494.988 245.306H471.883C471.618 245.306 471.364 245.2 471.176 245.012C470.988 244.824 470.883 244.569 470.883 244.303C470.883 244.037 470.988 243.782 471.176 243.594C471.364 243.406 471.618 243.3 471.883 243.3H494.988C495.253 243.3 495.508 243.406 495.696 243.594C495.883 243.782 495.989 244.037 495.989 244.303C495.989 244.569 495.883 244.824 495.696 245.012C495.508 245.2 495.253 245.306 494.988 245.306Z" fill="#FFB5D0"/>
</g>
<path d="M494.678 273.862H410.375C408.535 273.862 407.043 275.358 407.043 277.202V307.775C407.043 309.619 408.535 311.115 410.375 311.115H494.678C496.519 311.115 498.011 309.619 498.011 307.775V277.202C498.011 275.358 496.519 273.862 494.678 273.862Z" fill="#FFD7E6"/>
<path d="M521.725 303.241H429.267C426.465 303.241 424.193 305.518 424.193 308.327V336.722C424.193 339.531 426.465 341.808 429.267 341.808H521.725C524.527 341.808 526.798 339.531 526.798 336.722V308.327C526.798 305.518 524.527 303.241 521.725 303.241Z" fill="white"/>
<path opacity="0.74" d="M521.725 303.241H429.267C426.465 303.241 424.193 305.518 424.193 308.327V336.722C424.193 339.531 426.465 341.808 429.267 341.808H521.725C524.527 341.808 526.798 339.531 526.798 336.722V308.327C526.798 305.518 524.527 303.241 521.725 303.241Z" fill="#6C8FD4"/>
<path d="M494.229 326.983C493.358 326.985 492.505 326.727 491.779 326.243C491.054 325.759 490.488 325.07 490.153 324.263C489.819 323.456 489.731 322.568 489.901 321.711C490.07 320.854 490.49 320.067 491.106 319.449C491.722 318.831 492.508 318.411 493.363 318.241C494.218 318.071 495.104 318.159 495.909 318.494C496.714 318.829 497.401 319.397 497.884 320.124C498.367 320.851 498.624 321.706 498.622 322.58C498.619 323.747 498.156 324.865 497.332 325.69C496.509 326.515 495.393 326.98 494.229 326.983ZM494.229 319.169C493.556 319.167 492.897 319.366 492.336 319.739C491.776 320.113 491.338 320.645 491.079 321.268C490.82 321.891 490.751 322.577 490.881 323.239C491.011 323.901 491.335 324.51 491.81 324.987C492.285 325.465 492.892 325.791 493.552 325.924C494.212 326.056 494.897 325.989 495.519 325.731C496.141 325.473 496.673 325.036 497.047 324.475C497.422 323.914 497.621 323.255 497.621 322.58C497.621 321.677 497.264 320.811 496.628 320.172C495.993 319.532 495.13 319.172 494.229 319.169Z" fill="white"/>
<path d="M475.836 326.982C474.965 326.982 474.114 326.723 473.389 326.238C472.665 325.752 472.101 325.062 471.768 324.255C471.435 323.448 471.348 322.561 471.519 321.704C471.69 320.848 472.11 320.061 472.727 319.445C473.343 318.828 474.129 318.408 474.984 318.239C475.838 318.07 476.724 318.159 477.528 318.494C478.333 318.83 479.019 319.397 479.502 320.124C479.985 320.851 480.241 321.706 480.239 322.579C480.236 323.748 479.771 324.868 478.946 325.693C478.121 326.519 477.002 326.982 475.836 326.982ZM475.836 319.169C475.163 319.169 474.506 319.369 473.946 319.743C473.387 320.118 472.951 320.651 472.693 321.274C472.436 321.897 472.368 322.583 472.5 323.244C472.631 323.906 472.955 324.513 473.431 324.99C473.906 325.467 474.513 325.792 475.173 325.924C475.833 326.055 476.517 325.988 477.138 325.73C477.76 325.471 478.291 325.034 478.665 324.474C479.039 323.913 479.239 323.253 479.239 322.579C479.239 321.674 478.88 320.807 478.242 320.167C477.604 319.528 476.739 319.169 475.836 319.169Z" fill="white"/>
<path d="M458.696 326.983C457.824 326.985 456.972 326.727 456.246 326.243C455.521 325.759 454.955 325.07 454.62 324.263C454.286 323.456 454.198 322.568 454.367 321.711C454.537 320.854 454.956 320.067 455.573 319.449C456.189 318.831 456.975 318.411 457.83 318.241C458.684 318.071 459.571 318.159 460.375 318.494C461.18 318.829 461.868 319.397 462.351 320.124C462.834 320.851 463.091 321.706 463.089 322.58C463.086 323.747 462.622 324.865 461.799 325.69C460.976 326.515 459.86 326.98 458.696 326.983ZM458.696 319.169C458.023 319.167 457.364 319.366 456.803 319.739C456.242 320.113 455.805 320.645 455.546 321.268C455.287 321.891 455.218 322.577 455.348 323.239C455.478 323.901 455.801 324.51 456.277 324.987C456.752 325.465 457.358 325.791 458.019 325.924C458.679 326.056 459.363 325.989 459.986 325.731C460.608 325.473 461.14 325.036 461.514 324.475C461.888 323.914 462.088 323.255 462.088 322.58C462.088 321.677 461.731 320.811 461.095 320.172C460.459 319.532 459.597 319.172 458.696 319.169Z" fill="white"/>
<path d="M167.641 219.096H166.641C166.508 219.096 166.381 219.044 166.287 218.95C166.193 218.856 166.141 218.728 166.141 218.595C166.141 218.462 166.193 218.335 166.287 218.241C166.381 218.147 166.508 218.094 166.641 218.094H167.641C167.773 218.094 167.9 218.147 167.994 218.241C168.088 218.335 168.141 218.462 168.141 218.595C168.141 218.728 168.088 218.856 167.994 218.95C167.9 219.044 167.773 219.096 167.641 219.096Z" fill="white"/>
<path d="M471.414 352.519C471.281 352.519 471.154 352.466 471.06 352.372C470.967 352.278 470.914 352.151 470.914 352.018V351.015C470.914 350.882 470.967 350.755 471.06 350.661C471.154 350.567 471.281 350.514 471.414 350.514C471.547 350.514 471.674 350.567 471.768 350.661C471.861 350.755 471.914 350.882 471.914 351.015V352.018C471.914 352.151 471.861 352.278 471.768 352.372C471.674 352.466 471.547 352.519 471.414 352.519Z" fill="white"/>
<path d="M383.628 419.101H356.02C354.269 419.098 352.591 418.4 351.353 417.159C350.115 415.918 349.419 414.236 349.416 412.481V264.133H392.443V410.264C392.445 411.425 392.217 412.575 391.775 413.648C391.332 414.72 390.683 415.695 389.864 416.516C389.045 417.337 388.073 417.987 387.003 418.431C385.933 418.875 384.786 419.102 383.628 419.101Z" fill="#0A4DD0"/>
<path d="M386.101 419.101H368.43V264.133H392.445V412.742C392.445 414.428 391.777 416.046 390.587 417.239C389.397 418.431 387.783 419.101 386.101 419.101Z" fill="#4C71BA"/>
<path d="M294.702 121.702H432.319C439.632 121.701 446.874 123.144 453.631 125.948C460.387 128.753 466.527 132.865 471.698 138.048C476.869 143.232 480.971 149.386 483.768 156.158C486.566 162.931 488.006 170.19 488.005 177.521V275.597C488.005 276.68 487.576 277.718 486.812 278.484C486.048 279.249 485.012 279.679 483.932 279.679H242.349C242.288 279.681 242.228 279.67 242.171 279.647C242.115 279.624 242.064 279.591 242.021 279.547C241.978 279.504 241.944 279.453 241.921 279.396C241.898 279.34 241.887 279.279 241.889 279.218V174.682C241.889 160.638 247.452 147.168 257.355 137.234C267.258 127.299 280.692 121.713 294.702 121.702Z" fill="#598CF2"/>
<g opacity="0.07">
<path d="M311.712 143.268H415.778C430.547 143.268 444.71 149.148 455.153 159.616C465.596 170.085 471.463 184.282 471.463 199.086V275.597C471.463 276.68 471.034 277.718 470.27 278.484C469.507 279.25 468.471 279.68 467.391 279.68H259.359C259.298 279.681 259.238 279.67 259.181 279.647C259.125 279.625 259.073 279.591 259.03 279.548C258.987 279.505 258.953 279.453 258.931 279.397C258.908 279.34 258.897 279.279 258.899 279.218V196.248C258.899 182.203 264.462 168.734 274.365 158.799C284.268 148.865 297.701 143.278 311.712 143.268Z" fill="#ECF1F7"/>
</g>
<g opacity="0.65">
<path d="M483.411 280.181H331.404V267.141H488.003V275.577C488.005 276.182 487.887 276.781 487.657 277.34C487.426 277.899 487.088 278.407 486.661 278.835C486.234 279.263 485.728 279.602 485.17 279.833C484.612 280.064 484.014 280.182 483.411 280.181Z" fill="#4C71BA"/>
</g>
<g opacity="0.65">
<path d="M483.411 280.181H331.404V267.141H488.003V275.577C488.005 276.182 487.887 276.781 487.657 277.34C487.426 277.899 487.088 278.407 486.661 278.835C486.234 279.263 485.728 279.602 485.17 279.833C484.612 280.064 484.014 280.182 483.411 280.181Z" fill="#4C71BA"/>
</g>
<path d="M484.504 279.679H415.34V267.522H488.006V276.169C488.01 276.631 487.922 277.089 487.747 277.517C487.573 277.945 487.315 278.333 486.989 278.66C486.663 278.987 486.275 279.245 485.849 279.42C485.422 279.595 484.965 279.683 484.504 279.679Z" fill="#0A4DD0"/>
<path opacity="0.07" d="M488.005 177.872H338.91V267.142H488.005V177.872Z" fill="#373449"/>
<path d="M332.905 276.169H247.851C246.259 276.169 244.732 275.535 243.606 274.406C242.48 273.277 241.848 271.747 241.848 270.15V173.358C241.846 166.969 243.101 160.643 245.539 154.74C247.978 148.837 251.552 143.474 256.059 138.956C260.566 134.439 265.916 130.856 271.805 128.411C277.694 125.967 284.005 124.71 290.378 124.711C296.752 124.71 303.063 125.967 308.952 128.411C314.84 130.856 320.191 134.439 324.698 138.956C329.204 143.474 332.779 148.837 335.218 154.74C337.656 160.643 338.91 166.969 338.909 173.358V270.15C338.909 271.747 338.277 273.277 337.151 274.406C336.025 275.535 334.498 276.169 332.905 276.169Z" fill="#4C71BA"/>
<path d="M331.905 276.169H246.852V174.361C246.852 163.055 251.332 152.213 259.307 144.218C267.283 136.224 278.1 131.732 289.378 131.732C300.657 131.732 311.474 136.224 319.45 144.218C327.425 152.213 331.905 163.055 331.905 174.361V276.169Z" fill="#373449"/>
<mask id="mask0_1119_86391" style="mask-type:luminance" maskUnits="userSpaceOnUse" x="246" y="131" width="86" height="146">
<path d="M331.905 276.169H246.852V174.361C246.852 163.055 251.332 152.213 259.307 144.218C267.283 136.224 278.1 131.732 289.378 131.732C300.657 131.732 311.474 136.224 319.45 144.218C327.425 152.213 331.905 163.055 331.905 174.361V276.169Z" fill="white"/>
</mask>
<g mask="url(#mask0_1119_86391)">
<path d="M335.318 263.13H264.863C264.257 263.131 263.656 263.012 263.096 262.78C262.536 262.548 262.027 262.208 261.598 261.778C261.17 261.349 260.83 260.838 260.598 260.277C260.367 259.715 260.249 259.113 260.25 258.506V215.987C260.25 214.458 260.856 212.991 261.935 211.909C263.014 210.827 264.478 210.22 266.004 210.22H332.956C334.814 210.22 336.595 210.959 337.909 212.276C339.223 213.593 339.96 215.379 339.96 217.241V258.506C339.962 259.116 339.842 259.72 339.609 260.284C339.376 260.847 339.034 261.359 338.602 261.789C338.17 262.219 337.657 262.559 337.094 262.789C336.53 263.019 335.926 263.135 335.318 263.13Z" fill="#6C8FD4"/>
<path opacity="0.56" d="M336.308 263.13H263.872C262.912 263.13 261.99 262.748 261.311 262.067C260.632 261.386 260.25 260.462 260.25 259.499V215.366C260.251 214.824 260.446 214.301 260.8 213.891C261.001 213.661 261.284 213.518 261.588 213.492C261.892 213.466 262.194 213.558 262.431 213.751L290.129 236.73L295.853 241.485C297.041 242.467 298.536 242.999 300.076 242.988C301.616 242.977 303.104 242.424 304.278 241.424L338.299 212.497C338.896 212.978 339.361 213.603 339.65 214.314C339.939 215.024 340.043 215.797 339.95 216.559V259.539C339.94 260.499 339.551 261.415 338.868 262.088C338.186 262.761 337.265 263.135 336.308 263.13Z" fill="#0A4DD0"/>
<path d="M261.9 263.581C261.696 263.582 261.496 263.522 261.328 263.406C261.159 263.291 261.03 263.127 260.957 262.936C260.884 262.745 260.871 262.536 260.92 262.338C260.968 262.139 261.076 261.961 261.229 261.825L291.108 235.185C291.307 235.008 291.568 234.917 291.834 234.933C292.099 234.949 292.348 235.071 292.524 235.27C292.701 235.47 292.791 235.731 292.775 235.997C292.759 236.263 292.638 236.512 292.439 236.689L262.56 263.33C262.378 263.491 262.143 263.58 261.9 263.581Z" fill="#6C8FD4"/>
<path d="M337.178 263.581C336.935 263.581 336.7 263.492 336.518 263.33L307.499 237.532C307.393 237.447 307.306 237.341 307.242 237.221C307.178 237.101 307.14 236.969 307.128 236.833C307.117 236.697 307.134 236.561 307.177 236.432C307.22 236.303 307.289 236.184 307.379 236.082C307.47 235.981 307.58 235.899 307.703 235.841C307.826 235.783 307.959 235.752 308.095 235.748C308.231 235.743 308.366 235.767 308.492 235.817C308.619 235.867 308.734 235.942 308.83 236.038L337.849 261.826C338.046 262.003 338.165 262.251 338.18 262.516C338.195 262.781 338.105 263.042 337.929 263.24C337.835 263.347 337.719 263.433 337.59 263.492C337.461 263.55 337.32 263.581 337.178 263.581Z" fill="#6C8FD4"/>
<path d="M332.406 276.169H253.355V271.274C253.354 270.205 253.563 269.145 253.971 268.156C254.379 267.167 254.978 266.269 255.732 265.512C256.487 264.756 257.383 264.156 258.37 263.747C259.356 263.338 260.413 263.129 261.481 263.13H332.406V276.169Z" fill="#F2718D"/>
</g>
<path d="M329.495 294.223H186.555C185.275 294.223 184.008 293.971 182.825 293.48C181.643 292.989 180.568 292.269 179.663 291.362C178.758 290.455 178.04 289.378 177.55 288.193C177.061 287.007 176.809 285.737 176.809 284.454V276.169H340.912V282.779C340.912 285.814 339.71 288.725 337.568 290.871C335.427 293.018 332.523 294.223 329.495 294.223Z" fill="#598CF2"/>
<path d="M329.494 294.223H284.615C283.335 294.223 282.068 293.971 280.886 293.48C279.703 292.989 278.629 292.269 277.724 291.362C276.819 290.455 276.101 289.378 275.611 288.192C275.121 287.007 274.869 285.737 274.869 284.454V276.169H340.911V282.779C340.911 285.814 339.708 288.725 337.567 290.871C335.426 293.017 332.522 294.223 329.494 294.223Z" fill="#4C71BA"/>
<path d="M377.935 194.924C385.672 194.924 391.944 188.637 391.944 180.881C391.944 173.126 385.672 166.839 377.935 166.839C370.198 166.839 363.926 173.126 363.926 180.881C363.926 188.637 370.198 194.924 377.935 194.924Z" fill="#0A4DD0"/>
<path d="M377.935 185.394C377.343 185.396 376.757 185.28 376.21 185.054C375.663 184.827 375.166 184.495 374.748 184.075C374.329 183.656 373.998 183.158 373.772 182.61C373.546 182.061 373.43 181.474 373.432 180.881V91.6111C373.43 91.018 373.546 90.4304 373.772 89.8822C373.998 89.334 374.329 88.8359 374.748 88.4165C375.166 87.9971 375.663 87.6647 376.21 87.4383C376.757 87.2119 377.343 87.0961 377.935 87.0974C378.526 87.0961 379.112 87.2119 379.659 87.4383C380.206 87.6647 380.703 87.9971 381.121 88.4165C381.54 88.8359 381.871 89.334 382.097 89.8822C382.323 90.4304 382.439 91.018 382.437 91.6111V180.881C382.439 181.474 382.323 182.061 382.097 182.61C381.871 183.158 381.54 183.656 381.121 184.075C380.703 184.495 380.206 184.827 379.659 185.054C379.112 185.28 378.526 185.396 377.935 185.394Z" fill="#0A4DD0"/>
<path d="M379.935 192.917C386.567 192.917 391.943 187.529 391.943 180.881C391.943 174.234 386.567 168.845 379.935 168.845C373.304 168.845 367.928 174.234 367.928 180.881C367.928 187.529 373.304 192.917 379.935 192.917Z" fill="#4C71BA"/>
<path d="M383.938 113.327V91.6113H424.994L383.938 113.327Z" fill="#6C8FD4"/>
<path d="M383.938 113.327V91.6113H424.994L383.938 113.327Z" fill="#6C8FD4"/>
<path d="M379.936 185.395C379.345 185.396 378.759 185.28 378.212 185.054C377.665 184.827 377.168 184.495 376.75 184.076C376.331 183.656 375.999 183.158 375.774 182.61C375.548 182.062 375.432 181.474 375.434 180.881V91.6113C375.432 91.0182 375.548 90.4307 375.774 89.8824C375.999 89.3342 376.331 88.8361 376.75 88.4167C377.168 87.9973 377.665 87.6649 378.212 87.4386C378.759 87.2122 379.345 87.0963 379.936 87.0977C380.528 87.0963 381.114 87.2122 381.661 87.4386C382.208 87.6649 382.705 87.9973 383.123 88.4167C383.542 88.8361 383.873 89.3342 384.099 89.8824C384.325 90.4307 384.441 91.0182 384.439 91.6113V180.881C384.441 181.474 384.325 182.062 384.099 182.61C383.873 183.158 383.542 183.656 383.123 184.076C382.705 184.495 382.208 184.827 381.661 185.054C381.114 185.28 380.528 185.396 379.936 185.395Z" fill="#4C71BA"/>
<path d="M379.936 187.902C378.501 187.902 377.099 187.476 375.906 186.677C374.713 185.878 373.783 184.742 373.234 183.413C372.685 182.084 372.541 180.622 372.821 179.212C373.101 177.801 373.792 176.505 374.806 175.488C375.821 174.471 377.114 173.779 378.521 173.498C379.928 173.218 381.387 173.362 382.712 173.912C384.038 174.462 385.171 175.394 385.968 176.59C386.765 177.786 387.191 179.192 387.191 180.63C387.188 182.558 386.423 184.406 385.063 185.769C383.703 187.133 381.859 187.9 379.936 187.902ZM379.936 174.361C378.699 174.361 377.49 174.729 376.462 175.418C375.433 176.107 374.632 177.086 374.158 178.231C373.685 179.377 373.561 180.637 373.802 181.853C374.044 183.069 374.639 184.186 375.514 185.063C376.389 185.94 377.503 186.537 378.716 186.779C379.929 187.021 381.187 186.897 382.33 186.422C383.472 185.948 384.449 185.144 385.136 184.113C385.823 183.082 386.19 181.87 386.19 180.63C386.19 178.968 385.531 177.373 384.358 176.198C383.186 175.022 381.595 174.361 379.936 174.361Z" fill="#0A4DD0"/>
<path d="M225.677 183.118H142.785C142.179 183.118 141.579 182.998 141.02 182.766C140.46 182.534 139.951 182.193 139.523 181.764C139.095 181.334 138.755 180.824 138.523 180.263C138.291 179.702 138.172 179.101 138.172 178.494V127.721C138.172 126.191 138.778 124.724 139.857 123.642C140.936 122.561 142.4 121.953 143.926 121.953H223.336C225.193 121.953 226.975 122.693 228.289 124.01C229.602 125.326 230.34 127.112 230.34 128.974V178.494C230.339 179.105 230.217 179.71 229.982 180.274C229.746 180.837 229.402 181.349 228.969 181.778C228.535 182.208 228.021 182.548 227.456 182.778C226.892 183.008 226.287 183.123 225.677 183.118Z" fill="#6C8FD4"/>
<path opacity="0.59" d="M226.098 183.118H142.355C141.802 183.117 141.254 183.006 140.744 182.792C140.234 182.577 139.771 182.264 139.382 181.87C138.994 181.475 138.686 181.008 138.479 180.494C138.271 179.98 138.167 179.43 138.172 178.875V127.851C138.174 127.224 138.401 126.619 138.812 126.146C139.043 125.878 139.369 125.712 139.72 125.682C140.072 125.652 140.421 125.761 140.694 125.986L172.714 152.546L179.308 158.042C180.68 159.179 182.407 159.796 184.187 159.785C185.967 159.774 187.686 159.136 189.044 157.982L228.339 124.531C230.801 126.878 230.25 129.225 230.25 129.225V178.875C230.258 179.989 229.826 181.061 229.048 181.856C228.27 182.651 227.209 183.105 226.098 183.118Z" fill="#0A4DD0"/>
<path d="M141.003 182.656C140.8 182.656 140.602 182.594 140.435 182.478C140.268 182.362 140.14 182.198 140.068 182.007C139.997 181.817 139.984 181.609 140.033 181.411C140.082 181.214 140.19 181.036 140.343 180.901L173.944 150.93C174.142 150.75 174.403 150.655 174.67 150.667C174.938 150.679 175.189 150.797 175.37 150.996C175.55 151.194 175.645 151.456 175.633 151.724C175.62 151.992 175.503 152.244 175.305 152.425L141.674 182.396C141.49 182.563 141.251 182.656 141.003 182.656Z" fill="#6C8FD4"/>
<path d="M227.108 182.887C226.868 182.884 226.637 182.795 226.457 182.636L192.896 153.388C192.792 153.303 192.706 153.198 192.644 153.08C192.581 152.961 192.543 152.831 192.531 152.697C192.52 152.563 192.535 152.428 192.576 152.3C192.618 152.173 192.684 152.055 192.772 151.953C192.86 151.852 192.967 151.769 193.088 151.71C193.208 151.651 193.339 151.616 193.473 151.609C193.606 151.602 193.74 151.621 193.866 151.667C193.993 151.712 194.108 151.782 194.207 151.873L227.768 181.122C227.869 181.208 227.951 181.314 228.011 181.433C228.07 181.551 228.106 181.68 228.115 181.813C228.124 181.945 228.107 182.079 228.065 182.204C228.022 182.33 227.956 182.446 227.868 182.546C227.773 182.654 227.656 182.741 227.525 182.8C227.394 182.859 227.251 182.888 227.108 182.887Z" fill="#6C8FD4"/>
<path d="M229.8 138.332C238.664 138.332 245.85 131.129 245.85 122.244C245.85 113.358 238.664 106.155 229.8 106.155C220.936 106.155 213.75 113.358 213.75 122.244C213.75 131.129 220.936 138.332 229.8 138.332Z" fill="#DF3056"/>
<path d="M226.238 128.463H224.486V117.81L222.695 118.914V117.088L224.486 115.895H226.238V128.463Z" fill="white"/>
<path d="M230.001 127.65C229.683 127.295 229.439 126.879 229.283 126.428C229.126 125.977 229.061 125.499 229.091 125.022V119.315C229.036 118.831 229.091 118.341 229.252 117.881C229.413 117.422 229.676 117.005 230.02 116.661C230.365 116.318 230.783 116.057 231.242 115.898C231.701 115.739 232.191 115.687 232.673 115.744C233.159 115.709 233.647 115.774 234.107 115.936C234.567 116.099 234.988 116.354 235.345 116.687C235.665 117.044 235.91 117.461 236.066 117.914C236.223 118.367 236.287 118.847 236.255 119.325V125.032C236.285 125.511 236.22 125.99 236.064 126.443C235.908 126.896 235.663 127.313 235.345 127.67C234.987 127.999 234.567 128.251 234.11 128.411C233.652 128.572 233.167 128.637 232.683 128.603C232.195 128.64 231.704 128.574 231.242 128.41C230.78 128.246 230.358 127.987 230.001 127.65ZM234.004 126.427C234.323 126.031 234.48 125.529 234.444 125.022V119.315C234.48 118.808 234.323 118.306 234.004 117.911C233.616 117.592 233.13 117.418 232.628 117.418C232.126 117.418 231.64 117.592 231.252 117.911C230.933 118.306 230.776 118.808 230.812 119.315V125.022C230.776 125.529 230.933 126.031 231.252 126.427C231.64 126.745 232.126 126.919 232.628 126.919C233.13 126.919 233.616 126.745 234.004 126.427Z" fill="white"/>
<path d="M288.097 239.488H180.839C180.097 239.49 179.363 239.344 178.678 239.06C177.992 238.777 177.37 238.36 176.845 237.834C176.321 237.309 175.905 236.685 175.622 235.998C175.339 235.311 175.194 234.575 175.195 233.831V167.481C175.194 166.643 175.358 165.813 175.677 165.038C175.996 164.263 176.465 163.56 177.056 162.967C177.648 162.374 178.35 161.905 179.122 161.584C179.895 161.264 180.723 161.1 181.559 161.102H285.725C286.721 161.1 287.707 161.296 288.627 161.677C289.547 162.058 290.384 162.617 291.088 163.322C291.792 164.027 292.351 164.865 292.733 165.787C293.114 166.708 293.31 167.697 293.31 168.695V234.263C293.31 235.649 292.761 236.978 291.783 237.958C290.805 238.938 289.479 239.488 288.097 239.488Z" fill="#FFD7E6"/>
<path d="M287.947 239.488H180.559C179.854 239.488 179.157 239.349 178.506 239.079C177.856 238.809 177.264 238.413 176.766 237.913C176.268 237.414 175.873 236.822 175.604 236.169C175.334 235.517 175.195 234.818 175.195 234.112V168.634C175.192 167.826 175.484 167.045 176.016 166.437C176.314 166.094 176.734 165.881 177.186 165.844C177.638 165.806 178.087 165.947 178.437 166.237L219.463 200.29L227.959 207.311C229.716 208.77 231.93 209.562 234.212 209.547C236.494 209.532 238.698 208.712 240.437 207.231L290.849 164.331C294.001 167.34 293.29 170.349 293.29 170.349V234.072C293.295 234.779 293.161 235.481 292.895 236.137C292.629 236.792 292.237 237.389 291.74 237.892C291.244 238.395 290.653 238.795 290.002 239.069C289.351 239.343 288.653 239.486 287.947 239.488Z" fill="#F2718D"/>
<path d="M178.306 239.057C178.102 239.059 177.902 238.998 177.734 238.883C177.565 238.767 177.436 238.603 177.363 238.412C177.29 238.221 177.277 238.013 177.326 237.814C177.375 237.616 177.483 237.437 177.636 237.301L221.253 198.484C221.35 198.388 221.465 198.313 221.591 198.263C221.717 198.213 221.853 198.19 221.988 198.194C222.124 198.198 222.258 198.23 222.381 198.287C222.504 198.345 222.614 198.427 222.704 198.528C222.795 198.63 222.864 198.749 222.907 198.878C222.95 199.007 222.966 199.144 222.955 199.279C222.944 199.415 222.905 199.547 222.841 199.667C222.778 199.788 222.69 199.893 222.584 199.979L178.967 238.756C178.792 238.935 178.556 239.043 178.306 239.057Z" fill="#FFD7E6"/>
<path d="M289.378 239.057C289.136 239.06 288.901 238.974 288.717 238.816L245.55 201.193C245.446 201.108 245.36 201.003 245.298 200.884C245.235 200.765 245.197 200.635 245.185 200.502C245.174 200.368 245.189 200.233 245.231 200.105C245.272 199.977 245.339 199.859 245.426 199.758C245.514 199.656 245.621 199.574 245.742 199.515C245.862 199.455 245.993 199.421 246.127 199.414C246.261 199.406 246.395 199.426 246.521 199.471C246.647 199.517 246.763 199.587 246.861 199.678L290.038 237.342C290.237 237.518 290.358 237.765 290.375 238.03C290.392 238.296 290.303 238.557 290.128 238.756C290.031 238.856 289.914 238.934 289.785 238.986C289.656 239.038 289.517 239.062 289.378 239.057Z" fill="#FFD7E6"/>
<path d="M497.471 173.158C509.623 173.158 519.475 163.283 519.475 151.102C519.475 138.92 509.623 129.045 497.471 129.045C485.318 129.045 475.467 138.92 475.467 151.102C475.467 163.283 485.318 173.158 497.471 173.158Z" fill="#0A4DD0"/>
<path d="M502.52 127.607C506.702 108.184 494.384 89.0394 475.008 84.8471C455.631 80.6547 436.532 93.0017 432.35 112.425C428.168 131.848 440.485 150.992 459.862 155.185C479.239 159.377 498.337 147.03 502.52 127.607Z" fill="#F2718D"/>
<path d="M467.42 143.899C465.473 143.903 463.593 143.19 462.135 141.896C460.678 140.602 459.746 138.816 459.515 136.878L459.445 136.316H475.385L475.325 136.878C475.082 138.811 474.146 140.589 472.692 141.881C471.237 143.173 469.364 143.89 467.42 143.899ZM460.596 137.289C460.953 138.836 461.822 140.215 463.061 141.203C464.3 142.191 465.837 142.729 467.42 142.729C469.004 142.729 470.54 142.191 471.78 141.203C473.019 140.215 473.888 138.836 474.245 137.289H460.596Z" fill="white"/>
<path d="M482.15 128.944H452.682V115.443C452.687 111.691 454.176 108.094 456.823 105.441C459.469 102.788 463.058 101.295 466.801 101.29H468.031C471.774 101.295 475.362 102.788 478.009 105.441C480.656 108.094 482.145 111.691 482.15 115.443V128.944ZM453.682 127.941H481.15V115.443C481.147 111.956 479.764 108.613 477.304 106.147C474.845 103.682 471.51 102.296 468.031 102.293H466.801C463.322 102.296 459.987 103.682 457.527 106.147C455.068 108.613 453.685 111.956 453.682 115.443V127.941Z" fill="white"/>
<path d="M481.66 137.29H453.182C451.992 137.29 450.851 136.817 450.009 135.974C449.167 135.132 448.692 133.989 448.689 132.796V132.435C448.692 131.242 449.167 130.099 450.009 129.257C450.851 128.415 451.992 127.941 453.182 127.941H481.66C482.848 127.944 483.987 128.418 484.827 129.26C485.667 130.103 486.141 131.244 486.143 132.435V132.796C486.141 133.987 485.667 135.128 484.827 135.971C483.987 136.813 482.848 137.287 481.66 137.29ZM453.182 128.944C452.258 128.944 451.371 129.312 450.716 129.966C450.062 130.621 449.693 131.508 449.69 132.435V132.796C449.693 133.723 450.062 134.611 450.716 135.265C451.371 135.919 452.258 136.287 453.182 136.287H481.66C482.584 136.287 483.47 135.919 484.123 135.264C484.776 134.61 485.143 133.722 485.143 132.796V132.435C485.143 131.509 484.776 130.621 484.123 129.967C483.47 129.312 482.584 128.944 481.66 128.944H453.182Z" fill="white"/>
<path d="M464.399 124.711H453.182C453.049 124.711 452.922 124.658 452.828 124.564C452.734 124.47 452.682 124.343 452.682 124.21C452.684 124.077 452.738 123.951 452.831 123.858C452.924 123.764 453.05 123.711 453.182 123.708H464.399C464.532 123.708 464.659 123.761 464.753 123.855C464.847 123.949 464.899 124.077 464.899 124.21C464.899 124.343 464.847 124.47 464.753 124.564C464.659 124.658 464.532 124.711 464.399 124.711Z" fill="white"/>
<path d="M466.081 124.711C465.982 124.717 465.884 124.691 465.801 124.637C465.718 124.583 465.655 124.503 465.621 124.41C465.607 124.347 465.607 124.283 465.621 124.22C465.606 124.154 465.606 124.085 465.621 124.019C465.644 123.96 465.678 123.906 465.721 123.859L465.891 123.748C465.982 123.713 466.081 123.705 466.177 123.724C466.272 123.744 466.361 123.79 466.431 123.859C466.479 123.903 466.517 123.958 466.541 124.019C466.556 124.085 466.556 124.154 466.541 124.22C466.554 124.283 466.554 124.347 466.541 124.41C466.517 124.472 466.479 124.527 466.431 124.571C466.383 124.615 466.329 124.653 466.271 124.681C466.209 124.701 466.145 124.711 466.081 124.711Z" fill="white"/>
<path d="M467.582 98.5616C467.45 98.5616 467.322 98.5087 467.229 98.4147C467.135 98.3206 467.082 98.1931 467.082 98.0601V90.6978C467.082 90.5648 467.135 90.4372 467.229 90.3432C467.322 90.2491 467.45 90.1963 467.582 90.1963C467.715 90.1963 467.842 90.2491 467.936 90.3432C468.03 90.4372 468.082 90.5648 468.082 90.6978V98.0601C468.082 98.1931 468.03 98.3206 467.936 98.4147C467.842 98.5087 467.715 98.5616 467.582 98.5616Z" fill="white"/>
<path d="M477.358 100.688C477.256 100.686 477.156 100.659 477.068 100.608C476.961 100.529 476.888 100.413 476.864 100.283C476.84 100.152 476.866 100.017 476.938 99.9057L478.998 96.8966C479.077 96.7896 479.193 96.7166 479.323 96.6924C479.453 96.6681 479.587 96.6945 479.699 96.7662C479.754 96.8034 479.801 96.8512 479.837 96.9068C479.873 96.9624 479.898 97.0246 479.91 97.09C479.922 97.1553 479.921 97.2224 479.907 97.2873C479.893 97.3523 479.867 97.4138 479.829 97.4683L477.768 100.477C477.722 100.544 477.661 100.597 477.589 100.634C477.518 100.671 477.438 100.689 477.358 100.688Z" fill="white"/>
<path d="M457.483 100.689C457.402 100.691 457.321 100.671 457.249 100.633C457.177 100.594 457.117 100.537 457.073 100.468L455.003 97.4588C454.927 97.3484 454.898 97.2124 454.923 97.0807C454.947 96.9491 455.022 96.8325 455.133 96.7567C455.243 96.6809 455.378 96.652 455.51 96.6765C455.641 96.7009 455.757 96.7767 455.833 96.8871L457.903 99.8962C457.976 100.008 458.003 100.145 457.976 100.276C457.95 100.407 457.874 100.523 457.763 100.598C457.68 100.654 457.583 100.685 457.483 100.689Z" fill="white"/>
<path d="M336.458 338.548H313.393C313.128 338.548 312.873 338.443 312.686 338.255C312.498 338.066 312.393 337.811 312.393 337.545C312.393 337.279 312.498 337.024 312.686 336.836C312.873 336.648 313.128 336.542 313.393 336.542H336.488C336.753 336.542 337.008 336.648 337.195 336.836C337.383 337.024 337.488 337.279 337.488 337.545C337.488 337.811 337.383 338.066 337.195 338.255C337.008 338.443 336.753 338.548 336.488 338.548H336.458Z" fill="#FFB5D1"/>
<path d="M336.458 362.621H313.393C313.128 362.621 312.873 362.516 312.686 362.328C312.498 362.139 312.393 361.884 312.393 361.618C312.393 361.352 312.498 361.097 312.686 360.909C312.873 360.721 313.128 360.615 313.393 360.615H336.488C336.753 360.615 337.008 360.721 337.195 360.909C337.383 361.097 337.488 361.352 337.488 361.618C337.488 361.884 337.383 362.139 337.195 362.328C337.008 362.516 336.753 362.621 336.488 362.621H336.458Z" fill="#FFB5D1"/>
<path d="M354.109 386.934H211.018C210.299 386.934 209.609 386.648 209.101 386.138C208.592 385.628 208.307 384.937 208.307 384.216V309.55C208.307 308.829 208.592 308.138 209.101 307.628C209.609 307.118 210.299 306.832 211.018 306.832H354.109C354.829 306.832 355.52 307.118 356.03 307.628C356.54 308.137 356.828 308.828 356.831 309.55V384.216C356.828 384.938 356.54 385.629 356.03 386.139C355.52 386.648 354.829 386.934 354.109 386.934ZM211.018 308.838C210.83 308.838 210.649 308.913 210.516 309.047C210.383 309.18 210.308 309.361 210.308 309.55V384.216C210.308 384.405 210.383 384.586 210.516 384.719C210.649 384.853 210.83 384.928 211.018 384.928H354.109C354.203 384.929 354.297 384.912 354.384 384.877C354.471 384.841 354.551 384.789 354.618 384.723C354.685 384.657 354.738 384.578 354.774 384.491C354.811 384.404 354.829 384.31 354.829 384.216V309.55C354.829 309.456 354.811 309.362 354.774 309.275C354.738 309.188 354.685 309.109 354.618 309.043C354.551 308.977 354.471 308.925 354.384 308.889C354.297 308.854 354.203 308.837 354.109 308.838H211.018Z" fill="white"/>
<path d="M262.11 320.162H225.867C225.188 320.162 224.637 320.714 224.637 321.396V370.534C224.637 371.216 225.188 371.768 225.867 371.768H262.11C262.79 371.768 263.341 371.216 263.341 370.534V321.396C263.341 320.714 262.79 320.162 262.11 320.162Z" fill="#FFB5D1"/>
<path d="M336.459 326.863H272.919C272.653 326.863 272.399 326.757 272.211 326.569C272.023 326.381 271.918 326.125 271.918 325.859C271.918 325.593 272.023 325.338 272.211 325.15C272.399 324.962 272.653 324.856 272.919 324.856H336.459C336.724 324.856 336.979 324.962 337.166 325.15C337.354 325.338 337.459 325.593 337.459 325.859C337.459 326.125 337.354 326.381 337.166 326.569C336.979 326.757 336.724 326.863 336.459 326.863Z" fill="#FFB5D1"/>
<path d="M336.457 350.233H272.917C272.651 350.233 272.397 350.128 272.209 349.94C272.021 349.751 271.916 349.496 271.916 349.23C271.916 348.964 272.021 348.709 272.209 348.521C272.397 348.333 272.651 348.227 272.917 348.227H336.457C336.722 348.227 336.977 348.333 337.164 348.521C337.352 348.709 337.458 348.964 337.458 349.23C337.458 349.496 337.352 349.751 337.164 349.94C336.977 350.128 336.722 350.233 336.457 350.233Z" fill="#FFB5D1"/>
<path d="M307.178 338.548H272.917C272.651 338.548 272.397 338.443 272.209 338.255C272.021 338.066 271.916 337.811 271.916 337.545C271.916 337.279 272.021 337.024 272.209 336.836C272.397 336.648 272.651 336.542 272.917 336.542H307.178C307.444 336.542 307.698 336.648 307.886 336.836C308.074 337.024 308.179 337.279 308.179 337.545C308.179 337.811 308.074 338.066 307.886 338.255C307.698 338.443 307.444 338.548 307.178 338.548Z" fill="#FFB5D1"/>
<path d="M307.18 362.621H272.919C272.653 362.621 272.399 362.516 272.211 362.328C272.023 362.139 271.918 361.884 271.918 361.618C271.918 361.352 272.023 361.097 272.211 360.909C272.399 360.721 272.653 360.615 272.919 360.615H307.18C307.446 360.615 307.7 360.721 307.888 360.909C308.075 361.097 308.181 361.352 308.181 361.618C308.181 361.884 308.075 362.139 307.888 362.328C307.7 362.516 307.446 362.621 307.18 362.621Z" fill="#FFB5D1"/>
<path d="M296.021 373.775H272.917C272.651 373.775 272.397 373.669 272.209 373.481C272.021 373.293 271.916 373.038 271.916 372.772C271.916 372.506 272.021 372.251 272.209 372.063C272.397 371.874 272.651 371.769 272.917 371.769H296.021C296.287 371.769 296.541 371.874 296.729 372.063C296.916 372.251 297.022 372.506 297.022 372.772C297.022 373.038 296.916 373.293 296.729 373.481C296.541 373.669 296.287 373.775 296.021 373.775Z" fill="#FFB5D1"/>
<path d="M8.34064 419.74H658.562C667.348 419.74 676.143 419.861 684.919 419.74H686.07C686.401 419.74 686.72 419.608 686.954 419.373C687.189 419.138 687.32 418.819 687.32 418.487C687.32 418.154 687.189 417.835 686.954 417.6C686.72 417.365 686.401 417.233 686.07 417.233H35.8581C27.0725 417.233 18.2769 417.102 9.49136 417.233H8.34064C8.0089 417.233 7.69076 417.365 7.45619 417.6C7.22162 417.835 7.08984 418.154 7.08984 418.487C7.08984 418.819 7.22162 419.138 7.45619 419.373C7.69076 419.608 8.0089 419.74 8.34064 419.74Z" fill="#0F110E"/>
</svg>
