<svg width="192" height="196" viewBox="0 0 192 196" fill="none" xmlns="http://www.w3.org/2000/svg">
<g clip-path="url(#clip0_2374_173600)">
<path d="M159.28 140.58L137.37 149.09L120.2 155.76L96.8 164.84L96.68 164.89L94.09 164.38C93.4648 164.254 92.8819 163.971 92.3957 163.558C91.9095 163.145 91.5359 162.616 91.31 162.02L48.5 45C49.5 43 50.5 42 51.5 41C65.5525 27.8258 92.4824 19.7843 111 18.3062C114.02 18.0651 114.816 17.6631 115.89 20.4999L160.42 138.07C160.588 138.554 160.564 139.085 160.352 139.552C160.139 140.02 159.756 140.387 159.28 140.58Z" fill="#053CA7"/>
<path d="M50.4328 42.0423L50.5586 42C58.1448 61.9598 66.2455 83.0213 73.9131 103.447C81.6595 123.829 89.5007 144.972 97 164.949L96.8774 165L94.2322 164.481C93.5937 164.352 92.9983 164.064 92.5017 163.644C92.0052 163.224 91.6237 162.685 91.3929 162.077L70.1117 104.861L48.2445 47.8461C48.0161 47.2379 47.9462 46.5819 48.0413 45.9394C48.1364 45.2969 48.3935 44.689 48.7884 44.1725L50.4328 42.0423Z" fill="#3C2238"/>
<path d="M115.22 28.2798L152.16 127.66L95.83 148.33L58.96 50.3798L115.22 28.2798Z" fill="#E5E9FC"/>
<circle cx="104" cy="86" r="21" fill="#DF3056"/>
<path d="M121.09 144.85C121.088 145.899 121.397 146.924 121.978 147.797C122.559 148.67 123.386 149.351 124.355 149.754C125.323 150.156 126.389 150.263 127.418 150.059C128.446 149.856 129.392 149.352 130.134 148.611C130.876 147.87 131.382 146.926 131.587 145.898C131.793 144.869 131.688 143.803 131.287 142.834C130.887 141.865 130.207 141.037 129.335 140.454C128.464 139.871 127.439 139.56 126.39 139.56C124.986 139.56 123.639 140.117 122.646 141.109C121.652 142.101 121.093 143.446 121.09 144.85Z" stroke="#FFC8D4" stroke-width="0.45" stroke-linecap="round" stroke-linejoin="round"/>
<path d="M91.2 30.6999C91.469 31.1427 91.8633 31.4959 92.333 31.7147C92.8027 31.9335 93.3267 32.0081 93.8387 31.9291C94.3508 31.8501 94.828 31.621 95.2099 31.2709C95.5918 30.9207 95.8613 30.4652 95.9844 29.9619C96.1074 29.4585 96.0784 28.93 95.9011 28.4432C95.7238 27.9563 95.4061 27.533 94.9882 27.2266C94.5704 26.9203 94.071 26.7448 93.5533 26.7222C93.0357 26.6997 92.523 26.8311 92.08 27.0999C91.4879 27.4623 91.0631 28.0442 90.8982 28.7186C90.7334 29.393 90.8419 30.1052 91.2 30.6999Z" stroke="#D8E1FF" stroke-width="0.36" stroke-miterlimit="10"/>
<path d="M75.1799 37.3598L86.5799 33.0198C86.7982 32.9327 86.9739 32.7636 87.0692 32.5487C87.1645 32.3338 87.1719 32.0901 87.0899 31.8698C87.0489 31.76 86.9865 31.6595 86.9061 31.5742C86.8258 31.4888 86.7293 31.4204 86.6221 31.3729C86.515 31.3254 86.3995 31.2998 86.2823 31.2975C86.1652 31.2953 86.0488 31.3164 85.9399 31.3598L74.5299 35.7398C74.3097 35.825 74.1318 35.9932 74.0345 36.2084C73.9373 36.4235 73.9284 36.6682 74.0099 36.8898C74.0557 36.9976 74.1223 37.0953 74.2059 37.1773C74.2896 37.2593 74.3886 37.3241 74.4973 37.3677C74.606 37.4114 74.7223 37.4331 74.8394 37.4318C74.9565 37.4304 75.0722 37.406 75.1799 37.3598Z" stroke="#D8E1FF" stroke-width="0.36" stroke-linecap="round" stroke-linejoin="round"/>
<path d="M214.18 216.98V225.14H145.3C144.21 224.415 143.159 223.634 142.15 222.8C137 218.55 122.23 205.17 110.84 194.19L110.21 193.59C104.45 188.01 99.63 183.12 97.51 180.47C97.33 180.26 97.18 180.05 97.04 179.87C96.51 179.13 96.26 178.64 96.35 178.44C98.45 174.1 106.62 169.63 115.57 174.63C121.817 178.3 127.718 182.531 133.2 187.27C133.2 187.27 126.67 172.19 120.2 155.77C118.31 150.97 116.44 146.08 114.73 141.39C112.91 136.39 111.28 131.7 110.04 127.64C108.16 121.46 109.82 116.36 112.5 115.13C113.745 114.527 115.118 114.235 116.5 114.28C117.066 114.306 117.627 114.4 118.17 114.56C119.814 115.096 121.211 116.203 122.11 117.68C123.24 119.46 124.46 121.61 125.71 123.96L126.05 124.61C127.78 127.92 129.57 131.61 131.28 135.31C133.51 140.17 135.63 145.04 137.28 149.09C139.59 154.55 141.15 158.5 141.28 158.81C141.2 158.34 139.93 151.12 146.28 148.81C152.86 146.44 158.39 155.91 158.39 155.91C159.071 155.052 159.961 154.383 160.975 153.968C161.989 153.553 163.093 153.405 164.18 153.54C167.87 154.08 170.5 158.54 170.5 158.54C170.5 158.54 173.4 154.59 177.35 156.7C180.53 158.36 204.53 199.97 214.18 216.98Z" fill="#FFA4A5"/>
<path opacity="0.58" d="M214.18 216.98V225.14H145.3C144.21 224.415 143.159 223.634 142.15 222.8C137 218.55 122.23 205.17 110.84 194.19L110.21 193.59C104.45 188.01 99.63 183.12 97.51 180.47C97.33 180.26 97.18 180.05 97.04 179.87C96.51 179.13 96.26 178.64 96.35 178.44C98.45 174.1 106.62 169.63 115.57 174.63C121.817 178.3 127.718 182.531 133.2 187.27C133.2 187.27 126.67 172.19 120.2 155.77C118.31 150.97 116.44 146.08 114.73 141.39C112.91 136.39 111.28 131.7 110.04 127.64C108.16 121.46 109.82 116.36 112.5 115.13C113.745 114.527 115.118 114.235 116.5 114.28C117.066 114.306 117.627 114.4 118.17 114.56C119.814 115.096 121.211 116.203 122.11 117.68C123.24 119.46 124.46 121.61 125.71 123.96L126.05 124.61C127.78 127.92 129.57 131.61 131.28 135.31C133.51 140.17 135.63 145.04 137.28 149.09C139.59 154.55 141.15 158.5 141.28 158.81C141.2 158.34 139.93 151.12 146.28 148.81C152.86 146.44 158.39 155.91 158.39 155.91C159.071 155.052 159.961 154.383 160.975 153.968C161.989 153.553 163.093 153.405 164.18 153.54C167.87 154.08 170.5 158.54 170.5 158.54C170.5 158.54 173.4 154.59 177.35 156.7C180.53 158.36 204.53 199.97 214.18 216.98Z" fill="#AB4C5D"/>
<path d="M110.84 194.19L110.21 193.59C111.38 189.8 111.27 186.67 109.9 184.26C108.967 182.781 107.687 181.552 106.171 180.681C104.654 179.809 102.948 179.322 101.2 179.26C99.8781 179.285 98.5934 179.702 97.51 180.46C97.33 180.24 97.18 180.04 97.04 179.85C98.2528 178.993 99.695 178.519 101.18 178.49C103.187 178.508 105.148 179.09 106.84 180.17C108.376 181.064 109.66 182.334 110.57 183.86C112.1 186.55 112.2 190.02 110.84 194.19Z" fill="#3C2238"/>
<path d="M126.09 124.6C123.972 126.145 121.493 127.119 118.89 127.43C118.717 127.44 118.543 127.44 118.37 127.43C117.759 127.444 117.154 127.306 116.609 127.029C116.065 126.751 115.598 126.343 115.25 125.84C114.085 124.268 113.336 122.428 113.07 120.49C112.927 119.217 113.184 117.931 113.806 116.81C114.428 115.69 115.383 114.792 116.54 114.24C117.106 114.269 117.667 114.366 118.21 114.53C117.868 114.56 117.532 114.634 117.21 114.75C116.087 115.177 115.138 115.966 114.515 116.994C113.891 118.021 113.629 119.227 113.77 120.42C114.041 122.231 114.752 123.948 115.84 125.42C116.172 125.876 116.622 126.233 117.142 126.452C117.662 126.67 118.232 126.742 118.79 126.66C121.322 126.352 123.733 125.398 125.79 123.89L126.09 124.6Z" fill="#3C2238"/>
<g clip-path="url(#clip1_2374_173600)">
<path d="M171.59 76.5369L183.315 28.9694L136.299 14.0806L132.418 16.0175C130.706 16.8566 129.469 18.0705 129.191 19.1149L117.099 64.317C116.896 65.0816 117.006 65.8949 117.404 66.5791C117.802 67.2633 118.456 67.7626 119.223 67.9678L164.087 79.8485C164.609 79.9846 165.154 80.0128 165.687 79.9315C166.221 79.8501 166.732 79.6609 167.189 79.3754L171.59 76.5369Z" fill="#3C2238"/>
<path d="M134.247 16.2139L122.181 61.4071C122.078 61.784 122.052 62.1774 122.103 62.5646C122.154 62.9518 122.281 63.3251 122.478 63.663C122.675 64.0008 122.937 64.2964 123.249 64.5328C123.561 64.7692 123.917 64.9416 124.297 65.04L169.17 76.9475C169.935 77.1493 170.75 77.041 171.435 76.6462C172.121 76.2514 172.621 75.6023 172.827 74.8409L184.928 29.6478C185.131 28.8844 185.021 28.0721 184.622 27.3894C184.224 26.7066 183.57 26.2091 182.804 26.0059L137.94 14.1074C137.558 14.0021 137.16 13.9731 136.767 14.0222C136.374 14.0713 135.995 14.1975 135.652 14.3934C135.308 14.5893 135.007 14.851 134.766 15.1635C134.525 15.476 134.348 15.833 134.247 16.2139Z" fill="#599AF2"/>
<path d="M149.387 29.0136C149.171 29.853 148.71 30.6101 148.063 31.1895C147.417 31.769 146.612 32.1449 145.751 32.27C144.89 32.3952 144.011 32.2638 143.225 31.8926C142.438 31.5214 141.78 30.9269 141.332 30.1839C140.885 29.4409 140.668 28.5826 140.709 27.7171C140.75 26.8516 141.047 26.0175 141.563 25.3199C142.079 24.6222 142.791 24.0922 143.609 23.7964C144.427 23.5007 145.314 23.4525 146.16 23.6579C146.727 23.7945 147.261 24.0422 147.732 24.3864C148.202 24.7306 148.599 25.1645 148.899 25.6629C149.199 26.1614 149.397 26.7143 149.481 27.2895C149.565 27.8647 149.532 28.4508 149.387 29.0136Z" fill="white"/>
<path d="M139.634 34.6016L133.825 58.1041L141.041 59.8804L146.823 36.5207L139.634 34.6016Z" fill="white"/>
<path d="M150.991 37.5474L145.254 60.7554L152.327 62.487L155.347 50.3921C155.347 50.3921 156.244 45.0364 161.066 46.1343C165.889 47.2323 164.544 52.1773 164.544 52.1773L161.371 65.0042L168.542 66.7895L172.083 52.5076C172.083 52.5076 173.876 47.5179 170.747 43.8403C167.619 40.1627 162.51 38.8327 156.791 42.4657L157.615 39.1273C157.615 39.1273 151.045 37.6366 150.991 37.5474Z" fill="white"/>
</g>
<g clip-path="url(#clip2_2374_173600)">
<path d="M93.0399 172.16L85.1599 167.57C86.5054 162.015 85.6712 156.155 82.8288 151.196C79.9865 146.237 75.352 142.555 69.8785 140.908C64.4049 139.26 58.5083 139.773 53.4011 142.34C48.2938 144.907 44.3642 149.333 42.4202 154.708C40.4762 160.084 40.6655 165.999 42.9494 171.239C45.2332 176.479 49.4379 180.645 54.6989 182.88C59.9598 185.115 65.8772 185.25 71.2342 183.256C76.5912 181.262 80.9806 177.291 83.4999 172.16H93.0399Z" fill="#FFC8D4"/>
<path d="M54.98 158.16L58.06 158.27C58.06 158.27 65.27 147.5 67.18 147.99C69.09 148.48 66.39 156.31 66.39 156.31C66.39 156.31 72.17 157.08 72.93 158.31C73.69 159.54 71.02 161.77 71.02 161.77C71.02 161.77 74.57 163.18 73.95 164.68C73.3471 165.759 72.4486 166.644 71.36 167.23C71.36 167.23 73.94 169.37 72.68 170.99C71.42 172.61 55.05 171.06 55.05 171.06L54.98 158.16Z" fill="white"/>
<path d="M58.0601 158.25L58.0801 171.24" stroke="#3C2238" stroke-width="0.47" stroke-linecap="round" stroke-linejoin="round"/>
</g>
<g clip-path="url(#clip3_2374_173600)">
<path d="M27.3997 39.1061L27.9325 11.5478L54.9445 10.231L56.7286 11.8409C57.5359 12.5467 58 13.3889 58 13.9957V40.3238C58 40.7683 57.8274 41.1946 57.5201 41.5089C57.2127 41.8232 56.7959 41.9998 56.3612 41.9998H30.9033C30.6077 41.9981 30.3156 41.9346 30.0449 41.8133C29.7741 41.6919 29.5306 41.5151 29.3291 41.2939L27.3997 39.1061Z" fill="#053CA7"/>
<path d="M28.6347 39.6841H54.0926C54.9977 39.6841 55.7314 38.9337 55.7314 38.0081V11.68C55.7314 10.7543 54.9977 10.004 54.0926 10.004L28.6347 10.004C27.7296 10.004 26.9959 10.7543 26.9959 11.68L26.9959 38.0081C26.9959 38.9337 27.7296 39.6841 28.6347 39.6841Z" fill="#0A4DD0"/>
<path opacity="0.81" d="M28.6347 39.6841H54.0926C54.9977 39.6841 55.7314 38.9337 55.7314 38.0081V11.68C55.7314 10.7543 54.9977 10.004 54.0926 10.004L28.6347 10.004C27.7296 10.004 26.9959 10.7543 26.9959 11.68L26.9959 38.0081C26.9959 38.9337 27.7296 39.6841 28.6347 39.6841Z" fill="#053CA7"/>
<path d="M45.4304 14.8379H46.7947C46.7947 14.8379 46.6252 17.6243 48.6717 18.9659C50.7182 20.3074 51.808 20.0102 51.808 20.0102V23.8121C51.808 23.8121 48.8049 23.9855 46.7624 22.1609V29.8389C46.7624 30.1689 46.7299 30.498 46.6656 30.8214C46.3628 32.3074 45.2124 36.0598 41.2042 36.423C36.191 36.8771 33.7005 33.422 33.2242 30.3549C32.7479 27.2878 34.863 24.2538 34.863 24.2538C34.863 24.2538 39.4968 22.7884 39.6018 22.7182C39.9882 22.6937 40.376 22.7062 40.7602 22.7553L40.7239 26.6934C40.2346 26.4952 39.696 26.4628 39.1874 26.6011C38.6788 26.7393 38.2269 27.0408 37.8984 27.4612C36.639 28.9597 36.9458 30.4251 37.5593 31.3663C38.1729 32.3074 41.5473 31.647 41.5473 31.647L44.4818 24.1465L45.4304 14.8379Z" fill="#DF3056"/>
<path d="M45.6685 13.7314H41.8864L41.9348 29.0049C41.9348 29.0049 41.733 32.039 38.5603 31.6716C35.3877 31.3042 34.4674 25.9213 39.4282 25.5003L39.634 21.7603C39.634 21.7603 34.3866 21.4218 32.6792 26.2351C30.9718 31.0483 34.1121 35.7005 39.2748 35.5436C44.4374 35.3868 45.6685 30.2598 45.6685 28.6912V21.0875C45.6685 21.0875 47.049 22.7098 50.7343 22.9162V18.9409C50.7343 18.9409 45.5151 18.9409 45.6685 13.7314Z" fill="#0A4DD0"/>
<path d="M45.8422 14.8008H42.8754C42.8754 14.8008 42.8997 27.8947 42.8391 30.4251C42.8109 31.6635 39.7714 33.7275 37.7612 31.6635L37.4181 31.1723C37.4181 31.1723 35.5331 30.2559 36.1224 27.775C36.5664 25.9091 39.4283 25.4633 39.4283 25.4633L39.5655 22.7017C39.5655 22.7017 34.7944 22.8379 33.5674 27.3746C32.3403 31.9112 34.52 33.8926 34.8954 34.3137C35.4685 34.9494 36.6593 35.2631 37.4383 35.453C39.0828 35.8945 40.8291 35.6959 42.3386 34.8957C44.5183 33.6945 45.6404 31.3498 45.705 28.873C45.7776 25.905 45.705 21.1991 45.705 21.1991C45.705 21.1991 47.8685 23.1723 50.7667 22.9288V19.841C50.7667 19.841 48.1269 19.0154 47.7151 17.9917C47.7151 18.0082 45.6687 16.5428 45.8422 14.8008Z" fill="#FFFAF3"/>
</g>
<g clip-path="url(#clip4_2374_173600)">
<path d="M48.3514 123.594C54.5609 123.594 59.5946 118.561 59.5946 112.351C59.5946 106.142 54.5609 101.108 48.3514 101.108C42.1419 101.108 37.1082 106.142 37.1082 112.351C37.1082 118.561 42.1419 123.594 48.3514 123.594Z" fill="#3C2238"/>
<path d="M47.6488 122.892C53.8582 122.892 58.892 117.858 58.892 111.649C58.892 105.439 53.8582 100.405 47.6488 100.405C41.4393 100.405 36.4055 105.439 36.4055 111.649C36.4055 117.858 41.4393 122.892 47.6488 122.892Z" fill="#053CA7"/>
<path fill-rule="evenodd" clip-rule="evenodd" d="M43 106.519C43 106.232 43.2447 106 43.5465 106H54.4535C54.7553 106 55 106.232 55 106.519V115.481C55 115.768 54.7553 116 54.4535 116C54.1517 116 53.9071 115.768 53.9071 115.481V107.038H43.5465C43.2447 107.038 43 106.806 43 106.519Z" fill="white"/>
<path fill-rule="evenodd" clip-rule="evenodd" d="M56.7708 113.108C57.0163 113.295 57.0736 113.659 56.8988 113.921L55.0098 116.755C54.9092 116.906 54.7474 116.997 54.5741 117C54.4007 117.003 54.2363 116.918 54.1313 116.77L52.1115 113.936C51.929 113.68 51.9754 113.314 52.2151 113.119C52.4548 112.924 52.7971 112.974 52.9796 113.23L54.5507 115.434L56.01 113.245C56.1848 112.983 56.5254 112.921 56.7708 113.108Z" fill="white"/>
<path fill-rule="evenodd" clip-rule="evenodd" d="M40.5467 108C40.8486 108 41.0934 108.232 41.0934 108.519V116.962H50.4533C50.7552 116.962 51 117.195 51 117.481C51 117.768 50.7552 118 50.4533 118H40.5467C40.2448 118 40 117.768 40 117.481V108.519C40 108.232 40.2448 108 40.5467 108Z" fill="white"/>
<path fill-rule="evenodd" clip-rule="evenodd" d="M40.4185 107C40.5917 106.997 40.756 107.082 40.8613 107.229L42.8876 110.061C43.0708 110.317 43.0253 110.684 42.7861 110.88C42.5468 111.076 42.2044 111.027 42.0213 110.771L40.4443 108.567L38.9901 110.755C38.8155 111.017 38.4749 111.079 38.2294 110.892C37.9839 110.705 37.9264 110.34 38.101 110.078L39.9835 107.245C40.0839 107.094 40.2454 107.003 40.4185 107Z" fill="white"/>
</g>
<g clip-path="url(#clip5_2374_173600)">
<path d="M86.85 76.9498L86.62 70.8998C86.4873 67.6245 85.063 64.5351 82.6588 62.307C80.2545 60.0789 77.0659 58.8934 73.79 59.0098L30.9 60.6298C27.6248 60.7625 24.5353 62.1867 22.3072 64.591C20.0791 66.9952 18.8937 70.1839 19.01 73.4598L19.24 79.5098C19.3728 82.7859 20.7967 85.8763 23.2006 88.106C25.6045 90.3357 28.7932 91.5235 32.07 91.4098L74.95 89.7898H75.17L85.06 92.2698L81.38 87.6298C83.1217 86.4586 84.5374 84.8642 85.4941 82.9961C86.4509 81.1281 86.9175 79.0475 86.85 76.9498Z" fill="#FFFAF3"/>
<path d="M44.75 75.1898C44.7796 75.7856 44.6309 76.3767 44.323 76.8876C44.015 77.3985 43.5617 77.806 43.021 78.058C42.4803 78.31 41.8767 78.3951 41.2874 78.3024C40.6981 78.2097 40.1498 77.9434 39.7126 77.5375C39.2754 77.1316 38.9691 76.6046 38.8329 76.0238C38.6967 75.443 38.7367 74.8348 38.9479 74.2769C39.1591 73.7189 39.5318 73.2366 40.0185 72.8916C40.5051 72.5465 41.0836 72.3544 41.6799 72.3398C42.4623 72.3205 43.2212 72.6078 43.7947 73.1402C44.3683 73.6727 44.7111 74.4082 44.75 75.1898Z" fill="#3C2238"/>
<path d="M57.6501 74.7C57.6798 75.2959 57.5311 75.887 57.2231 76.3979C56.9152 76.9088 56.4618 77.3163 55.9211 77.5683C55.3804 77.8203 54.7768 77.9054 54.1875 77.8127C53.5982 77.72 53.05 77.4537 52.6127 77.0478C52.1755 76.6419 51.8693 76.1149 51.733 75.5341C51.5968 74.9533 51.6369 74.3451 51.8481 73.7872C52.0592 73.2292 52.432 72.7469 52.9186 72.4019C53.4053 72.0568 53.9837 71.8647 54.5801 71.85C55.3624 71.8308 56.1214 72.1181 56.6949 72.6505C57.2684 73.1829 57.6112 73.9184 57.6501 74.7Z" fill="#3C2238"/>
<path d="M70.56 74.2098C70.5897 74.8056 70.441 75.3967 70.133 75.9076C69.825 76.4186 69.3718 76.826 68.831 77.0781C68.2903 77.3301 67.6867 77.4152 67.0974 77.3224C66.5081 77.2297 65.9598 76.9634 65.5226 76.5575C65.0854 76.1516 64.7792 75.6246 64.643 75.0438C64.5068 74.463 64.5468 73.8548 64.758 73.2969C64.9692 72.739 65.3419 72.2567 65.8285 71.9116C66.3152 71.5666 66.8936 71.3745 67.49 71.3598C68.2724 71.3406 69.0313 71.6278 69.6048 72.1603C70.1784 72.6927 70.5211 73.4282 70.56 74.2098Z" fill="#3C2238"/>
</g>
</g>
<defs>
<clipPath id="clip0_2374_173600">
<rect width="214" height="225" fill="white"/>
</clipPath>
<clipPath id="clip1_2374_173600">
<rect width="68" height="66" fill="white" transform="translate(117 14)"/>
</clipPath>
<clipPath id="clip2_2374_173600">
<rect width="52.04" height="44.78" fill="white" transform="translate(41 140)"/>
</clipPath>
<clipPath id="clip3_2374_173600">
<rect width="31" height="32" fill="white" transform="translate(27 10)"/>
</clipPath>
<clipPath id="clip4_2374_173600">
<rect width="26" height="26" fill="white" transform="translate(35 99)"/>
</clipPath>
<clipPath id="clip5_2374_173600">
<rect width="67.86" height="33.31" fill="white" transform="translate(19 59)"/>
</clipPath>
</defs>
</svg>
