<svg width="148" height="142" viewBox="0 0 148 142" fill="none" xmlns="http://www.w3.org/2000/svg">
<path d="M118.711 177H104.112C103.186 176.999 102.299 176.63 101.644 175.974C100.989 175.319 100.621 174.43 100.62 173.503V95.1392H123.372V172.332C123.373 172.945 123.253 173.553 123.019 174.119C122.785 174.686 122.441 175.201 122.008 175.635C121.575 176.068 121.061 176.412 120.495 176.646C119.929 176.881 119.323 177.001 118.711 177Z" fill="#3E479B"/>
<path d="M120.018 177H110.673V95.1392H123.372V173.641C123.372 174.532 123.019 175.386 122.39 176.016C121.761 176.646 120.908 177 120.018 177Z" fill="#4C65BA"/>
<path d="M71.6869 19.9009H144.458C148.325 19.9002 152.155 20.6624 155.728 22.1439C159.301 23.6255 162.547 25.7974 165.281 28.5355C168.016 31.2737 170.185 34.5245 171.664 38.1022C173.144 41.6799 173.905 45.5144 173.904 49.3867V101.195C173.904 101.767 173.678 102.315 173.274 102.72C172.87 103.124 172.322 103.351 171.751 103.351H44.0027C43.9706 103.352 43.9386 103.346 43.9087 103.334C43.8789 103.322 43.8518 103.304 43.829 103.282C43.8063 103.259 43.7884 103.232 43.7764 103.202C43.7644 103.172 43.7586 103.14 43.7593 103.108V47.8873C43.7593 40.4685 46.701 33.3533 51.9378 28.1054C57.1747 22.8575 64.2781 19.9065 71.6869 19.9009Z" fill="#599AF2"/>
<g opacity="0.07">
<path d="M80.682 31.2925H135.712C143.521 31.2925 151.011 34.399 156.533 39.9287C162.055 45.4584 165.158 52.9582 165.158 60.7783V101.195C165.158 101.767 164.931 102.315 164.527 102.72C164.123 103.124 163.575 103.351 163.004 103.351H52.9979C52.9657 103.352 52.9337 103.346 52.9039 103.334C52.874 103.322 52.8469 103.304 52.8241 103.282C52.8014 103.259 52.7835 103.232 52.7715 103.202C52.7595 103.172 52.7537 103.14 52.7545 103.108V59.2789C52.7545 51.8601 55.6961 44.7449 60.933 39.497C66.1698 34.2491 73.2732 31.2981 80.682 31.2925Z" fill="#ECF1F7"/>
</g>
<g opacity="0.65">
<path d="M171.476 103.616H91.0952V96.7285H173.904V101.185C173.905 101.504 173.843 101.821 173.721 102.116C173.599 102.411 173.42 102.68 173.194 102.906C172.969 103.132 172.701 103.311 172.406 103.433C172.111 103.555 171.795 103.617 171.476 103.616Z" fill="#4C65BA"/>
</g>
<g opacity="0.65">
<path d="M171.476 103.616H91.0952V96.7285H173.904V101.185C173.905 101.504 173.843 101.821 173.721 102.116C173.599 102.411 173.42 102.68 173.194 102.906C172.969 103.132 172.701 103.311 172.406 103.433C172.111 103.555 171.795 103.617 171.476 103.616Z" fill="#4C65BA"/>
</g>
<path d="M172.053 103.351H135.479V96.9297H173.905V101.497C173.907 101.741 173.86 101.983 173.768 102.209C173.676 102.435 173.539 102.64 173.367 102.813C173.194 102.986 172.989 103.122 172.764 103.215C172.538 103.307 172.296 103.354 172.053 103.351Z" fill="#3E479B"/>
<path opacity="0.07" d="M173.905 49.5723H95.064V96.7285H173.905V49.5723Z" fill="#373449"/>
<path d="M91.8887 101.497H46.9126C46.0706 101.497 45.2631 101.162 44.6677 100.566C44.0723 99.97 43.7378 99.1614 43.7378 98.3182V47.1882C43.7371 43.8134 44.4004 40.4715 45.6898 37.3534C46.9793 34.2353 48.8696 31.4022 51.2527 29.0158C53.6359 26.6294 56.4652 24.7366 59.5791 23.4454C62.693 22.1542 66.0304 21.49 69.4007 21.4907C72.771 21.49 76.1084 22.1542 79.2222 23.4454C82.3361 24.7366 85.1654 26.6294 87.5486 29.0158C89.9318 31.4022 91.822 34.2353 93.1115 37.3534C94.4009 40.4715 95.0642 43.8134 95.0635 47.1882V98.3182C95.0635 99.1614 94.729 99.97 94.1337 100.566C93.5383 101.162 92.7307 101.497 91.8887 101.497Z" fill="#4C65BA"/>
<path d="M91.3599 101.497H46.3838V47.7176C46.3838 41.7454 48.7531 36.0177 52.9704 31.7947C57.1877 27.5717 62.9077 25.1992 68.8719 25.1992C74.8361 25.1992 80.556 27.5717 84.7733 31.7947C88.9907 36.0177 91.3599 41.7454 91.3599 47.7176V101.497Z" fill="#373449"/>
<mask id="mask0_390_26258" style="mask-type:luminance" maskUnits="userSpaceOnUse" x="46" y="25" width="46" height="77">
<path d="M91.3599 101.497H46.3838V47.7176C46.3838 41.7454 48.7531 36.0177 52.9704 31.7947C57.1877 27.5717 62.9077 25.1992 68.8719 25.1992C74.8361 25.1992 80.556 27.5717 84.7733 31.7947C88.9907 36.0177 91.3599 41.7454 91.3599 47.7176V101.497Z" fill="white"/>
</mask>
<g mask="url(#mask0_390_26258)">
<path d="M93.1642 94.609H55.9081C55.5875 94.6097 55.27 94.547 54.9737 94.4245C54.6775 94.302 54.4083 94.1221 54.1817 93.8951C53.955 93.6682 53.7754 93.3986 53.653 93.102C53.5307 92.8053 53.4681 92.4874 53.4688 92.1664V69.7063C53.4688 68.8983 53.7893 68.1234 54.3599 67.552C54.9305 66.9807 55.7043 66.6597 56.5113 66.6597H91.9154C92.8978 66.6597 93.8399 67.0504 94.5345 67.746C95.2291 68.4415 95.6193 69.3849 95.6193 70.3686V92.1664C95.6201 92.4887 95.5569 92.808 95.4336 93.1057C95.3103 93.4034 95.1292 93.6736 94.9009 93.9008C94.6725 94.128 94.4015 94.3075 94.1034 94.4291C93.8053 94.5506 93.486 94.6118 93.1642 94.609Z" fill="#6D6CD4"/>
<path opacity="0.56" d="M93.688 94.6089H55.3842C54.8762 94.6089 54.389 94.4068 54.0298 94.0471C53.6706 93.6874 53.4688 93.1995 53.4688 92.6908V69.3777C53.4693 69.0915 53.5725 68.815 53.7598 68.5988C53.8661 68.4772 54.0153 68.4016 54.1761 68.3877C54.3369 68.3739 54.4968 68.423 54.6223 68.5246L69.2686 80.6634L72.2952 83.1748C72.9236 83.6938 73.7142 83.975 74.5287 83.9692C75.3431 83.9633 76.1296 83.6709 76.7505 83.143L94.741 67.8623C95.0567 68.1161 95.3026 68.4464 95.4553 68.8219C95.6081 69.1974 95.6627 69.6057 95.6141 70.0082V92.712C95.6085 93.2189 95.4027 93.7029 95.0418 94.0583C94.6809 94.4138 94.1942 94.6117 93.688 94.6089Z" fill="#3E479B"/>
<path d="M54.3418 94.8475C54.2339 94.8484 54.1284 94.8163 54.0392 94.7555C53.9501 94.6946 53.8817 94.608 53.8431 94.5071C53.8045 94.4062 53.7977 94.296 53.8234 94.1911C53.8492 94.0862 53.9064 93.9917 53.9873 93.9203L69.7871 79.8476C69.8924 79.7541 70.0304 79.7064 70.1708 79.7148C70.3112 79.7233 70.4425 79.7872 70.5359 79.8926C70.6292 79.998 70.6769 80.1362 70.6684 80.2768C70.66 80.4174 70.5961 80.5489 70.4909 80.6423L54.691 94.715C54.5946 94.8002 54.4704 94.8473 54.3418 94.8475Z" fill="#6D6CD4"/>
<path d="M94.1483 94.8472C94.0197 94.847 93.8956 94.7999 93.7991 94.7147L78.4543 81.0871C78.3983 81.0421 78.352 80.9862 78.3183 80.9227C78.2846 80.8592 78.2641 80.7894 78.2582 80.7178C78.2522 80.6461 78.2609 80.574 78.2837 80.5058C78.3065 80.4375 78.3429 80.3747 78.3907 80.3211C78.4386 80.2674 78.4968 80.2241 78.5619 80.1937C78.627 80.1633 78.6976 80.1465 78.7694 80.1443C78.8412 80.1421 78.9126 80.1546 78.9795 80.1809C79.0463 80.2073 79.1071 80.247 79.1581 80.2977L94.5029 93.92C94.6072 94.0135 94.6703 94.1447 94.6782 94.2847C94.6862 94.4248 94.6383 94.5623 94.5452 94.667C94.4956 94.7236 94.4346 94.7689 94.3661 94.7999C94.2977 94.831 94.2235 94.8471 94.1483 94.8472Z" fill="#6D6CD4"/>
<path d="M91.6246 101.497H49.8232V98.9112C49.8225 98.346 49.9332 97.7863 50.1489 97.264C50.3646 96.7417 50.681 96.2671 51.0801 95.8675C51.4792 95.4678 51.9532 95.1509 52.4747 94.935C52.9963 94.719 53.5554 94.6082 54.1198 94.6089H91.6246V101.497Z" fill="#F28393"/>
</g>
<path d="M90.0844 111.034H14.498C13.8212 111.034 13.151 110.901 12.5257 110.641C11.9004 110.382 11.3323 110.002 10.8537 109.523C10.3752 109.044 9.99554 108.475 9.73655 107.848C9.47755 107.222 9.34424 106.551 9.34424 105.874V101.497H96.1218V104.989C96.1218 106.592 95.4857 108.13 94.3535 109.264C93.2212 110.397 91.6856 111.034 90.0844 111.034Z" fill="#599AF2"/>
<path d="M90.0845 111.034H66.353C65.6762 111.034 65.006 110.901 64.3807 110.641C63.7554 110.382 63.1873 110.002 62.7087 109.523C62.2301 109.044 61.8505 108.475 61.5915 107.848C61.3325 107.222 61.1992 106.551 61.1992 105.874V101.497H96.1219V104.989C96.1219 106.592 95.4858 108.13 94.3536 109.264C93.2213 110.397 91.6857 111.034 90.0845 111.034Z" fill="#4C65BA"/>
<path d="M115.7 58.5798C119.791 58.5798 123.108 55.2587 123.108 51.162C123.108 47.0652 119.791 43.7441 115.7 43.7441C111.609 43.7441 108.292 47.0652 108.292 51.162C108.292 55.2587 111.609 58.5798 115.7 58.5798Z" fill="#3E479B"/>
<path d="M115.7 53.5459C115.387 53.5466 115.077 53.4854 114.788 53.3658C114.499 53.2463 114.236 53.0707 114.015 52.8491C113.793 52.6276 113.618 52.3644 113.499 52.0749C113.379 51.7853 113.318 51.4749 113.319 51.1616V4.0054C113.318 3.69209 113.379 3.38174 113.499 3.09214C113.618 2.80255 113.793 2.53943 114.015 2.31789C114.236 2.09635 114.499 1.92075 114.788 1.80117C115.077 1.6816 115.387 1.6204 115.7 1.6211C116.013 1.6204 116.323 1.6816 116.612 1.80117C116.901 1.92075 117.164 2.09635 117.385 2.31789C117.606 2.53943 117.782 2.80255 117.901 3.09214C118.021 3.38174 118.082 3.69209 118.081 4.0054V51.1616C118.082 51.4749 118.021 51.7853 117.901 52.0749C117.782 52.3644 117.606 52.6276 117.385 52.8491C117.164 53.0707 116.901 53.2463 116.612 53.3658C116.323 53.4854 116.013 53.5466 115.7 53.5459Z" fill="#3E479B"/>
<path d="M116.758 57.52C120.265 57.52 123.108 54.6734 123.108 51.1618C123.108 47.6503 120.265 44.8037 116.758 44.8037C113.251 44.8037 110.409 47.6503 110.409 51.1618C110.409 54.6734 113.251 57.52 116.758 57.52Z" fill="#4C65BA"/>
<path d="M118.875 15.477V4.00586H140.585L118.875 15.477Z" fill="#6D6CD4"/>
<path d="M118.875 15.477V4.00586H140.585L118.875 15.477Z" fill="#6D6CD4"/>
<path d="M116.758 53.5459C116.445 53.5466 116.135 53.4854 115.846 53.3658C115.557 53.2463 115.294 53.0707 115.073 52.8491C114.852 52.6276 114.676 52.3644 114.557 52.0749C114.437 51.7853 114.376 51.4749 114.377 51.1616V4.0054C114.376 3.69209 114.437 3.38174 114.557 3.09214C114.676 2.80255 114.852 2.53943 115.073 2.31789C115.294 2.09635 115.557 1.92075 115.846 1.80117C116.135 1.6816 116.445 1.6204 116.758 1.6211C117.071 1.6204 117.381 1.6816 117.67 1.80117C117.959 1.92075 118.222 2.09635 118.443 2.31789C118.665 2.53943 118.84 2.80255 118.959 3.09214C119.079 3.38174 119.14 3.69209 119.139 4.0054V51.1616C119.14 51.4749 119.079 51.7853 118.959 52.0749C118.84 52.3644 118.665 52.6276 118.443 52.8491C118.222 53.0707 117.959 53.2463 117.67 53.3658C117.381 53.4854 117.071 53.5466 116.758 53.5459Z" fill="#4C65BA"/>
<path d="M116.758 54.8707C115.999 54.8707 115.258 54.6454 114.627 54.2233C113.996 53.8013 113.504 53.2013 113.214 52.4994C112.924 51.7975 112.848 51.0251 112.996 50.28C113.144 49.5348 113.509 48.8503 114.045 48.3131C114.582 47.7759 115.266 47.41 116.01 47.2618C116.754 47.1136 117.525 47.1897 118.226 47.4804C118.927 47.7711 119.526 48.2635 119.948 48.8952C120.369 49.5269 120.594 50.2696 120.594 51.0294C120.593 52.0477 120.188 53.024 119.469 53.7441C118.75 54.4642 117.775 54.8693 116.758 54.8707ZM116.758 47.7178C116.104 47.7178 115.465 47.912 114.921 48.2759C114.377 48.6398 113.953 49.157 113.703 49.7621C113.452 50.3672 113.387 51.033 113.515 51.6754C113.642 52.3178 113.957 52.9078 114.42 53.371C114.882 53.8341 115.471 54.1495 116.113 54.2773C116.754 54.405 117.419 54.3395 118.024 54.0888C118.628 53.8382 119.144 53.4137 119.508 52.8692C119.871 52.3246 120.065 51.6843 120.065 51.0294C120.065 50.1511 119.717 49.3088 119.097 48.6878C118.476 48.0667 117.635 47.7178 116.758 47.7178Z" fill="#3E479B"/>
<path d="M79.1946 85.1208H22.477C22.0849 85.1215 21.6965 85.0446 21.3341 84.8947C20.9717 84.7448 20.6425 84.5247 20.3652 84.2471C20.088 83.9694 19.8682 83.6397 19.7184 83.2768C19.5687 82.914 19.492 82.5251 19.4927 82.1324V47.0832C19.492 46.6405 19.5786 46.202 19.7474 45.7928C19.9163 45.3836 20.1642 45.0119 20.4768 44.6988C20.7894 44.3858 21.1607 44.1376 21.5693 43.9685C21.9779 43.7994 22.4158 43.7127 22.858 43.7134H77.9405C78.467 43.7127 78.9884 43.8159 79.475 44.0172C79.9616 44.2184 80.4038 44.5138 80.7763 44.8863C81.1488 45.2588 81.4443 45.7012 81.6459 46.1882C81.8476 46.6751 81.9513 47.1971 81.9513 47.7243V82.3603C81.9513 83.0924 81.6609 83.7945 81.1439 84.3122C80.6269 84.8299 79.9257 85.1208 79.1946 85.1208Z" fill="#6D6CD4"/>
<path opacity="0.59" d="M79.1152 85.1207H22.3288C21.9564 85.1207 21.5876 85.0473 21.2435 84.9045C20.8994 84.7618 20.5867 84.5526 20.3234 84.2889C20.06 84.0252 19.8511 83.7121 19.7086 83.3676C19.566 83.023 19.4927 82.6537 19.4927 82.2808V47.6925C19.491 47.2656 19.6453 46.8529 19.9266 46.5321C20.0841 46.3508 20.3061 46.2383 20.5453 46.2185C20.7845 46.1987 21.0219 46.2732 21.2071 46.4261L42.9015 64.4144L47.3938 68.1233C48.3231 68.894 49.4939 69.3123 50.7006 69.3045C51.9073 69.2968 53.0727 68.8635 53.992 68.0809L80.6497 45.4194C82.3164 47.009 81.9408 48.5985 81.9408 48.5985V82.2596C81.9436 82.6334 81.8726 83.0041 81.732 83.3504C81.5914 83.6967 81.3838 84.0119 81.1213 84.2777C80.8588 84.5435 80.5465 84.7548 80.2022 84.8995C79.8579 85.0441 79.4885 85.1193 79.1152 85.1207Z" fill="#3E479B"/>
<path d="M21.1382 84.8925C21.0303 84.8934 20.9247 84.8613 20.8356 84.8005C20.7465 84.7396 20.678 84.653 20.6395 84.5521C20.6009 84.4512 20.594 84.341 20.6198 84.2361C20.6456 84.1312 20.7028 84.0367 20.7837 83.9653L43.8485 63.4603C43.8995 63.4096 43.9603 63.3699 44.0271 63.3435C44.0939 63.3172 44.1654 63.3047 44.2372 63.3069C44.309 63.3091 44.3796 63.3259 44.4447 63.3563C44.5097 63.3867 44.568 63.43 44.6158 63.4837C44.6636 63.5373 44.7001 63.6001 44.7228 63.6683C44.7456 63.7366 44.7543 63.8087 44.7484 63.8804C44.7424 63.952 44.722 64.0217 44.6883 64.0852C44.6545 64.1488 44.6083 64.2047 44.5522 64.2497L21.4874 84.7335C21.3949 84.8284 21.2703 84.8851 21.1382 84.8925Z" fill="#6D6CD4"/>
<path d="M79.8718 84.8929C79.7439 84.8942 79.6198 84.849 79.5226 84.7657L56.6958 64.8913C56.6409 64.8464 56.5955 64.791 56.5624 64.7283C56.5293 64.6656 56.509 64.5968 56.5029 64.5262C56.4968 64.4555 56.505 64.3843 56.5269 64.3168C56.5488 64.2493 56.584 64.1869 56.6304 64.1333C56.6769 64.0797 56.7336 64.036 56.7972 64.0048C56.8608 63.9735 56.9301 63.9554 57.0008 63.9515C57.0716 63.9476 57.1424 63.9579 57.2091 63.9819C57.2758 64.0059 57.3369 64.0431 57.389 64.0912L80.221 83.9869C80.3262 84.0797 80.3902 84.2105 80.3991 84.3505C80.4081 84.4906 80.3611 84.6285 80.2686 84.734C80.2172 84.7866 80.1553 84.828 80.087 84.8553C80.0186 84.8827 79.9453 84.8955 79.8718 84.8929Z" fill="#6D6CD4"/>
<path d="M19.4873 52.2123C24.1747 52.2123 27.9745 48.4073 27.9745 43.7136C27.9745 39.0198 24.1747 35.2148 19.4873 35.2148C14.7999 35.2148 11 39.0198 11 43.7136C11 48.4073 14.7999 52.2123 19.4873 52.2123Z" fill="#F28393"/>
<path d="M17.6143 46.9982H16.683V41.3713L15.7358 41.9753V41.0163L16.683 40.3857H17.6143V46.9982Z" fill="white"/>
<path d="M19.5983 46.5694C19.4304 46.3814 19.3014 46.1619 19.2187 45.9236C19.1361 45.6854 19.1014 45.433 19.1168 45.1812V42.1611C19.1033 41.904 19.1421 41.6467 19.231 41.405C19.32 41.1634 19.4571 40.9424 19.6341 40.7555C19.8111 40.5687 20.0242 40.4199 20.2605 40.3182C20.4968 40.2165 20.7513 40.1641 21.0085 40.1641C21.2657 40.1641 21.5202 40.2165 21.7565 40.3182C21.9928 40.4199 22.2059 40.5687 22.3829 40.7555C22.5599 40.9424 22.697 41.1634 22.7859 41.405C22.8749 41.6467 22.9137 41.904 22.9001 42.1611V45.1812C22.9158 45.433 22.8813 45.6855 22.7987 45.9238C22.716 46.1621 22.5868 46.3816 22.4186 46.5694C22.019 46.8915 21.5215 47.0672 21.0085 47.0672C20.4955 47.0672 19.9979 46.8915 19.5983 46.5694ZM21.7149 45.923C21.8854 45.715 21.9706 45.4498 21.953 45.1812V42.1611C21.972 41.8933 21.8888 41.6281 21.7202 41.4193C21.6232 41.3275 21.5082 41.257 21.3825 41.2123C21.2567 41.1676 21.123 41.1497 20.99 41.1597C20.8568 41.1487 20.7229 41.1661 20.597 41.2109C20.4711 41.2556 20.3561 41.3267 20.2598 41.4193C20.0911 41.6281 20.0079 41.8933 20.0269 42.1611V45.1812C20.0079 45.4491 20.0911 45.7142 20.2598 45.923C20.3571 46.0139 20.4724 46.0835 20.5981 46.1272C20.7238 46.171 20.8573 46.1881 20.99 46.1773C21.1253 46.1918 21.2622 46.1765 21.391 46.1326C21.5199 46.0887 21.6376 46.0172 21.736 45.923H21.7149Z" fill="white"/>
</svg>
