<svg width="168" height="178" viewBox="0 0 168 178" fill="none" xmlns="http://www.w3.org/2000/svg">
<path d="M96 6.90479H91V136.573H96V6.90479Z" fill="#516BEE"/>
<path d="M138.622 161.438H47.4509V166.959H138.622V161.438Z" fill="#516BEE"/>
<path d="M148.239 166.96H37.8357V172.481H148.239V166.96Z" fill="#1E39BE"/>
<path d="M157.438 172.479H28.6426V178H157.438V172.479Z" fill="#516BEE"/>
<path d="M155.919 4.82568H30.1614V9.82568H155.919V4.82568Z" fill="#516BEE"/>
<path d="M1.32324 95.7069L30.741 7.15527L60.1534 95.7069" stroke="#1E39BE" stroke-width="2.41" stroke-miterlimit="10"/>
<path d="M126.697 95.7069L156.109 7.15527L185.527 95.7069" stroke="#1E39BE" stroke-width="2.41" stroke-miterlimit="10"/>
<path d="M30.7412 117.42C47.7063 117.42 61.466 107.462 61.466 95.1826H0C0 107.489 13.7706 117.42 30.7412 117.42Z" fill="#516BEE"/>
<path d="M56.3408 95.1753C52.2623 104.005 40.7642 110.361 27.1997 110.361C15.7721 110.361 5.80342 105.838 0.515381 99.1291C3.09703 109.526 15.6419 117.412 30.7413 117.412C47.7064 117.412 61.4662 107.454 61.4662 95.1753H56.3408Z" fill="#1E39BE"/>
<path d="M156.114 117.42C173.079 117.42 186.833 107.462 186.833 95.1826H125.389C125.389 107.489 139.143 117.42 156.114 117.42Z" fill="#516BEE"/>
<path d="M181.691 95.1753C177.618 104.005 166.114 110.361 152.555 110.361C141.122 110.361 131.159 105.838 125.865 99.1291C128.453 109.526 140.997 117.412 156.097 117.412C173.062 117.412 186.816 107.454 186.816 95.1753H181.691Z" fill="#1E39BE"/>
<path d="M34.6248 7.15334C34.6248 7.92139 34.397 8.67219 33.9703 9.3108C33.5436 9.94941 32.9371 10.4471 32.2276 10.7411C31.518 11.035 30.7372 11.1119 29.9839 10.962C29.2306 10.8122 28.5386 10.4424 27.9956 9.89926C27.4525 9.35617 27.0826 8.66423 26.9328 7.91094C26.7829 7.15765 26.8598 6.37684 27.1538 5.66726C27.4477 4.95767 27.9454 4.35118 28.584 3.92448C29.2226 3.49777 29.9734 3.27002 30.7415 3.27002C31.771 3.27145 32.7579 3.68105 33.4858 4.409C34.2138 5.13696 34.6234 6.12386 34.6248 7.15334Z" fill="#1E39BE"/>
<path d="M156.109 11.0367C158.254 11.0367 159.992 9.29804 159.992 7.15334C159.992 5.00864 158.254 3.27002 156.109 3.27002C153.964 3.27002 152.226 5.00864 152.226 7.15334C152.226 9.29804 153.964 11.0367 156.109 11.0367Z" fill="#1E39BE"/>
<path d="M93.0381 132.501C85.3635 132.503 78.0038 135.553 72.5776 140.98C67.1514 146.407 64.103 153.767 64.103 161.442H121.979C121.979 157.641 121.23 153.878 119.776 150.367C118.321 146.856 116.19 143.665 113.502 140.978C110.815 138.291 107.624 136.159 104.113 134.704C100.602 133.25 96.8386 132.501 93.0381 132.501Z" fill="#1E39BE"/>
<path d="M84.2198 149.873C89.4286 146.548 92.1383 141.482 90.272 138.559C88.4058 135.635 82.6703 135.96 77.4614 139.285C72.2526 142.609 69.5429 147.675 71.4092 150.599C73.2755 153.523 79.011 153.197 84.2198 149.873Z" fill="white"/>
<path d="M115.436 0H72.0958C70.685 0 69.5413 1.1437 69.5413 2.55453V12.2683C69.5413 13.6791 70.685 14.8228 72.0958 14.8228H115.436C116.847 14.8228 117.991 13.6791 117.991 12.2683V2.55453C117.991 1.1437 116.847 0 115.436 0Z" fill="#1E39BE"/>
<path d="M32.5203 70.5972H37.3047V91.7776H32.5203V70.5972Z" fill="#1E39BE"/>
<path d="M32.5206 91.971H37.305C37.3559 91.971 37.4048 91.9506 37.4408 91.9145C37.4768 91.8783 37.4971 91.8292 37.4971 91.7781V70.5976C37.4971 70.5465 37.4768 70.4974 37.4408 70.4613C37.4048 70.4251 37.3559 70.4048 37.305 70.4048H32.5206C32.4697 70.4048 32.4208 70.4251 32.3848 70.4613C32.3488 70.4974 32.3285 70.5465 32.3285 70.5976V91.7781C32.3285 91.8292 32.3488 91.8783 32.3848 91.9145C32.4208 91.9506 32.4697 91.971 32.5206 91.971ZM37.1129 91.5852H32.7169V70.7905H37.1129V91.5852Z" fill="#1E39BE"/>
<path d="M25.717 78.3501H30.4758V91.7775H25.717V78.3501Z" fill="#1E39BE"/>
<path d="M25.7165 91.9709H30.4753C30.5267 91.9709 30.576 91.9507 30.6127 91.9147C30.6494 91.8786 30.6705 91.8295 30.6716 91.778V78.3506C30.6705 78.299 30.6494 78.25 30.6127 78.2139C30.576 78.1779 30.5267 78.1577 30.4753 78.1577H25.7165C25.6656 78.1577 25.6167 78.178 25.5807 78.2142C25.5447 78.2504 25.5245 78.2994 25.5245 78.3506V91.778C25.5245 91.8291 25.5447 91.8782 25.5807 91.9144C25.6167 91.9505 25.6656 91.9709 25.7165 91.9709ZM30.2833 91.5851H25.9129V78.5649H30.2833V91.5851Z" fill="#1E39BE"/>
<path d="M18.9783 84.1929H23.7456V91.7745H18.9783V84.1929Z" fill="#1E39BE"/>
<path d="M18.9771 91.9701H23.7445C23.7954 91.9701 23.8442 91.9498 23.8803 91.9136C23.9163 91.8775 23.9365 91.8284 23.9365 91.7773V84.1914C23.9365 84.1403 23.9163 84.0912 23.8803 84.055C23.8442 84.0189 23.7954 83.9985 23.7445 83.9985H18.9771C18.9262 83.9985 18.8773 84.0189 18.8413 84.055C18.8053 84.0912 18.7851 84.1403 18.7851 84.1914V91.7773C18.7851 91.8284 18.8053 91.8775 18.8413 91.9136C18.8773 91.9498 18.9262 91.9701 18.9771 91.9701ZM23.5524 91.5844H19.1734V84.3885H23.5524V91.5844Z" fill="#1E39BE"/>
<path d="M32.9609 70.5972H37.7283V91.2976H32.9609V70.5972Z" fill="white"/>
<path d="M32.7675 91.4904H37.9189V70.4214H32.7675V91.4904ZM37.5305 91.1004H33.1516V70.79H37.5305V91.1004Z" fill="#1E39BE"/>
<path d="M26.1572 78.3501H30.9246V91.2975H26.1572V78.3501Z" fill="white"/>
<path d="M25.9646 91.4909H31.1204V78.1577H25.9646V91.4909ZM30.7362 91.1008H26.3573V78.5649H30.7362V91.1008Z" fill="#1E39BE"/>
<path d="M19.417 84.1929H24.1843V91.2945H19.417V84.1929Z" fill="white"/>
<path d="M37.7275 91.2939H32.9602V70.5935H37.7275V91.2939Z" fill="#FD859F"/>
<path d="M40.459 66.8604H45.2434V91.7737H40.459V66.8604Z" fill="#1E39BE"/>
<path d="M40.4586 91.924H45.2472C45.2857 91.924 45.3226 91.9086 45.3498 91.8813C45.377 91.8539 45.3923 91.8169 45.3923 91.7782V66.8606C45.3923 66.8219 45.377 66.7848 45.3498 66.7575C45.3226 66.7302 45.2857 66.7148 45.2472 66.7148H40.4628C40.4243 66.7148 40.3874 66.7302 40.3602 66.7575C40.333 66.7848 40.3177 66.8219 40.3177 66.8606V91.7782C40.3177 91.8161 40.3324 91.8526 40.3587 91.8798C40.385 91.907 40.4208 91.9228 40.4586 91.924ZM45.0978 91.6325H40.6036V66.9934H45.0978V91.6325Z" fill="#1E39BE"/>
<path d="M40.898 66.9243H45.6653V91.2977H40.898V66.9243Z" fill="#FFA3B7"/>
<path d="M30.9238 91.2944H26.1565V78.347H30.9238V91.2944Z" fill="#F77A95"/>
<path d="M19.417 84.1929H24.1843V91.2945H19.417V84.1929Z" fill="#EA6381"/>
<path d="M12.1914 88.7012H16.9587V91.8084H12.1914V88.7012Z" fill="#1E39BE"/>
<path d="M12.192 92.0017H16.9593C16.9845 92.0017 17.0095 91.9967 17.0328 91.987C17.0561 91.9773 17.0773 91.9631 17.0951 91.9452C17.113 91.9273 17.1271 91.9061 17.1368 91.8827C17.1464 91.8593 17.1514 91.8342 17.1514 91.8089V88.7016C17.1514 88.6763 17.1464 88.6512 17.1368 88.6278C17.1271 88.6044 17.113 88.5832 17.0951 88.5653C17.0773 88.5474 17.0561 88.5332 17.0328 88.5235C17.0095 88.5138 16.9845 88.5088 16.9593 88.5088H12.192C12.141 88.5088 12.0922 88.5291 12.0562 88.5653C12.0202 88.6014 11.9999 88.6505 11.9999 88.7016V91.8089C11.9999 91.86 12.0202 91.9091 12.0562 91.9452C12.0922 91.9814 12.141 92.0017 12.192 92.0017ZM16.763 91.6117H12.384V88.8988H16.763V91.6117Z" fill="#1E39BE"/>
<path d="M12.6318 88.7012H17.3992V91.5941H12.6318V88.7012Z" fill="white"/>
<path d="M12.4401 91.7917H17.5916V88.5088H12.4401V91.7917ZM17.2032 91.4231H12.8114V88.9202H17.2032V91.4231Z" fill="#1E39BE"/>
<path d="M12.6318 88.7012H17.3992V91.5941H12.6318V88.7012Z" fill="#E65373"/>
<path d="M156.4 81.5529L165.036 81.7008C165.081 81.7016 165.126 81.7112 165.167 81.7293C165.208 81.7474 165.245 81.7735 165.276 81.8061C165.307 81.8387 165.331 81.8771 165.347 81.9192C165.363 81.9612 165.371 82.006 165.369 82.0509C165.273 83.7974 164.67 85.478 163.633 86.8865C162.596 88.2951 161.17 89.3705 159.531 89.9807C157.892 90.591 156.11 90.7097 154.404 90.3223C152.699 89.9348 151.143 89.0581 149.929 87.7995C148.714 86.5409 147.893 84.9552 147.566 83.2369C147.239 81.5185 147.421 79.7422 148.089 78.1256C148.757 76.5091 149.882 75.1226 151.327 74.1362C152.771 73.1497 154.472 72.6062 156.221 72.5723C156.264 72.5715 156.307 72.5795 156.347 72.5957C156.387 72.6118 156.424 72.6359 156.454 72.6665C156.485 72.6971 156.509 72.7335 156.525 72.7735C156.541 72.8136 156.549 72.8565 156.548 72.8998L156.4 81.5529Z" fill="#FFA3B7"/>
<path d="M165.65 82.046C165.651 81.9647 165.636 81.884 165.606 81.8084C165.576 81.7329 165.532 81.664 165.475 81.6058C165.418 81.5476 165.351 81.5013 165.276 81.4694C165.201 81.4375 165.121 81.4208 165.039 81.4201L156.708 81.2774L156.851 72.9066C156.853 72.7409 156.789 72.5815 156.673 72.4631C156.616 72.4072 156.548 72.3633 156.474 72.3339C156.4 72.3045 156.321 72.2903 156.241 72.2919C154.438 72.3271 152.684 72.8878 151.195 73.9051C149.706 74.9225 148.547 76.3523 147.858 78.0192C147.17 79.6862 146.984 81.5177 147.321 83.2891C147.659 85.0606 148.506 86.695 149.76 87.9918C151.013 89.2886 152.617 90.1915 154.376 90.5897C156.135 90.9879 157.972 90.8641 159.661 90.2334C161.351 89.6028 162.819 88.4927 163.887 87.0394C164.955 85.5861 165.575 83.8528 165.672 82.052L165.65 82.046ZM147.695 81.3997C147.724 79.3128 148.511 77.3077 149.909 75.7576C150.705 74.8657 151.678 74.1477 152.765 73.6486C153.852 73.1494 155.03 72.8797 156.226 72.8563L156.116 81.5496C156.115 81.6245 156.143 81.6967 156.195 81.7506C156.247 81.8044 156.319 81.8354 156.394 81.8367L165.03 81.9846L165.367 82.0525L165.085 82.0476C164.957 84.2328 164.01 86.2893 162.433 87.8076C160.856 89.3259 158.766 90.1945 156.577 90.2403C154.389 90.2862 152.263 89.5058 150.625 88.0549C148.986 86.604 147.954 84.5889 147.734 82.4111C147.693 82.0753 147.673 81.7375 147.672 81.3993L147.695 81.3997Z" fill="#1E39BE"/>
<path d="M158.698 70.219C161.117 70.3613 163.394 71.4058 165.08 73.1461C166.766 74.8864 167.738 77.1958 167.803 79.6178C167.803 79.6702 167.792 79.722 167.772 79.7703C167.751 79.8185 167.722 79.8623 167.684 79.8989C167.647 79.9356 167.603 79.9644 167.554 79.9838C167.505 80.0032 167.453 80.0127 167.401 80.0118L158.516 79.8597C158.465 79.8595 158.415 79.8493 158.368 79.8295C158.321 79.8098 158.279 79.7809 158.243 79.7445C158.208 79.7082 158.179 79.6651 158.161 79.6178C158.142 79.5706 158.133 79.52 158.133 79.4692L158.285 70.6016C158.287 70.5492 158.299 70.4977 158.321 70.45C158.342 70.4023 158.373 70.3594 158.412 70.3238C158.45 70.2882 158.495 70.2607 158.545 70.2427C158.594 70.2247 158.646 70.2166 158.698 70.219Z" fill="#E55373"/>
<path d="M168.083 79.6642L168.083 79.6247C168.012 77.131 167.011 74.7541 165.278 72.9601C163.544 71.1662 161.203 70.0846 158.713 69.9277C158.623 69.922 158.533 69.9348 158.448 69.9654C158.363 69.996 158.285 70.0437 158.219 70.1056C158.086 70.2313 158.008 70.4045 158.002 70.5875L157.849 79.4776C157.848 79.6548 157.916 79.8255 158.04 79.9524C158.164 80.0793 158.333 80.1522 158.51 80.1552L167.394 80.3074C167.486 80.3095 167.577 80.2929 167.662 80.2584C167.747 80.2239 167.824 80.1724 167.889 80.1069C168.007 79.9888 168.076 79.8308 168.083 79.6642ZM158.675 70.503C161.024 70.6505 163.233 71.6703 164.869 73.3622C166.505 75.0542 167.45 77.2963 167.518 79.6489C167.527 79.6726 167.527 79.6988 167.517 79.7223C167.506 79.7333 167.493 79.7419 167.478 79.7475C167.463 79.7531 167.448 79.7555 167.432 79.7547L158.519 79.602C158.492 79.6016 158.465 79.5906 158.446 79.5714C158.426 79.5521 158.415 79.5261 158.414 79.4986L158.566 70.6084C158.569 70.578 158.584 70.5499 158.607 70.5301C158.625 70.5124 158.65 70.5026 158.675 70.503Z" fill="#1E39BE"/>
</svg>
