<svg width="177" height="158" viewBox="0 0 177 158" fill="none" xmlns="http://www.w3.org/2000/svg">
<path opacity="0.5" d="M167 199.516L167 7.48415C167 3.90305 164.09 1 160.501 1L27.4987 0.999994C23.9096 0.999994 21 3.90304 21 7.48414L21 199.516C21 203.097 23.9096 206 27.4987 206L160.501 206C164.09 206 167 203.097 167 199.516Z" fill="white"/>
<path opacity="0.5" d="M30.446 18.0411L30.446 105.121C26.9174 100.305 23.7597 95.2291 21.0001 89.9369L21.0001 7.48401C21.0001 5.75566 21.6882 4.0981 22.9131 2.87598C24.1379 1.65386 25.7992 0.967279 27.5314 0.967279L160.501 0.967285C162.234 0.967285 163.895 1.65386 165.12 2.87599C166.345 4.09811 167.033 5.75567 167.033 7.48401L167.033 146.29C163.941 147.431 160.793 148.441 157.587 149.321L157.587 18.0411C157.585 17.7206 157.455 17.414 157.228 17.1881C157 16.9623 156.692 16.8355 156.37 16.8355L31.6543 16.8355C31.3338 16.8355 31.0265 16.9625 30.7999 17.1886C30.5733 17.4147 30.446 17.7214 30.446 18.0411Z" fill="white"/>
<path d="M156.99 28.1847L156.991 28.1847C157.063 28.1847 157.141 28.2153 157.204 28.2839C157.269 28.3538 157.311 28.4561 157.311 28.5702C157.311 28.5703 157.311 28.5705 157.311 28.5706L157.131 188.793C157.131 188.793 157.131 188.794 157.131 188.794C157.13 188.907 157.088 189.008 157.024 189.079C156.963 189.146 156.888 189.178 156.818 189.182L31.0074 189.02C31.0069 189.02 31.0064 189.02 31.0059 189.02C30.9355 189.019 30.8599 188.989 30.7975 188.923C30.7343 188.855 30.6918 188.757 30.689 188.646L30.8437 28.4063C30.8437 28.406 30.8437 28.4057 30.8437 28.4054C30.8446 28.2906 30.8877 28.1877 30.9531 28.1176C31.0175 28.0485 31.0959 28.0176 31.169 28.0176C31.169 28.0176 31.1691 28.0176 31.1692 28.0176L156.99 28.1847Z" fill="white" stroke="#EBEBF0"/>
<path opacity="0.6" d="M111.631 96.125L35.9412 96.0247C35.8044 96.0247 35.6732 95.966 35.5764 95.8615C35.4796 95.757 35.4253 95.6153 35.4253 95.4675L35.4562 67.8775C35.4562 67.7297 35.5106 67.588 35.6074 67.4835C35.7041 67.379 35.8353 67.3203 35.9722 67.3203L111.662 67.4206C111.799 67.4206 111.93 67.4793 112.027 67.5838C112.124 67.6883 112.178 67.83 112.178 67.9778L112.147 95.5678C112.147 95.7156 112.093 95.8573 111.996 95.9618C111.899 96.0663 111.768 96.125 111.631 96.125Z" fill="#599AF2"/>
<path opacity="0.6" d="M151.905 129.365L36.7777 129.214C36.5843 129.213 36.3993 129.129 36.263 128.98C36.1268 128.832 36.0503 128.632 36.0503 128.423L36.0812 101.295C36.0812 101.087 36.1579 100.887 36.2943 100.74C36.4307 100.593 36.6158 100.51 36.8087 100.51L151.941 100.66C152.037 100.66 152.132 100.681 152.22 100.721C152.309 100.76 152.389 100.819 152.457 100.892C152.525 100.966 152.578 101.053 152.614 101.149C152.651 101.245 152.669 101.348 152.668 101.451L152.617 128.573C152.618 128.78 152.544 128.979 152.411 129.127C152.278 129.275 152.096 129.36 151.905 129.365Z" fill="#4C65BA"/>
<path opacity="0.6" d="M152.296 138.814L36.4209 138.814L36.4209 141.02L152.296 141.02L152.296 138.814Z" fill="#4C65BA"/>
<path opacity="0.6" d="M152.296 132.925L36.4209 132.925L36.4209 135.131L152.296 135.131L152.296 132.925Z" fill="#4C65BA"/>
<path opacity="0.6" d="M134.992 144.697L36.4209 144.697L36.4209 146.904L134.992 146.904L134.992 144.697Z" fill="#4C65BA"/>
<path opacity="0.6" d="M35.381 152.324L35.3498 179.914C35.3494 180.222 35.5801 180.471 35.865 180.472L71.0763 180.518C71.3613 180.519 71.5925 180.27 71.5929 179.962L71.6241 152.372C71.6244 152.064 71.3937 151.814 71.1088 151.814L35.8975 151.768C35.6126 151.767 35.3813 152.016 35.381 152.324Z" fill="#3E479B"/>
<path opacity="0.6" d="M76.2301 152.374L76.1989 179.964C76.1985 180.272 76.4292 180.522 76.7142 180.522L111.925 180.569C112.21 180.569 112.442 180.32 112.442 180.012L112.473 152.422C112.474 152.114 112.243 151.865 111.958 151.864L76.7466 151.818C76.4617 151.817 76.2304 152.067 76.2301 152.374Z" fill="#4C65BA"/>
<path opacity="0.6" d="M116.779 152.43L116.748 180.02C116.748 180.328 116.979 180.577 117.263 180.578L152.475 180.624C152.76 180.625 152.991 180.376 152.991 180.068L153.023 152.478C153.023 152.17 152.792 151.92 152.507 151.92L117.296 151.873C117.011 151.873 116.78 152.122 116.779 152.43Z" fill="#599AF2"/>
<path opacity="0.6" d="M151.44 70.7357L116.404 70.6856C116.244 70.6856 116.09 70.6169 115.977 70.4946C115.864 70.3724 115.8 70.2066 115.8 70.0337C115.8 69.8608 115.864 69.695 115.977 69.5728C116.09 69.4505 116.244 69.3818 116.404 69.3818L151.44 69.432C151.6 69.432 151.753 69.5007 151.867 69.6229C151.98 69.7452 152.043 69.911 152.043 70.0839C152.043 70.2567 151.98 70.4225 151.867 70.5448C151.753 70.667 151.6 70.7357 151.44 70.7357Z" fill="#3E479B"/>
<path opacity="0.6" d="M151.435 74.6468L116.399 74.6022C116.239 74.6022 116.085 74.5336 115.972 74.4113C115.859 74.2891 115.795 74.1233 115.795 73.9504C115.801 73.7814 115.867 73.6213 115.979 73.5038C116.092 73.3863 116.242 73.3207 116.399 73.3208L151.435 73.3654C151.595 73.3654 151.749 73.4341 151.862 73.5563C151.975 73.6785 152.039 73.8444 152.039 74.0172C152.033 74.1862 151.967 74.3464 151.855 74.4638C151.742 74.5813 151.592 74.6469 151.435 74.6468Z" fill="#3E479B"/>
<path opacity="0.6" d="M151.43 78.5638L116.394 78.5193C116.233 78.5178 116.08 78.4479 115.967 78.3247C115.853 78.2016 115.79 78.0352 115.79 77.8618C115.791 77.6894 115.855 77.5244 115.968 77.4025C116.081 77.2806 116.234 77.2114 116.394 77.21L151.435 77.2601C151.514 77.2601 151.592 77.277 151.665 77.3098C151.738 77.3427 151.804 77.3908 151.86 77.4514C151.915 77.512 151.959 77.5839 151.989 77.6629C152.019 77.742 152.034 77.8266 152.033 77.912C152.033 78.0849 151.97 78.2507 151.856 78.3729C151.743 78.4952 151.59 78.5638 151.43 78.5638Z" fill="#3E479B"/>
<path opacity="0.6" d="M151.424 82.4748L116.388 82.4302C116.228 82.4302 116.074 82.3615 115.961 82.2393C115.848 82.117 115.784 81.9512 115.784 81.7783C115.784 81.6054 115.848 81.4396 115.961 81.3174C116.074 81.1952 116.228 81.1265 116.388 81.1265L151.429 81.171C151.589 81.1725 151.741 81.2416 151.854 81.3636C151.967 81.4855 152.031 81.6505 152.033 81.8229C152.033 81.909 152.017 81.9942 151.986 82.0737C151.955 82.1531 151.91 82.2252 151.854 82.2858C151.797 82.3464 151.73 82.3943 151.656 82.4268C151.582 82.4592 151.503 82.4755 151.424 82.4748Z" fill="#3E479B"/>
<path opacity="0.6" d="M151.424 86.3915L116.383 86.3469C116.222 86.3454 116.069 86.2755 115.956 86.1524C115.843 86.0292 115.779 85.8629 115.779 85.6895C115.781 85.5161 115.845 85.3503 115.959 85.2282C116.073 85.1061 116.228 85.0376 116.388 85.0376L151.424 85.0877C151.584 85.0877 151.738 85.1564 151.851 85.2787C151.964 85.4009 152.028 85.5667 152.028 85.7396C152.028 85.9125 151.964 86.0783 151.851 86.2005C151.738 86.3228 151.584 86.3915 151.424 86.3915Z" fill="#3E479B"/>
<path opacity="0.6" d="M151.419 90.3029L116.378 90.2583C116.218 90.2583 116.064 90.1896 115.951 90.0674C115.838 89.9451 115.774 89.7793 115.774 89.6065C115.776 89.4331 115.841 89.2673 115.955 89.1452C116.069 89.0231 116.223 88.9546 116.383 88.9546L151.419 88.9992C151.579 88.9992 151.733 89.0678 151.846 89.1901C151.959 89.3123 152.023 89.4781 152.023 89.651C152.023 89.8239 151.959 89.9897 151.846 90.112C151.733 90.2342 151.579 90.3029 151.419 90.3029Z" fill="#3E479B"/>
<path opacity="0.6" d="M151.414 94.2194L116.378 94.1748C116.218 94.1748 116.064 94.1062 115.951 93.9839C115.838 93.8617 115.774 93.6959 115.774 93.523C115.774 93.4372 115.789 93.3521 115.819 93.2726C115.849 93.1932 115.894 93.1211 115.95 93.0604C116.006 92.9997 116.073 92.9517 116.146 92.9192C116.22 92.8867 116.299 92.8704 116.378 92.8711L151.414 92.9157C151.574 92.9157 151.728 92.9844 151.841 93.1066C151.954 93.2289 152.018 93.3947 152.018 93.5676C152.018 93.7404 151.954 93.9062 151.841 94.0285C151.728 94.1507 151.574 94.2194 151.414 94.2194Z" fill="#3E479B"/>
<path d="M35.4663 59.957L35.4644 61.6396C35.4641 61.895 35.6556 62.1023 35.8921 62.1026L125.048 62.2202C125.284 62.2206 125.476 62.0138 125.476 61.7584L125.478 60.0758C125.479 59.8204 125.287 59.6131 125.051 59.6128L35.895 59.4952C35.6585 59.4948 35.4666 59.7016 35.4663 59.957Z" fill="#3E479B"/>
<path d="M35.4671 38.7966L35.4527 51.5141C35.4505 53.4445 35.638 55.0095 35.8716 55.0098L123.905 55.126C124.139 55.1263 124.33 53.5617 124.332 51.6314L124.346 38.9139C124.349 36.9836 124.161 35.4185 123.928 35.4182L35.8939 35.3021C35.6603 35.3017 35.4693 36.8663 35.4671 38.7966Z" fill="#3E479B"/>
<path d="M157.811 15.2732L157.811 27.4641L30.189 27.5173L30.189 15.1758C30.189 14.4048 30.5142 13.6653 31.0934 13.1193C31.6725 12.5733 32.4584 12.2654 33.2787 12.2631L154.543 12.2188C154.971 12.2165 155.396 12.2937 155.792 12.4462C156.189 12.5987 156.549 12.8233 156.853 13.1071C157.157 13.391 157.398 13.7285 157.562 14.1002C157.727 14.472 157.811 14.8706 157.811 15.2732Z" fill="#599AF2"/>
<path d="M144.945 19.0739C144.834 19.0739 144.728 19.0279 144.649 18.9462C144.57 18.8644 144.526 18.7534 144.526 18.6378C144.526 18.5221 144.57 18.4112 144.649 18.3294C144.728 18.2476 144.834 18.2017 144.945 18.2017L153.452 18.2017C153.563 18.2017 153.67 18.2476 153.748 18.3294C153.827 18.4112 153.871 18.5221 153.871 18.6378C153.871 18.7534 153.827 18.8644 153.748 18.9462C153.67 19.0279 153.563 19.0739 153.452 19.0739L144.945 19.0739Z" fill="white"/>
<path d="M144.945 21.3332C144.834 21.3332 144.728 21.2872 144.649 21.2054C144.57 21.1237 144.526 21.0127 144.526 20.8971C144.526 20.7814 144.57 20.6705 144.649 20.5887C144.728 20.5069 144.834 20.4609 144.945 20.4609L153.452 20.4609C153.563 20.4609 153.67 20.5069 153.748 20.5887C153.827 20.6705 153.871 20.7814 153.871 20.8971C153.871 21.0127 153.827 21.1237 153.748 21.2054C153.67 21.2872 153.563 21.3332 153.452 21.3332L144.945 21.3332Z" fill="white"/>
<path d="M144.945 23.6008C144.834 23.6008 144.728 23.5548 144.649 23.473C144.57 23.3912 144.526 23.2803 144.526 23.1646C144.526 23.049 144.57 22.938 144.649 22.8562C144.728 22.7745 144.834 22.7285 144.945 22.7285L153.452 22.7285C153.563 22.7285 153.67 22.7745 153.748 22.8562C153.827 22.938 153.871 23.049 153.871 23.1646C153.871 23.2803 153.827 23.3912 153.748 23.473C153.67 23.5548 153.563 23.6008 153.452 23.6008L144.945 23.6008Z" fill="white"/>
<path d="M40.3368 25.0401C40.2819 25.0408 40.2274 25.0295 40.1769 25.007C40.1265 24.9844 40.0811 24.9511 40.0437 24.9092L36.9456 21.6994C36.8207 21.5631 36.751 21.3819 36.751 21.1935C36.751 21.0051 36.8207 20.8239 36.9456 20.6876L39.9181 17.5912C39.9969 17.509 40.1039 17.4629 40.2153 17.4629C40.3268 17.4629 40.4338 17.509 40.5126 17.5912C40.5914 17.6733 40.6357 17.7847 40.6357 17.9008C40.6357 18.0169 40.5914 18.1283 40.5126 18.2104L37.6489 21.1935L40.6298 24.2987C40.6699 24.3378 40.7018 24.3851 40.7236 24.4376C40.7454 24.4901 40.7567 24.5467 40.7567 24.604C40.7567 24.6612 40.7454 24.7178 40.7236 24.7703C40.7018 24.8228 40.6699 24.8701 40.6298 24.9092C40.5924 24.9511 40.5471 24.9844 40.4966 25.007C40.4461 25.0295 40.3917 25.0408 40.3368 25.0401Z" fill="white"/>
<rect x="130.974" y="35.1665" width="22.7532" height="22.7778" rx="2" fill="#3E479B"/>
<g clip-path="url(#clip0_390_26379)">
<path opacity="0.89" d="M141.916 56.1192C139.497 56.1163 137.177 55.1531 135.467 53.4406C133.756 51.7282 132.794 49.4064 132.791 46.9847C132.79 46.6655 132.808 46.3465 132.844 46.0293L132.844 45.7905L141.232 45.7905C141.569 45.7948 141.895 45.6657 142.138 45.4312C142.381 45.1967 142.522 44.8757 142.531 44.5379L142.531 44.4529C142.508 44.1343 142.363 43.8367 142.128 43.6214C141.892 43.4061 141.583 43.2896 141.264 43.2959L139.403 43.2959C139.188 43.2975 138.981 43.2162 138.825 43.0688C138.669 42.9215 138.576 42.7195 138.565 42.505C138.561 42.3955 138.58 42.2863 138.619 42.1841C138.659 42.0818 138.718 41.9886 138.794 41.9098C138.871 41.8311 138.962 41.7685 139.063 41.7258C139.163 41.683 139.272 41.6611 139.381 41.6611L142.918 41.6611L145.039 41.7036C145.208 41.7029 145.375 41.6683 145.531 41.6017C145.687 41.5352 145.828 41.4381 145.945 41.3161C146.119 41.134 146.236 40.9042 146.28 40.6558C146.323 40.4074 146.292 40.1516 146.191 39.9208C146.089 39.69 145.921 39.4946 145.709 39.3594C145.496 39.2242 145.248 39.1552 144.996 39.1612L137.043 39.1612L138.167 38.657C139.345 38.1239 140.623 37.8506 141.916 37.8555C143.278 37.8572 144.623 38.164 145.852 38.7534C147.081 39.3428 148.162 40.1999 149.017 41.262C149.872 42.324 150.479 43.5641 150.793 44.8913C151.108 46.2185 151.121 47.5994 150.834 48.9326L150.786 49.1396L141.507 49.1396C141.185 49.1805 140.888 49.3379 140.673 49.5822C140.458 49.8265 140.339 50.1409 140.339 50.4665C140.339 50.7921 140.458 51.1065 140.673 51.3508C140.888 51.5951 141.185 51.7525 141.507 51.7934L143.57 51.7934L143.49 52.1172C143.465 52.2179 143.453 52.3213 143.453 52.425C143.453 52.7798 143.594 53.12 143.845 53.3708C144.095 53.6216 144.435 53.7626 144.789 53.7626L148.061 53.7626L147.435 54.2402C145.853 55.4595 143.912 56.1202 141.916 56.1192ZM133.348 46.3212C133.348 46.5441 133.321 46.7671 133.321 46.9847C133.324 49.2657 134.23 51.4524 135.842 53.0653C137.453 54.6782 139.637 55.5856 141.916 55.5884C143.508 55.5955 145.069 55.1541 146.422 54.3146L144.789 54.3146C144.295 54.3132 143.821 54.1159 143.471 53.7658C143.122 53.4157 142.924 52.9413 142.923 52.4463C142.92 52.4127 142.92 52.379 142.923 52.3454L141.502 52.3454C141.044 52.2963 140.621 52.0795 140.313 51.7365C140.005 51.3936 139.834 50.9488 139.834 50.4877C139.834 50.0267 140.005 49.5819 140.313 49.2389C140.621 48.896 141.044 48.6791 141.502 48.6301L150.351 48.6301C150.453 48.0947 150.504 47.5509 150.505 47.0059C150.504 45.6083 150.163 44.2319 149.511 42.9956C148.86 41.7593 147.918 40.7001 146.767 39.9096C146.866 40.2185 146.88 40.5487 146.806 40.8647C146.732 41.1807 146.574 41.4707 146.348 41.7036C146.179 41.8746 145.978 42.0097 145.755 42.1009C145.533 42.1921 145.295 42.2375 145.054 42.2343L142.934 42.1919L139.397 42.1919C139.359 42.1917 139.321 42.1992 139.285 42.2137C139.25 42.2283 139.218 42.2497 139.19 42.2768C139.163 42.3049 139.143 42.3382 139.129 42.3747C139.115 42.4113 139.109 42.4502 139.111 42.4891C139.118 42.5656 139.153 42.6366 139.21 42.6879C139.267 42.7391 139.342 42.7668 139.418 42.7651L141.279 42.7651C141.735 42.7587 142.175 42.9275 142.509 43.2366C142.844 43.5458 143.047 43.9717 143.077 44.4264C143.079 44.4671 143.079 44.5078 143.077 44.5485C143.064 45.0248 142.866 45.4773 142.524 45.8087C142.182 46.1402 141.724 46.3242 141.248 46.3212L133.348 46.3212ZM139.848 38.6304L143.973 38.6304C142.617 38.3039 141.204 38.3039 139.848 38.6304Z" fill="white"/>
<path opacity="0.89" d="M147.366 54.3144L144.789 54.3144C144.295 54.313 143.821 54.1157 143.471 53.7656C143.121 53.4156 142.924 52.9412 142.923 52.4461C142.92 52.4125 142.92 52.3788 142.923 52.3452L141.502 52.3452C141.044 52.2962 140.62 52.0793 140.313 51.7364C140.005 51.3934 139.834 50.9486 139.834 50.4876C139.834 50.0265 140.005 49.5817 140.313 49.2388C140.62 48.8958 141.044 48.679 141.502 48.6299L150.897 48.6299L150.828 48.9537C150.359 51.07 149.155 52.951 147.43 54.2613L147.366 54.3144ZM141.507 49.1394C141.185 49.1804 140.888 49.3377 140.673 49.582C140.458 49.8263 140.339 50.1407 140.339 50.4663C140.339 50.7919 140.458 51.1064 140.673 51.3507C140.888 51.5949 141.185 51.7523 141.507 51.7933L143.57 51.7933L143.49 52.117C143.465 52.2177 143.453 52.3211 143.453 52.4248C143.453 52.7796 143.594 53.1198 143.845 53.3706C144.095 53.6215 144.435 53.7624 144.789 53.7624L147.186 53.7624C148.687 52.5934 149.761 50.9608 150.24 49.1182L141.507 49.1394Z" fill="white"/>
<path opacity="0.89" d="M141.231 46.3211L132.812 46.3211L132.844 46.0292C133.011 44.445 133.588 42.9317 134.518 41.6389C135.447 40.346 136.698 39.3182 138.146 38.6569L138.257 38.6304L145.001 38.6304C145.47 38.6309 145.922 38.8109 146.263 39.1336C146.604 39.4562 146.809 39.897 146.836 40.366C146.844 40.6079 146.804 40.8491 146.717 41.0752C146.631 41.3013 146.5 41.5077 146.332 41.6823C146.163 41.8533 145.961 41.9884 145.739 42.0796C145.517 42.1708 145.278 42.2162 145.038 42.213L142.917 42.1706L139.381 42.1706C139.343 42.1704 139.305 42.1778 139.269 42.1924C139.234 42.207 139.202 42.2284 139.174 42.2555C139.147 42.2836 139.126 42.3169 139.113 42.3534C139.099 42.3899 139.093 42.4289 139.095 42.4678C139.102 42.5443 139.137 42.6154 139.194 42.6666C139.251 42.7178 139.326 42.7454 139.402 42.7438L141.263 42.7438C141.718 42.7374 142.159 42.9062 142.493 43.2153C142.828 43.5245 143.031 43.9504 143.061 44.4051C143.063 44.4457 143.063 44.4865 143.061 44.5272C143.054 45.0072 142.858 45.4651 142.515 45.8011C142.172 46.1371 141.711 46.324 141.231 46.3211ZM133.385 45.7904L141.231 45.7904C141.569 45.7947 141.895 45.6656 142.138 45.4311C142.381 45.1966 142.522 44.8757 142.53 44.5378L142.53 44.4529C142.507 44.1342 142.363 43.8366 142.127 43.6213C141.892 43.406 141.582 43.2895 141.263 43.2958L139.402 43.2958C139.188 43.2974 138.981 43.2161 138.825 43.0688C138.669 42.9214 138.576 42.7194 138.565 42.505C138.561 42.3954 138.58 42.2863 138.619 42.184C138.658 42.0818 138.718 41.9885 138.794 41.9097C138.87 41.831 138.962 41.7684 139.062 41.7257C139.163 41.683 139.272 41.661 139.381 41.661L142.917 41.661L145.038 41.7035C145.208 41.7028 145.375 41.6682 145.531 41.6017C145.686 41.5351 145.827 41.438 145.945 41.316C146.119 41.1339 146.236 40.9041 146.279 40.6557C146.323 40.4073 146.292 40.1515 146.191 39.9207C146.089 39.6899 145.921 39.4945 145.708 39.3593C145.496 39.2241 145.248 39.1551 144.996 39.1611L138.337 39.1611C137.026 39.765 135.888 40.6882 135.027 41.8464C134.165 43.0046 133.608 44.3607 133.406 45.7904L133.385 45.7904Z" fill="white"/>
</g>
<g clip-path="url(#clip1_390_26379)">
<path d="M0.143066 62.927L0.143066 41.5688C0.143066 40.8776 0.416613 40.2148 0.903535 39.7261C1.39046 39.2374 2.05086 38.9629 2.73948 38.9629L24.0243 38.9629C24.7108 38.9661 25.3681 39.2421 25.8524 39.7305C26.3367 40.2188 26.6085 40.8798 26.6085 41.5688L26.6085 58.7503C26.6093 59.1057 26.7415 59.4483 26.9794 59.7116L30.0976 63.152C30.2797 63.3568 30.3993 63.6098 30.4421 63.8809C30.485 64.1519 30.4494 64.4297 30.3394 64.681C30.2294 64.9323 30.0498 65.1466 29.822 65.2983C29.5941 65.4501 29.3276 65.5329 29.0541 65.537L2.73948 65.537C2.05049 65.5359 1.39009 65.2604 0.903286 64.7711C0.416481 64.2817 0.143066 63.6185 0.143066 62.927Z" fill="#EF929C"/>
<path opacity="0.11" d="M0.143066 62.927L0.143066 41.5688C0.143066 40.8776 0.416613 40.2148 0.903535 39.7261C1.39046 39.2374 2.05086 38.9629 2.73948 38.9629L24.0243 38.9629C24.7108 38.9661 25.3681 39.2421 25.8524 39.7305C26.3367 40.2188 26.6085 40.8798 26.6085 41.5688L26.6085 58.7503C26.6093 59.1057 26.7415 59.4483 26.9794 59.7116L30.0976 63.152C30.2797 63.3568 30.3993 63.6098 30.4421 63.8809C30.485 64.1519 30.4494 64.4297 30.3394 64.681C30.2294 64.9323 30.0498 65.1466 29.822 65.2983C29.5941 65.4501 29.3276 65.5329 29.0541 65.537L2.73948 65.537C2.05049 65.5359 1.39009 65.2604 0.903286 64.7711C0.416481 64.2817 0.143066 63.6185 0.143066 62.927Z" fill="#373449"/>
<path d="M0.143066 62.5427L0.143066 43.3485C0.150471 43.0336 0.219609 42.7233 0.346537 42.4353C0.473464 42.1473 0.655692 41.8872 0.882805 41.6699C1.10992 41.4526 1.37747 41.2824 1.67017 41.1689C1.96286 41.0554 2.27498 41.0009 2.58867 41.0085L22.5855 41.0085C22.8992 41.0009 23.2113 41.0554 23.504 41.1689C23.7967 41.2824 24.0643 41.4526 24.2914 41.6699C24.5185 41.8872 24.7007 42.1473 24.8276 42.4353C24.9546 42.7233 25.0237 43.0336 25.0311 43.3485L25.0311 58.7832C25.0333 59.1054 25.1588 59.4144 25.3817 59.6464L28.3082 62.739C28.4803 62.926 28.593 63.1602 28.6319 63.4118C28.6708 63.6633 28.6341 63.9208 28.5264 64.1513C28.4188 64.3818 28.2452 64.5749 28.0277 64.7059C27.8103 64.8369 27.5588 64.8998 27.3055 64.8867L2.58459 64.8867C2.2709 64.8938 1.9589 64.8388 1.66641 64.7248C1.37392 64.6108 1.10668 64.4401 0.879951 64.2224C0.653218 64.0047 0.471438 63.7443 0.345001 63.4561C0.218563 63.1679 0.149948 62.8575 0.143066 62.5427Z" fill="#EF929C"/>
<path d="M10.6346 58.0916C10.6253 57.8074 10.672 57.5241 10.772 57.2581C10.872 56.992 11.0234 56.7484 11.2175 56.5412C11.4321 56.3316 11.688 56.1694 11.9688 56.0652C12.2496 55.9609 12.5491 55.9168 12.8479 55.9357C13.1468 55.9163 13.4464 55.9601 13.7273 56.0644C14.0081 56.1687 14.264 56.3312 14.4783 56.5412C14.6724 56.7484 14.8237 56.992 14.9238 57.2581C15.0238 57.5241 15.0705 57.8074 15.0612 58.0916C15.0712 58.3759 15.0248 58.6594 14.9247 58.9255C14.8247 59.1917 14.6729 59.4352 14.4783 59.642C14.2642 59.8526 14.0085 60.0156 13.7276 60.1206C13.4467 60.2256 13.147 60.2702 12.8479 60.2516C12.5488 60.27 12.2491 60.2252 11.9683 60.1202C11.6875 60.0153 11.4317 59.8523 11.2175 59.642C11.0229 59.4352 10.8711 59.1917 10.7711 58.9255C10.671 58.6594 10.6246 58.3759 10.6346 58.0916ZM14.8451 46.5186C14.8451 46.8704 14.8451 47.3818 14.8207 48.0486C14.7962 48.7154 14.7758 49.4313 14.731 50.2045C14.6862 50.9776 14.625 51.7508 14.5476 52.524C14.4701 53.2971 14.3805 53.968 14.2745 54.5326C14.1888 54.5912 14.0955 54.638 13.9973 54.6717C13.8709 54.7182 13.7415 54.7565 13.6101 54.7862C13.4715 54.8148 13.337 54.8394 13.2025 54.8557C13.068 54.8721 12.9417 54.8557 12.8357 54.8557C12.4559 54.8668 12.0781 54.7971 11.727 54.6512C11.5721 54.5735 11.4394 54.4577 11.341 54.3147C11.2427 54.1716 11.182 54.0059 11.1645 53.833C11.0679 53.3016 11.0039 52.7647 10.9729 52.2253C10.92 51.5094 10.867 50.7281 10.8221 49.8854C10.7773 49.0427 10.7447 48.2081 10.7202 47.3818C10.7202 46.9727 10.7202 46.6127 10.6958 46.2691C10.6857 45.9552 10.7806 45.647 10.9652 45.3934C11.1499 45.1399 11.4137 44.9557 11.7148 44.87C12.0912 44.77 12.4789 44.7191 12.8683 44.7187C13.3898 44.6859 13.9058 44.8411 14.3234 45.1564C14.5095 45.3274 14.6534 45.5395 14.744 45.7759C14.8345 46.0123 14.8691 46.2665 14.8451 46.5186Z" fill="white"/>
<g opacity="0.1">
<path d="M12.7829 55.9356C13.0764 55.9203 13.37 55.9662 13.645 56.0704C13.92 56.1746 14.1705 56.3349 14.3807 56.5411C14.576 56.7476 14.7285 56.991 14.8293 57.2571C14.93 57.5233 14.9771 57.8069 14.9676 58.0915C14.978 58.3762 14.9314 58.6601 14.8306 58.9264C14.7298 59.1927 14.5768 59.436 14.3807 59.6419C14.1694 59.8505 13.917 60.0124 13.6398 60.1173C13.3625 60.2223 13.0665 60.268 12.7707 60.2515C12.4242 60.2515 13.5532 59.9774 13.5532 57.932C13.5532 55.8865 12.4364 55.9356 12.7829 55.9356ZM14.7964 46.5267C14.7964 46.8785 14.7964 47.3899 14.772 48.0567C14.7475 48.7235 14.7271 49.4394 14.6823 50.2126C14.6375 50.9857 14.5722 51.7589 14.4989 52.5321C14.4255 53.3052 14.3277 53.9761 14.2217 54.5407C14.1375 54.5994 14.0456 54.6462 13.9486 54.6797C13.8153 54.7264 13.6791 54.7646 13.541 54.7943C13.4065 54.8229 13.2679 54.8475 13.1334 54.8638C12.9989 54.8802 12.8766 54.8638 12.7707 54.8638C12.6647 54.8638 13.4432 52.5443 13.4513 50.1266C13.4513 47.4921 12.7095 44.739 12.8155 44.739C13.3357 44.7069 13.8502 44.8621 14.2665 45.1767C14.4497 45.3456 14.592 45.5543 14.6824 45.7869C14.7728 46.0195 14.8091 46.2697 14.7883 46.5185L14.7964 46.5267Z" fill="#4C65BA"/>
</g>
</g>
<path d="M176.46 113.228L176.46 91.8695C176.46 91.1784 176.186 90.5156 175.699 90.0269C175.213 89.5382 174.552 89.2637 173.864 89.2637L152.579 89.2637C151.892 89.2669 151.235 89.5429 150.751 90.0312C150.266 90.5196 149.994 91.1805 149.995 91.8695L149.995 109.051C149.994 109.407 149.862 109.749 149.624 110.012L146.505 113.453C146.323 113.658 146.204 113.911 146.161 114.182C146.118 114.453 146.154 114.73 146.264 114.982C146.374 115.233 146.553 115.447 146.781 115.599C147.009 115.751 147.275 115.834 147.549 115.838L173.864 115.838C174.553 115.837 175.213 115.561 175.7 115.072C176.187 114.583 176.46 113.919 176.46 113.228Z" fill="#EF929C"/>
<path d="M152.363 104.201C152.264 104.234 152.173 104.287 152.095 104.356C152.017 104.425 151.953 104.509 151.908 104.603C151.863 104.697 151.837 104.799 151.832 104.904C151.827 105.008 151.843 105.112 151.878 105.21L152.363 106.58C152.435 106.776 152.581 106.935 152.769 107.024C152.957 107.113 153.173 107.126 153.37 107.059L154.061 106.813L153.047 103.962L152.363 104.201Z" fill="white"/>
<path d="M160.804 107.861L157.84 108.915L157.801 108.915L159.196 112.846C159.213 112.9 159.245 112.949 159.288 112.985C159.332 113.022 159.385 113.045 159.441 113.053L162.296 113.357C162.347 113.362 162.399 113.354 162.447 113.334C162.494 113.314 162.536 113.282 162.567 113.241C162.599 113.2 162.62 113.152 162.628 113.101C162.635 113.05 162.63 112.998 162.612 112.949L160.804 107.861Z" fill="white"/>
<path d="M173.657 105.268L172.236 101.253C172.64 100.937 172.934 100.502 173.079 100.009C173.224 99.5171 173.212 98.9917 173.044 98.5067C172.876 98.0217 172.561 97.6013 172.143 97.3043C171.725 97.0073 171.224 96.8484 170.712 96.85L170.673 96.85L169.258 92.8607C169.218 92.7244 169.15 92.5978 169.06 92.4885C168.969 92.3792 168.857 92.2895 168.73 92.225C168.604 92.1605 168.465 92.1224 168.324 92.1131C168.182 92.1038 168.04 92.1235 167.906 92.1709C167.772 92.2184 167.649 92.2926 167.545 92.3891C167.441 92.4856 167.357 92.6023 167.299 92.7322C167.242 92.8621 167.211 93.0023 167.209 93.1445C167.207 93.2866 167.234 93.4277 167.289 93.559L171.68 105.96C171.783 106.208 171.977 106.407 172.221 106.516C172.466 106.625 172.744 106.636 172.996 106.546C173.249 106.457 173.458 106.274 173.579 106.035C173.701 105.796 173.726 105.519 173.65 105.262L173.657 105.268Z" fill="white"/>
<path d="M158.537 99.7721L155.017 101.007C154.545 101.182 154.159 101.535 153.942 101.99C153.725 102.445 153.693 102.967 153.854 103.445L155.03 106.755C155.195 107.223 155.538 107.607 155.983 107.826C156.428 108.045 156.942 108.08 157.413 107.925L157.452 107.925L160.965 106.677C160.965 106.677 168.418 104.835 170.608 106.231L166.293 94.0308C165.505 96.4812 158.537 99.7721 158.537 99.7721Z" fill="white"/>
<path d="M124.002 48.4536L107.609 48.4536C107.423 48.4536 107.273 48.6186 107.273 48.8221L107.273 54.7286C107.273 54.9322 107.423 55.0971 107.609 55.0971L124.002 55.0971C124.188 55.0971 124.338 54.9322 124.338 54.7286L124.338 48.8221C124.338 48.6186 124.188 48.4536 124.002 48.4536Z" fill="#EF929C"/>
<path d="M109.169 54.1482L109.169 49.4028L110.456 49.4028L110.456 53.1102L112.372 53.1102L112.372 54.1482L109.169 54.1482Z" fill="white"/>
<path d="M114.178 49.4028L114.178 54.1482L112.892 54.1482L112.892 49.4028L114.178 49.4028Z" fill="white"/>
<path d="M116.084 49.4028L117.056 52.7487L117.093 52.7487L118.065 49.4028L119.518 49.4028L117.954 54.1482L116.195 54.1482L114.631 49.4028L116.084 49.4028Z" fill="white"/>
<path d="M119.974 54.1482L119.974 49.4028L123.39 49.4028L123.39 50.4409L121.261 50.4409L121.261 51.2565L123.214 51.2565L123.214 52.2945L121.261 52.2945L121.261 53.1102L123.38 53.1102L123.38 54.1482L119.974 54.1482Z" fill="white"/>
<defs>
<clipPath id="clip0_390_26379">
<rect width="20.8571" height="20.8796" fill="white" transform="translate(131.922 36.1157)"/>
</clipPath>
<clipPath id="clip1_390_26379">
<rect width="30.3377" height="26.5741" fill="white" transform="translate(0.143066 38.9629)"/>
</clipPath>
</defs>
</svg>
