<svg width="127" height="120" viewBox="0 0 127 120" fill="none" xmlns="http://www.w3.org/2000/svg">
<path d="M122.699 0H4.30078C2.09164 0 0.300781 1.79086 0.300781 3.99999V85.7501C0.300781 87.9593 2.09164 89.7501 4.30078 89.7501H122.699C124.908 89.7501 126.699 87.9593 126.699 85.7501V4C126.699 1.79086 124.908 0 122.699 0Z" fill="#6D8DFD"/>
<path d="M56.142 52.5484L53.749 49.8178L74.9097 31.3414L76.4514 38.8465L97.0099 20.598L98.1077 28.3803L108.827 18.2949L111.319 20.9348L95.4915 35.831L94.3573 27.8052L74.1596 45.7376L72.6049 38.1729L56.142 52.5484Z" fill="#D5DEFE"/>
<path d="M110.675 23.3935L117.099 13.0024L106.328 18.7925L110.675 23.3935Z" fill="white"/>
<path d="M43.7021 7.37549H14.4878V14.8858H43.7021V7.37549Z" fill="#ABBEFE"/>
<path d="M20.589 11.9443C21.0405 10.8564 20.5229 9.60917 19.433 9.15855C18.3431 8.70793 17.0936 9.22454 16.6421 10.3124C16.1907 11.4003 16.7083 12.6475 17.7982 13.0981C18.8881 13.5488 20.1376 13.0322 20.589 11.9443Z" fill="#6D8DFD"/>
<path d="M41.5998 9.62695H22.2715V10.8186H41.5998V9.62695Z" fill="#D5DEFE"/>
<path d="M41.5998 11.4429H22.2715V12.6346H41.5998V11.4429Z" fill="#D5DEFE"/>
<path d="M54.0839 17.3623H24.8696V24.8726H54.0839V17.3623Z" fill="#ABBEFE"/>
<path d="M28.9988 23.2486C30.1786 23.2486 31.1349 22.294 31.1349 21.1165C31.1349 19.9389 30.1786 18.9844 28.9988 18.9844C27.8191 18.9844 26.8628 19.9389 26.8628 21.1165C26.8628 22.294 27.8191 23.2486 28.9988 23.2486Z" fill="#6D8DFD"/>
<path d="M51.9816 19.6138H32.6533V20.8055H51.9816V19.6138Z" fill="#D5DEFE"/>
<path d="M51.9816 21.4297H32.6533V22.6214H51.9816V21.4297Z" fill="#D5DEFE"/>
<path d="M64.4658 27.3496H35.2515V34.8599H64.4658V27.3496Z" fill="#ABBEFE"/>
<path d="M39.3807 33.2354C40.5604 33.2354 41.5167 32.2808 41.5167 31.1033C41.5167 29.9258 40.5604 28.9712 39.3807 28.9712C38.201 28.9712 37.2446 29.9258 37.2446 31.1033C37.2446 32.2808 38.201 33.2354 39.3807 33.2354Z" fill="#6D8DFD"/>
<path d="M62.3634 29.6006H43.0352V30.7923H62.3634V29.6006Z" fill="#D5DEFE"/>
<path d="M62.3634 31.4165H43.0352V32.6082H62.3634V31.4165Z" fill="#D5DEFE"/>
<path d="M71.5743 21.4038L70.9021 24.3467C68.9185 23.8872 67.1552 22.7571 65.9112 21.148C64.6671 19.5389 64.0188 17.5499 64.0763 15.5182C64.1337 13.4865 64.8933 11.5371 66.2263 10.0006C67.5593 8.46411 69.3837 7.43504 71.3901 7.08789L71.8962 10.0671C70.5754 10.2915 69.3734 10.9658 68.4948 11.9753C67.6162 12.9848 67.1153 14.267 67.0773 15.6037C67.0394 16.9404 67.4667 18.2489 68.2867 19.3064C69.1066 20.364 70.2684 21.1051 71.5743 21.4038Z" fill="#D5DEFE"/>
<path d="M81.3618 13.417L78.4446 14.2227C78.1077 13.0033 77.3795 11.928 76.3715 11.1614C75.3636 10.3949 74.1315 9.97962 72.8643 9.97919C72.5399 9.9791 72.216 10.0068 71.8962 10.0621L71.3901 7.08286C73.5421 6.72027 75.7523 7.1665 77.594 8.33537C79.4356 9.50424 80.778 11.3128 81.3618 13.4118V13.417Z" fill="#ABBEFE"/>
<path d="M81.6811 15.7667C81.6849 16.9847 81.4338 18.19 80.944 19.3055L78.1851 18.0827C78.7182 16.8658 78.8153 15.5027 78.4602 14.2227L81.3749 13.417C81.5825 14.1829 81.6855 14.9733 81.6811 15.7667Z" fill="#97ADFD"/>
<path d="M80.9441 19.3058C80.2563 20.8734 79.1259 22.207 77.691 23.1437C76.2562 24.0804 74.579 24.5796 72.8645 24.5803C72.2042 24.5812 71.5459 24.5074 70.9023 24.3601L71.5746 21.4172C72.0002 21.5149 72.4356 21.5636 72.8723 21.5622C74.0013 21.5627 75.1058 21.2336 76.0498 20.6154C76.9938 19.9972 77.7361 19.117 78.1852 18.083L80.9441 19.3058Z" fill="#587CFC"/>
<path d="M106.452 38.1937L104.537 46.7816L95.9924 48.95C95.6242 47.4935 95.6352 45.9672 96.0244 44.5162C96.4137 43.0652 97.1683 41.7376 98.2164 40.6597C99.2646 39.5818 100.572 38.7894 102.013 38.3578C103.454 37.9262 104.983 37.8697 106.452 38.1937Z" fill="#D5DEFE"/>
<path d="M111.388 52.3205C110.588 53.305 109.584 54.1053 108.445 54.6667C107.306 55.2282 106.059 55.5376 104.789 55.5737C103.519 55.6099 102.256 55.372 101.087 54.8762C99.9179 54.3805 98.8697 53.6386 98.0142 52.7014L104.537 46.7817L111.388 52.3205Z" fill="#587CFC"/>
<path d="M111.879 41.9135L104.537 46.7813L106.452 38.1934C108.674 38.6882 110.619 40.0211 111.879 41.9135Z" fill="#97ADFD"/>
<path d="M113.353 46.7819C113.356 48.7987 112.662 50.7547 111.389 52.3207L104.537 46.7819L111.879 41.9141C112.843 43.3549 113.356 45.0493 113.353 46.7819Z" fill="#436CFC"/>
<path d="M104.537 46.7817L98.0145 52.7014C97.0433 51.6349 96.349 50.3468 95.9927 48.9501L104.537 46.7817Z" fill="#ABBEFE"/>
<path d="M55.0157 77.2993H53.9775V81.2474H55.0157V77.2993Z" fill="#D5DEFE"/>
<path d="M58.3272 75.6235H57.2891V81.2504H58.3272V75.6235Z" fill="#D5DEFE"/>
<path d="M61.6393 73.2222H60.6011V81.2506H61.6393V73.2222Z" fill="#D5DEFE"/>
<path d="M64.9508 71.6362H63.9126V81.2501H64.9508V71.6362Z" fill="#D5DEFE"/>
<path d="M68.2628 70.3877H67.2246V81.2502H68.2628V70.3877Z" fill="#D5DEFE"/>
<path d="M71.5719 65.3022H70.5337V81.2476H71.5719V65.3022Z" fill="#D5DEFE"/>
<path d="M74.8839 63.9268H73.8457V81.2478H74.8839V63.9268Z" fill="#D5DEFE"/>
<path d="M78.1954 65.5796H77.1572V81.2504H78.1954V65.5796Z" fill="#D5DEFE"/>
<path d="M81.5074 66.9731H80.4692V81.2502H81.5074V66.9731Z" fill="#D5DEFE"/>
<path d="M84.8189 68.6597H83.7808V81.2476H84.8189V68.6597Z" fill="#D5DEFE"/>
<path d="M88.1285 72.2842H87.0903V81.2504H88.1285V72.2842Z" fill="#D5DEFE"/>
<path d="M91.44 76.4424H90.4019V81.248H91.44V76.4424Z" fill="#D5DEFE"/>
<path d="M94.752 71.0537H93.7139V81.2479H94.752V71.0537Z" fill="#D5DEFE"/>
<path d="M98.0636 67.7559H97.0254V81.2505H98.0636V67.7559Z" fill="#D5DEFE"/>
<path d="M101.376 65.3022H100.337V81.2476H101.376V65.3022Z" fill="#D5DEFE"/>
<path d="M104.685 68.2085H103.646V81.2472H104.685V68.2085Z" fill="#D5DEFE"/>
<path d="M107.996 71.6079H106.958V81.2503H107.996V71.6079Z" fill="#D5DEFE"/>
<path d="M111.308 74.5015H110.27V81.2475H111.308V74.5015Z" fill="#D5DEFE"/>
<path d="M114.62 77.2993H113.582V81.2474H114.62V77.2993Z" fill="#D5DEFE"/>
<path d="M57.6006 86.4501L54.0041 83.9531L0.0864258 119.467L57.6006 86.4501Z" fill="#F8F9F1"/>
<path d="M69.4829 86.4501L73.0821 83.9531L127 119.467L69.4829 86.4501Z" fill="#F8F9F1"/>
<path d="M0.249023 46.647L63.497 90.5426L0.249023 119.467V46.647Z" fill="white"/>
<path d="M126.745 46.647V119.467L63.4971 90.5426L126.745 46.647Z" fill="white"/>
<path d="M0.248986 119.597C0.219945 119.597 0.191581 119.588 0.168407 119.57C0.145233 119.553 0.128578 119.528 0.121094 119.5C0.11361 119.472 0.115729 119.443 0.127108 119.416C0.138487 119.39 0.158476 119.368 0.183894 119.354L57.5353 86.3368C57.5561 86.3252 57.5793 86.3187 57.6031 86.3179H69.3935C69.4165 86.3183 69.4389 86.3249 69.4586 86.3368L126.813 119.354C126.837 119.368 126.857 119.39 126.867 119.416C126.878 119.443 126.88 119.472 126.872 119.499C126.865 119.527 126.848 119.552 126.825 119.569C126.802 119.587 126.774 119.596 126.745 119.597H0.248986Z" fill="white"/>
<path d="M57.6114 86.4501H69.4044L126.745 119.467H0.249099L57.6114 86.4501ZM57.6114 86.1802C57.5657 86.1808 57.5209 86.1928 57.4812 86.2153L0.110774 119.24C0.0667679 119.272 0.0335286 119.317 0.0153991 119.368C-0.00273036 119.419 -0.00490553 119.475 0.00915808 119.527C0.0232217 119.58 0.0528668 119.627 0.0942235 119.662C0.13558 119.698 0.186722 119.72 0.240963 119.726H126.745C126.799 119.72 126.851 119.699 126.893 119.663C126.934 119.628 126.964 119.581 126.979 119.528C126.993 119.476 126.991 119.42 126.973 119.369C126.955 119.317 126.922 119.273 126.878 119.24L69.5238 86.2234C69.4841 86.2009 69.4393 86.1889 69.3936 86.1883L57.6114 86.1802Z" fill="#2959D5"/>
</svg>
