<svg width="139" height="178" viewBox="0 0 139 178" fill="none" xmlns="http://www.w3.org/2000/svg">
<path d="M0 12.0492V32.8834V79.8211V171.657V218.594V233.942C0.00876542 236.414 0.830911 238.823 2.35461 240.843C3.87831 242.862 6.02963 244.393 8.51599 245.227C9.98559 245.738 11.5404 245.999 13.1079 246H22.4496L125.3 245.957C127.943 245.963 130.528 245.228 132.721 243.847C134.469 242.756 135.902 241.28 136.895 239.548C137.889 237.816 138.411 235.882 138.417 233.916L138.306 12.0318C138.304 10.2675 137.883 8.52575 137.072 6.93271C136.262 5.33967 135.083 3.9353 133.621 2.82136C131.252 0.989527 128.272 -0.00858696 125.198 5.56589e-05L13.0059 0.0521391C9.58697 0.0473041 6.30391 1.30424 3.86905 3.55023C1.43419 5.79622 0.0439538 8.85007 0 12.0492Z" fill="white" fill-opacity="0.5"/>
<path d="M131.628 21.1263L131.72 214.793C131.72 215.185 131.638 215.572 131.478 215.934C131.319 216.295 131.085 216.623 130.79 216.9C130.495 217.176 130.146 217.395 129.761 217.544C129.376 217.693 128.964 217.769 128.547 217.768L9.95312 217.82C9.11335 217.82 8.30784 217.507 7.71317 216.949C7.11851 216.392 6.7832 215.635 6.78076 214.846L6.69777 21.1783C6.69655 20.787 6.77747 20.3993 6.93589 20.0374C7.09431 19.6755 7.32712 19.3466 7.62096 19.0695C7.91481 18.7924 8.26391 18.5725 8.64829 18.4225C9.03266 18.2724 9.44472 18.1952 9.86089 18.1952L128.464 18.1519C128.88 18.1507 129.292 18.2269 129.676 18.376C130.061 18.525 130.41 18.7441 130.704 19.0205C130.998 19.2969 131.231 19.6253 131.389 19.9867C131.548 20.3481 131.629 20.7354 131.628 21.1263Z" fill="white"/>
<path d="M40.2073 146.241L22.1329 146.336C21.4211 146.339 20.717 146.473 20.0608 146.731C19.4046 146.989 18.8091 147.366 18.3086 147.84C17.8081 148.313 17.4123 148.874 17.1439 149.491C16.8754 150.108 16.7396 150.769 16.7443 151.435L16.8451 168.348C16.8517 169.694 17.4292 170.982 18.4505 171.929C19.4719 172.877 20.8535 173.406 22.2916 173.4L40.3713 173.306C41.0841 173.303 41.7891 173.168 42.4461 172.909C43.1031 172.651 43.6993 172.273 44.2004 171.799C44.7015 171.325 45.0978 170.763 45.3666 170.145C45.6354 169.527 45.7715 168.866 45.767 168.199L45.6661 151.285C45.6617 150.619 45.517 149.96 45.2403 149.345C44.9636 148.731 44.5603 148.174 44.0533 147.705C43.5464 147.237 42.9458 146.866 42.2859 146.615C41.626 146.364 40.9197 146.237 40.2073 146.241ZM39.5631 160.834L36.8597 160.853L36.9184 170.225L32.4 170.248L32.3413 160.875L30.5848 160.883L30.5703 157.723L32.3215 157.714L32.3139 155.691C32.2985 153.051 33.4587 151.479 36.7828 151.462L40.1445 151.446L40.1618 154.591L38.2051 154.602C36.9128 154.611 36.8331 155.063 36.844 155.893L36.8454 157.662L39.9176 157.664L39.5631 160.834Z" fill="#0D60AF"/>
<path d="M31.1252 119.885L31.0322 119.876C30.2076 119.868 29.4118 120.16 28.8132 120.691C28.4776 120.99 28.2093 121.35 28.0242 121.748C27.839 122.145 27.7408 122.574 27.7352 123.008C27.726 123.851 28.0745 124.663 28.7043 125.266C29.3341 125.869 30.1937 126.213 31.0946 126.224C31.9988 126.224 32.8665 125.891 33.5103 125.297C34.1541 124.703 34.5221 123.895 34.5349 123.05C34.6014 122.242 34.3267 121.443 33.77 120.823C33.4173 120.511 33.0019 120.267 32.5479 120.106C32.094 119.946 31.6104 119.87 31.1252 119.885Z" fill="#EE51AF"/>
<path d="M35.5121 114.624L26.6372 114.666C25.501 114.676 24.4154 115.107 23.6181 115.864C22.8208 116.622 22.3769 117.644 22.3835 118.707L22.4233 127.581C22.434 128.644 22.8945 129.66 23.7041 130.406C24.5137 131.152 25.6062 131.568 26.7425 131.562L35.591 131.508C36.7272 131.498 37.8128 131.067 38.6101 130.309C39.4074 129.552 39.8513 128.529 39.8446 127.466L39.8578 118.617C39.8542 118.088 39.7389 117.564 39.5182 117.076C39.2976 116.588 38.9762 116.146 38.5723 115.775C38.1685 115.404 37.6902 115.111 37.165 114.914C36.6398 114.716 36.0781 114.618 35.5121 114.624ZM37.4725 123.063C37.4529 124.632 36.7874 126.132 35.6146 127.253C35.0346 127.806 34.343 128.246 33.58 128.547C32.817 128.849 31.9977 129.005 31.1695 129.008C29.4831 129.015 27.8627 128.396 26.663 127.286C25.4633 126.177 24.7822 124.669 24.7686 123.091C24.7639 122.285 24.9314 121.488 25.2613 120.744C25.5913 120.001 26.0769 119.326 26.6896 118.761C27.2747 118.216 27.973 117.788 28.7414 117.504C29.5098 117.22 30.3321 117.087 31.1577 117.111C32.0362 117.095 32.909 117.245 33.724 117.552C34.5391 117.859 35.2796 118.317 35.9013 118.898C37.0009 120.033 37.574 121.53 37.4949 123.06L37.4725 123.063ZM37.0896 118.666C36.8185 118.668 36.553 118.594 36.3266 118.455C36.1001 118.316 35.9229 118.116 35.8174 117.883C35.7118 117.649 35.6827 117.392 35.7335 117.142C35.7844 116.893 35.9131 116.664 36.1033 116.483C36.2935 116.302 36.5367 116.179 36.8021 116.127C37.0675 116.076 37.3432 116.099 37.5945 116.194C37.8457 116.289 38.0612 116.452 38.2136 116.662C38.366 116.872 38.4485 117.119 38.4508 117.373C38.4523 117.541 38.4182 117.708 38.3506 117.865C38.283 118.021 38.1831 118.163 38.0567 118.283C37.9303 118.403 37.7798 118.499 37.6138 118.565C37.4479 118.63 37.2697 118.665 37.0896 118.666Z" fill="#EE51AF"/>
<path d="M39.4018 109.192L22.6733 109.287C20.9609 109.303 19.3251 109.954 18.1251 111.097C16.9251 112.24 16.2589 113.782 16.2729 115.384L16.376 130.91C16.3831 132.513 17.0702 134.048 18.2862 135.177C19.5022 136.307 21.1476 136.938 22.8608 136.933L39.5899 136.832C41.2975 136.817 42.9293 136.17 44.1284 135.032C45.3274 133.894 45.996 132.359 45.9878 130.761L45.8847 115.235C45.8848 114.44 45.717 113.652 45.3909 112.917C45.0649 112.183 44.5869 111.515 43.9846 110.954C43.3823 110.392 42.6674 109.948 41.881 109.645C41.0945 109.343 40.252 109.189 39.4018 109.192ZM42.3329 127.466C42.3419 129.134 41.6433 130.736 40.3904 131.921C39.1375 133.107 37.433 133.778 35.6513 133.788L26.8028 133.842C25.9204 133.847 25.0457 133.689 24.2285 133.378C23.4113 133.066 22.6678 132.607 22.0404 132.026C21.413 131.445 20.914 130.755 20.5719 129.994C20.2299 129.232 20.0515 128.416 20.0469 127.59L19.9504 118.732C19.9413 117.064 20.6399 115.461 21.8927 114.275C23.1455 113.089 24.8501 112.416 26.6324 112.405L35.4809 112.351C36.3633 112.346 37.2381 112.504 38.0552 112.816C38.8724 113.127 39.6159 113.587 40.2434 114.167C40.8708 114.748 41.3698 115.439 41.7118 116.2C42.0539 116.961 42.2323 117.778 42.2368 118.604L42.3329 127.466Z" fill="#EE51AF"/>
<path d="M116.534 32.8832C116.411 32.8832 116.293 32.8375 116.206 32.7561C116.119 32.6747 116.07 32.5643 116.07 32.4492C116.07 32.3341 116.119 32.2237 116.206 32.1423C116.293 32.0609 116.411 32.0151 116.534 32.0151H125.959C126.082 32.0151 126.2 32.0609 126.287 32.1423C126.374 32.2237 126.423 32.3341 126.423 32.4492C126.423 32.5643 126.374 32.6747 126.287 32.7561C126.2 32.8375 126.082 32.8832 125.959 32.8832H116.534Z" fill="white"/>
<path d="M116.534 35.1318C116.411 35.1318 116.293 35.086 116.206 35.0046C116.119 34.9232 116.07 34.8128 116.07 34.6977C116.07 34.5826 116.119 34.4722 116.206 34.3908C116.293 34.3094 116.411 34.2637 116.534 34.2637H125.959C126.082 34.2637 126.2 34.3094 126.287 34.3908C126.374 34.4722 126.423 34.5826 126.423 34.6977C126.423 34.8128 126.374 34.9232 126.287 35.0046C126.2 35.086 126.082 35.1318 125.959 35.1318H116.534Z" fill="white"/>
<path d="M116.534 37.3886C116.411 37.3886 116.293 37.3429 116.206 37.2615C116.119 37.1801 116.07 37.0697 116.07 36.9546C116.07 36.8394 116.119 36.729 116.206 36.6476C116.293 36.5662 116.411 36.5205 116.534 36.5205H125.959C126.082 36.5205 126.2 36.5662 126.287 36.6476C126.374 36.729 126.423 36.8394 126.423 36.9546C126.423 37.0697 126.374 37.1801 126.287 37.2615C126.2 37.3429 126.082 37.3886 125.959 37.3886H116.534Z" fill="white"/>
<path d="M17.6074 38.8214C17.5466 38.8221 17.4862 38.8109 17.4303 38.7885C17.3744 38.766 17.3241 38.7329 17.2827 38.6912L13.8503 35.4966C13.712 35.361 13.6348 35.1807 13.6348 34.9931C13.6348 34.8056 13.712 34.6253 13.8503 34.4897L17.1436 31.4079C17.2309 31.3262 17.3494 31.2803 17.4729 31.2803C17.5964 31.2803 17.7148 31.3262 17.8022 31.4079C17.8895 31.4897 17.9386 31.6005 17.9386 31.7161C17.9386 31.8317 17.8895 31.9425 17.8022 32.0243L14.6296 34.9931L17.9321 38.0836C17.9764 38.1225 18.0118 38.1696 18.036 38.2218C18.0602 38.2741 18.0726 38.3304 18.0726 38.3874C18.0726 38.4443 18.0602 38.5007 18.036 38.5529C18.0118 38.6052 17.9764 38.6522 17.9321 38.6912C17.8906 38.7329 17.8404 38.766 17.7845 38.7885C17.7285 38.8109 17.6682 38.8221 17.6074 38.8214Z" fill="white"/>
<path opacity="0.36" d="M131.72 26.1147H6.69775V63.7197H131.72V26.1147Z" fill="#599AF2"/>
<path opacity="0.43" d="M63.2022 35.5156H18.1454C17.423 35.5156 16.8374 36.0636 16.8374 36.7396V43.8233C16.8374 44.4993 17.423 45.0473 18.1454 45.0473H63.2022C63.9246 45.0473 64.5102 44.4993 64.5102 43.8233V36.7396C64.5102 36.0636 63.9246 35.5156 63.2022 35.5156Z" fill="white"/>
<path opacity="0.43" d="M87.9612 50.3774H18.1542C17.4318 50.3774 16.8462 50.9254 16.8462 51.6014V53.9193C16.8462 54.5953 17.4318 55.1433 18.1542 55.1433H87.9612C88.6835 55.1433 89.2692 54.5953 89.2692 53.9193V51.6014C89.2692 50.9254 88.6835 50.3774 87.9612 50.3774Z" fill="white"/>
<path opacity="0.43" d="M116.608 54.3446C114.051 54.3446 111.6 53.3944 109.792 51.7029C107.985 50.0114 106.969 47.7173 106.969 45.3251C106.969 42.933 107.985 40.6389 109.792 38.9474C111.6 37.2559 114.051 36.3057 116.608 36.3057C119.158 36.3079 121.604 37.2554 123.411 38.9407C125.217 40.6261 126.236 42.9122 126.246 45.2991C126.244 47.6905 125.227 49.9833 123.42 51.6743C121.613 53.3653 119.163 54.3163 116.608 54.3186V54.3446ZM116.608 38.0418C114.543 38.0418 112.564 38.8092 111.104 40.1751C109.645 41.541 108.825 43.3935 108.825 45.3251C108.825 47.2568 109.645 49.1093 111.104 50.4752C112.564 51.8411 114.543 52.6084 116.608 52.6084C118.671 52.6061 120.649 51.8381 122.108 50.4727C123.568 49.1073 124.388 47.2561 124.391 45.3251C124.388 43.3942 123.568 41.543 122.108 40.1776C120.649 38.8122 118.671 38.0441 116.608 38.0418Z" fill="white"/>
<path d="M40.9562 70.4712H20.2043C17.868 70.4712 15.9741 72.2435 15.9741 74.4297V93.8489C15.9741 96.0351 17.868 97.8074 20.2043 97.8074H40.9562C43.2924 97.8074 45.1864 96.0351 45.1864 93.8489V74.4297C45.1864 72.2435 43.2924 70.4712 40.9562 70.4712Z" fill="#1789FA"/>
<path d="M38.8733 84.3109C38.8284 84.4474 38.7779 84.5892 38.7274 84.7257C37.1562 88.8898 31.9489 92.576 25.7483 90.5281C23.9116 89.9169 22.3023 88.823 21.1133 87.3775C22.8242 88.1587 24.7937 88.2831 26.6012 87.7241C25.9023 87.4783 25.3028 87.0346 24.8864 86.4547C24.4699 85.8749 24.2573 85.1878 24.2781 84.4894C24.4731 84.5955 24.6778 84.6851 24.8898 84.7572C25.1904 84.856 25.5036 84.9177 25.8212 84.941C25.1126 84.545 24.5723 83.9316 24.2921 83.2051C24.0118 82.4787 24.0089 81.6838 24.2837 80.9555V80.9135C24.6595 81.3128 25.1332 81.6209 25.6641 81.8114C25.1195 81.1288 24.8742 80.2771 24.9785 79.4308C25.0828 78.5845 25.5288 77.8075 26.2252 77.2588C26.7042 78.5125 27.4592 79.658 28.4413 80.6214C29.4234 81.5847 30.6107 82.3444 31.9264 82.8511C31.9614 82.5957 32.0234 82.3441 32.1116 82.1002C32.352 81.4683 32.7897 80.9184 33.3678 80.5218C33.946 80.1252 34.6381 79.9002 35.3545 79.8759C36.0709 79.8516 36.7785 80.0291 37.3859 80.3854C37.9933 80.7417 38.4724 81.2604 38.7611 81.8744C39.5687 81.9842 40.3903 81.9646 41.1908 81.8167C40.6694 82.4655 39.917 82.9181 39.0697 83.0927C39.7671 83.2386 40.4839 83.2864 41.1964 83.2344C40.497 83.7202 39.7102 84.0848 38.8733 84.3109Z" fill="white"/>
<g opacity="0.26">
<path d="M69.7443 74.7163H53.3246C52.7406 74.7163 52.2671 75.1594 52.2671 75.7059V78.6314C52.2671 79.178 52.7406 79.621 53.3246 79.621H69.7443C70.3284 79.621 70.8019 79.178 70.8019 78.6314V75.7059C70.8019 75.1594 70.3284 74.7163 69.7443 74.7163Z" fill="#3E479B"/>
<path d="M52.2763 87.1561C52.0303 87.1561 51.7943 87.0646 51.6203 86.9018C51.4464 86.739 51.3486 86.5182 51.3486 86.288C51.3486 86.0578 51.4464 85.837 51.6203 85.6742C51.7943 85.5114 52.0303 85.4199 52.2763 85.4199H83.9098C84.1558 85.4199 84.3917 85.5114 84.5657 85.6742C84.7397 85.837 84.8374 86.0578 84.8374 86.288C84.8374 86.5182 84.7397 86.739 84.5657 86.9018C84.3917 87.0646 84.1558 87.1561 83.9098 87.1561H52.2763Z" fill="#3E479B"/>
<path d="M52.2763 93.3543C52.0303 93.3543 51.7943 93.2629 51.6203 93.1001C51.4464 92.9373 51.3486 92.7165 51.3486 92.4863C51.3486 92.256 51.4464 92.0352 51.6203 91.8724C51.7943 91.7096 52.0303 91.6182 52.2763 91.6182H103.864C104.11 91.6182 104.346 91.7096 104.52 91.8724C104.694 92.0352 104.792 92.256 104.792 92.4863C104.792 92.7165 104.694 92.9373 104.52 93.1001C104.346 93.2629 104.11 93.3543 103.864 93.3543H52.2763Z" fill="#3E479B"/>
<path d="M90.9599 87.139C90.7139 87.139 90.4779 87.0476 90.3039 86.8848C90.13 86.722 90.0322 86.5012 90.0322 86.2709C90.0322 86.0407 90.13 85.8199 90.3039 85.6571C90.4779 85.4943 90.7139 85.4028 90.9599 85.4028H122.603C122.849 85.4028 123.085 85.4943 123.259 85.6571C123.433 85.8199 123.53 86.0407 123.53 86.2709C123.53 86.5012 123.433 86.722 123.259 86.8848C123.085 87.0476 122.849 87.139 122.603 87.139H90.9599Z" fill="#3E479B"/>
</g>
<g opacity="0.26">
<path d="M69.7448 114.249H53.3251C52.7411 114.249 52.2676 114.692 52.2676 115.238V118.164C52.2676 118.71 52.7411 119.153 53.3251 119.153H69.7448C70.3289 119.153 70.8024 118.71 70.8024 118.164V115.238C70.8024 114.692 70.3289 114.249 69.7448 114.249Z" fill="#3E479B"/>
<path d="M52.2763 126.705C52.0303 126.705 51.7943 126.614 51.6203 126.451C51.4464 126.288 51.3486 126.068 51.3486 125.837C51.3486 125.607 51.4464 125.386 51.6203 125.224C51.7943 125.061 52.0303 124.969 52.2763 124.969H83.9098C84.1558 124.969 84.3917 125.061 84.5657 125.224C84.7397 125.386 84.8374 125.607 84.8374 125.837C84.8374 126.068 84.7397 126.288 84.5657 126.451C84.3917 126.614 84.1558 126.705 83.9098 126.705H52.2763Z" fill="#3E479B"/>
<path d="M52.2763 132.887C52.0303 132.887 51.7943 132.795 51.6203 132.632C51.4464 132.47 51.3486 132.249 51.3486 132.018C51.3486 131.788 51.4464 131.567 51.6203 131.405C51.7943 131.242 52.0303 131.15 52.2763 131.15H103.864C104.11 131.15 104.346 131.242 104.52 131.405C104.694 131.567 104.792 131.788 104.792 132.018C104.792 132.249 104.694 132.47 104.52 132.632C104.346 132.795 104.11 132.887 103.864 132.887H52.2763Z" fill="#3E479B"/>
<path d="M90.9599 126.705C90.7139 126.705 90.4779 126.614 90.3039 126.451C90.13 126.288 90.0322 126.068 90.0322 125.837C90.0322 125.607 90.13 125.386 90.3039 125.224C90.4779 125.061 90.7139 124.969 90.9599 124.969H122.603C122.849 124.969 123.085 125.061 123.259 125.224C123.433 125.386 123.53 125.607 123.53 125.837C123.53 126.068 123.433 126.288 123.259 126.451C123.085 126.614 122.849 126.705 122.603 126.705H90.9599Z" fill="#3E479B"/>
</g>
<path d="M131.72 13.7593V26.0607L6.69775 26.1143V13.6611C6.69775 12.8831 7.01635 12.1369 7.58373 11.586C8.1511 11.035 8.92097 10.7243 9.72458 10.722L128.518 10.6773C128.937 10.6749 129.353 10.7529 129.742 10.9068C130.13 11.0606 130.483 11.2872 130.781 11.5737C131.078 11.8601 131.315 12.2007 131.476 12.5758C131.637 12.9509 131.72 13.3531 131.72 13.7593Z" fill="#599AF2"/>
<path d="M116.29 16.6541C116.168 16.6541 116.05 16.607 115.964 16.5233C115.877 16.4395 115.829 16.3259 115.829 16.2074C115.829 16.089 115.877 15.9753 115.964 15.8916C116.05 15.8078 116.168 15.7607 116.29 15.7607H125.666C125.788 15.7607 125.906 15.8078 125.992 15.8916C126.079 15.9753 126.127 16.089 126.127 16.2074C126.127 16.3259 126.079 16.4395 125.992 16.5233C125.906 16.607 125.788 16.6541 125.666 16.6541H116.29Z" fill="white"/>
<path d="M116.29 18.9676C116.168 18.9676 116.05 18.9205 115.964 18.8367C115.877 18.753 115.829 18.6394 115.829 18.5209C115.829 18.4024 115.877 18.2888 115.964 18.2051C116.05 18.1213 116.168 18.0742 116.29 18.0742H125.666C125.788 18.0742 125.906 18.1213 125.992 18.2051C126.079 18.2888 126.127 18.4024 126.127 18.5209C126.127 18.6394 126.079 18.753 125.992 18.8367C125.906 18.9205 125.788 18.9676 125.666 18.9676H116.29Z" fill="white"/>
<path d="M116.29 21.2903C116.168 21.2903 116.05 21.2433 115.964 21.1595C115.877 21.0757 115.829 20.9621 115.829 20.8436C115.829 20.7252 115.877 20.6116 115.964 20.5278C116.05 20.444 116.168 20.397 116.29 20.397H125.666C125.788 20.397 125.906 20.444 125.992 20.5278C126.079 20.6116 126.127 20.7252 126.127 20.8436C126.127 20.9621 126.079 21.0757 125.992 21.1595C125.906 21.2433 125.788 21.2903 125.666 21.2903H116.29Z" fill="white"/>
<path d="M17.8815 22.7645C17.821 22.7652 17.761 22.7536 17.7054 22.7305C17.6497 22.7075 17.5997 22.6734 17.5585 22.6305L14.1441 19.3429C14.0065 19.2033 13.9297 19.0178 13.9297 18.8248C13.9297 18.6318 14.0065 18.4463 14.1441 18.3067L17.4201 15.1353C17.507 15.0512 17.6248 15.0039 17.7477 15.0039C17.8706 15.0039 17.9884 15.0512 18.0753 15.1353C18.1622 15.2194 18.211 15.3335 18.211 15.4524C18.211 15.5714 18.1622 15.6854 18.0753 15.7695L14.9193 18.8248L18.2045 22.0051C18.2486 22.0452 18.2838 22.0936 18.3078 22.1474C18.3319 22.2012 18.3443 22.2592 18.3443 22.3178C18.3443 22.3764 18.3319 22.4344 18.3078 22.4881C18.2838 22.5419 18.2486 22.5904 18.2045 22.6305C18.1633 22.6734 18.1133 22.7075 18.0576 22.7305C18.002 22.7536 17.942 22.7652 17.8815 22.7645Z" fill="white"/>
<g opacity="0.26">
<path d="M69.3452 152.509H53.2817C52.7103 152.509 52.2471 152.942 52.2471 153.477V156.339C52.2471 156.874 52.7103 157.307 53.2817 157.307H69.3452C69.9166 157.307 70.3798 156.874 70.3798 156.339V153.477C70.3798 152.942 69.9166 152.509 69.3452 152.509Z" fill="#3E479B"/>
<path d="M52.2562 164.679C52.0155 164.679 51.7846 164.589 51.6144 164.43C51.4442 164.27 51.3486 164.054 51.3486 163.829C51.3486 163.604 51.4442 163.388 51.6144 163.229C51.7846 163.069 52.0155 162.98 52.2562 162.98H66.5681C66.8088 162.98 67.0397 163.069 67.2098 163.229C67.38 163.388 67.4757 163.604 67.4757 163.829C67.4757 164.054 67.38 164.27 67.2098 164.43C67.0397 164.589 66.8088 164.679 66.5681 164.679H52.2562Z" fill="#3E479B"/>
<path d="M52.2562 170.742C52.0155 170.742 51.7846 170.653 51.6144 170.494C51.4442 170.334 51.3486 170.118 51.3486 169.893C51.3486 169.668 51.4442 169.452 51.6144 169.293C51.7846 169.133 52.0155 169.044 52.2562 169.044H81.6333C81.874 169.044 82.1049 169.133 82.2751 169.293C82.4453 169.452 82.5409 169.668 82.5409 169.893C82.5409 170.118 82.4453 170.334 82.2751 170.494C82.1049 170.653 81.874 170.742 81.6333 170.742H52.2562Z" fill="#3E479B"/>
<path d="M72.5584 164.67C72.3177 164.67 72.0869 164.581 71.9167 164.421C71.7465 164.262 71.6509 164.046 71.6509 163.821C71.6509 163.596 71.7465 163.38 71.9167 163.22C72.0869 163.061 72.3177 162.972 72.5584 162.972H101.146C101.387 162.972 101.618 163.061 101.788 163.22C101.958 163.38 102.054 163.596 102.054 163.821C102.054 164.046 101.958 164.262 101.788 164.421C101.618 164.581 101.387 164.67 101.146 164.67H72.5584Z" fill="#3E479B"/>
<path d="M106.464 164.619C106.223 164.619 105.992 164.53 105.822 164.371C105.652 164.211 105.556 163.995 105.556 163.77C105.556 163.545 105.652 163.329 105.822 163.17C105.992 163.01 106.223 162.921 106.464 162.921H120.785C121.025 162.921 121.256 163.01 121.426 163.17C121.597 163.329 121.692 163.545 121.692 163.77C121.692 163.995 121.597 164.211 121.426 164.371C121.256 164.53 121.025 164.619 120.785 164.619H106.464Z" fill="#3E479B"/>
</g>
</svg>
