<svg width="257" height="201" viewBox="0 0 257 201" fill="none" xmlns="http://www.w3.org/2000/svg">
<g clip-path="url(#clip0_2374_173646)">
<path d="M159.02 168.224C161.021 175.14 166.512 180.767 175.255 180.767H88.3035C77.5834 180.767 71.7469 172.279 71.2526 163.35C70.7583 154.42 74.9749 146.53 84.8373 146.53H171.789C165.059 146.53 160.956 150.203 159.193 155.376C158.356 157.946 158.02 160.653 158.204 163.35C158.292 165 158.566 166.635 159.02 168.224Z" fill="#FFC8D4"/>
<path d="M175.553 168.224H159.02C158.564 166.639 158.289 165.008 158.198 163.362C158.014 160.665 158.35 157.957 159.187 155.388H168.537C165.988 162.519 170.193 168.098 175.553 168.224Z" fill="#0A4DD0"/>
<path d="M171.789 146.542C185.671 146.542 186.993 165.129 178.292 167.835C177.574 168.061 176.829 168.191 176.077 168.224H175.553C170.145 168.098 165.97 162.519 168.519 155.388H159.193C160.955 150.215 165.059 146.542 171.789 146.542Z" fill="#E4AFBB"/>
<path d="M265.958 54.9755C266.459 63.8992 262.236 71.7955 252.374 71.7955C245.852 71.7955 242.1 67.6861 240.862 63.051L255.625 62.9495C258.204 55.7401 253.904 50.1135 248.413 50.1075H233.637C237.36 43.2445 242.374 38.06 248.908 37.5642C259.562 36.7399 265.482 46.0459 265.958 54.9755Z" fill="#FFC8D4"/>
<path d="M248.413 50.1255C253.904 50.1255 258.204 55.758 255.625 62.9674L240.861 63.069C239.462 57.8486 241.26 51.9532 245.87 50.5257C246.691 50.2665 247.546 50.1335 248.407 50.1315L248.413 50.1255Z" fill="#0A4DD0"/>
<path d="M240.862 63.0509C242.1 67.686 245.852 71.7954 252.374 71.7954H226.175L226.336 71.0607C227.795 64.2157 230.153 56.4508 233.62 50.1074H248.389C247.529 50.1095 246.673 50.2424 245.852 50.5016C241.261 51.9172 239.462 57.8305 240.862 63.0509Z" fill="#E4AFBB"/>
<path d="M176.077 168.224C176.829 168.191 177.574 168.061 178.292 167.835C186.993 165.13 185.671 146.542 171.789 146.542H121.125C128.718 125.636 133.673 97.8139 139.378 71.0608C142.356 57.2513 148.955 39.6369 160.818 37.6956C161.423 37.601 162.035 37.557 162.647 37.5642H248.907C242.356 38.06 237.36 43.2446 233.637 50.1075C230.171 56.4509 227.813 64.2158 226.354 71.0608L226.193 71.7955C214.99 124.406 206.611 180.779 175.255 180.779C166.512 180.779 161.021 175.14 159.02 168.236H175.553C175.727 168.245 175.902 168.241 176.077 168.224Z" fill="white"/>
<path d="M167.435 50.1074H205.98" stroke="#7189FF" stroke-width="1.95" stroke-linecap="round" stroke-linejoin="round"/>
<path d="M157.859 59.0073H211.209" stroke="#7189FF" stroke-width="1.95" stroke-linecap="round" stroke-linejoin="round"/>
<path d="M147.299 67.9072H217.42" stroke="#7189FF" stroke-width="1.95" stroke-linecap="round" stroke-linejoin="round"/>
<path d="M145.125 76.8066H215.246" stroke="#7189FF" stroke-width="1.95" stroke-linecap="round" stroke-linejoin="round"/>
<path d="M142.952 85.7065H213.073" stroke="#7189FF" stroke-width="1.95" stroke-linecap="round" stroke-linejoin="round"/>
<path d="M140.778 94.6064H210.899" stroke="#7189FF" stroke-width="1.95" stroke-linecap="round" stroke-linejoin="round"/>
<path d="M138.604 103.506H208.725" stroke="#7189FF" stroke-width="1.95" stroke-linecap="round" stroke-linejoin="round"/>
<path d="M136.43 112.406H206.551" stroke="#7189FF" stroke-width="1.95" stroke-linecap="round" stroke-linejoin="round"/>
<path d="M138.283 121.306H200.346" stroke="#7189FF" stroke-width="1.95" stroke-linecap="round" stroke-linejoin="round"/>
<path d="M140.849 130.2H193.437" stroke="#7189FF" stroke-width="1.95" stroke-linecap="round" stroke-linejoin="round"/>
<path d="M152.01 139.1H177.923" stroke="#7189FF" stroke-width="1.95" stroke-linecap="round" stroke-linejoin="round"/>
<path d="M43.7378 211.014H222.197C226.195 211.014 230.029 209.421 232.855 206.586C235.682 203.751 237.27 199.906 237.27 195.896C237.27 191.887 235.682 188.042 232.855 185.207C230.029 182.372 226.195 180.779 222.197 180.779H43.7378V211.014Z" fill="#F2718D"/>
<path d="M103.562 180.779H18.8018V183.025H32.178V208.768H18.8018V211.014H103.562C105.541 211.014 107.501 210.623 109.33 209.863C111.159 209.104 112.82 207.99 114.22 206.586C115.62 205.182 116.73 203.516 117.488 201.682C118.245 199.848 118.635 197.882 118.635 195.896C118.635 193.911 118.245 191.945 117.488 190.111C116.73 188.277 115.62 186.61 114.22 185.207C112.82 183.803 111.159 182.689 109.33 181.93C107.501 181.17 105.541 180.779 103.562 180.779Z" fill="#DF3056"/>
<path d="M218.48 180.779H211.334C218.939 181.794 224.817 188.185 224.817 195.896C224.817 203.608 218.939 209.993 211.334 211.014H218.48C221.129 209.484 223.328 207.281 224.858 204.627C226.387 201.973 227.192 198.962 227.192 195.896C227.192 192.831 226.387 189.82 224.858 187.166C223.328 184.512 221.129 182.309 218.48 180.779Z" fill="#DF3056"/>
<path d="M126.764 180.779H119.618C127.223 181.794 133.107 188.185 133.107 195.896C133.107 203.608 127.223 209.993 119.624 211.014H126.77C129.42 209.485 131.621 207.283 133.152 204.629C134.682 201.974 135.488 198.963 135.488 195.896C135.488 192.83 134.682 189.819 133.152 187.164C131.621 184.51 129.42 182.308 126.77 180.779H126.764Z" fill="#DF3056"/>
<path d="M142.928 203.751L144.03 201.242C144.764 199.556 145.144 197.736 145.144 195.896C145.144 194.057 144.764 192.237 144.03 190.551L142.928 188.042H210.012L210.482 189.111C211.417 191.25 211.9 193.561 211.9 195.896C211.9 198.232 211.417 200.543 210.482 202.682L210.012 203.751H142.928Z" fill="#DF3056"/>
<path d="M210.095 195.897C210.098 193.81 209.666 191.745 208.826 189.834H145.662C146.501 191.745 146.933 193.81 146.93 195.897C146.933 197.984 146.501 200.049 145.662 201.96H208.844C209.677 200.048 210.103 197.983 210.095 195.897Z" fill="#F2718D"/>
<path d="M22.3513 208.768L22.0595 208.23C21.9714 208.066 21.9253 207.882 21.9253 207.696C21.9253 207.509 21.9714 207.326 22.0595 207.161C22.1476 206.997 22.1937 206.813 22.1937 206.627C22.1937 206.44 22.1476 206.256 22.0595 206.092C21.9714 205.928 21.9253 205.744 21.9253 205.558C21.9253 205.371 21.9714 205.187 22.0595 205.023C22.1476 204.859 22.1937 204.675 22.1937 204.488C22.1937 204.302 22.1476 204.118 22.0595 203.954C21.9714 203.788 21.9253 203.604 21.9253 203.416C21.9253 203.229 21.9714 203.044 22.0595 202.879C22.1476 202.714 22.1937 202.531 22.1937 202.344C22.1937 202.157 22.1476 201.974 22.0595 201.809C21.9714 201.645 21.9253 201.461 21.9253 201.275C21.9253 201.088 21.9714 200.905 22.0595 200.74C22.1476 200.575 22.1937 200.39 22.1937 200.203C22.1937 200.015 22.1476 199.831 22.0595 199.665C21.9714 199.501 21.9253 199.317 21.9253 199.131C21.9253 198.944 21.9714 198.76 22.0595 198.596C22.1476 198.432 22.1937 198.248 22.1937 198.061C22.1937 197.875 22.1476 197.691 22.0595 197.527C21.9714 197.362 21.9253 197.179 21.9253 196.992C21.9253 196.806 21.9714 196.622 22.0595 196.458C22.1476 196.293 22.1937 196.11 22.1937 195.923C22.1937 195.736 22.1476 195.553 22.0595 195.388C21.9714 195.223 21.9253 195.038 21.9253 194.851C21.9253 194.663 21.9714 194.479 22.0595 194.313C22.1476 194.149 22.1937 193.965 22.1937 193.779C22.1937 193.592 22.1476 193.409 22.0595 193.244C21.9714 193.079 21.9253 192.894 21.9253 192.707C21.9253 192.519 21.9714 192.334 22.0595 192.169C22.1476 192.005 22.1937 191.821 22.1937 191.634C22.1937 191.448 22.1476 191.264 22.0595 191.1C21.9714 190.936 21.9253 190.752 21.9253 190.565C21.9253 190.379 21.9714 190.195 22.0595 190.031C22.1476 189.866 22.1937 189.683 22.1937 189.496C22.1937 189.31 22.1476 189.126 22.0595 188.962C21.9714 188.797 21.9253 188.614 21.9253 188.427C21.9253 188.24 21.9714 188.057 22.0595 187.892C22.1476 187.728 22.1937 187.544 22.1937 187.358C22.1937 187.171 22.1476 186.988 22.0595 186.823C21.9714 186.659 21.9253 186.475 21.9253 186.289C21.9253 186.102 21.9714 185.918 22.0595 185.754C22.1476 185.59 22.1937 185.406 22.1937 185.219C22.1937 185.033 22.1476 184.849 22.0595 184.685C21.9714 184.521 21.9253 184.337 21.9253 184.15C21.9253 183.964 21.9714 183.78 22.0595 183.616L22.3513 183.078H103.49C106.894 183.078 110.158 184.434 112.565 186.848C114.972 189.262 116.324 192.536 116.324 195.95C116.31 199.354 114.952 202.615 112.546 205.017C110.141 207.419 106.885 208.768 103.49 208.768H22.3513Z" fill="white"/>
<path d="M23.9414 185.258H106.795" stroke="#FFC8D4" stroke-width="1.03" stroke-linecap="round" stroke-linejoin="round"/>
<path d="M23.9414 187.385H109.309" stroke="#FFC8D4" stroke-width="1.03" stroke-linecap="round" stroke-linejoin="round"/>
<path d="M23.9414 189.512H112.269" stroke="#FFC8D4" stroke-width="1.03" stroke-linecap="round" stroke-linejoin="round"/>
<path d="M23.9414 191.638H113.495" stroke="#FFC8D4" stroke-width="1.03" stroke-linecap="round" stroke-linejoin="round"/>
<path d="M23.9414 193.77H114.002" stroke="#FFC8D4" stroke-width="1.03" stroke-linecap="round" stroke-linejoin="round"/>
<path d="M23.9414 195.896H114.419" stroke="#FFC8D4" stroke-width="1.03" stroke-linecap="round" stroke-linejoin="round"/>
<path d="M23.9414 198.023H114.002" stroke="#FFC8D4" stroke-width="1.03" stroke-linecap="round" stroke-linejoin="round"/>
<path d="M23.9414 200.15H113.495" stroke="#FFC8D4" stroke-width="1.03" stroke-linecap="round" stroke-linejoin="round"/>
<g clip-path="url(#clip1_2374_173646)">
<path d="M72.6458 129.765L68.6265 126.157V117.639H69.0818C69.4819 117.639 69.8657 117.48 70.1487 117.196C70.4316 116.913 70.5906 116.529 70.5906 116.128C70.5906 115.727 70.4316 115.343 70.1487 115.06C69.8657 114.776 69.4819 114.617 69.0818 114.617H33.7863C33.3862 114.617 33.0024 114.776 32.7194 115.06C32.4365 115.343 32.2775 115.727 32.2775 116.128C32.2775 116.529 32.4365 116.913 32.7194 117.196C33.0024 117.48 33.3862 117.639 33.7863 117.639H34.2481V126.157L30.2549 129.765C28.0463 131.752 26.3452 134.24 25.294 137.02C24.2429 139.801 23.8721 142.793 24.2129 145.746L28.2322 180.737H74.6944L78.7202 145.746C79.0565 142.79 78.6804 139.797 77.6236 137.016C76.5667 134.235 74.8597 131.749 72.6458 129.765Z" fill="#0A4DD0"/>
<path d="M37.448 125.975H65.4333" stroke="#FFC8D4" stroke-width="1.02" stroke-linecap="round" stroke-linejoin="round"/>
<path d="M73.6734 138.081C71.8024 138.544 69.8472 138.544 67.9762 138.081C65.5997 137.526 63.1272 137.526 60.7506 138.081C58.8796 138.544 56.9244 138.544 55.0534 138.081C52.6727 137.524 50.1956 137.524 47.8148 138.081C45.9438 138.544 43.9886 138.544 42.1176 138.081C39.7411 137.526 37.2686 137.526 34.8921 138.081C33.0211 138.544 31.0658 138.544 29.1948 138.081C28.0102 137.8 26.7964 137.66 25.5788 137.665H25.039C24.1583 140.266 23.8629 143.03 24.174 145.759L28.1933 180.75H74.6555L78.6812 145.759C78.9923 143.03 78.697 140.266 77.8163 137.665H77.27C76.0589 137.661 74.8517 137.801 73.6734 138.081Z" fill="#053CA7"/>
</g>
<g clip-path="url(#clip2_2374_173646)">
<path d="M156.769 91.2104L149.951 87.9316L153.731 88.2244C154.084 88.2644 154.441 88.2296 154.779 88.1222C155.117 88.0147 155.43 87.8371 155.696 87.6006C155.963 87.3641 156.177 87.074 156.326 86.7488C156.475 86.4237 156.555 86.0707 156.561 85.7126C156.509 82.024 156.625 78.2709 156.52 73.7158L148.032 76.4032L153.755 71.7602C154.563 71.1228 155.2 70.2897 155.605 69.3379C156.011 68.3861 156.172 67.3464 156.074 66.3151C155.372 59.6053 153.691 52.6555 149.742 46.4844L139.202 57.6381L145.284 44.9855C145.681 44.1444 145.797 43.1956 145.614 42.2821C145.431 41.3685 144.959 40.5399 144.269 39.921C142.799 38.5558 141.223 37.3125 139.555 36.2031C136.703 34.3119 134.181 32.5203 131.931 30.8458L126.852 35.1199L128.284 31.2264C128.547 30.4972 128.576 29.7033 128.368 28.9564C128.16 28.2096 127.725 27.5475 127.125 27.0635C117.697 19.3057 115.274 14.7681 115.274 14.7681C115.274 14.7681 111.98 24.3819 109.279 35.9806C109.091 36.8374 109.159 37.7311 109.474 38.549C109.788 39.367 110.336 40.0725 111.047 40.5767L117.396 45.2607L107.986 41.9936C107.847 42.6728 107.719 43.352 107.591 44.037C106.927 47.5984 106.847 51.2458 107.354 54.8335C107.457 55.5037 107.741 56.1321 108.176 56.6488C108.611 57.1656 109.179 57.5505 109.818 57.761L115.865 59.822H108.444C109.308 62.7136 110.507 65.4923 112.015 68.1009C112.394 68.7522 112.925 69.2999 113.562 69.6959C114.198 70.092 114.922 70.3243 115.668 70.3726L125.42 71.0928L115.303 73.0952C116.848 75.1385 118.533 77.0696 120.347 78.874C120.846 79.3629 121.457 79.718 122.127 79.9072C122.796 80.0964 123.502 80.1136 124.179 79.9572L129.397 78.7862L123.849 82.1586C126.267 84.3718 128.638 86.6025 130.922 88.804C131.575 89.4228 132.409 89.8111 133.298 89.9103C134.188 90.0096 135.086 89.8145 135.856 89.3544L138.216 87.9316L135.137 92.961C136.981 94.817 138.732 96.6379 140.356 98.3886C140.544 98.5896 140.777 98.7429 141.035 98.8359C141.293 98.9288 141.569 98.9588 141.841 98.9235C142.113 98.8881 142.373 98.7883 142.599 98.6322C142.826 98.4762 143.013 98.2683 143.144 98.0256L143.794 96.7199L143.144 101.474C146.791 105.625 149.522 109.244 150.78 111.896L151.94 113.892C154.108 109.525 155.72 104.735 157.639 99.6181C157.245 97.1942 156.961 94.4306 156.769 91.2104Z" fill="#DF3056"/>
<path d="M153.088 118.36H162.846C162.846 118.36 164.005 121.545 168 123.571C168 123.571 164.979 134.648 165.049 140C165.049 140 158.631 128.348 149.812 124.355C149.812 124.355 152.409 121.293 153.088 118.36Z" fill="#DF3056"/>
<path d="M152.247 85.9412L156.004 86.2515C156.756 86.298 157.495 86.042 158.06 85.5394C158.625 85.0368 158.97 84.3287 159.019 83.5699C159.251 79.6412 159.651 75.6423 159.889 70.7885L151.192 73.6516L157.309 68.7042C158.172 68.0116 158.866 67.1285 159.339 66.1227C159.811 65.1169 160.049 64.015 160.034 62.9019C159.837 55.753 158.677 48.3465 155.198 41.7714L143.782 53.6394L150.821 40.173C151.285 39.3186 151.473 38.3394 151.36 37.3718C151.246 36.4042 150.837 35.4964 150.189 34.7747C148.83 33.3249 147.345 32.0004 145.753 30.8167C143.046 28.7968 140.657 26.8939 138.535 25.1023L133.131 29.6341L134.871 25.4887C135.196 24.75 135.287 23.9279 135.133 23.1347C134.978 22.3415 134.585 21.6158 134.007 21.0565C125.159 12.7835 123.078 7.97656 123.078 7.97656C123.078 7.97656 119.06 18.2169 115.482 30.5767C115.217 31.4442 115.21 32.3714 115.462 33.2429C115.715 34.1143 116.216 34.8914 116.903 35.4773L122.898 40.4657L113.731 36.9527C113.546 37.6729 113.366 38.3989 113.186 39.1249C112.245 42.9092 111.887 46.8175 112.125 50.7119C112.159 51.3943 112.39 52.0519 112.788 52.6041C113.187 53.1563 113.736 53.5792 114.369 53.8209L120.26 55.9814H112.833C113.475 59.0279 114.466 61.9888 115.784 64.8048C116.096 65.4864 116.583 66.0709 117.195 66.4973C117.807 66.9237 118.521 67.1763 119.263 67.2287L128.968 67.9782L118.7 70.1152C120.084 72.2806 121.624 74.3394 123.31 76.2746C123.769 76.7975 124.362 77.1831 125.023 77.3896C125.685 77.596 126.389 77.6154 127.061 77.4456L132.354 76.1927L126.556 79.7876C128.806 82.1296 131.015 84.5184 133.126 86.8662C133.746 87.5242 134.574 87.9428 135.468 88.0497C136.361 88.1566 137.264 87.9451 138.019 87.4517L140.489 85.9412L137.01 91.2926C138.715 93.2774 140.327 95.2096 141.817 97.0773C142.006 97.2835 142.242 97.4406 142.505 97.5354C142.767 97.6302 143.049 97.6599 143.325 97.622C143.601 97.5841 143.864 97.4798 144.092 97.3177C144.32 97.1557 144.506 96.9407 144.634 96.6909L145.377 95.3032L144.374 100.362C147.707 104.788 150.171 108.647 151.221 111.486H161.077C159.779 106.457 158.665 100.456 158.828 89.4483L152.247 85.9412Z" fill="#FFC8D4"/>
<path d="M160.445 125.562L163.936 136.475" stroke="#0A4DD0" stroke-linecap="round" stroke-linejoin="round"/>
<path d="M123.379 11.7178L155.935 111.469" stroke="white" stroke-width="2" stroke-linecap="round" stroke-linejoin="round"/>
<path d="M162.84 118.36L161.06 111.469H151.238L153.082 118.36H162.84Z" fill="#4B72A6"/>
<path d="M161.44 128.028C162.339 127.704 162.629 126.202 162.089 124.673C161.548 123.144 160.381 122.168 159.483 122.492C158.584 122.816 158.294 124.318 158.834 125.847C159.375 127.375 160.541 128.352 161.44 128.028Z" fill="#0A4DD0"/>
<path d="M133.63 65.1442C133.739 65.1418 133.843 65.1014 133.926 65.0298C134.008 64.9583 134.063 64.8601 134.082 64.7519C134.093 64.6963 134.092 64.639 134.08 64.5837C134.068 64.5284 134.044 64.4763 134.011 64.4306C133.978 64.3849 133.935 64.3467 133.887 64.3184C133.838 64.29 133.784 64.2722 133.728 64.266L114.647 62.1348C114.769 62.4451 114.885 62.7554 115.013 63.0598L133.566 65.1384L133.63 65.1442Z" fill="#0A4DD0"/>
<path d="M125.698 47.5795C125.747 47.5971 125.798 47.607 125.849 47.6088C125.94 47.6068 126.029 47.5789 126.105 47.5281C126.181 47.4773 126.241 47.4058 126.278 47.3218C126.305 47.2693 126.32 47.2117 126.324 47.1527C126.327 47.0938 126.318 47.0348 126.297 46.9796C126.276 46.9244 126.244 46.8742 126.203 46.8323C126.162 46.7904 126.112 46.7577 126.058 46.7364L112.665 41.6016C112.612 41.9002 112.56 42.1871 112.514 42.4974L125.698 47.5795Z" fill="#0A4DD0"/>
<path d="M137.375 72.6327C137.492 72.6139 137.597 72.5518 137.67 72.4585C137.743 72.3653 137.778 72.2477 137.77 72.1292C137.764 72.0733 137.747 72.0192 137.72 71.9701C137.693 71.921 137.657 71.8779 137.613 71.8434C137.569 71.809 137.519 71.7838 137.465 71.7695C137.411 71.7553 137.355 71.7521 137.3 71.7603L121.524 74.1023C121.733 74.3658 121.947 74.6234 122.162 74.8869L137.375 72.6327Z" fill="#0A4DD0"/>
<path d="M130.25 53.8034C130.341 53.8009 130.43 53.7721 130.506 53.7202C130.582 53.6683 130.642 53.5956 130.679 53.5106C130.705 53.4573 130.72 53.399 130.723 53.3395C130.725 53.2799 130.715 53.2205 130.693 53.1652C130.671 53.1099 130.638 53.0599 130.595 53.0185C130.553 52.9771 130.502 52.9453 130.447 52.9251L112.12 46.2036C112.12 46.5198 112.091 46.8301 112.085 47.1463L130.105 53.7741C130.151 53.7927 130.2 53.8026 130.25 53.8034Z" fill="#0A4DD0"/>
<path d="M139.103 36.3671C139.157 36.395 139.217 36.4091 139.277 36.408C139.363 36.4082 139.447 36.3842 139.519 36.3387C139.592 36.2931 139.651 36.2279 139.689 36.1504L143.318 28.9664L142.634 28.4277L138.918 35.7874C138.89 35.8373 138.873 35.8924 138.867 35.9493C138.862 36.0062 138.868 36.0637 138.885 36.1181C138.903 36.1725 138.931 36.2227 138.968 36.2655C139.006 36.3084 139.052 36.3429 139.103 36.3671Z" fill="#0A4DD0"/>
<path d="M118.155 21.8996L123.373 27.7136C123.412 27.7558 123.458 27.7896 123.51 27.8127C123.562 27.8359 123.618 27.848 123.675 27.8483C123.791 27.8461 123.903 27.8002 123.988 27.7195C124.031 27.6819 124.067 27.636 124.093 27.5844C124.119 27.5328 124.135 27.4765 124.139 27.4189C124.143 27.3612 124.136 27.3033 124.118 27.2483C124.1 27.1934 124.072 27.1426 124.034 27.0989L118.463 20.9102C118.37 21.2322 118.26 21.5659 118.155 21.8996Z" fill="#0A4DD0"/>
<path d="M125.101 34.9034C125.228 34.9013 125.349 34.8487 125.437 34.757C125.519 34.6747 125.565 34.5631 125.565 34.4467C125.565 34.3303 125.519 34.2187 125.437 34.1364L116.851 25.9395L116.555 26.9055L124.84 34.8156C124.914 34.8755 125.007 34.9067 125.101 34.9034Z" fill="#0A4DD0"/>
<path d="M139.225 44.7693C139.28 44.7922 139.339 44.8041 139.399 44.8044C139.485 44.8046 139.568 44.7806 139.641 44.735C139.714 44.6895 139.773 44.6243 139.811 44.5468L146.461 31.3907L145.777 30.8579L139.039 44.2131C138.993 44.3119 138.986 44.4253 139.021 44.5291C139.055 44.633 139.129 44.7191 139.225 44.7693Z" fill="#0A4DD0"/>
<path d="M158.828 94.0913L152.85 89.864C152.753 89.8001 152.636 89.7767 152.522 89.7985C152.409 89.8203 152.308 89.8858 152.241 89.9811C152.206 90.0262 152.179 90.078 152.164 90.1336C152.148 90.1891 152.144 90.2472 152.151 90.3045C152.158 90.3617 152.176 90.417 152.205 90.4671C152.233 90.5171 152.271 90.5609 152.317 90.5958L158.857 95.2096C158.845 94.8524 158.839 94.4718 158.828 94.0913Z" fill="#0A4DD0"/>
<path d="M150.635 81.3159C150.519 81.3333 150.415 81.3943 150.341 81.4866C150.268 81.5789 150.232 81.6957 150.241 81.8136C150.25 81.9161 150.296 82.0115 150.372 82.0809C150.447 82.1503 150.545 82.1887 150.647 82.1883H150.716L159.187 80.8709C159.187 80.5782 159.234 80.2854 159.257 79.981L150.635 81.3159Z" fill="#0A4DD0"/>
<path d="M147.325 68.0195C147.282 68.0579 147.247 68.1044 147.222 68.1564C147.197 68.2084 147.183 68.2648 147.18 68.3225C147.176 68.3801 147.184 68.4379 147.203 68.4924C147.222 68.5469 147.252 68.5971 147.29 68.6401C147.328 68.6808 147.374 68.7132 147.424 68.7354C147.475 68.7575 147.53 68.7689 147.585 68.7689C147.705 68.766 147.819 68.7179 147.904 68.6342L159.628 57.3459C159.587 56.9946 159.547 56.6433 159.5 56.292L147.325 68.0195Z" fill="#0A4DD0"/>
<path d="M153.83 76.8777C153.717 76.9106 153.62 76.9844 153.558 77.0849C153.496 77.1854 153.473 77.3055 153.494 77.4222C153.514 77.5135 153.565 77.595 153.637 77.6526C153.71 77.7103 153.801 77.7406 153.894 77.7384C153.932 77.7444 153.971 77.7444 154.01 77.7384L159.576 76.1868C159.576 75.8882 159.616 75.6013 159.639 75.2734L153.83 76.8777Z" fill="#0A4DD0"/>
<path d="M148.919 57.9895C148.837 58.0718 148.792 58.1834 148.792 58.2998C148.792 58.4162 148.837 58.5278 148.919 58.6101C148.996 58.683 149.098 58.7229 149.203 58.7213C149.266 58.7216 149.328 58.7088 149.386 58.6836C149.444 58.6584 149.496 58.6214 149.539 58.575L158.19 49.5056C158.103 49.1953 158.01 48.8792 157.917 48.5688L148.919 57.9895Z" fill="#0A4DD0"/>
<path d="M144.408 90.4028C144.436 90.3524 144.453 90.2969 144.459 90.2396C144.464 90.1822 144.458 90.1244 144.441 90.0695C144.424 90.0146 144.395 89.9639 144.358 89.9206C144.32 89.8772 144.274 89.842 144.223 89.8173C144.115 89.7746 143.996 89.7744 143.889 89.8168C143.781 89.8591 143.693 89.9408 143.643 90.0456L140.796 95.7835L141.376 96.5095L144.408 90.4028Z" fill="#0A4DD0"/>
<path d="M141.347 77.6448C141.44 77.5747 141.503 77.4706 141.521 77.3547C141.539 77.2388 141.512 77.1202 141.445 77.0242C141.409 76.98 141.364 76.9436 141.314 76.917C141.264 76.8904 141.209 76.8742 141.152 76.8693C141.095 76.8644 141.038 76.8709 140.984 76.8884C140.93 76.906 140.88 76.9342 140.837 76.9715L131.16 84.7118C131.357 84.9167 131.543 85.1275 131.74 85.3382L141.347 77.6448Z" fill="#0A4DD0"/>
</g>
</g>
<defs>
<clipPath id="clip0_2374_173646">
<rect width="266" height="211" fill="white"/>
</clipPath>
<clipPath id="clip1_2374_173646">
<rect width="54.7544" height="66.1198" fill="white" transform="translate(24.0635 114.617)"/>
</clipPath>
<clipPath id="clip2_2374_173646">
<rect width="61" height="132" fill="white" transform="translate(107 8)"/>
</clipPath>
</defs>
</svg>
