<svg width="167" height="179" viewBox="0 0 167 179" fill="none" xmlns="http://www.w3.org/2000/svg">
<path d="M89.23 125.73C82.2063 125.732 75.3399 123.651 69.499 119.75C63.658 115.85 59.1051 110.304 56.4159 103.816C53.7267 97.3276 53.022 90.1874 54.3911 83.2985C55.7601 76.4095 59.1413 70.0813 64.1071 65.1142C69.0728 60.147 75.4001 56.764 82.2886 55.393C89.1772 54.0221 96.3176 54.7247 102.807 57.4121C109.296 60.0994 114.842 64.6508 118.745 70.4906C122.647 76.3305 124.73 83.1963 124.73 90.22C124.722 99.6337 120.98 108.66 114.324 115.317C107.669 121.974 98.6436 125.719 89.23 125.73ZM89.23 57.33C82.7221 57.328 76.3599 59.2561 70.9479 62.8705C65.536 66.4848 61.3176 71.623 58.8263 77.6351C56.3349 83.6472 55.6825 90.2631 56.9517 96.646C58.2208 103.029 61.3544 108.892 65.9562 113.494C70.5579 118.096 76.421 121.229 82.8039 122.498C89.1869 123.767 95.8028 123.115 101.815 120.624C107.827 118.132 112.965 113.914 116.579 108.502C120.194 103.09 122.122 96.7278 122.12 90.22C122.109 81.5003 118.641 73.1407 112.475 66.9749C106.309 60.8091 97.9497 57.3406 89.23 57.33Z" fill="white"/>
<path fill-rule="evenodd" clip-rule="evenodd" d="M89.2322 127.73H89.2305C81.8113 127.732 74.5581 125.534 68.3882 121.414C62.2183 117.293 57.409 111.436 54.5683 104.582C51.7276 97.7279 50.9833 90.1855 52.4294 82.9086C53.8756 75.6317 57.4472 68.9471 62.6927 63.7001C67.9381 58.4532 74.6217 54.8797 81.8983 53.4315C89.1748 51.9833 96.7173 52.7255 103.572 55.5642C110.427 58.403 116.286 63.2107 120.408 69.3794C124.53 75.5482 126.73 82.8008 126.73 90.22V90.2217C126.722 100.165 122.769 109.699 115.739 116.731C108.708 123.763 99.1756 127.719 89.2322 127.73ZM89.23 125.73C82.2063 125.732 75.3399 123.651 69.499 119.75C63.658 115.85 59.1051 110.304 56.4159 103.816C53.7267 97.3276 53.022 90.1874 54.3911 83.2984C55.7601 76.4095 59.1413 70.0813 64.1071 65.1142C69.0728 60.147 75.4001 56.764 82.2886 55.393C89.1772 54.0221 96.3176 54.7247 102.807 57.4121C109.296 60.0994 114.842 64.6508 118.745 70.4906C122.647 76.3304 124.73 83.1963 124.73 90.22C124.722 99.6337 120.98 108.66 114.324 115.317C107.669 121.974 98.6436 125.719 89.23 125.73ZM89.2285 59.33C83.1166 59.3283 77.1414 61.1392 72.0587 64.5337C66.9758 67.9283 63.0138 72.7541 60.6739 78.4007C58.334 84.0473 57.7213 90.2611 58.9133 96.256C60.1052 102.251 63.0484 107.758 67.3704 112.08C71.6924 116.402 77.1991 119.345 83.194 120.537C89.1889 121.729 95.4026 121.116 101.049 118.776C106.696 116.436 111.522 112.474 114.916 107.391C118.311 102.309 120.121 96.334 120.12 90.2224C120.11 82.0323 116.852 74.1804 111.061 68.3891C105.27 62.5981 97.4183 59.3402 89.2285 59.33ZM89.23 57.33C82.7221 57.328 76.3599 59.2561 70.9479 62.8705C65.536 66.4848 61.3176 71.623 58.8263 77.6351C56.3349 83.6472 55.6825 90.2631 56.9517 96.646C58.2208 103.029 61.3544 108.892 65.9562 113.494C70.5579 118.096 76.421 121.229 82.8039 122.498C89.1869 123.767 95.8028 123.115 101.815 120.624C107.827 118.132 112.965 113.914 116.579 108.502C120.194 103.09 122.122 96.7278 122.12 90.22C122.109 81.5003 118.641 73.1407 112.475 66.9749C106.309 60.8091 97.9497 57.3406 89.23 57.33Z" fill="white"/>
<path d="M89.2299 141.58C79.0714 141.582 69.1405 138.571 60.6931 132.929C52.2457 127.287 45.6612 119.266 41.7723 109.881C37.8835 100.497 36.8649 90.1697 38.8455 80.2062C40.8261 70.2427 45.7169 61.0902 52.8994 53.9064C60.0818 46.7226 69.2332 41.83 79.1964 39.8475C89.1595 37.8649 99.4868 38.8815 108.872 42.7685C118.258 46.6555 126.28 53.2384 131.923 61.6848C137.567 70.1311 140.58 80.0614 140.58 90.2199C140.567 103.836 135.153 116.89 125.526 126.519C115.899 136.147 102.846 141.564 89.2299 141.58ZM89.2299 41.4799C79.5872 41.4779 70.1605 44.3356 62.1421 49.6916C54.1236 55.0475 47.8737 62.6611 44.1827 71.5695C40.4917 80.4778 39.5254 90.2806 41.4061 99.7381C43.2868 109.196 47.93 117.883 54.7484 124.701C61.5668 131.52 70.2542 136.163 79.7117 138.044C89.1692 139.924 98.972 138.958 107.88 135.267C116.789 131.576 124.402 125.326 129.758 117.308C135.114 109.289 137.972 99.8626 137.97 90.2199C137.954 77.2981 132.814 64.9101 123.677 55.773C114.54 46.636 102.152 41.4958 89.2299 41.4799Z" fill="white"/>
<path fill-rule="evenodd" clip-rule="evenodd" d="M89.2322 143.58H89.2303C78.6762 143.582 68.3586 140.454 59.5822 134.592C50.8059 128.73 43.9649 120.397 39.9247 110.647C35.8844 100.897 34.8262 90.1677 36.8839 79.8162C38.9417 69.4647 44.0229 59.9559 51.485 52.4923C58.9471 45.0288 68.4549 39.9457 78.806 37.8859C89.1572 35.8262 99.8866 36.8823 109.637 40.9207C119.388 44.9591 127.723 51.7984 133.586 60.5736C139.45 69.3488 142.58 79.6658 142.58 90.2199V90.2218C142.566 104.367 136.942 117.93 126.94 127.933C116.939 137.936 103.378 143.563 89.2322 143.58ZM89.2299 141.58C79.0714 141.582 69.1405 138.571 60.6931 132.929C52.2457 127.287 45.6612 119.266 41.7723 109.881C37.8835 100.497 36.8649 90.1697 38.8455 80.2062C40.8261 70.2427 45.7169 61.0902 52.8994 53.9064C60.0818 46.7226 69.2332 41.83 79.1964 39.8475C89.1595 37.8649 99.4868 38.8815 108.872 42.7685C118.258 46.6555 126.28 53.2384 131.923 61.6848C137.567 70.1311 140.58 80.0614 140.58 90.2199C140.567 103.836 135.153 116.89 125.526 126.519C115.899 136.147 102.846 141.564 89.2299 141.58ZM89.2284 43.4799C79.9817 43.4782 70.9421 46.2187 63.253 51.3547C55.5635 56.4909 49.5699 63.7922 46.0304 72.335C42.4908 80.8778 41.5641 90.2785 43.3677 99.348C45.1713 108.418 49.624 116.748 56.1626 123.287C62.7013 129.826 71.0323 134.279 80.1018 136.082C89.1713 137.886 98.5719 136.959 107.115 133.419C115.658 129.88 122.959 123.886 128.095 116.197C133.231 108.508 135.971 99.4687 135.97 90.2223M89.2284 43.4799C101.62 43.4954 113.5 48.4249 122.263 57.1872C131.025 65.9494 135.954 77.8288 135.97 90.2203M89.2299 41.4799C79.5872 41.4779 70.1605 44.3356 62.1421 49.6916C54.1236 55.0475 47.8737 62.6611 44.1827 71.5695C40.4917 80.4778 39.5254 90.2806 41.4061 99.7381C43.2868 109.196 47.93 117.883 54.7484 124.701C61.5668 131.52 70.2542 136.163 79.7117 138.044C89.1692 139.924 98.972 138.958 107.88 135.267C116.789 131.576 124.402 125.326 129.758 117.308C135.114 109.289 137.972 99.8626 137.97 90.2199C137.954 77.2981 132.814 64.9101 123.677 55.773C114.54 46.636 102.152 41.4958 89.2299 41.4799Z" fill="white"/>
<path d="M89.2299 159.1C75.6142 159.102 62.3037 155.066 50.9817 147.503C39.6597 139.94 30.8348 129.19 25.6229 116.611C20.411 104.032 19.0464 90.1904 21.7014 76.8361C24.3565 63.4818 30.9121 51.2147 40.5391 41.5863C50.1662 31.9578 62.4323 25.4004 75.7862 22.7434C89.1401 20.0864 102.982 21.4491 115.562 26.6591C128.141 31.8692 138.893 40.6926 146.458 52.0135C154.022 63.3344 158.06 76.6443 158.06 90.26C158.041 108.51 150.784 126.007 137.88 138.913C124.976 151.819 107.48 159.079 89.2299 159.1ZM89.2299 24C76.13 23.998 63.3237 27.8809 52.4307 35.1576C41.5377 42.4342 33.0473 52.7779 28.0333 64.8802C23.0193 76.9826 21.7068 90.3 24.262 103.148C26.8172 115.997 33.1252 127.799 42.3882 137.062C51.6513 146.325 63.4532 152.633 76.3015 155.188C89.1498 157.743 102.467 156.431 114.57 151.417C126.672 146.403 137.016 137.912 144.292 127.019C151.569 116.126 155.452 103.32 155.45 90.22C155.429 72.6638 148.445 55.8328 136.031 43.4187C123.617 31.0046 106.786 24.0211 89.2299 24Z" fill="white"/>
<path fill-rule="evenodd" clip-rule="evenodd" d="M89.2322 161.1H89.2302C75.2189 161.102 61.5217 156.949 49.8708 149.166C38.2199 141.383 29.1385 130.321 23.7752 117.376C18.412 104.432 17.0076 90.1884 19.7398 76.4461C22.472 62.7038 29.2181 50.0803 39.1248 40.1721C49.0316 30.264 61.654 23.5161 75.3959 20.7819C89.1378 18.0477 103.382 19.4499 116.327 24.8113C129.272 30.1728 140.336 39.2525 148.12 50.9023C155.905 62.5521 160.06 76.2487 160.06 90.26V90.262C160.041 109.042 152.573 127.047 139.295 140.327C126.016 153.608 108.012 161.078 89.2322 161.1ZM89.2299 159.1C75.6142 159.102 62.3037 155.066 50.9817 147.503C39.6597 139.94 30.8348 129.19 25.6229 116.611C20.411 104.032 19.0464 90.1904 21.7014 76.8361C24.3565 63.4818 30.9121 51.2147 40.5391 41.5863C50.1662 31.9578 62.4323 25.4004 75.7862 22.7434C89.1401 20.0864 102.982 21.4491 115.562 26.6591C128.141 31.8692 138.893 40.6926 146.458 52.0135C154.022 63.3344 158.06 76.6443 158.06 90.26C158.041 108.51 150.784 126.007 137.88 138.913C124.976 151.819 107.48 159.079 89.2299 159.1ZM89.2286 26C76.5246 25.9982 64.1054 29.7639 53.5417 36.8206C42.9776 43.8776 34.7436 53.9088 29.881 65.6457C25.0184 77.3826 23.7456 90.2979 26.2236 102.758C28.7016 115.219 34.8191 126.664 43.8024 135.647C52.7858 144.631 64.2313 150.748 76.6916 153.226C89.1519 155.704 102.067 154.431 113.804 149.569C125.541 144.706 135.572 136.472 142.629 125.908C149.686 115.345 153.451 102.926 153.45 90.2224C153.429 73.1958 146.657 56.8725 134.617 44.8329C122.578 32.7936 106.255 26.0208 89.2286 26ZM89.2299 24C76.13 23.998 63.3237 27.8809 52.4307 35.1576C41.5377 42.4342 33.0473 52.7779 28.0333 64.8802C23.0193 76.9826 21.7068 90.3 24.262 103.148C26.8172 115.997 33.1252 127.799 42.3882 137.062C51.6513 146.325 63.4532 152.633 76.3015 155.188C89.1498 157.743 102.467 156.431 114.57 151.417C126.672 146.403 137.016 137.912 144.292 127.019C151.569 116.126 155.452 103.32 155.45 90.22C155.429 72.6638 148.445 55.8328 136.031 43.4187C123.617 31.0047 106.786 24.0211 89.2299 24Z" fill="white"/>
<path d="M89.23 177.45C71.9776 177.45 55.1125 172.334 40.7676 162.749C26.4227 153.164 15.2423 139.54 8.64002 123.601C2.03779 107.662 0.310352 90.123 3.67614 73.2021C7.04193 56.2811 15.3498 40.7382 27.5491 28.5389C39.7484 16.3395 55.2913 8.03167 72.2123 4.66588C89.1333 1.3001 106.672 3.02754 122.612 9.62978C138.551 16.232 152.174 27.4125 161.759 41.7574C171.344 56.1023 176.46 72.9673 176.46 90.2198C176.434 113.346 167.235 135.518 150.882 151.871C134.529 168.225 112.357 177.423 89.23 177.45ZM89.23 5.99979C72.5705 5.99979 56.2851 10.94 42.4333 20.1958C28.5815 29.4515 17.7856 42.6071 11.4107 57.9987C5.03582 73.3903 3.36838 90.3266 6.61923 106.666C9.87007 123.005 17.8932 138.014 29.674 149.793C41.4548 161.572 56.464 169.594 72.8037 172.843C89.1434 176.091 106.08 174.422 121.47 168.045C136.861 161.669 150.015 150.871 159.27 137.018C168.524 123.165 173.462 106.879 173.46 90.2198C173.434 67.8896 164.551 46.4818 148.76 30.693C132.969 14.9041 111.56 6.0236 89.23 5.99979Z" fill="white"/>
<path fill-rule="evenodd" clip-rule="evenodd" d="M89.2323 179.45H89.23C71.582 179.45 54.3303 174.217 39.6565 164.412C24.9827 154.607 13.5459 140.671 6.79226 124.367C0.0386572 108.062 -1.72839 90.1208 1.71457 72.8119C5.15753 55.503 13.6559 39.6037 26.1349 27.1246C38.6139 14.6456 54.5132 6.14727 71.8221 2.70432C89.1311 -0.738644 107.072 1.02841 123.377 7.78202C139.682 14.5356 153.617 25.9725 163.422 40.6463C173.227 55.32 178.46 72.5718 178.46 90.2198V90.2221C178.433 113.878 169.024 136.558 152.296 153.286C135.568 170.013 112.889 179.423 89.2323 179.45ZM89.23 177.45C112.357 177.423 134.529 168.225 150.882 151.871C167.235 135.518 176.434 113.346 176.46 90.2198C176.46 72.9673 171.344 56.1023 161.759 41.7574C152.174 27.4125 138.551 16.232 122.612 9.62978C106.672 3.02754 89.1333 1.3001 72.2123 4.66589C55.2913 8.03167 39.7484 16.3395 27.5491 28.5389C15.3498 40.7382 7.04193 56.2811 3.67614 73.2021C0.310353 90.123 2.03779 107.662 8.64002 123.601C15.2423 139.54 26.4227 153.164 40.7676 162.749C55.1125 172.334 71.9776 177.45 89.23 177.45ZM89.2288 7.99979C72.9653 8.00003 57.067 12.823 43.5445 21.8587C30.0216 30.8947 19.482 43.7378 13.2585 58.764C7.03497 73.7901 5.40712 90.3243 8.58078 106.276C11.7544 122.227 19.5871 136.879 31.0881 148.379C42.5891 159.878 57.242 167.709 73.1937 170.881C89.1454 174.053 105.679 172.423 120.705 166.198C135.73 159.972 148.572 149.431 157.607 135.907C166.641 122.384 171.462 106.485 171.46 90.2222C171.434 68.4217 162.762 47.5216 147.346 32.1073C131.93 16.6931 111.029 8.02327 89.2288 7.99979ZM89.23 5.99979C72.5705 5.99979 56.2851 10.94 42.4333 20.1958C28.5815 29.4515 17.7856 42.6071 11.4107 57.9987C5.03582 73.3903 3.36838 90.3266 6.61923 106.666C9.87007 123.005 17.8932 138.014 29.674 149.793C41.4548 161.572 56.464 169.594 72.8037 172.843C89.1434 176.091 106.08 174.422 121.47 168.045C136.861 161.669 150.015 150.871 159.27 137.018C168.524 123.165 173.462 106.879 173.46 90.2198C173.434 67.8896 164.551 46.4818 148.76 30.693C132.969 14.9041 111.56 6.02361 89.23 5.99979Z" fill="white"/>
<path d="M122.84 251.46H55.8398C55.2841 251.47 54.7382 251.313 54.2726 251.009C53.807 250.706 53.4431 250.27 53.2278 249.757C53.0125 249.245 52.9557 248.68 53.0648 248.135C53.1739 247.59 53.4438 247.09 53.8398 246.7L104.02 196.52H67.2298C66.6781 196.519 66.1389 196.356 65.6799 196.05C65.2209 195.744 64.8625 195.309 64.6498 194.8C64.4453 194.295 64.3942 193.741 64.5027 193.208C64.6112 192.674 64.8745 192.185 65.2598 191.8L96.3498 160.71H75.3498C74.7962 160.715 74.2537 160.555 73.7914 160.25C73.329 159.946 72.9676 159.511 72.7531 159.001C72.5387 158.49 72.4809 157.928 72.5872 157.384C72.6934 156.841 72.9589 156.342 73.3498 155.95L91.3498 137.95H80.3498V132.38H98.1098C98.6655 132.37 99.2113 132.527 99.6769 132.831C100.143 133.134 100.506 133.57 100.722 134.083C100.937 134.595 100.994 135.16 100.885 135.705C100.776 136.25 100.506 136.75 100.11 137.14L82.1098 155.14H103.11C103.663 155.135 104.206 155.295 104.668 155.599C105.131 155.904 105.492 156.339 105.706 156.849C105.921 157.359 105.979 157.922 105.872 158.465C105.766 159.008 105.501 159.508 105.11 159.9L74.0198 190.99H110.82C111.373 190.985 111.916 191.145 112.378 191.449C112.841 191.754 113.202 192.189 113.416 192.699C113.631 193.209 113.689 193.772 113.582 194.315C113.476 194.858 113.211 195.358 112.82 195.75L62.6398 245.93H122.88L122.84 251.46Z" fill="#1E39BE"/>
<path d="M94.4596 93.6661L83.9905 95.9717L132.449 316.009L142.918 313.703L94.4596 93.6661Z" fill="#516BEE"/>
<path d="M84.0145 93.6885L35.5557 313.726L46.0248 316.031L94.4836 95.9941L84.0145 93.6885Z" fill="#516BEE"/>
<path d="M103.06 102.364C109.756 94.7283 108.995 83.1093 101.359 76.4126C93.7227 69.716 82.1038 70.4775 75.4071 78.1136C68.7105 85.7497 69.472 97.3687 77.1081 104.065C84.7441 110.762 96.3631 110 103.06 102.364Z" fill="#516BEE"/>
</svg>
