<svg width="672" height="392" viewBox="0 0 672 392" fill="none" xmlns="http://www.w3.org/2000/svg">
<g clip-path="url(#clip0_2929_226663)">
<path d="M75.1003 401.019C75.1003 401.019 28.6989 350.195 22.9226 276.714C17.1463 203.232 36.5151 155.382 72.4886 127.854C159.62 61.1971 200.445 101.279 253.967 116.873C329.269 138.796 342.042 114.824 389.244 93.2339C436.446 71.6441 491.044 61.3782 540.372 95.6931C589.7 130.008 651.162 215.681 661.694 274.893C668.691 314.26 643.431 391.373 601.129 403.574C558.826 415.775 520.307 390.363 473.096 386.579C425.884 382.794 380.875 418.663 352.136 437.994C323.397 457.324 156.56 504.927 75.1003 401.019Z" fill="#DEE3FF"/>
<path d="M297.153 82.5038C297.153 82.5038 267.189 34.6333 305.301 7.61098C343.413 -19.4113 385.257 31.3865 374.913 68.3024C364.57 105.218 309.489 103.135 297.153 82.5038Z" fill="#DEE3FF"/>
<path d="M78.2256 84.6807C78.2256 84.6807 60.4593 71.2141 73.2732 53.3372C86.0872 35.4604 116.867 44.5952 111.948 66.1417C109.705 75.9723 97.1467 97.5075 78.2256 84.6807Z" fill="#DEE3FF"/>
<path d="M533.501 388.221C526.824 383.441 526.214 353.401 553.406 347.311C567.294 344.203 565.071 337.234 567.875 328.275C570.68 319.317 574.199 318.647 582.182 317.433C590.166 316.219 584.157 305.348 593.628 299.067C603.099 292.785 615.727 292.288 620.449 306.037C624.445 317.682 613.123 322.806 610.815 328.218C608.507 333.629 615.222 340.943 607 349.108C598.778 357.273 590.051 351.125 589.946 359.768C589.841 368.411 586.007 384.158 577.69 387.399C567.389 391.415 538.737 391.931 533.501 388.221Z" stroke="#7189FF" stroke-width="0.953191" stroke-miterlimit="10"/>
<path d="M542.734 391.646C546.406 387.258 550.212 382.984 553.893 378.605C563.043 367.731 571.971 356.663 580.676 345.4C586.996 337.248 593.202 329 599.294 320.657C599.847 319.911 598.598 319.194 598.064 319.94C587.833 333.962 577.252 347.733 566.321 361.252C559.518 369.672 552.596 377.993 545.557 386.215C544.289 387.688 542.972 389.141 541.742 390.633C541.16 391.33 542.162 392.353 542.753 391.646H542.734Z" fill="#7189FF"/>
<path d="M551.986 347.668C551.366 342.629 550.574 337.696 550.078 333.116C548.237 314.473 573.923 322.81 584.081 298.879C594.239 274.949 569.297 266.267 581.048 256.257C592.799 246.247 596.089 211.847 578.864 205.929C556.545 198.28 536.487 212.287 533.759 230.787C531.651 245.033 541.189 254.986 516.381 265.436C491.572 275.885 495.397 288.86 500.5 313.67C505.603 338.48 488.825 329.388 475.797 350.335C465.562 366.914 480.031 383.837 486.546 390.156L536.763 391.017" stroke="#7189FF" stroke-width="0.953191" stroke-miterlimit="10"/>
<path d="M496.736 390.159C498.77 385.436 500.815 380.716 502.869 375.999C507.924 364.386 512.995 352.776 518.082 341.169C524.567 326.382 531.091 311.604 537.653 296.836C544.012 282.565 550.437 268.316 556.93 254.09C561.508 244.146 566.058 234.155 571.074 224.451C571.456 223.705 571.847 222.96 572.238 222.223C572.629 221.487 571.446 220.684 571.008 221.497C566.239 230.474 561.994 239.768 557.721 249.003C551.321 262.847 545.064 276.73 538.846 290.688C532.207 305.571 525.613 320.477 519.064 335.404C513.704 347.597 508.366 359.807 503.05 372.032C500.56 377.768 497.937 383.419 495.601 389.193C495.601 389.27 495.534 389.356 495.496 389.432C495.133 390.274 496.364 391 496.736 390.159Z" fill="#7189FF"/>
<path d="M542.489 285.348L571.961 283.713L576.158 283.474C577.112 283.427 577.112 281.992 576.158 282.04L546.685 283.675L542.489 283.914C541.535 283.962 541.535 285.396 542.489 285.348Z" fill="#7189FF"/>
<path d="M508.483 362.209L531.775 359.59L535.037 359.217C535.943 359.121 535.991 357.678 535.037 357.783L511.755 360.383L508.493 360.747C507.539 360.852 507.539 362.286 508.493 362.181L508.483 362.209Z" fill="#7189FF"/>
<path d="M505.343 277.821L512.019 292.879L522.635 316.781L525.105 322.317C525.477 323.158 526.708 322.432 526.336 321.6L519.659 306.532L509.034 282.63L506.573 277.085C506.201 276.243 504.971 276.97 505.343 277.811V277.821Z" fill="#7189FF"/>
<path d="M553.91 226.687C552.27 229.106 549.399 230.024 547.51 228.733C545.622 227.443 545.421 224.44 547.072 222.041C548.722 219.641 551.583 218.694 553.471 219.985C555.36 221.276 555.56 224.259 553.91 226.687Z" stroke="#7189FF" stroke-width="0.953191" stroke-miterlimit="10"/>
<path d="M555.124 239.796C555.124 240.255 554.988 240.705 554.733 241.087C554.478 241.469 554.116 241.767 553.693 241.942C553.269 242.118 552.803 242.164 552.354 242.075C551.904 241.985 551.491 241.764 551.167 241.439C550.843 241.114 550.622 240.7 550.533 240.249C550.443 239.799 550.489 239.331 550.665 238.907C550.84 238.482 551.137 238.119 551.518 237.864C551.899 237.609 552.348 237.473 552.806 237.473C553.111 237.471 553.413 237.531 553.694 237.647C553.976 237.763 554.232 237.934 554.448 238.15C554.663 238.366 554.834 238.623 554.95 238.905C555.066 239.188 555.125 239.49 555.124 239.796Z" stroke="#7189FF" stroke-width="0.953191" stroke-miterlimit="10"/>
<path d="M571.91 299.632C571.912 300.525 571.65 301.398 571.156 302.142C570.662 302.885 569.96 303.465 569.138 303.808C568.315 304.151 567.41 304.242 566.536 304.069C565.662 303.896 564.859 303.467 564.228 302.836C563.598 302.205 563.168 301.401 562.993 300.526C562.819 299.65 562.908 298.742 563.248 297.917C563.588 297.092 564.166 296.386 564.906 295.89C565.647 295.394 566.517 295.129 567.408 295.129C568.601 295.129 569.744 295.603 570.588 296.447C571.432 297.291 571.908 298.437 571.91 299.632Z" stroke="#7189FF" stroke-width="0.953191" stroke-miterlimit="10"/>
<path d="M105.263 390.101C99.9214 391.506 75.7427 395.531 76.1338 376.228C76.3341 366.371 73.4631 366.725 67.7022 362.843C61.9413 358.961 62.0462 356.561 62.5803 351.016C63.1145 345.471 57.6015 348.148 53.9962 340.91C49.6278 332.239 54.8927 325.766 63.3815 324.208C71.8703 322.649 71.6319 331.856 75.0083 334.562C78.3847 337.268 83.0488 331.416 89.5346 339.4C93.7694 344.61 87.1978 356.494 93.4261 355.385" stroke="#7189FF" stroke-width="0.953191" stroke-miterlimit="10"/>
<path d="M94.1103 372.925C85.8441 361.682 77.1041 350.789 67.8905 340.247C67.2896 339.549 66.2786 340.562 66.8795 341.26C75.9596 351.707 84.6232 362.501 92.8704 373.642C93.414 374.379 94.654 373.642 94.1103 372.925Z" fill="#7189FF"/>
<path d="M80.0459 339.721L79.0921 353.508L78.9681 355.42L79.6835 354.703L67.0648 355.754C66.1587 355.831 66.111 357.265 67.0648 357.189L79.6835 356.137C79.8717 356.132 80.0508 356.055 80.184 355.921C80.3171 355.788 80.394 355.608 80.3988 355.42L81.3526 341.643L81.4862 339.73C81.5434 338.774 80.1127 338.822 80.0555 339.73L80.0459 339.721Z" fill="#7189FF"/>
<path d="M67.5098 275.951C57.018 267.346 54.4523 240.748 69.4651 232.669C88.045 222.688 107.483 238.138 109.935 254.028C111.842 266.285 103.258 274.842 125.52 283.829C147.781 292.816 144.338 303.973 139.769 325.304C135.201 346.634 150.261 338.823 161.916 356.854C171.178 371.129 158.168 385.68 152.378 391.111L106.873 390.872C105.395 390.002 103.986 389.021 102.657 387.936C87.9592 375.89 93.7964 356.864 95.3225 342.045C96.9725 326.011 73.9765 333.182 64.801 312.607C55.6255 292.032 78.0588 284.555 67.5098 275.951Z" stroke="#7189FF" stroke-width="0.953191" stroke-miterlimit="10"/>
<path d="M144.361 390.414C142.53 386.36 140.695 382.303 138.857 378.243C134.33 368.248 129.784 358.264 125.218 348.289C119.4 335.541 113.547 322.838 107.659 310.179C101.974 297.929 96.2259 285.707 90.4142 273.514C86.2938 264.909 82.1924 256.304 77.6905 247.91C77.3376 247.269 76.9942 246.619 76.6318 245.998C76.1835 245.195 74.9531 245.921 75.4014 246.724C79.6935 254.43 83.4896 262.442 87.3239 270.387C93.0466 282.287 98.6867 294.235 104.244 306.231C110.209 319.023 116.122 331.838 121.985 344.675C126.786 355.153 131.555 365.635 136.292 376.12L140.889 386.197C141.595 387.765 142.196 389.457 143.035 390.978C143.071 391.046 143.103 391.116 143.13 391.188C143.512 392.029 144.742 391.303 144.361 390.461V390.414Z" fill="#7189FF"/>
<path d="M102.105 299.632L75.6847 298.236L71.9458 298.035C70.992 298.035 70.992 299.421 71.9458 299.469L98.4041 300.875L102.105 301.104C103.059 301.152 103.059 299.718 102.105 299.67V299.632Z" fill="#7189FF"/>
<path d="M132.629 365.74L102.833 362.518L98.6646 362.068C97.7108 361.963 97.7108 363.397 98.6646 363.502L128.471 366.715L132.629 367.174C133.583 367.269 133.535 365.835 132.629 365.74Z" fill="#7189FF"/>
<path d="M134.297 293.819L128.288 306.774L118.75 327.32L116.537 332.101C116.156 332.933 117.386 333.659 117.777 332.827L123.786 319.873L133.324 299.317L135.537 294.536C135.928 293.705 134.688 292.978 134.307 293.819H134.297Z" fill="#7189FF"/>
<path d="M91.893 250.52C93.3714 252.604 95.9466 253.388 97.6157 252.288C99.2849 251.189 99.5233 248.588 98.0068 246.504C96.4903 244.42 93.9627 243.636 92.284 244.735C90.6053 245.835 90.4241 248.435 91.893 250.52Z" stroke="#7189FF" stroke-width="0.953191" stroke-miterlimit="10"/>
<path d="M90.8143 261.792C90.7971 262.207 90.9044 262.618 91.1222 262.972C91.34 263.326 91.6584 263.606 92.0366 263.777C92.4147 263.948 92.8352 264.002 93.244 263.932C93.6528 263.861 94.0313 263.67 94.3307 263.382C94.6302 263.094 94.8369 262.723 94.9243 262.317C95.0118 261.91 94.9759 261.487 94.8214 261.101C94.6668 260.715 94.4007 260.385 94.0572 260.151C93.7136 259.918 93.3084 259.794 92.8935 259.793C92.3538 259.783 91.832 259.988 91.4423 260.362C91.0526 260.737 90.8268 261.251 90.8143 261.792Z" stroke="#7189FF" stroke-width="0.953191" stroke-miterlimit="10"/>
<path d="M75.7611 313.258C75.7287 314.064 75.9376 314.861 76.3608 315.547C76.784 316.233 77.4022 316.777 78.136 317.108C78.8698 317.439 79.6856 317.543 80.4786 317.405C81.2716 317.268 82.0056 316.896 82.5861 316.338C83.1667 315.779 83.5674 315.059 83.7367 314.271C83.9059 313.482 83.8361 312.661 83.536 311.912C83.236 311.164 82.7196 310.522 82.053 310.07C81.3865 309.618 80.6004 309.377 79.7956 309.376C79.2763 309.365 78.7597 309.456 78.2757 309.645C77.7916 309.834 77.3495 310.117 76.9747 310.478C76.5999 310.838 76.2998 311.269 76.0916 311.746C75.8833 312.223 75.771 312.737 75.7611 313.258Z" stroke="#7189FF" stroke-width="0.953191" stroke-miterlimit="10"/>
<path d="M17.3954 391.348H637.181C645.555 391.348 653.939 391.463 662.304 391.348H663.401C663.717 391.348 664.02 391.222 664.244 390.998C664.468 390.774 664.593 390.47 664.593 390.153C664.593 389.836 664.468 389.532 664.244 389.308C664.02 389.083 663.717 388.958 663.401 388.958H43.6247C35.2504 388.958 26.8666 388.833 18.4922 388.958H17.3954C17.0792 388.958 16.7759 389.083 16.5523 389.308C16.3287 389.532 16.2031 389.836 16.2031 390.153C16.2031 390.47 16.3287 390.774 16.5523 390.998C16.7759 391.222 17.0792 391.348 17.3954 391.348Z" fill="#0F110E"/>
</g>
<g clip-path="url(#clip1_2929_226663)">
<path d="M393.38 344.121H158.659C155.721 344.122 152.813 344.703 150.1 345.83C147.386 346.957 144.921 348.609 142.845 350.691C140.769 352.772 139.123 355.243 138.001 357.962C136.879 360.681 136.302 363.595 136.305 366.537C136.305 372.475 138.66 378.17 142.852 382.369C147.044 386.568 152.73 388.926 158.659 388.926H393.38V344.121Z" fill="#0A4DD0"/>
<path d="M238.185 380.534C269.066 380.534 294.101 374.256 294.101 366.511C294.101 358.767 269.066 352.488 238.185 352.488C207.304 352.488 182.27 358.767 182.27 366.511C182.27 374.256 207.304 380.534 238.185 380.534Z" fill="#F2718D"/>
<path d="M238.186 378.018C267.366 378.018 291.02 372.867 291.02 366.513C291.02 360.159 267.366 355.008 238.186 355.008C209.006 355.008 185.352 360.159 185.352 366.513C185.352 372.867 209.006 378.018 238.186 378.018Z" fill="#0A4DD0"/>
<path d="M149.939 361.496L140.215 366.514L149.939 371.541L159.662 366.514L149.939 361.496Z" fill="#F2718D"/>
<path d="M170.975 361.496L161.242 366.514L170.975 371.541L180.69 366.514L170.975 361.496Z" fill="#F2718D"/>
<path d="M306.392 361.496L296.668 366.514L306.392 371.541L316.115 366.514L306.392 361.496Z" fill="#F2718D"/>
<path d="M327.427 361.496L317.703 366.514L327.427 371.541L337.15 366.514L327.427 361.496Z" fill="#F2718D"/>
<path d="M146.578 385.352C150.176 387.676 154.368 388.908 158.65 388.901H393.38V385.352H146.578Z" fill="#0A4DD0"/>
<path d="M146.578 347.679H393.38V344.121H158.659C154.373 344.115 150.178 345.351 146.578 347.679Z" fill="#0A4DD0"/>
<path d="M480.633 385.359V347.671H499.295V344.121H362.377C359.44 344.122 356.532 344.703 353.818 345.83C351.105 346.957 348.64 348.609 346.564 350.691C344.488 352.772 342.842 355.243 341.72 357.962C340.598 360.681 340.021 363.595 340.023 366.537C340.023 372.475 342.379 378.17 346.571 382.369C350.763 386.568 356.449 388.926 362.377 388.926H499.295V385.386L480.633 385.359Z" fill="#F2718D"/>
<path d="M253.188 165.767C261.427 159.734 269.824 154.139 278.378 148.981C281.119 143.776 283.787 138.4 286.382 132.851C289.35 126.487 292.082 120.175 294.579 113.915C286.432 114.737 278.285 115.83 270.139 117.193C278.949 114.005 287.77 111.187 296.604 108.739C300.207 99.3763 303.339 89.8379 305.987 80.1602C300.267 80.4108 294.523 80.7897 288.757 81.2967C294.919 79.082 301.096 77.0421 307.288 75.177C310.779 60.9879 312.787 47.437 312.525 35.25C289.429 36.439 260.432 50.6193 237.459 77.4151C238.25 87.5564 239.431 97.5316 241.002 107.341C237.988 99.484 235.204 91.4701 232.649 83.2988C222.174 96.7731 214.006 111.897 208.48 128.052C209.841 134.241 211.34 140.361 212.975 146.411C210.647 142.879 208.363 139.3 206.123 135.675C195.963 171.703 202.029 204.802 216.667 222.339C237.747 211.175 256.897 187.116 273.543 157.96C266.711 160.332 259.926 162.934 253.188 165.767Z" fill="#F2718D"/>
<path d="M307.133 41C253.418 99.8525 220.072 174.479 212.043 253.81" stroke="#0A4DD0" stroke-width="1.90638" stroke-linecap="round" stroke-linejoin="round"/>
<path d="M298.709 61.5833C298.549 61.6172 298.408 61.7114 298.315 61.8465C298.222 61.9816 298.185 62.1471 298.211 62.3089C298.237 62.4446 298.311 62.566 298.421 62.6499C298.492 62.7034 298.575 62.7405 298.662 62.7586C298.75 62.7768 298.84 62.7754 298.927 62.7548C302.75 61.8806 306.57 61.0704 310.388 60.3244C310.457 59.9048 310.519 59.4939 310.588 59.0742C306.637 59.8436 302.677 60.6799 298.709 61.5833Z" fill="#0A4DD0"/>
<path d="M303.101 64.9749C302.942 65.0066 302.803 65.0998 302.713 65.2341C302.623 65.3684 302.59 65.533 302.621 65.6918C302.646 65.8274 302.721 65.9488 302.83 66.0327C302.9 66.0866 302.981 66.124 303.067 66.1422C303.153 66.1603 303.242 66.1588 303.328 66.1376C305.405 65.683 307.482 65.2634 309.56 64.8175C309.638 64.3979 309.726 63.9433 309.804 63.5586C307.57 64.0074 305.335 64.4795 303.101 64.9749Z" fill="#0A4DD0"/>
<path d="M241.972 188.943C241.902 188.988 241.842 189.047 241.795 189.115C241.748 189.184 241.716 189.262 241.7 189.343C241.683 189.425 241.683 189.509 241.7 189.59C241.717 189.672 241.75 189.749 241.797 189.817C241.839 189.885 241.894 189.943 241.958 189.989C242.023 190.034 242.096 190.067 242.173 190.084C242.25 190.101 242.33 190.102 242.408 190.088C242.486 190.074 242.56 190.044 242.626 190.001C248.445 186.172 254.323 182.561 260.258 179.169L261.759 176.957C255.102 180.67 248.506 184.665 241.972 188.943Z" fill="#0A4DD0"/>
<path d="M288.664 54.8749C288.665 54.9557 288.682 55.0355 288.715 55.1092C288.748 55.1829 288.796 55.249 288.856 55.3033C288.973 55.3865 289.115 55.4267 289.258 55.4169C289.424 55.404 289.579 55.3297 289.694 55.2086C289.808 55.0874 289.874 54.928 289.877 54.7612C289.941 49.813 290.104 44.8327 290.366 39.8203L289.092 40.2749C288.853 45.1824 288.711 50.049 288.664 54.8749Z" fill="#0A4DD0"/>
<path d="M232.574 188.075C232.657 188.1 232.745 188.107 232.831 188.095C232.917 188.083 232.999 188.052 233.072 188.005C244.282 180.383 255.941 173.446 267.986 167.233L269.165 165.301C256.476 171.742 244.206 178.978 232.426 186.965C232.289 187.059 232.193 187.203 232.161 187.366C232.128 187.53 232.161 187.699 232.251 187.839C232.327 187.954 232.442 188.037 232.574 188.075Z" fill="#0A4DD0"/>
<path d="M274.415 95.3796C274.455 95.5135 274.542 95.6284 274.66 95.7031C274.735 95.7483 274.82 95.7764 274.907 95.7855C274.994 95.7945 275.083 95.7843 275.166 95.7555C284.738 92.5033 294.322 89.6795 303.918 87.284C304.049 86.8469 304.18 86.4098 304.302 85.9727C294.485 88.4031 284.657 91.2793 274.817 94.6015C274.663 94.6554 274.536 94.766 274.462 94.9107C274.387 95.0553 274.371 95.2231 274.415 95.3796Z" fill="#0A4DD0"/>
<path d="M247.328 146.341C247.355 146.406 247.396 146.466 247.447 146.515C247.498 146.565 247.558 146.604 247.624 146.63C247.703 146.668 247.79 146.688 247.878 146.688C247.965 146.688 248.052 146.668 248.131 146.63C261.083 139.907 274.447 134.011 288.143 128.978C288.37 128.48 288.588 127.982 288.806 127.492C274.698 132.608 260.936 138.636 247.607 145.537C247.467 145.61 247.36 145.734 247.308 145.883C247.256 146.033 247.263 146.197 247.328 146.341Z" fill="#0A4DD0"/>
<path d="M264.953 111.057C265.003 111.189 265.095 111.299 265.215 111.372C265.296 111.407 265.384 111.425 265.472 111.425C265.561 111.425 265.648 111.407 265.73 111.372C276.877 106.974 288.239 103.143 299.771 99.8932C299.929 99.4473 300.086 99.019 300.234 98.5469C288.404 101.844 276.751 105.745 265.32 110.236C265.24 110.264 265.168 110.308 265.106 110.365C265.044 110.422 264.994 110.491 264.96 110.568C264.926 110.645 264.908 110.728 264.906 110.812C264.905 110.896 264.921 110.98 264.953 111.057Z" fill="#0A4DD0"/>
<path d="M242.191 158.799C242.256 158.926 242.364 159.026 242.496 159.079C242.576 159.115 242.662 159.134 242.75 159.134C242.837 159.134 242.923 159.115 243.003 159.079C255.927 151.775 269.31 145.315 283.067 139.741C283.329 139.225 283.573 138.7 283.826 138.176C269.604 143.856 255.777 150.48 242.435 158.004C242.303 158.083 242.205 158.207 242.16 158.354C242.115 158.501 242.126 158.66 242.191 158.799Z" fill="#0A4DD0"/>
<path d="M213.38 189.827C213.444 189.855 213.514 189.869 213.585 189.869C213.655 189.869 213.725 189.855 213.79 189.827C213.94 189.745 214.055 189.611 214.113 189.45C214.171 189.289 214.168 189.112 214.104 188.953C209.635 177.797 205.649 166.292 202.146 154.438C202.006 155.46 201.875 156.475 201.762 157.489C205.09 168.452 208.838 179.12 213.004 189.495C213.036 189.576 213.087 189.649 213.152 189.706C213.217 189.764 213.295 189.805 213.38 189.827Z" fill="#0A4DD0"/>
<path d="M228.337 115.198C228.352 115.287 228.387 115.372 228.44 115.445C228.493 115.517 228.562 115.577 228.643 115.618C228.775 115.667 228.92 115.667 229.053 115.618C229.216 115.564 229.354 115.453 229.442 115.305C229.53 115.158 229.563 114.983 229.533 114.814C228.165 107.406 227.002 99.8989 226.041 92.293C225.684 92.835 225.326 93.377 224.977 93.9191C225.913 101.111 227.034 108.204 228.337 115.198Z" fill="#0A4DD0"/>
<path d="M209.666 158.04C209.826 157.967 209.954 157.837 210.025 157.676C210.095 157.515 210.104 157.333 210.05 157.165C208.264 151.285 206.599 145.319 205.057 139.27C204.839 140.144 204.647 141.018 204.438 141.892C205.822 147.208 207.312 152.453 208.907 157.629C208.929 157.715 208.973 157.795 209.034 157.861C209.095 157.926 209.171 157.976 209.256 158.005C209.318 158.038 209.387 158.059 209.457 158.065C209.528 158.071 209.599 158.062 209.666 158.04Z" fill="#0A4DD0"/>
<path d="M276.765 67.4349C276.768 67.5236 276.79 67.6106 276.831 67.6894C276.872 67.7682 276.93 67.8366 277.001 67.8895C277.12 67.966 277.262 67.9998 277.402 67.9857C277.569 67.9681 277.723 67.888 277.833 67.7616C277.943 67.6351 278.001 67.4715 277.996 67.3038C277.757 59.9834 277.757 52.5931 277.996 45.1328L276.722 45.7885C276.506 53.0681 276.521 60.2836 276.765 67.4349Z" fill="#0A4DD0"/>
<path d="M227.537 160.645C227.692 160.582 227.817 160.464 227.888 160.313C227.959 160.163 227.971 159.991 227.922 159.832C222.782 143.55 218.744 126.939 215.832 110.113C215.518 110.751 215.204 111.398 214.898 112.037C217.81 128.358 221.778 144.472 226.778 160.278C226.805 160.362 226.85 160.44 226.911 160.505C226.971 160.57 227.045 160.621 227.127 160.654C227.26 160.703 227.407 160.7 227.537 160.645Z" fill="#0A4DD0"/>
<path d="M231.508 149.332C231.641 149.381 231.786 149.381 231.918 149.332C232.074 149.273 232.201 149.158 232.276 149.009C232.35 148.86 232.366 148.688 232.32 148.528C227.729 132.266 224.23 115.714 221.845 98.9844C221.496 99.5614 221.165 100.147 220.824 100.733C223.224 117.008 226.673 133.11 231.15 148.939C231.176 149.028 231.221 149.109 231.283 149.177C231.346 149.246 231.422 149.299 231.508 149.332Z" fill="#0A4DD0"/>
<path d="M249.139 112.848C246.649 98.6957 244.988 84.4094 244.164 70.0625L242.977 71.2865C243.838 85.3225 245.496 99.2981 247.943 113.146C247.959 113.232 247.993 113.314 248.045 113.385C248.096 113.456 248.163 113.515 248.24 113.556C248.366 113.623 248.512 113.641 248.65 113.609C248.811 113.566 248.951 113.464 249.041 113.323C249.131 113.182 249.166 113.013 249.139 112.848Z" fill="#0A4DD0"/>
<path d="M253.809 104.415C251.822 91.1735 250.56 77.8329 250.03 64.4531L248.816 65.5722C249.381 78.6685 250.646 91.7252 252.605 104.686C252.62 104.773 252.653 104.855 252.703 104.927C252.753 105 252.817 105.061 252.893 105.106C253.019 105.172 253.164 105.191 253.303 105.158C253.465 105.12 253.607 105.023 253.701 104.886C253.794 104.748 253.833 104.58 253.809 104.415Z" fill="#0A4DD0"/>
<path d="M263.785 83.0608C263.79 83.1494 263.817 83.2354 263.862 83.3115C263.908 83.3876 263.971 83.4516 264.047 83.4979C264.166 83.5733 264.309 83.6013 264.448 83.5766C264.613 83.5469 264.761 83.4573 264.864 83.3251C264.967 83.1928 265.018 83.0271 265.007 82.8597C264.195 73.243 263.767 63.4776 263.741 53.5898L262.484 54.4641C262.548 64.1158 262.982 73.648 263.785 83.0608Z" fill="#0A4DD0"/>
<path d="M250.45 236.955C251.318 236.102 252.077 235.145 252.711 234.105C253.144 233.394 253.38 232.58 253.395 231.748C253.41 230.915 253.202 230.094 252.794 229.368C252.385 228.643 251.791 228.04 251.072 227.621C250.353 227.203 249.536 226.984 248.704 226.988H187.054C186.222 226.984 185.405 227.203 184.686 227.621C183.967 228.04 183.373 228.643 182.964 229.368C182.556 230.094 182.348 230.915 182.363 231.748C182.377 232.58 182.614 233.394 183.047 234.105C183.681 235.145 184.44 236.102 185.308 236.955L172.835 284.007C172.339 285.879 172.281 287.84 172.663 289.738C173.045 291.637 173.859 293.422 175.04 294.955C176.222 296.488 177.739 297.728 179.476 298.58C181.212 299.431 183.121 299.871 185.055 299.866H250.764C252.698 299.871 254.607 299.431 256.343 298.58C258.08 297.728 259.597 296.488 260.779 294.955C261.96 293.422 262.774 291.637 263.156 289.738C263.538 287.84 263.48 285.879 262.984 284.007L250.45 236.955Z" fill="#0A4DD0"/>
<path d="M190.055 236.988H245.691" stroke="#FFC8D4" stroke-width="0.981787" stroke-linecap="round" stroke-linejoin="round"/>
<path d="M231.578 246.358L230.993 246.594C229.953 246.988 228.804 246.988 227.764 246.594L227.144 246.358C226.106 245.965 224.961 245.965 223.923 246.358L223.321 246.594C222.28 246.988 221.132 246.988 220.091 246.594L219.489 246.358C218.448 245.965 217.3 245.965 216.259 246.358L215.657 246.594C214.616 246.988 213.468 246.988 212.427 246.594L211.825 246.358C210.788 245.965 209.642 245.965 208.604 246.358L207.985 246.594C206.944 246.988 205.796 246.988 204.755 246.594L204.17 246.358C203.129 245.965 201.981 245.965 200.941 246.358C200.294 246.57 199.718 246.956 199.276 247.474C198.834 247.992 198.543 248.623 198.435 249.296L195.311 281.101C195.209 281.94 195.372 282.791 195.778 283.532C196.183 284.274 196.811 284.87 197.571 285.236C198.177 285.517 198.837 285.663 199.505 285.663C200.172 285.663 200.832 285.517 201.438 285.236L202.189 284.904C202.793 284.623 203.451 284.477 204.118 284.477C204.784 284.477 205.442 284.623 206.047 284.904L206.754 285.236C207.36 285.517 208.02 285.662 208.687 285.662C209.355 285.662 210.015 285.517 210.621 285.236L211.354 284.904C211.96 284.623 212.62 284.478 213.287 284.478C213.955 284.478 214.615 284.623 215.221 284.904L215.936 285.236C216.542 285.517 217.202 285.662 217.87 285.662C218.537 285.662 219.197 285.517 219.803 285.236L220.528 284.904C221.134 284.623 221.793 284.478 222.461 284.478C223.129 284.478 223.788 284.623 224.394 284.904L225.128 285.236C225.734 285.517 226.393 285.662 227.061 285.662C227.729 285.662 228.388 285.517 228.994 285.236L229.701 284.904C230.306 284.623 230.964 284.477 231.63 284.477C232.297 284.477 232.955 284.623 233.559 284.904L234.31 285.236C234.916 285.517 235.576 285.663 236.244 285.663C236.911 285.663 237.571 285.517 238.177 285.236C238.93 284.872 239.552 284.283 239.957 283.55C240.362 282.818 240.53 281.977 240.438 281.145L237.356 249.296C237.249 248.621 236.957 247.99 236.514 247.471C236.07 246.953 235.492 246.568 234.843 246.358C233.792 245.954 232.629 245.954 231.578 246.358Z" fill="white"/>
<path d="M200.406 251.254H235.338" stroke="#FFC8D4" stroke-width="0.981787" stroke-linecap="round" stroke-linejoin="round"/>
<path d="M197.664 279.035H238.078" stroke="#FFC8D4" stroke-width="0.981787" stroke-linecap="round" stroke-linejoin="round"/>
<path d="M369.37 281.495C372.303 291.619 380.351 299.854 393.165 299.854H265.727C250.015 299.854 241.461 287.431 240.737 274.361C240.012 261.291 246.192 249.742 260.646 249.742H388.084C378.221 249.742 372.207 255.119 369.623 262.69C368.397 266.451 367.905 270.414 368.174 274.361C368.303 276.777 368.704 279.17 369.37 281.495Z" fill="#FFC8D4"/>
<path d="M393.601 281.495H369.37C368.702 279.175 368.298 276.788 368.165 274.378C367.896 270.431 368.388 266.468 369.614 262.707H383.318C379.582 273.146 385.745 281.311 393.601 281.495Z" fill="#0A4DD0"/>
<path d="M388.082 249.758C408.429 249.758 410.366 276.964 397.614 280.925C396.561 281.255 395.469 281.446 394.367 281.493H393.599C385.673 281.309 379.554 273.144 383.29 262.705H369.621C372.205 255.134 378.219 249.758 388.082 249.758Z" fill="#E4AFBB"/>
<path d="M526.097 115.731C526.83 128.792 520.641 140.35 506.187 140.35C496.629 140.35 491.13 134.335 489.314 127.551L510.953 127.402C514.732 116.85 508.43 108.615 500.382 108.606H478.727C484.182 98.5607 491.531 90.9722 501.107 90.2466C516.722 89.0401 525.399 102.661 526.097 115.731Z" fill="#FFC8D4"/>
<path d="M500.384 108.633C508.432 108.633 514.734 116.877 510.954 127.429L489.316 127.578C487.265 119.937 489.901 111.308 496.657 109.219C497.86 108.839 499.114 108.645 500.375 108.642L500.384 108.633Z" fill="#0A4DD0"/>
<path d="M489.314 127.554C491.129 134.339 496.628 140.353 506.186 140.353H467.789L468.025 139.278C470.163 129.259 473.62 117.894 478.7 108.609H500.347C499.085 108.612 497.832 108.807 496.628 109.186C489.899 111.258 487.263 119.913 489.314 127.554Z" fill="#E4AFBB"/>
<path d="M394.367 281.493C395.47 281.446 396.561 281.255 397.614 280.925C410.367 276.965 408.429 249.758 388.083 249.758H313.828C324.957 219.159 332.219 178.437 340.581 139.279C344.946 119.066 354.617 93.2848 372.004 90.4435C372.891 90.3049 373.787 90.2406 374.684 90.2511H501.11C491.508 90.9767 484.185 98.5652 478.729 108.61C473.649 117.895 470.193 129.26 468.054 139.279L467.819 140.354C451.4 217.358 439.119 299.87 393.163 299.87C380.349 299.87 372.301 291.617 369.368 281.511H393.599C393.855 281.524 394.112 281.518 394.367 281.493Z" fill="white"/>
<path d="M381.703 108.609H438.195" stroke="#7189FF" stroke-width="1.85872" stroke-linecap="round" stroke-linejoin="round"/>
<path d="M367.664 121.637H445.855" stroke="#7189FF" stroke-width="1.85872" stroke-linecap="round" stroke-linejoin="round"/>
<path d="M352.188 134.66H454.958" stroke="#7189FF" stroke-width="1.85872" stroke-linecap="round" stroke-linejoin="round"/>
<path d="M349.004 147.691H451.775" stroke="#7189FF" stroke-width="1.85872" stroke-linecap="round" stroke-linejoin="round"/>
<path d="M345.82 160.711H448.591" stroke="#7189FF" stroke-width="1.85872" stroke-linecap="round" stroke-linejoin="round"/>
<path d="M342.633 173.742H445.404" stroke="#7189FF" stroke-width="1.85872" stroke-linecap="round" stroke-linejoin="round"/>
<path d="M339.445 186.766H442.216" stroke="#7189FF" stroke-width="1.85872" stroke-linecap="round" stroke-linejoin="round"/>
<path d="M336.258 199.793H439.029" stroke="#7189FF" stroke-width="1.85872" stroke-linecap="round" stroke-linejoin="round"/>
<path d="M338.977 212.82H429.938" stroke="#7189FF" stroke-width="1.85872" stroke-linecap="round" stroke-linejoin="round"/>
<path d="M342.734 225.832H419.808" stroke="#7189FF" stroke-width="1.85872" stroke-linecap="round" stroke-linejoin="round"/>
<path d="M359.094 238.863H397.072" stroke="#7189FF" stroke-width="1.85872" stroke-linecap="round" stroke-linejoin="round"/>
<path d="M200.406 344.122H461.96C467.819 344.122 473.438 341.79 477.581 337.641C481.724 333.491 484.052 327.863 484.052 321.994C484.052 316.126 481.724 310.498 477.581 306.348C473.438 302.198 467.819 299.867 461.96 299.867H200.406V344.122Z" fill="#F2718D"/>
<path d="M285.227 344.127H461.964C466.056 344.137 470.068 342.998 473.547 340.84H285.227V344.127Z" fill="#E8445C"/>
<path d="M285.227 299.867V303.154H473.547C470.068 300.996 466.056 299.857 461.964 299.867H285.227Z" fill="#E8445C"/>
<path d="M288.085 299.867H163.859V303.154H183.464V340.835H163.859V344.122H288.085C290.986 344.122 293.859 343.549 296.539 342.437C299.22 341.325 301.655 339.695 303.707 337.641C305.758 335.586 307.385 333.147 308.496 330.462C309.606 327.778 310.177 324.9 310.177 321.994C310.177 319.089 309.606 316.211 308.496 313.527C307.385 310.842 305.758 308.403 303.707 306.348C301.655 304.293 299.22 302.664 296.539 301.552C293.859 300.44 290.986 299.867 288.085 299.867Z" fill="#DF3056"/>
<path d="M456.513 299.867H446.039C457.186 301.353 465.801 310.708 465.801 321.994C465.801 333.281 457.186 342.627 446.039 344.122H456.513C460.395 341.882 463.619 338.658 465.86 334.773C468.102 330.889 469.282 326.481 469.282 321.994C469.282 317.508 468.102 313.1 465.86 309.216C463.619 305.331 460.395 302.107 456.513 299.867Z" fill="#DF3056"/>
<path d="M322.092 299.867H311.617C322.764 301.353 331.388 310.708 331.388 321.994C331.388 333.281 322.764 342.627 311.626 344.122H322.1C325.984 341.884 329.21 338.66 331.453 334.775C333.696 330.89 334.877 326.482 334.877 321.994C334.877 317.507 333.696 313.098 331.453 309.214C329.21 305.329 325.984 302.105 322.1 299.867H322.092Z" fill="#DF3056"/>
<path d="M345.781 333.489L347.396 329.817C348.473 327.349 349.029 324.685 349.029 321.992C349.029 319.299 348.473 316.636 347.396 314.168L345.781 310.496H444.1L444.79 312.061C446.16 315.192 446.868 318.574 446.868 321.992C446.868 325.411 446.16 328.793 444.79 331.924L444.1 333.489H345.781Z" fill="#DF3056"/>
<path d="M444.224 321.995C444.228 318.939 443.595 315.917 442.365 313.121H349.789C351.019 315.917 351.652 318.939 351.648 321.995C351.652 325.05 351.019 328.072 349.789 330.868H442.391C443.612 328.07 444.236 325.048 444.224 321.995Z" fill="#F2718D"/>
<path d="M169.062 340.836L168.634 340.049C168.505 339.809 168.438 339.54 168.438 339.267C168.438 338.993 168.505 338.725 168.634 338.484C168.763 338.244 168.831 337.975 168.831 337.702C168.831 337.429 168.763 337.16 168.634 336.919C168.505 336.679 168.438 336.41 168.438 336.137C168.438 335.864 168.505 335.595 168.634 335.354C168.763 335.114 168.831 334.845 168.831 334.572C168.831 334.299 168.763 334.03 168.634 333.789C168.505 333.547 168.438 333.277 168.438 333.003C168.438 332.728 168.505 332.458 168.634 332.216C168.763 331.975 168.831 331.706 168.831 331.433C168.831 331.16 168.763 330.891 168.634 330.651C168.505 330.41 168.438 330.141 168.438 329.868C168.438 329.595 168.505 329.326 168.634 329.086C168.763 328.844 168.831 328.574 168.831 328.299C168.831 328.025 168.763 327.754 168.634 327.512C168.505 327.272 168.438 327.003 168.438 326.73C168.438 326.457 168.505 326.188 168.634 325.947C168.763 325.707 168.831 325.438 168.831 325.165C168.831 324.892 168.763 324.623 168.634 324.382C168.505 324.142 168.438 323.873 168.438 323.6C168.438 323.327 168.505 323.058 168.634 322.818C168.763 322.577 168.831 322.308 168.831 322.035C168.831 321.762 168.763 321.493 168.634 321.253C168.505 321.011 168.438 320.74 168.438 320.466C168.438 320.191 168.505 319.921 168.634 319.679C168.763 319.438 168.831 319.17 168.831 318.897C168.831 318.623 168.763 318.355 168.634 318.114C168.505 317.872 168.438 317.602 168.438 317.327C168.438 317.053 168.505 316.783 168.634 316.54C168.763 316.3 168.831 316.031 168.831 315.758C168.831 315.485 168.763 315.216 168.634 314.976C168.505 314.735 168.438 314.466 168.438 314.193C168.438 313.92 168.505 313.651 168.634 313.411C168.763 313.17 168.831 312.901 168.831 312.628C168.831 312.355 168.763 312.086 168.634 311.846C168.505 311.605 168.438 311.336 168.438 311.063C168.438 310.79 168.505 310.521 168.634 310.281C168.763 310.04 168.831 309.771 168.831 309.498C168.831 309.225 168.763 308.956 168.634 308.716C168.505 308.475 168.438 308.207 168.438 307.933C168.438 307.66 168.505 307.392 168.634 307.151C168.763 306.91 168.831 306.642 168.831 306.369C168.831 306.095 168.763 305.827 168.634 305.586C168.505 305.346 168.438 305.077 168.438 304.804C168.438 304.531 168.505 304.262 168.634 304.021L169.062 303.234H287.981C292.969 303.234 297.754 305.219 301.281 308.753C304.809 312.286 306.791 317.078 306.791 322.074C306.77 327.058 304.779 331.829 301.254 335.346C297.728 338.862 292.956 340.836 287.981 340.836H169.062Z" fill="white"/>
<path d="M171.391 306.426H292.823" stroke="#FFC8D4" stroke-width="0.981787" stroke-linecap="round" stroke-linejoin="round"/>
<path d="M171.391 309.535H296.507" stroke="#FFC8D4" stroke-width="0.981787" stroke-linecap="round" stroke-linejoin="round"/>
<path d="M171.391 312.648H300.845" stroke="#FFC8D4" stroke-width="0.981787" stroke-linecap="round" stroke-linejoin="round"/>
<path d="M171.391 315.762H302.643" stroke="#FFC8D4" stroke-width="0.981787" stroke-linecap="round" stroke-linejoin="round"/>
<path d="M171.391 318.883H303.385" stroke="#FFC8D4" stroke-width="0.981787" stroke-linecap="round" stroke-linejoin="round"/>
<path d="M171.391 321.996H303.996" stroke="#FFC8D4" stroke-width="0.981787" stroke-linecap="round" stroke-linejoin="round"/>
<path d="M171.391 325.109H303.385" stroke="#FFC8D4" stroke-width="0.981787" stroke-linecap="round" stroke-linejoin="round"/>
<path d="M171.391 328.219H302.643" stroke="#FFC8D4" stroke-width="0.981787" stroke-linecap="round" stroke-linejoin="round"/>
<path d="M171.391 331.34H300.845" stroke="#FFC8D4" stroke-width="0.981787" stroke-linecap="round" stroke-linejoin="round"/>
<path d="M171.391 334.453H296.507" stroke="#FFC8D4" stroke-width="0.981787" stroke-linecap="round" stroke-linejoin="round"/>
<path d="M171.391 337.566H292.823" stroke="#FFC8D4" stroke-width="0.981787" stroke-linecap="round" stroke-linejoin="round"/>
<path d="M495.766 385.359L496.202 384.564C496.331 384.323 496.399 384.054 496.399 383.781C496.399 383.508 496.331 383.239 496.202 382.999C496.073 382.758 496.005 382.489 496.005 382.216C496.005 381.943 496.073 381.674 496.202 381.434C496.331 381.193 496.399 380.925 496.399 380.651C496.399 380.378 496.331 380.11 496.202 379.869C496.073 379.628 496.005 379.36 496.005 379.087C496.005 378.813 496.073 378.545 496.202 378.304C496.331 378.064 496.399 377.795 496.399 377.522C496.399 377.249 496.331 376.98 496.202 376.739C496.073 376.499 496.005 376.23 496.005 375.957C496.005 375.684 496.073 375.415 496.202 375.174C496.331 374.934 496.399 374.665 496.399 374.392C496.399 374.119 496.331 373.85 496.202 373.609C496.073 373.369 496.005 373.1 496.005 372.827C496.005 372.554 496.073 372.285 496.202 372.044C496.331 371.804 496.399 371.535 496.399 371.262C496.399 370.989 496.331 370.72 496.202 370.48C496.073 370.239 496.005 369.97 496.005 369.697C496.005 369.424 496.073 369.155 496.202 368.915C496.331 368.674 496.399 368.405 496.399 368.132C496.399 367.859 496.331 367.59 496.202 367.35C496.073 367.108 496.005 366.837 496.005 366.563C496.005 366.288 496.073 366.018 496.202 365.776C496.331 365.536 496.399 365.267 496.399 364.994C496.399 364.721 496.331 364.452 496.202 364.211C496.073 363.969 496.005 363.699 496.005 363.424C496.005 363.15 496.073 362.88 496.202 362.638C496.331 362.397 496.399 362.128 496.399 361.855C496.399 361.582 496.331 361.313 496.202 361.073C496.071 360.831 496.002 360.561 496.002 360.286C496.002 360.011 496.071 359.74 496.202 359.499C496.331 359.258 496.399 358.99 496.399 358.717C496.399 358.443 496.331 358.175 496.202 357.934C496.073 357.694 496.005 357.425 496.005 357.152C496.005 356.879 496.073 356.61 496.202 356.369C496.331 356.129 496.399 355.86 496.399 355.587C496.399 355.314 496.331 355.045 496.202 354.804C496.073 354.564 496.005 354.295 496.005 354.022C496.005 353.749 496.073 353.48 496.202 353.239C496.331 352.999 496.399 352.73 496.399 352.457C496.399 352.184 496.331 351.915 496.202 351.674C496.073 351.434 496.005 351.165 496.005 350.892C496.005 350.619 496.073 350.35 496.202 350.11C496.331 349.869 496.399 349.6 496.399 349.327C496.399 349.054 496.331 348.785 496.202 348.545L495.766 347.758H362.951C357.973 347.758 353.197 349.734 349.672 353.254C346.146 356.774 344.157 361.551 344.141 366.537C344.139 369.012 344.625 371.462 345.57 373.749C346.515 376.036 347.9 378.114 349.647 379.864C351.394 381.615 353.468 383.003 355.75 383.951C358.033 384.898 360.48 385.386 362.951 385.386L495.766 385.359Z" fill="white"/>
<path d="M493.446 350.941H358.082" stroke="#FFC8D4" stroke-width="0.981787" stroke-linecap="round" stroke-linejoin="round"/>
<path d="M493.445 354.054H354.398" stroke="#FFC8D4" stroke-width="0.981787" stroke-linecap="round" stroke-linejoin="round"/>
<path d="M493.448 357.176H350.062" stroke="#FFC8D4" stroke-width="0.981787" stroke-linecap="round" stroke-linejoin="round"/>
<path d="M493.445 360.289H348.262" stroke="#FFC8D4" stroke-width="0.981787" stroke-linecap="round" stroke-linejoin="round"/>
<path d="M493.449 363.402H347.523" stroke="#FFC8D4" stroke-width="0.981787" stroke-linecap="round" stroke-linejoin="round"/>
<path d="M493.442 366.512H346.906" stroke="#FFC8D4" stroke-width="0.981787" stroke-linecap="round" stroke-linejoin="round"/>
<path d="M493.449 369.633H347.523" stroke="#FFC8D4" stroke-width="0.981787" stroke-linecap="round" stroke-linejoin="round"/>
<path d="M493.445 372.746H348.262" stroke="#FFC8D4" stroke-width="0.981787" stroke-linecap="round" stroke-linejoin="round"/>
<path d="M493.448 375.859H350.062" stroke="#FFC8D4" stroke-width="0.981787" stroke-linecap="round" stroke-linejoin="round"/>
<path d="M493.445 378.973H354.398" stroke="#FFC8D4" stroke-width="0.981787" stroke-linecap="round" stroke-linejoin="round"/>
<path d="M493.446 382.09H358.082" stroke="#FFC8D4" stroke-width="0.981787" stroke-linecap="round" stroke-linejoin="round"/>
</g>
<defs>
<clipPath id="clip0_2929_226663">
<rect width="672" height="391.762" fill="white"/>
</clipPath>
<clipPath id="clip1_2929_226663">
<rect width="389.855" height="353.634" fill="white" transform="translate(136.305 35.2695)"/>
</clipPath>
</defs>
</svg>
