<svg width="602" height="500" viewBox="0 0 602 500" fill="none" xmlns="http://www.w3.org/2000/svg">
<g clip-path="url(#clip0_2929_226955)">
<path d="M491.539 454.191C491.539 454.191 577.366 436.121 581.737 372C586.778 298.313 517.512 297.504 528.136 244.083C542.964 169.524 513.968 125.122 448.985 128.181C394.193 130.767 347.966 176.535 318.655 137.19C287.04 94.7224 227.906 63.3345 169.382 89.6453C110.858 115.956 139.174 201.437 98.7078 219.601C58.2412 237.766 33.1539 285.72 40.174 352.028C46.7905 414.204 81.8024 455.526 131.573 454.895C155.962 454.59 230.928 455.242 316.007 454.895C404.531 454.506 491.539 454.191 491.539 454.191Z" fill="#DEE3FF"/>
<rect x="169.5" y="62.5" width="298" height="221" rx="11.5" stroke="#E54985"/>
<path d="M435.147 454.762C426.897 455.342 393.577 455.872 399.477 427.652C402.477 413.242 394.817 411.652 387.407 404.382C379.997 397.112 380.887 393.532 383.157 385.582C385.427 377.632 375.217 380.342 373.237 368.372C371.257 356.402 378.737 346.372 391.657 346.442C404.577 346.512 401.657 359.912 405.897 364.872C410.137 369.832 416.637 365.262 420.947 377.062C425.257 388.862 418.947 395.912 427.247 400.522C428.905 401.483 430.457 402.616 431.877 403.902" stroke="#7189FF" stroke-miterlimit="10"/>
<path d="M421.278 422.661C414.884 409.661 408.134 396.847 401.028 384.221C398.614 379.954 396.174 375.704 393.708 371.471C393.658 371.385 393.591 371.311 393.513 371.251C393.434 371.191 393.344 371.147 393.249 371.122C393.153 371.097 393.053 371.091 392.955 371.105C392.857 371.118 392.763 371.151 392.678 371.201C392.592 371.25 392.518 371.317 392.458 371.395C392.398 371.474 392.354 371.564 392.329 371.66C392.304 371.755 392.298 371.855 392.312 371.953C392.325 372.051 392.358 372.145 392.408 372.231C400.408 385.831 407.978 399.651 415.118 413.691C416.758 416.917 418.381 420.161 419.988 423.421C420.408 424.291 421.708 423.531 421.278 422.661Z" fill="#7189FF"/>
<path d="M388.278 395.63L404.748 397.34L407.118 397.59C408.118 397.69 408.118 396.19 407.118 396.09L390.648 394.38L388.278 394.13C387.278 394.03 387.328 395.53 388.278 395.63Z" fill="#7189FF"/>
<path d="M394.86 386.078C394.942 386.657 394.845 387.247 394.582 387.769C394.319 388.291 393.903 388.72 393.39 388.999C392.877 389.278 392.29 389.394 391.709 389.331C391.128 389.269 390.58 389.03 390.139 388.647C389.697 388.264 389.383 387.756 389.238 387.19C389.093 386.624 389.125 386.027 389.328 385.479C389.532 384.931 389.897 384.458 390.377 384.124C390.856 383.79 391.426 383.61 392.01 383.608C392.716 383.559 393.412 383.791 393.946 384.254C394.48 384.717 394.809 385.373 394.86 386.078Z" stroke="#7189FF" stroke-miterlimit="10"/>
<path d="M401.211 363.889C400.925 364.376 400.502 364.767 399.993 365.013C399.485 365.259 398.916 365.348 398.356 365.27C397.797 365.192 397.274 364.949 396.853 364.573C396.432 364.197 396.133 363.704 395.992 363.157C395.852 362.61 395.877 362.034 396.064 361.502C396.251 360.969 396.592 360.504 397.044 360.166C397.496 359.828 398.039 359.631 398.602 359.602C399.166 359.572 399.726 359.71 400.211 359.999C400.857 360.384 401.325 361.009 401.513 361.738C401.7 362.467 401.591 363.24 401.211 363.889Z" stroke="#7189FF" stroke-miterlimit="10"/>
<path d="M412.681 428.499C412.787 429.224 412.669 429.964 412.343 430.619C412.016 431.275 411.497 431.815 410.855 432.167C410.213 432.519 409.478 432.666 408.75 432.589C408.022 432.512 407.335 432.214 406.781 431.735C406.227 431.256 405.833 430.619 405.651 429.909C405.47 429.2 405.509 428.451 405.765 427.765C406.021 427.079 406.481 426.487 407.082 426.07C407.684 425.652 408.399 425.429 409.131 425.429C410.008 425.371 410.872 425.661 411.536 426.236C412.201 426.81 412.612 427.623 412.681 428.499Z" stroke="#7189FF" stroke-miterlimit="10"/>
<path d="M396.129 356.591C396.144 356.767 396.123 356.943 396.067 357.11C396.01 357.277 395.92 357.431 395.801 357.561C395.682 357.691 395.537 357.795 395.376 357.866C395.214 357.937 395.04 357.974 394.864 357.974C394.687 357.974 394.513 357.937 394.352 357.866C394.191 357.795 394.046 357.691 393.927 357.561C393.808 357.431 393.717 357.277 393.661 357.11C393.604 356.943 393.583 356.767 393.599 356.591C393.627 356.275 393.772 355.981 394.006 355.767C394.241 355.552 394.546 355.434 394.864 355.434C395.181 355.434 395.487 355.552 395.721 355.767C395.955 355.981 396.101 356.275 396.129 356.591Z" stroke="#7189FF" stroke-miterlimit="10"/>
<path d="M483.691 452.022C476.861 447.152 476.181 416.252 504.181 410.022C518.481 406.832 516.181 399.672 519.081 390.462C521.981 381.252 525.591 380.582 533.781 379.332C541.971 378.082 535.781 366.922 545.531 360.462C555.281 354.002 568.291 353.512 573.151 367.632C577.261 379.582 565.611 384.852 563.231 390.412C560.851 395.972 567.771 403.482 559.341 411.862C550.911 420.242 541.891 413.932 541.781 422.812C541.671 431.692 537.781 447.872 529.171 451.202C518.581 455.292 489.081 455.862 483.691 452.022Z" stroke="#7189FF" stroke-miterlimit="10"/>
<path d="M493.209 455.501C497.009 450.971 500.949 446.561 504.749 442.031C514.162 430.851 523.352 419.487 532.319 407.941C538.806 399.581 545.179 391.131 551.439 382.591C552.009 381.811 550.709 381.061 550.149 381.831C539.622 396.277 528.739 410.421 517.499 424.261C510.492 432.927 503.349 441.497 496.069 449.971C494.769 451.481 493.429 452.971 492.149 454.481C491.529 455.221 492.589 456.281 493.209 455.541V455.501Z" fill="#7189FF"/>
<path d="M502.72 410.36C502.09 405.19 501.27 400.12 500.8 395.36C498.91 376.22 525.3 384.78 535.8 360.2C546.3 335.62 520.58 326.7 532.68 316.42C544.78 306.14 548.16 270.81 530.44 264.73C507.44 256.85 486.8 271.26 483.99 290.24C481.83 304.88 491.64 315.1 466.1 325.83C440.56 336.56 444.5 349.89 449.75 375.38C455 400.87 437.75 391.521 424.32 413.031C413.69 430.031 428.63 447.47 435.32 453.95L487.02 454.84" stroke="#7189FF" stroke-miterlimit="10"/>
<path d="M445.84 454.001L452.18 439.421C457.393 427.474 462.61 415.554 467.83 403.661C474.496 388.481 481.21 373.318 487.97 358.171C494.49 343.551 501.083 328.964 507.75 314.411C512.48 304.131 517.19 293.821 522.38 283.771L523.58 281.491C524.04 280.641 522.74 279.881 522.29 280.731C517.34 289.971 512.99 299.551 508.58 309.051C501.99 323.261 495.58 337.541 489.16 351.831C482.333 367.111 475.553 382.408 468.82 397.721C463.306 410.221 457.823 422.734 452.37 435.261C449.8 441.161 447.07 447.031 444.65 453.001C444.65 453.091 444.58 453.171 444.55 453.251C444.17 454.121 445.46 454.891 445.84 454.001Z" fill="#7189FF"/>
<path d="M492.938 346.371L523.307 344.691L527.607 344.451C528.607 344.391 528.607 342.891 527.607 342.951L497.237 344.631L492.938 344.871C491.938 344.921 491.938 346.421 492.938 346.371Z" fill="#7189FF"/>
<path d="M457.94 425.32L481.94 422.62L485.32 422.24C486.32 422.13 486.32 420.63 485.32 420.74L461.37 423.43L457.98 423.82C456.98 423.92 456.98 425.42 457.98 425.32H457.94Z" fill="#7189FF"/>
<path d="M454.689 338.622L461.569 354.082L472.569 378.712L475.079 384.342C475.479 385.222 476.769 384.462 476.379 383.582L469.489 368.122L458.489 343.502L455.999 337.862C455.609 336.982 454.319 337.752 454.709 338.622H454.689Z" fill="#7189FF"/>
<path d="M504.708 286.101C503.008 288.591 500.058 289.531 498.118 288.211C496.178 286.891 495.968 283.791 497.658 281.301C499.348 278.811 502.308 277.871 504.248 279.191C506.188 280.511 506.398 283.611 504.708 286.101Z" stroke="#7189FF" stroke-miterlimit="10"/>
<path d="M506.002 299.56C506.002 300.03 505.863 300.491 505.601 300.882C505.34 301.273 504.968 301.578 504.533 301.759C504.098 301.939 503.62 301.986 503.158 301.894C502.696 301.802 502.272 301.575 501.939 301.243C501.606 300.91 501.38 300.486 501.288 300.024C501.196 299.562 501.243 299.084 501.423 298.649C501.603 298.214 501.909 297.842 502.3 297.581C502.691 297.319 503.151 297.18 503.622 297.18C504.253 297.18 504.859 297.43 505.305 297.877C505.751 298.323 506.002 298.928 506.002 299.56Z" stroke="#7189FF" stroke-miterlimit="10"/>
<path d="M523.229 361.028C523.229 361.944 522.957 362.839 522.448 363.601C521.94 364.362 521.217 364.956 520.371 365.306C519.525 365.656 518.594 365.748 517.695 365.569C516.797 365.391 515.972 364.95 515.325 364.302C514.677 363.655 514.236 362.83 514.058 361.932C513.879 361.034 513.971 360.103 514.321 359.257C514.672 358.411 515.265 357.687 516.026 357.179C516.788 356.67 517.683 356.398 518.599 356.398C519.827 356.398 521.004 356.886 521.873 357.755C522.741 358.623 523.229 359.8 523.229 361.028Z" stroke="#7189FF" stroke-miterlimit="10"/>
<path d="M20.0608 456.291H577.421C584.951 456.291 592.481 456.411 600.011 456.291H601.011C601.342 456.291 601.66 456.159 601.895 455.925C602.129 455.691 602.261 455.373 602.261 455.041C602.261 454.71 602.129 454.392 601.895 454.157C601.66 453.923 601.342 453.791 601.011 453.791H43.6508C36.1208 453.791 28.5808 453.681 21.0508 453.791H20.0508C19.7193 453.791 19.4013 453.923 19.1669 454.157C18.9325 454.392 18.8008 454.71 18.8008 455.041C18.8008 455.373 18.9325 455.691 19.1669 455.925C19.4013 456.159 19.7193 456.291 20.0508 456.291H20.0608Z" fill="#0F0D1D"/>
<path d="M208.52 150.5H429.48C435.29 150.5 440 155.21 440 161.02V167.98C440 173.79 435.29 178.5 429.48 178.5H208.52C202.71 178.5 198 173.79 198 167.98V161.02C198 155.21 202.71 150.5 208.52 150.5Z" fill="white" stroke="#F2718D"/>
<path d="M429.48 203H208.52C202.434 203 197.5 207.934 197.5 214.02V244.98C197.5 251.066 202.434 256 208.52 256H429.48C435.566 256 440.5 251.066 440.5 244.98V214.02C440.5 207.934 435.566 203 429.48 203Z" stroke="#F2718D" stroke-miterlimit="10"/>
<path d="M493.711 406.84L473.531 384.82L489.191 371.52L509.801 394.01L493.711 406.84Z" fill="#FFC8A5"/>
<path d="M489.039 454.348L537.639 410.078L510.379 382.328L488.969 404.618L498.499 416.488L489.039 454.348Z" fill="#13004D"/>
<path d="M492.059 429.552L499.999 433.012L501.119 433.492C501.549 433.682 501.939 433.042 501.489 432.842L493.559 429.392L492.439 428.902C491.999 428.712 491.619 429.362 492.059 429.552Z" fill="white"/>
<path d="M494.309 423.04L502.249 426.49L503.369 426.98C503.799 427.17 504.189 426.52 503.739 426.33L495.809 422.88L494.689 422.39C494.249 422.2 493.869 422.84 494.309 423.04Z" fill="white"/>
<path d="M496.869 418.28C494.755 419.057 492.602 419.725 490.419 420.28C488.613 420.748 486.775 421.082 484.919 421.28C483.408 421.531 481.86 421.421 480.399 420.96C479.888 420.731 479.465 420.342 479.193 419.853C478.92 419.364 478.813 418.799 478.887 418.244C478.961 417.689 479.213 417.173 479.604 416.772C479.996 416.371 480.506 416.108 481.059 416.02C483.989 415.28 487.409 416.18 490.249 416.92C492.496 417.485 494.707 418.187 496.869 419.02C497.319 419.19 497.509 418.47 497.069 418.3C495.027 417.52 492.944 416.852 490.829 416.3C487.759 415.48 484.089 414.52 480.919 415.3C480.37 415.391 479.85 415.615 479.406 415.951C478.962 416.287 478.606 416.726 478.369 417.23C478.143 417.827 478.073 418.471 478.164 419.102C478.254 419.734 478.504 420.332 478.889 420.84C479.906 421.737 481.235 422.197 482.589 422.12C484.466 422.153 486.339 421.958 488.169 421.54C491.197 420.94 494.173 420.1 497.069 419.03C497.519 418.83 497.319 418.11 496.869 418.28Z" fill="white"/>
<path d="M483 409.5L495.52 417.74L497.33 418.93C497.74 419.19 498.11 418.54 497.71 418.28L485.19 410.04L483.38 408.85C482.97 408.58 482.6 409.23 483 409.5Z" fill="white"/>
<path d="M526.071 398.309C524.657 399.708 523.565 401.398 522.87 403.262C522.176 405.126 521.895 407.118 522.049 409.102C522.202 411.085 522.785 413.011 523.758 414.746C524.73 416.481 526.069 417.983 527.681 419.149L537.681 410.079L526.071 398.309Z" fill="white"/>
<path d="M427.939 240.371C427.939 240.371 403.669 296.931 408.609 317.941C413.549 338.951 446.269 371.941 478.379 398.311L501.539 372.191L473.539 323.811L485.879 245.661L428.789 241.721" fill="#0A4DD0"/>
<path d="M493.511 358.328L465.781 387.618" stroke="#13004D" stroke-miterlimit="10" stroke-linecap="round"/>
<path d="M426.422 348.139C439.972 364.589 459.292 382.609 478.422 398.309L501.582 372.189L473.582 323.809" stroke="#13004D" stroke-miterlimit="10" stroke-linecap="round"/>
<path d="M447.961 422.69L448.241 392.82L468.281 393.79L468.001 424.29L447.961 422.69Z" fill="#FFC8A5"/>
<path d="M408.609 453.062L474.339 453.222L472.979 414.352L442.129 416.332L441.139 431.522L408.609 453.062Z" fill="#13004D"/>
<path d="M427.613 436.892L431.133 444.782L431.633 445.912C431.833 446.352 432.473 445.972 432.283 445.532L428.763 437.642L428.263 436.512C428.073 436.072 427.423 436.452 427.613 436.892Z" fill="white"/>
<path d="M433.668 433.599L437.188 441.489L437.688 442.619C437.888 443.059 438.528 442.679 438.338 442.239L434.818 434.349L434.318 433.219C434.118 432.779 433.478 433.159 433.668 433.599Z" fill="white"/>
<path d="M438.672 431.711C436.59 430.84 434.554 429.862 432.572 428.781C430.955 427.926 429.401 426.957 427.922 425.881C426.651 425.045 425.587 423.93 424.812 422.621C424.56 422.1 424.497 421.508 424.634 420.946C424.771 420.384 425.099 419.887 425.562 419.541C425.959 419.197 426.456 418.989 426.979 418.948C427.503 418.906 428.026 419.033 428.472 419.311C429.718 420.024 430.818 420.968 431.712 422.091C432.808 423.378 433.81 424.741 434.712 426.171C435.998 428.132 437.17 430.165 438.222 432.261C438.432 432.691 439.082 432.261 438.862 431.881C437.888 429.932 436.806 428.039 435.622 426.211C434.668 424.683 433.609 423.222 432.452 421.841C431.493 420.605 430.313 419.558 428.972 418.751C428.483 418.43 427.92 418.241 427.336 418.203C426.753 418.164 426.169 418.277 425.642 418.531C425.081 418.842 424.61 419.295 424.277 419.844C423.943 420.392 423.759 421.019 423.742 421.661C423.994 423.041 424.741 424.282 425.842 425.151C427.245 426.413 428.781 427.52 430.422 428.451C432.987 429.978 435.661 431.315 438.422 432.451C438.922 432.621 439.112 431.891 438.672 431.711Z" fill="white"/>
<path d="M434.459 415.839L438.139 430.429L438.659 432.479C438.692 432.567 438.757 432.641 438.841 432.684C438.926 432.727 439.023 432.737 439.115 432.712C439.206 432.687 439.285 432.629 439.336 432.548C439.386 432.468 439.405 432.372 439.389 432.279L435.699 417.689L435.179 415.639C435.069 415.179 434.339 415.369 434.459 415.839Z" fill="white"/>
<path d="M473.761 436.73C471.773 436.809 469.826 437.319 468.055 438.224C466.285 439.13 464.732 440.411 463.506 441.977C462.279 443.543 461.408 445.357 460.953 447.294C460.498 449.23 460.47 451.242 460.871 453.19H474.341L473.761 436.73Z" fill="white"/>
<path d="M493.212 247.928C492.792 248.838 477.212 404.428 477.212 404.428H440.212L439.882 388.328L436.922 244.898L493.212 247.928Z" fill="#0A4DD0" stroke="#13004D" stroke-miterlimit="10" stroke-linecap="round"/>
<path d="M458.121 248.02C458.121 248.02 458.621 266.54 475.381 266.33" stroke="#13004D" stroke-miterlimit="10" stroke-linecap="round"/>
<path d="M460.531 388.77L464.911 263.02" stroke="#13004D" stroke-miterlimit="10" stroke-linecap="round"/>
<path d="M478.519 389.198L439.859 388.328" stroke="#13004D" stroke-miterlimit="10" stroke-linecap="round"/>
<path d="M361.239 148.972L347.379 130.122C346.536 130.046 345.72 129.791 344.984 129.371C344.249 128.952 343.613 128.379 343.119 127.692C341.459 125.352 340.959 122.792 342.119 121.692C343.279 120.592 343.829 120.832 343.829 120.832C343.829 120.832 344.479 120.732 344.679 119.742C344.879 118.752 346.559 118.012 346.559 118.012L347.409 118.092C347.409 118.092 347.739 118.092 347.999 117.092C348.259 116.092 350.099 115.362 350.099 115.362H350.859C350.859 115.362 347.539 108.192 347.409 105.742C347.279 103.292 349.409 101.352 351.749 104.142C354.089 106.932 357.289 114.142 357.289 114.142C358.213 113.91 359.186 113.964 360.078 114.296C360.971 114.628 361.742 115.222 362.289 116.002C364.389 118.762 371.289 130.002 371.289 130.002L374.989 138.912L361.239 148.972Z" fill="#FFC8A5"/>
<path d="M359.402 119.121C359.402 119.121 356.182 121.651 353.472 121.771C350.762 121.891 349.902 119.321 351.572 117.771C353.242 116.221 357.682 112.891 360.242 114.011C362.802 115.131 372.962 131.251 374.162 136.931" stroke="#FF8576" stroke-width="0.75" stroke-miterlimit="10" stroke-linecap="round"/>
<path d="M356.12 121.501C356.46 122.019 356.61 122.639 356.544 123.255C356.479 123.871 356.202 124.446 355.76 124.881C354.17 126.351 352.21 125.061 350.29 122.811C348.37 120.561 347.13 117.481 348.67 116.021C348.955 115.77 349.288 115.582 349.65 115.469C350.012 115.355 350.393 115.318 350.769 115.361C351.146 115.403 351.51 115.524 351.837 115.715C352.164 115.906 352.448 116.163 352.67 116.471" stroke="#FF8576" stroke-width="0.75" stroke-miterlimit="10" stroke-linecap="round"/>
<path d="M352.68 125.18C352.857 125.839 352.77 126.541 352.437 127.137C352.105 127.732 351.553 128.175 350.9 128.37C348.47 129.24 345.9 125.96 345.11 123.72C344.32 121.48 344 119.16 345.86 118.24C347.38 117.48 348.03 118.41 348.03 118.41" stroke="#FF8576" stroke-width="0.75" stroke-miterlimit="10" stroke-linecap="round"/>
<path d="M348.79 128.499C348.79 128.499 348.79 130.139 346.71 130.169C344.63 130.199 341.16 126.259 341.39 123.649C341.62 121.039 343.54 120.409 344.26 120.789" stroke="#FF8576" stroke-width="0.75" stroke-miterlimit="10" stroke-linecap="round"/>
<path d="M359.07 147.879L374.6 135.449L381.6 143.999L361.68 158.479L359.07 147.879Z" fill="white" stroke="#2ABBF0" stroke-miterlimit="10"/>
<path d="M380.51 138.801L356.59 157.551C356.59 157.551 362.04 199.641 389.34 211.231C416.64 222.821 437.34 212.111 441.17 194.961C445 177.811 451.7 156.321 451.7 156.321C451.7 156.321 431.52 168.911 414.06 164.941C396.6 160.971 380.51 138.801 380.51 138.801Z" fill="#E55E7B"/>
<path d="M380.51 138.801L356.59 157.551C357.065 160.747 357.713 163.915 358.53 167.041L387.15 146.701C384.797 144.188 382.581 141.551 380.51 138.801Z" fill="white"/>
<path d="M376.758 141.739C378.468 143.789 380.908 146.739 383.158 149.529L383.958 148.959C382.088 146.659 379.428 143.409 377.538 141.129L376.758 141.739Z" fill="#13004D"/>
<path d="M363.737 151.961L362.938 152.571L367.038 160.991L367.848 160.411L363.737 151.961Z" fill="#13004D"/>
<path d="M362.71 164.069L359.4 155.359L358.59 155.989L361.89 164.659L362.71 164.069Z" fill="#13004D"/>
<path d="M373.059 144.641L372.289 145.251L378.189 153.061L378.989 152.491L373.059 144.641Z" fill="#13004D"/>
<path d="M367.461 149.032L372.211 157.322L373.011 156.752L368.241 148.422L367.461 149.032Z" fill="#13004D"/>
<path d="M451.7 156.321C451.7 156.321 431.52 168.911 414.06 164.941C396.6 160.971 380.51 138.801 380.51 138.801L356.59 157.551" stroke="#13004D" stroke-miterlimit="10" stroke-linecap="round"/>
<path d="M452.66 153.69C452.66 153.69 442.08 158.48 433.48 172.19C427.15 182.27 415.15 222.58 419.15 257.19L498.49 258.67L492.34 188.5L467.34 153.68L452.66 153.69Z" fill="#E55E7B"/>
<path d="M419.15 257.171L498.49 258.651L497.43 246.551L418.43 245.031C418.45 249.121 418.69 253.181 419.15 257.171Z" fill="white"/>
<path d="M442.668 245.5L441.688 245.48V257.59L442.668 257.61V245.5Z" fill="#13004D"/>
<path d="M450.018 245.641L449.038 245.621L448.758 257.721L449.738 257.741L450.018 245.641Z" fill="#13004D"/>
<path d="M456.17 245.758L455.18 245.738V257.838L456.17 257.858V245.758Z" fill="#13004D"/>
<path d="M429.099 245.239L428.109 245.219L428.829 257.349L429.809 257.369L429.099 245.239Z" fill="#13004D"/>
<path d="M422.761 257.239H423.761C423.531 252.679 423.281 247.909 423.141 245.109H422.141C422.281 248.019 422.541 253.009 422.761 257.239Z" fill="#13004D"/>
<path d="M435.761 245.372L434.781 245.352L434.621 257.462L435.601 257.482L435.761 245.372Z" fill="#13004D"/>
<path d="M483.101 246.27L482.121 246.25V258.35L483.101 258.36V246.27Z" fill="#13004D"/>
<path d="M488.281 246.372L487.301 246.352L487.361 258.442L488.341 258.462L488.281 246.372Z" fill="#13004D"/>
<path d="M494.691 246.5L493.711 246.48L494.771 258.58L495.751 258.6L494.691 246.5Z" fill="#13004D"/>
<path d="M477.293 246.161L476.312 246.141V258.241L477.293 258.251V246.161Z" fill="#13004D"/>
<path d="M469.98 246.02L469 246V258.1L469.98 258.12V246.02Z" fill="#13004D"/>
<path d="M462.531 245.879L461.551 245.859L461.931 257.969L462.911 257.989L462.531 245.879Z" fill="#13004D"/>
<path d="M452.66 153.69C452.66 153.69 442.08 158.48 433.48 172.19C427.15 182.27 415.15 222.58 419.15 257.19L498.49 258.67L492.34 188.5L467.34 153.68L452.66 153.69Z" stroke="#13004D" stroke-miterlimit="10"/>
<path d="M477.44 240.579C477.44 240.579 456.57 240.579 445.34 233.889C434.11 227.199 443.81 224.119 446.34 224.189C448.87 224.259 476.34 225.779 476.34 225.779L477.44 240.579Z" fill="#FFC8A5"/>
<path d="M447.621 226.422C447.621 226.422 449.181 231.342 458.141 231.482" stroke="#FF8576" stroke-width="0.75" stroke-miterlimit="10" stroke-linecap="round"/>
<path d="M442.18 227.441C442.18 227.441 442.58 231.521 453.54 233.891" stroke="#FF8576" stroke-width="0.75" stroke-miterlimit="10" stroke-linecap="round"/>
<path d="M480.658 223.031L474.688 224.411L475.668 242.071L485.698 243.111L480.658 223.031Z" fill="white" stroke="#2ABBF0" stroke-miterlimit="10"/>
<path d="M467.34 153.691L480.66 192.811C480.66 192.811 495.97 204.631 501.66 211.811L479.58 221.121L481.8 243.771C481.8 243.771 539.56 267.501 542.22 218.501C544.88 169.501 467.34 153.691 467.34 153.691Z" fill="#E55E7B"/>
<path d="M481.771 243.771L491.261 246.831L488.431 217.371L479.551 221.121L481.771 243.771Z" fill="white"/>
<path d="M480.711 227.891L489.371 227.121L489.271 226.141L480.121 226.951L480.701 232.871L489.851 232.071L489.751 231.091L481.101 231.851L480.711 227.891Z" fill="#13004D"/>
<path d="M490.301 236.762L481.141 237.382L481.651 242.562L490.931 243.402L490.841 242.412L482.051 241.612L481.731 238.332L490.391 237.742L490.301 236.762Z" fill="#13004D"/>
<path d="M479.777 223.48L488.818 221.41L488.728 220.43L479.688 222.5L479.777 223.48Z" fill="#13004D"/>
<path d="M516.431 205.558L479.551 221.118L481.771 243.768C481.771 243.768 539.561 267.498 542.221 218.498C543.101 202.358 535.221 189.808 524.361 180.238" stroke="#13004D" stroke-miterlimit="10" stroke-linecap="round"/>
<path d="M480.66 192.809C480.66 192.809 495.97 204.629 501.66 211.809" stroke="#13004D" stroke-miterlimit="10" stroke-linecap="round"/>
<path d="M397.412 228.5L441.002 228.58C445.532 228.58 447.872 225.08 446.232 220.74L434.802 190.5C433.861 188.277 432.318 186.362 430.345 184.972C428.373 183.581 426.051 182.77 423.642 182.63L380.002 182.5C375.482 182.5 373.142 186 374.782 190.34L386.202 220.6C387.141 222.836 388.691 224.762 390.673 226.159C392.655 227.556 394.99 228.367 397.412 228.5Z" fill="#0F0D1D"/>
<path d="M401.752 203.161C402.219 204.744 403.165 206.143 404.46 207.167C405.754 208.191 407.334 208.79 408.982 208.881C412.132 208.881 413.982 206.341 413.172 203.181C412.704 201.598 411.758 200.199 410.463 199.175C409.169 198.151 407.59 197.552 405.942 197.461C402.792 197.501 400.922 200.011 401.752 203.161Z" stroke="white" stroke-miterlimit="10"/>
<path d="M429.1 228.612L470.03 228.683C471.433 228.686 472.572 227.55 472.575 226.147L472.577 224.707C472.58 223.305 471.445 222.166 470.042 222.163L429.112 222.092C427.709 222.089 426.57 223.224 426.567 224.627L426.565 226.067C426.562 227.47 427.698 228.609 429.1 228.612Z" fill="#0F0D1D"/>
<path d="M467.801 139.25C467.801 138.93 467.881 138.61 467.901 138.25L468.571 126.55C468.901 120.83 465.061 115.92 460.041 115.64L452.491 115.2C447.491 114.92 443.101 119.36 442.771 125.07L442.101 136.77C441.781 142.49 445.611 147.39 450.631 147.68L454.451 147.9L454.391 152.54C454.383 153.014 454.468 153.484 454.643 153.925C454.817 154.365 455.076 154.767 455.406 155.107C455.736 155.447 456.13 155.718 456.564 155.906C456.999 156.094 457.467 156.194 457.941 156.2L464.061 156.29C465.017 156.301 465.939 155.932 466.625 155.265C467.311 154.598 467.705 153.687 467.721 152.73C467.721 152.73 467.861 139.6 467.801 139.25Z" fill="#FFC8A5"/>
<path d="M467.341 132.36C467.341 132.36 466.201 122.41 465.661 123.84C464.881 125.84 464.301 137.38 462.011 138.27C459.011 139.43 458.191 134.32 452.251 133.78C446.311 133.24 442.111 135.51 441.511 137.89C441.141 139.36 440.171 143.45 444.891 146.69C448.891 149.46 455.091 149.02 455.091 149.02C455.091 149.02 460.861 148.66 463.521 145.32C466.181 141.98 467.341 132.36 467.341 132.36Z" fill="#B86955"/>
<path d="M457.663 129.791C457.642 130.125 457.523 130.447 457.321 130.715C457.118 130.982 456.841 131.184 456.524 131.294C456.207 131.404 455.865 131.418 455.54 131.334C455.215 131.25 454.922 131.072 454.699 130.822C454.475 130.572 454.33 130.261 454.283 129.929C454.235 129.596 454.287 129.258 454.432 128.955C454.577 128.652 454.808 128.399 455.096 128.227C455.385 128.056 455.717 127.973 456.053 127.991C456.277 128.002 456.497 128.058 456.699 128.155C456.902 128.252 457.083 128.388 457.233 128.555C457.382 128.722 457.497 128.918 457.571 129.13C457.645 129.342 457.676 129.566 457.663 129.791Z" fill="black"/>
<path d="M446.531 128.899C446.514 129.185 446.414 129.46 446.241 129.689C446.069 129.918 445.832 130.091 445.562 130.186C445.292 130.28 444.999 130.293 444.721 130.221C444.444 130.15 444.194 129.998 444.003 129.784C443.811 129.571 443.688 129.306 443.647 129.022C443.607 128.738 443.651 128.449 443.775 128.19C443.899 127.932 444.097 127.716 444.343 127.57C444.59 127.424 444.874 127.354 445.16 127.369C445.351 127.379 445.538 127.427 445.71 127.51C445.882 127.592 446.036 127.708 446.163 127.85C446.29 127.992 446.388 128.158 446.451 128.338C446.514 128.518 446.541 128.709 446.531 128.899Z" fill="black"/>
<path d="M447.758 135.96C447.758 135.96 448.468 138.5 450.268 138.77C452.068 139.04 453.598 137.12 453.788 135.57L447.758 135.96Z" fill="white"/>
<path d="M449.339 127.639C448.748 129.05 448.004 130.391 447.119 131.639C447.091 131.688 447.075 131.744 447.071 131.8C447.067 131.857 447.076 131.914 447.097 131.967C447.119 132.019 447.151 132.067 447.193 132.105C447.235 132.144 447.285 132.172 447.339 132.189L449.209 132.479C449.303 132.496 449.399 132.477 449.479 132.426C449.559 132.376 449.618 132.297 449.643 132.205C449.668 132.114 449.658 132.016 449.614 131.932C449.571 131.847 449.498 131.782 449.409 131.749L447.539 131.459L447.769 132.009C448.656 130.763 449.401 129.421 449.989 128.009C450.038 127.924 450.051 127.823 450.027 127.728C450.003 127.633 449.943 127.551 449.859 127.499C449.817 127.472 449.77 127.454 449.72 127.446C449.671 127.438 449.62 127.44 449.571 127.452C449.523 127.465 449.477 127.487 449.437 127.517C449.397 127.547 449.364 127.585 449.339 127.629V127.639Z" fill="#FF8576"/>
<path d="M458.459 127.339C457.893 127.021 457.297 126.759 456.679 126.559C456.582 126.534 456.48 126.547 456.392 126.596C456.305 126.644 456.239 126.724 456.209 126.819C456.187 126.917 456.202 127.02 456.252 127.107C456.302 127.194 456.383 127.259 456.479 127.289C456.625 127.33 456.769 127.381 456.909 127.439L457.119 127.509L457.219 127.559C457.497 127.68 457.767 127.817 458.029 127.969C458.071 127.995 458.118 128.011 458.166 128.018C458.214 128.026 458.264 128.023 458.311 128.011C458.359 127.999 458.403 127.977 458.442 127.948C458.481 127.919 458.514 127.882 458.539 127.839C458.588 127.753 458.602 127.65 458.578 127.554C458.553 127.457 458.493 127.373 458.409 127.319L458.459 127.339Z" fill="#903E3E"/>
<path d="M446.07 125.829C445.475 125.827 444.881 125.861 444.29 125.929C444.191 125.934 444.097 125.976 444.027 126.046C443.957 126.116 443.915 126.21 443.91 126.309C443.91 126.489 444.08 126.709 444.29 126.679C444.881 126.611 445.475 126.577 446.07 126.579C446.125 126.588 446.18 126.585 446.233 126.57C446.286 126.556 446.336 126.529 446.378 126.494C446.42 126.458 446.453 126.414 446.477 126.364C446.5 126.314 446.512 126.259 446.512 126.204C446.512 126.149 446.5 126.095 446.477 126.045C446.453 125.995 446.42 125.95 446.378 125.915C446.336 125.879 446.286 125.853 446.233 125.838C446.18 125.823 446.125 125.82 446.07 125.829Z" fill="#903E3E"/>
<path d="M466.138 134.381L465.268 125.131C465.268 125.131 438.268 129.801 437.138 115.011C436.448 105.621 448.238 101.731 456.798 106.901C456.798 106.901 473.598 106.301 478.668 116.731C483.738 127.161 478.728 134.501 467.798 144.361L467.898 138.281L466.138 134.381Z" fill="#B86955"/>
<path d="M477.317 135.791C477.241 136.89 476.839 137.942 476.164 138.812C475.488 139.683 474.57 140.333 473.524 140.68C472.478 141.028 471.353 141.056 470.291 140.763C469.229 140.47 468.278 139.868 467.559 139.033C466.84 138.199 466.385 137.169 466.252 136.075C466.119 134.982 466.313 133.873 466.811 132.89C467.31 131.908 468.088 131.095 469.049 130.556C470.01 130.016 471.109 129.774 472.207 129.861C473.671 129.971 475.031 130.657 475.989 131.769C476.947 132.881 477.425 134.327 477.317 135.791Z" fill="#FFC8A5"/>
<path d="M469.152 135.85C469.147 135.821 469.147 135.79 469.152 135.76V135.66C469.152 135.6 469.152 135.46 469.152 135.59C469.194 135.312 469.261 135.037 469.352 134.77C469.346 134.734 469.346 134.697 469.352 134.66C469.352 134.66 469.412 134.5 469.352 134.6C469.352 134.52 469.422 134.44 469.472 134.35L469.602 134.12C469.628 134.09 469.652 134.056 469.672 134.02V133.96L469.862 133.75L469.982 133.65V133.6C469.922 133.65 470.062 133.54 469.982 133.6L470.242 133.43L470.372 133.36H470.452H470.522C471.107 133.17 471.731 133.139 472.332 133.27C472.379 133.284 472.429 133.287 472.477 133.281C472.526 133.275 472.573 133.26 472.616 133.236C472.658 133.212 472.696 133.179 472.726 133.141C472.756 133.102 472.779 133.058 472.792 133.01C472.805 132.963 472.809 132.914 472.803 132.865C472.797 132.816 472.781 132.769 472.757 132.727C472.733 132.684 472.701 132.646 472.662 132.616C472.623 132.586 472.579 132.564 472.532 132.55C471.96 132.395 471.359 132.385 470.783 132.521C470.206 132.657 469.673 132.935 469.232 133.33C468.699 133.897 468.35 134.612 468.232 135.38C468.198 135.565 468.178 135.753 468.172 135.94C468.186 136.029 468.232 136.11 468.301 136.169C468.37 136.227 468.457 136.259 468.547 136.259C468.637 136.259 468.724 136.227 468.793 136.169C468.862 136.11 468.907 136.029 468.922 135.94L469.152 135.85Z" fill="#FF8576"/>
<path d="M464.53 155.14C464.53 156.47 462.17 157.55 459.27 157.55C456.37 157.55 454 156.5 454 155.14C454 153.78 456.35 152.73 459.25 152.73C462.15 152.73 464.53 153.81 464.53 155.14Z" fill="#E55E7B" stroke="#13004D" stroke-miterlimit="10"/>
<path d="M454.26 150.999C455.947 151.86 457.807 152.325 459.7 152.359C463.14 152.509 466.44 151.149 467.7 149.359L470.7 155.229L461.17 160.139L457.71 153.659L453.14 159.199L451 154.919L454.26 150.999Z" fill="white" stroke="#2ABBF0" stroke-miterlimit="10"/>
<path d="M210.032 101.084V103.991H206.085V115.98H202.456V103.991H198.509V101.084H210.032ZM219.131 104.013C220.489 104.013 221.578 104.465 222.399 105.371C223.219 106.262 223.63 107.493 223.63 109.063V115.98H220.022V109.551C220.022 108.759 219.817 108.143 219.407 107.705C218.997 107.266 218.445 107.047 217.752 107.047C217.059 107.047 216.507 107.266 216.097 107.705C215.686 108.143 215.481 108.759 215.481 109.551V115.98H211.853V100.278H215.481V105.731C215.849 105.208 216.351 104.791 216.988 104.479C217.624 104.168 218.339 104.013 219.131 104.013ZM237.313 109.869C237.313 110.209 237.291 110.562 237.249 110.93H229.037C229.094 111.666 229.327 112.232 229.737 112.628C230.162 113.01 230.678 113.201 231.286 113.201C232.192 113.201 232.821 112.819 233.175 112.055H237.037C236.839 112.833 236.478 113.533 235.955 114.156C235.445 114.778 234.802 115.266 234.024 115.62C233.246 115.973 232.376 116.15 231.414 116.15C230.254 116.15 229.221 115.903 228.316 115.408C227.41 114.912 226.703 114.205 226.194 113.286C225.684 112.366 225.43 111.291 225.43 110.06C225.43 108.829 225.677 107.754 226.172 106.835C226.682 105.915 227.389 105.208 228.294 104.713C229.2 104.218 230.239 103.97 231.414 103.97C232.559 103.97 233.578 104.211 234.469 104.692C235.36 105.173 236.054 105.859 236.549 106.75C237.058 107.641 237.313 108.681 237.313 109.869ZM233.599 108.914C233.599 108.292 233.387 107.797 232.963 107.429C232.538 107.061 232.008 106.877 231.371 106.877C230.763 106.877 230.247 107.054 229.822 107.408C229.412 107.761 229.157 108.264 229.058 108.914H233.599ZM255.076 105.88C255.076 106.743 254.878 107.535 254.482 108.256C254.086 108.964 253.478 109.537 252.657 109.975C251.837 110.414 250.818 110.633 249.602 110.633H247.352V115.98H243.724V101.084H249.602C250.79 101.084 251.794 101.289 252.615 101.7C253.435 102.11 254.051 102.676 254.461 103.397C254.871 104.119 255.076 104.946 255.076 105.88ZM249.326 107.747C250.019 107.747 250.535 107.585 250.875 107.259C251.214 106.934 251.384 106.474 251.384 105.88C251.384 105.286 251.214 104.826 250.875 104.501C250.535 104.175 250.019 104.013 249.326 104.013H247.352V107.747H249.326ZM260.594 106.113C261.018 105.463 261.549 104.953 262.185 104.585C262.822 104.204 263.529 104.013 264.307 104.013V107.853H263.31C262.405 107.853 261.726 108.051 261.273 108.447C260.82 108.829 260.594 109.508 260.594 110.485V115.98H256.965V104.14H260.594V106.113ZM271.432 116.15C270.272 116.15 269.225 115.903 268.291 115.408C267.371 114.912 266.643 114.205 266.105 113.286C265.582 112.366 265.32 111.291 265.32 110.06C265.32 108.844 265.589 107.776 266.127 106.856C266.664 105.922 267.4 105.208 268.333 104.713C269.267 104.218 270.314 103.97 271.474 103.97C272.634 103.97 273.681 104.218 274.614 104.713C275.548 105.208 276.284 105.922 276.821 106.856C277.359 107.776 277.628 108.844 277.628 110.06C277.628 111.277 277.352 112.352 276.8 113.286C276.263 114.205 275.52 114.912 274.572 115.408C273.638 115.903 272.592 116.15 271.432 116.15ZM271.432 113.01C272.125 113.01 272.712 112.755 273.193 112.246C273.688 111.737 273.935 111.008 273.935 110.06C273.935 109.112 273.695 108.384 273.214 107.875C272.747 107.365 272.167 107.111 271.474 107.111C270.767 107.111 270.18 107.365 269.713 107.875C269.246 108.37 269.012 109.098 269.012 110.06C269.012 111.008 269.239 111.737 269.692 112.246C270.158 112.755 270.738 113.01 271.432 113.01ZM281.356 102.909C280.72 102.909 280.196 102.725 279.786 102.357C279.39 101.975 279.192 101.509 279.192 100.957C279.192 100.391 279.39 99.9242 279.786 99.5564C280.196 99.1744 280.72 98.9835 281.356 98.9835C281.979 98.9835 282.488 99.1744 282.884 99.5564C283.294 99.9242 283.5 100.391 283.5 100.957C283.5 101.509 283.294 101.975 282.884 102.357C282.488 102.725 281.979 102.909 281.356 102.909ZM283.181 117.508C283.181 118.965 282.813 120.012 282.078 120.649C281.342 121.3 280.317 121.625 279.001 121.625H277.579V118.548H278.449C278.845 118.548 279.128 118.47 279.298 118.315C279.468 118.159 279.553 117.904 279.553 117.551V104.14H283.181V117.508ZM296.952 109.869C296.952 110.209 296.931 110.562 296.888 110.93H288.676C288.733 111.666 288.966 112.232 289.376 112.628C289.801 113.01 290.317 113.201 290.925 113.201C291.831 113.201 292.46 112.819 292.814 112.055H296.676C296.478 112.833 296.117 113.533 295.594 114.156C295.084 114.778 294.441 115.266 293.663 115.62C292.885 115.973 292.015 116.15 291.053 116.15C289.893 116.15 288.86 115.903 287.955 115.408C287.049 114.912 286.342 114.205 285.833 113.286C285.323 112.366 285.069 111.291 285.069 110.06C285.069 108.829 285.316 107.754 285.811 106.835C286.321 105.915 287.028 105.208 287.933 104.713C288.839 104.218 289.879 103.97 291.053 103.97C292.199 103.97 293.217 104.211 294.108 104.692C295 105.173 295.693 105.859 296.188 106.75C296.697 107.641 296.952 108.681 296.952 109.869ZM293.238 108.914C293.238 108.292 293.026 107.797 292.602 107.429C292.177 107.061 291.647 106.877 291.01 106.877C290.402 106.877 289.886 107.054 289.461 107.408C289.051 107.761 288.796 108.264 288.697 108.914H293.238ZM298.145 110.06C298.145 108.829 298.392 107.754 298.887 106.835C299.396 105.915 300.097 105.208 300.988 104.713C301.893 104.218 302.926 103.97 304.086 103.97C305.571 103.97 306.809 104.359 307.8 105.137C308.804 105.915 309.462 107.012 309.773 108.426H305.911C305.586 107.521 304.956 107.068 304.022 107.068C303.358 107.068 302.827 107.33 302.431 107.853C302.035 108.363 301.837 109.098 301.837 110.06C301.837 111.022 302.035 111.765 302.431 112.288C302.827 112.798 303.358 113.052 304.022 113.052C304.956 113.052 305.586 112.599 305.911 111.694H309.773C309.462 113.08 308.804 114.17 307.8 114.962C306.795 115.754 305.557 116.15 304.086 116.15C302.926 116.15 301.893 115.903 300.988 115.408C300.097 114.912 299.396 114.205 298.887 113.286C298.392 112.366 298.145 111.291 298.145 110.06ZM318.313 112.904V115.98H316.467C315.151 115.98 314.126 115.662 313.39 115.026C312.655 114.375 312.287 113.321 312.287 111.864V107.153H310.844V104.14H312.287V101.254H315.915V104.14H318.292V107.153H315.915V111.906C315.915 112.26 316 112.515 316.17 112.67C316.34 112.826 316.623 112.904 317.019 112.904H318.313Z" fill="#29333D"/>
<path d="M169.5 74C169.5 67.6487 174.649 62.5 181 62.5H456C462.351 62.5 467.5 67.6487 467.5 74V86.5H169.5V74Z" fill="white" stroke="#E54985"/>
<g clip-path="url(#clip1_2929_226955)">
<path d="M139.492 399.391H305.492C317.192 399.391 326.692 409.291 326.692 421.511V431.931C326.692 444.151 317.192 454.051 305.492 454.051H139.492V399.391Z" fill="#4080FF"/>
<path d="M323.052 431.931V421.511C323.052 409.291 313.562 399.391 301.852 399.391H305.452C317.152 399.391 326.652 409.291 326.652 421.511V431.931C326.652 444.151 317.152 454.051 305.452 454.051H301.852C313.562 454.051 323.052 444.151 323.052 431.931Z" fill="#26314A"/>
<path d="M314.899 431.931V421.511C314.899 409.291 305.409 399.391 293.699 399.391H297.299C309.009 399.391 318.499 409.291 318.499 421.511V431.931C318.499 444.151 309.009 454.051 297.299 454.051H293.699C305.409 454.051 314.899 444.151 314.899 431.931Z" fill="#26314A"/>
<path d="M179.93 431.931V421.511C179.93 409.291 170.44 399.391 158.73 399.391H162.33C174.04 399.391 183.53 409.291 183.53 421.511V431.931C183.53 444.151 174.04 454.051 162.33 454.051H158.77C170.44 454.051 179.93 444.151 179.93 431.931Z" fill="#26314A"/>
<path d="M171.77 431.931V421.511C171.77 409.291 162.28 399.391 150.57 399.391H154.17C165.88 399.391 175.37 409.291 175.37 421.511V431.931C175.37 444.151 165.88 454.051 154.17 454.051H150.57C162.29 454.051 171.77 444.151 171.77 431.931Z" fill="#26314A"/>
<path d="M43.2181 450.159V403.249H35.5781V399.359H149.928C161.638 399.359 171.128 409.259 171.128 421.479V431.899C171.128 444.119 161.638 454.019 149.928 454.019H35.5781V450.129L43.2181 450.159Z" fill="#4080FF"/>
<path d="M38.1323 450.161C38.1226 450.051 38.1226 449.941 38.1323 449.831C38.1478 449.53 38.225 449.235 38.3592 448.965C38.4934 448.695 38.6817 448.456 38.9123 448.261C39.1632 448.048 39.3647 447.783 39.5029 447.484C39.6411 447.186 39.7126 446.86 39.7126 446.531C39.7126 446.202 39.6411 445.877 39.5029 445.578C39.3647 445.279 39.1632 445.014 38.9123 444.801C38.6751 444.614 38.4834 444.376 38.3516 444.104C38.2198 443.832 38.1513 443.533 38.1513 443.231C38.1513 442.929 38.2198 442.631 38.3516 442.359C38.4834 442.087 38.6751 441.848 38.9123 441.661C39.1632 441.448 39.3647 441.183 39.5029 440.884C39.6411 440.586 39.7126 440.26 39.7126 439.931C39.7126 439.602 39.6411 439.277 39.5029 438.978C39.3647 438.679 39.1632 438.414 38.9123 438.201C38.6733 438.014 38.48 437.775 38.347 437.502C38.2141 437.229 38.145 436.93 38.145 436.626C38.145 436.323 38.2141 436.023 38.347 435.75C38.48 435.477 38.6733 435.238 38.9123 435.051C39.1632 434.838 39.3647 434.573 39.5029 434.274C39.6411 433.976 39.7126 433.65 39.7126 433.321C39.7126 432.992 39.6411 432.667 39.5029 432.368C39.3647 432.069 39.1632 431.804 38.9123 431.591C38.6751 431.404 38.4834 431.166 38.3516 430.894C38.2198 430.622 38.1513 430.323 38.1513 430.021C38.1513 429.719 38.2198 429.421 38.3516 429.149C38.4834 428.877 38.6751 428.638 38.9123 428.451C39.1632 428.238 39.3647 427.973 39.5029 427.674C39.6411 427.376 39.7126 427.05 39.7126 426.721C39.7126 426.392 39.6411 426.067 39.5029 425.768C39.3647 425.469 39.1632 425.204 38.9123 424.991C38.6751 424.804 38.4834 424.566 38.3516 424.294C38.2198 424.022 38.1513 423.723 38.1513 423.421C38.1513 423.119 38.2198 422.821 38.3516 422.549C38.4834 422.277 38.6751 422.038 38.9123 421.851C39.1632 421.638 39.3647 421.373 39.5029 421.074C39.6411 420.776 39.7126 420.45 39.7126 420.121C39.7126 419.792 39.6411 419.467 39.5029 419.168C39.3647 418.869 39.1632 418.604 38.9123 418.391C38.6733 418.204 38.48 417.965 38.347 417.692C38.2141 417.419 38.145 417.12 38.145 416.816C38.145 416.513 38.2141 416.213 38.347 415.94C38.48 415.667 38.6733 415.428 38.9123 415.241C39.1632 415.028 39.3647 414.763 39.5029 414.464C39.6411 414.166 39.7126 413.84 39.7126 413.511C39.7126 413.182 39.6411 412.857 39.5029 412.558C39.3647 412.259 39.1632 411.994 38.9123 411.781C38.6751 411.594 38.4834 411.356 38.3516 411.084C38.2198 410.812 38.1513 410.513 38.1513 410.211C38.1513 409.909 38.2198 409.611 38.3516 409.339C38.4834 409.067 38.6751 408.828 38.9123 408.641C39.1632 408.428 39.3647 408.163 39.5029 407.864C39.6411 407.566 39.7126 407.24 39.7126 406.911C39.7126 406.582 39.6411 406.257 39.5029 405.958C39.3647 405.659 39.1632 405.394 38.9123 405.181C38.6817 404.987 38.4934 404.747 38.3592 404.477C38.225 404.207 38.1478 403.912 38.1323 403.611C38.1226 403.501 38.1226 403.391 38.1323 403.281H150.212C159.802 403.281 167.572 411.391 167.572 421.401V432.041C167.572 442.041 159.802 450.161 150.212 450.161H38.1323Z" fill="white"/>
<path d="M167.298 435.099H38.8281V435.049C39.2155 434.697 39.4815 434.231 39.5881 433.719H167.488C167.448 434.189 167.378 434.639 167.298 435.099Z" fill="#DEE3FF"/>
<path d="M167.572 431.249H38.5716C38.2806 430.904 38.1149 430.47 38.1016 430.019C38.1016 430.019 38.1016 429.929 38.1016 429.879H167.572V431.249Z" fill="#DEE3FF"/>
<path d="M166.773 415.87H38.3828C38.5148 415.637 38.6798 415.425 38.8728 415.24C39.0974 415.027 39.2834 414.776 39.4228 414.5H166.263C166.443 414.95 166.603 415.4 166.773 415.87Z" fill="#DEE3FF"/>
<path d="M167.569 423.561H38.1094C38.1094 423.511 38.1094 423.471 38.1094 423.421C38.1227 422.97 38.2884 422.537 38.5794 422.191H167.579L167.569 423.561Z" fill="#DEE3FF"/>
<path d="M166.769 437.57C166.629 438.04 166.469 438.49 166.289 438.94H39.4189C39.2795 438.664 39.0935 438.413 38.8689 438.2C38.6759 438.015 38.5109 437.803 38.3789 437.57H166.769Z" fill="#DEE3FF"/>
<path d="M164.161 410.648C164.481 411.098 164.771 411.548 165.051 412.028H39.0511C38.9896 411.938 38.9192 411.855 38.8411 411.778C38.5016 411.475 38.2524 411.084 38.1211 410.648H164.161Z" fill="#DEE3FF"/>
<path d="M39.6578 406.809H160.468C161.023 407.235 161.554 407.692 162.058 408.179H39.2578C39.5356 407.777 39.676 407.296 39.6578 406.809Z" fill="#DEE3FF"/>
<path d="M167.297 418.34C167.377 418.8 167.447 419.25 167.487 419.72H39.6272C39.5205 419.207 39.2545 418.742 38.8672 418.39V418.34H167.297Z" fill="#DEE3FF"/>
<path d="M39.6578 446.632C39.676 446.144 39.5356 445.663 39.2578 445.262H162.058C161.554 445.748 161.023 446.205 160.468 446.632H39.6578Z" fill="#DEE3FF"/>
<path d="M164.16 442.79H38.1602C38.2915 442.354 38.5406 441.963 38.8802 441.66C38.9583 441.584 39.0287 441.5 39.0902 441.41H165.09C164.77 441.89 164.48 442.34 164.16 442.79Z" fill="#DEE3FF"/>
<path d="M39.5391 426.031H167.539V427.411H39.5391C39.7028 426.966 39.7028 426.477 39.5391 426.031Z" fill="#DEE3FF"/>
<path d="M195.409 418.922L186.779 424.922C186.48 425.127 186.235 425.401 186.066 425.722C185.897 426.042 185.809 426.399 185.809 426.762C185.809 427.124 185.897 427.481 186.066 427.802C186.235 428.122 186.48 428.397 186.779 428.602L195.409 434.602C195.783 434.856 196.226 434.992 196.679 434.992C197.132 434.992 197.574 434.856 197.949 434.602L206.579 428.602C206.878 428.397 207.122 428.122 207.291 427.802C207.46 427.481 207.549 427.124 207.549 426.762C207.549 426.399 207.46 426.042 207.291 425.722C207.122 425.401 206.878 425.127 206.579 424.922L197.949 418.922C197.574 418.667 197.132 418.531 196.679 418.531C196.226 418.531 195.783 418.667 195.409 418.922Z" fill="#26314A"/>
<path d="M300.581 418.922L291.951 424.922C291.652 425.127 291.407 425.401 291.238 425.722C291.069 426.042 290.98 426.399 290.98 426.762C290.98 427.124 291.069 427.481 291.238 427.802C291.407 428.122 291.652 428.397 291.951 428.602L300.581 434.602C300.955 434.856 301.398 434.992 301.851 434.992C302.303 434.992 302.746 434.856 303.121 434.602L311.741 428.602C312.04 428.397 312.284 428.122 312.453 427.802C312.622 427.481 312.711 427.124 312.711 426.762C312.711 426.399 312.622 426.042 312.453 425.722C312.284 425.401 312.04 425.127 311.741 424.922L303.121 418.922C302.746 418.667 302.303 418.531 301.851 418.531C301.398 418.531 300.955 418.667 300.581 418.922Z" fill="#26314A"/>
<path d="M276.858 417.109H221.268C217.198 417.109 213.898 420.409 213.898 424.479V428.969C213.898 433.04 217.198 436.339 221.268 436.339H276.858C280.929 436.339 284.228 433.04 284.228 428.969V424.479C284.228 420.409 280.929 417.109 276.858 417.109Z" stroke="#26314A" stroke-width="2.29" stroke-miterlimit="10"/>
<path d="M164.93 347H39.2C33.5774 347 28.1851 349.234 24.2093 353.209C20.2336 357.185 18 362.577 18 368.2V378.2C18 383.823 20.2336 389.215 24.2093 393.191C28.1851 397.166 33.5774 399.4 39.2 399.4H164.93V347Z" fill="#FF77B0"/>
<path d="M263.032 347H137.302C131.679 347 126.287 349.234 122.311 353.209C118.335 357.185 116.102 362.577 116.102 368.2V378.2C116.102 383.823 118.335 389.215 122.311 393.191C126.287 397.166 131.679 399.4 137.302 399.4H263.032V347Z" fill="#A02954"/>
<path d="M33.15 378.191V368.251C33.15 362.628 35.3836 357.236 39.3593 353.26C43.3351 349.284 48.7274 347.051 54.35 347.051H39.2C33.5774 347.051 28.1851 349.284 24.2093 353.26C20.2336 357.236 18 362.628 18 368.251V378.251C18 383.873 20.2336 389.266 24.2093 393.241C28.1851 397.217 33.5774 399.451 39.2 399.451H54.35C51.5609 399.451 48.7993 398.9 46.2232 397.831C43.6472 396.762 41.3075 395.195 39.3381 393.22C37.3687 391.245 35.8084 388.901 34.7465 386.322C33.6846 383.743 33.1421 380.98 33.15 378.191Z" fill="#A02954"/>
<path d="M285.521 395.66V350.73H293.151V347H152.501C146.878 347 141.486 349.234 137.51 353.209C133.534 357.185 131.301 362.577 131.301 368.2V378.2C131.301 383.823 133.534 389.215 137.51 393.191C141.486 397.166 146.878 399.4 152.501 399.4H293.151V395.67L285.521 395.66Z" fill="#FF77B0"/>
<path d="M290.599 395.659C290.61 395.556 290.61 395.452 290.599 395.349C290.582 395.057 290.503 394.772 290.369 394.512C290.235 394.252 290.047 394.022 289.819 393.839C289.571 393.64 289.371 393.389 289.233 393.102C289.096 392.816 289.024 392.502 289.024 392.184C289.024 391.866 289.096 391.552 289.233 391.266C289.371 390.98 289.571 390.728 289.819 390.529C290.059 390.359 290.254 390.134 290.389 389.873C290.523 389.612 290.594 389.323 290.594 389.029C290.594 388.735 290.523 388.446 290.389 388.185C290.254 387.924 290.059 387.699 289.819 387.529C289.571 387.329 289.371 387.077 289.233 386.789C289.095 386.502 289.024 386.188 289.024 385.869C289.024 385.55 289.095 385.236 289.233 384.949C289.371 384.661 289.571 384.409 289.819 384.209C290.059 384.039 290.254 383.814 290.389 383.553C290.523 383.292 290.594 383.003 290.594 382.709C290.594 382.415 290.523 382.126 290.389 381.865C290.254 381.604 290.059 381.379 289.819 381.209C289.571 381.009 289.371 380.757 289.233 380.469C289.095 380.182 289.024 379.868 289.024 379.549C289.024 379.23 289.095 378.916 289.233 378.629C289.371 378.341 289.571 378.089 289.819 377.889C290.059 377.719 290.254 377.494 290.389 377.233C290.523 376.972 290.594 376.683 290.594 376.389C290.594 376.095 290.523 375.806 290.389 375.545C290.254 375.284 290.059 375.059 289.819 374.889C289.571 374.689 289.371 374.437 289.233 374.149C289.095 373.862 289.024 373.548 289.024 373.229C289.024 372.911 289.095 372.596 289.233 372.309C289.371 372.021 289.571 371.769 289.819 371.569C290.059 371.399 290.254 371.174 290.389 370.913C290.523 370.652 290.594 370.363 290.594 370.069C290.594 369.775 290.523 369.486 290.389 369.225C290.254 368.964 290.059 368.739 289.819 368.569C289.571 368.369 289.371 368.117 289.233 367.829C289.095 367.542 289.024 367.228 289.024 366.909C289.024 366.59 289.095 366.276 289.233 365.989C289.371 365.701 289.571 365.449 289.819 365.249C290.059 365.079 290.254 364.854 290.389 364.593C290.523 364.332 290.594 364.043 290.594 363.749C290.594 363.455 290.523 363.166 290.389 362.905C290.254 362.644 290.059 362.419 289.819 362.249C289.571 362.049 289.371 361.797 289.233 361.509C289.095 361.222 289.024 360.908 289.024 360.589C289.024 360.27 289.095 359.956 289.233 359.669C289.371 359.381 289.571 359.129 289.819 358.929C290.059 358.759 290.254 358.534 290.389 358.273C290.523 358.012 290.594 357.723 290.594 357.429C290.594 357.135 290.523 356.846 290.389 356.585C290.254 356.324 290.059 356.099 289.819 355.929C289.571 355.729 289.371 355.477 289.233 355.189C289.095 354.902 289.024 354.588 289.024 354.269C289.024 353.95 289.095 353.636 289.233 353.349C289.371 353.061 289.571 352.809 289.819 352.609C290.048 352.426 290.236 352.198 290.371 351.937C290.505 351.677 290.583 351.391 290.599 351.099C290.609 350.996 290.609 350.892 290.599 350.789H152.219C147.615 350.789 143.2 352.618 139.944 355.874C136.688 359.129 134.859 363.545 134.859 368.149V378.359C134.859 382.963 136.688 387.379 139.944 390.634C143.2 393.89 147.615 395.719 152.219 395.719L290.599 395.659Z" fill="white"/>
<path d="M135.121 381.249H289.901C289.525 380.91 289.262 380.463 289.151 379.969H134.941C134.981 380.349 135.051 380.789 135.121 381.249Z" fill="#DEE3FF"/>
<path d="M134.859 377.539H290.169C290.458 377.212 290.624 376.795 290.639 376.359C290.644 376.312 290.644 376.265 290.639 376.219H134.859V377.539Z" fill="#DEE3FF"/>
<path d="M135.68 362.8H290.36C290.222 362.578 290.054 362.376 289.86 362.2C289.638 361.992 289.452 361.749 289.31 361.48H136.17C135.99 361.91 135.83 362.35 135.68 362.8Z" fill="#DEE3FF"/>
<path d="M134.859 370.172H290.619C290.624 370.125 290.624 370.078 290.619 370.032C290.604 369.596 290.438 369.178 290.149 368.852H134.859V370.172Z" fill="#DEE3FF"/>
<path d="M135.68 383.602C135.83 384.042 135.99 384.482 136.17 384.912H289.31C289.45 384.644 289.636 384.404 289.86 384.202C290.049 384.022 290.217 383.821 290.36 383.602H135.68Z" fill="#DEE3FF"/>
<path d="M138.259 357.789C137.949 358.219 137.649 358.659 137.379 359.109H289.649C289.714 359.028 289.784 358.951 289.859 358.879C290.197 358.591 290.446 358.213 290.579 357.789H138.259Z" fill="#DEE3FF"/>
<path d="M289.071 354.109H141.961C141.405 354.513 140.874 354.951 140.371 355.419H289.481C289.194 355.045 289.049 354.581 289.071 354.109Z" fill="#DEE3FF"/>
<path d="M135.121 365.172C135.051 365.602 134.981 366.042 134.941 366.482H289.111C289.221 365.99 289.483 365.545 289.861 365.212L135.121 365.172Z" fill="#DEE3FF"/>
<path d="M289.071 392.251C289.049 391.78 289.194 391.316 289.481 390.941H140.371C140.871 391.413 141.402 391.851 141.961 392.251H289.071Z" fill="#DEE3FF"/>
<path d="M138.259 388.601H290.579C290.446 388.181 290.196 387.806 289.859 387.521C289.779 387.441 289.719 387.361 289.649 387.281H137.379C137.649 387.731 137.949 388.171 138.259 388.601Z" fill="#DEE3FF"/>
<path d="M289.189 372.539H134.859V373.849H289.189C289.042 373.425 289.042 372.963 289.189 372.539Z" fill="#DEE3FF"/>
<path d="M179.661 380.41C173.821 380.41 172.361 378.32 172.371 374.57C172.381 370.82 171.771 367.25 167.771 366.48H143.621C152.921 372.48 146.411 380.48 149.091 387.4C151.091 392.51 157.721 390.11 162.801 393.2C163.832 393.809 164.706 394.652 165.351 395.66H192.771C193.381 387.69 190.051 380.41 179.661 380.41Z" fill="#DEE3FF"/>
<path d="M103.311 365.172H45.8906C42.9911 365.172 40.6406 367.522 40.6406 370.422V375.982C40.6406 378.881 42.9911 381.232 45.8906 381.232H103.311C106.21 381.232 108.561 378.881 108.561 375.982V370.422C108.561 367.522 106.21 365.172 103.311 365.172Z" fill="#A02954"/>
<path d="M42.8984 353.469H117.568" stroke="#A02954" stroke-width="1.14" stroke-linecap="round" stroke-linejoin="round"/>
<path d="M42.8984 392.93H117.568" stroke="#A02954" stroke-width="1.14" stroke-linecap="round" stroke-linejoin="round"/>
<path d="M287.928 399.672H43.0078" stroke="#26314A" stroke-width="1.14" stroke-miterlimit="10"/>
<path d="M143.621 366.48H167.771C172.031 367.2 173.771 370.48 174.901 373.9C176.031 377.32 178.151 379.26 183.991 379.26C197.101 379.26 202.551 389.9 202.551 399.03L189.771 394.62C189.771 394.62 185.371 403.39 178.581 407.54C178.101 399.06 177.051 393.82 171.021 390.99C164.991 388.16 159.021 390.36 155.521 385.67C150.711 379.25 154.771 371.98 143.621 366.48Z" fill="#3B4C73"/>
</g>
</g>
<defs>
<clipPath id="clip0_2929_226955">
<rect width="602" height="500" fill="white"/>
</clipPath>
<clipPath id="clip1_2929_226955">
<rect width="308.65" height="107.05" fill="white" transform="translate(18 347)"/>
</clipPath>
</defs>
</svg>
