<svg width="588" height="455" viewBox="0 0 588 455" fill="none" xmlns="http://www.w3.org/2000/svg">
<path d="M189.297 454.348C189.297 454.348 115.019 439.795 111.227 388.15C106.872 328.801 166.816 328.149 157.621 285.123C144.787 225.104 169.867 189.343 226.113 191.806C273.538 193.889 313.549 230.752 338.92 199.062C366.284 164.858 417.468 139.577 468.123 160.769C518.778 181.96 494.269 250.808 529.295 265.438C564.32 280.068 586.086 318.658 579.975 372.064C574.249 422.142 543.953 455.424 500.873 454.916C479.764 454.67 414.869 455.195 341.238 454.916C264.607 454.602 189.297 454.348 189.297 454.348Z" fill="#DEE3FF"/>
<path d="M420.835 453.762C412.585 454.342 379.265 454.872 385.165 426.652C388.165 412.242 380.505 410.652 373.095 403.382C365.685 396.112 366.575 392.532 368.845 384.582C371.115 376.632 360.905 379.342 358.925 367.372C356.945 355.402 364.425 345.372 377.345 345.442C390.265 345.512 387.345 358.912 391.585 363.872C395.825 368.832 402.325 364.262 406.635 376.062C410.945 387.862 404.635 394.912 412.935 399.522C414.593 400.483 416.145 401.616 417.565 402.902" stroke="#7189FF" stroke-miterlimit="10"/>
<path d="M406.965 421.661C400.572 408.661 393.822 395.847 386.715 383.221C384.302 378.954 381.862 374.704 379.395 370.471C379.345 370.385 379.279 370.311 379.2 370.251C379.121 370.191 379.032 370.147 378.936 370.122C378.84 370.097 378.741 370.091 378.643 370.105C378.545 370.118 378.45 370.151 378.365 370.201C378.28 370.25 378.205 370.317 378.145 370.395C378.086 370.474 378.042 370.564 378.017 370.66C377.992 370.755 377.986 370.855 377.999 370.953C378.013 371.051 378.045 371.145 378.095 371.231C386.095 384.831 393.665 398.651 400.805 412.691C402.445 415.917 404.068 419.161 405.675 422.421C406.095 423.291 407.395 422.531 406.965 421.661Z" fill="#7189FF"/>
<path d="M373.966 394.63L390.436 396.34L392.806 396.59C393.806 396.69 393.806 395.19 392.806 395.09L376.336 393.38L373.966 393.13C372.966 393.03 373.016 394.53 373.966 394.63Z" fill="#7189FF"/>
<path d="M380.548 385.078C380.629 385.657 380.532 386.247 380.269 386.769C380.007 387.291 379.591 387.72 379.078 387.999C378.564 388.278 377.978 388.394 377.397 388.331C376.816 388.269 376.268 388.03 375.826 387.647C375.385 387.264 375.07 386.756 374.926 386.19C374.781 385.624 374.812 385.027 375.016 384.479C375.219 383.931 375.585 383.458 376.064 383.124C376.544 382.79 377.114 382.61 377.698 382.608C378.403 382.559 379.099 382.791 379.634 383.254C380.168 383.717 380.497 384.373 380.548 385.078Z" stroke="#7189FF" stroke-miterlimit="10"/>
<path d="M386.894 362.889C386.609 363.376 386.185 363.767 385.677 364.013C385.169 364.259 384.599 364.348 384.04 364.27C383.481 364.192 382.958 363.949 382.537 363.573C382.116 363.197 381.816 362.704 381.676 362.157C381.535 361.61 381.56 361.034 381.747 360.502C381.935 359.969 382.276 359.504 382.728 359.166C383.18 358.828 383.722 358.631 384.286 358.602C384.85 358.572 385.41 358.71 385.894 358.999C386.541 359.384 387.009 360.009 387.196 360.738C387.384 361.467 387.275 362.24 386.894 362.889Z" stroke="#7189FF" stroke-miterlimit="10"/>
<path d="M398.369 427.499C398.475 428.224 398.357 428.964 398.03 429.619C397.704 430.275 397.185 430.815 396.543 431.167C395.9 431.519 395.166 431.666 394.438 431.589C393.709 431.512 393.022 431.214 392.468 430.735C391.914 430.256 391.52 429.619 391.339 428.909C391.157 428.2 391.197 427.451 391.453 426.765C391.708 426.079 392.168 425.487 392.77 425.07C393.371 424.652 394.086 424.429 394.819 424.429C395.695 424.371 396.559 424.661 397.224 425.236C397.888 425.81 398.3 426.623 398.369 427.499Z" stroke="#7189FF" stroke-miterlimit="10"/>
<path d="M381.816 355.591C381.832 355.767 381.811 355.943 381.754 356.11C381.698 356.277 381.607 356.431 381.488 356.561C381.369 356.691 381.225 356.795 381.063 356.866C380.902 356.937 380.728 356.974 380.551 356.974C380.375 356.974 380.201 356.937 380.039 356.866C379.878 356.795 379.733 356.691 379.614 356.561C379.495 356.431 379.405 356.277 379.348 356.11C379.292 355.943 379.271 355.767 379.286 355.591C379.314 355.275 379.46 354.981 379.694 354.767C379.928 354.552 380.234 354.434 380.551 354.434C380.869 354.434 381.174 354.552 381.409 354.767C381.643 354.981 381.788 355.275 381.816 355.591Z" stroke="#7189FF" stroke-miterlimit="10"/>
<path d="M469.378 451.022C462.548 446.152 461.868 415.252 489.868 409.022C504.168 405.832 501.868 398.672 504.768 389.462C507.668 380.252 511.278 379.582 519.468 378.332C527.658 377.082 521.468 365.922 531.218 359.462C540.968 353.002 553.978 352.512 558.838 366.632C562.948 378.582 551.298 383.852 548.918 389.412C546.538 394.972 553.458 402.482 545.028 410.862C536.598 419.242 527.578 412.932 527.468 421.812C527.358 430.692 523.468 446.872 514.858 450.202C504.268 454.292 474.768 454.862 469.378 451.022Z" stroke="#7189FF" stroke-miterlimit="10"/>
<path d="M478.896 454.501C482.696 449.971 486.636 445.561 490.436 441.031C499.85 429.851 509.04 418.487 518.006 406.941C524.493 398.581 530.866 390.131 537.126 381.591C537.696 380.811 536.396 380.061 535.836 380.831C525.31 395.277 514.426 409.421 503.186 423.261C496.18 431.927 489.036 440.497 481.756 448.971C480.456 450.481 479.116 451.971 477.836 453.481C477.216 454.221 478.276 455.281 478.896 454.541V454.501Z" fill="#7189FF"/>
<path d="M488.407 409.36C487.777 404.19 486.957 399.12 486.487 394.36C484.597 375.22 510.987 383.78 521.487 359.2C531.987 334.62 506.267 325.7 518.367 315.42C530.467 305.14 533.847 269.81 516.127 263.73C493.127 255.85 472.487 270.26 469.677 289.24C467.517 303.88 477.327 314.1 451.787 324.83C426.247 335.56 430.187 348.89 435.437 374.38C440.687 399.87 423.437 390.521 410.007 412.031C399.377 429.031 414.317 446.47 421.007 452.95L472.707 453.84" stroke="#7189FF" stroke-miterlimit="10"/>
<path d="M431.527 453.001L437.867 438.421C443.081 426.474 448.297 414.554 453.517 402.661C460.184 387.481 466.897 372.318 473.657 357.171C480.177 342.551 486.771 327.964 493.437 313.411C498.167 303.131 502.877 292.821 508.067 282.771L509.267 280.491C509.727 279.641 508.427 278.881 507.977 279.731C503.027 288.971 498.677 298.551 494.267 308.051C487.677 322.261 481.267 336.541 474.847 350.831C468.021 366.111 461.241 381.408 454.507 396.721C448.994 409.221 443.511 421.734 438.057 434.261C435.487 440.161 432.757 446.031 430.337 452.001C430.337 452.091 430.267 452.171 430.237 452.251C429.857 453.121 431.147 453.891 431.527 453.001Z" fill="#7189FF"/>
<path d="M478.625 345.371L508.995 343.691L513.295 343.451C514.295 343.391 514.295 341.891 513.295 341.951L482.925 343.631L478.625 343.871C477.625 343.921 477.625 345.421 478.625 345.371Z" fill="#7189FF"/>
<path d="M443.628 424.32L467.628 421.62L471.008 421.24C472.008 421.13 472.008 419.63 471.008 419.74L447.058 422.43L443.668 422.82C442.668 422.92 442.668 424.42 443.668 424.32H443.628Z" fill="#7189FF"/>
<path d="M440.377 337.622L447.257 353.082L458.257 377.712L460.767 383.342C461.167 384.222 462.457 383.462 462.067 382.582L455.177 367.122L444.177 342.502L441.687 336.862C441.297 335.982 440.007 336.752 440.397 337.622H440.377Z" fill="#7189FF"/>
<path d="M490.396 285.101C488.696 287.591 485.746 288.531 483.806 287.211C481.866 285.891 481.656 282.791 483.346 280.301C485.036 277.811 487.996 276.871 489.936 278.191C491.876 279.511 492.086 282.611 490.396 285.101Z" stroke="#7189FF" stroke-miterlimit="10"/>
<path d="M491.686 298.56C491.686 299.03 491.546 299.491 491.285 299.882C491.023 300.273 490.651 300.578 490.217 300.759C489.782 300.939 489.303 300.986 488.842 300.894C488.38 300.802 487.956 300.575 487.623 300.243C487.29 299.91 487.063 299.486 486.972 299.024C486.88 298.562 486.927 298.084 487.107 297.649C487.287 297.214 487.592 296.842 487.984 296.581C488.375 296.319 488.835 296.18 489.306 296.18C489.937 296.18 490.542 296.43 490.989 296.877C491.435 297.323 491.686 297.928 491.686 298.56Z" stroke="#7189FF" stroke-miterlimit="10"/>
<path d="M508.916 360.028C508.916 360.944 508.645 361.839 508.136 362.601C507.627 363.362 506.904 363.956 506.058 364.306C505.212 364.656 504.281 364.748 503.383 364.569C502.485 364.391 501.66 363.95 501.012 363.302C500.365 362.655 499.924 361.83 499.745 360.932C499.567 360.034 499.658 359.103 500.009 358.257C500.359 357.411 500.953 356.687 501.714 356.179C502.475 355.67 503.371 355.398 504.286 355.398C505.514 355.398 506.692 355.886 507.56 356.755C508.428 357.623 508.916 358.8 508.916 360.028Z" stroke="#7189FF" stroke-miterlimit="10"/>
<path d="M36.0841 454.959H515.628C522.107 454.959 528.585 455.051 535.064 454.959H535.925C536.21 454.959 536.483 454.858 536.685 454.678C536.887 454.497 537 454.253 537 453.998C537 453.743 536.887 453.499 536.685 453.319C536.483 453.139 536.21 453.038 535.925 453.038H56.3805C49.9019 453.038 43.4146 452.953 36.9359 453.038H36.0755C35.7902 453.038 35.5167 453.139 35.315 453.319C35.1133 453.499 35 453.743 35 453.998C35 454.253 35.1133 454.497 35.315 454.678C35.5167 454.858 35.7902 454.959 36.0755 454.959H36.0841Z" fill="#0F0D1D"/>
<g clip-path="url(#clip0_2929_227132)">
<path d="M52.3203 191.259V205.343C52.3203 206.757 52.884 208.113 53.8873 209.113C54.8907 210.113 56.2515 210.675 57.6704 210.675H182.79V185.938H57.6704C56.9684 185.936 56.2729 186.073 55.6239 186.339C54.9748 186.606 54.385 186.998 53.888 187.492C53.3911 187.986 52.9968 188.573 52.7278 189.22C52.4588 189.866 52.3203 190.559 52.3203 191.259Z" fill="#6980FF"/>
<path d="M118.871 191.259V205.343C118.871 206.757 119.435 208.113 120.438 209.113C121.441 210.113 122.802 210.675 124.221 210.675H182.788V185.938H124.221C123.519 185.936 122.824 186.073 122.175 186.339C121.526 186.606 120.936 186.998 120.439 187.492C119.942 187.986 119.548 188.573 119.279 189.22C119.01 189.866 118.871 190.559 118.871 191.259Z" fill="#DEE3FF"/>
<path d="M106.806 194.848H64.4141V201.346H106.806V194.848Z" stroke="#1D1141" stroke-linecap="round" stroke-linejoin="round"/>
<path d="M185.479 177.276V180.559C185.479 181.973 184.915 183.33 183.912 184.33C182.909 185.33 181.548 185.892 180.129 185.892H55.043V172H180.129C181.539 171.997 182.893 172.55 183.895 173.538C184.898 174.527 185.467 175.87 185.479 177.276Z" fill="#4080FF"/>
<path d="M118.915 177.276V180.559C118.916 181.259 118.779 181.952 118.512 182.599C118.244 183.246 117.851 183.834 117.355 184.329C116.859 184.824 116.27 185.217 115.622 185.485C114.973 185.754 114.278 185.892 113.576 185.892H55.043V172H113.576C114.985 171.997 116.338 172.55 117.338 173.539C118.339 174.528 118.906 175.872 118.915 177.276Z" fill="white"/>
<path d="M73.9688 254.399V295.428C73.9688 296.839 74.5312 298.193 75.5324 299.191C76.5337 300.189 77.8916 300.749 79.3075 300.749H214.594V249.066H79.3075C78.6055 249.066 77.9103 249.204 77.2618 249.473C76.6134 249.741 76.0243 250.134 75.5284 250.629C75.0325 251.124 74.6395 251.712 74.3719 252.359C74.1043 253.006 73.9673 253.699 73.9688 254.399Z" fill="#FF77B0"/>
<path d="M145.734 254.399V295.428C145.734 296.839 146.297 298.193 147.298 299.191C148.299 300.189 149.657 300.749 151.073 300.749H214.593V249.066H151.073C150.371 249.066 149.676 249.204 149.027 249.473C148.379 249.741 147.79 250.134 147.294 250.629C146.798 251.124 146.405 251.712 146.138 252.359C145.87 253.006 145.733 253.699 145.734 254.399Z" fill="#DEE3FF"/>
<path d="M136.195 256.777V281.855" stroke="#1D1141" stroke-linecap="round" stroke-linejoin="round"/>
<path d="M128.73 256.777V283.462" stroke="#1D1141" stroke-linecap="round" stroke-linejoin="round"/>
<path d="M196.418 226.649V243.744C196.418 244.444 196.279 245.137 196.01 245.783C195.741 246.43 195.347 247.017 194.85 247.511C194.353 248.005 193.763 248.397 193.114 248.664C192.465 248.931 191.77 249.067 191.068 249.066H58.8711V221.317H191.034C191.739 221.312 192.438 221.447 193.091 221.713C193.744 221.979 194.338 222.371 194.839 222.866C195.339 223.362 195.736 223.951 196.007 224.6C196.278 225.25 196.418 225.946 196.418 226.649Z" fill="#FFCD01"/>
<path d="M126.219 226.649V243.744C126.219 245.156 125.656 246.509 124.655 247.507C123.654 248.505 122.296 249.065 120.88 249.065H58.8711V221.316H120.88C122.297 221.319 123.655 221.883 124.656 222.882C125.657 223.882 126.219 225.237 126.219 226.649Z" fill="#DEE3FF"/>
<path d="M64.8359 227.293H120.257" stroke="white" stroke-linecap="round" stroke-linejoin="round"/>
<path d="M64.8359 231.867H120.257" stroke="white" stroke-linecap="round" stroke-linejoin="round"/>
<path d="M64.8359 236.453H120.257" stroke="white" stroke-linecap="round" stroke-linejoin="round"/>
<path d="M62.7656 215.997C62.7656 217.408 63.3281 218.762 64.3293 219.759C65.3305 220.757 66.6884 221.318 68.1044 221.318H200.267V210.676H68.0589C66.6509 210.688 65.3046 211.254 64.3132 212.25C63.3218 213.247 62.7656 214.593 62.7656 215.997Z" fill="#FF77B0"/>
<path d="M132.934 215.997C132.932 216.696 133.069 217.389 133.337 218.035C133.605 218.681 133.998 219.268 134.494 219.763C134.99 220.257 135.579 220.649 136.228 220.916C136.876 221.183 137.571 221.32 138.272 221.318H200.27V210.676H138.272C137.571 210.674 136.876 210.811 136.228 211.078C135.579 211.345 134.99 211.737 134.494 212.231C133.998 212.725 133.605 213.313 133.337 213.959C133.069 214.605 132.932 215.298 132.934 215.997Z" fill="white"/>
<path d="M66.5039 306.071V314.053C66.5039 314.753 66.6424 315.445 66.9114 316.092C67.1804 316.738 67.5746 317.325 68.0716 317.819C68.5686 318.314 69.1584 318.705 69.8075 318.972C70.4565 319.239 71.152 319.375 71.854 319.374H207.152V300.75H71.854C70.437 300.75 69.0779 301.31 68.0749 302.308C67.0719 303.305 66.5069 304.659 66.5039 306.071Z" fill="#1D1141"/>
<path d="M138.273 306.071V314.053C138.273 314.753 138.412 315.445 138.681 316.092C138.95 316.738 139.344 317.325 139.841 317.819C140.338 318.314 140.928 318.705 141.577 318.972C142.226 319.239 142.921 319.375 143.624 319.374H207.155V300.75H143.624C142.207 300.75 140.847 301.31 139.844 302.308C138.841 303.305 138.276 304.659 138.273 306.071Z" fill="#FF096F"/>
<path d="M57.5313 324.704V340.554C57.5298 341.253 57.6668 341.945 57.9346 342.592C58.2024 343.238 58.5956 343.825 59.0916 344.32C59.5877 344.814 60.1768 345.206 60.8252 345.473C61.4736 345.74 62.1685 345.876 62.87 345.875H202.586V319.371H62.87C62.168 319.371 61.4728 319.509 60.8243 319.777C60.1759 320.045 59.5868 320.438 59.0909 320.934C58.595 321.429 58.202 322.017 57.9344 322.664C57.6668 323.311 57.5298 324.004 57.5313 324.704Z" fill="#6980FF"/>
<path d="M131.523 324.704V340.554C131.522 341.253 131.659 341.945 131.927 342.592C132.195 343.238 132.588 343.825 133.084 344.32C133.58 344.814 134.169 345.206 134.817 345.473C135.466 345.74 136.161 345.876 136.862 345.875H202.54V319.371H136.862C136.16 319.371 135.465 319.509 134.817 319.777C134.168 320.045 133.579 320.438 133.083 320.934C132.587 321.429 132.194 322.017 131.927 322.664C131.659 323.311 131.522 324.004 131.523 324.704Z" fill="#FF096F"/>
<path d="M64.3242 351.252V353.233C64.3272 354.644 64.8907 355.995 65.8912 356.993C66.8918 357.99 68.248 358.551 69.663 358.554H209.379V345.965H69.663C68.2538 345.968 66.9028 346.525 65.9032 347.515C64.9036 348.505 64.3362 349.848 64.3242 351.252Z" fill="#FFCD01"/>
<path d="M138.316 351.252V353.233C138.319 354.644 138.883 355.995 139.883 356.993C140.884 357.99 142.24 358.551 143.655 358.554H209.344V345.965H143.655C142.246 345.968 140.895 346.525 139.895 347.515C138.896 348.505 138.328 349.848 138.316 351.252Z" fill="#FF096F"/>
<path d="M64.3242 363.876V374.065C64.3242 375.477 64.8863 376.832 65.8872 377.832C66.8881 378.831 68.246 379.395 69.663 379.398H209.379V358.555H69.663C68.248 358.558 66.8918 359.119 65.8912 360.117C64.8907 361.114 64.3272 362.465 64.3242 363.876Z" fill="#4080FF"/>
<path d="M138.316 363.876V374.065C138.316 375.477 138.878 376.832 139.879 377.832C140.88 378.831 142.238 379.395 143.655 379.398H209.344V358.555H143.655C142.24 358.558 140.884 359.119 139.883 360.117C138.883 361.114 138.319 362.465 138.316 363.876Z" fill="#DEE3FF"/>
<path d="M254.417 351.309V363.558C254.417 365.006 253.84 366.394 252.813 367.417C251.786 368.44 250.394 369.015 248.942 369.015H119.551V345.852H248.942C249.661 345.85 250.374 345.99 251.039 346.264C251.704 346.538 252.308 346.94 252.816 347.447C253.325 347.954 253.728 348.556 254.003 349.218C254.278 349.881 254.418 350.592 254.417 351.309Z" fill="#FFCD01"/>
<path d="M185.604 351.309V363.558C185.604 365.006 185.027 366.394 184 367.417C182.973 368.44 181.581 369.015 180.129 369.015H119.551V345.852H180.129C181.581 345.852 182.973 346.426 184 347.45C185.027 348.473 185.604 349.861 185.604 351.309Z" fill="white"/>
<path d="M124.867 351.082H180.288" stroke="#DEE3FF" stroke-linecap="round" stroke-linejoin="round"/>
<path d="M124.867 355.656H180.288" stroke="#DEE3FF" stroke-linecap="round" stroke-linejoin="round"/>
<path d="M101.25 281.625V297.701C101.25 298.419 101.392 299.13 101.668 299.792C101.944 300.455 102.348 301.057 102.858 301.564C103.367 302.071 103.972 302.473 104.638 302.746C105.303 303.02 106.016 303.16 106.736 303.158H230.788V276.168H106.736C106.016 276.166 105.303 276.307 104.638 276.58C103.972 276.854 103.367 277.255 102.858 277.762C102.348 278.269 101.944 278.871 101.668 279.534C101.392 280.197 101.25 280.907 101.25 281.625Z" fill="#FFCD01"/>
<path d="M167.352 281.625V297.701C167.352 298.419 167.494 299.13 167.769 299.792C168.045 300.455 168.45 301.057 168.959 301.564C169.469 302.071 170.074 302.473 170.739 302.746C171.405 303.02 172.118 303.16 172.838 303.158H230.769V276.168H172.838C172.118 276.166 171.405 276.307 170.739 276.58C170.074 276.854 169.469 277.255 168.959 277.762C168.45 278.269 168.045 278.871 167.769 279.534C167.494 280.197 167.352 280.907 167.352 281.625Z" fill="#DEE3FF"/>
<path d="M173.848 282.375H224.305" stroke="white" stroke-linecap="round" stroke-linejoin="round"/>
<path d="M173.848 286.949H224.305" stroke="white" stroke-linecap="round" stroke-linejoin="round"/>
<path d="M173.848 291.52H224.305" stroke="white" stroke-linecap="round" stroke-linejoin="round"/>
<path d="M159.141 281.852V298.132" stroke="#1D1141" stroke-linecap="round" stroke-linejoin="round"/>
<path d="M152.57 281.852V298.132" stroke="#1D1141" stroke-linecap="round" stroke-linejoin="round"/>
<path d="M250.818 340.387C250.819 341.104 250.679 341.815 250.404 342.478C250.13 343.142 249.727 343.745 249.218 344.253C248.71 344.761 248.106 345.164 247.441 345.438C246.776 345.713 246.063 345.855 245.343 345.855H108.637V334.93H245.343C246.795 334.93 248.187 335.505 249.214 336.528C250.241 337.551 250.818 338.939 250.818 340.387Z" fill="#4080FF"/>
<path d="M178.245 340.387C178.246 341.104 178.106 341.815 177.831 342.478C177.557 343.142 177.154 343.745 176.645 344.253C176.137 344.761 175.533 345.164 174.868 345.438C174.203 345.713 173.49 345.855 172.77 345.855H108.637V334.93H172.793C174.241 334.936 175.627 335.513 176.649 336.536C177.671 337.559 178.245 338.943 178.245 340.387Z" fill="#DEE3FF"/>
<path d="M255.727 308.606V329.46C255.727 330.907 255.15 332.295 254.123 333.319C253.096 334.342 251.704 334.917 250.252 334.917H113.5V303.16H250.252C251.702 303.16 253.093 303.734 254.119 304.754C255.145 305.775 255.724 307.16 255.727 308.606Z" fill="#6980FF"/>
<path d="M183.176 308.606V329.46C183.176 330.908 182.6 332.295 181.573 333.319C180.546 334.342 179.153 334.917 177.701 334.917H113.5V303.16H177.656C178.378 303.154 179.094 303.291 179.762 303.562C180.431 303.832 181.04 304.232 181.553 304.739C182.066 305.245 182.473 305.847 182.752 306.511C183.031 307.174 183.175 307.886 183.176 308.606Z" fill="white"/>
<path d="M119.551 309.465H174.972" stroke="#DEE3FF" stroke-linecap="round" stroke-linejoin="round"/>
<path d="M119.551 314.051H174.972" stroke="#DEE3FF" stroke-linecap="round" stroke-linejoin="round"/>
<path d="M119.555 318.625H174.975" stroke="#DEE3FF" stroke-linecap="round" stroke-linejoin="round"/>
<path d="M163.581 384.776V388.172C163.581 388.865 163.444 389.551 163.178 390.191C162.912 390.831 162.522 391.413 162.03 391.903C161.539 392.393 160.955 392.781 160.313 393.047C159.671 393.312 158.983 393.448 158.287 393.448H33.1562V379.5H158.287C159.691 379.5 161.038 380.056 162.03 381.045C163.023 382.035 163.581 383.377 163.581 384.776Z" fill="#FF77B0"/>
<path d="M97.0281 384.776V388.172C97.0281 389.572 96.4704 390.913 95.4778 391.903C94.4851 392.892 93.1387 393.448 91.7348 393.448H33.1562V379.5H91.7348C93.1387 379.5 94.4851 380.056 95.4778 381.045C96.4704 382.035 97.0281 383.377 97.0281 384.776Z" fill="#DEE3FF"/>
<path d="M171.261 398.713V412.888C171.261 414.288 170.704 415.631 169.711 416.622C168.719 417.614 167.373 418.172 165.968 418.175H28.3984V393.438H165.968C167.372 393.438 168.718 393.993 169.711 394.983C170.703 395.972 171.261 397.314 171.261 398.713Z" fill="#FF77B0"/>
<path d="M98.3701 398.713V412.888C98.3701 414.288 97.8128 415.631 96.8204 416.623C95.8281 417.614 94.4817 418.172 93.0768 418.175H28.3984V393.438H93.0541C93.7511 393.435 94.4419 393.569 95.0867 393.833C95.7316 394.096 96.3178 394.485 96.8117 394.975C97.3057 395.465 97.6976 396.048 97.965 396.689C98.2325 397.331 98.3701 398.019 98.3701 398.713Z" fill="#DEE3FF"/>
<path d="M33.4609 398.871H88.8703" stroke="white" stroke-linecap="round" stroke-linejoin="round"/>
<path d="M33.4609 403.445H88.8703" stroke="white" stroke-linecap="round" stroke-linejoin="round"/>
<path d="M33.4609 408.031H88.8703" stroke="white" stroke-linecap="round" stroke-linejoin="round"/>
<path d="M110.023 398.871V412.695" stroke="#1D1141" stroke-linecap="round" stroke-linejoin="round"/>
<path d="M116.395 398.871V412.695" stroke="#1D1141" stroke-linecap="round" stroke-linejoin="round"/>
<path d="M160.501 423.452V423.542C160.503 424.235 160.367 424.922 160.101 425.563C159.836 426.204 159.446 426.786 158.954 427.276C158.462 427.766 157.878 428.155 157.235 428.419C156.592 428.684 155.903 428.819 155.208 428.818H23V418.176H155.208C156.612 418.176 157.958 418.732 158.951 419.721C159.943 420.71 160.501 422.052 160.501 423.452Z" fill="#FFCD01"/>
<path d="M90.3477 423.452V423.542C90.3477 424.236 90.2105 424.923 89.9437 425.564C89.677 426.205 89.2861 426.787 88.7934 427.277C88.3006 427.767 87.7157 428.155 87.0722 428.42C86.4287 428.684 85.7392 428.819 85.0431 428.818H23V418.176H85.0999C86.4949 418.191 87.8279 418.753 88.8102 419.74C89.7924 420.728 90.3448 422.061 90.3477 423.452Z" fill="white"/>
<path d="M172.338 434.104V447.689C172.338 448.382 172.201 449.068 171.935 449.708C171.669 450.348 171.279 450.93 170.787 451.42C170.296 451.91 169.712 452.298 169.07 452.564C168.428 452.829 167.739 452.965 167.044 452.965H27.3281V428.816H167.044C168.449 428.819 169.796 429.378 170.788 430.369C171.78 431.36 172.338 432.703 172.338 434.104Z" fill="#FFCD01"/>
<path d="M98.3448 434.104V447.689C98.3448 448.382 98.2079 449.068 97.9419 449.708C97.6759 450.348 97.286 450.93 96.7945 451.42C96.3029 451.91 95.7194 452.298 95.0772 452.564C94.435 452.829 93.7467 452.965 93.0515 452.965H27.3281V428.816H93.0515C94.4564 428.819 95.8028 429.378 96.7952 430.369C97.7875 431.36 98.3448 432.703 98.3448 434.104Z" fill="#DEE3FF"/>
<path d="M133.969 433.594V448.38" stroke="#1D1141" stroke-linecap="round" stroke-linejoin="round"/>
<path d="M128.629 433.594V448.38" stroke="#1D1141" stroke-linecap="round" stroke-linejoin="round"/>
<path d="M123.289 433.594V448.38" stroke="#1D1141" stroke-linecap="round" stroke-linejoin="round"/>
<path d="M288.038 374.269V382.33C288.038 383.729 287.481 385.071 286.488 386.06C285.495 387.05 284.149 387.606 282.745 387.606H147.391V369.016H282.745C284.144 369.019 285.485 369.572 286.477 370.556C287.468 371.54 288.029 372.874 288.038 374.269Z" fill="#6980FF"/>
<path d="M216.275 374.269V382.33C216.275 383.729 215.717 385.071 214.725 386.06C213.732 387.05 212.386 387.606 210.982 387.606H147.371V369.016H210.982C212.381 369.019 213.722 369.572 214.713 370.556C215.705 371.54 216.266 372.874 216.275 374.269Z" fill="white"/>
<path d="M155.469 373.762H210.89" stroke="#DEE3FF" stroke-linecap="round" stroke-linejoin="round"/>
<path d="M155.469 378.336H210.89" stroke="#DEE3FF" stroke-linecap="round" stroke-linejoin="round"/>
<path d="M130.992 419.308V421.572C130.992 422.971 131.55 424.313 132.543 425.303C133.535 426.292 134.882 426.848 136.286 426.848H276.002V414.055H136.286C134.886 414.055 133.543 414.607 132.551 415.592C131.559 416.576 130.998 417.913 130.992 419.308Z" fill="#6980FF"/>
<path d="M204.984 419.308V421.572C204.984 422.265 205.121 422.951 205.387 423.591C205.653 424.231 206.043 424.813 206.535 425.303C207.026 425.793 207.61 426.181 208.252 426.446C208.894 426.712 209.583 426.848 210.278 426.848H276.001V414.055H210.278C208.878 414.055 207.535 414.607 206.543 415.592C205.551 416.576 204.99 417.913 204.984 419.308Z" fill="#DEE3FF"/>
<path d="M153.402 392.928V408.778C153.402 410.18 153.961 411.525 154.956 412.516C155.951 413.508 157.3 414.065 158.707 414.065H298.423V387.641H158.707C157.3 387.641 155.951 388.198 154.956 389.189C153.961 390.181 153.402 391.526 153.402 392.928Z" fill="#1D1141"/>
<path d="M227.395 392.928V408.778C227.395 410.18 227.953 411.525 228.948 412.516C229.943 413.508 231.292 414.065 232.699 414.065H298.423V387.641H232.699C231.292 387.641 229.943 388.198 228.948 389.189C227.953 390.181 227.395 391.526 227.395 392.928Z" fill="white"/>
<path d="M235.195 394.445H290.616" stroke="#DEE3FF" stroke-linecap="round" stroke-linejoin="round"/>
<path d="M235.199 399.02H290.62" stroke="#DEE3FF" stroke-linecap="round" stroke-linejoin="round"/>
<path d="M235.199 403.605H290.62" stroke="#DEE3FF" stroke-linecap="round" stroke-linejoin="round"/>
<path d="M209.336 396.527H164.695V404.588H209.336V396.527Z" stroke="white" stroke-linecap="round" stroke-linejoin="round"/>
<path d="M140.453 432.066V447.769C140.453 448.457 140.589 449.138 140.854 449.773C141.118 450.409 141.506 450.986 141.994 451.472C142.483 451.957 143.063 452.342 143.701 452.605C144.339 452.867 145.022 453.001 145.712 453H284.293V426.824H145.712C144.317 426.824 142.98 427.376 141.994 428.36C141.007 429.343 140.453 430.676 140.453 432.066Z" fill="#4080FF"/>
<path d="M213.867 432.066V447.769C213.87 449.157 214.426 450.488 215.412 451.468C216.398 452.449 217.734 453 219.126 453H284.339V426.824H219.138C218.446 426.823 217.761 426.957 217.122 427.22C216.482 427.483 215.901 427.869 215.412 428.356C214.922 428.842 214.534 429.421 214.269 430.057C214.004 430.694 213.867 431.377 213.867 432.066Z" fill="#DEE3FF"/>
<path d="M201.13 436.188H151.07V442.731H201.13V436.188Z" stroke="#1D1141" stroke-linecap="round" stroke-linejoin="round"/>
<path d="M229.578 437.748V447.723C229.578 448.416 229.715 449.102 229.981 449.742C230.247 450.382 230.637 450.963 231.128 451.453C231.62 451.943 232.204 452.332 232.846 452.597C233.488 452.862 234.176 452.999 234.871 452.999H359.991V432.473H234.871C233.468 432.473 232.121 433.028 231.128 434.018C230.136 435.007 229.578 436.349 229.578 437.748Z" fill="#FFCD01"/>
<path d="M296.129 437.748V447.723C296.129 449.122 296.687 450.464 297.679 451.453C298.672 452.443 300.018 452.999 301.422 452.999H359.989V432.473H301.422C300.018 432.473 298.672 433.028 297.679 434.018C296.687 435.007 296.129 436.349 296.129 437.748Z" fill="white"/>
<path d="M303.238 438.156H354.74" stroke="#DEE3FF" stroke-linecap="round" stroke-linejoin="round"/>
<path d="M303.238 442.742H354.74" stroke="#DEE3FF" stroke-linecap="round" stroke-linejoin="round"/>
<path d="M284.93 438.156V448.38" stroke="#1D1141" stroke-linecap="round" stroke-linejoin="round"/>
<path d="M279.691 438.156V448.38" stroke="#1D1141" stroke-linecap="round" stroke-linejoin="round"/>
</g>
<path d="M468.81 287.639H226.81C225.004 287.639 223.272 286.921 221.995 285.644C220.717 284.367 220 282.635 220 280.829V72.1889C220 70.3828 220.717 68.6506 221.995 67.3735C223.272 66.0964 225.004 65.3789 226.81 65.3789H512.57C514.376 65.3789 516.108 66.0964 517.385 67.3735C518.662 68.6506 519.38 70.3828 519.38 72.1889V265.579" stroke="#F2718D" stroke-miterlimit="10"/>
<path d="M260.918 100.084V102.991H256.971V114.98H253.343V102.991H249.396V100.084H260.918ZM270.018 103.013C271.376 103.013 272.465 103.465 273.286 104.371C274.106 105.262 274.516 106.493 274.516 108.063V114.98H270.909V108.551C270.909 107.759 270.704 107.143 270.294 106.705C269.883 106.266 269.332 106.047 268.638 106.047C267.945 106.047 267.394 106.266 266.983 106.705C266.573 107.143 266.368 107.759 266.368 108.551V114.98H262.739V99.2779H266.368V104.731C266.736 104.208 267.238 103.791 267.875 103.479C268.511 103.168 269.226 103.013 270.018 103.013ZM288.199 108.869C288.199 109.209 288.178 109.562 288.136 109.93H279.924C279.98 110.666 280.214 111.232 280.624 111.628C281.048 112.01 281.565 112.201 282.173 112.201C283.078 112.201 283.708 111.819 284.062 111.055H287.924C287.726 111.833 287.365 112.533 286.841 113.156C286.332 113.778 285.688 114.266 284.91 114.62C284.132 114.973 283.262 115.15 282.3 115.15C281.14 115.15 280.108 114.903 279.202 114.408C278.297 113.912 277.59 113.205 277.08 112.286C276.571 111.366 276.316 110.291 276.316 109.06C276.316 107.829 276.564 106.754 277.059 105.835C277.568 104.915 278.276 104.208 279.181 103.713C280.086 103.218 281.126 102.97 282.3 102.97C283.446 102.97 284.465 103.211 285.356 103.692C286.247 104.173 286.94 104.859 287.436 105.75C287.945 106.641 288.199 107.681 288.199 108.869ZM284.486 107.914C284.486 107.292 284.274 106.797 283.849 106.429C283.425 106.061 282.894 105.877 282.258 105.877C281.65 105.877 281.133 106.054 280.709 106.408C280.299 106.761 280.044 107.264 279.945 107.914H284.486ZM315.109 100.084L311.225 114.98H306.833L304.456 105.177L301.995 114.98H297.602L293.825 100.084H297.709L299.852 110.927L302.504 100.084H306.493L309.04 110.927L311.204 100.084H315.109ZM322.318 115.15C321.158 115.15 320.111 114.903 319.178 114.408C318.258 113.912 317.53 113.205 316.992 112.286C316.469 111.366 316.207 110.291 316.207 109.06C316.207 107.844 316.476 106.776 317.013 105.856C317.551 104.922 318.287 104.208 319.22 103.713C320.154 103.218 321.201 102.97 322.361 102.97C323.521 102.97 324.568 103.218 325.501 103.713C326.435 104.208 327.171 104.922 327.708 105.856C328.246 106.776 328.514 107.844 328.514 109.06C328.514 110.277 328.239 111.352 327.687 112.286C327.149 113.205 326.407 113.912 325.459 114.408C324.525 114.903 323.478 115.15 322.318 115.15ZM322.318 112.01C323.011 112.01 323.599 111.755 324.079 111.246C324.575 110.737 324.822 110.008 324.822 109.06C324.822 108.112 324.582 107.384 324.101 106.875C323.634 106.365 323.054 106.111 322.361 106.111C321.653 106.111 321.066 106.365 320.599 106.875C320.133 107.37 319.899 108.098 319.899 109.06C319.899 110.008 320.126 110.737 320.578 111.246C321.045 111.755 321.625 112.01 322.318 112.01ZM334.068 105.113C334.492 104.463 335.023 103.953 335.66 103.585C336.296 103.204 337.003 103.013 337.781 103.013V106.853H336.784C335.879 106.853 335.2 107.051 334.747 107.447C334.294 107.829 334.068 108.508 334.068 109.485V114.98H330.439V103.14H334.068V105.113ZM346.752 114.98L343.144 110.015V114.98H339.516V99.2779H343.144V107.957L346.731 103.14H351.208L346.285 109.081L351.25 114.98H346.752ZM357.45 115.15C356.417 115.15 355.498 114.973 354.691 114.62C353.885 114.266 353.249 113.785 352.782 113.177C352.315 112.554 352.053 111.861 351.997 111.097H355.583C355.625 111.508 355.816 111.84 356.156 112.095C356.495 112.349 356.912 112.477 357.408 112.477C357.86 112.477 358.207 112.392 358.447 112.222C358.702 112.038 358.829 111.805 358.829 111.522C358.829 111.182 358.652 110.935 358.299 110.779C357.945 110.609 357.372 110.425 356.58 110.227C355.731 110.029 355.024 109.824 354.458 109.612C353.892 109.386 353.404 109.039 352.994 108.572C352.584 108.091 352.378 107.447 352.378 106.641C352.378 105.962 352.562 105.347 352.93 104.795C353.312 104.229 353.864 103.784 354.585 103.458C355.321 103.133 356.191 102.97 357.195 102.97C358.681 102.97 359.848 103.338 360.697 104.074C361.56 104.809 362.055 105.785 362.182 107.002H358.829C358.773 106.592 358.589 106.266 358.278 106.026C357.981 105.785 357.584 105.665 357.089 105.665C356.665 105.665 356.34 105.75 356.113 105.92C355.887 106.075 355.774 106.295 355.774 106.577C355.774 106.917 355.95 107.172 356.304 107.341C356.672 107.511 357.238 107.681 358.002 107.851C358.879 108.077 359.593 108.303 360.145 108.53C360.697 108.742 361.178 109.096 361.588 109.591C362.012 110.072 362.232 110.722 362.246 111.543C362.246 112.236 362.048 112.858 361.652 113.41C361.27 113.948 360.711 114.372 359.975 114.683C359.254 114.995 358.412 115.15 357.45 115.15ZM368.094 104.816C368.448 104.265 368.936 103.819 369.558 103.479C370.181 103.14 370.909 102.97 371.744 102.97C372.72 102.97 373.604 103.218 374.396 103.713C375.189 104.208 375.811 104.915 376.264 105.835C376.731 106.754 376.964 107.822 376.964 109.039C376.964 110.256 376.731 111.331 376.264 112.264C375.811 113.184 375.189 113.898 374.396 114.408C373.604 114.903 372.72 115.15 371.744 115.15C370.923 115.15 370.195 114.98 369.558 114.641C368.936 114.301 368.448 113.863 368.094 113.325V120.625H364.466V103.14H368.094V104.816ZM373.272 109.039C373.272 108.134 373.017 107.426 372.508 106.917C372.013 106.394 371.397 106.132 370.662 106.132C369.94 106.132 369.325 106.394 368.816 106.917C368.321 107.44 368.073 108.155 368.073 109.06C368.073 109.966 368.321 110.68 368.816 111.203C369.325 111.727 369.94 111.988 370.662 111.988C371.383 111.988 371.999 111.727 372.508 111.203C373.017 110.666 373.272 109.944 373.272 109.039ZM378.146 109.039C378.146 107.822 378.373 106.754 378.825 105.835C379.292 104.915 379.922 104.208 380.714 103.713C381.506 103.218 382.39 102.97 383.366 102.97C384.201 102.97 384.929 103.14 385.552 103.479C386.188 103.819 386.677 104.265 387.016 104.816V103.14H390.645V114.98H387.016V113.304C386.662 113.856 386.167 114.301 385.531 114.641C384.908 114.98 384.18 115.15 383.345 115.15C382.383 115.15 381.506 114.903 380.714 114.408C379.922 113.898 379.292 113.184 378.825 112.264C378.373 111.331 378.146 110.256 378.146 109.039ZM387.016 109.06C387.016 108.155 386.761 107.44 386.252 106.917C385.757 106.394 385.149 106.132 384.427 106.132C383.706 106.132 383.09 106.394 382.581 106.917C382.086 107.426 381.838 108.134 381.838 109.039C381.838 109.944 382.086 110.666 382.581 111.203C383.09 111.727 383.706 111.988 384.427 111.988C385.149 111.988 385.757 111.727 386.252 111.203C386.761 110.68 387.016 109.966 387.016 109.06ZM392.548 109.06C392.548 107.829 392.796 106.754 393.291 105.835C393.8 104.915 394.5 104.208 395.392 103.713C396.297 103.218 397.33 102.97 398.49 102.97C399.975 102.97 401.213 103.359 402.203 104.137C403.208 104.915 403.865 106.012 404.177 107.426H400.315C399.989 106.521 399.36 106.068 398.426 106.068C397.761 106.068 397.231 106.33 396.835 106.853C396.439 107.363 396.241 108.098 396.241 109.06C396.241 110.022 396.439 110.765 396.835 111.288C397.231 111.798 397.761 112.052 398.426 112.052C399.36 112.052 399.989 111.599 400.315 110.694H404.177C403.865 112.08 403.208 113.17 402.203 113.962C401.199 114.754 399.961 115.15 398.49 115.15C397.33 115.15 396.297 114.903 395.392 114.408C394.5 113.912 393.8 113.205 393.291 112.286C392.796 111.366 392.548 110.291 392.548 109.06ZM417.279 108.869C417.279 109.209 417.258 109.562 417.216 109.93H409.004C409.06 110.666 409.294 111.232 409.704 111.628C410.128 112.01 410.645 112.201 411.253 112.201C412.158 112.201 412.788 111.819 413.141 111.055H417.003C416.805 111.833 416.445 112.533 415.921 113.156C415.412 113.778 414.768 114.266 413.99 114.62C413.212 114.973 412.342 115.15 411.38 115.15C410.22 115.15 409.187 114.903 408.282 114.408C407.377 113.912 406.669 113.205 406.16 112.286C405.651 111.366 405.396 110.291 405.396 109.06C405.396 107.829 405.644 106.754 406.139 105.835C406.648 104.915 407.355 104.208 408.261 103.713C409.166 103.218 410.206 102.97 411.38 102.97C412.526 102.97 413.545 103.211 414.436 103.692C415.327 104.173 416.02 104.859 416.515 105.75C417.025 106.641 417.279 107.681 417.279 108.869ZM413.566 107.914C413.566 107.292 413.354 106.797 412.929 106.429C412.505 106.061 411.974 105.877 411.338 105.877C410.729 105.877 410.213 106.054 409.789 106.408C409.378 106.761 409.124 107.264 409.025 107.914H413.566Z" fill="#29333D"/>
<path d="M519.383 70.3127V85H220.383V70.3127C220.383 67.3806 222.892 65 225.994 65H513.772C516.882 65 519.383 67.3806 519.383 70.3127Z" fill="white" stroke="#E54985" stroke-miterlimit="10"/>
<path d="M259.59 138.5H480.55C486.36 138.5 491.07 143.21 491.07 149.02V155.98C491.07 161.79 486.36 166.5 480.55 166.5H259.59C253.78 166.5 249.07 161.79 249.07 155.98V149.02C249.07 143.21 253.78 138.5 259.59 138.5Z" fill="white" stroke="#F2718D"/>
<path d="M480.55 191H259.59C253.504 191 248.57 195.934 248.57 202.02V232.98C248.57 239.066 253.504 244 259.59 244H480.55C486.636 244 491.57 239.066 491.57 232.98V202.02C491.57 195.934 486.636 191 480.55 191Z" stroke="#F2718D" stroke-miterlimit="10"/>
<path d="M327.048 401.941L330.408 431.891L311.118 433.991L308.438 401.941H327.048Z" fill="#B86955"/>
<path d="M368.726 453.361L307.126 453.081L304.836 418.391L334.456 419.731L338.386 433.681L368.726 453.361Z" fill="#130047"/>
<path d="M350.177 438.131L346.817 445.251L346.347 446.251C346.007 446.971 347.087 447.611 347.427 446.881L350.777 439.761L351.247 438.761C351.597 438.041 350.517 437.401 350.177 438.131Z" fill="white"/>
<path d="M344.526 435.119L341.176 442.239L340.706 443.239C340.366 443.959 341.436 444.599 341.786 443.869L345.136 436.749L345.606 435.749C345.946 435.029 344.866 434.389 344.526 435.119Z" fill="white"/>
<path d="M319.179 453.131C320.122 451.471 320.58 449.579 320.499 447.671C320.316 444.818 319.011 442.153 316.869 440.258C314.728 438.364 311.923 437.394 309.069 437.561C308.639 437.561 306.729 437.771 306.309 437.841L306.469 438.591C306.909 438.511 308.649 438.281 309.099 438.271C311.761 438.115 314.377 439.02 316.374 440.787C318.372 442.554 319.589 445.04 319.759 447.701C319.845 449.613 319.35 451.507 318.339 453.131H319.179Z" fill="#EFEFEF"/>
<path d="M341.397 324.13C336.307 300.67 319.007 300.59 319.007 300.59L233.727 295.59C233.727 295.59 234.297 322.17 251.007 334.79C261.647 342.79 294.807 339.79 294.807 339.79L293.807 327.7L300.607 412H341.377C341.377 412 346.477 347.58 341.397 324.13Z" fill="#0A4DD0"/>
<path d="M341.398 412.009H300.628L293.828 327.699" stroke="#7189FF" stroke-miterlimit="10" stroke-linecap="round"/>
<path d="M233.727 295.609C233.727 295.609 234.297 322.189 251.007 334.809C261.647 342.809 294.807 339.809 294.807 339.809" stroke="#7189FF" stroke-miterlimit="10" stroke-linecap="round"/>
<path d="M299.629 399.578H342.229" stroke="#16004D" stroke-miterlimit="10" stroke-linecap="round"/>
<path d="M296.458 401.941L299.828 431.891L280.528 433.991L277.848 401.941H296.458Z" fill="#B86955"/>
<path d="M338.138 453.361L276.548 453.081L274.258 418.391L303.868 419.731L307.798 433.681L338.138 453.361Z" fill="#130047"/>
<path d="M319.599 438.131L316.249 445.251L315.769 446.251C315.429 446.971 316.509 447.611 316.849 446.881L320.199 439.761L320.679 438.761C321.019 438.041 319.939 437.401 319.599 438.131Z" fill="white"/>
<path d="M313.95 435.119L310.59 442.239L310.12 443.239C309.78 443.959 310.86 444.599 311.2 443.869L314.55 436.749L315.02 435.749C315.37 435.029 314.29 434.389 313.95 435.119Z" fill="white"/>
<path d="M288.597 453.131C289.537 451.47 289.991 449.578 289.907 447.671C289.726 444.819 288.424 442.154 286.284 440.259C284.143 438.364 281.34 437.394 278.487 437.561C278.057 437.561 276.137 437.771 275.727 437.841L275.887 438.591C276.317 438.511 278.067 438.281 278.517 438.271C281.178 438.118 283.793 439.023 285.79 440.79C287.787 442.556 289.004 445.041 289.177 447.701C289.253 449.612 288.759 451.503 287.757 453.131H288.597Z" fill="#EFEFEF"/>
<path d="M303.867 419.73L307.797 433.68L338.697 453.36" stroke="white" stroke-width="0.75" stroke-miterlimit="10" stroke-linecap="round"/>
<path d="M310.807 324.13C305.727 300.67 288.417 300.59 288.417 300.59L203.137 295.59C203.137 295.59 200.877 328.35 218.037 340.34C232.177 350.24 264.757 346.5 264.757 346.5L263.237 327.72L270.037 412.02H310.807C310.807 412.02 315.887 347.58 310.807 324.13Z" fill="#0A4DD0"/>
<path d="M288.418 300.59C288.418 300.59 305.728 300.67 310.808 324.13C315.888 347.59 310.808 412.01 310.808 412.01H270.038L263.508 331.01" stroke="#16004D" stroke-miterlimit="10" stroke-linecap="round"/>
<path d="M269.039 399.578H311.649" stroke="#16004D" stroke-miterlimit="10" stroke-linecap="round"/>
<path d="M286.469 214.501C286.469 214.501 296.099 195.881 297.979 192.641C299.859 189.401 302.099 187.401 303.239 188.641C304.379 189.881 303.239 194.041 303.239 194.041C303.239 194.041 307.239 187.591 309.189 185.281C311.139 182.971 314.189 182.431 312.759 186.431C312.759 186.431 314.629 183.361 316.109 183.791C317.589 184.221 316.189 186.791 314.819 188.291C314.819 188.291 317.449 184.501 318.769 185.191C320.089 185.881 318.769 188.191 317.209 190.191C317.209 190.191 319.039 187.331 320.529 188.051C322.019 188.771 320.179 191.501 318.179 195.011C316.179 198.521 312.569 203.691 310.719 207.251C309.319 209.941 305.349 218.251 305.349 218.251L304.589 220.251L286.469 214.501Z" fill="#B86955"/>
<path d="M302.797 188.309C302.797 188.309 303.687 188.439 303.687 190.729C303.687 193.019 302.747 196.309 303.237 198.259C303.727 200.209 302.797 203.259 302.797 203.259" stroke="#903E3E" stroke-width="0.75" stroke-miterlimit="10" stroke-linecap="round"/>
<path d="M307.617 193.901L313.717 185.211" stroke="#903E3E" stroke-width="0.75" stroke-miterlimit="10" stroke-linecap="round"/>
<path d="M309.688 195.009L316.017 186.629" stroke="#903E3E" stroke-width="0.75" stroke-miterlimit="10" stroke-linecap="round"/>
<path d="M312.27 196.472L318.39 188.762" stroke="#903E3E" stroke-width="0.75" stroke-miterlimit="10" stroke-linecap="round"/>
<path d="M287.18 209.6L263.66 238.42L267.04 234.28L238.32 207.93C238.32 207.93 240.18 256.82 241.43 263.06C242.68 269.3 261.43 283.65 282.66 272.81C303.89 261.97 308.43 219.81 308.43 219.81L287.18 209.6Z" fill="#F2718D"/>
<path d="M281.359 216.722L306.669 230.122C307.959 224.022 308.419 219.812 308.419 219.812L287.179 209.602L281.359 216.722Z" stroke="#16004D" stroke-miterlimit="10" stroke-linecap="round"/>
<path d="M306.079 218.82L303.359 228.15" stroke="#16004D" stroke-miterlimit="10" stroke-linecap="round"/>
<path d="M302.798 217.109C302.678 217.219 299.168 226.109 299.168 226.109" stroke="#16004D" stroke-miterlimit="10" stroke-linecap="round"/>
<path d="M299.029 215.301L294.539 223.491" stroke="#16004D" stroke-miterlimit="10" stroke-linecap="round"/>
<path d="M295.019 213.371L290.449 221.311" stroke="#16004D" stroke-miterlimit="10" stroke-linecap="round"/>
<path d="M286.059 219.198L290.769 211.648" stroke="#16004D" stroke-miterlimit="10" stroke-linecap="round"/>
<path d="M308.418 219.812L287.168 209.602L263.648 238.432" stroke="#16004D" stroke-miterlimit="10" stroke-linecap="round"/>
<path d="M267.029 234.28L238.309 207.93" stroke="#16004D" stroke-miterlimit="10" stroke-linecap="round"/>
<path d="M228.46 202.719C228.46 202.719 248.61 204.279 257.68 231.179C266.75 258.079 272.07 298.629 272.07 298.629L192.76 300.889C192.76 300.889 186.41 209.909 228.46 202.719Z" fill="#F2718D" stroke="#16004D" stroke-miterlimit="10"/>
<path d="M250.909 281.012L280.159 288.342L291.929 298.372H238.699L250.909 281.012Z" fill="#B86955"/>
<path d="M272.848 290.34L283.698 291.18" stroke="#903E3E" stroke-width="0.75" stroke-miterlimit="10" stroke-linecap="round"/>
<path d="M273.641 294.641L287.371 294.931" stroke="#903E3E" stroke-width="0.75" stroke-miterlimit="10" stroke-linecap="round"/>
<path d="M257.789 275.59L214.579 262.38L218.579 233.06L221.279 203.57C221.279 203.57 202.909 207.7 185.429 234.07C181.961 239.415 178.796 244.951 175.949 250.65C164.249 274.24 165.569 284.78 171.139 291.25C174.939 295.68 180.569 298.37 190.519 298.37H258.519L257.789 275.59Z" fill="#F2718D"/>
<path d="M202.529 258.699L257.789 275.589L258.519 298.369H190.519C172.799 298.369 164.829 289.369 168.319 271.699" stroke="#16004D" stroke-miterlimit="10" stroke-linecap="round"/>
<path d="M211.008 261.288L219.838 237.898" stroke="#16004D" stroke-miterlimit="10" stroke-linecap="round"/>
<path d="M248.711 272.809V298.369" stroke="#16004D" stroke-miterlimit="10" stroke-linecap="round"/>
<path d="M248.711 277.68L257.501 278.56" stroke="#16004D" stroke-miterlimit="10" stroke-linecap="round"/>
<path d="M248.949 282.988L257.949 283.408" stroke="#16004D" stroke-miterlimit="10" stroke-linecap="round"/>
<path d="M248.711 287.711L258.081 287.841" stroke="#16004D" stroke-miterlimit="10" stroke-linecap="round"/>
<path d="M248.711 291.93L258.211 292.04" stroke="#16004D" stroke-miterlimit="10" stroke-linecap="round"/>
<path d="M248.711 295.32H258.421" stroke="#16004D" stroke-miterlimit="10" stroke-linecap="round"/>
<path d="M236.998 203.341C235.588 202.341 232.228 199.561 231.148 199.651C230.068 199.741 225.348 197.871 222.298 201.421C218.618 205.711 216.928 212.671 220.208 216.761C222.828 220.001 228.348 218.681 232.208 216.161C236.378 218.161 240.848 217.671 242.838 214.791C245.178 211.441 241.648 206.551 236.998 203.341Z" fill="white" stroke="#16004D" stroke-miterlimit="10"/>
<path d="M238.726 169.32H231.586C226.846 169.32 222.966 173.74 222.966 179.15V182.55C221.999 181.864 220.842 181.494 219.656 181.49C218.771 181.493 217.899 181.703 217.11 182.105C216.321 182.507 215.638 183.089 215.116 183.804C214.594 184.519 214.248 185.347 214.105 186.221C213.962 187.094 214.027 187.99 214.295 188.833C214.562 189.677 215.024 190.447 215.644 191.079C216.264 191.711 217.023 192.188 217.862 192.472C218.7 192.756 219.594 192.839 220.47 192.713C221.347 192.588 222.181 192.258 222.906 191.75L222.996 191.81V204.01C223.012 205.316 223.537 206.563 224.46 207.486C225.383 208.409 226.631 208.935 227.936 208.95H231.076C232.382 208.935 233.629 208.409 234.552 207.486C235.475 206.563 236.001 205.316 236.016 204.01V200.01H238.726C243.476 200.01 247.356 195.59 247.356 190.19V179.15C247.356 173.74 243.476 169.32 238.726 169.32Z" fill="#B86955"/>
<path d="M222.727 187.87C222.727 187.87 222.977 184.05 219.047 184.47" stroke="#903E3E" stroke-miterlimit="10" stroke-linecap="round"/>
<path d="M233.078 182.758C233.078 183.077 233.173 183.388 233.349 183.653C233.526 183.918 233.778 184.124 234.072 184.246C234.366 184.368 234.69 184.4 235.002 184.337C235.315 184.275 235.601 184.122 235.827 183.897C236.052 183.672 236.205 183.385 236.267 183.073C236.329 182.76 236.297 182.437 236.176 182.142C236.054 181.848 235.847 181.597 235.583 181.42C235.318 181.243 235.007 181.148 234.688 181.148C234.261 181.148 233.852 181.318 233.55 181.62C233.248 181.922 233.078 182.331 233.078 182.758Z" fill="black"/>
<path d="M243.609 182.499C243.607 182.773 243.687 183.041 243.838 183.269C243.989 183.498 244.204 183.676 244.457 183.782C244.709 183.888 244.988 183.916 245.256 183.863C245.525 183.81 245.772 183.678 245.965 183.485C246.159 183.291 246.29 183.044 246.343 182.776C246.396 182.507 246.368 182.229 246.262 181.976C246.157 181.724 245.978 181.508 245.75 181.357C245.521 181.206 245.253 181.127 244.979 181.129C244.617 181.132 244.27 181.277 244.014 181.533C243.757 181.789 243.612 182.136 243.609 182.499Z" fill="black"/>
<path d="M227.477 188.68C227.477 189.471 227.711 190.244 228.151 190.902C228.59 191.56 229.215 192.072 229.946 192.375C230.677 192.678 231.481 192.757 232.257 192.603C233.033 192.449 233.746 192.068 234.305 191.508C234.864 190.949 235.245 190.236 235.4 189.46C235.554 188.684 235.475 187.88 235.172 187.149C234.869 186.418 234.357 185.793 233.699 185.354C233.041 184.914 232.268 184.68 231.477 184.68C230.416 184.68 229.398 185.101 228.648 185.851C227.898 186.601 227.477 187.619 227.477 188.68Z" fill="#B25555"/>
<path d="M246.631 185.629C246.867 185.633 247.102 185.663 247.331 185.719V189.869C247.346 190.472 247.299 191.075 247.191 191.669C247.006 191.7 246.819 191.717 246.631 191.719C245.823 191.719 245.049 191.398 244.478 190.827C243.907 190.256 243.586 189.481 243.586 188.674C243.586 187.866 243.907 187.092 244.478 186.521C245.049 185.95 245.823 185.629 246.631 185.629Z" fill="#B25555"/>
<path d="M232.478 180.502C233.263 180.079 234.091 179.744 234.948 179.502C235.037 179.468 235.111 179.403 235.154 179.319C235.197 179.234 235.207 179.137 235.182 179.045C235.157 178.954 235.098 178.875 235.018 178.824C234.938 178.774 234.842 178.755 234.748 178.772C233.833 179.044 232.946 179.402 232.098 179.842C232.026 179.898 231.977 179.979 231.96 180.069C231.943 180.16 231.959 180.253 232.005 180.332C232.051 180.412 232.125 180.471 232.212 180.501C232.299 180.53 232.394 180.527 232.478 180.492V180.502Z" fill="#903E3E"/>
<path d="M243.581 180.141C244.47 180.109 245.36 180.153 246.241 180.271C246.338 180.293 246.439 180.277 246.524 180.227C246.61 180.177 246.673 180.096 246.701 180.001C246.726 179.906 246.712 179.805 246.664 179.719C246.615 179.633 246.535 179.569 246.441 179.541C245.493 179.411 244.537 179.361 243.581 179.391C243.482 179.394 243.388 179.435 243.319 179.506C243.25 179.577 243.211 179.672 243.211 179.771C243.211 179.869 243.25 179.963 243.319 180.033C243.389 180.102 243.483 180.141 243.581 180.141Z" fill="#903E3E"/>
<path d="M239.82 181.269C240.336 182.785 241.059 184.223 241.97 185.539L242.11 185.029C241.445 185.306 240.751 185.504 240.04 185.619C239.993 185.632 239.948 185.654 239.909 185.684C239.87 185.714 239.838 185.752 239.813 185.795C239.789 185.838 239.774 185.885 239.768 185.934C239.762 185.983 239.766 186.032 239.78 186.079C239.81 186.173 239.874 186.251 239.959 186.299C240.045 186.347 240.145 186.362 240.24 186.339C241.015 186.211 241.771 185.986 242.49 185.669C242.532 185.645 242.569 185.612 242.599 185.573C242.628 185.534 242.65 185.489 242.662 185.442C242.674 185.394 242.676 185.345 242.669 185.296C242.662 185.248 242.645 185.201 242.62 185.159C241.738 183.902 241.041 182.525 240.55 181.069C240.39 180.609 239.67 180.809 239.82 181.269Z" fill="#903E3E"/>
<path d="M219.658 165.86C225.448 160.02 233.848 159.55 241.658 164.24C249.468 168.93 249.308 176.62 248.838 177.72C248.734 178.051 248.541 178.348 248.28 178.577C248.019 178.806 247.7 178.959 247.358 179.02C245.975 179.053 244.593 178.885 243.258 178.52C237.018 177.19 233.078 171.79 233.078 171.79C233.078 171.79 233.608 172.79 231.478 177.28C229.888 180.67 225.838 182.76 223.778 183.63C223.287 183.011 222.673 182.501 221.974 182.133C221.275 181.764 220.507 181.545 219.718 181.49C218.305 181.55 216.949 182.062 215.848 182.95C214.268 179.88 214.318 171.24 219.658 165.86Z" fill="#0F0D1D"/>
<path d="M242.38 191.119C242.38 191.676 242.158 192.21 241.765 192.604C241.371 192.998 240.837 193.219 240.28 193.219C239.723 193.219 239.189 192.998 238.795 192.604C238.401 192.21 238.18 191.676 238.18 191.119C238.165 191.03 238.119 190.95 238.051 190.891C237.982 190.833 237.895 190.801 237.805 190.801C237.715 190.801 237.627 190.833 237.559 190.891C237.49 190.95 237.444 191.03 237.43 191.119C237.434 191.698 237.614 192.262 237.947 192.736C238.279 193.209 238.748 193.571 239.291 193.771C239.833 193.972 240.424 194.003 240.985 193.86C241.546 193.717 242.05 193.406 242.43 192.969C242.858 192.447 243.098 191.795 243.11 191.119C243.095 191.03 243.049 190.95 242.981 190.891C242.912 190.833 242.825 190.801 242.735 190.801C242.645 190.801 242.557 190.833 242.489 190.891C242.42 190.95 242.374 191.03 242.36 191.119H242.38Z" fill="#903E3E"/>
<path d="M280.421 295.449H246.141V298.869H280.421V295.449Z" fill="#0F0D1D"/>
<path d="M343.609 250.379H280.519C277.995 250.379 275.949 252.425 275.949 254.949V294.309C275.949 296.833 277.995 298.879 280.519 298.879H343.609C346.133 298.879 348.179 296.833 348.179 294.309V254.949C348.179 252.425 346.133 250.379 343.609 250.379Z" fill="#0F0D1D"/>
<path d="M317.678 274.569C317.68 275.814 317.312 277.031 316.622 278.066C315.932 279.102 314.951 279.91 313.802 280.387C312.653 280.865 311.387 280.991 310.167 280.749C308.946 280.508 307.824 279.91 306.943 279.03C306.063 278.151 305.463 277.03 305.219 275.81C304.976 274.589 305.1 273.324 305.576 272.174C306.051 271.024 306.857 270.041 307.892 269.35C308.927 268.658 310.143 268.289 311.388 268.289C313.054 268.289 314.653 268.95 315.832 270.128C317.011 271.305 317.675 272.903 317.678 274.569Z" stroke="white" stroke-miterlimit="10"/>
<g clip-path="url(#clip1_2929_227132)">
<path d="M137.11 69.1014C137.62 70.4014 138.31 70.8214 138.83 70.8414V71.3914C137.75 71.3414 136.17 71.3114 134.68 71.3114C132.99 71.3114 131.43 71.3114 130.52 71.3914V70.8014C131.83 70.8014 132.44 70.5514 132.44 69.8014C132.408 69.3563 132.3 68.9199 132.12 68.5114L130.48 64.0314H124.55L123.81 65.9214C123.389 66.8703 123.139 67.8857 123.07 68.9214C123.07 70.3614 124 70.7314 125.49 70.7714V71.3214C124.25 71.2714 123.23 71.2414 122.09 71.2414C121.29 71.2414 120.55 71.2414 120 71.3214V70.8014C120.8 70.6614 121.6 69.9514 122.37 67.9414L128.59 51.9414C128.903 51.9572 129.217 51.9572 129.53 51.9414C129.85 51.9414 130.19 51.9414 130.53 51.9414L137.11 69.1014ZM127.57 56.1814L124.75 63.5214H130.28L127.57 56.1814Z" fill="#7189FF"/>
<path d="M130.849 98.7994C135.949 99.1894 137.719 101.449 137.719 103.669C137.719 107.109 134.859 108.959 130.179 108.959C129.329 108.959 127.629 108.879 125.309 108.879C123.699 108.879 122.029 108.879 121.109 108.959V108.409C122.849 108.329 123.109 108.049 123.109 106.069V92.4994C123.109 90.4994 122.789 90.2294 121.109 90.1494V89.6094C122.029 89.6594 123.729 89.6894 125.259 89.6894C127.049 89.6894 128.859 89.6294 129.549 89.6294C134.059 89.6294 136.299 91.4094 136.299 93.9294C136.299 95.8594 134.659 98.0194 130.849 98.7294V98.7994ZM127.499 92.5194V98.6894H128.669C131.249 98.6894 131.869 96.6094 131.869 94.2394C131.869 91.5594 131.129 90.1694 129.189 90.1694C127.789 90.1494 127.499 90.6194 127.499 92.4994V92.5194ZM133.179 103.519C133.179 100.739 131.889 99.1294 128.649 99.1294H127.499V106.039C127.499 107.939 127.819 108.299 129.379 108.299C132.049 108.309 133.179 106.589 133.179 103.529V103.519Z" fill="#7189FF"/>
<path d="M135.82 128.54C135.967 128.674 136.153 128.758 136.35 128.78C136.74 128.78 136.95 128.27 137.06 127.15H137.69C137.61 128.55 137.58 130.43 137.58 133.77H136.94C136.65 131.26 136.3 129.94 134.94 128.82C134.003 127.942 132.764 127.459 131.48 127.47C127.56 127.47 126.04 132.05 126.04 136.87C126.04 141.69 127.68 146.21 131.59 146.21C132.851 146.223 134.069 145.75 134.99 144.89C136.4 143.79 136.74 142.27 136.99 139.61H137.63C137.63 143.07 137.63 145.03 137.74 146.49H137.11C137 145.37 136.83 144.87 136.44 144.87C136.233 144.891 136.035 144.971 135.87 145.1C134.458 146.25 132.692 146.875 130.87 146.87C125.08 146.87 121.23 143.23 121.23 136.98C121.23 130.73 125.23 126.77 130.9 126.77C132.699 126.757 134.443 127.384 135.82 128.54Z" fill="#7189FF"/>
<path d="M180.439 52H147.139C145.516 52 144.199 53.3163 144.199 54.94C144.199 56.5637 145.516 57.88 147.139 57.88H180.439C182.063 57.88 183.379 56.5637 183.379 54.94C183.379 53.3163 182.063 52 180.439 52Z" fill="#DEE3FF"/>
<path d="M202.449 63.3398H145.519C144.79 63.3398 144.199 63.9308 144.199 64.6598C144.199 65.3889 144.79 65.9798 145.519 65.9798H202.449C203.178 65.9798 203.769 65.3889 203.769 64.6598C203.769 63.9308 203.178 63.3398 202.449 63.3398Z" fill="#7189FF"/>
<path d="M202.449 69.3711H145.519C144.79 69.3711 144.199 69.9621 144.199 70.6911C144.199 71.4201 144.79 72.0111 145.519 72.0111H202.449C203.178 72.0111 203.769 71.4201 203.769 70.6911C203.769 69.9621 203.178 69.3711 202.449 69.3711Z" fill="#7189FF"/>
<path d="M202.449 75.3984H145.519C144.79 75.3984 144.199 75.9894 144.199 76.7184C144.199 77.4475 144.79 78.0384 145.519 78.0384H202.449C203.178 78.0384 203.769 77.4475 203.769 76.7184C203.769 75.9894 203.178 75.3984 202.449 75.3984Z" fill="#7189FF"/>
<path d="M180.439 89.6016H147.139C145.516 89.6016 144.199 90.9178 144.199 92.5416C144.199 94.1653 145.516 95.4816 147.139 95.4816H180.439C182.063 95.4816 183.379 94.1653 183.379 92.5416C183.379 90.9178 182.063 89.6016 180.439 89.6016Z" fill="#DEE3FF"/>
<path d="M202.449 100.941H145.519C144.79 100.941 144.199 101.532 144.199 102.261C144.199 102.99 144.79 103.581 145.519 103.581H202.449C203.178 103.581 203.769 102.99 203.769 102.261C203.769 101.532 203.178 100.941 202.449 100.941Z" fill="#7189FF"/>
<path d="M202.449 106.969H145.519C144.79 106.969 144.199 107.56 144.199 108.289C144.199 109.018 144.79 109.609 145.519 109.609H202.449C203.178 109.609 203.769 109.018 203.769 108.289C203.769 107.56 203.178 106.969 202.449 106.969Z" fill="#7189FF"/>
<path d="M202.449 113H145.519C144.79 113 144.199 113.591 144.199 114.32C144.199 115.049 144.79 115.64 145.519 115.64H202.449C203.178 115.64 203.769 115.049 203.769 114.32C203.769 113.591 203.178 113 202.449 113Z" fill="#7189FF"/>
<path d="M180.439 126.762H147.139C145.516 126.762 144.199 128.078 144.199 129.702C144.199 131.325 145.516 132.642 147.139 132.642H180.439C182.063 132.642 183.379 131.325 183.379 129.702C183.379 128.078 182.063 126.762 180.439 126.762Z" fill="#DEE3FF"/>
<path d="M202.449 138.102H145.519C144.79 138.102 144.199 138.693 144.199 139.422C144.199 140.151 144.79 140.742 145.519 140.742H202.449C203.178 140.742 203.769 140.151 203.769 139.422C203.769 138.693 203.178 138.102 202.449 138.102Z" fill="#7189FF"/>
<path d="M202.449 144.129H145.519C144.79 144.129 144.199 144.72 144.199 145.449C144.199 146.178 144.79 146.769 145.519 146.769H202.449C203.178 146.769 203.769 146.178 203.769 145.449C203.769 144.72 203.178 144.129 202.449 144.129Z" fill="#7189FF"/>
<path d="M202.449 150.16H145.519C144.79 150.16 144.199 150.751 144.199 151.48C144.199 152.209 144.79 152.8 145.519 152.8H202.449C203.178 152.8 203.769 152.209 203.769 151.48C203.769 150.751 203.178 150.16 202.449 150.16Z" fill="#7189FF"/>
</g>
<defs>
<clipPath id="clip0_2929_227132">
<rect width="337" height="281" fill="white" transform="translate(23 172)"/>
</clipPath>
<clipPath id="clip1_2929_227132">
<rect width="83.77" height="100.8" fill="white" transform="translate(120 52)"/>
</clipPath>
</defs>
</svg>
