<svg width="320" height="309" viewBox="0 0 320 309" fill="none" xmlns="http://www.w3.org/2000/svg">
<path d="M152.025 308.545C234.55 308.545 301.449 241.645 301.449 159.121C301.449 76.5961 234.55 9.69678 152.025 9.69678C69.5009 9.69678 2.60156 76.5961 2.60156 159.121C2.60156 241.645 69.5009 308.545 152.025 308.545Z" fill="#DEE3FF"/>
<path d="M232.638 44.4673H67.1077C56.7899 44.4673 48.4258 52.8314 48.4258 63.1492H251.32C251.32 52.8314 242.956 44.4673 232.638 44.4673Z" fill="#7189FF"/>
<path d="M48.4258 62.6387H251.32V217.166C251.32 224.036 248.59 230.625 243.732 235.484C238.874 240.342 232.285 243.071 225.415 243.071H74.3306C67.4602 243.071 60.8712 240.342 56.0131 235.484C51.155 230.625 48.4258 224.036 48.4258 217.166V62.6387Z" fill="white"/>
<path d="M67.1077 44.4658H232.638C242.785 44.4658 251.043 52.5558 251.313 62.6378H251.32V217.165C251.32 224.036 248.59 230.625 243.732 235.483C238.874 240.341 232.285 243.07 225.415 243.07H74.3306C67.4602 243.07 60.8712 240.341 56.0131 235.483C51.155 230.625 48.4258 224.036 48.4258 217.165V62.6378H48.4326C48.7028 52.5558 56.9605 44.4658 67.1077 44.4658Z" stroke="#FF9AC1"/>
<path d="M216.442 82.157H83.3657C80.5943 82.157 78.3477 84.4012 78.3477 87.1696C78.3477 89.938 80.5943 92.1822 83.3657 92.1822H216.442C219.213 92.1822 221.46 89.938 221.46 87.1696C221.46 84.4012 219.213 82.157 216.442 82.157Z" fill="#7189FF"/>
<path d="M216.442 124.75H83.3657C80.5943 124.75 78.3477 126.994 78.3477 129.763C78.3477 132.531 80.5943 134.775 83.3657 134.775H216.442C219.213 134.775 221.46 132.531 221.46 129.763C221.46 126.994 219.213 124.75 216.442 124.75Z" fill="#7189FF"/>
<path d="M216.442 167.344H83.3657C80.5943 167.344 78.3477 169.588 78.3477 172.356C78.3477 175.125 80.5943 177.369 83.3657 177.369H216.442C219.213 177.369 221.46 175.125 221.46 172.356C221.46 169.588 219.213 167.344 216.442 167.344Z" fill="#7189FF"/>
<path d="M216.445 209.937H83.3696C80.5982 209.937 78.3516 212.181 78.3516 214.949C78.3516 217.718 80.5982 219.962 83.3696 219.962H216.445C219.217 219.962 221.464 217.718 221.464 214.949C221.464 212.181 219.217 209.937 216.445 209.937Z" fill="#7189FF"/>
<path d="M11.6045 158.708H82.4653C87.8819 158.708 92.2729 163.099 92.2729 168.515V269.799C92.2729 275.216 87.8819 279.607 82.4653 279.607H11.6045C6.1879 279.607 1.79688 275.216 1.79688 269.799V168.515C1.79688 163.099 6.1879 158.708 11.6045 158.708Z" fill="white" stroke="#FF9AC1"/>
<path d="M205.916 0.5H284.185C287.556 0.5 290.289 3.23278 290.289 6.60383V43.3919C290.289 46.763 287.556 49.4958 284.185 49.4958H205.916C202.545 49.4958 199.812 46.763 199.812 43.3919V6.60383C199.812 3.23278 202.545 0.5 205.916 0.5Z" fill="white" stroke="#FF9AC1"/>
<path d="M74.5628 208.877H19.5164C17.6628 208.877 16.1602 210.38 16.1602 212.233V212.244C16.1602 214.098 17.6628 215.6 19.5164 215.6H74.5628C76.4164 215.6 77.919 214.098 77.919 212.244V212.233C77.919 210.38 76.4164 208.877 74.5628 208.877Z" fill="#7189FF"/>
<path d="M74.596 256.185H20.0227C18.185 256.185 16.6953 257.641 16.6953 259.437V259.447C16.6953 261.243 18.185 262.699 20.0227 262.699H74.596C76.4337 262.699 77.9234 261.243 77.9234 259.447V259.437C77.9234 257.641 76.4337 256.185 74.596 256.185Z" fill="#7189FF"/>
<path d="M74.596 231.433H20.0227C18.185 231.433 16.6953 232.889 16.6953 234.685V234.695C16.6953 236.491 18.185 237.947 20.0227 237.947H74.596C76.4337 237.947 77.9234 236.491 77.9234 234.695V234.685C77.9234 232.889 76.4337 231.433 74.596 231.433Z" fill="#7189FF"/>
<path d="M39.6432 173.848H23.5572C19.994 173.848 17.1055 176.737 17.1055 180.3V184.764C17.1055 188.327 19.994 191.216 23.5572 191.216H39.6432C43.2064 191.216 46.095 188.327 46.095 184.764V180.3C46.095 176.737 43.2064 173.848 39.6432 173.848Z" fill="#7189FF"/>
<path d="M218.627 32.5846C222.82 32.5846 226.22 29.1855 226.22 24.9924C226.22 20.7993 222.82 17.4001 218.627 17.4001C214.434 17.4001 211.035 20.7993 211.035 24.9924C211.035 29.1855 214.434 32.5846 218.627 32.5846Z" fill="#DEE3FF"/>
<path d="M245.76 32.5846C249.953 32.5846 253.352 29.1855 253.352 24.9924C253.352 20.7993 249.953 17.4001 245.76 17.4001C241.567 17.4001 238.168 20.7993 238.168 24.9924C238.168 29.1855 241.567 32.5846 245.76 32.5846Z" fill="#DEE3FF"/>
<path d="M272.893 32.5846C277.086 32.5846 280.485 29.1855 280.485 24.9924C280.485 20.7993 277.086 17.4001 272.893 17.4001C268.7 17.4001 265.301 20.7993 265.301 24.9924C265.301 29.1855 268.7 32.5846 272.893 32.5846Z" fill="#DEE3FF"/>
<path d="M252.311 213.669L233.082 234.867L287.281 284.029L306.51 262.831L252.311 213.669Z" fill="#869AFF"/>
<path fill-rule="evenodd" clip-rule="evenodd" d="M272.63 178.582C272.63 222.93 236.679 258.881 192.331 258.881C147.983 258.881 112.031 222.93 112.031 178.582C112.031 134.234 147.983 98.2822 192.331 98.2822C236.679 98.2822 272.63 134.234 272.63 178.582ZM260.313 178.582C260.313 216.128 229.876 246.564 192.33 246.564C154.785 246.564 124.348 216.128 124.348 178.582C124.348 141.036 154.785 110.599 192.33 110.599C229.876 110.599 260.313 141.036 260.313 178.582Z" fill="#7189FF"/>
<g filter="url(#filter0_b_3687_177746)">
<path d="M192.33 246.564C229.876 246.564 260.313 216.128 260.313 178.582C260.313 141.036 229.876 110.599 192.33 110.599C154.784 110.599 124.348 141.036 124.348 178.582C124.348 216.128 154.784 246.564 192.33 246.564Z" fill="url(#paint0_linear_3687_177746)" fill-opacity="0.2"/>
</g>
<path d="M208.665 178.582L228.107 159.096C229.929 157.169 230.927 154.607 230.889 151.955C230.852 149.303 229.781 146.77 227.906 144.895C226.031 143.02 223.498 141.95 220.846 141.912C218.194 141.875 215.633 142.872 213.705 144.694L194.219 164.18L174.777 144.694C173.841 143.704 172.717 142.911 171.47 142.363C170.223 141.815 168.878 141.523 167.516 141.504C166.154 141.485 164.802 141.739 163.54 142.251C162.277 142.763 161.131 143.524 160.168 144.487C159.204 145.45 158.444 146.597 157.932 147.859C157.419 149.121 157.165 150.473 157.185 151.835C157.204 153.197 157.496 154.542 158.044 155.789C158.592 157.036 159.384 158.161 160.375 159.096L179.849 178.582L160.375 198.068C159.384 199.003 158.592 200.128 158.044 201.375C157.496 202.622 157.204 203.967 157.185 205.329C157.165 206.691 157.419 208.043 157.932 209.305C158.444 210.567 159.204 211.714 160.168 212.677C161.131 213.64 162.277 214.401 163.54 214.913C164.802 215.425 166.154 215.679 167.516 215.66C168.878 215.641 170.223 215.349 171.47 214.801C172.717 214.253 173.841 213.46 174.777 212.47L194.263 192.984L213.748 212.47C215.694 214.184 218.221 215.092 220.812 215.008C223.404 214.924 225.866 213.854 227.697 212.018C229.528 210.182 230.59 207.716 230.666 205.124C230.742 202.532 229.827 200.008 228.107 198.068L208.665 178.582Z" fill="#E54985"/>
<g filter="url(#filter1_f_3687_177746)">
<ellipse cx="194.576" cy="216.13" rx="47.7909" ry="7.06001" fill="#E54985" fill-opacity="0.56"/>
</g>
<path d="M140.451 260.582C140.846 258.948 143.169 258.948 143.564 260.582L146.543 272.922C146.771 273.87 147.512 274.611 148.461 274.84L160.8 277.819C162.434 278.213 162.434 280.537 160.8 280.931L148.461 283.91C147.512 284.139 146.771 284.879 146.543 285.828L143.564 298.168C143.169 299.801 140.846 299.801 140.451 298.168L137.472 285.828C137.243 284.879 136.503 284.139 135.554 283.91L123.215 280.931C121.581 280.537 121.581 278.213 123.215 277.819L135.554 274.84C136.503 274.611 137.243 273.87 137.472 272.922L140.451 260.582Z" stroke="#E54985"/>
<path d="M31.8401 10.3413C32.3577 8.19731 35.4073 8.19732 35.9248 10.3413L38.9036 22.6809C39.0885 23.4471 39.6867 24.0453 40.4529 24.2303L52.7925 27.209C54.9365 27.7265 54.9365 30.7762 52.7925 31.2937L40.4529 34.2724C39.6867 34.4574 39.0885 35.0556 38.9035 35.8218L35.9248 48.1614C35.4073 50.3054 32.3576 50.3054 31.8401 48.1614L28.8614 35.8218C28.6764 35.0556 28.0782 34.4574 27.312 34.2724L14.9724 31.2937C12.8284 30.7762 12.8284 27.7265 14.9724 27.209L27.312 24.2303C28.0782 24.0453 28.6764 23.4471 28.8614 22.6809L31.8401 10.3413Z" fill="#FFD2E3"/>
<path fill-rule="evenodd" clip-rule="evenodd" d="M146.069 14.4255C148.588 14.4255 150.631 12.3832 150.631 9.86375C150.631 7.34434 148.588 5.30196 146.069 5.30196C143.55 5.30196 141.507 7.34434 141.507 9.86375C141.507 12.3832 143.55 14.4255 146.069 14.4255ZM146.069 17.8469C150.478 17.8469 154.052 14.2727 154.052 9.86375C154.052 5.45479 150.478 1.88062 146.069 1.88062C141.66 1.88062 138.086 5.45479 138.086 9.86375C138.086 14.2727 141.66 17.8469 146.069 17.8469Z" fill="#E54985"/>
<path d="M288.993 141.179C288.66 139.873 289.866 138.696 291.163 139.06L304.341 142.763C305.638 143.128 306.054 144.761 305.09 145.702L295.294 155.263C294.33 156.204 292.708 155.748 292.375 154.442L288.993 141.179Z" fill="#FFD2E3"/>
<path d="M21.3592 120.227C22.6657 119.895 23.8409 121.103 23.4746 122.4L19.7545 135.572C19.3882 136.869 17.7551 137.284 16.8149 136.318L7.26707 126.51C6.32691 125.544 6.7848 123.923 8.09126 123.591L21.3592 120.227Z" fill="#E54985"/>
<path d="M238.914 277.857C240.22 277.526 241.396 278.733 241.029 280.03L237.309 293.203C236.943 294.5 235.31 294.914 234.37 293.948L224.822 284.14C223.882 283.174 224.339 281.553 225.646 281.222L238.914 277.857Z" fill="#FFD2E3"/>
<path d="M293.109 87.4104C297.497 87.4104 301.053 83.8536 301.053 79.4662C301.053 75.0788 297.497 71.5221 293.109 71.5221C288.722 71.5221 285.165 75.0788 285.165 79.4662C285.165 83.8536 288.722 87.4104 293.109 87.4104ZM305.637 79.4662C305.637 86.3848 300.028 91.9935 293.109 91.9935C286.191 91.9935 280.582 86.3848 280.582 79.4662C280.582 72.5476 286.191 66.939 293.109 66.939C300.028 66.939 305.637 72.5476 305.637 79.4662Z" stroke="#E54985"/>
<path d="M287.277 284.032L306.506 262.833L309.402 265.46C312.212 268.009 313.895 271.57 314.079 275.359C314.264 279.148 312.936 282.856 310.387 285.666C307.838 288.476 304.277 290.158 300.488 290.343C296.698 290.528 292.991 289.199 290.181 286.651L287.285 284.024L287.277 284.032Z" fill="#7189FF"/>
<defs>
<filter id="filter0_b_3687_177746" x="107.673" y="93.9242" width="169.315" height="169.315" filterUnits="userSpaceOnUse" color-interpolation-filters="sRGB">
<feFlood flood-opacity="0" result="BackgroundImageFix"/>
<feGaussianBlur in="BackgroundImageFix" stdDeviation="8.33757"/>
<feComposite in2="SourceAlpha" operator="in" result="effect1_backgroundBlur_3687_177746"/>
<feBlend mode="normal" in="SourceGraphic" in2="effect1_backgroundBlur_3687_177746" result="shape"/>
</filter>
<filter id="filter1_f_3687_177746" x="125.941" y="188.226" width="137.27" height="55.808" filterUnits="userSpaceOnUse" color-interpolation-filters="sRGB">
<feFlood flood-opacity="0" result="BackgroundImageFix"/>
<feBlend mode="normal" in="SourceGraphic" in2="BackgroundImageFix" result="shape"/>
<feGaussianBlur stdDeviation="10.422" result="effect1_foregroundBlur_3687_177746"/>
</filter>
<linearGradient id="paint0_linear_3687_177746" x1="192.33" y1="110.599" x2="260.834" y2="288.36" gradientUnits="userSpaceOnUse">
<stop stop-color="white"/>
<stop offset="1" stop-color="#D2F7FF"/>
</linearGradient>
</defs>
</svg>
