<svg width="580" height="500" viewBox="0 0 580 500" fill="none" xmlns="http://www.w3.org/2000/svg">
<path d="M483.375 454.191C483.375 454.191 575.05 436.121 579.719 372C585.104 298.313 511.118 297.504 522.466 244.083C538.304 169.524 507.332 125.122 437.922 128.181C379.396 130.767 330.019 176.535 298.711 137.19C264.941 94.7224 201.778 63.3345 139.266 89.6453C76.754 115.956 107 201.437 63.7763 219.601C20.5523 237.766 -6.24444 285.72 1.25403 352.028C8.32131 414.204 45.719 455.526 98.8813 454.895C124.931 454.59 205.006 455.242 295.882 454.895C390.438 454.506 483.375 454.191 483.375 454.191Z" fill="#DEE3FF"/>
<rect x="70.5" y="62.5" width="298" height="221" rx="11.5" stroke="#E54985"/>
<path d="M19.6893 186.547C19.6893 186.547 3.57929 155.497 31.0793 140.547C60.6793 124.457 83.3693 154.357 76.3793 178.977C69.3893 203.597 28.2693 202.487 19.6893 186.547Z" fill="#DEE3FF"/>
<path d="M9.22013 455.959H548.946C556.238 455.959 563.529 456.051 570.821 455.959H571.79C572.111 455.959 572.418 455.858 572.645 455.678C572.872 455.497 573 455.253 573 454.998C573 454.743 572.872 454.499 572.645 454.319C572.418 454.139 572.111 454.038 571.79 454.038H32.0638C24.772 454.038 17.4706 453.953 10.1788 454.038H9.21045C8.88942 454.038 8.58154 454.139 8.35454 454.319C8.12753 454.499 8 454.743 8 454.998C8 455.253 8.12753 455.497 8.35454 455.678C8.58154 455.858 8.88942 455.959 9.21045 455.959H9.22013Z" fill="#0F0D1D"/>
<path d="M109.52 150.5H330.48C336.29 150.5 341 155.21 341 161.02V167.98C341 173.79 336.29 178.5 330.48 178.5H109.52C103.71 178.5 99 173.79 99 167.98V161.02C99 155.21 103.71 150.5 109.52 150.5Z" fill="white" stroke="#F2718D"/>
<path d="M330.48 203H109.52C103.434 203 98.5 207.934 98.5 214.02V244.98C98.5 251.066 103.434 256 109.52 256H330.48C336.566 256 341.5 251.066 341.5 244.98V214.02C341.5 207.934 336.566 203 330.48 203Z" stroke="#F2718D" stroke-miterlimit="10"/>
<path d="M482.711 406.84L462.531 384.82L478.191 371.52L498.801 394.01L482.711 406.84Z" fill="#FFC8A5"/>
<path d="M478.039 454.35L526.639 410.08L499.379 382.33L477.969 404.62L487.499 416.49L478.039 454.35Z" fill="#13004D"/>
<path d="M481.059 429.55L488.999 433.01L490.119 433.49C490.549 433.68 490.939 433.04 490.489 432.84L482.559 429.39L481.439 428.9C480.999 428.71 480.619 429.36 481.059 429.55Z" fill="white"/>
<path d="M483.309 423.04L491.249 426.49L492.369 426.98C492.799 427.17 493.189 426.52 492.739 426.33L484.809 422.88L483.689 422.39C483.249 422.2 482.869 422.84 483.309 423.04Z" fill="white"/>
<path d="M485.869 418.28C483.755 419.057 481.602 419.725 479.419 420.28C477.613 420.748 475.775 421.082 473.919 421.28C472.408 421.531 470.86 421.421 469.399 420.96C468.888 420.731 468.465 420.342 468.193 419.853C467.92 419.364 467.813 418.799 467.887 418.244C467.961 417.689 468.213 417.173 468.604 416.772C468.996 416.371 469.506 416.108 470.059 416.02C472.989 415.28 476.409 416.18 479.249 416.92C481.496 417.485 483.707 418.187 485.869 419.02C486.319 419.19 486.509 418.47 486.069 418.3C484.027 417.52 481.944 416.852 479.829 416.3C476.759 415.48 473.089 414.52 469.919 415.3C469.37 415.391 468.85 415.615 468.406 415.951C467.962 416.287 467.606 416.726 467.369 417.23C467.143 417.827 467.073 418.471 467.164 419.102C467.254 419.734 467.504 420.332 467.889 420.84C468.906 421.737 470.235 422.197 471.589 422.12C473.466 422.153 475.339 421.958 477.169 421.54C480.197 420.94 483.173 420.1 486.069 419.03C486.519 418.83 486.319 418.11 485.869 418.28Z" fill="white"/>
<path d="M472 409.5L484.52 417.74L486.33 418.93C486.74 419.19 487.11 418.54 486.71 418.28L474.19 410.04L472.38 408.85C471.97 408.58 471.6 409.23 472 409.5Z" fill="white"/>
<path d="M515.071 398.311C513.657 399.71 512.565 401.4 511.87 403.264C511.176 405.128 510.895 407.12 511.049 409.104C511.202 411.087 511.785 413.013 512.758 414.748C513.73 416.483 515.069 417.985 516.681 419.151L526.681 410.081L515.071 398.311Z" fill="white"/>
<path d="M416.939 240.369C416.939 240.369 392.669 296.929 397.609 317.939C402.549 338.949 435.269 371.939 467.379 398.309L490.539 372.189L462.539 323.809L474.879 245.659L417.789 241.719" fill="#0A4DD0"/>
<path d="M482.511 358.33L454.781 387.62" stroke="#13004D" stroke-miterlimit="10" stroke-linecap="round"/>
<path d="M415.422 348.141C428.972 364.591 448.292 382.611 467.422 398.311L490.582 372.191L462.582 323.811" stroke="#13004D" stroke-miterlimit="10" stroke-linecap="round"/>
<path d="M436.961 422.69L437.241 392.82L457.281 393.79L457.001 424.29L436.961 422.69Z" fill="#FFC8A5"/>
<path d="M397.609 453.06L463.339 453.22L461.979 414.35L431.129 416.33L430.139 431.52L397.609 453.06Z" fill="#13004D"/>
<path d="M416.609 436.89L420.129 444.78L420.629 445.91C420.829 446.35 421.469 445.97 421.279 445.53L417.759 437.64L417.259 436.51C417.069 436.07 416.419 436.45 416.609 436.89Z" fill="white"/>
<path d="M422.672 433.601L426.192 441.491L426.692 442.621C426.892 443.061 427.532 442.681 427.342 442.241L423.822 434.351L423.322 433.221C423.122 432.781 422.482 433.161 422.672 433.601Z" fill="white"/>
<path d="M427.672 431.711C425.59 430.84 423.554 429.862 421.572 428.781C419.955 427.926 418.401 426.957 416.922 425.881C415.651 425.045 414.587 423.93 413.812 422.621C413.56 422.1 413.497 421.508 413.634 420.946C413.771 420.384 414.099 419.887 414.562 419.541C414.959 419.197 415.456 418.989 415.979 418.948C416.503 418.906 417.026 419.033 417.472 419.311C418.718 420.024 419.818 420.968 420.712 422.091C421.808 423.378 422.81 424.741 423.712 426.171C424.998 428.132 426.17 430.165 427.222 432.261C427.432 432.691 428.082 432.261 427.862 431.881C426.888 429.932 425.806 428.039 424.622 426.211C423.668 424.683 422.609 423.222 421.452 421.841C420.493 420.605 419.313 419.558 417.972 418.751C417.483 418.43 416.92 418.241 416.336 418.203C415.753 418.164 415.169 418.277 414.642 418.531C414.081 418.842 413.61 419.295 413.277 419.844C412.943 420.392 412.759 421.019 412.742 421.661C412.994 423.041 413.741 424.282 414.842 425.151C416.245 426.413 417.781 427.52 419.422 428.451C421.987 429.978 424.661 431.315 427.422 432.451C427.922 432.621 428.112 431.891 427.672 431.711Z" fill="white"/>
<path d="M423.459 415.841L427.139 430.431L427.659 432.481C427.692 432.569 427.757 432.643 427.841 432.686C427.926 432.729 428.023 432.739 428.115 432.714C428.206 432.689 428.285 432.631 428.336 432.55C428.386 432.47 428.405 432.374 428.389 432.281L424.699 417.691L424.179 415.641C424.069 415.181 423.339 415.371 423.459 415.841Z" fill="white"/>
<path d="M462.761 436.73C460.773 436.809 458.826 437.319 457.055 438.224C455.285 439.13 453.732 440.411 452.506 441.977C451.279 443.543 450.408 445.357 449.953 447.294C449.498 449.23 449.47 451.242 449.871 453.19H463.341L462.761 436.73Z" fill="white"/>
<path d="M482.212 247.93C481.792 248.84 466.212 404.43 466.212 404.43H429.212L428.882 388.33L425.922 244.9L482.212 247.93Z" fill="#0A4DD0" stroke="#13004D" stroke-miterlimit="10" stroke-linecap="round"/>
<path d="M447.121 248.02C447.121 248.02 447.621 266.54 464.381 266.33" stroke="#13004D" stroke-miterlimit="10" stroke-linecap="round"/>
<path d="M449.531 388.77L453.911 263.02" stroke="#13004D" stroke-miterlimit="10" stroke-linecap="round"/>
<path d="M467.519 389.2L428.859 388.33" stroke="#13004D" stroke-miterlimit="10" stroke-linecap="round"/>
<path d="M350.239 148.97L336.379 130.12C335.536 130.045 334.72 129.789 333.984 129.369C333.249 128.95 332.613 128.377 332.119 127.69C330.459 125.35 329.959 122.79 331.119 121.69C332.279 120.59 332.829 120.83 332.829 120.83C332.829 120.83 333.479 120.73 333.679 119.74C333.879 118.75 335.559 118.01 335.559 118.01L336.409 118.09C336.409 118.09 336.739 118.09 336.999 117.09C337.259 116.09 339.099 115.36 339.099 115.36H339.859C339.859 115.36 336.539 108.19 336.409 105.74C336.279 103.29 338.409 101.35 340.749 104.14C343.089 106.93 346.289 114.14 346.289 114.14C347.213 113.908 348.186 113.962 349.078 114.294C349.971 114.626 350.742 115.221 351.289 116C353.389 118.76 360.289 130 360.289 130L363.989 138.91L350.239 148.97Z" fill="#FFC8A5"/>
<path d="M348.402 119.121C348.402 119.121 345.182 121.651 342.472 121.771C339.762 121.891 338.902 119.321 340.572 117.771C342.242 116.221 346.682 112.891 349.242 114.011C351.802 115.131 361.962 131.251 363.162 136.931" stroke="#FF8576" stroke-width="0.75" stroke-miterlimit="10" stroke-linecap="round"/>
<path d="M345.12 121.501C345.46 122.019 345.61 122.639 345.544 123.255C345.479 123.871 345.202 124.446 344.76 124.881C343.17 126.351 341.21 125.061 339.29 122.811C337.37 120.561 336.13 117.481 337.67 116.021C337.955 115.77 338.288 115.582 338.65 115.469C339.012 115.355 339.393 115.318 339.769 115.361C340.146 115.403 340.51 115.524 340.837 115.715C341.164 115.906 341.448 116.163 341.67 116.471" stroke="#FF8576" stroke-width="0.75" stroke-miterlimit="10" stroke-linecap="round"/>
<path d="M341.68 125.18C341.857 125.839 341.77 126.541 341.437 127.137C341.105 127.732 340.553 128.175 339.9 128.37C337.47 129.24 334.9 125.96 334.11 123.72C333.32 121.48 333 119.16 334.86 118.24C336.38 117.48 337.03 118.41 337.03 118.41" stroke="#FF8576" stroke-width="0.75" stroke-miterlimit="10" stroke-linecap="round"/>
<path d="M337.79 128.499C337.79 128.499 337.79 130.139 335.71 130.169C333.63 130.199 330.16 126.259 330.39 123.649C330.62 121.039 332.54 120.409 333.26 120.789" stroke="#FF8576" stroke-width="0.75" stroke-miterlimit="10" stroke-linecap="round"/>
<path d="M348.07 147.879L363.6 135.449L370.6 143.999L350.68 158.479L348.07 147.879Z" fill="white" stroke="#2ABBF0" stroke-miterlimit="10"/>
<path d="M369.51 138.801L345.59 157.551C345.59 157.551 351.04 199.641 378.34 211.231C405.64 222.821 426.34 212.111 430.17 194.961C434 177.811 440.7 156.321 440.7 156.321C440.7 156.321 420.52 168.911 403.06 164.941C385.6 160.971 369.51 138.801 369.51 138.801Z" fill="#E55E7B"/>
<path d="M369.51 138.801L345.59 157.551C346.065 160.747 346.713 163.915 347.53 167.041L376.15 146.701C373.797 144.188 371.581 141.551 369.51 138.801Z" fill="white"/>
<path d="M365.758 141.741C367.468 143.791 369.908 146.741 372.158 149.531L372.958 148.961C371.088 146.661 368.428 143.411 366.538 141.131L365.758 141.741Z" fill="#13004D"/>
<path d="M352.741 151.961L351.941 152.571L356.041 160.991L356.851 160.411L352.741 151.961Z" fill="#13004D"/>
<path d="M351.71 164.069L348.4 155.359L347.59 155.989L350.89 164.659L351.71 164.069Z" fill="#13004D"/>
<path d="M362.059 144.641L361.289 145.251L367.189 153.061L367.989 152.491L362.059 144.641Z" fill="#13004D"/>
<path d="M356.461 149.03L361.211 157.32L362.011 156.75L357.241 148.42L356.461 149.03Z" fill="#13004D"/>
<path d="M440.7 156.321C440.7 156.321 420.52 168.911 403.06 164.941C385.6 160.971 369.51 138.801 369.51 138.801L345.59 157.551" stroke="#13004D" stroke-miterlimit="10" stroke-linecap="round"/>
<path d="M441.66 153.69C441.66 153.69 431.08 158.48 422.48 172.19C416.15 182.27 404.15 222.58 408.15 257.19L487.49 258.67L481.34 188.5L456.34 153.68L441.66 153.69Z" fill="#E55E7B"/>
<path d="M408.15 257.169L487.49 258.649L486.43 246.549L407.43 245.029C407.45 249.119 407.69 253.179 408.15 257.169Z" fill="white"/>
<path d="M431.671 245.5L430.691 245.48V257.59L431.671 257.61V245.5Z" fill="#13004D"/>
<path d="M439.018 245.639L438.038 245.619L437.758 257.719L438.738 257.739L439.018 245.639Z" fill="#13004D"/>
<path d="M445.17 245.76L444.18 245.74V257.84L445.17 257.86V245.76Z" fill="#13004D"/>
<path d="M418.099 245.241L417.109 245.221L417.829 257.351L418.809 257.371L418.099 245.241Z" fill="#13004D"/>
<path d="M411.761 257.239H412.761C412.531 252.679 412.281 247.909 412.141 245.109H411.141C411.281 248.019 411.541 253.009 411.761 257.239Z" fill="#13004D"/>
<path d="M424.761 245.37L423.781 245.35L423.621 257.46L424.601 257.48L424.761 245.37Z" fill="#13004D"/>
<path d="M472.101 246.27L471.121 246.25V258.35L472.101 258.36V246.27Z" fill="#13004D"/>
<path d="M477.281 246.37L476.301 246.35L476.361 258.44L477.341 258.46L477.281 246.37Z" fill="#13004D"/>
<path d="M483.691 246.5L482.711 246.48L483.771 258.58L484.751 258.6L483.691 246.5Z" fill="#13004D"/>
<path d="M466.289 246.161L465.309 246.141V258.241L466.289 258.251V246.161Z" fill="#13004D"/>
<path d="M458.98 246.02L458 246V258.1L458.98 258.12V246.02Z" fill="#13004D"/>
<path d="M451.531 245.879L450.551 245.859L450.931 257.969L451.911 257.989L451.531 245.879Z" fill="#13004D"/>
<path d="M441.66 153.69C441.66 153.69 431.08 158.48 422.48 172.19C416.15 182.27 404.15 222.58 408.15 257.19L487.49 258.67L481.34 188.5L456.34 153.68L441.66 153.69Z" stroke="#13004D" stroke-miterlimit="10"/>
<path d="M466.44 240.581C466.44 240.581 445.57 240.581 434.34 233.891C423.11 227.201 432.81 224.121 435.34 224.191C437.87 224.261 465.34 225.781 465.34 225.781L466.44 240.581Z" fill="#FFC8A5"/>
<path d="M436.621 226.42C436.621 226.42 438.181 231.34 447.141 231.48" stroke="#FF8576" stroke-width="0.75" stroke-miterlimit="10" stroke-linecap="round"/>
<path d="M431.18 227.439C431.18 227.439 431.58 231.519 442.54 233.889" stroke="#FF8576" stroke-width="0.75" stroke-miterlimit="10" stroke-linecap="round"/>
<path d="M469.661 223.029L463.691 224.409L464.671 242.069L474.701 243.109L469.661 223.029Z" fill="white" stroke="#2ABBF0" stroke-miterlimit="10"/>
<path d="M456.34 153.689L469.66 192.809C469.66 192.809 484.97 204.629 490.66 211.809L468.58 221.119L470.8 243.769C470.8 243.769 528.56 267.499 531.22 218.499C533.88 169.499 456.34 153.689 456.34 153.689Z" fill="#E55E7B"/>
<path d="M470.771 243.769L480.261 246.829L477.431 217.369L468.551 221.119L470.771 243.769Z" fill="white"/>
<path d="M469.711 227.891L478.371 227.121L478.271 226.141L469.121 226.951L469.701 232.871L478.851 232.071L478.751 231.091L470.101 231.851L469.711 227.891Z" fill="#13004D"/>
<path d="M479.301 236.76L470.141 237.38L470.651 242.56L479.931 243.4L479.841 242.41L471.051 241.61L470.731 238.33L479.391 237.74L479.301 236.76Z" fill="#13004D"/>
<path d="M468.781 223.48L477.821 221.41L477.731 220.43L468.691 222.5L468.781 223.48Z" fill="#13004D"/>
<path d="M505.431 205.56L468.551 221.12L470.771 243.77C470.771 243.77 528.561 267.5 531.221 218.5C532.101 202.36 524.221 189.81 513.361 180.24" stroke="#13004D" stroke-miterlimit="10" stroke-linecap="round"/>
<path d="M469.66 192.811C469.66 192.811 484.97 204.631 490.66 211.811" stroke="#13004D" stroke-miterlimit="10" stroke-linecap="round"/>
<path d="M386.412 228.5L430.002 228.58C434.532 228.58 436.872 225.08 435.232 220.74L423.802 190.5C422.861 188.277 421.318 186.362 419.345 184.972C417.373 183.581 415.051 182.77 412.642 182.63L369.002 182.5C364.482 182.5 362.142 186 363.782 190.34L375.202 220.6C376.141 222.836 377.691 224.762 379.673 226.159C381.655 227.556 383.99 228.367 386.412 228.5Z" fill="#0F0D1D"/>
<path d="M390.752 203.161C391.219 204.744 392.165 206.143 393.46 207.167C394.754 208.191 396.334 208.79 397.982 208.881C401.132 208.881 402.982 206.341 402.172 203.181C401.704 201.598 400.758 200.199 399.463 199.175C398.169 198.151 396.59 197.552 394.942 197.461C391.792 197.501 389.922 200.011 390.752 203.161Z" stroke="white" stroke-miterlimit="10"/>
<path d="M418.1 228.612L459.03 228.683C460.433 228.686 461.572 227.55 461.575 226.147L461.577 224.707C461.58 223.305 460.445 222.166 459.042 222.163L418.112 222.092C416.709 222.089 415.57 223.224 415.567 224.627L415.565 226.067C415.562 227.47 416.698 228.609 418.1 228.612Z" fill="#0F0D1D"/>
<path d="M456.801 139.25C456.801 138.93 456.881 138.61 456.901 138.25L457.571 126.55C457.901 120.83 454.061 115.92 449.041 115.64L441.491 115.2C436.491 114.92 432.101 119.36 431.771 125.07L431.101 136.77C430.781 142.49 434.611 147.39 439.631 147.68L443.451 147.9L443.391 152.54C443.383 153.014 443.468 153.484 443.643 153.925C443.817 154.365 444.076 154.767 444.406 155.107C444.736 155.447 445.13 155.718 445.564 155.906C445.999 156.094 446.467 156.194 446.941 156.2L453.061 156.29C454.017 156.301 454.939 155.932 455.625 155.265C456.311 154.598 456.705 153.687 456.721 152.73C456.721 152.73 456.861 139.6 456.801 139.25Z" fill="#FFC8A5"/>
<path d="M446.659 129.791C446.638 130.125 446.52 130.447 446.317 130.715C446.114 130.982 445.837 131.184 445.52 131.294C445.203 131.404 444.861 131.418 444.536 131.334C444.211 131.25 443.918 131.072 443.695 130.822C443.471 130.572 443.326 130.261 443.279 129.929C443.231 129.596 443.283 129.258 443.428 128.955C443.573 128.652 443.804 128.399 444.092 128.227C444.381 128.056 444.713 127.973 445.049 127.991C445.273 128.002 445.493 128.058 445.695 128.155C445.898 128.252 446.079 128.388 446.229 128.555C446.378 128.722 446.494 128.918 446.567 129.13C446.641 129.342 446.672 129.566 446.659 129.791Z" fill="black"/>
<path d="M435.531 128.899C435.514 129.185 435.414 129.46 435.241 129.689C435.069 129.918 434.832 130.091 434.562 130.186C434.292 130.28 433.999 130.293 433.721 130.221C433.444 130.15 433.194 129.998 433.003 129.784C432.811 129.571 432.688 129.306 432.647 129.022C432.607 128.738 432.651 128.449 432.775 128.19C432.899 127.932 433.097 127.716 433.343 127.57C433.59 127.424 433.874 127.354 434.16 127.369C434.351 127.379 434.538 127.427 434.71 127.51C434.882 127.592 435.036 127.708 435.163 127.85C435.29 127.992 435.388 128.158 435.451 128.338C435.514 128.518 435.541 128.709 435.531 128.899Z" fill="black"/>
<path d="M436.758 135.96C436.758 135.96 437.468 138.5 439.268 138.77C441.068 139.04 442.598 137.12 442.788 135.57L436.758 135.96Z" fill="white"/>
<path d="M438.339 127.641C437.748 129.052 437.004 130.393 436.119 131.641C436.091 131.69 436.075 131.746 436.071 131.802C436.067 131.859 436.076 131.916 436.097 131.969C436.119 132.021 436.151 132.069 436.193 132.107C436.235 132.146 436.285 132.174 436.339 132.191L438.209 132.481C438.303 132.498 438.399 132.479 438.479 132.428C438.559 132.378 438.618 132.299 438.643 132.207C438.668 132.116 438.658 132.018 438.614 131.934C438.571 131.849 438.498 131.784 438.409 131.751L436.539 131.461L436.769 132.011C437.656 130.765 438.401 129.423 438.989 128.011C439.038 127.926 439.051 127.825 439.027 127.73C439.003 127.635 438.943 127.553 438.859 127.501C438.817 127.474 438.77 127.456 438.72 127.448C438.671 127.44 438.62 127.442 438.571 127.454C438.523 127.467 438.477 127.488 438.437 127.519C438.397 127.549 438.364 127.587 438.339 127.631V127.641Z" fill="#903E3E"/>
<path d="M447.459 127.339C446.893 127.021 446.297 126.759 445.679 126.559C445.582 126.534 445.48 126.547 445.392 126.596C445.305 126.644 445.239 126.724 445.209 126.819C445.187 126.917 445.202 127.02 445.252 127.107C445.302 127.194 445.383 127.259 445.479 127.289C445.625 127.33 445.769 127.381 445.909 127.439L446.119 127.509L446.219 127.559C446.497 127.68 446.767 127.817 447.029 127.969C447.071 127.995 447.118 128.011 447.166 128.018C447.214 128.026 447.264 128.023 447.311 128.011C447.359 127.999 447.403 127.977 447.442 127.948C447.481 127.919 447.514 127.882 447.539 127.839C447.588 127.753 447.602 127.65 447.578 127.554C447.553 127.457 447.493 127.373 447.409 127.319L447.459 127.339Z" fill="#903E3E"/>
<path d="M435.07 125.829C434.475 125.827 433.881 125.861 433.29 125.929C433.191 125.934 433.097 125.976 433.027 126.046C432.957 126.116 432.915 126.21 432.91 126.309C432.91 126.489 433.08 126.709 433.29 126.679C433.881 126.611 434.475 126.577 435.07 126.579C435.125 126.588 435.18 126.585 435.233 126.57C435.286 126.556 435.336 126.529 435.378 126.494C435.42 126.458 435.453 126.414 435.477 126.364C435.5 126.314 435.512 126.259 435.512 126.204C435.512 126.149 435.5 126.095 435.477 126.045C435.453 125.995 435.42 125.95 435.378 125.915C435.336 125.879 435.286 125.853 435.233 125.838C435.18 125.823 435.125 125.82 435.07 125.829Z" fill="#903E3E"/>
<path d="M455.138 134.381L454.268 125.131C454.268 125.131 427.268 129.801 426.138 115.011C425.448 105.621 437.238 101.731 445.798 106.901C445.798 106.901 462.598 106.301 467.668 116.731C472.738 127.161 467.728 134.501 456.798 144.361L456.898 138.281L455.138 134.381Z" fill="#B86955"/>
<path d="M466.321 135.791C466.245 136.89 465.843 137.942 465.168 138.812C464.492 139.683 463.574 140.333 462.528 140.68C461.482 141.028 460.357 141.056 459.295 140.763C458.233 140.47 457.282 139.868 456.563 139.033C455.844 138.199 455.389 137.169 455.256 136.075C455.122 134.982 455.317 133.873 455.815 132.89C456.313 131.908 457.092 131.095 458.053 130.556C459.014 130.016 460.113 129.774 461.211 129.861C462.675 129.971 464.035 130.657 464.993 131.769C465.951 132.881 466.429 134.327 466.321 135.791Z" fill="#FFC8A5"/>
<path d="M458.152 135.85C458.147 135.821 458.147 135.79 458.152 135.76V135.66C458.152 135.6 458.152 135.46 458.152 135.59C458.194 135.312 458.261 135.037 458.352 134.77C458.346 134.734 458.346 134.697 458.352 134.66C458.352 134.66 458.412 134.5 458.352 134.6C458.352 134.52 458.422 134.44 458.472 134.35L458.602 134.12C458.628 134.09 458.652 134.056 458.672 134.02V133.96L458.862 133.75L458.982 133.65V133.6C458.922 133.65 459.062 133.54 458.982 133.6L459.242 133.43L459.372 133.36H459.452H459.522C460.107 133.17 460.731 133.139 461.332 133.27C461.379 133.284 461.429 133.287 461.477 133.281C461.526 133.275 461.573 133.26 461.616 133.236C461.658 133.212 461.696 133.179 461.726 133.141C461.756 133.102 461.779 133.058 461.792 133.01C461.805 132.963 461.809 132.914 461.803 132.865C461.797 132.816 461.781 132.769 461.757 132.727C461.733 132.684 461.701 132.646 461.662 132.616C461.623 132.586 461.579 132.564 461.532 132.55C460.96 132.395 460.359 132.385 459.783 132.521C459.206 132.657 458.673 132.935 458.232 133.33C457.699 133.897 457.35 134.612 457.232 135.38C457.198 135.565 457.178 135.753 457.172 135.94C457.186 136.029 457.232 136.11 457.301 136.169C457.37 136.227 457.457 136.259 457.547 136.259C457.637 136.259 457.724 136.227 457.793 136.169C457.862 136.11 457.907 136.029 457.922 135.94L458.152 135.85Z" fill="#903E3E"/>
<path d="M453.53 155.14C453.53 156.47 451.17 157.55 448.27 157.55C445.37 157.55 443 156.5 443 155.14C443 153.78 445.35 152.73 448.25 152.73C451.15 152.73 453.53 153.81 453.53 155.14Z" fill="#E55E7B" stroke="#13004D" stroke-miterlimit="10"/>
<path d="M443.26 150.999C444.947 151.86 446.807 152.325 448.7 152.359C452.14 152.509 455.44 151.149 456.7 149.359L459.7 155.229L450.17 160.139L446.71 153.659L442.14 159.199L440 154.919L443.26 150.999Z" fill="white" stroke="#2ABBF0" stroke-miterlimit="10"/>
<path d="M108.94 116.32H103.38L102.46 118.98H99.52L104.54 105H107.8L112.82 118.98H109.86L108.94 116.32ZM108.18 114.08L106.16 108.24L104.14 114.08H108.18ZM113.976 113.44C113.976 112.294 114.21 111.294 114.676 110.44C115.143 109.574 115.79 108.907 116.616 108.44C117.443 107.96 118.39 107.72 119.456 107.72C120.83 107.72 121.963 108.067 122.856 108.76C123.763 109.44 124.37 110.4 124.676 111.64H121.656C121.496 111.16 121.223 110.787 120.836 110.52C120.463 110.24 119.996 110.1 119.436 110.1C118.636 110.1 118.003 110.394 117.536 110.98C117.07 111.554 116.836 112.374 116.836 113.44C116.836 114.494 117.07 115.314 117.536 115.9C118.003 116.474 118.636 116.76 119.436 116.76C120.57 116.76 121.31 116.254 121.656 115.24H124.676C124.37 116.44 123.763 117.394 122.856 118.1C121.95 118.807 120.816 119.16 119.456 119.16C118.39 119.16 117.443 118.927 116.616 118.46C115.79 117.98 115.143 117.314 114.676 116.46C114.21 115.594 113.976 114.587 113.976 113.44ZM126.008 113.44C126.008 112.294 126.241 111.294 126.708 110.44C127.174 109.574 127.821 108.907 128.648 108.44C129.474 107.96 130.421 107.72 131.488 107.72C132.861 107.72 133.994 108.067 134.888 108.76C135.794 109.44 136.401 110.4 136.708 111.64H133.688C133.528 111.16 133.254 110.787 132.868 110.52C132.494 110.24 132.028 110.1 131.468 110.1C130.668 110.1 130.034 110.394 129.568 110.98C129.101 111.554 128.868 112.374 128.868 113.44C128.868 114.494 129.101 115.314 129.568 115.9C130.034 116.474 130.668 116.76 131.468 116.76C132.601 116.76 133.341 116.254 133.688 115.24H136.708C136.401 116.44 135.794 117.394 134.888 118.1C133.981 118.807 132.848 119.16 131.488 119.16C130.421 119.16 129.474 118.927 128.648 118.46C127.821 117.98 127.174 117.314 126.708 116.46C126.241 115.594 126.008 114.587 126.008 113.44ZM143.679 119.16C142.612 119.16 141.652 118.927 140.799 118.46C139.946 117.98 139.272 117.307 138.779 116.44C138.299 115.574 138.059 114.574 138.059 113.44C138.059 112.307 138.306 111.307 138.799 110.44C139.306 109.574 139.992 108.907 140.859 108.44C141.726 107.96 142.692 107.72 143.759 107.72C144.826 107.72 145.792 107.96 146.659 108.44C147.526 108.907 148.206 109.574 148.699 110.44C149.206 111.307 149.459 112.307 149.459 113.44C149.459 114.574 149.199 115.574 148.679 116.44C148.172 117.307 147.479 117.98 146.599 118.46C145.732 118.927 144.759 119.16 143.679 119.16ZM143.679 116.72C144.186 116.72 144.659 116.6 145.099 116.36C145.552 116.107 145.912 115.734 146.179 115.24C146.446 114.747 146.579 114.147 146.579 113.44C146.579 112.387 146.299 111.58 145.739 111.02C145.192 110.447 144.519 110.16 143.719 110.16C142.919 110.16 142.246 110.447 141.699 111.02C141.166 111.58 140.899 112.387 140.899 113.44C140.899 114.494 141.159 115.307 141.679 115.88C142.212 116.44 142.879 116.72 143.679 116.72ZM161.973 107.9V118.98H159.153V117.58C158.793 118.06 158.319 118.44 157.733 118.72C157.159 118.987 156.533 119.12 155.853 119.12C154.986 119.12 154.219 118.94 153.553 118.58C152.886 118.207 152.359 117.667 151.973 116.96C151.599 116.24 151.413 115.387 151.413 114.4V107.9H154.213V114C154.213 114.88 154.433 115.56 154.873 116.04C155.313 116.507 155.913 116.74 156.673 116.74C157.446 116.74 158.053 116.507 158.493 116.04C158.933 115.56 159.153 114.88 159.153 114V107.9H161.973ZM170.875 107.74C172.195 107.74 173.262 108.16 174.075 109C174.889 109.827 175.295 110.987 175.295 112.48V118.98H172.495V112.86C172.495 111.98 172.275 111.307 171.835 110.84C171.395 110.36 170.795 110.12 170.035 110.12C169.262 110.12 168.649 110.36 168.195 110.84C167.755 111.307 167.535 111.98 167.535 112.86V118.98H164.735V107.9H167.535V109.28C167.909 108.8 168.382 108.427 168.955 108.16C169.542 107.88 170.182 107.74 170.875 107.74ZM181.218 110.2V115.56C181.218 115.934 181.305 116.207 181.478 116.38C181.665 116.54 181.971 116.62 182.398 116.62H183.698V118.98H181.938C179.578 118.98 178.398 117.834 178.398 115.54V110.2H177.078V107.9H178.398V105.16H181.218V107.9H183.698V110.2H181.218ZM193.278 109.5C193.638 108.994 194.131 108.574 194.758 108.24C195.398 107.894 196.124 107.72 196.938 107.72C197.884 107.72 198.738 107.954 199.498 108.42C200.271 108.887 200.878 109.554 201.318 110.42C201.771 111.274 201.998 112.267 201.998 113.4C201.998 114.534 201.771 115.54 201.318 116.42C200.878 117.287 200.271 117.96 199.498 118.44C198.738 118.92 197.884 119.16 196.938 119.16C196.124 119.16 195.404 118.994 194.778 118.66C194.164 118.327 193.664 117.907 193.278 117.4V124.26H190.478V107.9H193.278V109.5ZM199.138 113.4C199.138 112.734 198.998 112.16 198.718 111.68C198.451 111.187 198.091 110.814 197.638 110.56C197.198 110.307 196.718 110.18 196.198 110.18C195.691 110.18 195.211 110.314 194.758 110.58C194.318 110.834 193.958 111.207 193.678 111.7C193.411 112.194 193.278 112.774 193.278 113.44C193.278 114.107 193.411 114.687 193.678 115.18C193.958 115.674 194.318 116.054 194.758 116.32C195.211 116.574 195.691 116.7 196.198 116.7C196.718 116.7 197.198 116.567 197.638 116.3C198.091 116.034 198.451 115.654 198.718 115.16C198.998 114.667 199.138 114.08 199.138 113.4ZM206.832 109.62C207.192 109.034 207.659 108.574 208.232 108.24C208.819 107.907 209.486 107.74 210.232 107.74V110.68H209.492C208.612 110.68 207.946 110.887 207.492 111.3C207.052 111.714 206.832 112.434 206.832 113.46V118.98H204.032V107.9H206.832V109.62ZM217.038 119.16C215.972 119.16 215.012 118.927 214.158 118.46C213.305 117.98 212.632 117.307 212.138 116.44C211.658 115.574 211.418 114.574 211.418 113.44C211.418 112.307 211.665 111.307 212.158 110.44C212.665 109.574 213.352 108.907 214.218 108.44C215.085 107.96 216.052 107.72 217.118 107.72C218.185 107.72 219.152 107.96 220.018 108.44C220.885 108.907 221.565 109.574 222.058 110.44C222.565 111.307 222.818 112.307 222.818 113.44C222.818 114.574 222.558 115.574 222.038 116.44C221.532 117.307 220.838 117.98 219.958 118.46C219.092 118.927 218.118 119.16 217.038 119.16ZM217.038 116.72C217.545 116.72 218.018 116.6 218.458 116.36C218.912 116.107 219.272 115.734 219.538 115.24C219.805 114.747 219.938 114.147 219.938 113.44C219.938 112.387 219.658 111.58 219.098 111.02C218.552 110.447 217.878 110.16 217.078 110.16C216.278 110.16 215.605 110.447 215.058 111.02C214.525 111.58 214.258 112.387 214.258 113.44C214.258 114.494 214.518 115.307 215.038 115.88C215.572 116.44 216.238 116.72 217.038 116.72ZM226.292 106.58C225.786 106.58 225.366 106.427 225.032 106.12C224.712 105.8 224.552 105.407 224.552 104.94C224.552 104.474 224.712 104.087 225.032 103.78C225.366 103.46 225.786 103.3 226.292 103.3C226.786 103.3 227.192 103.46 227.512 103.78C227.832 104.087 227.992 104.474 227.992 104.94C227.992 105.407 227.832 105.8 227.512 106.12C227.192 106.427 226.786 106.58 226.292 106.58ZM227.672 120.8C227.672 122.027 227.366 122.907 226.752 123.44C226.152 123.987 225.286 124.26 224.152 124.26H222.912V121.88H223.712C224.139 121.88 224.439 121.794 224.612 121.62C224.786 121.46 224.872 121.194 224.872 120.82V107.9H227.672V120.8ZM240.739 113.2C240.739 113.6 240.712 113.96 240.659 114.28H232.559C232.625 115.08 232.905 115.707 233.399 116.16C233.892 116.614 234.499 116.84 235.219 116.84C236.259 116.84 236.999 116.394 237.439 115.5H240.459C240.139 116.567 239.525 117.447 238.619 118.14C237.712 118.82 236.599 119.16 235.279 119.16C234.212 119.16 233.252 118.927 232.399 118.46C231.559 117.98 230.899 117.307 230.419 116.44C229.952 115.574 229.719 114.574 229.719 113.44C229.719 112.294 229.952 111.287 230.419 110.42C230.885 109.554 231.539 108.887 232.379 108.42C233.219 107.954 234.185 107.72 235.279 107.72C236.332 107.72 237.272 107.947 238.099 108.4C238.939 108.854 239.585 109.5 240.039 110.34C240.505 111.167 240.739 112.12 240.739 113.2ZM237.839 112.4C237.825 111.68 237.565 111.107 237.059 110.68C236.552 110.24 235.932 110.02 235.199 110.02C234.505 110.02 233.919 110.234 233.439 110.66C232.972 111.074 232.685 111.654 232.579 112.4H237.839ZM242.062 113.44C242.062 112.294 242.296 111.294 242.762 110.44C243.229 109.574 243.876 108.907 244.702 108.44C245.529 107.96 246.476 107.72 247.542 107.72C248.916 107.72 250.049 108.067 250.942 108.76C251.849 109.44 252.456 110.4 252.762 111.64H249.742C249.582 111.16 249.309 110.787 248.922 110.52C248.549 110.24 248.082 110.1 247.522 110.1C246.722 110.1 246.089 110.394 245.622 110.98C245.156 111.554 244.922 112.374 244.922 113.44C244.922 114.494 245.156 115.314 245.622 115.9C246.089 116.474 246.722 116.76 247.522 116.76C248.656 116.76 249.396 116.254 249.742 115.24H252.762C252.456 116.44 251.849 117.394 250.942 118.1C250.036 118.807 248.902 119.16 247.542 119.16C246.476 119.16 245.529 118.927 244.702 118.46C243.876 117.98 243.229 117.314 242.762 116.46C242.296 115.594 242.062 114.587 242.062 113.44ZM258.074 110.2V115.56C258.074 115.934 258.16 116.207 258.334 116.38C258.52 116.54 258.827 116.62 259.254 116.62H260.554V118.98H258.794C256.434 118.98 255.254 117.834 255.254 115.54V110.2H253.934V107.9H255.254V105.16H258.074V107.9H260.554V110.2H258.074Z" fill="#484C52"/>
<path d="M70.5 74C70.5 67.6487 75.6487 62.5 82 62.5H357C363.351 62.5 368.5 67.6487 368.5 74V86.5H70.5V74Z" fill="white" stroke="#E54985"/>
<g clip-path="url(#clip0_2269_130752)">
<path d="M135.301 356.709C129.211 350.579 123.371 341.239 122.581 331.209C122.229 326.805 122.604 322.372 123.691 318.089C124.801 313.819 127.211 310.089 127.931 305.699C129.261 297.609 124.541 288.929 128.451 281.409C129.791 278.829 134.041 277.629 135.741 275.459C138.811 271.559 138.581 265.749 140.451 261.049C143.311 253.859 149.351 249.419 155.511 249.689C160.811 249.919 166.511 254.869 166.511 261.799C166.511 267.289 163.071 271.599 161.401 276.639C159.925 281.205 159.845 286.108 161.171 290.719C162.761 296.149 166.361 301.549 164.791 306.989C163.301 312.149 156.201 315.669 153.731 319.659C149.031 327.289 157.071 334.929 149.731 340.549C146.171 343.259 137.541 345.899 135.361 356.709" fill="white"/>
<path d="M135.301 356.709C129.211 350.579 123.371 341.239 122.581 331.209C122.229 326.805 122.604 322.372 123.691 318.089C124.801 313.819 127.211 310.089 127.931 305.699C129.261 297.609 124.541 288.929 128.451 281.409C129.791 278.829 134.041 277.629 135.741 275.459C138.811 271.559 138.581 265.749 140.451 261.049C143.311 253.859 149.351 249.419 155.511 249.689C160.811 249.919 166.511 254.869 166.511 261.799C166.511 267.289 163.071 271.599 161.401 276.639C159.925 281.205 159.845 286.108 161.171 290.719C162.761 296.149 166.361 301.549 164.791 306.989C163.301 312.149 156.201 315.669 153.731 319.659C149.031 327.289 157.071 334.929 149.731 340.549C146.171 343.259 137.541 345.899 135.361 356.709" stroke="#B7C2F9" stroke-linejoin="round"/>
<path d="M148.481 277.401C148.481 277.401 146.651 265.261 142.781 256.721" stroke="#B7C2F9" stroke-linejoin="round"/>
<path d="M160.339 286.76C160.339 286.76 147.949 292.76 143.699 296.93" stroke="#B7C2F9" stroke-linejoin="round"/>
<path d="M139.621 263.74C139.621 263.74 144.621 275.66 145.811 287.74" stroke="#B7C2F9" stroke-linejoin="round"/>
<path d="M163.73 271.119C163.73 271.119 153.29 273.459 148.48 277.399" stroke="#B7C2F9" stroke-linejoin="round"/>
<path d="M160.341 251.17C160.341 251.17 154.551 257.06 150.811 269.37C138.361 310.31 135.561 347.82 133.441 392.56" stroke="#B7C2F9" stroke-linejoin="round"/>
<path d="M127.289 293.84C134.069 307.62 138.809 325.28 138.809 325.28C138.809 325.28 149.269 317.19 159.749 313.62" stroke="#B7C2F9" stroke-linejoin="round"/>
<path d="M136.531 345.29C136.531 345.29 130.171 327.7 123.691 318.09" stroke="#B7C2F9" stroke-linejoin="round"/>
<path d="M105.522 381.119C105.632 373.879 110.342 370.119 111.762 364.039C112.755 360.38 112.509 356.494 111.062 352.989C109.522 349.719 106.602 347.299 105.752 343.739C104.902 340.179 106.402 336.359 106.752 332.629C107.372 326.019 103.912 319.169 98.5317 316.399C96.0017 315.099 93.2817 314.529 91.0017 312.739C88.7217 310.949 87.1817 308.739 85.2017 306.799C79.9017 301.629 66.6117 293.999 60.4317 301.889C59.5346 303.145 58.9579 304.6 58.7517 306.129C58.3549 308.38 58.4068 310.688 58.9045 312.919C59.4022 315.149 60.3358 317.26 61.6517 319.129C64.1917 322.549 68.1717 324.369 71.5017 326.889C73.7417 328.579 75.2217 330.259 75.3517 333.159C75.4917 336.419 74.0917 339.569 75.2817 342.779C76.9517 347.269 77.7017 347.969 80.9917 350.629C84.5017 353.459 84.9317 356.929 85.4517 361.399C85.9217 365.549 87.7417 368.399 91.1417 370.209C93.9817 371.679 100.882 372.669 105.522 381.109" fill="white"/>
<path d="M105.522 381.119C105.632 373.879 110.342 370.119 111.762 364.039C112.755 360.38 112.509 356.494 111.062 352.989C109.522 349.719 106.602 347.299 105.752 343.739C104.902 340.179 106.402 336.359 106.752 332.629C107.372 326.019 103.912 319.169 98.5317 316.399C96.0017 315.099 93.2817 314.529 91.0017 312.739C88.7217 310.949 87.1817 308.739 85.2017 306.799C79.9017 301.629 66.6117 293.999 60.4317 301.889C59.5346 303.145 58.9579 304.6 58.7517 306.129C58.3549 308.38 58.4068 310.688 58.9045 312.919C59.4022 315.149 60.3358 317.26 61.6517 319.129C64.1917 322.549 68.1717 324.369 71.5017 326.889C73.7417 328.579 75.2217 330.259 75.3517 333.159C75.4917 336.419 74.0917 339.569 75.2817 342.779C76.9517 347.269 77.7017 347.969 80.9917 350.629C84.5017 353.459 84.9317 356.929 85.4517 361.399C85.9217 365.549 87.7417 368.399 91.1417 370.209C93.9817 371.679 100.882 372.669 105.522 381.109" stroke="#B7C2F9" stroke-linejoin="round"/>
<path d="M72.3711 309.359C78.1611 314.859 90.6911 331.509 95.2911 343.419C103.101 363.639 106.641 379.959 107.111 401.999" stroke="#B7C2F9" stroke-linejoin="round"/>
<path d="M107.109 346.91C107.109 346.91 105.839 361.19 103.109 368.01" stroke="#B7C2F9" stroke-linejoin="round"/>
<path d="M100.529 317.68C100.529 317.68 99.4094 337.62 96.6094 346.91" stroke="#B7C2F9" stroke-linejoin="round"/>
<path d="M89.7389 312.08C89.4301 317.651 88.6405 323.185 87.3789 328.62C81.0404 325.405 74.3203 323.006 67.3789 321.48" stroke="#B7C2F9" stroke-linejoin="round"/>
<path d="M100.622 358.851C94.8341 354.576 88.1004 351.759 80.9922 350.641" stroke="#B7C2F9" stroke-linejoin="round"/>
<path d="M146.379 374.4C148.839 369.53 152.759 366.8 156.549 364.82C160.549 362.72 164.889 359.74 166.689 354.95C167.142 353.33 167.696 351.74 168.349 350.19C169.659 347.73 172.109 346.37 174.499 345.38C176.889 344.39 179.419 343.58 181.389 341.75C183.203 339.997 184.34 337.66 184.599 335.15C184.869 332.66 184.339 330.03 185.169 327.71C186.099 325.13 188.449 323.65 190.349 321.86C192.332 319.883 193.88 317.513 194.892 314.902C195.905 312.291 196.36 309.498 196.229 306.7C195.679 298.96 189.229 297.9 183.609 300.16C180.119 301.57 176.929 303.88 173.359 305.01C170.299 306.01 167.029 306.01 164.069 307.37C162.29 308.225 160.706 309.438 159.417 310.934C158.129 312.429 157.162 314.174 156.579 316.06C155.579 319.06 155.519 322.4 154.699 325.49C154.077 327.824 153.007 330.015 151.549 331.94C147.549 337.26 142.319 339.21 141.659 346.53C140.939 354.64 143.259 367.05 146.379 374.4Z" fill="white" stroke="#B7C2F9" stroke-linejoin="round"/>
<path d="M187.081 307.449C160.391 325.599 146.08 362.769 142.23 398.949" stroke="#B7C2F9" stroke-linejoin="round"/>
<path d="M183.159 339.571C183.159 339.571 169.939 338.791 158.629 341.281" stroke="#B7C2F9" stroke-linejoin="round"/>
<path d="M165.45 308.51C162.18 319.57 162.83 333.75 162.83 333.75C170.048 332.541 177.362 331.999 184.68 332.13" stroke="#B7C2F9" stroke-linejoin="round"/>
<path d="M193.621 317.57C193.621 317.57 182.491 316.57 175.301 317.44" stroke="#B7C2F9" stroke-linejoin="round"/>
<path d="M167.209 353.349C167.209 353.349 158.709 353.489 152.059 356.149C152.059 356.149 148.229 346.279 151.549 331.939" stroke="#B7C2F9" stroke-linejoin="round"/>
<path d="M118.9 368.089C120.16 360.259 130.54 351.439 130.13 343.489C129.64 334.049 122.62 332.489 129.01 316.259C131.5 309.939 132.83 303.089 130.74 296.699C128.19 288.909 121.74 285.549 116.82 279.889C112.15 274.579 111.64 267.409 109.03 260.989C106.34 254.379 100.1 247.559 93.7801 245.159C91.8827 244.353 89.7577 244.262 87.7979 244.902C85.8382 245.541 84.1765 246.869 83.1201 248.639C81.178 251.912 80.1425 255.644 80.1201 259.449C79.923 264.848 81.0239 270.215 83.3302 275.099C85.5802 279.819 88.9302 283.849 90.8802 288.749C93.4002 295.109 90.4701 301.469 90.5501 307.929C90.6901 319.049 101.21 320.649 104.21 329.869C105.21 332.819 104.54 335.589 103.79 338.209C102.58 342.419 101.61 345.599 105.23 349.859C112.54 358.429 117.12 359.789 118.9 368.089Z" fill="white" stroke="#B7C2F9" stroke-linejoin="round"/>
<path d="M90.5117 252.57C95.7317 260.39 102.982 275.28 106.582 288.75C118.622 333.89 120.932 371.57 118.302 418.39" stroke="#B7C2F9" stroke-linejoin="round"/>
<path d="M80.1211 265.631C88.2984 267.571 95.949 271.285 102.531 276.511C102.531 276.511 106.151 264.611 104.431 253.391" stroke="#B7C2F9" stroke-linejoin="round"/>
<path d="M82.6211 273.57C82.6211 273.57 97.1911 278.64 105.191 284.07" stroke="#B7C2F9" stroke-linejoin="round"/>
<path d="M91.7617 297.191C91.7617 297.191 105.112 302.191 110.962 306.681C116.232 295.421 116.822 279.891 116.822 279.891" stroke="#B7C2F9" stroke-linejoin="round"/>
<path d="M94.1797 317.379C101.387 318.985 108.279 321.769 114.58 325.619C114.58 325.619 127.29 310.539 127.8 291.039" stroke="#B7C2F9" stroke-linejoin="round"/>
<path d="M115.422 331C115.422 331 129.032 316.52 131.502 299.65" stroke="#B7C2F9" stroke-linejoin="round"/>
<path d="M103.789 338.211C103.789 338.211 112.789 341.751 117.289 345.871" stroke="#B7C2F9" stroke-linejoin="round"/>
<path d="M158.108 386.42V400.94C158.108 433.09 145.498 453.79 145.498 453.79H106.498C106.498 453.79 93.8984 433.09 93.8984 400.94V386.42H158.108Z" fill="#F4F6FF"/>
</g>
<g clip-path="url(#clip1_2269_130752)">
<path d="M273.001 286.5C273.001 290.554 271.799 294.516 269.547 297.886C267.296 301.256 264.095 303.882 260.351 305.433C256.606 306.984 252.486 307.39 248.51 306.599C244.535 305.809 240.884 303.857 238.018 300.991C235.152 298.125 233.2 294.474 232.409 290.498C231.619 286.523 232.025 282.403 233.576 278.658C235.127 274.914 237.753 271.713 241.123 269.461C244.493 267.21 248.455 266.008 252.508 266.008C257.943 266.008 263.156 268.167 266.999 272.01C270.842 275.853 273.001 281.065 273.001 286.5Z" fill="#43BDEF"/>
<path d="M264.643 280.247C263.732 280.641 262.768 280.899 261.782 281.012C262.82 280.404 263.601 279.439 263.977 278.296C262.997 278.87 261.927 279.273 260.812 279.489C260.343 278.997 259.78 278.606 259.155 278.339C258.53 278.073 257.858 277.936 257.178 277.938C256.529 277.932 255.885 278.055 255.283 278.299C254.681 278.542 254.133 278.902 253.671 279.357C253.208 279.813 252.839 280.355 252.586 280.952C252.332 281.55 252.199 282.192 252.194 282.841C252.194 283.217 252.236 283.591 252.319 283.957C250.349 283.861 248.421 283.355 246.657 282.473C244.893 281.591 243.332 280.352 242.072 278.834C241.63 279.579 241.396 280.43 241.395 281.297C241.392 282.11 241.591 282.912 241.975 283.628C242.359 284.345 242.916 284.955 243.595 285.403C242.804 285.379 242.03 285.168 241.337 284.788V284.85C241.338 285.459 241.453 286.062 241.677 286.629C241.987 287.399 242.483 288.079 243.122 288.609C243.761 289.139 244.522 289.501 245.336 289.662C244.908 289.776 244.466 289.834 244.023 289.834C243.708 289.833 243.395 289.803 243.086 289.743C243.413 290.723 244.036 291.578 244.87 292.188C245.704 292.799 246.707 293.135 247.741 293.15C245.968 294.517 243.791 295.256 241.553 295.25C241.155 295.249 240.758 295.226 240.363 295.181C242.65 296.621 245.298 297.382 248 297.376C255.788 297.376 260.574 291.982 261.837 286.398C262.059 285.427 262.173 284.434 262.177 283.438C262.177 283.226 262.177 283.013 262.177 282.805C263.145 282.106 263.981 281.24 264.643 280.247Z" fill="white"/>
</g>
<g clip-path="url(#clip2_2269_130752)">
<path d="M392.811 38.0618C389.275 41.7349 389.998 45.6368 389.998 57.4906C389.998 67.3343 388.281 77.2024 397.27 79.5256C400.077 80.2474 424.947 80.2474 427.75 79.5218C431.492 78.5562 434.537 75.5206 434.953 70.2274C435.012 69.4887 435.012 45.5056 434.952 44.7518C434.509 39.1137 431.038 35.8643 426.465 35.2062C425.417 35.0543 425.207 35.0093 419.83 34.9999C400.755 35.0093 396.574 34.1599 392.811 38.0618Z" fill="url(#paint0_linear_2269_130752)"/>
<path d="M412.497 40.8857C405.689 40.8857 399.224 40.28 396.754 46.6175C395.734 49.235 395.883 52.6344 395.883 57.5019C395.883 61.7732 395.746 65.7875 396.754 68.3844C399.218 74.7257 405.736 74.1182 412.493 74.1182C419.013 74.1182 425.734 74.7969 428.234 68.3844C429.256 65.7407 429.106 62.3919 429.106 57.5019C429.106 51.0107 429.464 46.82 426.316 43.6738C423.128 40.4863 418.818 40.8857 412.489 40.8857H412.497ZM411.008 43.88C425.209 43.8575 427.017 42.2788 426.019 64.2107C425.665 71.9675 419.759 71.1163 412.499 71.1163C399.261 71.1163 398.881 70.7375 398.881 57.4944C398.881 44.0975 399.931 43.8875 411.008 43.8763V43.88ZM421.366 46.6382C420.837 46.6382 420.33 46.8482 419.956 47.2219C419.582 47.5957 419.373 48.1027 419.373 48.6313C419.373 49.1599 419.582 49.6669 419.956 50.0406C420.33 50.4144 420.837 50.6244 421.366 50.6244C421.894 50.6244 422.401 50.4144 422.775 50.0406C423.149 49.6669 423.359 49.1599 423.359 48.6313C423.359 48.1027 423.149 47.5957 422.775 47.2219C422.401 46.8482 421.894 46.6382 421.366 46.6382ZM412.497 48.9688C411.376 48.9689 410.267 49.1897 409.232 49.6186C408.197 50.0475 407.256 50.6761 406.464 51.4685C404.864 53.0687 403.965 55.239 403.966 57.5019C403.966 59.7648 404.865 61.9349 406.465 63.5348C408.066 65.1347 410.236 66.0334 412.499 66.0332C414.762 66.0329 416.932 65.1338 418.532 63.5335C420.132 61.9332 421.03 59.7629 421.03 57.5C421.03 55.2372 420.131 53.0671 418.53 51.4671C416.93 49.8672 414.76 48.9685 412.497 48.9688ZM412.497 51.9632C419.819 51.9632 419.828 63.0407 412.497 63.0407C405.177 63.0407 405.166 51.9632 412.497 51.9632Z" fill="white"/>
</g>
<g clip-path="url(#clip3_2269_130752)">
<path d="M116.877 2.04137C114.519 4.49012 115.002 7.09137 115.002 14.9939C115.002 21.5564 113.857 28.1351 119.849 29.6839C121.72 30.1651 138.3 30.1651 140.169 29.6814C142.664 29.0376 144.694 27.0139 144.972 23.4851C145.01 22.9926 145.01 7.00387 144.97 6.50137C144.675 2.74262 142.362 0.576369 139.313 0.137619C138.614 0.036369 138.474 0.00636903 134.889 0.00011903C122.173 0.00636903 119.385 -0.559881 116.877 2.04137Z" fill="#140024"/>
<path d="M139.44 9.75811C138.24 9.75811 137.132 9.36047 136.243 8.68965C135.223 7.92065 134.49 6.79262 134.231 5.49247C134.167 5.16556 134.132 4.83328 134.13 4.5H130.701V13.8693L130.697 19.0013C130.697 20.3733 129.803 21.5367 128.565 21.9458C128.194 22.0685 127.803 22.1203 127.413 22.0987C126.897 22.0703 126.413 21.9146 125.993 21.6632C125.099 21.1284 124.492 20.1581 124.476 19.0481C124.45 17.3134 125.853 15.899 127.586 15.899C127.928 15.899 128.257 15.9549 128.565 16.0563V12.5749C128.24 12.5268 127.91 12.5018 127.576 12.5018C125.678 12.5018 123.904 13.2905 122.635 14.7114C121.676 15.7852 121.101 17.1552 121.013 18.5917C120.896 20.4789 121.587 22.2728 122.926 23.5964C123.123 23.7907 123.329 23.971 123.546 24.1374C124.694 25.021 126.097 25.5 127.576 25.5C127.91 25.5 128.24 25.4754 128.565 25.4273C129.946 25.2227 131.22 24.5905 132.226 23.5964C133.461 22.3751 134.144 20.7537 134.151 19.028L134.134 11.3643C134.725 11.8201 135.372 12.1975 136.059 12.4874C137.135 12.9413 138.276 13.1714 139.45 13.171V9.75729C139.451 9.75811 139.441 9.75811 139.44 9.75811Z" fill="white"/>
</g>
<circle cx="338.5" cy="43.5" r="8.5" fill="#FF9DB2"/>
<circle cx="211.5" cy="42.5" r="8.5" fill="#DEE3FF"/>
<circle cx="285.5" cy="343.5" r="7.5" stroke="white" stroke-width="2"/>
<circle cx="371.5" cy="311.5" r="7" stroke="#B7C2F9" stroke-width="3"/>
<circle cx="190.5" cy="27.5" r="8" stroke="#ACBAFF" stroke-width="3"/>
<g clip-path="url(#clip4_2269_130752)">
<path d="M290.664 10.4395H256.333C254.734 10.4395 253.438 11.7495 253.438 13.3655V42.6261C253.438 44.2421 254.734 45.5522 256.333 45.5522H290.664C292.263 45.5522 293.559 44.2421 293.559 42.6261V13.3655C293.559 11.7495 292.263 10.4395 290.664 10.4395Z" fill="#9488F2"/>
<path d="M290.664 10.4395H256.333C254.734 10.4395 253.438 11.7495 253.438 13.3655V42.6261C253.438 44.2421 254.734 45.5522 256.333 45.5522H290.664C292.263 45.5522 293.559 44.2421 293.559 42.6261V13.3655C293.559 11.7495 292.263 10.4395 290.664 10.4395Z" stroke="white" stroke-width="1.41" stroke-miterlimit="10"/>
<path d="M282.549 28.0853C282.55 27.5903 282.373 27.1119 282.051 26.7387C282.266 26.4101 282.381 26.025 282.381 25.6312C282.383 25.144 282.211 24.6725 281.898 24.302C281.585 23.9315 281.151 23.6864 280.675 23.6113C280.609 23.6016 280.542 23.6016 280.476 23.6113H276.272C276.316 23.3281 276.378 22.982 276.447 22.6737C276.618 22.0246 276.658 21.3472 276.563 20.6822C276.469 20.0172 276.243 19.3783 275.899 18.8037C275.719 18.4472 275.447 18.1465 275.111 17.9338C274.776 17.721 274.389 17.6041 273.993 17.5955C273.68 17.5928 273.371 17.6639 273.09 17.8032C272.945 17.879 272.825 17.998 272.749 18.1442C272.672 18.2904 272.641 18.4569 272.661 18.6212C272.783 19.5498 272.852 20.4848 272.866 21.4214C272.533 22.175 272.161 22.9102 271.751 23.6239C271.359 24.3076 271.002 25.0112 270.68 25.7319C270.65 25.8123 270.636 25.8977 270.637 25.9836V33.5725C270.657 33.7618 270.725 33.9428 270.834 34.0981C270.943 34.2535 271.089 34.378 271.26 34.4597C271.592 34.6502 271.974 34.7356 272.355 34.7051H278.67C279.148 34.7084 279.612 34.541 279.98 34.2325C280.348 33.924 280.596 33.4942 280.681 33.0187C280.722 32.775 280.722 32.5262 280.681 32.2825C281.011 32.1097 281.288 31.8488 281.481 31.5281C281.674 31.2075 281.777 30.8394 281.777 30.4639C281.779 30.2387 281.741 30.0149 281.665 29.8032C281.941 29.6122 282.166 29.3555 282.32 29.0559C282.474 28.7563 282.553 28.423 282.549 28.0853Z" fill="white"/>
<path d="M268.748 25.1777H265.311C264.85 25.1777 264.477 25.5553 264.477 26.0209V33.8364C264.477 34.3021 264.85 34.6796 265.311 34.6796H268.748C269.209 34.6796 269.583 34.3021 269.583 33.8364V26.0209C269.583 25.5553 269.209 25.1777 268.748 25.1777Z" fill="white"/>
</g>
<circle cx="343.5" cy="392.5" r="11" stroke="white" stroke-width="3"/>
<defs>
<linearGradient id="paint0_linear_2269_130752" x1="392.897" y1="77.1257" x2="434.72" y2="40.9286" gradientUnits="userSpaceOnUse">
<stop stop-color="#FFDD55"/>
<stop offset="0.5" stop-color="#FF543E"/>
<stop offset="1" stop-color="#C837AB"/>
</linearGradient>
<clipPath id="clip0_2269_130752">
<rect width="138.77" height="209.78" fill="white" transform="translate(58 244)"/>
</clipPath>
<clipPath id="clip1_2269_130752">
<rect width="41" height="41" fill="white" transform="translate(232 266)"/>
</clipPath>
<clipPath id="clip2_2269_130752">
<rect x="390" y="35" width="45" height="45" rx="4" fill="white"/>
</clipPath>
<clipPath id="clip3_2269_130752">
<rect x="115" width="30" height="30" rx="4" fill="white"/>
</clipPath>
<clipPath id="clip4_2269_130752">
<rect width="41" height="36" fill="white" transform="translate(253 10)"/>
</clipPath>
</defs>
</svg>
