<svg width="588" height="500" viewBox="0 0 588 500" fill="none" xmlns="http://www.w3.org/2000/svg">
<path d="M109.959 454.256C109.959 454.256 25.5663 437.63 21.2575 378.631C16.3098 310.832 84.4167 310.087 73.9693 260.935C59.3874 192.371 87.8831 151.517 151.788 154.332C205.671 156.711 251.131 198.822 279.956 162.62C311.046 123.546 369.2 94.666 426.753 118.875C484.306 143.083 456.459 221.735 496.254 238.448C536.049 255.161 560.778 299.245 553.836 360.255C547.329 417.464 512.908 455.484 463.962 454.904C439.979 454.623 366.246 455.223 282.589 454.904C195.524 454.546 109.959 454.256 109.959 454.256Z" fill="#DEE3FF"/>
<path d="M131.689 365.841C130.749 367.161 129.109 367.671 128.029 366.961C126.949 366.251 126.839 364.621 127.779 363.291C128.138 362.68 128.713 362.226 129.391 362.018C130.069 361.811 130.8 361.865 131.439 362.171C132.479 362.871 132.599 364.501 131.689 365.841Z" stroke="#7189FF" stroke-miterlimit="10"/>
<path d="M470.427 288.641H228.427C226.621 288.641 224.889 287.923 223.612 286.646C222.335 285.369 221.617 283.637 221.617 281.831V73.1909C221.617 71.3847 222.335 69.6526 223.612 68.3755C224.889 67.0983 226.621 66.3809 228.427 66.3809H514.187C515.993 66.3809 517.725 67.0983 519.003 68.3755C520.28 69.6526 520.997 71.3847 520.997 73.1909V266.581" stroke="#F2718D" stroke-miterlimit="10"/>
<path d="M521 71.3127V86H222V71.3127C222 68.3806 224.509 66 227.611 66H515.389C518.499 66 521 68.3806 521 71.3127Z" fill="white" stroke="#E54985" stroke-miterlimit="10"/>
<path d="M153.965 420.49H161.785V369.72H153.965V420.49Z" fill="white" stroke="#16004D" stroke-miterlimit="10"/>
<path d="M156.138 436.689H159.608C161.978 436.689 163.898 434.769 163.898 432.399V397.62C163.898 395.25 161.978 393.329 159.608 393.329H156.138C153.769 393.329 151.848 395.25 151.848 397.62V432.399C151.848 434.769 153.769 436.689 156.138 436.689Z" fill="#2A4BF0"/>
<path d="M127.017 433.07H128.937H186.807H191.357V438.29V444.16H186.807V438.29H128.937V444.16H124.387V438.29V433.07H127.017Z" fill="#2A4BF0"/>
<path d="M126.617 454.14C130.472 454.14 133.597 451.015 133.597 447.16C133.597 443.305 130.472 440.18 126.617 440.18C122.762 440.18 119.637 443.305 119.637 447.16C119.637 451.015 122.762 454.14 126.617 454.14Z" fill="white" stroke="#16004D" stroke-miterlimit="10"/>
<path d="M123.938 447.16C123.938 447.691 124.095 448.209 124.389 448.649C124.684 449.09 125.102 449.434 125.592 449.636C126.082 449.839 126.62 449.892 127.14 449.789C127.66 449.686 128.138 449.43 128.513 449.056C128.887 448.681 129.143 448.203 129.246 447.683C129.349 447.163 129.296 446.625 129.094 446.135C128.891 445.645 128.547 445.227 128.106 444.932C127.666 444.638 127.148 444.48 126.617 444.48C125.907 444.48 125.225 444.763 124.722 445.265C124.22 445.768 123.938 446.45 123.938 447.16Z" fill="#16004D"/>
<path d="M189.328 454.14C193.183 454.14 196.308 451.015 196.308 447.16C196.308 443.305 193.183 440.18 189.328 440.18C185.473 440.18 182.348 443.305 182.348 447.16C182.348 451.015 185.473 454.14 189.328 454.14Z" fill="white" stroke="#16004D" stroke-miterlimit="10"/>
<path d="M186.688 447.16C186.688 447.691 186.845 448.209 187.139 448.649C187.434 449.09 187.852 449.434 188.342 449.636C188.832 449.839 189.37 449.892 189.89 449.789C190.41 449.686 190.888 449.43 191.263 449.056C191.637 448.681 191.893 448.203 191.996 447.683C192.099 447.163 192.046 446.625 191.844 446.135C191.641 445.645 191.297 445.227 190.856 444.932C190.416 444.638 189.898 444.48 189.367 444.48C188.657 444.48 187.975 444.763 187.472 445.265C186.97 445.768 186.688 446.45 186.688 447.16Z" fill="#16004D"/>
<path d="M116.307 228.2C116.307 228.2 86.2572 227.63 72.5472 258.84C58.8372 290.05 68.6872 334.14 92.5472 355.91C117.907 379.06 179.767 372.84 190.547 370.22C201.327 367.6 153.547 265.57 152.227 262.37C150.907 259.17 116.307 228.2 116.307 228.2Z" fill="#2A4BF0"/>
<path d="M77.7578 336.58C77.7578 336.58 88.3878 366.28 130.088 371.32C171.788 376.36 194.558 369.07 194.558 369.07" stroke="#16004D" stroke-miterlimit="10" stroke-linecap="round"/>
<path d="M228.555 402.939L231.915 432.889L212.625 434.989L209.945 402.939H228.555Z" fill="#F6C8A6"/>
<path d="M270.238 454.361L208.638 454.081L206.348 419.391L235.968 420.731L239.898 434.681L270.238 454.361Z" fill="#130047"/>
<path d="M251.688 439.131L248.328 446.251L247.858 447.251C247.518 447.971 248.598 448.611 248.938 447.881L252.288 440.761L252.758 439.761C253.108 439.041 252.028 438.401 251.688 439.131Z" fill="white"/>
<path d="M246.038 436.119L242.688 443.239L242.218 444.239C241.878 444.959 242.948 445.599 243.298 444.869L246.648 437.749L247.118 436.749C247.458 436.029 246.378 435.389 246.038 436.119Z" fill="white"/>
<path d="M220.686 454.13C221.63 452.47 222.088 450.577 222.006 448.669C221.824 445.816 220.519 443.151 218.377 441.256C216.235 439.362 213.431 438.392 210.576 438.56C210.146 438.56 208.236 438.77 207.816 438.84L207.976 439.59C208.416 439.51 210.156 439.28 210.606 439.27C213.269 439.113 215.885 440.018 217.882 441.785C219.88 443.552 221.097 446.038 221.266 448.7C221.353 450.611 220.858 452.505 219.846 454.13H220.686Z" fill="#EFEFEF"/>
<path d="M242.908 325.13C237.818 301.67 220.518 301.59 220.518 301.59L135.238 296.59C135.238 296.59 135.808 323.17 152.518 335.79C163.158 343.79 196.318 340.79 196.318 340.79L195.318 328.7L202.118 413H242.888C242.888 413 247.988 348.58 242.908 325.13Z" fill="#0A4DD0"/>
<path d="M242.906 413.009H202.136L195.336 328.699" stroke="#7189FF" stroke-miterlimit="10" stroke-linecap="round"/>
<path d="M135.238 296.609C135.238 296.609 135.808 323.189 152.518 335.809C163.158 343.809 196.318 340.809 196.318 340.809" stroke="#7189FF" stroke-miterlimit="10" stroke-linecap="round"/>
<path d="M201.137 400.58H243.737" stroke="#16004D" stroke-miterlimit="10" stroke-linecap="round"/>
<path d="M197.965 402.939L201.335 432.889L182.035 434.989L179.355 402.939H197.965Z" fill="#F6C8A6"/>
<path d="M239.646 454.361L178.056 454.081L175.766 419.391L205.376 420.731L209.306 434.681L239.646 454.361Z" fill="#130047"/>
<path d="M221.106 439.131L217.756 446.251L217.276 447.251C216.936 447.971 218.016 448.611 218.356 447.881L221.706 440.761L222.186 439.761C222.526 439.041 221.446 438.401 221.106 439.131Z" fill="white"/>
<path d="M215.458 436.119L212.098 443.239L211.628 444.239C211.288 444.959 212.368 445.599 212.708 444.869L216.058 437.749L216.528 436.749C216.878 436.029 215.798 435.389 215.458 436.119Z" fill="white"/>
<path d="M190.108 454.13C191.049 452.468 191.503 450.576 191.418 448.669C191.238 445.817 189.935 443.152 187.795 441.257C185.655 439.362 182.852 438.393 179.998 438.559C179.568 438.559 177.648 438.77 177.238 438.84L177.398 439.59C177.828 439.51 179.578 439.28 180.028 439.27C182.69 439.116 185.304 440.021 187.301 441.788C189.298 443.554 190.516 446.039 190.688 448.7C190.765 450.61 190.27 452.501 189.268 454.13H190.108Z" fill="#EFEFEF"/>
<path d="M205.375 420.73L209.305 434.68L240.205 454.36" stroke="white" stroke-width="0.75" stroke-miterlimit="10" stroke-linecap="round"/>
<path d="M212.315 325.13C207.235 301.67 189.925 301.59 189.925 301.59L104.645 296.59C104.645 296.59 102.385 329.35 119.545 341.34C133.685 351.24 166.265 347.5 166.265 347.5L164.745 328.72L171.545 413.02H212.315C212.315 413.02 217.395 348.58 212.315 325.13Z" fill="#0A4DD0"/>
<path d="M189.926 301.59C189.926 301.59 207.236 301.67 212.316 325.13C217.396 348.59 212.316 413.01 212.316 413.01H171.546L165.016 332.01" stroke="#16004D" stroke-miterlimit="10" stroke-linecap="round"/>
<path d="M170.547 400.58H213.157" stroke="#16004D" stroke-miterlimit="10" stroke-linecap="round"/>
<path d="M187.977 215.499C187.977 215.499 197.607 196.879 199.487 193.639C201.367 190.399 203.607 188.399 204.747 189.639C205.887 190.879 204.747 195.039 204.747 195.039C204.747 195.039 208.747 188.589 210.697 186.279C212.647 183.969 215.697 183.429 214.267 187.429C214.267 187.429 216.137 184.359 217.617 184.789C219.097 185.219 217.697 187.789 216.327 189.289C216.327 189.289 218.957 185.499 220.277 186.189C221.597 186.879 220.277 189.189 218.717 191.189C218.717 191.189 220.547 188.329 222.037 189.049C223.527 189.769 221.687 192.499 219.687 196.009C217.687 199.519 214.077 204.689 212.227 208.249C210.827 210.939 206.857 219.249 206.857 219.249L206.097 221.249L187.977 215.499Z" fill="#F6C8A6"/>
<path d="M204.305 189.311C204.305 189.311 205.195 189.441 205.195 191.731C205.195 194.021 204.255 197.311 204.745 199.261C205.235 201.211 204.305 204.261 204.305 204.261" stroke="#EF8576" stroke-width="0.75" stroke-miterlimit="10" stroke-linecap="round"/>
<path d="M209.125 194.901L215.225 186.211" stroke="#EF8576" stroke-width="0.75" stroke-miterlimit="10" stroke-linecap="round"/>
<path d="M211.195 196.011L217.525 187.631" stroke="#EF8576" stroke-width="0.75" stroke-miterlimit="10" stroke-linecap="round"/>
<path d="M213.777 197.47L219.897 189.76" stroke="#EF8576" stroke-width="0.75" stroke-miterlimit="10" stroke-linecap="round"/>
<path d="M188.688 210.6L165.168 239.42L168.548 235.28L139.828 208.93C139.828 208.93 141.688 257.82 142.938 264.06C144.188 270.3 162.938 284.65 184.168 273.81C205.398 262.97 209.938 220.81 209.938 220.81L188.688 210.6Z" fill="#FF9BB1"/>
<path d="M182.867 217.72L208.177 231.12C209.467 225.02 209.927 220.81 209.927 220.81L188.687 210.6L182.867 217.72Z" stroke="#16004D" stroke-miterlimit="10" stroke-linecap="round"/>
<path d="M207.587 219.82L204.867 229.15" stroke="#16004D" stroke-miterlimit="10" stroke-linecap="round"/>
<path d="M204.306 218.109C204.186 218.219 200.676 227.109 200.676 227.109" stroke="#16004D" stroke-miterlimit="10" stroke-linecap="round"/>
<path d="M200.537 216.301L196.047 224.491" stroke="#16004D" stroke-miterlimit="10" stroke-linecap="round"/>
<path d="M196.527 214.369L191.957 222.309" stroke="#16004D" stroke-miterlimit="10" stroke-linecap="round"/>
<path d="M187.566 220.2L192.276 212.65" stroke="#16004D" stroke-miterlimit="10" stroke-linecap="round"/>
<path d="M209.926 220.81L188.676 210.6L165.156 239.43" stroke="#16004D" stroke-miterlimit="10" stroke-linecap="round"/>
<path d="M168.536 235.28L139.816 208.93" stroke="#16004D" stroke-miterlimit="10" stroke-linecap="round"/>
<path d="M129.967 203.721C129.967 203.721 150.117 205.281 159.187 232.181C168.257 259.081 173.577 299.631 173.577 299.631L94.2675 301.891C94.2675 301.891 87.9175 210.911 129.967 203.721Z" fill="#FF9BB1" stroke="#16004D" stroke-miterlimit="10"/>
<path d="M152.417 282.01L181.667 289.34L193.437 299.37H140.207L152.417 282.01Z" fill="#F6C8A6"/>
<path d="M174.355 291.34L185.205 292.18" stroke="#EF8576" stroke-width="0.75" stroke-miterlimit="10" stroke-linecap="round"/>
<path d="M175.148 295.641L188.878 295.931" stroke="#EF8576" stroke-width="0.75" stroke-miterlimit="10" stroke-linecap="round"/>
<path d="M159.296 276.59L116.086 263.38L120.086 234.06L122.786 204.57C122.786 204.57 104.416 208.7 86.9364 235.07C83.4686 240.415 80.3036 245.951 77.4564 251.65C65.7564 275.24 67.0764 285.78 72.6464 292.25C76.4464 296.68 82.0764 299.37 92.0264 299.37H160.026L159.296 276.59Z" fill="#FF9BB1"/>
<path d="M104.037 259.699L159.297 276.589L160.027 299.369H92.0267C74.3067 299.369 66.3367 290.369 69.8267 272.699" stroke="#16004D" stroke-miterlimit="10" stroke-linecap="round"/>
<path d="M112.516 262.29L121.346 238.9" stroke="#16004D" stroke-miterlimit="10" stroke-linecap="round"/>
<path d="M150.219 273.811V299.371" stroke="#16004D" stroke-miterlimit="10" stroke-linecap="round"/>
<path d="M150.219 278.68L159.009 279.56" stroke="#16004D" stroke-miterlimit="10" stroke-linecap="round"/>
<path d="M150.457 283.99L159.457 284.41" stroke="#16004D" stroke-miterlimit="10" stroke-linecap="round"/>
<path d="M150.219 288.711L159.589 288.841" stroke="#16004D" stroke-miterlimit="10" stroke-linecap="round"/>
<path d="M150.219 292.93L159.719 293.04" stroke="#16004D" stroke-miterlimit="10" stroke-linecap="round"/>
<path d="M150.219 296.32H159.929" stroke="#16004D" stroke-miterlimit="10" stroke-linecap="round"/>
<path d="M138.505 204.339C137.095 203.339 133.735 200.559 132.655 200.649C131.575 200.739 126.855 198.869 123.805 202.419C120.125 206.709 118.435 213.669 121.715 217.759C124.335 220.999 129.855 219.679 133.715 217.159C137.885 219.159 142.355 218.669 144.345 215.789C146.685 212.439 143.155 207.549 138.505 204.339Z" fill="white" stroke="#16004D" stroke-miterlimit="10"/>
<path d="M140.238 170.32H133.098C128.358 170.32 124.478 174.74 124.478 180.15V183.55C123.51 182.864 122.354 182.494 121.168 182.49C120.283 182.493 119.41 182.703 118.622 183.105C117.833 183.507 117.15 184.089 116.628 184.804C116.106 185.519 115.76 186.347 115.617 187.221C115.474 188.094 115.539 188.99 115.806 189.833C116.074 190.677 116.536 191.447 117.156 192.079C117.775 192.711 118.535 193.188 119.374 193.472C120.212 193.756 121.106 193.839 121.982 193.713C122.858 193.588 123.693 193.258 124.418 192.75L124.508 192.81V205.01C124.524 206.316 125.049 207.563 125.972 208.486C126.895 209.409 128.143 209.935 129.448 209.95H132.588C133.893 209.935 135.141 209.409 136.064 208.486C136.987 207.563 137.512 206.316 137.528 205.01V201.01H140.238C144.988 201.01 148.868 196.59 148.868 191.19V180.15C148.868 174.74 144.988 170.32 140.238 170.32Z" fill="#F6C8A6"/>
<path d="M124.235 188.87C124.235 188.87 124.485 185.05 120.555 185.47" stroke="#EF8576" stroke-miterlimit="10" stroke-linecap="round"/>
<path d="M134.586 183.76C134.586 184.079 134.68 184.39 134.857 184.655C135.034 184.92 135.286 185.126 135.58 185.248C135.874 185.37 136.198 185.402 136.51 185.339C136.822 185.277 137.109 185.124 137.334 184.899C137.56 184.674 137.713 184.387 137.775 184.074C137.837 183.762 137.805 183.438 137.683 183.144C137.562 182.85 137.355 182.599 137.09 182.422C136.826 182.245 136.514 182.15 136.196 182.15C135.769 182.15 135.359 182.32 135.057 182.622C134.756 182.924 134.586 183.333 134.586 183.76Z" fill="black"/>
<path d="M145.117 183.501C145.115 183.775 145.195 184.043 145.346 184.271C145.496 184.5 145.712 184.678 145.964 184.784C146.217 184.89 146.495 184.918 146.764 184.865C147.033 184.812 147.279 184.68 147.473 184.487C147.667 184.293 147.798 184.046 147.851 183.778C147.904 183.509 147.876 183.231 147.77 182.978C147.665 182.726 147.486 182.51 147.258 182.359C147.029 182.208 146.761 182.129 146.487 182.131C146.125 182.134 145.778 182.279 145.521 182.535C145.265 182.791 145.12 183.138 145.117 183.501Z" fill="black"/>
<path d="M128.988 189.68C128.988 190.471 129.223 191.244 129.662 191.902C130.102 192.56 130.727 193.072 131.458 193.375C132.188 193.678 132.993 193.757 133.769 193.603C134.545 193.449 135.257 193.068 135.817 192.508C136.376 191.949 136.757 191.236 136.911 190.46C137.066 189.684 136.987 188.88 136.684 188.149C136.381 187.418 135.868 186.793 135.211 186.354C134.553 185.914 133.779 185.68 132.988 185.68C131.927 185.68 130.91 186.101 130.16 186.851C129.41 187.601 128.988 188.619 128.988 189.68Z" fill="#EF8576"/>
<path d="M148.139 186.631C148.375 186.635 148.609 186.665 148.839 186.721V190.871C148.853 191.474 148.807 192.077 148.699 192.671C148.514 192.702 148.326 192.719 148.139 192.721C147.331 192.721 146.557 192.4 145.986 191.829C145.415 191.258 145.094 190.483 145.094 189.676C145.094 188.868 145.415 188.094 145.986 187.523C146.557 186.952 147.331 186.631 148.139 186.631Z" fill="#EF8576"/>
<path d="M133.986 181.5C134.771 181.078 135.599 180.742 136.456 180.5C136.545 180.466 136.618 180.401 136.662 180.317C136.705 180.232 136.715 180.135 136.69 180.043C136.665 179.952 136.606 179.873 136.526 179.822C136.446 179.772 136.35 179.753 136.256 179.77C135.341 180.042 134.454 180.4 133.606 180.84C133.534 180.896 133.485 180.977 133.468 181.067C133.45 181.158 133.467 181.251 133.513 181.33C133.559 181.41 133.633 181.469 133.72 181.499C133.807 181.528 133.901 181.525 133.986 181.49V181.5Z" fill="#0F0D1D"/>
<path d="M145.089 181.139C145.977 181.108 146.867 181.151 147.749 181.269C147.845 181.291 147.947 181.275 148.032 181.225C148.118 181.175 148.181 181.094 148.209 180.999C148.234 180.904 148.22 180.803 148.172 180.717C148.123 180.631 148.043 180.567 147.949 180.539C147.001 180.409 146.045 180.359 145.089 180.389C144.99 180.392 144.896 180.433 144.826 180.504C144.757 180.575 144.719 180.67 144.719 180.769C144.719 180.867 144.758 180.962 144.827 181.031C144.897 181.1 144.991 181.139 145.089 181.139Z" fill="#0F0D1D"/>
<path d="M141.328 182.269C141.843 183.785 142.567 185.223 143.478 186.539L143.618 186.029C142.953 186.306 142.259 186.504 141.548 186.619C141.5 186.632 141.456 186.654 141.417 186.684C141.378 186.714 141.346 186.752 141.321 186.795C141.297 186.838 141.282 186.885 141.276 186.934C141.27 186.983 141.274 187.032 141.288 187.079C141.318 187.173 141.382 187.251 141.467 187.299C141.552 187.347 141.653 187.362 141.748 187.339C142.523 187.211 143.279 186.986 143.998 186.669C144.04 186.645 144.077 186.612 144.106 186.573C144.136 186.534 144.157 186.489 144.169 186.442C144.182 186.394 144.184 186.345 144.177 186.296C144.17 186.248 144.153 186.201 144.128 186.159C143.246 184.902 142.549 183.525 142.058 182.069C141.898 181.609 141.178 181.809 141.328 182.269Z" fill="black"/>
<path d="M143.888 192.119C143.888 194.863 139.688 194.705 139.688 192.119C139.673 192.03 139.627 191.95 139.559 191.891C139.49 191.833 139.403 191.801 139.312 191.801C139.222 191.801 139.135 191.833 139.066 191.891C138.998 191.95 138.952 192.03 138.938 192.119C138.942 192.698 139.122 193.262 139.454 193.736C139.787 194.209 140.256 194.571 140.798 194.771C141.341 194.972 141.932 195.003 142.493 194.86C143.054 194.717 143.558 194.406 143.938 193.969C144.366 193.447 144.606 192.795 144.617 192.119C144.603 192.03 144.557 191.95 144.489 191.891C144.42 191.833 144.333 191.801 144.242 191.801C144.152 191.801 144.065 191.833 143.996 191.891C143.928 191.95 143.882 192.03 143.867 192.119H143.888Z" fill="white"/>
<path d="M143.888 192.119H143.867C143.882 192.03 143.928 191.95 143.996 191.891C144.065 191.833 144.152 191.801 144.242 191.801H139.312C139.403 191.801 139.49 191.833 139.559 191.891C139.627 191.95 139.673 192.03 139.688 192.119C139.688 194.705 143.888 194.863 143.888 192.119Z" fill="white"/>
<path d="M181.928 296.449H147.648V299.869H181.928V296.449Z" fill="#0F0D1D"/>
<path d="M245.117 251.381H182.027C179.503 251.381 177.457 253.427 177.457 255.951V295.311C177.457 297.835 179.503 299.881 182.027 299.881H245.117C247.641 299.881 249.687 297.835 249.687 295.311V255.951C249.687 253.427 247.641 251.381 245.117 251.381Z" fill="#0F0D1D"/>
<path d="M219.185 275.569C219.187 276.814 218.82 278.031 218.13 279.066C217.44 280.102 216.459 280.91 215.309 281.387C214.16 281.865 212.895 281.991 211.674 281.749C210.454 281.508 209.332 280.91 208.451 280.03C207.571 279.151 206.971 278.03 206.727 276.81C206.484 275.589 206.608 274.324 207.083 273.174C207.559 272.024 208.365 271.041 209.4 270.35C210.434 269.658 211.651 269.289 212.895 269.289C214.562 269.289 216.16 269.95 217.34 271.128C218.519 272.305 219.183 273.903 219.185 275.569Z" stroke="white" stroke-miterlimit="10"/>
<path d="M74.7675 306.051H65.9375V455.431H74.7675V306.051Z" fill="white" stroke="#16004D" stroke-miterlimit="10"/>
<path d="M329.908 306.051H321.078V455.431H329.908V306.051Z" fill="white" stroke="#16004D" stroke-miterlimit="10"/>
<path d="M338.188 302H35.3984V309.32H338.188V302Z" fill="white" stroke="#16004D" stroke-miterlimit="10"/>
<path d="M5.74828 456.289H563.108C570.638 456.289 578.168 456.409 585.698 456.289H586.698C587.03 456.289 587.348 456.157 587.582 455.923C587.817 455.689 587.948 455.371 587.948 455.039C587.948 454.708 587.817 454.39 587.582 454.155C587.348 453.921 587.03 453.789 586.698 453.789H29.3383C21.8083 453.789 14.2683 453.679 6.73828 453.789H5.73828C5.40676 453.789 5.08882 453.921 4.8544 454.155C4.61998 454.39 4.48828 454.708 4.48828 455.039C4.48828 455.371 4.61998 455.689 4.8544 455.923C5.08882 456.157 5.40676 456.289 5.73828 456.289H5.74828Z" fill="#0F0D1D"/>
<path d="M261.207 139.5H482.167C487.978 139.5 492.688 144.21 492.688 150.02V156.98C492.688 162.79 487.978 167.5 482.167 167.5H261.207C255.397 167.5 250.688 162.79 250.688 156.98V150.02C250.688 144.21 255.397 139.5 261.207 139.5Z" fill="white" stroke="#F2718D"/>
<path d="M482.167 192H261.207C255.121 192 250.188 196.934 250.188 203.02V233.98C250.188 240.066 255.121 245 261.207 245H482.167C488.254 245 493.188 240.066 493.188 233.98V203.02C493.188 196.934 488.254 192 482.167 192Z" stroke="#F2718D" stroke-miterlimit="10"/>
<path d="M260.94 119.34H255.38L254.46 122H251.52L256.54 108.02H259.8L264.82 122H261.86L260.94 119.34ZM260.18 117.1L258.16 111.26L256.14 117.1H260.18ZM265.976 116.46C265.976 115.313 266.21 114.313 266.676 113.46C267.143 112.593 267.79 111.927 268.616 111.46C269.443 110.98 270.39 110.74 271.456 110.74C272.83 110.74 273.963 111.087 274.856 111.78C275.763 112.46 276.37 113.42 276.676 114.66H273.656C273.496 114.18 273.223 113.807 272.836 113.54C272.463 113.26 271.996 113.12 271.436 113.12C270.636 113.12 270.003 113.413 269.536 114C269.07 114.573 268.836 115.393 268.836 116.46C268.836 117.513 269.07 118.333 269.536 118.92C270.003 119.493 270.636 119.78 271.436 119.78C272.57 119.78 273.31 119.273 273.656 118.26H276.676C276.37 119.46 275.763 120.413 274.856 121.12C273.95 121.827 272.816 122.18 271.456 122.18C270.39 122.18 269.443 121.947 268.616 121.48C267.79 121 267.143 120.333 266.676 119.48C266.21 118.613 265.976 117.607 265.976 116.46ZM278.008 116.46C278.008 115.313 278.241 114.313 278.708 113.46C279.174 112.593 279.821 111.927 280.648 111.46C281.474 110.98 282.421 110.74 283.488 110.74C284.861 110.74 285.994 111.087 286.888 111.78C287.794 112.46 288.401 113.42 288.708 114.66H285.688C285.528 114.18 285.254 113.807 284.868 113.54C284.494 113.26 284.028 113.12 283.468 113.12C282.668 113.12 282.034 113.413 281.568 114C281.101 114.573 280.868 115.393 280.868 116.46C280.868 117.513 281.101 118.333 281.568 118.92C282.034 119.493 282.668 119.78 283.468 119.78C284.601 119.78 285.341 119.273 285.688 118.26H288.708C288.401 119.46 287.794 120.413 286.888 121.12C285.981 121.827 284.848 122.18 283.488 122.18C282.421 122.18 281.474 121.947 280.648 121.48C279.821 121 279.174 120.333 278.708 119.48C278.241 118.613 278.008 117.607 278.008 116.46ZM295.679 122.18C294.612 122.18 293.652 121.947 292.799 121.48C291.946 121 291.272 120.327 290.779 119.46C290.299 118.593 290.059 117.593 290.059 116.46C290.059 115.327 290.306 114.327 290.799 113.46C291.306 112.593 291.992 111.927 292.859 111.46C293.726 110.98 294.692 110.74 295.759 110.74C296.826 110.74 297.792 110.98 298.659 111.46C299.526 111.927 300.206 112.593 300.699 113.46C301.206 114.327 301.459 115.327 301.459 116.46C301.459 117.593 301.199 118.593 300.679 119.46C300.172 120.327 299.479 121 298.599 121.48C297.732 121.947 296.759 122.18 295.679 122.18ZM295.679 119.74C296.186 119.74 296.659 119.62 297.099 119.38C297.552 119.127 297.912 118.753 298.179 118.26C298.446 117.767 298.579 117.167 298.579 116.46C298.579 115.407 298.299 114.6 297.739 114.04C297.192 113.467 296.519 113.18 295.719 113.18C294.919 113.18 294.246 113.467 293.699 114.04C293.166 114.6 292.899 115.407 292.899 116.46C292.899 117.513 293.159 118.327 293.679 118.9C294.212 119.46 294.879 119.74 295.679 119.74ZM313.973 110.92V122H311.153V120.6C310.793 121.08 310.319 121.46 309.733 121.74C309.159 122.007 308.533 122.14 307.853 122.14C306.986 122.14 306.219 121.96 305.553 121.6C304.886 121.227 304.359 120.687 303.973 119.98C303.599 119.26 303.413 118.407 303.413 117.42V110.92H306.213V117.02C306.213 117.9 306.433 118.58 306.873 119.06C307.313 119.527 307.913 119.76 308.673 119.76C309.446 119.76 310.053 119.527 310.493 119.06C310.933 118.58 311.153 117.9 311.153 117.02V110.92H313.973ZM322.875 110.76C324.195 110.76 325.262 111.18 326.075 112.02C326.889 112.847 327.295 114.007 327.295 115.5V122H324.495V115.88C324.495 115 324.275 114.327 323.835 113.86C323.395 113.38 322.795 113.14 322.035 113.14C321.262 113.14 320.649 113.38 320.195 113.86C319.755 114.327 319.535 115 319.535 115.88V122H316.735V110.92H319.535V112.3C319.909 111.82 320.382 111.447 320.955 111.18C321.542 110.9 322.182 110.76 322.875 110.76ZM333.218 113.22V118.58C333.218 118.953 333.305 119.227 333.478 119.4C333.665 119.56 333.971 119.64 334.398 119.64H335.698V122H333.938C331.578 122 330.398 120.853 330.398 118.56V113.22H329.078V110.92H330.398V108.18H333.218V110.92H335.698V113.22H333.218ZM357.838 110.92L354.598 122H351.578L349.558 114.26L347.538 122H344.498L341.238 110.92H344.078L346.038 119.36L348.158 110.92H351.118L353.198 119.34L355.158 110.92H357.838ZM364.273 122.18C363.206 122.18 362.246 121.947 361.393 121.48C360.539 121 359.866 120.327 359.373 119.46C358.893 118.593 358.653 117.593 358.653 116.46C358.653 115.327 358.899 114.327 359.393 113.46C359.899 112.593 360.586 111.927 361.453 111.46C362.319 110.98 363.286 110.74 364.353 110.74C365.419 110.74 366.386 110.98 367.253 111.46C368.119 111.927 368.799 112.593 369.293 113.46C369.799 114.327 370.053 115.327 370.053 116.46C370.053 117.593 369.793 118.593 369.273 119.46C368.766 120.327 368.073 121 367.193 121.48C366.326 121.947 365.353 122.18 364.273 122.18ZM364.273 119.74C364.779 119.74 365.253 119.62 365.693 119.38C366.146 119.127 366.506 118.753 366.773 118.26C367.039 117.767 367.173 117.167 367.173 116.46C367.173 115.407 366.893 114.6 366.333 114.04C365.786 113.467 365.113 113.18 364.313 113.18C363.513 113.18 362.839 113.467 362.293 114.04C361.759 114.6 361.493 115.407 361.493 116.46C361.493 117.513 361.753 118.327 362.273 118.9C362.806 119.46 363.473 119.74 364.273 119.74ZM374.907 112.64C375.267 112.053 375.733 111.593 376.307 111.26C376.893 110.927 377.56 110.76 378.307 110.76V113.7H377.567C376.687 113.7 376.02 113.907 375.567 114.32C375.127 114.733 374.907 115.453 374.907 116.48V122H372.107V110.92H374.907V112.64ZM386.753 122L382.993 117.28V122H380.193V107.2H382.993V115.62L386.713 110.92H390.353L385.473 116.48L390.393 122H386.753ZM396.112 122.18C395.206 122.18 394.392 122.02 393.672 121.7C392.952 121.367 392.379 120.92 391.952 120.36C391.539 119.8 391.312 119.18 391.272 118.5H394.092C394.146 118.927 394.352 119.28 394.712 119.56C395.086 119.84 395.546 119.98 396.092 119.98C396.626 119.98 397.039 119.873 397.332 119.66C397.639 119.447 397.792 119.173 397.792 118.84C397.792 118.48 397.606 118.213 397.232 118.04C396.872 117.853 396.292 117.653 395.492 117.44C394.666 117.24 393.986 117.033 393.452 116.82C392.932 116.607 392.479 116.28 392.092 115.84C391.719 115.4 391.532 114.807 391.532 114.06C391.532 113.447 391.706 112.887 392.052 112.38C392.412 111.873 392.919 111.473 393.572 111.18C394.239 110.887 395.019 110.74 395.912 110.74C397.232 110.74 398.286 111.073 399.072 111.74C399.859 112.393 400.292 113.28 400.372 114.4H397.692C397.652 113.96 397.466 113.613 397.132 113.36C396.812 113.093 396.379 112.96 395.832 112.96C395.326 112.96 394.932 113.053 394.652 113.24C394.386 113.427 394.252 113.687 394.252 114.02C394.252 114.393 394.439 114.68 394.812 114.88C395.186 115.067 395.766 115.26 396.552 115.46C397.352 115.66 398.012 115.867 398.532 116.08C399.052 116.293 399.499 116.627 399.872 117.08C400.259 117.52 400.459 118.107 400.472 118.84C400.472 119.48 400.292 120.053 399.932 120.56C399.586 121.067 399.079 121.467 398.412 121.76C397.759 122.04 396.992 122.18 396.112 122.18ZM405.571 112.52C405.931 112.013 406.424 111.593 407.051 111.26C407.691 110.913 408.417 110.74 409.231 110.74C410.177 110.74 411.031 110.973 411.791 111.44C412.564 111.907 413.171 112.573 413.611 113.44C414.064 114.293 414.291 115.287 414.291 116.42C414.291 117.553 414.064 118.56 413.611 119.44C413.171 120.307 412.564 120.98 411.791 121.46C411.031 121.94 410.177 122.18 409.231 122.18C408.417 122.18 407.697 122.013 407.071 121.68C406.457 121.347 405.957 120.927 405.571 120.42V127.28H402.771V110.92H405.571V112.52ZM411.431 116.42C411.431 115.753 411.291 115.18 411.011 114.7C410.744 114.207 410.384 113.833 409.931 113.58C409.491 113.327 409.011 113.2 408.491 113.2C407.984 113.2 407.504 113.333 407.051 113.6C406.611 113.853 406.251 114.227 405.971 114.72C405.704 115.213 405.571 115.793 405.571 116.46C405.571 117.127 405.704 117.707 405.971 118.2C406.251 118.693 406.611 119.073 407.051 119.34C407.504 119.593 407.984 119.72 408.491 119.72C409.011 119.72 409.491 119.587 409.931 119.32C410.384 119.053 410.744 118.673 411.011 118.18C411.291 117.687 411.431 117.1 411.431 116.42ZM415.605 116.42C415.605 115.3 415.825 114.307 416.265 113.44C416.719 112.573 417.325 111.907 418.085 111.44C418.859 110.973 419.719 110.74 420.665 110.74C421.492 110.74 422.212 110.907 422.825 111.24C423.452 111.573 423.952 111.993 424.325 112.5V110.92H427.145V122H424.325V120.38C423.965 120.9 423.465 121.333 422.825 121.68C422.199 122.013 421.472 122.18 420.645 122.18C419.712 122.18 418.859 121.94 418.085 121.46C417.325 120.98 416.719 120.307 416.265 119.44C415.825 118.56 415.605 117.553 415.605 116.42ZM424.325 116.46C424.325 115.78 424.192 115.2 423.925 114.72C423.659 114.227 423.299 113.853 422.845 113.6C422.392 113.333 421.905 113.2 421.385 113.2C420.865 113.2 420.385 113.327 419.945 113.58C419.505 113.833 419.145 114.207 418.865 114.7C418.599 115.18 418.465 115.753 418.465 116.42C418.465 117.087 418.599 117.673 418.865 118.18C419.145 118.673 419.505 119.053 419.945 119.32C420.399 119.587 420.879 119.72 421.385 119.72C421.905 119.72 422.392 119.593 422.845 119.34C423.299 119.073 423.659 118.7 423.925 118.22C424.192 117.727 424.325 117.14 424.325 116.46ZM429.16 116.46C429.16 115.313 429.393 114.313 429.86 113.46C430.327 112.593 430.973 111.927 431.8 111.46C432.627 110.98 433.573 110.74 434.64 110.74C436.013 110.74 437.147 111.087 438.04 111.78C438.947 112.46 439.553 113.42 439.86 114.66H436.84C436.68 114.18 436.407 113.807 436.02 113.54C435.647 113.26 435.18 113.12 434.62 113.12C433.82 113.12 433.187 113.413 432.72 114C432.253 114.573 432.02 115.393 432.02 116.46C432.02 117.513 432.253 118.333 432.72 118.92C433.187 119.493 433.82 119.78 434.62 119.78C435.753 119.78 436.493 119.273 436.84 118.26H439.86C439.553 119.46 438.947 120.413 438.04 121.12C437.133 121.827 436 122.18 434.64 122.18C433.573 122.18 432.627 121.947 431.8 121.48C430.973 121 430.327 120.333 429.86 119.48C429.393 118.613 429.16 117.607 429.16 116.46ZM452.211 116.22C452.211 116.62 452.185 116.98 452.131 117.3H444.031C444.098 118.1 444.378 118.727 444.871 119.18C445.365 119.633 445.971 119.86 446.691 119.86C447.731 119.86 448.471 119.413 448.911 118.52H451.931C451.611 119.587 450.998 120.467 450.091 121.16C449.185 121.84 448.071 122.18 446.751 122.18C445.685 122.18 444.725 121.947 443.871 121.48C443.031 121 442.371 120.327 441.891 119.46C441.425 118.593 441.191 117.593 441.191 116.46C441.191 115.313 441.425 114.307 441.891 113.44C442.358 112.573 443.011 111.907 443.851 111.44C444.691 110.973 445.658 110.74 446.751 110.74C447.805 110.74 448.745 110.967 449.571 111.42C450.411 111.873 451.058 112.52 451.511 113.36C451.978 114.187 452.211 115.14 452.211 116.22ZM449.311 115.42C449.298 114.7 449.038 114.127 448.531 113.7C448.025 113.26 447.405 113.04 446.671 113.04C445.978 113.04 445.391 113.253 444.911 113.68C444.445 114.093 444.158 114.673 444.051 115.42H449.311Z" fill="#484C52"/>
<path fill-rule="evenodd" clip-rule="evenodd" d="M160.091 174.411C160.735 177.926 157.649 182.927 147.282 180.219C146.516 180.018 145.766 179.809 145.034 179.591C144.945 179.568 144.855 179.545 144.766 179.52C143.686 179.29 142.675 178.938 141.741 178.513C138.913 177.5 136.405 176.366 134.251 175.178C134.003 175.956 133.608 176.969 132.986 178.28C131.396 181.67 127.346 183.76 125.286 184.63C124.795 184.011 124.181 183.501 123.482 183.133C122.782 182.764 122.014 182.546 121.226 182.49C119.813 182.55 118.457 183.062 117.356 183.95C115.776 180.88 115.826 172.24 121.166 166.86C122.883 165.129 124.829 163.869 126.921 163.076C129.67 161.485 135.829 161.361 146.036 163.987C146.036 163.987 153.985 163.65 155.17 167.256C156.356 170.862 150.589 171.011 150.589 171.011C150.589 171.011 159.448 170.897 160.091 174.411Z" fill="#0F0D1D"/>
<g clip-path="url(#clip0_1989_118856)">
<path d="M258.999 69.9994C258.999 75.733 257.299 81.3379 254.113 86.1052C250.928 90.8725 246.4 94.5882 241.103 96.7823C235.806 98.9765 229.977 99.5506 224.354 98.432C218.73 97.3135 213.565 94.5525 209.51 90.4982C205.456 86.4439 202.695 81.2784 201.577 75.655C200.458 70.0316 201.032 64.2027 203.226 58.9056C205.42 53.6084 209.136 49.0808 213.903 45.8954C218.671 42.71 224.276 41.0098 230.009 41.0098C237.698 41.0098 245.071 44.064 250.508 49.5006C255.945 54.9372 258.999 62.3109 258.999 69.9994Z" fill="#43BDEF"/>
<path d="M247.176 61.1535C245.887 61.7114 244.523 62.076 243.127 62.2354C244.597 61.3766 245.701 60.0105 246.233 58.3943C244.847 59.206 243.333 59.7766 241.756 60.0819C241.093 59.3862 240.295 58.8327 239.411 58.4554C238.528 58.078 237.576 57.8846 236.615 57.887C235.697 57.8794 234.786 58.0529 233.934 58.3975C233.083 58.742 232.308 59.2509 231.653 59.895C230.998 60.5392 230.477 61.306 230.119 62.1517C229.76 62.9973 229.572 63.9053 229.564 64.8238C229.565 65.3549 229.624 65.8845 229.74 66.4027C226.954 66.2658 224.226 65.5508 221.731 64.3031C219.236 63.0554 217.027 61.3023 215.246 59.1552C214.619 60.2095 214.289 61.4129 214.288 62.6392C214.283 63.7896 214.565 64.9232 215.108 65.9373C215.651 66.9514 216.439 67.8142 217.399 68.4475C216.281 68.4138 215.186 68.1158 214.205 67.5778V67.6658C214.207 68.5271 214.37 69.3805 214.687 70.1817C215.125 71.271 215.827 72.2339 216.731 72.9832C217.635 73.7325 218.712 74.2446 219.863 74.4732C219.257 74.634 218.632 74.7157 218.005 74.7165C217.56 74.7152 217.116 74.6719 216.68 74.587C217.142 75.9739 218.024 77.1827 219.204 78.0462C220.384 78.9097 221.803 79.3851 223.264 79.4066C220.757 81.3412 217.677 82.3865 214.511 82.378C213.948 82.3767 213.387 82.3438 212.828 82.2797C216.063 84.317 219.809 85.3941 223.632 85.3857C234.648 85.3857 241.419 77.7552 243.205 69.8555C243.52 68.4816 243.681 67.0771 243.687 65.6676C243.687 65.3673 243.687 65.0671 243.687 64.772C245.056 63.7839 246.238 62.5584 247.176 61.1535Z" fill="white"/>
</g>
<g clip-path="url(#clip1_1989_118856)">
<path d="M313.06 250.03C313.06 239.52 304.54 231 294.03 231C283.52 231 275 239.52 275 250.03C275 260.54 283.52 269.06 294.03 269.06C304.54 269.06 313.06 260.54 313.06 250.03Z" fill="#2100ED"/>
<path d="M291.129 261.49H295.759V249.89H298.999L299.339 246H295.759V243.79C295.759 242.88 295.949 242.51 296.829 242.51H299.339V238.51H296.129C292.689 238.51 291.129 240.03 291.129 242.94V246.03H288.719V249.97H291.129V261.49Z" fill="white"/>
</g>
<g clip-path="url(#clip2_1989_118856)">
<path d="M545.335 150.477H507.655C505.899 150.477 504.477 151.896 504.477 153.646V185.345C504.477 187.096 505.899 188.515 507.655 188.515H545.335C547.09 188.515 548.513 187.096 548.513 185.345V153.646C548.513 151.896 547.09 150.477 545.335 150.477Z" fill="#9488F2"/>
<path d="M545.335 150.477H507.655C505.899 150.477 504.477 151.896 504.477 153.646V185.345C504.477 187.096 505.899 188.515 507.655 188.515H545.335C547.09 188.515 548.513 187.096 548.513 185.345V153.646C548.513 151.896 547.09 150.477 545.335 150.477Z" stroke="white" stroke-width="1.41" stroke-miterlimit="10"/>
<path d="M536.43 169.593C536.431 169.056 536.237 168.538 535.884 168.134C536.119 167.778 536.245 167.361 536.246 166.934C536.247 166.406 536.059 165.895 535.716 165.494C535.372 165.093 534.896 164.827 534.373 164.746C534.301 164.735 534.227 164.735 534.154 164.746H529.541C529.589 164.439 529.657 164.064 529.732 163.73C529.92 163.027 529.964 162.293 529.86 161.572C529.757 160.852 529.509 160.16 529.131 159.537C528.933 159.151 528.635 158.825 528.266 158.595C527.898 158.365 527.474 158.238 527.039 158.229C526.696 158.226 526.357 158.303 526.048 158.454C525.889 158.536 525.758 158.665 525.673 158.823C525.589 158.981 525.555 159.162 525.577 159.34C525.711 160.346 525.786 161.359 525.802 162.373C525.437 163.19 525.029 163.986 524.579 164.759C524.148 165.5 523.756 166.262 523.403 167.043C523.37 167.13 523.354 167.223 523.356 167.316V175.537C523.378 175.742 523.452 175.938 523.572 176.106C523.691 176.275 523.852 176.41 524.039 176.498C524.404 176.704 524.823 176.797 525.242 176.764H532.172C532.697 176.768 533.206 176.586 533.61 176.252C534.014 175.918 534.287 175.452 534.38 174.937C534.424 174.673 534.424 174.403 534.38 174.139C534.742 173.952 535.046 173.67 535.258 173.322C535.47 172.975 535.582 172.576 535.583 172.169C535.585 171.925 535.543 171.683 535.46 171.454C535.762 171.247 536.009 170.969 536.178 170.644C536.348 170.319 536.434 169.958 536.43 169.593Z" fill="white"/>
<path d="M521.286 166.443H517.514C517.008 166.443 516.598 166.852 516.598 167.357V175.824C516.598 176.328 517.008 176.737 517.514 176.737H521.286C521.792 176.737 522.202 176.328 522.202 175.824V167.357C522.202 166.852 521.792 166.443 521.286 166.443Z" fill="white"/>
</g>
<g clip-path="url(#clip3_1989_118856)">
<path d="M421.353 61.1099C429.827 59.1238 435.087 50.6439 433.101 42.1695C431.115 33.6952 422.635 28.4354 414.161 30.4214C405.686 32.4075 400.426 40.8874 402.413 49.3618C404.399 57.8362 412.879 63.096 421.353 61.1099Z" fill="#EBB1BE"/>
<path d="M423.149 41.6997C422.536 41.0878 421.705 40.7441 420.839 40.7441C419.973 40.7441 419.142 41.0878 418.529 41.6997L417.699 42.5497L416.839 41.7097C416.214 41.1444 415.395 40.8421 414.553 40.8659C413.71 40.8897 412.91 41.2378 412.318 41.8375C411.726 42.4371 411.388 43.2422 411.375 44.0847C411.363 44.9272 411.675 45.7422 412.249 46.3597L415.429 49.4997C415.919 49.9737 416.545 50.2846 417.219 50.3897C417.731 50.4711 418.256 50.4282 418.748 50.2646C419.241 50.101 419.687 49.8215 420.049 49.4497L423.149 46.3097C423.758 45.697 424.099 44.8684 424.099 44.0047C424.099 43.1409 423.758 42.3123 423.149 41.6997Z" fill="white"/>
</g>
<g clip-path="url(#clip4_1989_118856)">
<path d="M507.301 356.709C501.211 350.579 495.371 341.239 494.581 331.209C494.229 326.805 494.604 322.372 495.691 318.089C496.801 313.819 499.211 310.089 499.931 305.699C501.261 297.609 496.541 288.929 500.451 281.409C501.791 278.829 506.041 277.629 507.741 275.459C510.811 271.559 510.581 265.749 512.451 261.049C515.311 253.859 521.351 249.419 527.511 249.689C532.811 249.919 538.511 254.869 538.511 261.799C538.511 267.289 535.071 271.599 533.401 276.639C531.925 281.205 531.845 286.108 533.171 290.719C534.761 296.149 538.361 301.549 536.791 306.989C535.301 312.149 528.201 315.669 525.731 319.659C521.031 327.289 529.071 334.929 521.731 340.549C518.171 343.259 509.541 345.899 507.361 356.709" fill="white"/>
<path d="M507.301 356.709C501.211 350.579 495.371 341.239 494.581 331.209C494.229 326.805 494.604 322.372 495.691 318.089C496.801 313.819 499.211 310.089 499.931 305.699C501.261 297.609 496.541 288.929 500.451 281.409C501.791 278.829 506.041 277.629 507.741 275.459C510.811 271.559 510.581 265.749 512.451 261.049C515.311 253.859 521.351 249.419 527.511 249.689C532.811 249.919 538.511 254.869 538.511 261.799C538.511 267.289 535.071 271.599 533.401 276.639C531.925 281.205 531.845 286.108 533.171 290.719C534.761 296.149 538.361 301.549 536.791 306.989C535.301 312.149 528.201 315.669 525.731 319.659C521.031 327.289 529.071 334.929 521.731 340.549C518.171 343.259 509.541 345.899 507.361 356.709" stroke="#B7C2F9" stroke-linejoin="round"/>
<path d="M520.481 277.401C520.481 277.401 518.651 265.261 514.781 256.721" stroke="#B7C2F9" stroke-linejoin="round"/>
<path d="M532.339 286.76C532.339 286.76 519.949 292.76 515.699 296.93" stroke="#B7C2F9" stroke-linejoin="round"/>
<path d="M511.621 263.74C511.621 263.74 516.621 275.66 517.811 287.74" stroke="#B7C2F9" stroke-linejoin="round"/>
<path d="M535.73 271.119C535.73 271.119 525.29 273.459 520.48 277.399" stroke="#B7C2F9" stroke-linejoin="round"/>
<path d="M532.341 251.17C532.341 251.17 526.551 257.06 522.811 269.37C510.361 310.31 507.561 347.82 505.441 392.56" stroke="#B7C2F9" stroke-linejoin="round"/>
<path d="M499.289 293.84C506.069 307.62 510.809 325.28 510.809 325.28C510.809 325.28 521.269 317.19 531.749 313.62" stroke="#B7C2F9" stroke-linejoin="round"/>
<path d="M508.531 345.29C508.531 345.29 502.171 327.7 495.691 318.09" stroke="#B7C2F9" stroke-linejoin="round"/>
<path d="M477.522 381.119C477.632 373.879 482.342 370.119 483.762 364.039C484.755 360.38 484.509 356.494 483.062 352.989C481.522 349.719 478.602 347.299 477.752 343.739C476.902 340.179 478.402 336.359 478.752 332.629C479.372 326.019 475.912 319.169 470.532 316.399C468.002 315.099 465.282 314.529 463.002 312.739C460.722 310.949 459.182 308.739 457.202 306.799C451.902 301.629 438.612 293.999 432.432 301.889C431.535 303.145 430.958 304.6 430.752 306.129C430.355 308.38 430.407 310.688 430.905 312.919C431.402 315.149 432.336 317.26 433.652 319.129C436.192 322.549 440.172 324.369 443.502 326.889C445.742 328.579 447.222 330.259 447.352 333.159C447.492 336.419 446.092 339.569 447.282 342.779C448.952 347.269 449.702 347.969 452.992 350.629C456.502 353.459 456.932 356.929 457.452 361.399C457.922 365.549 459.742 368.399 463.142 370.209C465.982 371.679 472.882 372.669 477.522 381.109" fill="white"/>
<path d="M477.522 381.119C477.632 373.879 482.342 370.119 483.762 364.039C484.755 360.38 484.509 356.494 483.062 352.989C481.522 349.719 478.602 347.299 477.752 343.739C476.902 340.179 478.402 336.359 478.752 332.629C479.372 326.019 475.912 319.169 470.532 316.399C468.002 315.099 465.282 314.529 463.002 312.739C460.722 310.949 459.182 308.739 457.202 306.799C451.902 301.629 438.612 293.999 432.432 301.889C431.535 303.145 430.958 304.6 430.752 306.129C430.355 308.38 430.407 310.688 430.905 312.919C431.402 315.149 432.336 317.26 433.652 319.129C436.192 322.549 440.172 324.369 443.502 326.889C445.742 328.579 447.222 330.259 447.352 333.159C447.492 336.419 446.092 339.569 447.282 342.779C448.952 347.269 449.702 347.969 452.992 350.629C456.502 353.459 456.932 356.929 457.452 361.399C457.922 365.549 459.742 368.399 463.142 370.209C465.982 371.679 472.882 372.669 477.522 381.109" stroke="#B7C2F9" stroke-linejoin="round"/>
<path d="M444.371 309.359C450.161 314.859 462.691 331.509 467.291 343.419C475.101 363.639 478.641 379.959 479.111 401.999" stroke="#B7C2F9" stroke-linejoin="round"/>
<path d="M479.109 346.91C479.109 346.91 477.839 361.19 475.109 368.01" stroke="#B7C2F9" stroke-linejoin="round"/>
<path d="M472.529 317.68C472.529 317.68 471.409 337.62 468.609 346.91" stroke="#B7C2F9" stroke-linejoin="round"/>
<path d="M461.739 312.08C461.43 317.651 460.64 323.185 459.379 328.62C453.04 325.405 446.32 323.006 439.379 321.48" stroke="#B7C2F9" stroke-linejoin="round"/>
<path d="M472.622 358.851C466.834 354.576 460.1 351.759 452.992 350.641" stroke="#B7C2F9" stroke-linejoin="round"/>
<path d="M518.379 374.4C520.839 369.53 524.759 366.8 528.549 364.82C532.549 362.72 536.889 359.74 538.689 354.95C539.142 353.33 539.696 351.74 540.349 350.19C541.659 347.73 544.109 346.37 546.499 345.38C548.889 344.39 551.419 343.58 553.389 341.75C555.203 339.997 556.34 337.66 556.599 335.15C556.869 332.66 556.339 330.03 557.169 327.71C558.099 325.13 560.449 323.65 562.349 321.86C564.332 319.883 565.88 317.513 566.892 314.902C567.905 312.291 568.36 309.498 568.229 306.7C567.679 298.96 561.229 297.9 555.609 300.16C552.119 301.57 548.929 303.88 545.359 305.01C542.299 306.01 539.029 306.01 536.069 307.37C534.29 308.225 532.706 309.438 531.417 310.934C530.129 312.429 529.162 314.174 528.579 316.06C527.579 319.06 527.519 322.4 526.699 325.49C526.077 327.824 525.007 330.015 523.549 331.94C519.549 337.26 514.319 339.21 513.659 346.53C512.939 354.64 515.259 367.05 518.379 374.4Z" fill="white" stroke="#B7C2F9" stroke-linejoin="round"/>
<path d="M559.081 307.449C532.391 325.599 518.08 362.769 514.23 398.949" stroke="#B7C2F9" stroke-linejoin="round"/>
<path d="M555.159 339.571C555.159 339.571 541.939 338.791 530.629 341.281" stroke="#B7C2F9" stroke-linejoin="round"/>
<path d="M537.45 308.51C534.18 319.57 534.83 333.75 534.83 333.75C542.048 332.541 549.362 331.999 556.68 332.13" stroke="#B7C2F9" stroke-linejoin="round"/>
<path d="M565.621 317.57C565.621 317.57 554.491 316.57 547.301 317.44" stroke="#B7C2F9" stroke-linejoin="round"/>
<path d="M539.209 353.349C539.209 353.349 530.709 353.489 524.059 356.149C524.059 356.149 520.229 346.279 523.549 331.939" stroke="#B7C2F9" stroke-linejoin="round"/>
<path d="M490.9 368.089C492.16 360.259 502.54 351.439 502.13 343.489C501.64 334.049 494.62 332.489 501.01 316.259C503.5 309.939 504.83 303.089 502.74 296.699C500.19 288.909 493.74 285.549 488.82 279.889C484.15 274.579 483.64 267.409 481.03 260.989C478.34 254.379 472.1 247.559 465.78 245.159C463.883 244.353 461.758 244.262 459.798 244.902C457.838 245.541 456.177 246.869 455.12 248.639C453.178 251.912 452.143 255.644 452.12 259.449C451.923 264.848 453.024 270.215 455.33 275.099C457.58 279.819 460.93 283.849 462.88 288.749C465.4 295.109 462.47 301.469 462.55 307.929C462.69 319.049 473.21 320.649 476.21 329.869C477.21 332.819 476.54 335.589 475.79 338.209C474.58 342.419 473.61 345.599 477.23 349.859C484.54 358.429 489.12 359.789 490.9 368.089Z" fill="white" stroke="#B7C2F9" stroke-linejoin="round"/>
<path d="M462.512 252.57C467.732 260.39 474.982 275.28 478.582 288.75C490.622 333.89 492.932 371.57 490.302 418.39" stroke="#B7C2F9" stroke-linejoin="round"/>
<path d="M452.121 265.631C460.298 267.571 467.949 271.285 474.531 276.511C474.531 276.511 478.151 264.611 476.431 253.391" stroke="#B7C2F9" stroke-linejoin="round"/>
<path d="M454.621 273.57C454.621 273.57 469.191 278.64 477.191 284.07" stroke="#B7C2F9" stroke-linejoin="round"/>
<path d="M463.762 297.191C463.762 297.191 477.112 302.191 482.962 306.681C488.232 295.421 488.822 279.891 488.822 279.891" stroke="#B7C2F9" stroke-linejoin="round"/>
<path d="M466.18 317.379C473.387 318.985 480.279 321.769 486.58 325.619C486.58 325.619 499.29 310.539 499.8 291.039" stroke="#B7C2F9" stroke-linejoin="round"/>
<path d="M487.422 331C487.422 331 501.032 316.52 503.502 299.65" stroke="#B7C2F9" stroke-linejoin="round"/>
<path d="M475.789 338.211C475.789 338.211 484.789 341.751 489.289 345.871" stroke="#B7C2F9" stroke-linejoin="round"/>
<path d="M530.108 386.42V400.94C530.108 433.09 517.498 453.79 517.498 453.79H478.498C478.498 453.79 465.898 433.09 465.898 400.94V386.42H530.108Z" fill="#F4F6FF"/>
</g>
<circle cx="487.5" cy="21.5" r="8.5" fill="#FF9DB2"/>
<circle cx="517.5" cy="85.5" r="8.5" fill="#DEE3FF"/>
<circle cx="185.5" cy="114.5" r="13.5" fill="#DEE3FF"/>
<circle cx="402.5" cy="343.5" r="7.5" stroke="white" stroke-width="2"/>
<circle cx="234.5" cy="173.5" r="7" stroke="#B7C2F9" stroke-width="3"/>
<defs>
<clipPath id="clip0_1989_118856">
<rect width="58" height="58" fill="white" transform="translate(201 41)"/>
</clipPath>
<clipPath id="clip1_1989_118856">
<rect width="38.06" height="38.06" fill="white" transform="translate(275 231)"/>
</clipPath>
<clipPath id="clip2_1989_118856">
<rect width="45" height="39" fill="white" transform="translate(504 150)"/>
</clipPath>
<clipPath id="clip3_1989_118856">
<rect width="31.51" height="31.51" fill="white" transform="translate(402 30)"/>
</clipPath>
<clipPath id="clip4_1989_118856">
<rect width="138.77" height="209.78" fill="white" transform="translate(430 244)"/>
</clipPath>
</defs>
</svg>
